<?xml version="1.0" encoding="utf-8"?>
<!DOCTYPE svg PUBLIC "-//W3C//DTD SVG 1.1//EN" "http://www.w3.org/Graphics/SVG/1.1/DTD/svg11.dtd">
<svg version="1.1"
	 id="svg4825" xmlns:rdf="http://www.w3.org/1999/02/22-rdf-syntax-ns#" xmlns:dc="http://purl.org/dc/elements/1.1/" xmlns:cc="http://creativecommons.org/ns#" xmlns:svg="http://www.w3.org/2000/svg"
	 xmlns="http://www.w3.org/2000/svg" xmlns:xlink="http://www.w3.org/1999/xlink" x="0px" y="0px" width="178.6px" height="249.4px"
	 viewBox="0 0 178.6 249.4" enable-background="new 0 0 178.6 249.4" xml:space="preserve">
<g id="layer1" transform="translate(-408.3858,-153.59955)">
	<g id="g5526" transform="matrix(0.99999718,0,0,1.000002,-2432.6669,1242.4696)">
		<path id="rect6355-6-85-3-6-8-7" fill="#FBFBF6" stroke="#7F7F7F" stroke-width="0.4" d="M2850-1088.5h160.8
			c4.7,0,8.5,3.8,8.5,8.5v231.6c0,4.7-3.8,8.5-8.5,8.5H2850c-4.7,0-8.5-3.8-8.5-8.5V-1080C2841.5-1084.7,2845.3-1088.5,2850-1088.5z
			"/>
		<path id="path147-0-8-1-6-13-2-22-1-5" d="M2971.6-1062.1c-7.8,0.2-11.3,9-5.5,15.8c0.8,1,0.9,1.6-0.6,0.6
			c-3.9-2.6-11.4-0.9-11.8,7.1c-0.5,9.8,13.3,12.7,15.8,2.2c0.1-1.1,1-1.1,0.8,0.5c-0.2,4.2-1.6,8.2-3.4,12.1c3.1,0,6.5,0,9.3,0
			c-1.8-3.9-3.1-7.8-3.4-12.1c-0.2-1.6,0.7-1.6,0.8-0.5c2.6,10.4,16.3,7.6,15.8-2.2c-0.4-8-7.9-9.7-11.8-7.1c-1.5,1-1.5,0.4-0.6-0.6
			C2982.9-1053.1,2979.4-1061.9,2971.6-1062.1C2971.6-1062.1,2971.6-1062.1,2971.6-1062.1L2971.6-1062.1z"/>
		<path id="path147-0-8-1-6-75-2-83-21-1-8" d="M2889.1-1062.1c-7.8,0.2-11.3,9-5.5,15.8c0.8,1,0.9,1.6-0.6,0.6
			c-3.9-2.6-11.4-0.9-11.8,7.1c-0.5,9.8,13.2,12.7,15.8,2.2c0.1-1.1,1-1.1,0.8,0.5c-0.2,4.2-1.6,8.2-3.4,12.1c3.1,0,6.5,0,9.3,0
			c-1.8-3.9-3.1-7.8-3.4-12.1c-0.2-1.6,0.7-1.6,0.8-0.5c2.6,10.4,16.3,7.6,15.8-2.2c-0.4-8-7.9-9.7-11.8-7.1c-1.5,1-1.5,0.4-0.6-0.6
			C2900.4-1053.1,2896.9-1061.9,2889.1-1062.1C2889.1-1062.1,2889.1-1062.1,2889.1-1062.1L2889.1-1062.1z"/>
		<path id="path147-0-8-1-6-7-5-5-7-3-5-5" d="M2971.6-865.6c-7.8-0.2-11.3-9-5.5-15.8c0.8-1,0.9-1.6-0.6-0.6
			c-3.9,2.6-11.4,0.9-11.8-7.1c-0.5-9.8,13.3-12.7,15.8-2.2c0.1,1.1,1,1.1,0.8-0.5c-0.2-4.2-1.6-8.2-3.4-12.1c3.1,0,6.5,0,9.3,0
			c-1.8,3.9-3.1,7.8-3.4,12.1c-0.2,1.6,0.7,1.6,0.8,0.5c2.6-10.4,16.3-7.6,15.8,2.2c-0.4,8-7.9,9.7-11.8,7.1c-1.5-1-1.5-0.4-0.6,0.6
			C2982.9-874.5,2979.4-865.7,2971.6-865.6C2971.6-865.6,2971.6-865.6,2971.6-865.6L2971.6-865.6z"/>
		<path id="path147-0-8-1-6-75-6-1-2-7-9-3" d="M2889.1-865.6c-7.8-0.2-11.3-9-5.5-15.8c0.8-1,0.9-1.6-0.6-0.6
			c-3.9,2.6-11.4,0.9-11.8-7.1c-0.5-9.8,13.2-12.7,15.8-2.2c0.1,1.1,1,1.1,0.8-0.5c-0.2-4.2-1.6-8.2-3.4-12.1c3.1,0,6.5,0,9.3,0
			c-1.8,3.9-3.1,7.8-3.4,12.1c-0.2,1.6,0.7,1.6,0.8,0.5c2.6-10.4,16.3-7.6,15.8,2.2c-0.4,8-7.9,9.7-11.8,7.1c-1.5-1-1.5-0.4-0.6,0.6
			C2900.4-874.5,2896.9-865.7,2889.1-865.6C2889.1-865.6,2889.1-865.6,2889.1-865.6L2889.1-865.6z"/>
		<path id="path147-0-8-1-6-2-00-7-1-1-4" d="M2930.3-1035.7c-7.8,0.2-11.3,9-5.5,15.8c0.8,1,0.9,1.6-0.6,0.6
			c-3.9-2.6-11.4-0.9-11.8,7.1c-0.5,9.8,13.3,12.7,15.8,2.2c0.1-1.1,1-1.1,0.8,0.5c-0.2,4.2-1.6,8.2-3.4,12.1c3.1,0,6.5,0,9.3,0
			c-1.8-3.9-3.1-7.8-3.4-12.1c-0.2-1.6,0.7-1.6,0.8-0.5c2.6,10.4,16.3,7.6,15.8-2.2c-0.4-8-7.9-9.7-11.8-7.1c-1.5,1-1.5,0.4-0.6-0.6
			C2941.7-1026.7,2938.2-1035.5,2930.3-1035.7C2930.4-1035.7,2930.4-1035.7,2930.3-1035.7L2930.3-1035.7z"/>
		<path id="path147-0-8-1-6-2-0-8-6-8-1-8" d="M2930.3-891.9c-7.8-0.2-11.3-9-5.5-15.8c0.8-1,0.9-1.6-0.6-0.6
			c-3.9,2.6-11.4,0.9-11.8-7.1c-0.5-9.8,13.3-12.7,15.8-2.2c0.1,1.1,1,1.1,0.8-0.5c-0.2-4.2-1.6-8.2-3.4-12.1c3.1,0,6.5,0,9.3,0
			c-1.8,3.9-3.1,7.8-3.4,12.1c-0.2,1.6,0.7,1.6,0.8,0.5c2.6-10.4,16.3-7.6,15.8,2.2c-0.4,8-7.9,9.7-11.8,7.1c-1.5-1-1.5-0.4-0.6,0.6
			C2941.7-900.9,2938.2-892.1,2930.3-891.9C2930.4-891.9,2930.4-891.9,2930.3-891.9L2930.3-891.9z"/>
		<path id="path147-6-9-8-7-0-5-6-83-3-7" d="M3005.5-879.7c3.1-0.1,4.5-3.7,2.2-6.6c-0.3-0.4-0.4-0.7,0.2-0.3
			c1.6,1.1,4.6,0.4,4.7-2.9c0.2-4.1-5.3-5.3-6.3-0.9c-0.1,0.5-0.4,0.4-0.3-0.2c0.1-1.8,0.6-3.4,1.4-5c-1.2,0-2.5,0-3.7,0
			c0.7,1.6,1.3,3.3,1.4,5c0.1,0.7-0.3,0.7-0.3,0.2c-1-4.4-6.5-3.2-6.3,0.9c0.2,3.3,3.1,4,4.7,2.9c0.6-0.4,0.6-0.2,0.2,0.3
			C3001-883.4,3002.4-879.7,3005.5-879.7L3005.5-879.7L3005.5-879.7z"/>
		<path id="path147-0-8-1-6-75-2-9-77-44-0-7" d="M2889.1-1009.3c-7.8,0.2-11.3,9-5.5,15.8c0.8,1,0.9,1.6-0.6,0.6
			c-3.9-2.6-11.4-0.9-11.8,7.1c-0.5,9.8,13.2,12.7,15.8,2.2c0.1-1.1,1-1.1,0.8,0.5c-0.2,4.2-1.6,8.2-3.4,12.1c3.1,0,6.5,0,9.3,0
			c-1.8-3.9-3.1-7.8-3.4-12.1c-0.2-1.6,0.7-1.6,0.8-0.5c2.6,10.4,16.3,7.6,15.8-2.2c-0.4-8-7.9-9.7-11.8-7.1c-1.5,1-1.5,0.4-0.6-0.6
			C2900.4-1000.4,2896.9-1009.2,2889.1-1009.3C2889.1-1009.3,2889.1-1009.3,2889.1-1009.3L2889.1-1009.3z"/>
		<path id="path147-0-8-1-6-75-2-8-0-3-9-3" d="M2889.1-918.3c-7.8-0.2-11.3-9-5.5-15.8c0.8-1,0.9-1.6-0.6-0.6
			c-3.9,2.6-11.4,0.9-11.8-7.1c-0.5-9.8,13.2-12.7,15.8-2.2c0.1,1.1,1,1.1,0.8-0.5c-0.2-4.2-1.6-8.2-3.4-12.1c3.1,0,6.5,0,9.3,0
			c-1.8,3.9-3.1,7.8-3.4,12.1c-0.2,1.6,0.7,1.6,0.8,0.5c2.6-10.4,16.3-7.6,15.8,2.2c-0.4,8-7.9,9.7-11.8,7.1c-1.5-1-1.5-0.4-0.6,0.6
			C2900.4-927.3,2896.9-918.5,2889.1-918.3C2889.1-918.3,2889.1-918.3,2889.1-918.3L2889.1-918.3z"/>
		<path id="path147-0-8-1-6-75-2-9-7-1-9-7-9" d="M2971.6-1009.3c-7.8,0.2-11.3,9-5.5,15.8c0.8,1,0.9,1.6-0.6,0.6
			c-3.9-2.6-11.4-0.9-11.8,7.1c-0.5,9.8,13.3,12.7,15.8,2.2c0.1-1.1,1-1.1,0.8,0.5c-0.2,4.2-1.6,8.2-3.4,12.1c3.1,0,6.5,0,9.3,0
			c-1.8-3.9-3.1-7.8-3.4-12.1c-0.2-1.6,0.7-1.6,0.8-0.5c2.6,10.4,16.3,7.6,15.8-2.2c-0.4-8-7.9-9.7-11.8-7.1c-1.5,1-1.5,0.4-0.6-0.6
			C2982.9-1000.4,2979.4-1009.2,2971.6-1009.3C2971.6-1009.3,2971.6-1009.3,2971.6-1009.3L2971.6-1009.3z"/>
		<path id="path147-0-8-1-6-75-2-8-5-1-52-2-8" d="M2971.6-918.3c-7.8-0.2-11.3-9-5.5-15.8c0.8-1,0.9-1.6-0.6-0.6
			c-3.9,2.6-11.4,0.9-11.8-7.1c-0.5-9.8,13.3-12.7,15.8-2.2c0.1,1.1,1,1.1,0.8-0.5c-0.2-4.2-1.6-8.2-3.4-12.1c3.1,0,6.5,0,9.3,0
			c-1.8,3.9-3.1,7.8-3.4,12.1c-0.2,1.6,0.7,1.6,0.8,0.5c2.6-10.4,16.3-7.6,15.8,2.2c-0.4,8-7.9,9.7-11.8,7.1c-1.5-1-1.5-0.4-0.6,0.6
			C2982.9-927.3,2979.4-918.5,2971.6-918.3C2971.6-918.3,2971.6-918.3,2971.6-918.3L2971.6-918.3z"/>
		<path id="path147-6-9-8-7-4-5-62-52-8-0" d="M2855.2-1048.6c-3.1,0.1-4.5,3.7-2.2,6.6c0.3,0.4,0.4,0.7-0.2,0.3
			c-1.6-1.1-4.6-0.4-4.7,2.9c-0.2,4.1,5.3,5.3,6.3,0.9c0.1-0.5,0.4-0.4,0.3,0.2c-0.1,1.8-0.6,3.4-1.4,5c1.2,0,2.5,0,3.7,0
			c-0.7-1.6-1.3-3.3-1.4-5c-0.1-0.7,0.3-0.7,0.3-0.2c1,4.4,6.5,3.2,6.3-0.9c-0.2-3.3-3.1-4-4.7-2.9c-0.6,0.4-0.6,0.2-0.2-0.3
			C2859.7-1044.9,2858.3-1048.5,2855.2-1048.6C2855.2-1048.6,2855.2-1048.6,2855.2-1048.6L2855.2-1048.6z"/>
		<path id="path31-6-7-6" d="M2847.2-1051.1v-26.3h2.5v26.3H2847.2z"/>
		<path id="path33-9-3-6" d="M2857.3-1077.4c-2.5,0-4.4,2.2-4.4,5v16.3c0,2.8,2,5,4.4,5h1.4c2.5,0,4.4-2.2,4.4-5v-16.3
			c0-2.8-2-5-4.4-5H2857.3z M2858-1074.9c1.4,0,2.6,1.1,2.6,2.5v16.5c0,1.4-1.2,2.5-2.6,2.5c-1.4,0-2.6-1.1-2.6-2.5v-16.5
			C2855.4-1073.8,2856.6-1074.9,2858-1074.9L2858-1074.9z"/>
		<path id="path31-1-4-0-7" d="M3013.5-877.2v26.3h-2.5v-26.3H3013.5z"/>
		<path id="path33-5-7-4-0" d="M3003.4-850.9c2.5,0,4.4-2.2,4.4-5v-16.3c0-2.8-2-5-4.4-5h-1.4c-2.5,0-4.4,2.2-4.4,5v16.3
			c0,2.8,2,5,4.4,5H3003.4z M3002.7-853.3c-1.4,0-2.6-1.1-2.6-2.5v-16.5c0-1.4,1.2-2.5,2.6-2.5c1.4,0,2.6,1.1,2.6,2.5v16.5
			C3005.3-854.5,3004.1-853.3,3002.7-853.3L3002.7-853.3z"/>
	</g>
</g>
</svg>
