<?xml version="1.0" encoding="utf-8"?>
<!DOCTYPE svg PUBLIC "-//W3C//DTD SVG 1.1//EN" "http://www.w3.org/Graphics/SVG/1.1/DTD/svg11.dtd">
<svg version="1.1"
	 id="svg5941" xmlns:rdf="http://www.w3.org/1999/02/22-rdf-syntax-ns#" xmlns:dc="http://purl.org/dc/elements/1.1/" xmlns:cc="http://creativecommons.org/ns#" xmlns:svg="http://www.w3.org/2000/svg"
	 xmlns="http://www.w3.org/2000/svg" xmlns:xlink="http://www.w3.org/1999/xlink" x="0px" y="0px" width="178.6px" height="249.4px"
	 viewBox="0 0 178.6 249.4" enable-background="new 0 0 178.6 249.4" xml:space="preserve">
<g id="layer1" transform="translate(-274.10016,-333.59956)">
	<g id="g11103-4-9" transform="matrix(0.99553774,0,0,0.99680134,-2723.9628,1394.6949)">
		<g id="g10276-9-9" transform="translate(2751.5683,-1434.2756)">
			<path id="rect10278-0-6" fill="#FBFBF6" stroke="#7F7F7F" stroke-width="0.4" d="M268.9,370.2h161.5c4.7,0,8.5,3.8,8.5,8.5
				v232.4c0,4.7-3.8,8.5-8.5,8.5H268.9c-4.7,0-8.5-3.8-8.5-8.5V378.7C260.3,374,264.2,370.2,268.9,370.2z"/>
		</g>
		<g id="g10296-8-7" transform="translate(3012.0013,-1064)">
		</g>
		<g id="g10302-2-0" transform="translate(3038.5929,-1083.9055)">
		</g>
		<path id="path10308-5-1" fill="#D40000" d="M3059.8-946.6c0,0-3.7-6.1-8.8-13.3c-3.4-4.8-6.1-10-6.3-14.5
			c-0.3-5.1,2.4-10.3,7.4-10.5c4.9-0.2,6.9,4,7.7,7.4c0.8-3.5,2.8-7.7,7.7-7.4c4.9,0.2,7.6,5.4,7.4,10.5c-0.3,4.5-2.9,9.7-6.3,14.5
			C3063.5-952.8,3059.8-946.6,3059.8-946.6z"/>
		<path id="path10310-7-8" fill="#D40000" d="M3025.7-1008.1c0,0-1.8-2.6-4.2-5.6c-1.6-2-2.9-4.2-3-6.1c-0.1-2.1,1.2-4.3,3.5-4.4
			c2.3-0.1,3.3,1.6,3.7,3.1c0.4-1.4,1.3-3.2,3.7-3.1c2.3,0.1,3.6,2.3,3.5,4.4c-0.1,1.9-1.4,4-3,6.1
			C3027.5-1010.7,3025.7-1008.1,3025.7-1008.1z"/>
		<path id="path10312-3-5" fill="#D40000" d="M3176.7-870.6c0,0-1.8,2.6-4.2,5.6c-1.6,2-2.9,4.2-3,6.1c-0.1,2.1,1.2,4.3,3.5,4.4
			c2.3,0.1,3.3-1.6,3.7-3.1c0.4,1.4,1.3,3.2,3.7,3.1c2.3-0.1,3.6-2.3,3.5-4.4c-0.1-1.9-1.4-4-3-6.1
			C3178.5-868.1,3176.7-870.6,3176.7-870.6z"/>
		<path id="path10314-8-8" fill="#D40000" d="M3101.2-965.4c0,0-3.7-6.1-8.8-13.3c-3.4-4.8-6.1-10-6.3-14.5
			c-0.3-5.1,2.4-10.3,7.4-10.5c4.9-0.2,6.9,4,7.7,7.4c0.8-3.5,2.8-7.7,7.7-7.4c4.9,0.2,7.6,5.4,7.4,10.5c-0.2,4.5-2.9,9.7-6.3,14.5
			C3104.9-971.6,3101.2-965.4,3101.2-965.4z"/>
		<path id="path10318-3-7" fill="#D40000" d="M3059.8-999.5c0,0-3.7-6.1-8.8-13.3c-3.4-4.8-6.1-10-6.3-14.5
			c-0.3-5.1,2.4-10.3,7.4-10.5c4.9-0.2,6.9,4,7.7,7.4c0.8-3.5,2.8-7.7,7.7-7.4c4.9,0.2,7.6,5.4,7.4,10.5c-0.3,4.5-2.9,9.7-6.3,14.5
			C3063.5-1005.7,3059.8-999.5,3059.8-999.5z"/>
		<path id="path10322-4-6" fill="#D40000" d="M3142.6-946.6c0,0-3.7-6.1-8.8-13.3c-3.4-4.8-6.1-10-6.3-14.5
			c-0.3-5.1,2.4-10.3,7.4-10.5c4.9-0.2,6.9,4,7.7,7.4c0.8-3.5,2.8-7.7,7.7-7.4c4.9,0.2,7.6,5.4,7.4,10.5c-0.3,4.5-2.9,9.7-6.3,14.5
			C3146.3-952.8,3142.6-946.6,3142.6-946.6z"/>
		<path id="path10324-9-8" fill="#D40000" d="M3142.6-999.5c0,0-3.7-6.1-8.8-13.3c-3.4-4.8-6.1-10-6.3-14.5
			c-0.3-5.1,2.4-10.3,7.4-10.5c4.9-0.2,6.9,4,7.7,7.4c0.8-3.5,2.8-7.7,7.7-7.4c4.9,0.2,7.6,5.4,7.4,10.5c-0.3,4.5-2.9,9.7-6.3,14.5
			C3146.3-1005.7,3142.6-999.5,3142.6-999.5z"/>
		<path id="path10332-8-6" fill="#D40000" d="M3101.2-913.3c0,0-3.7,6.1-8.8,13.3c-3.4,4.8-6.1,10-6.3,14.5
			c-0.3,5.1,2.4,10.3,7.4,10.5c4.9,0.2,6.9-4,7.7-7.4c0.8,3.5,2.8,7.7,7.7,7.4c4.9-0.2,7.6-5.4,7.4-10.5c-0.2-4.5-2.9-9.7-6.3-14.5
			C3104.9-907.2,3101.2-913.3,3101.2-913.3z"/>
		<path id="path10334-5-0" fill="#D40000" d="M3142.6-932.1c0,0-3.7,6.1-8.8,13.3c-3.4,4.8-6.1,10-6.3,14.5
			c-0.3,5.1,2.4,10.3,7.4,10.5c4.9,0.2,6.9-4,7.7-7.4c0.8,3.5,2.8,7.7,7.7,7.4c4.9-0.2,7.6-5.4,7.4-10.5c-0.3-4.5-2.9-9.7-6.3-14.5
			C3146.3-926,3142.6-932.1,3142.6-932.1z"/>
		<path id="path10336-3-5" fill="#D40000" d="M3059.8-932.1c0,0-3.7,6.1-8.8,13.3c-3.4,4.8-6.1,10-6.3,14.5
			c-0.3,5.1,2.4,10.3,7.4,10.5c4.9,0.2,6.9-4,7.7-7.4c0.8,3.5,2.8,7.7,7.7,7.4c4.9-0.2,7.6-5.4,7.4-10.5c-0.3-4.5-2.9-9.7-6.3-14.5
			C3063.5-926,3059.8-932.1,3059.8-932.1z"/>
		<path id="path10338-2-9" fill="#D40000" d="M3142.6-879.2c0,0-3.7,6.1-8.8,13.3c-3.4,4.8-6.1,10-6.3,14.5
			c-0.3,5.1,2.4,10.3,7.4,10.5c4.9,0.2,6.9-4,7.7-7.4c0.8,3.5,2.8,7.7,7.7,7.4c4.9-0.2,7.6-5.4,7.4-10.5c-0.3-4.5-2.9-9.7-6.3-14.5
			C3146.3-873.1,3142.6-879.2,3142.6-879.2z"/>
		<path id="path10340-9-7" fill="#D40000" d="M3059.8-879.2c0,0-3.7,6.1-8.8,13.3c-3.4,4.8-6.1,10-6.3,14.5
			c-0.3,5.1,2.4,10.3,7.4,10.5c4.9,0.2,6.9-4,7.7-7.4c0.8,3.5,2.8,7.7,7.7,7.4c4.9-0.2,7.6-5.4,7.4-10.5c-0.3-4.5-2.9-9.7-6.3-14.5
			C3063.5-873.1,3059.8-879.2,3059.8-879.2z"/>
		<g id="g7724-24-8-9-7" transform="matrix(1,0,0,0.9999803,1980.6157,-1572.2811)">
			<g id="g8345-9-7-5-1">
				<path id="path31-8-2-9-8" fill="#D40000" d="M1037,545.7v-26.4h2.6v26.4H1037z"/>
				<path id="path33-2-3-1-6" fill="#D40000" d="M1047.2,519.3c-2.5,0-4.4,2.3-4.4,5v16.3c0,2.8,2,5,4.4,5h1.4c2.5,0,4.4-2.2,4.4-5
					v-16.3c0-2.8-2-5-4.4-5H1047.2z M1047.9,521.8c1.5,0,2.6,1.1,2.6,2.5v16.5c0,1.4-1.2,2.5-2.6,2.5c-1.5,0-2.6-1.1-2.6-2.5v-16.5
					C1045.3,522.9,1046.5,521.8,1047.9,521.8L1047.9,521.8z"/>
			</g>
		</g>
		<g id="g7724-2-5-0-2-7" transform="matrix(-1,0,0,-0.9999803,4261.3055,-244.23701)">
			<g id="g8345-5-0-9-6-9">
				<g id="g10963-5-1" transform="translate(-5.30767,-0.32920043)">
					<path id="path31-1-3-2-1-5" fill="#D40000" d="M1081.9,608.2v-26.4h2.6v26.4H1081.9z"/>
					<path id="path33-5-5-3-3-1" fill="#D40000" d="M1092,581.8c-2.5,0-4.4,2.3-4.4,5v16.3c0,2.8,2,5,4.4,5h1.4c2.5,0,4.4-2.2,4.4-5
						v-16.3c0-2.8-2-5-4.4-5H1092z M1092.8,584.3c1.5,0,2.6,1.1,2.6,2.5v16.5c0,1.4-1.2,2.5-2.6,2.5c-1.5,0-2.6-1.1-2.6-2.5v-16.5
						C1090.1,585.4,1091.3,584.3,1092.8,584.3L1092.8,584.3z"/>
				</g>
			</g>
		</g>
	</g>
</g>
</svg>
