<?xml version="1.0" encoding="utf-8"?>
<!DOCTYPE svg PUBLIC "-//W3C//DTD SVG 1.1//EN" "http://www.w3.org/Graphics/SVG/1.1/DTD/svg11.dtd">
<svg version="1.1"
	 id="svg6971" xmlns:rdf="http://www.w3.org/1999/02/22-rdf-syntax-ns#" xmlns:dc="http://purl.org/dc/elements/1.1/" xmlns:cc="http://creativecommons.org/ns#" xmlns:svg="http://www.w3.org/2000/svg"
	 xmlns="http://www.w3.org/2000/svg" xmlns:xlink="http://www.w3.org/1999/xlink" x="0px" y="0px" width="178.6px" height="249.4px"
	 viewBox="0 0 178.6 249.4" enable-background="new 0 0 178.6 249.4" xml:space="preserve">
<g id="layer1" transform="translate(4.8007097e-5,-740.55122)">
	<g id="g8542-3-6" transform="matrix(0.99553774,0,0,0.99680134,-3243.5205,1210.9502)">
		<g id="g8587-4-9" transform="translate(-4.1467285e-5,2.9626465e-5)">
			<path id="rect7263-6-4" fill="#FBFBF6" stroke="#7F7F7F" stroke-width="0.4" d="M3267-471.5h161.5c4.7,0,8.5,3.8,8.5,8.5
				v232.4c0,4.7-3.8,8.5-8.5,8.5H3267c-4.7,0-8.5-3.8-8.5-8.5V-463C3258.5-467.7,3262.3-471.5,3267-471.5z"/>
			<path id="path7293-3-2" d="M3306.3-445.4c-7.4,10.5-15.3,16.6-15.4,24.8c0,2.7,1.4,7.2,5.9,8c2.9,0.6,6.9-1.8,7-6.6
				c0-1,1-0.9,1,0.4c-0.1,3.8-1.3,8.2-3.4,11.8c3.2,0,6.4,0,9.7,0c-2-3.6-3.2-8-3.4-11.8c0-1.3,1-1.3,1-0.4c0.1,4.8,4.1,7.2,7,6.6
				c4.5-0.9,5.9-5.4,5.9-8C3321.6-428.8,3313.7-434.8,3306.3-445.4z"/>
			<path id="path7295-4-8" d="M3272.2-431.5c-3.4,4.4-7.1,6.9-7.2,10.3c0,1.1,0.7,3,2.8,3.4c1.4,0.2,3.2-0.8,3.3-2.8
				c0-0.4,0.5-0.4,0.5,0.2c-0.1,1.6-0.6,3.4-1.6,4.9c1.5,0,3,0,4.5,0c-0.9-1.5-1.5-3.3-1.6-4.9c0-0.5,0.5-0.6,0.5-0.2
				c0,2,1.9,3,3.3,2.8c2.1-0.4,2.8-2.2,2.8-3.4C3279.4-424.6,3275.7-427.1,3272.2-431.5L3272.2-431.5z"/>
			<path id="path7297-5-1" d="M3306.3-301.1c-7.4-10.5-15.3-16.6-15.4-24.8c0-2.7,1.4-7.2,5.9-8c2.9-0.6,6.9,1.8,7,6.6
				c0,1,1,0.9,1-0.4c-0.1-3.8-1.3-8.2-3.4-11.8c3.2,0,6.4,0,9.7,0c-2,3.6-3.2,8-3.4,11.8c0,1.3,1,1.3,1,0.4c0.1-4.8,4.1-7.2,7-6.6
				c4.5,0.9,5.9,5.4,5.9,8C3321.6-317.7,3313.7-311.7,3306.3-301.1z"/>
			<path id="path7299-3-5" d="M3423.3-262c-3.4-4.4-7.1-6.9-7.2-10.3c0-1.1,0.7-3,2.8-3.4c1.4-0.2,3.2,0.8,3.3,2.8
				c0,0.4,0.5,0.4,0.5-0.2c-0.1-1.6-0.6-3.4-1.6-4.9c1.5,0,3,0,4.5,0c-0.9,1.5-1.5,3.3-1.6,4.9c0,0.5,0.5,0.6,0.5,0.2
				c0-2,1.9-3,3.3-2.8c2.1,0.4,2.8,2.2,2.8,3.4C3430.4-268.9,3426.7-266.4,3423.3-262L3423.3-262z"/>
			<path id="path7301-4-0" d="M3389.2-445.4c-7.4,10.5-15.3,16.6-15.4,24.8c0,2.7,1.4,7.2,5.9,8c2.9,0.6,6.9-1.8,7-6.6
				c0-1,1-0.9,1,0.4c-0.1,3.8-1.3,8.2-3.4,11.8c3.2,0,6.4,0,9.7,0c-2-3.6-3.2-8-3.4-11.8c0-1.3,1-1.3,1-0.4c0.1,4.8,4.1,7.2,7,6.6
				c4.5-0.9,5.9-5.4,5.9-8C3404.4-428.8,3396.5-434.8,3389.2-445.4z"/>
			<path id="path7303-7-8" d="M3306.3-392.4c-7.4,10.5-15.3,16.6-15.4,24.8c0,2.7,1.4,7.2,5.9,8c2.9,0.6,6.9-1.8,7-6.6
				c0-1,1-0.9,1,0.4c-0.1,3.8-1.3,8.2-3.4,11.8c3.2,0,6.4,0,9.7,0c-2-3.6-3.2-8-3.4-11.8c0-1.3,1-1.3,1-0.4c0.1,4.8,4.1,7.2,7,6.6
				c4.5-0.9,5.9-5.4,5.9-8C3321.6-375.9,3313.7-381.9,3306.3-392.4z"/>
			<path id="path7305-6-7" d="M3347.7-411.2c-7.4,10.5-15.3,16.6-15.4,24.8c0,2.7,1.4,7.2,5.9,8c2.9,0.6,6.9-1.8,7-6.6
				c0-1,1-0.9,1,0.4c-0.1,3.8-1.3,8.2-3.4,11.8c3.2,0,6.4,0,9.7,0c-2-3.6-3.2-8-3.4-11.8c0-1.3,1-1.3,1-0.4c0.1,4.8,4.1,7.2,7,6.6
				c4.5-0.9,5.9-5.4,5.9-8C3363-394.7,3355.1-400.7,3347.7-411.2z"/>
			<path id="path7309-8-5" d="M3389.2-392.4c-7.4,10.5-15.3,16.6-15.4,24.8c0,2.7,1.4,7.2,5.9,8c2.9,0.6,6.9-1.8,7-6.6
				c0-1,1-0.9,1,0.4c-0.1,3.8-1.3,8.2-3.4,11.8c3.2,0,6.4,0,9.7,0c-2-3.6-3.2-8-3.4-11.8c0-1.3,1-1.3,1-0.4c0.1,4.8,4.1,7.2,7,6.6
				c4.5-0.9,5.9-5.4,5.9-8C3404.4-375.9,3396.5-381.9,3389.2-392.4z"/>
			<path id="path7313-6-8" d="M3306.3-248.2c-7.4-10.5-15.3-16.6-15.4-24.8c0-2.7,1.4-7.2,5.9-8c2.9-0.6,6.9,1.8,7,6.6
				c0,1,1,0.9,1-0.4c-0.1-3.8-1.3-8.2-3.4-11.8c3.2,0,6.4,0,9.7,0c-2,3.6-3.2,8-3.4,11.8c0,1.3,1,1.3,1,0.4c0.1-4.8,4.1-7.2,7-6.6
				c4.5,0.9,5.9,5.4,5.9,8C3321.6-264.8,3313.7-258.7,3306.3-248.2z"/>
			<path id="path7315-7-3" d="M3389.2-248.2c-7.4-10.5-15.3-16.6-15.4-24.8c0-2.7,1.4-7.2,5.9-8c2.9-0.6,6.9,1.8,7,6.6
				c0,1,1,0.9,1-0.4c-0.1-3.8-1.3-8.2-3.4-11.8c3.2,0,6.4,0,9.7,0c-2,3.6-3.2,8-3.4,11.8c0,1.3,1,1.3,1,0.4c0.1-4.8,4.1-7.2,7-6.6
				c4.5,0.9,5.9,5.4,5.9,8C3404.4-264.8,3396.5-258.7,3389.2-248.2z"/>
			<path id="path7317-0-2" d="M3347.7-282.3c-7.4-10.5-15.3-16.6-15.4-24.8c0-2.7,1.4-7.2,5.9-8c2.9-0.6,6.9,1.8,7,6.6
				c0,1,1,0.9,1-0.4c-0.1-3.8-1.3-8.2-3.4-11.8c3.2,0,6.4,0,9.7,0c-2,3.6-3.2,8-3.4,11.8c0,1.3,1,1.3,1,0.4c0.1-4.8,4.1-7.2,7-6.6
				c4.5,0.9,5.9,5.4,5.9,8C3363-298.9,3355.1-292.9,3347.7-282.3z"/>
			<path id="path7319-5-6" d="M3389.2-301.1c-7.4-10.5-15.3-16.6-15.4-24.8c0-2.7,1.4-7.2,5.9-8c2.9-0.6,6.9,1.8,7,6.6
				c0,1,1,0.9,1-0.4c-0.1-3.8-1.3-8.2-3.4-11.8c3.2,0,6.4,0,9.7,0c-2,3.6-3.2,8-3.4,11.8c0,1.3,1,1.3,1,0.4c0.1-4.8,4.1-7.2,7-6.6
				c4.5,0.9,5.9,5.4,5.9,8C3404.4-317.7,3396.5-311.7,3389.2-301.1z"/>
			<path id="path31-5-4-7" d="M3264.2-434v-26.4h2.6v26.4H3264.2z"/>
			<path id="path33-4-6-8" d="M3274.4-460.4c-2.5,0-4.4,2.3-4.4,5v16.3c0,2.8,2,5,4.4,5h1.4c2.5,0,4.4-2.2,4.4-5v-16.3
				c0-2.8-2-5-4.4-5H3274.4z M3275.1-457.9c1.5,0,2.6,1.1,2.6,2.5v16.5c0,1.4-1.2,2.5-2.6,2.5c-1.5,0-2.6-1.1-2.6-2.5v-16.5
				C3272.5-456.8,3273.7-457.9,3275.1-457.9L3275.1-457.9z"/>
			<g id="g8583-6-9" transform="matrix(-1,0,0,1,6929.1386,0)">
				<path id="path31-5-5-6-7" d="M3497.9-259.5v26.4h2.6v-26.4H3497.9z"/>
				<path id="path33-4-3-7-9" d="M3508-233.1c-2.5,0-4.4-2.3-4.4-5v-16.3c0-2.8,2-5,4.4-5h1.4c2.5,0,4.4,2.2,4.4,5v16.3
					c0,2.8-2,5-4.4,5H3508z M3508.7-235.6c1.5,0,2.6-1.1,2.6-2.5v-16.5c0-1.4-1.2-2.5-2.6-2.5c-1.5,0-2.6,1.1-2.6,2.5v16.5
					C3506.1-236.7,3507.3-235.6,3508.7-235.6L3508.7-235.6z"/>
			</g>
		</g>
	</g>
</g>
</svg>
