<?xml version="1.0" encoding="utf-8"?>
<!DOCTYPE svg PUBLIC "-//W3C//DTD SVG 1.1//EN" "http://www.w3.org/Graphics/SVG/1.1/DTD/svg11.dtd">
<svg version="1.1"
	 id="svg4917" xmlns:rdf="http://www.w3.org/1999/02/22-rdf-syntax-ns#" xmlns:dc="http://purl.org/dc/elements/1.1/" xmlns:cc="http://creativecommons.org/ns#" xmlns:svg="http://www.w3.org/2000/svg"
	 xmlns="http://www.w3.org/2000/svg" xmlns:xlink="http://www.w3.org/1999/xlink" x="0px" y="0px" width="178.6px" height="249.4px"
	 viewBox="0 0 178.6 249.4" enable-background="new 0 0 178.6 249.4" xml:space="preserve">
<g id="layer1" transform="translate(-196.95725,-193.59955)">
	<g id="g5584" transform="translate(-2908.3289,1282.4678)">
		<g id="g11322-4-2" transform="matrix(0.99553774,0,0,0.99680134,457.41051,-265.45153)">
			<path id="rect6355-6-85-3-39-1-8" fill="#FBFBF6" stroke="#7F7F7F" stroke-width="0.4" d="M2668.7-825.7h161.5
				c4.7,0,8.5,3.8,8.5,8.5v232.4c0,4.7-3.8,8.5-8.5,8.5h-161.5c-4.7,0-8.5-3.8-8.5-8.5v-232.4C2660.1-821.8,2664-825.7,2668.7-825.7
				z"/>
			<path id="path147-6-9-8-7-0-5-6-79-2-4" d="M2825-616.2c3.1-0.1,4.6-3.8,2.2-6.6c-0.3-0.4-0.4-0.7,0.2-0.3c1.6,1.1,4.6,0.4,4.7-3
				c0.2-4.1-5.3-5.3-6.4-0.9c-0.1,0.5-0.4,0.5-0.3-0.2c0.1-1.8,0.6-3.4,1.4-5.1c-1.2,0-2.5,0-3.7,0c0.7,1.6,1.3,3.3,1.4,5.1
				c0.1,0.7-0.3,0.7-0.3,0.2c-1-4.4-6.5-3.2-6.4,0.9c0.2,3.3,3.2,4,4.7,3c0.6-0.4,0.6-0.2,0.2,0.3
				C2820.4-619.9,2821.8-616.3,2825-616.2L2825-616.2L2825-616.2z"/>
			<path id="path147-6-9-8-7-4-5-62-3-3-7" d="M2673.9-785.7c-3.1,0.1-4.6,3.8-2.2,6.6c0.3,0.4,0.4,0.7-0.2,0.3
				c-1.6-1.1-4.6-0.4-4.7,3c-0.2,4.1,5.3,5.3,6.4,0.9c0.1-0.5,0.4-0.4,0.3,0.2c-0.1,1.8-0.6,3.4-1.4,5.1c1.2,0,2.5,0,3.7,0
				c-0.7-1.6-1.3-3.3-1.4-5.1c-0.1-0.7,0.3-0.7,0.3-0.2c1,4.4,6.5,3.2,6.4-0.9c-0.2-3.3-3.2-4-4.7-3c-0.6,0.4-0.6,0.2-0.2-0.3
				C2678.5-781.9,2677.1-785.6,2673.9-785.7L2673.9-785.7L2673.9-785.7z"/>
			<path id="path35-5-6-2" d="M2673.8-814.6v2.8h2.7c0,0,0.1,2.7,0.1,8.3c0,5.5,0.1,8.2-0.2,9.8c-0.9,3.6-6.2,3.6-7.2,1
				c-0.6-1.5-0.4-2.7-0.5-4.2h-2.9c0,0,0,0.8,0,1.7c0,4,1.4,6,4.5,6.8c3.2,0.9,7-0.5,8.3-3.2c0.8-1.6,0.7-1.7,0.7-11.2
				c0-6.3,0.1-9,0.1-9h2.5v-2.8H2673.8L2673.8-814.6z"/>
			<path id="path35-6-4-1-2" d="M2825-587.3v-2.8h-2.7c0,0-0.1-2.7-0.1-8.3c0-5.5-0.1-8.2,0.2-9.8c0.9-3.6,6.2-3.6,7.2-1
				c0.6,1.5,0.4,2.7,0.5,4.2h2.9c0,0,0-0.8,0-1.7c0-4-1.4-6-4.5-6.8c-3.2-0.9-7,0.5-8.3,3.2c-0.8,1.6-0.7,1.7-0.7,11.2
				c0,6.3-0.1,9-0.1,9h-2.5v2.8H2825L2825-587.3z"/>
		</g>
		<g id="g5275-8-4-5" transform="matrix(-1.0167845,0,0,-1.022439,3595.0799,-394.58247)">
			<g id="layer1-1-8-4-5">
				<g id="g3799-8-1-3" transform="matrix(0.15171281,0,0,0.15171281,623.2491,453.89661)">
					<path id="path3306-4-9-5" fill="#E2CF00" d="M-1769.9,1327.6c-4.4,6.3-23.5-37.6-35.8-70.9c-6-16.4-14.1-29.8-10.7-34.1
						c8.7-8.8,31.3-0.9,47.8,11.7c17.6,13.5,30,33.3,30,33.3L-1769.9,1327.6z M-1923.9,1295l-0.7-25.8
						c15.1-13.6,33.9-30.3,55.9-55.7l-58.7-0.3c0.5-317.4-0.5-953.5-0.5-953.5s65.2,66,63.7,66.2c-0.1,0,1.9,384.3,2.1,642.8
						c0.5,1.2-34.1,1.3-36.3,18.2c-1.5,11.2,36.3,9.6,36.9,10.4c-0.1,116.2,0.3,198.2,0.3,198.2l34.7,1.1L-1923.9,1295z
						 M-1720.1,1175.4c-5-10-13.1-48.6-19.2-47.7c-28.2,9.3-37.3-32.2-8.1-34.4c11.1-0.8,23.4,13.6,30.3,31.5
						C-1713.7,1134.2-1717.2,1179.1-1720.1,1175.4L-1720.1,1175.4z M-1713.7,1117.6c-8.3-13.6-16.3-63.2-31.5-60.3
						c-13.8,3.1-22.7-9-21.4-19.6c7.1-29.8,57.8-1.5,71.1,5.4C-1702,1058-1711.3,1095.3-1713.7,1117.6z M-1820.8,977.7
						c11.6-26.2,8.5-47.8-1.4-74.1c30.1-12.9,59.8-28.3,89.5-43.8c0.2,0.1,1.5,103.4-8.4,150.6c-3.4,7.2-15.6,1.4-22.6-2.1
						C-1782.7,999.4-1803.2,989.3-1820.8,977.7z M-1286.2,503c-6.1-48.8-1.7-124.8,7-154.9c3.3-10.2,73.2,35.7,78.2,38.9
						c-13.8,25.4,5,84.6,3,74C-1202.8,464.3-1284.5,508-1286.2,503z M-1316.1,300.4c1.3-3.1,6.5-39.7,8.1-39.8
						c5.3-0.5,13.1,35.8,26.6,47.8c25.5-2.9,28.5,14.3,23.5,22.7c1.2,3.7-8.2,11.6-17.1,10.9C-1297,333.2-1326.6,325.7-1316.1,300.4
						z M-1608.7,238c0,0,19.2-107.5,19.3-107.3c47.4-6.8,93-14.7,135.2-9.9c-8.3,111.7-21.4,208.3-57.4,225.1l74.6,59.9
						c0,0,82.8-51.5,78.1-50.8c-2,0.6-3.7,43.8-4.9,113.8c2.1,182.7,107.4,367.6,111.5,365.7c2.2,1.5-89.7,8.7-155.8-19.8l-3,241.9
						c0,0,32.8,16.3,38.8,23.9c12.1,42.1-20.5,52.8-40.1,42.3c-9.1,32-23,111-23.5,111c-44.2,7.3-89.8,12.9-135,10.4
						c7.6-37.2,12.4-65.5,14.8-102.9c5.7-55.8,17.1-108.7,46.6-121.2c-5.2,2.1-73.5-57.5-73.5-57.5l-83,51
						c26.8-174.1-19-343.1-98.1-479.9c39.9-4.6,85-2.4,155.4,18.6c0,0-4-242.4-4-241C-1690.7,280.6-1648.2,220.9-1608.7,238z
						 M-1305.7,216.3c0.3-2.5,1.4-29.8,1.4-29.8c11,12.9,19.9,50.8,22.1,50.2c0,0,14.2-2.2,18.6,2.5c14.4,15.3,0.2,33.3-14.1,29.9
						C-1291.9,265.3-1307.6,240.9-1305.7,216.3z M-1159.2,1038c0,0-3.1-429.8-3-645.2c54.5,0.8,43.8-29.4-0.7-26.2l-0.2-198.6
						l-29.5-1c0,0,55.5-57.9,90.8-94.9l0.8,18.8l-53.6,57.7l55.5-0.1l0.2,953.1L-1159.2,1038z M-1251.9,39.7
						c13.4-2.9,27.5,59,50.8,96.5c-26.5,15.9-68.3-14.3-77.7-38.5C-1272.6,77.2-1251.5,39.9-1251.9,39.7z"/>
					<path id="path3304-4-6-6" fill="#131F67" d="M-1935.2,1.4v1357.2h846.7V1.4H-1935.2z M-1654.5,287.2c1.1,2.2,3,5.3,3,5.3
						s-2,0.5-3.5,1.5c-98.1,36.3-203.1,117.1-204.9,119.5v-89.5l-64.9-68.4V13.2h255.3l74.8,125.1c-4.5,32.8-16.1,96.2-16.1,96.2
						c-6.9-1.7-30-3.8-42.6,14.1C-1659.4,257.2-1662.6,268.8-1654.5,287.2z M-1176.1,566.4l9.7-12.3l-17.1,0.8l11.7-12.7l-18.9-0.4
						l14.7-12.5l-19.9-0.2l14.8-12.3l-21.8,1l15.6-13.4l-21.5,0.1l16.1-13.5l-21.1-0.3l13.7-12.1l-18.4-0.2l20.8-14.6
						c8.9,3.9,20.8,6.1,32.8,6.3l0.3,98.2L-1176.1,566.4z M-1161.2,396c48.6,0.2,59-25.8,0.3-29.9c1.1-65.3-2.6-196-2.6-196l-32-0.8
						c0,0,85.8-92.6,93.8-100.1c7.3,311.1,7,1033.5,7,1033.5l-65.5-65.6l-0.7-204.2c-21.9-22.2-34.5-54.6-47.5-75.6l-35.8-17.4
						l8.4-28.8l-3.6-8.2l-11.2,40.7l39.2,18.6l4.2,8.4l-6.6,38.4l37.1,12.7l6.4,8.8l-2.3,37.5l7.8,2.3v7.4l-7.7-0.6l-2.7,42.1
						l10.5,3.1v9.5c0-0.2-6.1,0-9.1-0.2c-4.1-2.2-11-11.1-11-11.1l3.7-46.7l-47-9.4l-3.5-4.9l8.6-46.7l-49.4-15.1
						c5.1,12.5,11.8,24.1,17.4,36.4c-6.8,2-13.9,2.4-20.7,3.9c-1.9,63.1,0.3,128.7-1.7,188.1c-39.7,2.9-21.1-0.9-38.4-0.7
						c-6.8,0-12.2,5.5-12.2,12.3c0,4.3,2.2,8.1,5.6,10.3l-6.8,2.4l-12-13.5l25-24l-0.1-6.9l-31.1,31.1l13.4,15.5l-8,4.1l-12.3-12.9
						c0,0-26.4,27-24.8,27.5c0.8,0.2,2.3,1.6,3.3,3c18.8,40.6-6.9,60-37.9,48.8c-7.9,37.4-15.4,71.1-21.6,109.8
						c-23.2,8.8-132.2,13.8-133.4,11.8c0,0-2.8-2.6-2.9-3.9c0.5-1.7-3.1,3.6-3.1,3.6c0,2.3-95-2.4-141.9-11.3c0,0-1-4.5-0.6-10.4
						c0.8-11.9-0.2-11.8,10.7-10.1c22.1,1.5,39.3-6.1,46.1-25.5c3.8-10.9,2-20.7-3.8-49.8c-5.7-28.3-5.7-25.3-5.1-29.1
						c0.8-4.5,5.6-9.5,12.6-15.1c5.3-4.3,5.8-12.3,1.6-7.9c-2.9,4.2-8,5.8-12.6,8.1c-10.8,5.6-10.4,11.1-4.1,34.3
						c3,10.9,6.1,22.7,6.2,24c0.3,4.3-1.2,2.5-7.6-1.9c-4.1-3-8.8-5.5-13-8c-12.9-6.9-7.2,0.7,5.2,8.9c9.7,7.2,11.4,10.3,3,6.9
						c-8.7-3.5-21.1-2-30.8,1.6c-1.9,1.1-3.3,0.9-3.6-0.8c-0.4-2.7,1.2-9.6,1.9-25.3c1.8-39.9,11.2-82.5,37.8-107.1
						c38-35.2,100.5-11.3,135.2,21.3l3.8-5.7c-23.3-19.5-63.6-43.9-102.9-39.2c16.4-13.7,52.7-36.4,52.7-36.4
						c24.9,18,43.2,36,70.5,55.5l4.7-3.1l-75-59.5l-80.8,53.3c0,0,3.4-51.1,4.6-69.8l-35.1,31l27.1,40l-28.7,29.5
						c0,0,4.8-0.7-0.4,8.4c-8.1,16.4-12.9,42.7-16.7,69.5c0.7,20-4.2,42.1-5.7,59.8c-2.7-16.5-5.8-25.2-11.9-40.2
						c-5.6-14.4-7.8-14.3-14.1-12.2c-34.3,2.9-18.8-63.3,21.8-20c1.8,1.8,4.7,4.1,4.9,3.7c0.8-2.7-10.8-37.5-15.3-45.5
						c-4.7-8.5-4.8-9.7-11.8-9c-13.2,1.4-17.7-3.3-19-17.2c1.8-26.2,30.1-15.1,48.3-7.1c1.6,1.3-8.5-9.3-12.2-13
						c-5-5-5.8-8.3-5.8-8.3l1.1-13.9l27.8-25.4l-22.9-33.8l0.9-12.1l24.4-29.3l-26.1-28.3l-0.3-10.1l21.2-28.2l-28.4-22.7l-1.4-9.1
						c0,0,18.2-33.7,17.7-34.9c-0.4-1-30.7-22-30.7-22l-3.1-14.2l13.2-36l-31.5-18l-5.8-16.2l8.9-33.3l-32.7-15.1l-9.3-18.8l6.1-35
						l-36.7-10.9l-9.7-15.4l1.3-30.8l-9-0.9l0.1-7.6l10,0.1c0,0-0.8-1.1,0.3-16.4c1.9-25.9,2.1-24.9-4.1-26c-13-2.3-10-10.3,3.3-8.8
						c2,0.2,3.8,0.4,5.2,0.7c3.5,0.7,6.2,5.2,6.2,5.2l-2.9,47.8l46.9,7.8l4.4,6l-7.8,44.3l44,12.7l5.9,10.7l-12.5,46.1l44.4,19.5
						l2.9,8.5l-18.8,40.9l40.8,19.8l2.6,9.8l-22.6,42.1l47,34.2c0,0-1.3-3.3-3.1-8.9l-37.2-26.6l18.9-36c0,0,1.5,2.6,3.1,2.1
						c-0.9-6-1.7-12-2.1-17.9l-19.2-50.1l62.2-41.8c-26.6-16-60.3-15.5-91.1-21.5c0,0-1.4-4.3-3.7-8.2c-9-14.4-17.1-32.7-27.1-51.6
						c7.4-3.5,10.6-3,18.5-4.6c11-61.6,21.8-132.5,39.3-186.1c7.6,0,13.8-6.2,13.8-13.8c0-4.2-1.9-7.9-4.8-10.4
						c1.7-0.5,3.5-1,5.4-1.4c2.5,0,12.7,11.2,12.7,11.2l-26.2,25.9l-0.1,8.5c10.5-10.9,33.4-34.4,33.4-34.4l-13.8-14.5l6.8-3.2
						l11.2,12.3l25.2-25.9l6.5,4.4c-8.5,11.1-14,14.8-26.7,27.9c6.6,7.8,32.3,32.6,32.3,32.6l-0.1-8.5l-25.3-24.6l24.6-24.6l1.4-1.6
						c0,0,19.5,8.4,20.8,8.4c-8.3-6.8-23.2-12.7-31.3-18.6c-36.7-21.7-1.8-66.5,32-55.4c1,3.6,18.7-94.5,16.7-100
						c1.8-15.2,2.2-13.1-3.1-21.8c-15.8-36.4-61.8-105.1-61.8-105.1l414.2-2.7c-4.3,8.4-8.7,15.2-11.9,25.1c0,0,23.3,24.2,31.8,56.1
						c4.7,17.8,11.6,34.4,23.5,46.3c0.2,0.4-0.4,1-1.2,1.5c-32.7,11.5-70.1-16.4-81.5-48.3l-18.8,30.6c8.5,1-125.1-15.2-157.8-11.1
						c2.9,0.6,6.3,3,4.4,12.2c-3.3,15.8-9.3,73.1-9.3,73.1c-6.6,55.7-11.7,125.8-48.4,148.9c0,0,5.6,6,10.5,9.1
						c0.1-0.1-4.3-4.6-4.5-5.1c0-1.6,0.9-2.7,2-3.5c7.8-6.3,17.3-19.4,16.9-19.7c30.4,26.4,77.8,49,106.5,39.6
						c11.3-2.4,16.3-13.3,22.3-4.4c-7.8,47.9-7.2,100.7-4.2,142.1c4.7,92.3,25.1,145.2,45.3,210.6c-10.4,3.7-63.7,39.4-63.7,39.4
						c-0.3,4.6,64.3,19.4,89.7,16.8c0,0,5.2,5.1,5.2,4c-0.1-0.3-0.3-0.6-0.5-1c3.8-2.1,6.3-6.1,6.3-10.7c0-6.8-5.5-12.3-12.2-12.3
						c-1.3,0-2.5,0.2-3.7,0.6c-3.2-7.8-5.9-14.6-5.9-14.6l35.9,15.6l-11.7,39.3l3.9,8.7l14.3-51.2l-45.8-19.6l-3.1-9.1l19-38.8
						l-41-24.3l-1.7-7.7l22-41.7l-39.7-30.5l29-37.5l-35.7-30l0.4-5l29.6-34.1l-30.6-31.4l-0.9-12.7l33.3-29.6l-28.8-41.8
						c12-8.1,18.7-17.3,26.6-26.4l7,3.1l-25.6,19.4l27.3,39.5l28.8-26l-15.6-25.5l9.5,4.3l8.7,13.6l-1.4,14l-28.5,25.9l24.5,35.5
						l0.2,6.5c0,0-15.2,17.5-26.3,30.5l31,34.2l-25.4,32.4l31.9,27.2l-0.9-8.2l-23.6-19.9l18.1-21.9c1.3-13.2-1.6-35.8,5.2-45.8
						c-10.9-10.7-5.2-36.4,0.2-44.7c-10.4-12.3-4.5-39.4,2.2-40.5c-7.9-10-4.8-30.1,1.9-36.7c2.1-1.1-28.4-12.1-47.6-25.3
						c16-29.8,12.3-57.8,17.3-67.9c6.9,20,15.8,41.2,23.4,56.5c0.8,1.6,2.5,1.2,5.1,1.3c31.8,2.8,28.8,29.1,4.9,35.8
						c0,0,48.5,36.1,73.1,40.1c0.3,0.6,0.1,1.5-0.7,3.2c-3.5,7.2-5.5,19.7-6,30.7c-1.8,16.3,6.1,41.4,6.1,41.4l-10.1,6.2
						c-2,8.6-13.3,8.8-14.4,15c2.4,26.4,53.9,127.5,64.8,138.9C-1157.3,546.3-1165.2,468-1161.2,396z M-1173,579.9l8.4-6.9
						l-0.2,10.9L-1173,579.9z M-1164.8,596.7l-4.2-3.1l4.2-4.7L-1164.8,596.7z M-1683.2,725.4c0.8,5,1.7,9.9,2.7,14.7
						c-5.9,1.6-10.3,6.9-10.3,13.4c0,7.6,6.2,13.8,13.8,13.8c1.1,0,2.1-0.2,3.2-0.4c2.2,7.6,4.3,14.2,5.9,19l2.8,2
						c-7.6-26.3,7.1-40.4-14.5-62.3C-1680,724.5-1681.6,724.8-1683.2,725.4z M-1236.6,12.3l134.8,0.9v49.7l-103.9,110.4l40.1,0.5
						l-0.4,189.4c-11,4.6-21.4,11.6-31.6,18.5l-63.2-34.9l-4.6-2.3c0,0,1.7-0.5,5.5-2.9c7.1-4.7,9.9-16.2,6.6-24.9
						c-5.3-14.1-16.3-11.6-25.4-11.6c-7.6-5.9-14.1-25.5-19.4-38.5c-2.5-5.7-4.8-10-5.4-13.3c-0.6-3-0.6-5.7-0.6-5.7s1.2,0.4,3,4.1
						c10.1,21.2,33.6,31.4,46.1,11.4c6.3-12.3,2-26.3-8.7-30.3c-3.3-1.2-14.3,0.1-14.3,0.1c-0.6,0.4-8-10.4-18.4-45.9
						c-4.3-14.6-5.4-46.4-1.3-51c6.9-8.4,8.7-20.1,14.5-28.6c2.7-5.3,2.5-2,6.7,3.9c14.2,20.2,39.1,35.8,61.9,34.8
						c16.2-0.7,21.2-6.2,17.4-10.9c-8.9-9.1-14.7-21.8-17.6-33c-6.8-26-14-49.2-32.2-69.4L-1236.6,12.3z M-1305,135.7
						c1.7,1.6,0.4,4.1,0.1,8.6c-0.8,11.4-1,11.5-7.6,8.7c-12.6-5.5-30.3-0.7-41,10.9c-13.5,14.6-13.9,29.7-5.5,59.5
						c9.6,33.5,9.4,37.9-2.2,44.7c-6.9,5.9-14.1,18.3-11.4,18.3c0.4,0,1.3-0.8,2.1-1.6c0.8-0.9,7.1-6,12-9.4
						c13.4-9.2,17.6-13.9,11.4-30.8c-6.1-16.7-11-33.1-8.4-34.1c1.2-0.5,5.8,5,8.7,6.6c5.9,3.4,18.2,9.6,19.8,9.6
						c2.1,0-0.1-1.5-6.2-5.5c-16.1-10.6-22.8-20.2-7.2-14.1c8.3,3.2,17.2,1.4,22.2-0.3c5.8-1.9,8.8-3.8,9.4-1.6
						c0.8,10.3,0,20.9-0.6,31.3c-0.2,0.7-1,7.7-1.8,15.6c-3,30.1-8.1,55.5-21.3,71.9c-44.3,54.7-94.7,38.8-151.3-5
						c21.1-58.5,19.7-104.1,24.9-122.7c4.9-1.5,10.6,1.4,14.2,3.4c7.9,4.5,16.9,7.2,25.5,7.6c8,0.4,9.4-0.7,8.7,1.7
						c-0.6,1.8-13.5,5.6-21.4,7.3c-14.4,3-13.3,6.3-1.2,5.2c12.8-1.2,25.1-6.2,38.1-14.9c9.1-6,9.4-6,7-13.6
						c-0.6-1.8-1.8-4.5,2.5-6.1c4.5-1.6,3.8-3.5,1.3-5.5c-0.6-0.5-2.2-0.6-2.9-1.1c-0.8-0.6,0.1-3.5,0.1-3.9
						c-16.5-13.9-45.5-14.3-69.4,0c-1.2-0.4-2.4-2.3-1.3-4.9c2.5-5.5,28.2-12.1,46.4-12.4c8.3-0.1,9.9,0.9,22.5,4.8
						c5.2,1.6,8,2,8.5,1.2c1.1-1.8-0.8-7.1-4.7-9.9c-13.4-9.6-32.9-8.8-59.5,1.7c-14.2,5.6-12.8,7.6-8.1-20.5
						c1.3-7.8,2.7-13.7,2.7-13.7S-1325.5,127.2-1305,135.7z M-1324.2,162.1c6.6,0,12.6,1.7,16.1,5.1c5.1,5.7-0.3,7.4-8.4,4.4
						c-10.4-4-22.3-1.7-31.5,4c-5.9,3.7-7.2,1.7-2.2-3.6C-1344.1,165.6-1333.8,162-1324.2,162.1z M-1418.8,171.8
						c11.5-0.1,22,2,26.3,6.8c3.9,4.4,0.1,4.9-9.7,1c-13.9-5.4-32.3-3.7-47.6,3.9c-7.8,3.9-10.2,4.7-9.2,0.3
						C-1454.4,176.6-1435.5,171.9-1418.8,171.8z M-1327,175.4c10.9,0,20.2,2.5,18.5,8.3c-0.6,2-1.2,0.8-9-1.6
						c-7.8-2.4-17.8-1.5-27.8,1.4c-9.4,2.7-11.1,3.3-7-0.7C-1347.2,177.9-1336.7,175.4-1327,175.4z M-1304.7,180.9
						c11.1,17.1,13,42.1,24.8,55.6c21.8-4.1,32.1,16.4,13.8,30.1c-9.3,5.2-20.7,1.3-29-12.4c-8-13-10.2-20.9-10.4-29.2
						C-1304.9,207.6-1305.9,198.3-1304.7,180.9z M-1432.3,188.7l4.8,0.6c3.5,11.9,11.4,12.6,16.1,0.2l3.6,0.6
						C-1413.3,205.3-1427.2,205.9-1432.3,188.7z M-1439.8,189c2-0.1,3.7,2,4.6,4.8c1.9,6.3-0.3,5.5-4.6,2.9
						c-4.4-2.7-7.8-4.5-5.3-5.6C-1443.2,190-1441.7,189.3-1439.8,189z M-1398.3,193c1.7,2.1,2,3.7-0.1,5.1c-2.1,1.1-3.6,1.8-5.7,2.5
						c-1.9,0.6-3.1,0.1-2.3-2.7c0.5-2.4,2-5.8,3.1-7.2C-1401.4,190.5-1399.4,191.8-1398.3,193z M-1339.8,191.6l3.8,0.3
						c4,10.9,13.4,10.5,17,1.1l3.4,0C-1322,209.7-1335.1,206.7-1339.8,191.6z M-1346.7,193c3.7,0,7.2,5.3,5.2,8
						c-2,1.7-11.1-0.2-11.9-3.6C-1353.7,195.4-1350.4,193-1346.7,193z M-1311.3,194c1.8,0.4,1.7,1.8,1.7,2c0.9,4.5-4.4,6-5.6,4.3
						C-1315.8,199.3-1313,195.8-1311.3,194z M-1395.5,241.6c-9,2.5-13.1,10.2-12.6,18.9c0.5,7,4.1,12.7,9.4,13.9
						c10.7,2.4,18.1-5,29-8.1c4.7-1.2,3.6-7.3,0.6-10c-3.9-3.4-9.8-1.3-17.8,4.8c-15.7,12-19.4-11.1-5.2-15.1
						C-1389.9,245.3-1390.9,240.2-1395.5,241.6z M-1858.8,772.6l6.1,1.8l-6.1,7.2C-1858.8,781.6-1858.8,775.4-1858.8,772.6
						L-1858.8,772.6z M-1841.9,797.3l-12.5,14.1l17-1.3l-11.6,12l17.7,0.7l-13,13.5l17.4-0.4l-12.9,13l16.5,0.5l-10.9,11.9l18.1-1.4
						l-13.2,14.3l19.4-0.3l-14.7,13.3l19.3-0.1l-5.8,6.6l5.2,2.6c5.3-2.4,35.6-11.9,36.6-19c-6.7-1.8-26.4,8.2-27.7,6.6
						c-7.9-34.9-42-112-64.5-134.5l-1.6,218c-3.4,3.2-8.9,1.6-12.4,3c-11.4-0.6-30.5,18.5-20.5,22.2c5.2,1.2,34,6.1,34.1,7.5
						c3.5,63.2-2.2,126.7,0.4,194.2c8.1,1.2,34.4,2.7,34.4,2.7s-96.7,100.9-98.6,98.8c2.3-108.1,1.1-319.5-0.8-320.3
						c0-6.3,2.2-19.7,2.2-19.7l-2.1-672.4c0,0-0.6-3-1.7-4.9c-2-3.3-2.1-4.1-2.3-14.2c-0.8-6.2,0.1-7.9,0.1-7.9l0,0l66.1,69.9
						l0.1,195.5c0,0,62.6,92.4,77,135.1c31.6,63.5,28.2,156.2,47.3,191.6c0.4,0,0.8,0,1.2-0.1c0.5,5.2,0.5,7.2,1.3,8.1
						c1.4,11.6,3,27.3,3,27.3l-6.9,11l7.7,9.9l0.1,26.4l-10.3,10.5l9.4,11.9l-2.6,24.7l-7.3,6.5l4.2,5.6c0,0,0.7,8.9-1,19.1
						c-1.1,6.9-7.9,6-22.1-1.2c-20.1-7.6-40.6-21.2-56.4-31.5c0.9-12.8,16.8-42.1-5.3-74.4c-8.2-6.1-31.9-3.9-34-4.8l0.2-99.4
						 M-1858.6,786.8l10.7-1.9l-10.8,10.8L-1858.6,786.8z M-1348.9,290.6c-0.9,0.1-2,0.9-3.4,2.5c-1.5,1.7-3.9,1.2-9.9,0.9
						c-6.4-0.4-8.1-0.2-12.3,1.3c-4.8,1.8-4.9,1.8-8.3,0.3c-5.2-2.2-8.5-2.5-13.3-1.1c-5.9,1.7-9.7,1.2-13.3-0.6
						c-3.7-1.8-4.9-1.5-6.2,1.9c-0.5,1.4-3.2,6.9-4.4,8.7c-3.9,6-3,7,5.3,4.5c5.7-1.7,16.2-2.9,24,0.4c5.9,2.5,13,1.7,21.4-2
						c7.4-3.2,14.7-4.2,21.8,1.7c4.1,3.5,3.9,0.8,2.9-6.3C-1345.8,294.7-1346.6,290.3-1348.9,290.6z M-1629.6,315.9
						c-7.6,0-13.8,6.2-13.8,13.8c0,7.6,6.2,13.8,13.8,13.8C-1625.9,340.5-1624.1,316.5-1629.6,315.9z M-1362.8,316
						c-8.4,2.9-20,6.7-33,2.9c-10.2-3.1-7.8,4.6,3.3,5.5c7.7,0.7,7.2,0.7,1.2,6.3c-5.1,4.7,1.3,4.4,4.7,1.4
						c4.1-3.5,15.2-2.6,21.5,0.3c2.8,1.3,3.1-4-0.2-5.1c-8.3-2.9-6.3-3.1,2.7-6C-1359.2,320.6-1359,314.8-1362.8,316z
						 M-1629.6,320.6c4.4,1.6,1.6,17.7,0,18.4c-5.1,0-9.2-4.1-9.2-9.2C-1638.8,324.6-1634.6,320.6-1629.6,320.6z M-1703.3,321.1
						c3.5-1.2,6,4.7,6,8.6c0,5.1-4.1,9.2-9.2,9.2c-6.2-6.1-7.3-12.8-0.2-16.6C-1705.6,321.9-1704.4,321.5-1703.3,321.1z
						 M-1666.9,334.7l-29.5,29.8l29,29.4l29-30L-1666.9,334.7z M-1317.2,346.5c4.2,0,7.6,3.4,7.6,7.7c0,4.2-3.4,7.6-7.6,7.6
						c-4.2,0-7.7-3.4-7.7-7.6C-1324.9,349.9-1321.5,346.5-1317.2,346.5z M-1667.2,356.5c4.2,0,7.7,3.4,7.7,7.7
						c0,4.2-3.4,7.6-7.7,7.6c-4.2,0-7.6-3.4-7.6-7.6C-1674.8,359.9-1671.4,356.5-1667.2,356.5z M-1353.4,363.8l21.2,28.5l-25.9,23.2
						l1.3-14.4c5.7-1,10.1-6.1,10.1-12.1c0-5.2-3.3-9.7-7.9-11.4L-1353.4,363.8z M-1705.6,365.4l-0.3,7.8l26.7,26.4l-26.4,27.4
						l0.2,7.6l32.8-35L-1705.6,365.4z M-1630.2,365.4l-32.6,33.4l31.4,34.3l0.4-8.7l-24.7-25.5l25.1-25L-1630.2,365.4z
						 M-1160.2,370.8c6.6,0,12.3,2.2,14.1,6.5c1.4,2.4,2.1,4.5,4.1,5.5c3.9,1.8,9.1,0.6,9.4-0.7c0.5,0-6.2-0.6-7.3-1.6
						c-5.2-4.7-4.3-7.6,3.1-7c2.4,0.1,9,0.2,9.1,2.8c1.5,8.9-10.4,15.5-25.6,14.3c-10.8-1.8-10.9,2.4-11.7,8.2
						c-0.5,1.9-2.1,5-3.5,7.4c-3.8,6.9-5.1,5.9-2.4,8.6c2.6,3.4,6,7.6,5.9,11.5l-0.1,36.2c0,0-22.8-0.1-30.7-5.8
						c-8.3-15.1-13.9-47.7-1.7-65.6c4.2-5.4,10.5-7.9,17.6-13.6C-1174.4,372.9-1166.8,370.8-1160.2,370.8z M-1288.8,374.9l-0.8,10.5
						c-5.8,1-10.2,6-10.2,12c0,5.4,3.5,9.9,8.3,11.6l-0.7,9.1l-16.9-24.2L-1288.8,374.9z M-1355,381.9c2.5,1.4,4.2,4,4.2,7.1
						c0,3.6-2.3,6.7-5.5,7.8L-1355,381.9z M-1707.1,385.7c-11.7,6.1-7.7,29.6,0,27.6c7.6,0,13.8-6.2,13.8-13.8
						C-1693.3,391.9-1699.4,385.7-1707.1,385.7z M-1630.8,386.1c-7.6,0-13.8,6.2-13.8,13.8c0,7.6,6.2,13.8,13.8,13.8
						C-1620.7,410.5-1626.4,386.6-1630.8,386.1z M-1290,389.6l-1.2,15.1c-2.7-1.3-4.5-4.1-4.5-7.3
						C-1295.7,393.7-1293.3,390.6-1290,389.6z M-1707.1,390.4c5.1,0,9.2,4.1,9.2,9.2s-4.1,9.2-9.2,9.2
						C-1710.1,409.3-1712,392-1707.1,390.4z M-1630.8,390.7c6.2,0.5,1,16.1,0,18.4c-5.1,0-9.2-4.1-9.2-9.2
						S-1635.9,390.7-1630.8,390.7z M-1321.1,399.4l-30.5,30.4l30.1,33.2l25.1-30.5L-1321.1,399.4z M-1667.7,405.2l-29.2,30.1
						l27.6,28.6l29.2-30.8L-1667.7,405.2z M-1859.9,421.7l10.9,11.3l-10.9,0.1V421.7z M-1323.5,422.8c4.2,0,7.7,3.5,7.7,7.7
						c0,4.2-3.4,7.7-7.7,7.7c-4.2,0-7.6-3.4-7.6-7.7C-1331.1,426.3-1327.7,422.8-1323.5,422.8z M-1667.8,427c4.2,0,7.7,3.4,7.7,7.7
						c0,4.2-3.5,7.7-7.7,7.7c-4.2,0-7.6-3.5-7.6-7.7C-1675.5,430.4-1672,427-1667.8,427z M-1630,435.9l-32.3,33.4l31.2,33.2l0.4-7.9
						l-25-25.2l25.3-26L-1630,435.9z M-1706,436l0.3,8.4l25.9,25.7l-27.3,27.4l1.1,7.4l33.5-34.7L-1706,436z M-1357.3,445.1
						l23.4,23.2l-23.3,26l0-13.5c4.8-1.7,8.3-6.2,8.3-11.6s-3.5-9.9-8.3-11.5L-1357.3,445.1z M-1292.9,446.3l0.3,9.5
						c-5.3,1.4-9.2,6.1-9.2,11.8c0,5.9,4.2,10.8,9.8,12l0.2,7.5l-18.5-20.4L-1292.9,446.3z M-1833.3,450.6c0,0,7.8,8.3,10.4,11.7
						c-2.1,2.4-3.3,5.5-3.3,9c0,7.6,6.2,13.8,13.8,13.8c2.2,0,4.3-0.5,6.1-1.4c1.4,2.1,7.6,10.7,7.6,10.7l-36.7-5.9L-1833.3,450.6z
						 M-1630.2,456.1c-7.6,0-13.8,6.2-13.8,13.8c0,7.6,6.2,13.8,13.8,13.8C-1616.3,480.9-1619.1,456.8-1630.2,456.1z M-1707.2,456.6
						c-19.7,2.2-14.6,27.2,0,27.6c7.6,0,13.8-6.2,13.8-13.8C-1693.4,462.8-1699.5,456.6-1707.2,456.6z M-1292.5,460.1l0.4,15.3
						c-3.2-1.1-5.6-4.1-5.6-7.8C-1297.7,464.2-1295.6,461.3-1292.5,460.1z M-1630.2,460.7c8.9,3.3,6.2,19,0,18.4
						c-5.1,0-9.2-4.1-9.2-9.2S-1635.3,460.7-1630.2,460.7z M-1707.2,461.3c5.1,0,9.2,4.1,9.2,9.2s-4.1,9.2-9.2,9.2
						C-1720.2,478.1-1716.9,461.6-1707.2,461.3z M-1357.3,462.2c2.5,1.4,4.2,4,4.2,7.1c0,3.1-1.7,5.7-4.2,7.1L-1357.3,462.2z
						 M-1819.9,466.1l10.8,13.8c-1,0.4-2.1,0.6-3.2,0.6c-5.1,0-9.2-4.1-9.2-9.2C-1821.6,469.3-1821,467.6-1819.9,466.1z
						 M-1322.5,472.4l-25.2,30.4l31,27.5l22-27.3L-1322.5,472.4z M-1667.5,476l-31,31.4l21.9,22.7l-12.1-1.3l-17.5-17.8l-0.4,5.9
						l9.5,10.9l-10.2-0.3c-3.7,5.7,19.2,5.9,32.2,8.1c16.4,2.8,52.3,15.9,44.4,6.3l-9-2.3l8.5-10.2l-0.1-7.8l-14.8,15.8l-5-1.1
						l20.9-21.5l-1.4-6.6l-25.7,26.3l-7.5-1.7l26.1-26.6L-1667.5,476z M-1321.2,494.1c4.2,0,7.6,3.4,7.6,7.6c0,4.2-3.4,7.6-7.6,7.6
						c-4.2,0-7.7-3.4-7.7-7.6C-1328.9,497.5-1325.4,494.1-1321.2,494.1z M-1668.6,498.1c4.2,0,7.6,3.4,7.6,7.6
						c0,4.2-3.4,7.6-7.6,7.6s-7.6-3.4-7.6-7.6C-1676.2,501.5-1672.8,498.1-1668.6,498.1z M-1842.1,500.3c0,0-2,25.2-3.1,37.3
						l40,10.7l5-40.2L-1842.1,500.3z M-1859.5,502.2l5.6,0.2l-0.9,23.4l-5.4-5.8L-1859.5,502.2z M-1785.5,512.3c0,0,4,6.5,8.6,13.6
						c-2.5,2.5-4,5.9-4,9.7c0,7.6,6.2,13.8,13.8,13.8c1.4,0,2.7-0.2,4-0.6c1.8,3.4,5.2,8.8,5.2,8.8l-34.3-10L-1785.5,512.3z
						 M-1356.1,514.9l26.9,21.9l-20.9,25.7l-1.4-11c4.7-1.7,8.1-6.2,8.1-11.5c0-6.4-4.9-11.6-11.1-12.2L-1356.1,514.9z
						 M-1821.8,515.3c4.2,0,7.7,3.4,7.7,7.6s-3.4,7.7-7.7,7.7c-4.2,0-7.7-3.4-7.7-7.7S-1826.1,515.3-1821.8,515.3z M-1283.7,517.7
						c-6.8,0-12.3,5.5-12.3,12.2c0,6.8,5.5,12.3,12.3,12.3C-1281,544.2-1280.2,521.2-1283.7,517.7z M-1283.7,521.8
						c0.7,3.7,1.6,17.2,0,16.3c-4.5,0-8.2-3.7-8.2-8.2C-1291.8,525.4-1288.2,521.8-1283.7,521.8z M-1774.3,530
						c3.1,4.8,6.2,10,8.9,14.7c-0.6,0.1-1.1,0.2-1.7,0.2c-5.1,0-9.2-4.1-9.2-9.2C-1776.2,533.5-1775.5,531.5-1774.3,530z
						 M-1353.9,532.1c3.7,0.8,6.5,4,6.5,7.9c0,3.2-1.8,6-4.5,7.3L-1353.9,532.1z M-1317.4,539.2l-22.8,30.5l34.5,26.9l19.5-33.4
						L-1317.4,539.2z M-1836.8,551.7l25.7,7.5l-4.8,26.3c-0.4-1.5-1.8-4.3-3.8-7.6c1.1-2,1.7-4.3,1.7-6.7c0-7.6-6.2-13.8-13.8-13.8
						c-0.4,0-0.7,0-1.1,0.1C-1835.1,554.1-1836.8,551.7-1836.8,551.7z M-1798.6,558.1l-8.4,42l38.7,15.6l9.4-44.4L-1798.6,558.1z
						 M-1313,558.4c4.2,0,7.7,3.4,7.7,7.6c0,4.2-3.4,7.6-7.7,7.6c-4.2,0-7.7-3.4-7.7-7.6C-1320.7,561.8-1317.3,558.4-1313,558.4z
						 M-1829.6,562.3c4,1,7,4.6,7,8.9c0,0.6-0.1,1.1-0.2,1.7C-1824.9,569.3-1827.3,565.6-1829.6,562.3z M-1280.2,563.4l-20.7,39.1
						l35.3,24.6l-2.4-8.4l-25.2-18.5l14.7-26.9L-1280.2,563.4z M-1781.5,577.6c4.2,0,7.6,3.4,7.6,7.7c0,4.2-3.4,7.6-7.6,7.6
						c-4.2,0-7.6-3.4-7.6-7.6C-1789.1,581-1785.7,577.6-1781.5,577.6z M-1744.9,581.4l8.2,14.3c-3.4,2.5-5.6,6.5-5.6,11.1
						c0,7.6,6.2,13.8,13.8,13.8c1.1,0,2.2-0.2,3.3-0.4l6,12.6l-35.9-15.7L-1744.9,581.4z M-1272.2,581.6c-3.2-0.7-6.3,1.3-8.5,3.4
						c-2.3,2.2-3.7,5.4-3.7,8.8c0,6.8,5.5,12.3,12.2,12.3C-1262.9,603.8-1267.9,582.6-1272.2,581.6z M-1346.5,584.9l29.2,20.9
						l-17,32.9c0,0-1.7-6.6-3.9-15.6c4.2-2,7-6.2,7-11.1c0-6.8-5.5-12.3-12.2-12.3c-0.1,0-0.1,0-0.2,0
						C-1344.8,594.5-1345.8,589.3-1346.5,584.9z M-1272.2,585.7c5.1,1.5,3.4,15.8,0,16.3c-4.4,0.7-8.2-3.6-8.2-8.1
						C-1280.3,589.3-1276.7,585.7-1272.2,585.7z M-1734.7,600.1l7.5,15.9c-0.4,0.1-0.8,0.1-1.3,0.1c-5.1,0-9.2-4.1-9.2-9.2
						C-1737.7,604.2-1736.5,601.8-1734.7,600.1z M-1342.7,604c4.1,0.4,7.4,3.9,7.4,8.1c0,2.9-1.6,5.5-3.9,7
						C-1340.4,614.3-1341.5,609.1-1342.7,604z M-1304.2,608.1l-20,39.5l36.9,22.5l17-38.2L-1304.2,608.1z M-1799,615.7l22.8,10.4
						l-6.4,23.5l-2.8-5.7c1.3-2.1,2.2-4.6,2.2-7.4c0-7.1-5.4-13-12.3-13.7L-1799,615.7z M-1763,626.9l-11.2,39.5l35.5,18.5
						l16.2-39.8L-1763,626.9z M-1792.9,628.3c3,1.5,5,4.6,5,8.2c0,0.6-0.1,1.2-0.2,1.8L-1792.9,628.3z M-1297.6,631.5
						c4.2,0,7.7,3.4,7.7,7.7c0,4.2-3.4,7.6-7.7,7.6c-4.2,0-7.7-3.4-7.7-7.6C-1305.2,635-1301.8,631.5-1297.6,631.5z M-1263.9,633.7
						l-16.9,41.4l38.9,21.5l-2.9-7.5l-28.8-16.6l12.3-29.9L-1263.9,633.7z M-1748.7,647.5c4.2,0,7.7,3.4,7.7,7.6
						c0,4.2-3.4,7.6-7.7,7.6s-7.6-3.4-7.6-7.6C-1756.4,650.9-1753,647.5-1748.7,647.5z M-1251.6,653.6c-6.8,0-12.2,5.5-12.2,12.2
						c0,6.8,5.5,12.5,12.2,12.3C-1239.3,677.8-1245.6,653.5-1251.6,653.6z M-1710.7,655c2.3,4.2,4.1,8.6,5.7,13.1
						c-3.7,2.5-6.1,6.7-6.1,11.4c0,7.4,5.8,13.4,13,13.8c0.3,0,1.6,0.2,1.6,0.2l2.2,8.3l-30.5-16
						C-1720.6,674.3-1716.9,666.4-1710.7,655z M-1251.6,657.7c3.6,1.5,4.5,15.8,0,16.3c-4.5,0-8.1-3.7-8.1-8.2
						C-1259.8,661.4-1256.1,657.7-1251.6,657.7z M-1326.9,662.5l30,17.2l-15.1,32.5l-4.5-14.9c3.2-2.2,5.4-5.9,5.4-10.1
						c0-6.7-5.4-12.2-12.1-12.3L-1326.9,662.5z M-1703.4,672.7l4.8,15.9c-4.9-0.2-7.8-4.2-7.8-9.1
						C-1706.5,676.8-1705.3,674.4-1703.4,672.7z M-1321.9,679.2c3.8,0.7,6.7,4,6.7,8c0,2.3-1,4.4-2.6,5.9L-1321.9,679.2z
						 M-1770,680.2l23.2,13.6l-10.5,27.1l-3.1-9.8c2.1-2.4,3.3-5.6,3.3-9c0-6.4-4.4-11.8-10.4-13.3L-1770,680.2z M-1285.2,680.8
						l-14.1,37.7l40.7,21.4l10.2-38.6L-1285.2,680.8z M-1765.5,694.6c2.4,1.7,3.9,4.4,3.9,7.5c0,1.1-0.2,2.2-0.6,3.2L-1765.5,694.6z
						 M-1735,696.5l-16.5,38.3l34.4,22.7l17.9-39.9L-1735,696.5z M-1272.4,702.7c4.2,0,7.7,3.4,7.7,7.6c0,4.2-3.4,7.6-7.7,7.6
						c-4.2,0-7.6-3.4-7.6-7.6C-1280,706.1-1276.6,702.7-1272.4,702.7z M-1232.1,719.5c-3.4,2.2-5.5,6.5-5.5,10.8
						c0,6.8,5.5,12.3,12.2,12.2c1.5,0,2.9-0.2,4.1-0.4C-1217.7,737.4-1222.7,719.3-1232.1,719.5z M-1724.8,718.4
						c4.2,0,7.7,3.4,7.7,7.6c0,4.2-3.4,7.7-7.7,7.7c-4.2,0-7.6-3.5-7.6-7.7C-1732.4,721.8-1729,718.4-1724.8,718.4z M-1223.5,738.1
						c-0.5,0.3-1.1,0.4-1.8,0.4c-4.5-0.2-8.1-3.7-8.1-8.1c0-2.6,1.2-4.9,3-6.3C-1223.4,718.7-1222.4,739.2-1223.5,738.1z
						 M-1679.5,744.6c1.4,6.3,3,12.2,4.5,17.8c-0.6,0.1-1.3,0.2-1.9,0.2c-5.1,0-9.2-4.1-9.2-9.2
						C-1686.2,749.3-1683.4,745.7-1679.5,744.6z M-1252.7,749.2l-10.6,42.4l40.8,14.8l7.8-40.1L-1252.7,749.2z M-1749.5,749.7
						l21.6,14.9c0,0-7,16.9-12.9,25.9l-1.7-7.8c3.6-2.5,5.9-6.6,5.9-11.3c0-6.8-4.8-12.4-11.2-13.6L-1749.5,749.7z M-1292.2,751.8
						c4.5,0,8.1,3.6,8.1,8.1c0,3-0.9,4.2-3.2,5.6c-1.8-4-4.2-8-6.5-13.4C-1293.1,751.9-1293,751.8-1292.2,751.8z M-1746.7,763
						c3.2,1.4,5.5,4.7,5.5,8.4c0,2.4-0.9,4.6-2.4,6.2L-1746.7,763z M-1714.2,769.2l-19.6,34.1l28.8,22l22.5-34.1L-1714.2,769.2z
						 M-1239,770.3c4.2,0,7.7,3.5,7.7,7.7c0,4.2-3.4,7.6-7.7,7.6s-7.7-3.4-7.7-7.6C-1246.7,773.7-1243.2,770.3-1239,770.3z
						 M-1203.8,780.9l5,7.8c-1.6,2.1-2.5,4.6-2.5,7.4c0,6.8,5.5,12.3,12.3,12.3c0.9,0,1.8-0.1,2.7-0.3l4,6.2l-25.6-9.1
						L-1203.8,780.9z M-1708.3,790c4.2,0,7.6,3.4,7.6,7.6c0,4.2-3.4,7.7-7.6,7.7c-4.2,0-7.7-3.4-7.7-7.7
						C-1716,793.4-1712.5,790-1708.3,790z M-1196.3,792.4l7.6,11.7c-0.1,0-0.2,0-0.2,0C-1196.1,804-1199.1,798.2-1196.3,792.4z
						 M-1671.6,793l-27.8,36.9l36.9,27.3l-0.6-8.1l-26.9-19.3l20.5-27.3L-1671.6,793z M-1265.6,805.4l36.7,11.5l-7.9,36.4l-8.7-14.4
						c2.4-2.2,3.8-5.4,3.8-8.9c0-6.8-5.5-12.3-12.2-12.3c-1.4,0-2.7,0.2-3.9,0.6L-1265.6,805.4z M-1665.4,811.8
						c-7,0.7-12.4,6.6-12.4,13.7c0,7.6,6.2,13.8,13.8,13.8c3.5,0.4,4-4.9,0-4.6c-5.1,0-9.2-4.1-9.2-9.2c0-4.9,3.8-8.8,8.6-9.1
						l-0.7-4.6C-1665.3,811.8-1665.4,811.8-1665.4,811.8z M-1215.8,815.7l-6.4,42.1l41.6,8.9l3.1-38.2L-1215.8,815.7z
						 M-1735.6,816.7l19.6,14.5l-14.9,20.8l-0.8-6c3.6-2.5,5.9-6.6,5.9-11.3c0-6-3.8-11-9.1-13L-1735.6,816.7z M-1253.8,822
						c4.5,0,8.1,3.7,8.1,8.2c0,2-0.7,3.8-1.9,5.3l-7.9-13.2C-1255,822.1-1254.4,822-1253.8,822z M-1385,827.7
						c1.1,0.2,2.6,0.5,2.3,1.1c-0.3,0.7-7,8-7,8l0.8,6.8l11.8-13.4l4.7,1.8l-16.6,16.8l-0.8,6.3l22.1-21.7l9.4,2.6l-25.7,25.3
						l29.6,30l29.6-30.2l-21-23l10.4,1c4.4,5,9.2,13,17.3,17.2l-0.8-6c-0.4,0.3-9.8-8.8-8.3-10.3l8.3,0.6c9.7-2.6-11.9-6.2-32.7-9.7
						c-10.8-0.4-42.3-14.3-34.8-3.7C-1385.9,827.4-1385.4,827.5-1385,827.7z M-1734.2,827.4c2.3,1.7,3.7,4.3,3.7,7.4
						c0,2.2-0.8,4.2-2,5.7L-1734.2,827.4z M-1200.5,834.7c4.2,0,7.6,3.4,7.6,7.7c0,4.2-3.4,7.6-7.6,7.6c-4.2,0-7.7-3.4-7.7-7.6
						C-1208.2,838.1-1204.8,834.7-1200.5,834.7z M-1703.6,835.5l-23.9,30.4l27.1,26l27.7-32.5L-1703.6,835.5z M-1166.9,843.3
						l1.9,0.3v20.7l-2.9-0.6L-1166.9,843.3z M-1353.5,852.9c4.2,0,7.6,3.4,7.6,7.7c0,4.2-3.4,7.6-7.6,7.6s-7.7-3.4-7.7-7.6
						C-1361.2,856.3-1357.7,852.9-1353.5,852.9z M-1699.9,855.1c4.2,0,7.6,3.4,7.6,7.7c0,4.2-3.4,7.6-7.6,7.6s-7.7-3.4-7.7-7.6
						C-1707.6,858.5-1704.1,855.1-1699.9,855.1z M-1663,861.1l-30.9,36.8l33.1,34.2l-0.1-7.6l-25.7-27l24.1-28.1L-1663,861.1z
						 M-1317.8,864.4l-31.8,32.1l31.7,32.8l0.7-7.4l-24.4-24.7l22.9-23.7L-1317.8,864.4z M-1387.6,867.8l0.1,8.7l19.9,20.3
						l-20.4,20.8l0.1,8.9l28.9-29.8L-1387.6,867.8z M-1224.9,871.6l37.4,7.1l-2.3,35.4l-9-10.9c1.5-2,2.5-4.6,2.5-7.3
						c0-6.8-5.5-12.2-12.2-12.2c-1.9,0-3.7,0.5-5.4,1.2L-1224.9,871.6z M-1729.2,877.9l18.4,19.4l-17.6,19.9l-0.2-6.8
						c4.9-2.1,8.3-7,8.3-12.7c0-5.9-3.7-10.9-8.9-12.9L-1729.2,877.9z M-1660.8,882.8c-6.1,1.4-10.7,6.9-10.7,13.4
						s4.6,12.1,10.7,13.5v-4.8c-3.5-1.3-6.1-4.7-6.1-8.7c0-4,2.6-7.4,6.1-8.6V882.8z M-1389.7,884.1c-5.7,3.7-3.1,24.8,0,24.5
						c6.8,0,12.2-5.5,12.2-12.3C-1377.4,889.6-1382.9,884.1-1389.7,884.1z M-1317.2,886.1c-6.8,0-12.2,5.5-12.2,12.3
						c0,6.8,5.5,12.2,12.2,12.2C-1311.8,908.8-1314,887.3-1317.2,886.1z M-1208.5,887.7c4.5,0,8.2,3.6,8.2,8.1c0,1.5-0.4,2.9-1.1,4
						l-9.7-11.7C-1210.3,887.8-1209.5,887.7-1208.5,887.7z M-1389.7,888.2c4.5,0,8.1,3.7,8.1,8.2c0,4.5-3.6,8.2-8.1,8.2
						C-1389.2,901.6-1391.2,887.9-1389.7,888.2z M-1729,890.1c2.5,1.6,4.2,4.5,4.2,7.7c0,3.1-1.5,5.8-3.8,7.5L-1729,890.1z
						 M-1317.2,890.2c1,3.3,2.3,16.9,0,16.3c-4.5,0-8.2-3.7-8.2-8.1C-1325.3,893.9-1321.7,890.2-1317.2,890.2z M-1354.2,902.1
						l-29.8,29.7l30.5,31.1l28.8-30.7L-1354.2,902.1z M-1698.3,903.7l-26.7,28.8l25.7,33.4l30.2-30L-1698.3,903.7z M-1843,904.7
						c8.2,0,15.9,1.4,19,6.9c12.6,16.8,9,51.4,0.2,63.3c-19.6,17.8-30.6,22.5-52.7,18.4c2.5-10-8.1-15.4-9.6-13.1
						c-0.2,0-1,1.8,0,1.9c7.6,0.9,7,10,6.1,10c-8.4-0.3-13.9-0.1-14.7-3.9c-0.5-2.3,0.8-5.9,5.7-9.9c5.8-4.6,32.2-4.5,32.2-4.5
						c0.1,0-0.1-7.5,2.6-11.9c2.3-3.8,5.6-8,3.3-9.8c-3.8-1.8-6.4-6.1-6.9-11c-1-10.4,0.6-35.3,0.2-35.6
						C-1853.1,905.2-1848,904.7-1843,904.7z M-1354.3,924c4.2,0,7.7,3.4,7.7,7.6c0,4.2-3.4,7.6-7.7,7.6c-4.2,0-7.6-3.4-7.6-7.6
						C-1361.9,927.4-1358.5,924-1354.3,924z M-1698.1,926.9c4.2,0,7.7,3.4,7.7,7.7c0,4.2-3.4,7.7-7.7,7.7s-7.7-3.4-7.7-7.7
						C-1705.8,930.4-1702.3,926.9-1698.1,926.9z M-1317.8,934.1l-31.2,31.8l33.2,34.4l-1.1-9.3l-23.9-24.6l23.4-24.4L-1317.8,934.1z
						 M-1388.2,934.7l-0.8,8.8l22.1,23.2l-20,20.6l-0.3,10l29.5-31.1L-1388.2,934.7z M-1729.6,946.7l17.6,24.7l-21,18.4l0.6-7
						c6.1-1.4,10.6-6.9,10.6-13.5c0-5.8-3.6-10.7-8.6-12.8L-1729.6,946.7z M-1663.6,951.6c-0.4,5.1-0.7,9.3-0.9,13.1
						c-5.7,1.7-9.9,7-9.9,13.2c0,5.6,3.3,10.3,8,12.5c-0.4,4-0.9,8.3-1.6,13.9l-21.1-30.8L-1663.6,951.6z M-1165.2,953.1l0.7,86.5
						l62.8,65v243.5h-257.7l-66.4-111.8c-1.3-2.2-3.2-1.4-4.7-3.6l19.7-105.1c31,14.3,57-22.6,40.1-52.5
						C-1275.1,1040.2-1165.2,953.1-1165.2,953.1z M-1317.6,953.6c-6.8,0-12.3,5.5-12.3,12.2c0,6.8,5.5,12.3,12.3,12.3
						C-1308.8,974-1313.3,953.7-1317.6,953.6z M-1389,954.3c-3.4,3.9-5.3,24.7,0,24.5c6.8-0.2,12.2-5.5,12.2-12.3
						C-1376.7,959.7-1382.2,954.3-1389,954.3z M-1317.6,957.7c6.4,4.7,0.6,15.2,0,16.3c-4.5,0-8.2-3.7-8.2-8.2
						C-1325.8,961.3-1322.1,957.7-1317.6,957.7z M-1389,958.4c4.5,0,8.1,3.6,8.1,8.1c0,4.5-3.6,8.1-8.1,8.1
						C-1388.5,973.3-1391,958.9-1389,958.4z M-1730.7,961.6c2.6,1.6,4.3,4.5,4.3,7.8c0,3.8-2.3,7.1-5.6,8.5L-1730.7,961.6z
						 M-1664.9,969.8c-0.4,5.9-0.7,10.7-1,15.6c-2.3-1.7-3.9-4.4-3.9-7.5C-1669.8,974.4-1667.8,971.3-1664.9,969.8z M-1354.6,972.6
						l-29.1,29.1l30.3,31.4l28.8-30.4L-1354.6,972.6z M-1700.5,980.2l-30.5,24.4l19.6,30l6.8,4.1l27.9-23.9L-1700.5,980.2z
						 M-1822.7,982.2l71.7,38.3c0,0-18.6,7.8-18.1,20.2c0.7,13.9,9.1,25.2,25.6,21c3.8-0.5,5.5,1,9.2,9.6
						c7,16.3,13.9,34.3,11.2,33.7c-8.8-7-7.5-7.4-17.8-12c-19.3-5.3-31.1,12.6-25,27.2c5.7,13.4,15.1,14.2,24.6,12.8
						c1.4,0.3,2.6,1.8,3.5,3.6c3,6.1,7.6,17,11.1,33.7c5.5,25.8,6.7,58,2.7,66.1c-5.6,11.2-13.2,26.4-13.2,26.4
						c-14.9-28.5-47.5-53.5-84.1-44.6c-1.2,0.8-1.5,4.8,0.2,7.2c11.9,15.6,13.9,29.9,18.1,45.2c10.9,39.3,32.8,61.7,32.5,57.7
						l-11.5,20.8c0,0-99.5,0.5-140.3,0V1301l106.7-109.3l-42.3-1.8l1.5-188.4C-1840.9,998.3-1822.7,982.2-1822.7,982.2z
						 M-1354.1,994.3c4.2,0,7.6,3.4,7.6,7.6c0,4.2-3.4,7.7-7.6,7.7c-4.2,0-7.7-3.4-7.7-7.7C-1361.8,997.7-1358.3,994.3-1354.1,994.3
						z M-1703.7,1002c4.2,0,7.7,3.4,7.7,7.6c0,4.2-3.4,7.7-7.7,7.7c-4.2,0-7.7-3.5-7.7-7.7C-1711.4,1005.4-1708,1002-1703.7,1002z
						 M-1388.3,1009l0.7,7.5l21,22l-19.4,19.7c-2.8,3.9-10.1,3-12.4,3.3c1.6,4.8,5.9,4.2,10.4,6.1l28.2-28.9L-1388.3,1009z
						 M-1388,1026.1c-5.1,1.6-4.2,23.3,0,24.5c6.8,0,12.2-5.5,12.2-12.3C-1375.8,1031.6-1381.2,1026.1-1388,1026.1z M-1316.1,1029.5
						c0.5,2,1.3,16.1,0,16.3c-4.5,0-8.1-3.7-8.1-8.2C-1324.2,1033.1-1320.6,1029.5-1316.1,1029.5z M-1388,1030.2
						c4.5,0,8.1,3.6,8.1,8.1s-3.6,8.2-8.1,8.2C-1389.1,1044.6-1390.9,1030.5-1388,1030.2z M-1640.2,1034.1c-1.2,0.5-2.9,0.2-4.2,0.2
						c-4.3,0-9.5-3-10.7-2.4c-1.3,0.6-0.9,3.4-0.8,4.7c0.1,1.2,3.4,1.5,4.7,2.4c2.1,1.4,1.6,1.9-0.9,2.5c-2.2,0.5-3.9,0.6-5.3,2.6
						c-0.9,1.2-0.9,3.3,0.5,3.3c8.5-0.1,19.3-3.6,29.4-0.2c5.8,2.1,9.6,3.4,10.5,2.6c1.9-1.7-4.9-8.2-11.4-9.4
						c-6.6-1.2-8.9-0.7-6.8-2.7c1.1-1,2.6-0.6,2.7-1.3c0.3-2-1.2-4.1-3-4.4C-1637.3,1031.6-1638.8,1033.6-1640.2,1034.1
						L-1640.2,1034.1z M-1603.7,1054.5c-0.7,0-1.7,0.5-3,1.6c-3.9,2.6-9.9,6-24.6,2c-8-2.6-17.1-0.3-22.3,1.1
						c-4.1,1.2-10,2.3-14.6,0.1c-4.6-2.2-9.6-5.5-8.7-2.1c0.2,0.9,0.5,5.9,0.6,8.9c0.1,7.1,0.6,12.9,5.7,7.4
						c2.2-2.4,4.9-2.4,9.9-0.4c3.6,1.4,6,2.3,8.8,0.5c3.9-2.5,7.3-3.2,14.5-0.7c3.4,1.2,7,1.3,11.3-1.4c7.2-4.4,11.7-0.1,14.5,4.4
						c2.2,3.6,3.3-1.5,7.3-12.2C-1602.3,1058.8-1601.6,1054.5-1603.7,1054.5z M-1638.1,1094c-3.9,2.2-9.4,2.9-13.3,5.5
						c-8.4,5.8-0.5,10.6,5.3,9.4c2.4-0.5,5.2-1.7,8.2-3.8c10.5-7,16.3-6,17.3,2.5c1.1,9.1-13,13.2-11.7,17.5c1.8,2.8,8.6-1,12.8-6.8
						C-1606.9,1101.4-1620.7,1084.2-1638.1,1094z M-1583.7,1141.9c-14.3,1.6-35.7,8.5-46.5,16.6c-8.5,6.6-10.8,8.2-7.2,10.9
						c3.3,2.4,5.8,2.5,1.3,7.1c-1.6,1.6-4.3,5.1-4.3,5.7c0.1,3.3,20.2,13.1,31.7,14.6c8.9,1.2,23.3-0.2,31.1-3.3
						c10.2-4.1,10.6-6.9,0.9-4.1c-7.5,2.2-16.6,3.9-25.6,3.2c-8.1-0.6-16-3-21-4.8c-12.4-4.4-10.2-9.6,2.3-5.2
						c14.4,6.2,33,6.1,49.5-1.4c6.7-3,8.5-5.4,9.7-4.4c0.3,0.3,1,1.9,1.2,2.4c0.4,1.1,0.5-2.8,1.1-9c0.5-5.1,1-12,1-12s-1,2.9-1,4.3
						c0.1,9-4.2,9-16.6,2.2c-14.5-8-21.6-7.2-35.3-7.1c-6,0-6.3-1.7,2.2-4.5c4-1.3,10.3-3.5,19.5-6.4
						C-1582.1,1144.3-1580.1,1141.5-1583.7,1141.9z M-1693,1160.1c5.3,0,10,4.5,11.3,13.1l-5.2-0.4c-1.7-12.9-11.1-10-14.8-2.3
						l-4.6,0.1C-1702.7,1163.5-1697.6,1160.1-1693,1160.1z M-1679.7,1160.9c2.1-0.2,12,4.6,12.6,6.1c0.7,1.6-3.1,3.4-6.4,4.3
						c-3.8,1.1-3,1.3-4.2-1C-1679.3,1167.2-1682.2,1161-1679.7,1160.9z M-1704.9,1161.5c0.1,1.4-2.9,6.5-5.1,7.1
						c-2.6,0.8-4.6-2.6-2.5-4.4C-1710.5,1163.3-1705.3,1159.5-1704.9,1161.5z M-1603.2,1162.2c6.6-0.3,12.8,6.4,13.3,14.4l-3.3-0.1
						c-3.1-16.5-15.8-12.8-18.7-1l-4-1.1C-1612.5,1165.8-1607.8,1162.4-1603.2,1162.2z M-1616.3,1163.3c1.8-0.1,1.6,1.4-0.6,5.8
						c-1,2.1-1.8,3.2-3.6,3.2c-2.5-0.4-4.1-1.2-5.3-3.1c-0.9-1.9,1.1-3.4,5.4-4.8C-1618.4,1163.8-1617.1,1163.4-1616.3,1163.3z
						 M-1588.3,1164.6c1.2,0,3.3,0.8,6.6,2.2c8.5,3.8,9.5,5.3,5.1,7.5c-2,0.9-3.6,1.7-5,2.1c-4,1.3-3.9-0.9-5-3.7
						c-0.6-1.6-1.3-3-2.1-4.6C-1589.7,1165.7-1589.8,1164.6-1588.3,1164.6z M-1713.4,1178.6c1.4,0,4.5,1.9,10.7,4.1
						c8.9,3.2,17.8,2,29.6-1.8c4.9-1.5,6.5-2.5,4.6,0.3c-1.5,2.2-9.8,6.3-16.5,8c-12.7,3.1-29.4-2.8-29.4-9.3
						C-1714.3,1179-1714,1178.6-1713.4,1178.6L-1713.4,1178.6z M-1671.5,1189.2c1.3,0,0,2-2.7,4.9c-4.2,4.6-10.5,7.8-17,9
						c-13.6,2.4-24.9-1.3-25-8.9c-0.1-5.5,0.9-5.6,7.6-2.1c5.7,2.9,18.5,3.7,28.9,0.3c3.4-0.9,6.9-3,7.5-3.1
						C-1671.9,1189.3-1671.7,1189.2-1671.5,1189.2z M-1566.8,1196.6c-10.3,2.7-21.3,5.5-31.3,7.4c-10.7,2.1-26.4,0.2-34.6-3.8
						c-6-3-8.2-1.2-5.5,4.5c1.7,3.8,4.4,7.7,12.1,10.4c11.3,3.9,37.6-2.4,57.2-12.6C-1557.5,1197.5-1559.7,1194.4-1566.8,1196.6z
						 M-1737,1274.3l17.6-30c119.4,23.1,248.6,6.3,288.1,0.9c0,0,43.2,71.4,58.7,96.5c1.5,2.7,5.5,11.7,5.5,11.7l-407.6-0.3
						c5.7-11.5,11.1-26.3,11.1-26.3c-12.5-5-22.1-23.6-28.1-39.3c-5.2-13.8-14.3-47.4-26.3-63.8
						C-1797.1,1211.7-1744.5,1238.2-1737,1274.3z"/>
					<path id="path3302-0-9-2" fill="#D40000" d="M-1370.5,1350l-403.7,0l52.6-105.1c98.1,14.9,194.9,13,290.6-2.1L-1370.5,1350
						L-1370.5,1350z M-1922.5,1264.8l-0.8-50.4l52.3,1.2L-1922.5,1264.8z M-1481,925.8l0.6-153c20.9,14.7,41.7,29.5,63.2,41.1
						l-0.8,158.3L-1481,925.8z M-1657,892.3c-3.7-86.5-16.3-120.3-24.5-164.2l74.9-48.4l0.2,177.6L-1657,892.3z M-1861.7,740.6
						l0.4-213.1c68.8,99,112.3,199.5,124.3,335.2c-18.7,7.5-37,15.9-56.2,22.6C-1812.8,831.8-1836.2,783.9-1861.7,740.6z
						 M-1164.9,828.3c-63.6-80.8-101.5-188.5-121.5-321.1l58.2-28.3c19.3,46.8,38.9,96.6,63.4,135.4L-1164.9,828.3z M-1413.4,685.4
						l0.2-178.2l49.7-32.3c3.1,62.6,13,121.2,24.5,164.5L-1413.4,685.4z M-1544.2,591.6c-18.4-13.8-37.5-26.6-58.8-36.2l3.1-158.1
						l56.1,43.2L-1544.2,591.6z M-1149.8,146.2c0,0,35-35.5,48-47.1l0.3,48.3L-1149.8,146.2z M-1590.5,123.2l-65.3-111.4l409-3.4
						l-52.6,112.1C-1407.6,100.7-1500.3,109.7-1590.5,123.2z"/>
					<path id="path3300-3-9-0" d="M-1403,1124.8c0.9,0.3,13.6-8.3,20.1-20.9c7.1-13.9,0.7-27.6,2.8-27.7c13.1,3.9,9.3,28.8,4.8,36.5
						c-3.9,6.7-11.2,11.2-18.9,12.5C-1401.7,1126.5-1403,1124.8-1403,1124.8z M-1381.7,1070.4c-2.6,0-3.8-0.4-5.5-2.2
						c-2.4-2.5-5.3-4.2-6.8-3.9c-2.1,0.3-3-0.1-3-1.2c0-0.9,0.9-1.1,4.3-0.7c2.1,0.2,6.4-3.1,6.4-3.1l0-235.2
						c18.5,7.7,46.1,12.1,67.4,14.6l1.4,209.6c0,0,31.2-16.3,42.5-22.8l0.4-187.6l22.1-2.4l-34.9-70.8c-4.9,3.8-73.5-2.6-90.6-13.8
						l62.6-39.1c-6.4-19.4-12.1-37.9-17.5-57.6c-0.2-0.6-1.3-0.5-1.5-1.1c-1.3-4.8-2.2-7-3.4-11.8c-0.2-0.9,0.1-2.4-0.1-3.3
						c-13.5-46.5-22.7-108-24.6-163.2c0.2-0.5,2.2-0.1,2.2-0.1l-0.4-33.7l-2.2,1.5l0.2-15.2l2.3-2.2c0.1-3,0.3-8.5,0.3-8.5l-2.9-1.8
						l1.5-25.5l3-0.4l1.6-40.4l-79.3,51.3c0,0-51.7-37-74.4-56.3c24.9-16.9,31.5-49.9,37.7-77.3c6.3-27.1,8.4-49.5,10.2-72.2
						c2-25,6.1-57,9.4-72.7c2-9.5,1.9-10.6-0.9-10.7c-1-0.1,0-0.4,2.2-0.7c50.8-2,105.4,5.5,153.9,11.8c0,0,12-22.3,16.2-30.6
						c0,0,2.4,7.6,5,12.8c5.9,11.1,19.3,23,30.8,29.4c4.3,2.8,16.6,7,25,8.4c4.9,0.8,12.8-0.7,18.7-3.1c2-0.8,3.6-1.9,3.6-3
						c0-1.1-1.6-2.1-3.6-4.1c-1.7-1.6-4-4.8-5.1-7.1c-3.5-7.1-8.9-19.2-11.9-30.4c-8.5-22.3-14.7-49.3-34.1-61.2l13.4-26.8
						l-421.9,0.1l65.3,110c0,0,2,3.3,2.6,4.4c1.9,3.5,2.7,3,2.7,3c-4.2,38.4-10.3,76.3-18.3,113.5c0,0-0.8-3-13.2-2.8
						c-36.3,0.5-49,40.8-18.6,58.7c2.9,1.7,7.7,5,12.5,7.5c1.4,0.7,18.8,10.9,18.8,10.9l-20.8-9.4l-1.5,242c0,0-43.5-13.1-72.1-14.3
						l0.3-209.8l-40,21.6l-1.8,187.6l-21.9,1.4c0,0,8.3,17.7,10.2,21.4c3.7,7.4,13,24,19.4,34.4c2.3,3.7,7.5,11.9,7.5,11.9
						c29.2,0.8,59.1,5.2,86.3,17.2l-62.9,40.9c26.3,74,59,182.3,40.8,357.1l4.4-2.8l1.2-18.8l78.3-53.9l96.6,77.8c0,0-7-0.2-8.6-0.3
						c-24.6-0.9-42,24.3-47.9,45.3c-10.5,37.1-11.9,46.2-16.7,105c-1.9,23.2-6.5,45.7-11.2,67.8c-2.5,11.1-2.1,12.2-2.1,12.2
						c49.1,1.6,100.4-3.6,138.9-12.1c0,0,16.2-77.1,22-109.8c5.5,3.1,10.3,4.5,15.3,4.4C-1358.8,1124.1-1362.1,1071.8-1381.7,1070.4
						z M-1551.3,13.5l20,70l-48.9,4.5l-40.6-74L-1551.3,13.5z M-1250.7,12.5l-50.3,106.6c-105.4-14.8-166.3-16.2-288.7,1.1
						l-63.6-106.3l16.7-0.1l48,84.9l71.3-7.1l-19.7-77.7l18.8-0.6l19.5,76.2l110.3-0.6c3.6-25.5,10.5-75.5,10.5-75.5l20.4,0.2
						l-13.6,77.2l65.1,8.2l37.6-86.3L-1250.7,12.5z M-1392.1,13.5l-6.4,64.8l-91.2,0.7l-14.6-65.6L-1392.1,13.5z M-1281.6,12.2
						l-31,77l-45.1-6l12.3-69.9L-1281.6,12.2z M-1225.9,87.7c2,6.6,4,13,4.5,14.3c7.4,20,10.4,26.5,15.2,33.2c0.8,1.1,1,1-0.1,1.9
						c-22.2,10.8-62.2-15.8-71.9-40.2c1.2-2.4,6.6-12.3,6.6-12.3c2.8,5.5,0.7,10.9,2.5,15.8c0.4,2.1,5-14.1,5-14.1s4.4,7.2,5,21
						c0.1,2.1,5.8-9.3,5.8-9.3c7.1,9.6,6.7,26.3,6.7,26.3c8-9.8,3-15.3,15.4,9.5c1.4-2.6,0.7-5.3,2.6-4.6c5.5,2.1,13.1,5.9,15.9,5.2
						c-3.6-4.6-10.7-7-12.6-13c0,0,5.6,0.5,6,0.2c-6.3-3.5-12.4-6.4-17.2-13.1c1.4-0.5,7.2,0.5,6.9-0.2c-8.6-7.8-21.5-14-2.8-12.3
						c-12.1-8.5-25.6-14.4-4.6-13.8c-15-7.1-19.1-11.5-16.3-12.7c1.6-0.7,6.1,2,13.2-0.3c-12.1-4.9-17-7.2-17.5-8.8
						c-0.6-2,5.1-3,9.1-7.3c0,0-4.9,1.1-7-1.2c0,0,2.4-6.8,4.2-10.7C-1235.9,55.2-1229.9,75-1225.9,87.7L-1225.9,87.7z
						 M-1096.5,60.6c0,0-67.9,73.1-101.5,109.4l32.8,0.5l1.5,198c11.4,1.5,31.3,0,38.8,7.6c4.7,6.9-13.4,20.5-23.6,17.6
						c-6.8-1.8-15.1-0.4-15.1-0.4l0.7,220.7c-21.7-40.2-38.2-65.7-62.2-135.5c7-4.8,14.1-8.6,15.3-9.4c-9.2-22.2-15.6-57.2-2.7-87.7
						l8.9,5.3c-6.5,18.6-8.9,46.1,1.7,71.5l2.4-2.6c0,0-2.6-5.1-4.3-10.7c-1.5-5-3.7-11.4-3.7-18.1c-0.4-11.8-0.1-22,2.7-31.4
						c1-3.1,2.3-7.7,3.1-9.1c0.7-1.4,1.4-2.7,1.4-3.1c-26.1-10.6-44.8-26.1-67.4-37.1c-0.9-0.4-1.6-0.8-2.1-1.1
						c-2.9-1.6-2.1-2.1,2.4-3.9c9.4-3.7,13.2-8.3,13-17.4c-0.3-13-7.2-18-22.4-17.2c-5.5,0.3-5.9,0.2-6.8-1.6
						c-2.3-4.4-10.2-21.9-10.2-22.6c0-0.4-1.7-4.4-3.7-8.8c-3.1-7-6.7-14.3-8.2-21.6c-0.7-3.6-2.9-5.1-3.4-1.3
						c-4,27.9-7.7,42.7-14.9,59.5c-2.1,5-3.8,9.2-3.6,9.3c0.7,0.6,12.8,6.2,18.4,8.5c22,9.1,32.1,14.7,28.7,16
						c-2.4,0.9-3.2,2.6-3.8,7.3c-1.6,12.3-1.4,18.6,0.7,22.5c2.2,4.1,2.1,4.4-1.4,6.7c-3.1,2-2.4,2-3.2,12.3
						c-1,12.2-0.3,19.9-0.3,19.9l5.5,7.1l-5.6,7l-1.3,31.9l7.5,5.7l-7.1,7l2.5,29.1c0,0-0.9,2.7-2.1,4
						c11.9,123.1,58.1,247.2,127.2,331.8l0.7,202.3l67.8,67.8L-1096.5,60.6z M-1101.8,73.6v15.9l-57.5,62l57.5,1V166l-88.3-0.2
						L-1101.8,73.6z M-1102.7,100.7l0.2,44.7l-43,0.1L-1102.7,100.7z M-1497.3,123.2l9-0.4c-0.3,9-3.9,50.6-8.2,87
						c-4.8,41-14.6,76.4-16.5,76.4l-8.7-5.3C-1507.3,233.9-1503.5,173.3-1497.3,123.2z M-1456.6,121.9c-1.3,25.4-6.6,43.2-8.2,73.2
						c-2,36.7-8.3,82.4-24.8,120.3c-5.6,12.8-15.8,24.7-30.2,30.4c-25.3,9.9-46.7-21.4-29.6-44.4c13.5-18.2,34.6-18,41,0.4
						c5.3,15.2-11.7,34.3-25.3,28.4c-9.4-4.1-7-21.1,3.6-25.1c4.4-1.7,8.1,3.9,6,8.9c-1.7,3.9-1.9,6.4,0.4,4.7
						c9.6-6.8,2.4-22.9-9.5-16.9c-15.9,8-13.2,31.7,2.8,32.7c20.3,2,35.9-23,45.9-70.3c11-53,8.2-100.5,18.8-142.1L-1456.6,121.9z
						 M-1482.5,122.8l10.6-0.3c-0.8,3.9-1,8.1-1.7,13c-4.2,27.8-6.7,68.4-11,100.2c-6.1,44.9-17,72.2-17.2,68.9
						c-1.2-5.4-4.7-9.9-7.3-14.2c11-29.9,15.4-57,18.2-82.6C-1487.5,177.8-1486.6,150.1-1482.5,122.8z M-1528,125.4l9.4-0.5
						c-3.6,59.5-12.4,113.5-17.5,136.7c-1.6,7-2.1,10-3.5,10.6c-1.5,0.6-3.9-1.7-9.9-5C-1540.4,268.4-1533.2,165.9-1528,125.4z
						 M-1513.4,124.5l10.1-1c-1.5,21.5-5.1,55.4-9.2,85.9c-4.9,36.9-11.4,69.6-14.6,69.1l-8.5-2.9
						C-1529.8,277.3-1515.9,167.3-1513.4,124.5z M-1532.7,125.5c-6.6,45.1-7.3,97.7-21,139.8l-9.5-4.4c2.6,0.8,9.4-27.4,11.6-59.3
						c2-27.8,7-58.1,8.5-74.8L-1532.7,125.5z M-1548.3,127.2c-3.8,15.9-3.8,39.4-6.6,58.9c-3.5,24.2-7.2,73.4-12.8,72.3l-9.7-4.9
						c5.1,1.5,14-91.7,19.4-124.8L-1548.3,127.2z M-1573.9,131.2l9.8-1.3c-4.7,36.4-13.3,121.2-18.4,121.9l-9.2-4.9
						C-1588,231.9-1578.9,181.2-1573.9,131.2z M-1580,132.6c-4.1,40-7.9,80.5-16.4,111.6l-10.1-4.6c0,0,7-34.2,10.3-58.2
						c3.3-23.7,3.8-27.1,4.8-33.3c2.3-13.6,2.9-14.1,2.9-14.1L-1580,132.6z M-1147.4,173.6l-1,192.1l-11.2-0.4l0.5-191.9
						L-1147.4,173.6z M-1120.9,175.1c4.2,0,7.7,3.4,7.7,7.6c0,4.2-3.4,7.7-7.7,7.7c-4.2,0-7.6-3.5-7.6-7.7
						C-1128.6,178.5-1125.1,175.1-1120.9,175.1z M-1301.3,245.6c7.9,14.5,14,19.8,21,22.6c12.6,5,30-7.3,23.7-24.6
						c-3.3-9.1-11.8-10.4-22.5-8.6c0,0-4.6-3.3-10-19.7c-6.4-19.5-16.5-39.5-16.5-39.5C-1306.3,200.2-1312,225.6-1301.3,245.6z
						 M-1109.6,192.9c4.2,0,7.7,3.4,7.7,7.6c0,4.2-3.4,7.6-7.7,7.6s-7.6-3.4-7.6-7.6C-1117.2,196.3-1113.8,192.9-1109.6,192.9z
						 M-1130.6,193.2c4.2,0,7.6,3.4,7.6,7.6c0,4.2-3.4,7.7-7.6,7.7c-4.2,0-7.7-3.4-7.7-7.7C-1138.3,196.6-1134.8,193.2-1130.6,193.2
						z M-1302.2,191.4c7.1,14.7,8.6,25.8,15.5,39.2c3,5.8,5.7,10.8,5.7,10.8c22.5-10.6,31.2,16.1,12.9,24.6
						c-18,8.4-38.2-23.4-36.2-57.7C-1303.8,198.8-1302.2,191.4-1302.2,191.4z M-1120.5,211.3c4.2,0,7.7,3.4,7.7,7.6
						c0,4.2-3.4,7.7-7.7,7.7s-7.6-3.5-7.6-7.7C-1128.2,214.7-1124.7,211.3-1120.5,211.3z M-1100.2,225.6V242l-40,38.8V265
						L-1100.2,225.6z M-1626.1,238.2c7.6,0.1,11.3,2.4,6.2,4.4c-16.8,6.7-24.3,17.3-25.2,35.9c0,9.4,1.1,10.6-4.7,5.4
						C-1664.5,263.2-1643.3,238.1-1626.1,238.2z M-1612.1,244.9c1.9-0.1,3.7,0.2,5.6,0.8c4.5,1.4,2.8,1.5-4.7,6.5
						c-14.5,9.6-18.9,19-19.5,38.2c-0.2,2.9,0.4,5.3,0.2,6.5c-0.2,0.9-1.3,0.6-2,0.6c-2.8-0.5-4.5-3.4-5.3-5.8
						C-1647,273.4-1630.1,245.6-1612.1,244.9z M-1596.4,251.3c1.2,0,2.3,0.2,3.2,0.6c3.5,1.8,2.2,2-4.2,6.6
						c-11.5,8.2-17.2,20.2-18.5,33.7c-0.9,8.6,5.8,18.9-6,10.4c-8.3-6.9-6.6-24.7,2.2-37C-1614.4,258.1-1603.2,251.4-1596.4,251.3z
						 M-1100.2,247.6v18.6l-40,38v-19.1L-1100.2,247.6z M-1583.6,257.3c4.5,0.1,6.6,3,1.3,6.3c-13,8.1-20.7,23.7-20,39.9
						c0.7,9.8,1.1,11.6-5.1,5.1c-10.1-10.4-3-38.7,16.5-49.3C-1588.2,257.8-1585.7,257.3-1583.6,257.3z M-1570.3,262.7
						c7.5-0.2,8.5,3.6,1.8,8.2c-12.7,8.9-21.2,24.5-21,38.8c0.1,6.6-0.4,7.4-3.3,5.2c-14.7-11.2,1.1-50.4,21-52.1
						C-1571.4,262.8-1570.8,262.7-1570.3,262.7z M-1307.3,263.9c1.8,0.1,5.1,6.6,10.2,20.2c4.9,13.1,12.9,29.5,14.6,30.1
						c0.5,0.2,2.8-0.6,5-1.8c16.8-8.8,28.6,16.2,12.1,25.5c-11.8,6.6-22.9-0.5-33.1-21.2c-12.1-24.4-15.4-42.5-9.5-52.3
						C-1307.9,264.1-1307.7,263.9-1307.3,263.9z M-1556.7,270.6c2-0.1,4,0.3,5.8,1.2c4.3,2.2,3.7,3.9-3,7.8
						c-6.9,4-9.6,6.6-13.5,12.5c-6.2,9.3-7.2,12.9-7.2,24.9c0,9.8-2.9,10.3-8.7,1.6C-1593.4,303.7-1573.2,271.3-1556.7,270.6z
						 M-1539.9,279.4c6.6-0.1,10.9,2.5,4.6,5.9c-20.1,10.6-28.5,25.8-24.7,44.5c1.2,5.9-5.5,0.9-9.6-7.1c-6-11.7,5-34.3,20-41.1
						C-1546.4,280.1-1542.9,279.4-1539.9,279.4L-1539.9,279.4z M-1313.6,296.6c1.3,0.1,2.7,3.4,5.9,11.7c2.1,5.4,4.9,11.8,6.2,14.2
						c1.3,2.5,2.3,4.8,2.1,5.2c-1.1,1.9-10.4-1.3-13.6-4.7c-4.8-5.2-6.4-16.8-3.1-23.4C-1315,297.6-1314.3,296.5-1313.6,296.6z
						 M-1120.9,310.7c4.2,0,7.6,3.4,7.6,7.6s-3.4,7.7-7.6,7.7c-4.2,0-7.6-3.4-7.6-7.7S-1125.1,310.7-1120.9,310.7z M-1906.1,323.1
						c4.2,0,7.6,3.4,7.6,7.7c0,4.2-3.4,7.6-7.6,7.6c-4.2,0-7.7-3.4-7.7-7.6C-1913.7,326.5-1910.3,323.1-1906.1,323.1z
						 M-1589.8,325.4c8.4-0.3,10.9,3.7,12.4,16.3c1,8.7,2.8,9.5,16.5,7.2c14.5-2.4,19.3,1.5,20.3,16.5c0.8,11.9,0.7,11.8,17.2,11.9
						c16.2,0.1,17.9,1.7,19.8,18.3c1.4,12.3,0.9,12,16.9,11.8c17.7-0.2,19.2,1.1,20.4,16.7c1,12.7,1.8,13.5,13,12.6
						c10.9-0.9,31.1-1,34.8-0.2c9.4,2,9.8,1.7,11.8-11c2.7-16.7,6-18.8,26.4-16.7c10.1,1,11.2,0.8,12.7-8.1c1.9-11.8,4.3-15.3,4.3-5
						c0,25.9-1.8,27.1-19,22.5c-13-3.5-13.2-0.8-14.5,11.7c-1.2,11-3.1,15.5-7.1,17.3c-3.1,1.4-13.7,0.2-18-1
						c-1.6-0.5-11.7-0.7-23.6-0.6c-28.7,0.3-29,0.4-29-19.8c0-8.5-1.9-10.3-16.9-9.9c-18.9,0.6-17.9,1.1-21.1-21.6
						c-1.1-7.9-1.7-8.2-17.3-7.9c-17,0.2-20.9,0.5-19.9-13.8c0.9-13-2.3-16.5-16.4-13.1c-15.1,3.5-18-2.9-19.5-14.5
						c-1.4-10.8-2.3-8.1-9.5-8.7c-8-0.6-7.1-9.6,1.4-10.4C-1592.3,325.6-1591,325.4-1589.8,325.4L-1589.8,325.4z M-1109.1,329.3
						c4.2,0,7.6,3.4,7.6,7.7c0,4.2-3.4,7.6-7.6,7.6c-4.2,0-7.6-3.4-7.6-7.6C-1116.7,332.7-1113.3,329.3-1109.1,329.3z
						 M-1130.6,329.7c4.2,0,7.6,3.4,7.6,7.7s-3.4,7.6-7.6,7.6s-7.6-3.4-7.6-7.6S-1134.9,329.7-1130.6,329.7z M-1894.6,342.5
						c4.2,0,7.7,3.4,7.7,7.6c0,4.2-3.5,7.6-7.7,7.6c-4.2,0-7.6-3.4-7.6-7.6C-1902.3,345.9-1898.8,342.5-1894.6,342.5z
						 M-1916.1,342.6c4.2,0,7.7,3.4,7.7,7.6c0,4.2-3.4,7.6-7.7,7.6c-4.2,0-7.6-3.4-7.6-7.6C-1923.8,346-1920.3,342.6-1916.1,342.6z
						 M-1516.1,349.1l79.6,59.4l75.3-50.4l-0.5,18.4l-74.8,49.7c0,0-63.7-49.3-94.4-73.1L-1516.1,349.1z M-1119.9,350
						c4.2,0,7.6,3.5,7.6,7.7c0,4.2-3.4,7.7-7.6,7.7s-7.6-3.4-7.6-7.7C-1127.6,353.5-1124.1,350-1119.9,350z M-1250.3,360.1
						l18.9,30.7l-18.8,13.7l17.2,21.9l-18.5,19l20.3,12.9l-19,26.5l-26.3,11.7l26.3-34.6l-21.8-15l20.7-22.3l-18.5-24.3l19.2-15
						l-20.8-34l1.4-1.6L-1250.3,360.1z M-1599.2,353.3l139.8,104.6c0,0,12.9,9.7,16.6,12.1c7.9,5,9.4,3,17.3-2.4
						c17.7-10.5,60.4-39.6,60.4-39.6l-0.3,15.1c0,0-43,32.2-66.8,45.5c-3.4,1.9-7,0.1-9.5-1.8c-51.9-41.1-105.1-81-157.7-121.3
						L-1599.2,353.3z M-1277.9,354.9c0.6,1.1,2.5,1.4,3.4,2.8c6.2,9.6,17.4,26.6,17.4,26.6l-19.7,15.6l18.1,23.7l-22.6,22.9l23,15.7
						c0,0-14.3,21.9-25.1,31.9l-0.3-17l9.2-11.1l-10.6-7.3l0-23.4l10.8-11.4l-9.9-10l1.8-25.6l9.4-7.5l-7.8-10.6L-1277.9,354.9z
						 M-1905.8,360.2c4.2,0,7.7,3.4,7.7,7.6c0,4.2-3.4,7.6-7.7,7.6s-7.7-3.4-7.7-7.6C-1913.5,363.6-1910.1,360.2-1905.8,360.2z
						 M-1101.8,388.1l-38.9,36v-16.3l38.9-38.2V388.1z M-1883.6,370.5v19.7l-41.5,38.4v-19L-1883.6,370.5z M-1101.8,393.1v19.6
						l-38.9,36.6v-19.4L-1101.8,393.1z M-1147.5,396.2l0.8,635.9l45.2,47.8l0,15.9l-57.2-59.2l-1.3-639.8L-1147.5,396.2z
						 M-1883.6,394.3v22.1l-41.5,37.9v-20.8L-1883.6,394.3z M-1599.4,398.4l54.9,42.8l-0.2,149.1c-22.3-16.7-40.1-26.7-57-35.2
						L-1599.4,398.4z M-1119.9,446.6c4.2,0,7.6,3.4,7.6,7.6c0,4.2-3.4,7.7-7.6,7.7c-4.2,0-7.7-3.4-7.7-7.7
						C-1127.5,450-1124.1,446.6-1119.9,446.6z M-1527.9,453.9l0.2,152.2l-10.8-9.9l-0.6-150.9L-1527.9,453.9z M-1903.1,455.3
						c4.2,0,7.6,3.4,7.6,7.6c0,4.2-3.4,7.7-7.6,7.7c-4.2,0-7.7-3.4-7.7-7.7C-1910.8,458.8-1907.3,455.3-1903.1,455.3z
						 M-1109.6,466.2c4.2,0,7.6,3.4,7.6,7.6c0,4.2-3.4,7.7-7.6,7.7c-4.2,0-7.6-3.4-7.6-7.7C-1117.3,469.6-1113.9,466.2-1109.6,466.2
						z M-1131.4,467.1c4.2,0,7.6,3.4,7.6,7.6c0,4.2-3.4,7.6-7.6,7.6c-4.2,0-7.7-3.4-7.7-7.6
						C-1139.1,470.6-1135.7,467.1-1131.4,467.1z M-1521.7,466.4l33.5,31.3l-34.5,32.8l-0.3-15.1l19.2-18.5l-19.3-20L-1521.7,466.4z
						 M-1509,469.2l27.9,20.6l-4.4,5.3L-1509,469.2z M-1891.8,473.8c4.2,0,7.7,3.4,7.7,7.6c0,4.2-3.4,7.6-7.7,7.6
						c-4.2,0-7.6-3.4-7.6-7.6C-1899.4,477.2-1896,473.8-1891.8,473.8z M-1914.2,474.2c4.2,0,7.7,3.4,7.7,7.7c0,4.2-3.4,7.7-7.7,7.7
						c-4.2,0-7.6-3.4-7.6-7.7C-1921.9,477.6-1918.4,474.2-1914.2,474.2z M-1364.9,476.9c5.4,60.9,9.1,103,24.8,160.4l-72.3,46.2
						l0.7-176.3L-1364.9,476.9z M-1165.7,616.2l-0.3,209.1c-68.2-97.1-105-210.6-116.9-318.1c0,0,36.6-16.9,54.4-27.2
						C-1209.6,524.1-1217.7,524-1165.7,616.2z M-1118.9,485.8c4.2,0,7.6,3.4,7.6,7.7s-3.4,7.6-7.6,7.6c-4.2,0-7.6-3.4-7.6-7.6
						S-1123.2,485.8-1118.9,485.8z M-1902.8,494c4.2,0,7.6,3.4,7.6,7.6c0,4.2-3.4,7.7-7.6,7.7c-4.2,0-7.6-3.4-7.6-7.7
						C-1910.5,497.4-1907,494-1902.8,494z M-1476.3,493.3l26.6,20.3l0.1,15.4l-31.8-30.5L-1476.3,493.3z M-1485.4,501.4l33.2,32.8
						L-1487,569l-34.3-32.5L-1485.4,501.4z M-1235.4,502.6l-32,13.1c12.2,110.9,44,194.1,86.9,261.5l1-155.6
						C-1201.7,586.6-1218.4,544.4-1235.4,502.6z M-1100.8,504.9v17.5l-39.8,36.5v-17.4L-1100.8,504.9z M-1485.4,514.5l-21.2,20.6
						l21.3,20.6l20.5-20.6L-1485.4,514.5z M-1883.6,512.2v18.6l-39.6,38.2v-19.7L-1883.6,512.2z M-1438.2,522.6l0.3,177.6l-8.8,4.2
						l0.6-185.5L-1438.2,522.6z M-1485.8,525.3l9.6,9.7l-10,10.1l-9.5-9.7L-1485.8,525.3z M-1100.8,527.1v20.1l-39.8,37.2l-0.7-19.2
						L-1100.8,527.1z M-1541.7,602.6c41.1,35.6,72.7,89.6,107.4,119.8c14,12.2,48.3,31.1,66.9,37c21,6.6,37.4,9.3,58.5,9.7
						c16.7,0.3,16.8,0.4,16.8,0.4l7.1,12.6l-11.7-0.2l-0.8,44.3c12.4,0.6,24.5-0.1,36.4-1.6l4.3,8.1
						c-85.1,11.5-168.2-20.7-218.2-61.9c-22.8-18.7-41.3-41.6-63.9-75c-43.4-67.7-119.9-100.4-191.1-101.2l-5.9-9.2l11.9,0.4
						c0,0,1.2-8.5,1.4-23c0.2-16.3,0.1-19.2-1.2-19.6c-8.6-1-34.6-0.5-33.9,0.6l-5.3-9.6C-1678.1,525.6-1594.6,555.1-1541.7,602.6
						L-1541.7,602.6z M-1883.6,535.7V554l-39.6,37.3V573L-1883.6,535.7z M-1448.8,537.3l-1,16.3l-18.9,18.6l20.1,19.5l-0.5,13.6
						l-35.4-32.8L-1448.8,537.3z M-1707.2,543.1c-1.8,0-2.9,0.2-3.1,0.5c-0.5,0.8-0.2,7.8-1.8,33.1c-0.6,9.3-1.2,9.3,6.6,10.2
						c6.5,0.2,21.1,4,30.8,5.1c8.2,1.1,6.5-1.4,8.8-8c2.5-7.2,3.9-13.5,7-23.7c2.9-9.3,1.5-9.7-16.9-13.1
						C-1688.5,544.9-1701.7,543.1-1707.2,543.1z M-1523.2,541.5l32,32l-31.5,32l-0.6-15.5c6.1-5.4,13.3-11.6,18.7-17.7l-18.6-19
						L-1523.2,541.5z M-1683.7,551.9l3.4,5.7l8.2,1.4l-1.4,5.7l4.2,5.9l-5.2,3.9l0.2,7.2l-6.5-0.2l-5.6,4l-4.4-5.6l-6.5-0.2l0.3-8
						l-4.2-3.5l5-4.5l-0.7-7.1l8,1.3L-1683.7,551.9z M-1735.7,561.5l5.1,3.3l-5.2,3.6l-0.2,5.5l-3.2,2.7l-11.6-22.7l7.6,3.1l5.8-3.8
						L-1735.7,561.5z M-1642.5,556.3c-4.1,0.1-4.6,7.6-9,21.8c-6.1,19.8-6.6,18,5.2,22.1c5.2,1.8,15.3,5.2,20.6,7.7
						c12.9,6.1,13,6.1,17.8-2.2c2.1-3.7,6.2-12.7,9-17.3c7.1-11.6,7.3-11.1-5.7-17.4c-7.7-3.7-12.3-5.2-28.4-11.7
						C-1637.5,557.5-1640.4,556.2-1642.5,556.3z M-1629.6,569.4l5.7,3.5l6.3-2.6l1.3,6.8l6.9,2.7l-2,6.7l3.1,5l-5.9,1.1l-4.3,9.3
						l-6.5-4.6l-6.9,2.5l-1.9-5.1l-7.1-3.4l2.6-5.6l-3.5-7.6l8.1-0.6L-1629.6,569.4z M-1487.7,576.4l35.3,34.6l-32.2,32.2
						l-35.3-34.7L-1487.7,576.4z M-1119,582.7c4.2,0,7.7,3.4,7.7,7.7c0,4.2-3.4,7.6-7.7,7.6c-4.2,0-7.6-3.4-7.6-7.6
						C-1126.6,586.1-1123.2,582.7-1119,582.7z M-1582,584.4c-2.1,0-3.2,1.9-5,5.6c-0.7,1.5-5.1,9.7-9.1,16
						c-9.1,14.2-9.1,13.5,0,19.1c3.8,2.4,12.7,9.7,20.3,16.5c7,6.4,6.3,4.9,21.4-10.3c9.9-9.9,16-12.7,12.1-17.9
						c-9.4-8-17.1-13.9-27.2-21.6C-1576.2,586.7-1579.7,584.4-1582,584.4z M-1486,588.3l-20.8,20.4l23.5,21.3l19.5-20L-1486,588.3z
						 M-1843,581.3l0.2,159.8c22.9,39.2,46.5,78.7,58.7,122.8l33.6-16.5C-1766.6,716.9-1804,644.6-1843,581.3z M-1902.9,591.4
						c4.2,0,7.7,3.4,7.7,7.7c0,4.2-3.4,7.6-7.7,7.6c-4.2,0-7.6-3.4-7.6-7.6C-1910.5,594.8-1907.1,591.4-1902.9,591.4z
						 M-1485.7,599.9l10,9.2l-9.2,10l-10.1-10.5L-1485.7,599.9z M-1109.6,601.4c4.2,0,7.7,3.4,7.7,7.6c0,4.2-3.4,7.6-7.7,7.6
						s-7.6-3.4-7.6-7.6C-1117.2,604.8-1113.8,601.4-1109.6,601.4z M-1130.1,602.2c4.2,0,7.7,3.4,7.7,7.6c0,4.2-3.4,7.6-7.7,7.6
						s-7.7-3.4-7.7-7.6C-1137.8,605.6-1134.4,602.2-1130.1,602.2z M-1577.3,601.7l5.8,4.3l6.8-2.9l0.5,8l6.2,3.1l-3.9,5.7l2.4,7.5
						l-6.7,0.2l-5.2,6.9l-4.7-4.5l-9.1,0.6l-1.5-7.8l-4-3.1l3.1-5.2l-2.3-6.9l7.8-0.5L-1577.3,601.7z M-1914.1,610.2
						c4.2,0,7.6,3.4,7.6,7.6c0,4.2-3.4,7.6-7.6,7.6s-7.6-3.4-7.6-7.6C-1921.8,613.6-1918.4,610.2-1914.1,610.2z M-1892.1,610.4
						c4.2,0,7.7,3.5,7.7,7.7c0,4.2-3.4,7.7-7.7,7.7s-7.6-3.4-7.6-7.7C-1899.8,613.9-1896.3,610.4-1892.1,610.4z M-1449,628.7
						l-18.3,17l18,18.8l-0.5,14.4l-31.9-31.8l32.4-31.8L-1449,628.7z M-1629.5,625l-68.5,45.4l-4.2-11.4l61-40L-1629.5,625z
						 M-1120,621.3c4.2,0,7.7,3.4,7.7,7.7c0,4.2-3.4,7.6-7.7,7.6c-4.2,0-7.6-3.4-7.6-7.6C-1127.6,624.7-1124.2,621.3-1120,621.3z
						 M-1530.6,625.9c-3.2,0.2-6.4,4-12.5,10.5c-6,6.4-13.1,13.9-14.7,15c-4.8,3.3-4.5,4.2,3.7,13.4c2.5,2.8,7.3,8.6,10.6,12.8
						c3.3,4.2,8.5,9.6,9.6,10.6c3.4,3.5,5.2,2.8,20.7-8.3c18.8-13.5,18.7-11.5,1.4-33.7C-1521.8,633.5-1526.5,625.6-1530.6,625.9z
						 M-1903.1,630.6c4.2,0,7.6,3.4,7.6,7.6c0,4.2-3.4,7.6-7.6,7.6c-4.2,0-7.7-3.4-7.7-7.6C-1910.8,634-1907.3,630.6-1903.1,630.6z
						 M-1501.4,633.4l12.4,13.3l-1.1,1.3L-1501.4,633.4z M-1101.3,636.3v23l-38.1,35.2v-21L-1101.3,636.3z M-1528.3,643l4.6,6.4
						l7.9-0.5l-1.2,7.5l4.2,3l-4.1,5.7l-0.3,7.2l-6.5-1.5l-5.3,6.4l-5.2-6.1l-6.2,0.7l0.2-7.5l-6.3-3.6l4.4-4.9l0.1-8.4l9.2-0.3
						L-1528.3,643z M-1339.7,643.5l3.8,11.6l-95.3,62l-8.3-9.6L-1339.7,643.5z M-1589.2,651.3l7.6,5.7l-100,64.3l-3-8.4
						L-1589.2,651.3z M-1881.8,648.8v19.1l-42.2,40.7v-19.7L-1881.8,648.8z M-1485.6,653.4l1.2-1l32.7,31.4l-6.2,6.6L-1485.6,653.4z
						 M-1576,662.6l0.9,185.5l-8.7-6l0.7-176L-1576,662.6z M-1570.6,666.9l7.1,6.2l-6.8,6.7L-1570.6,666.9z M-1101.3,665.3v18.8
						l-38.1,36.2v-19.7L-1101.3,665.3z M-1881.8,674.4V692l-42.2,40.3v-17.9L-1881.8,674.4z M-1488.5,676.8c-1.1,0-2.3,0.7-4,2.1
						c-1.6,1.2-5.4,3.9-8.5,5.9c-11.5,7.5-21.2,14.5-21.7,15.5c-0.9,2.1,10.6,17.2,26.6,35.2c6.3,7.1,6.1,8.5,12.4,2.2
						c5-5.7,23.4-21.3,22.9-25.5c-1-4.8-7.3-10.2-23-31.4C-1485.8,678-1487.1,676.8-1488.5,676.8z M-1559.3,678.7l25.1,35.9
						l-3.3,3.3l-30.8-30.4L-1559.3,678.7z M-1608.4,682.9l0.1,173.1l-47.1,33.5c0.9,0.5-5.8-104-23.8-159.7L-1608.4,682.9z
						 M-1491.2,689l4.6,8.6l7-1.2l-0.9,7.9l5.9,4.6l-5.8,8l0.8,5.7l-6.8-1.6l-6.2,6.5l-4.3-8.2l-9,0.1l1.3-7.9l-6.3-5.3l6.8-4l1-7.2
						l5.9,0.5L-1491.2,689z M-1450.4,690.4l0.8,7.1l-4.2-3.6L-1450.4,690.4z M-1570.8,702.9l-0.1-10.1l30,29l-30.7,28.7l0.2-13.6
						l17.5-16.6L-1570.8,702.9z M-1322.6,697.3l4.3,12.9l-61.7,38l-12.4-6.5L-1322.6,697.3z M-1119.3,718.7c4.2,0,7.7,3.4,7.7,7.6
						c0,4.2-3.4,7.7-7.7,7.7c-4.2,0-7.7-3.5-7.7-7.7C-1127,722.1-1123.6,718.7-1119.3,718.7z M-1512,743.6l-21.7-21.7l2.7-2.9
						L-1512,743.6z M-1456.2,724.1c-7.3,6.3-23,24.4-23,27.4c0,3,21.7,21.7,34.8,30c4.1,2.6,5.7,2.7,7.3,0.3
						c22.5-33.7,23.5-32.5,14.6-39.1c-9.1-6.9-19.7-17.2-26.9-20.8C-1452.5,720.4-1453,721.4-1456.2,724.1z M-1537.4,725.7
						l35.7,34.3l-33.1,32l-34.4-36.3L-1537.4,725.7z M-1902.3,728.3c4.2,0,7.6,3.4,7.6,7.6c0,4.2-3.4,7.6-7.6,7.6
						c-4.2,0-7.7-3.4-7.7-7.6C-1909.9,731.7-1906.5,728.3-1902.3,728.3z M-1450.8,735.2l6,5.3l7.2-1.9l1.6,7.1l6.9,2.5l-3.7,7.2
						l0.5,9.1l-7-1.3l-4.8,7.4l-7.1-7.1l-8.1,0.7l0.4-7.9l-7.2-3.5l4.5-5.2l-2.8-7.1l8.6,1.4L-1450.8,735.2z M-1109.2,738.4
						c4.2,0,7.7,3.4,7.7,7.6c0,4.2-3.4,7.6-7.7,7.6c-4.2,0-7.7-3.4-7.7-7.6C-1116.8,741.8-1113.4,738.4-1109.2,738.4z
						 M-1556.2,756.4l21.2,21.7l19.5-18.7l-20.6-21.8L-1556.2,756.4z M-1130.3,738.7c4.2,0,7.7,3.4,7.7,7.7c0,4.2-3.4,7.7-7.7,7.7
						c-4.2,0-7.6-3.4-7.6-7.7C-1137.9,742.1-1134.5,738.7-1130.3,738.7z M-1912.8,746.7c4.2,0,7.7,3.4,7.7,7.7
						c0,4.2-3.4,7.6-7.7,7.6c-4.2,0-7.6-3.4-7.6-7.6C-1920.5,750.1-1917,746.7-1912.8,746.7z M-1890.4,746.7c4.2,0,7.6,3.5,7.6,7.7
						c0,4.2-3.4,7.6-7.6,7.6c-4.2,0-7.7-3.4-7.7-7.6C-1898,750.2-1894.6,746.7-1890.4,746.7z M-1536.1,748.4l9.6,9.9l-8.9,9.4
						l-10-10.2L-1536.1,748.4z M-1405.4,755.2c-4.9,3.5-18.3,28.9-20.6,34.5c0,1.3,6.5,5.4,14.5,9.2c6.9,3.2,29.2,12.2,31.2,12.7
						c4.5,1.1,5.2-0.6,6-3.5c0.4-1.5,2.2-7.4,4.1-13.9c6.9-22.4,9-21.4-1.3-24.8c-3.5-1.2-14.7-4.9-21.7-8.2
						C-1400,758-1403.1,755.2-1405.4,755.2z M-1120,759.3c4.2,0,7.7,3.4,7.7,7.6c0,4.2-3.5,7.7-7.7,7.7s-7.6-3.4-7.6-7.7
						C-1127.6,762.7-1124.2,759.3-1120,759.3z M-1485.4,769.8l1.2,150.5l-11.8-9.2l-0.3-151L-1485.4,769.8z M-1538.1,795.4
						l-32.5,33.1l-0.2-16.9l18.2-16.5l-18.5-19.4l0.4-13C-1558.9,772.5-1548.8,784.4-1538.1,795.4z M-1902.4,766.6
						c4.2,0,7.7,3.4,7.7,7.6c0,4.2-3.4,7.7-7.7,7.7c-4.2,0-7.7-3.4-7.7-7.7C-1910.1,770-1906.6,766.6-1902.4,766.6z M-1400.7,766.3
						l6.6,5.5l5.5-3.3l3.2,5.6l7.9,1.1l-3.5,8.6l4.6,6.6l-7.7,1.4l-1.9,9.2l-7.5-4.5l-5.7,2.5l-4.2-7.8l-8.9-0.4l4.9-8.4l-4.6-6.7
						l6.5-0.4L-1400.7,766.3z M-1501,766.8l-0.1,13.3l-14.1,14.3l14.2,15.5l-0.1,15.4l-29.4-29.9L-1501,766.8z M-1350.2,775.6
						c-3,0.1-3,3.2-5.3,13.4c-0.5,2.2-2.1,8.1-3.5,13.2c-4.3,15.2-4.8,15.5,8.4,18.1c7.7,1.1,40.8,8.9,41.5,3.6
						c0.8-9,1.4-30.1,1.5-37.3c0.3-2.4-0.3-4.7-2.7-5C-1325.4,779.8-1342.2,775.8-1350.2,775.6L-1350.2,775.6z M-1479.2,776.2
						c18.8,12.8,37,25.9,58.6,37.6l0.5,154.8l-59.3-44.2L-1479.2,776.2z M-1101.8,776.7v19l-39.5,37.7v-18.1L-1101.8,776.7z
						 M-1333.4,783.2l3.4,7.3l7.2-2.4l0,8.8l6.4,4.1l-7.7,3.6l-0.7,10.7l-7.8-2.4l-6.5,4l-5.7-6l-7-0.1l2.6-9.5l-4.5-4.3l6.6-3.2
						l0.5-8.5l7,4.2L-1333.4,783.2z M-1881,781.8v18.3l-43,39.6v-16L-1881,781.8z M-1279.5,793.3l9.7,16.3l-3.5,6.6l-6.5-3.2
						l-7.1,2.6l1.1-8.7l-5.5-4.4l5.6-5.1l-0.3-6.4L-1279.5,793.3z M-1534.4,798.7l33,34.2l-33.6,34.7l-33-34.7L-1534.4,798.7z
						 M-1101.8,820.1l-39.5,36.7v-17.9l39.5-37.5V820.1z M-1881,805.1V823l-43,40.3v-16.5L-1881,805.1z M-1534.3,811.5l-21.4,21.2
						l21.3,21.3l21.5-20.8L-1534.3,811.5z M-1534,823.7l9.2,9.4l-8.8,9.1l-9.5-9.2L-1534,823.7z M-1570.8,836.7l32.7,33.6l-3.8,4.4
						l-29-22.5L-1570.8,836.7z M-1500.6,839.4l0.9,15.2l-17.8,15.2l16.3,17.1l0.4,15.8l-31-31.9L-1500.6,839.4z M-1119.4,854.8
						c4.2,0,7.6,3.4,7.6,7.6c0,4.2-3.4,7.6-7.6,7.6s-7.6-3.4-7.6-7.6C-1127,858.2-1123.6,854.8-1119.4,854.8z M-1901.5,864.1
						c4.2,0,7.7,3.4,7.7,7.6c0,4.2-3.4,7.7-7.7,7.7c-4.2,0-7.6-3.4-7.6-7.7C-1909.1,867.5-1905.7,864.1-1901.5,864.1z
						 M-1744.8,868.8l-24.1,36.1l19,12.7l-18,24.2l18.7,22.6l-18.9,16.2l19.1,32.8c-7.6-1.5-15.4-6.6-22.4-10.1l-14.4-27.5
						l16.6-14.3l-16.8-19.6l17.7-20.9l-17.7-12.4l19.3-29.7L-1744.8,868.8z M-1110.2,873.6c4.2,0,7.7,3.4,7.7,7.6
						c0,4.2-3.4,7.6-7.7,7.6c-4.2,0-7.6-3.4-7.6-7.6C-1117.9,877-1114.4,873.6-1110.2,873.6z M-1585,873l166.6,128.4l-0.7,17
						l-166.7-128.1l-70.8,50l0.6-18.2L-1585,873z M-1130.6,874.6c4.2,0,7.6,3.4,7.6,7.6s-3.4,7.6-7.6,7.6c-4.2,0-7.7-3.4-7.7-7.6
						S-1134.9,874.6-1130.6,874.6z M-1518.4,891l-1.8,0.3l-18.2-13.3l4-4.5C-1534.4,873.6-1522.5,886.8-1518.4,891z M-1890.2,883.6
						c4.2,0,7.7,3.5,7.7,7.7c0,4.2-3.5,7.7-7.7,7.7c-4.2,0-7.6-3.4-7.6-7.7C-1897.8,887.1-1894.4,883.6-1890.2,883.6z
						 M-1910.8,883.7c4.2,0,7.7,3.4,7.7,7.6c0,4.2-3.5,7.6-7.7,7.6c-4.2,0-7.6-3.4-7.6-7.6C-1918.4,887.1-1915,883.7-1910.8,883.7z
						 M-1119.4,893.8c4.2,0,7.6,3.4,7.6,7.7c0,4.2-3.4,7.6-7.6,7.6s-7.6-3.4-7.6-7.6C-1127,897.2-1123.6,893.8-1119.4,893.8z
						 M-1901.6,902.3c4.2,0,7.7,3.4,7.7,7.7c0,4.2-3.4,7.6-7.7,7.6c-4.2,0-7.6-3.4-7.6-7.6C-1909.2,905.7-1905.8,902.3-1901.6,902.3
						z M-1101.8,916.5v16.9l-37.4,36.2v-16.3L-1101.8,916.5z M-1606.1,921.6c5.6-0.1,13,0.2,23,0.6c8.6,0.3,18.1,0.5,21.1,0.4
						c11.9-0.3,15.8,3.7,16,16.6c0.2,11.4,0.1,11.4,15.1,12c18,0.8,22.8,5.4,23,22.4c0.1,6.6,5.4,9.2,15.9,7.7
						c16.5-2.3,19.7-0.1,21.7,15.3c1.6,12.8,0.7,12.2,15.9,12c16.3-0.1,19.9,2.6,20.1,15.2c0.1,7.3,1.9,9.5,8.2,10
						c6.7,0.6,9.6,4.1,6.3,7.5c-0.6,0.6-3.7,1-8.6,1.1c-10.4,0.2-13.8-3.1-15.7-15c-1.3-8.3-2.2-8.7-16-8.3
						c-17.6,0.5-19-0.6-20.9-15.9c-1.6-13.2-3.8-14.5-19-11.7c-11,2.1-16.8-2.8-18.3-15.1c-1.6-13.9-2.2-14.4-17.8-15
						c-15.6-0.6-20-3.3-20.1-12.7c-0.2-14.6-2.1-15.9-21.3-15.3c-9.3,0.3-18.9,0.1-24.4-0.5c-11.6-1.2-11.6-1.3-12.8,9.9
						c-1.7,16.7-4.2,18.3-26.3,16.6c-9.2-0.7-9.9-0.2-10.5,6.8c-0.8,8.8-4.1,14.2-6.6,10.9c-1.3-1.7-1.3-1.9,0-14.8
						c1.5-14.4,1.6-14.5,20.4-13.1c12.7,1,12.1,1.4,13.5-10.1C-1622.6,925-1622.8,921.8-1606.1,921.6z M-1880.4,920.3v18.5
						l-43.7,40.5v-18L-1880.4,920.3z M-1744.7,942.1l9.5,13l-3.1,24.1l-8.1,6.1l5.7,11.5l-1.8,14.1l-2.3,1.3l-15.9-30.8l18.8-16.5
						l-19.2-23.4l18.2-24.5l-18.9-13.2l22.7-33.4c3.9-4.8,4.2,14.2,4.2,14.2l-9.4,14.2l10.5,9.1h0l0,22.5L-1744.7,942.1z
						 M-1732.7,931.1l1-30.3l-8.2-6.3l6.3-10.5l-0.4-26.8l-1.9-1.3c-15.7-191.9-109.7-305.3-124.4-331.1c0,0-3.3-2.6-2.7-9.2
						c0.3-2.9,0.4-19.8,0.3-37.6c-0.6-91,0.2-153.3,0.2-153.3l-69.1-73.6l0.4,26.9l3.4,2.4l0,122.7l-2.9,0.2c0,0-0.9,33-0.7,55.6
						l4.1,0.1l-0.3,84.3l-3.5,0.4l0.2,54.6l3.8,0c0,0,0.9,57.3-0.5,85.1l-2.8,0.2l0.2,54.3l3.2,0.2l0.2,77.6l-4,0.6l1.1,51.2
						l3.2,0.2c1.2,31.7,0.6,86.4,0.6,86.4l-3.7,0.2l0.9,50.9l2.7,0.2l-0.8,89.3l-2.4,0.3l0.9,52.8l2.6,0.2l-0.4,43.9l-1.8,0.3
						l-0.4,16.4l1.9,4.3l0.1,58.5l-1.4,0.6l-0.4,29.4l107.1-108.3l-39.4-1.2l0-35c0-57.8,0.8-104.4-1-160.7
						c-0.5-0.5-4.4-1.1-8.7-1.4c-20.3-1.2-25.8-2.8-25.9-7.7c-0.1-6,9.1-13.5,16.7-13.6c1.7,0,4.6-1.7,4.6-1.7l-2.5-640.9
						l-47.9-50.2l0.2-15.9l59.1,62.5l2.2,640.6l2.2-1l0.2-215.1c30.3,45.3,47.2,90.1,64.1,135c0,0,6-2.1,6.2-2.2
						c0.1-0.1-2.1-0.8-2.1-0.8c-17.2-57.3-38.9-98.9-67.1-142.3l0.4-208.5c72.2,101.9,107.1,193.6,121.6,325.7l-36.5,18.2l-3.5,4.7
						l-27.6,13.8l-2.6-4.4l-16.7,11.6c12.9,22.5,12.4,54.9,1.9,72.1l4.5,2.8c0.3,1.2,17.3-35.1-1.7-72l12.5-7.7
						c18,37.2,9.6,77.2,1.2,87.5c0,0,13,8.3,22.4,13.4c10.2,5.5,19.2,10.6,31.4,14.5c7.5,3,12.3-0.5,12.2-0.6l3.6-20.7l-5.8-7.9
						l6.8-5.4l3.1-31.8l-7.2-7.3L-1732.7,931.1z M-1101.8,939.6v20.5l-37.4,35.4v-20.1L-1101.8,939.6z M-1880.4,961.5l-43.7,40.1
						v-16.7l43.7-41V961.5z M-1116.6,988.8c4.2,0,7.7,3.5,7.7,7.7c0,4.2-3.4,7.7-7.7,7.7c-4.2,0-7.6-3.4-7.6-7.7
						C-1124.3,992.3-1120.9,988.8-1116.6,988.8z M-1862.9,1001.2l0,188.8l-11.5,0l0.5-191.1L-1862.9,1001.2z M-1901.5,999.5
						c4.2,0,7.7,3.4,7.7,7.6s-3.4,7.6-7.7,7.6c-4.2,0-7.6-3.4-7.6-7.6S-1905.7,999.5-1901.5,999.5z M-1127.5,1006.8
						c4.2,0,7.6,3.4,7.6,7.7c0,4.2-3.4,7.7-7.6,7.7c-4.2,0-7.7-3.5-7.7-7.7C-1135.2,1010.2-1131.7,1006.8-1127.5,1006.8z
						 M-1106.9,1007.1c4.2,0,7.6,3.4,7.6,7.6c0,4.2-3.4,7.6-7.6,7.6c-4.2,0-7.7-3.4-7.7-7.6
						C-1114.6,1010.5-1111.1,1007.1-1106.9,1007.1z M-1889.5,1018.6c4.2,0,7.7,3.4,7.7,7.7c0,4.2-3.4,7.6-7.7,7.6
						c-4.2,0-7.6-3.4-7.6-7.6C-1897.2,1022-1893.8,1018.6-1889.5,1018.6z M-1495.3,1018.8c39.9,4.9,29.3,46.8,12.5,55.5
						c-22.9,10.7-41.2-10.8-26.6-32.6c10.7-16,31.1-5.4,23.3,12.1c-4.4,9.9-13.6,8.7-13.6-1.3c3.3-9.5,0.3-6.1-2.3-2.8
						c-8.1,10.5,8.2,21.6,16.6,11.3c5.1-6.4,6.2-13.9,4.5-19.9c-3-10.3-14.9-16.3-28.4-6.8c-16.1,19.3-24.7,44.2-29.4,72.1
						c-10.1,59.4-10.6,121.9-19.3,137.7l-9.4-0.2c13.7-68,13.8-126.2,28.5-179.7C-1531.8,1037.7-1513.3,1018.8-1495.3,1018.8z
						 M-1910.5,1019.2c4.2,0,7.6,3.4,7.6,7.7c0,4.2-3.4,7.6-7.6,7.6c-4.2,0-7.7-3.4-7.7-7.6
						C-1918.1,1022.6-1914.7,1019.2-1910.5,1019.2z M-1748.6,1020.2c-10.5,0.2-21.2,8.9-20.4,20.1c1,13.5,9,19.5,22.2,18.2
						c7-0.7,6.9-0.8,11.6,7.6c4.3,7.6,15.5,40.3,15.6,45.2c-5.4-7.2-18-20.5-29.7-20c-12.5,0.9-23.1,12.8-13.6,29.6
						c5,8.2,14,9.8,23.1,7.1c13.6,21.2,16.2,42.4,20.5,67c0,0,5.4-52.7,7-73.7c3.1-32.2,7.5-53.1,20-78.6c-10.4-6-21.5-10.7-32.7-15
						c-4.5-1.7-9.1-1.7-13.5-4.6C-1741.6,1021-1745.1,1020.1-1748.6,1020.2z M-1115.8,1024.5c4.2,0,7.6,3.4,7.6,7.6
						c0,4.2-3.4,7.7-7.6,7.7c-4.2,0-7.7-3.4-7.7-7.7C-1123.4,1027.9-1120,1024.5-1115.8,1024.5z M-1727.1,1041.4
						c7.9,12.8,15.6,31.3,16.3,42.9c0.3,7.7-1.3,17.2-2.6,26c-0.6,4.4-2.3,0.1-5.3-9.3c-12.4-39.2-15.7-46.7-24.3-44.8
						c-4.9,1.1-10,1.3-13.4-0.5c-10.9-6-11.9-26.2,4-30.1C-1739.7,1022.9-1731.6,1034.1-1727.1,1041.4z M-1727.3,1031.7
						c15.9,6.3,26,15.7,23.1,31.1c-1.3,5.8-2.1,10.5-3.7,9.9c-1.8-0.7-4.2-7.6-9.2-19.6C-1718.2,1049.2-1729.5,1031.7-1727.3,1031.7
						z M-1464.3,1032.3c0.8-0.1,2.2,0.7,4,2.3c12.5,12.3,5.7,40.1-11,48.2c-6.9,4.7-19.5,4-19.6-0.6c0-1.8,0.4-2.3,2.1-2.3
						c14,0.1,29-19.4,24.8-40.2C-1464.4,1036.6-1465.4,1032.5-1464.3,1032.3z M-1901.2,1039.1c4.2,0,7.6,3.4,7.6,7.6
						s-3.4,7.7-7.6,7.7c-4.2,0-7.7-3.4-7.7-7.7S-1905.4,1039.1-1901.2,1039.1z M-1451.1,1041.4c0.9-0.1,3.9,1.2,5.9,3.6
						c11.8,14.2,2.2,38.5-16.3,46.8c-7.1,3.8-13.1,1.2-11.5-2.8c12.6-5.2,24.6-18.8,23.3-37.4
						C-1450.2,1045.2-1452.4,1041.6-1451.1,1041.4z M-1701.4,1044l4.3,2l-1.8,3.7C-1699.7,1047.5-1699.7,1046.7-1701.4,1044z
						 M-1437.7,1045.6c0.9,0,3-0.3,5,1.6c7.6,7.4,8.8,28.2,1.5,38.5c-3.4,4.8-14.1,13.6-17.3,14.5c-3.7,0.5-6.3,1-12.5-1.8
						c-2.1-0.1,0.9-2,4.8-4.3c13.8-8,23-22.2,20.6-35.6C-1437,1050.2-1439.5,1045.6-1437.7,1045.6z M-1423.7,1052.3
						c3.7,0.3,6.5,3.5,8.2,6.3c9.1,13,1.5,40.4-17,46.1c-12.4,3.8-17,0.2-7-5.6c14.4-8.4,21.8-24.8,17.7-37.8
						C-1423.8,1055-1425.7,1052.4-1423.7,1052.3z M-1408.7,1061.8c4.3,0.1,7.7,3.4,9.2,6.8c3.6,8.4,3,20.2-1.6,28.5
						c-4.7,8.3-13.5,15.2-23.4,16.2c-2.6,0.2-4.8-0.1-6.8-1c-4.3-1.9-2.8-2.2,5.3-6.4c13-6.8,20.7-21,18.7-36.6
						C-1408.1,1063.4-1410.4,1061.8-1408.7,1061.8L-1408.7,1061.8z M-1880.4,1059v20.2l-42.5,40.1v-19.7L-1880.4,1059z
						 M-1519.2,1061.6c0.8,0.8,5.6,12.3,6.2,14.7c-10,14.3-12.8,37.8-14.3,55.6c-5.6,50.5-11.5,111.4-14,111.9l-11.1,0.3
						c4.2,2.8,9.6-83.7,18.2-138.5C-1533.5,1101.3-1524.3,1059-1519.2,1061.6z M-1390.7,1070.5c14.6,9.9,6.8,40.7-13.5,48.3
						c-7.4,2.8-10.1,3.2-13.4-0.1c-2.1-2-4.1-2.7,1.2-4.6c15-3.9,25.6-17.9,23.1-34.2C-1393.5,1076-1397.3,1065.6-1390.7,1070.5z
						 M-1508.7,1079.1l6.6,4.3c-7.2,21.3-9.8,46.5-12.7,70.9c-3.5,29.5-6.7,59.8-11,88.8l-10.2,0.4c5.3-17.9,7.7-67.8,13-109.7
						C-1519.9,1112.5-1516.6,1083.3-1508.7,1079.1z M-1497.2,1086l8.5,4.9c-3,11.9-6.6,25-8.3,37.5c-3.9,27.8-5.4,61.5-14.4,113.3
						l-9.2,0.8c2.3-16.7,6.7-53.7,10.4-87.9C-1505.9,1115-1499.1,1085.1-1497.2,1086z M-1880.4,1084.7v19.8l-42.5,39.1v-18.3
						L-1880.4,1084.7z M-1482.8,1092.3c0,0,7.3,4.1,8.2,4.6c-5.5,21.9-8.2,42.2-11,62.1c-3.7,26.8-6.4,52.8-11.5,82.2l-9.8,0.6
						c4.9-22.6,10.5-75.6,14.9-112.9C-1489.4,1107.2-1484.1,1091.9-1482.8,1092.3z M-1716.8,1136.8c0.1,15-3.2,38.1-3.2,38.1
						c-1.3,0.7-5.3-33.9-19.3-49.6c-17.1,8.1-31.8-10.9-20.2-24C-1736.7,1081.8-1716.8,1123.5-1716.8,1136.8z M-1470,1098.3
						l11.9,5.5c-1.5-0.3-4.3,7.9-7,20.7c-8.3,38.9-16.6,115.5-17.9,115.5l-9.2,0.8c3-20.6,7-53.1,11.3-81.9
						C-1476.1,1126.2-1471.6,1098.4-1470,1098.3z M-1453.5,1105.7l9,5.4c-0.8-0.6-4,9.1-5.6,15.8c-8.1,38.8-11.8,72.8-16.8,110.4
						l-9.8,1.3c-0.7,1.1,8.5-74.1,16.1-112C-1458.1,1113.7-1454.2,1105.3-1453.5,1105.7z M-1439.4,1112.5l9.7,4.8
						c-10.5,29.8-11.5,58.2-21.6,118l-10.2,1.8c4.1-38.2,10-79.3,18.3-116.8C-1442.1,1115.3-1439.5,1112.6-1439.4,1112.5z
						 M-1425.6,1119.5l10.9,4.4l-22.8,109.7l-9.2,1.2c5.7-31.6,8.7-68.2,16.4-97C-1428.7,1131.6-1427.8,1124.8-1425.6,1119.5z
						 M-1899.5,1136.8c4.2,0,7.7,3.4,7.7,7.6c0,4.2-3.5,7.6-7.7,7.6c-4.2,0-7.6-3.4-7.6-7.6
						C-1907.2,1140.2-1903.8,1136.8-1899.5,1136.8z M-1889.5,1154.8c4.2,0,7.7,3.4,7.7,7.7c0,4.2-3.4,7.6-7.7,7.6
						c-4.2,0-7.6-3.4-7.6-7.6C-1897.2,1158.2-1893.8,1154.8-1889.5,1154.8z M-1909.5,1155.3c4.2,0,7.7,3.4,7.7,7.6
						c0,4.2-3.5,7.7-7.7,7.7c-4.2,0-7.7-3.4-7.7-7.7C-1917.1,1158.7-1913.7,1155.3-1909.5,1155.3z M-1899.9,1172.9
						c4.2,0,7.6,3.4,7.6,7.7c0,4.2-3.4,7.6-7.6,7.6c-4.2,0-7.7-3.4-7.7-7.6C-1907.6,1176.3-1904.1,1172.9-1899.9,1172.9z
						 M-1830.7,1198.5l-91.8,93l-0.3-18.6l62.9-61.8l-63.4-1l0.1-12.6L-1830.7,1198.5z M-1872.8,1216.2l-49.2,46.9l-0.4-47.7
						L-1872.8,1216.2z M-1820.2,1219.6c0,0-0.3,1.7,4.3,9.8c13.4,23.3,16.5,44.9,28.4,69.9c5.9,13.7,19.2,27.5,22.2,28.3l-14.8,27
						l416.9-0.9l-66.7-116.5c-105.9,19.6-201.1,16.2-290.6,0.5c-5.1,6.9-10.7,20.9-16.1,31
						C-1750,1232.8-1792.7,1209.6-1820.2,1219.6z M-1805,1222.8c22-0.3,40.4,10.2,56.7,32.4c5.2,7.1,7.2,10.3,7.2,13.2
						c-0.6,3.4-7.4,14.4-7.4,14.4s-4-10.9-4.9-16.2c-5.9,21.8-8.3-3.5-10.6-10.1c-7.2,21.1-11.1-7.9-10.8-15.7
						c-9.8,13.5-9.2-8.7-14-12.8c-0.1,11.7-7,3.7-15.9,1.2c4.7,6.5,13.8,10.9,2.1,12.4c11.6,8,17.4,6.8,6.1,11.2
						c8.7,4.8,22.9,10.5,7.2,13.7c9.6,6.1,25.1,8.6,8.5,14.4c12.6,7.7,29.3,7.1,5.8,13.3c8.5,5,23.6,6.9,6.7,11.2
						c2.6,1.2,7.1,4.2,7.1,4.2l-7.3,11.5c0,0-2.6-0.2-4.4-2.1c-7.7-8.1-15.2-22.9-22-43.7c-5-15.3-10.8-31.5-17.3-44.9
						C-1815.6,1223.3-1815.3,1222.9-1805,1222.8L-1805,1222.8z M-1432.7,1249l57.6,98.6l-13.7,0.2l-50.9-84.4l-68.6,7.8l22.6,75.5
						l-20.4,0.6l-20.3-74.2c-38.3,1.5-74.9,2-106.7-0.6l-10.8,75.3l-19.5-0.6l12.3-74.5l-64.4-8.2l-34.9,83.6l-20.1,0.4
						c13-21.9,45.4-92.6,51.5-99.6C-1578.7,1271-1505.8,1258.9-1432.7,1249L-1432.7,1249z M-1446.2,1271.8l43.6,75.8l-70.1,0.3
						l-23.5-70.2L-1446.2,1271.8z M-1708.4,1274.1c13.8,4,28.7,4.9,43.7,5.5l-12.7,67.9l-62.1-0.1L-1708.4,1274.1z M-1533.6,1282.1
						l16.5,65.9l-116.9,0.6l9.6-65.7C-1593.7,1284.7-1563.7,1283-1533.6,1282.1z"/>
				</g>
			</g>
			<g id="printing-marks-3-3-4-8">
			</g>
		</g>
		<path id="path147-0-8-1-3-6-4-3-4" d="M3235.8-865.9c7.8-0.2,11.3-9,5.5-15.8c-0.8-1-0.9-1.6,0.6-0.6c3.9,2.6,11.4,0.9,11.8-7.1
			c0.5-9.8-13.3-12.7-15.8-2.2c-0.1,1.1-1,1.1-0.8-0.5c0.2-4.2,1.6-8.2,3.4-12.1c-3.1,0-6.5,0-9.3,0c1.8,3.9,3.1,7.8,3.4,12.1
			c0.2,1.6-0.7,1.6-0.8,0.5c-2.6-10.4-16.3-7.6-15.8,2.2c0.4,8,7.9,9.7,11.8,7.1c1.5-1,1.5-0.4,0.6,0.6
			C3224.5-874.9,3228-866.1,3235.8-865.9C3235.8-865.9,3235.8-865.9,3235.8-865.9L3235.8-865.9z"/>
		<path id="path147-0-8-1-0-3-83-9-4-0" d="M3153.4-1062.4c7.8,0.2,11.3,9,5.5,15.8c-0.8,1-0.9,1.6,0.6,0.6
			c3.9-2.6,11.4-0.9,11.8,7.1c0.5,9.8-13.2,12.7-15.8,2.2c-0.1-1.1-1-1.1-0.8,0.5c0.2,4.2,1.6,8.2,3.4,12.1c-3.1,0-6.5,0-9.3,0
			c1.8-3.9,3.1-7.8,3.4-12.1c0.2-1.6-0.7-1.6-0.8-0.5c-2.6,10.4-16.3,7.6-15.8-2.2c0.4-8,7.9-9.7,11.8-7.1c1.5,1,1.5,0.4,0.6-0.6
			C3142-1053.4,3145.5-1062.2,3153.4-1062.4C3153.3-1062.4,3153.3-1062.4,3153.4-1062.4L3153.4-1062.4z"/>
	</g>
</g>
</svg>
