<?xml version="1.0" encoding="utf-8"?>
<!DOCTYPE svg PUBLIC "-//W3C//DTD SVG 1.1//EN" "http://www.w3.org/Graphics/SVG/1.1/DTD/svg11.dtd">
<svg version="1.1"
	 id="svg8043" xmlns:rdf="http://www.w3.org/1999/02/22-rdf-syntax-ns#" xmlns:dc="http://purl.org/dc/elements/1.1/" xmlns:cc="http://creativecommons.org/ns#" xmlns:svg="http://www.w3.org/2000/svg"
	 xmlns="http://www.w3.org/2000/svg" xmlns:xlink="http://www.w3.org/1999/xlink" x="0px" y="0px" width="178.6px" height="249.4px"
	 viewBox="0 0 178.6 249.4" enable-background="new 0 0 178.6 249.4" xml:space="preserve">
<g id="layer1" transform="translate(-1.2628275e-6,-740.55055)">
	<g id="g7094" transform="matrix(0.99553491,0,0,0.99680337,-3090.9227,771.39682)">
		<path id="rect7098-3" fill="#FBFBF6" stroke="#7F7F7F" stroke-width="0.4" d="M3113.7-30.5h161.5c4.7,0,8.5,3.8,8.5,8.5v232.4
			c0,4.7-3.8,8.5-8.5,8.5h-161.5c-4.7,0-8.5-3.8-8.5-8.5V-22C3105.2-26.7,3109-30.5,3113.7-30.5z"/>
		<path id="path7130-4" fill="#D40000" d="M3119.3,25.4c-1.7-2.9-3.5-5.6-5.8-8c2.3-2.4,4.1-5.1,5.8-8c1.7,2.9,3.5,5.6,5.8,8
			C3122.8,19.8,3121,22.6,3119.3,25.4z"/>
		<path id="path7134-0" fill="#D40000" d="M3269.7,178.9c-1.7-2.9-3.5-5.6-5.8-8c2.3-2.4,4.1-5.1,5.8-8c1.7,2.9,3.5,5.6,5.8,8
			C3273.2,173.3,3271.4,176.1,3269.7,178.9z"/>
		<path id="path7136-1" fill="#D40000" d="M3153.2,34c-4.1-6.9-8.5-13.5-14-19.2c5.5-5.7,9.8-12.3,14-19.2c4.1,6.9,8.5,13.5,14,19.2
			C3161.8,20.5,3157.4,27.2,3153.2,34z"/>
		<path id="path7154-5" fill="#D40000" d="M3235.7,192.8c-4.1-6.9-8.5-13.5-14-19.2c5.5-5.7,9.8-12.3,14-19.2
			c4.1,6.9,8.5,13.5,14,19.2C3244.2,179.2,3239.9,185.9,3235.7,192.8z"/>
		<path id="path6263-5" fill="#131F67" d="M3129.2,199.4V-11.1h130.6v210.5H3129.2z M3176.2,23.9c-4.7-1.3-4.6,3.4-1.1,3.5
			c3.8,0.3,5.5-6.2,3.6-8.8C3178.7,18.7,3177.1,23.6,3176.2,23.9z M3145.9,50.2l-5.6,2.5l0,4.2C3142.6,55,3144.4,52.7,3145.9,50.2
			L3145.9,50.2z M3184.2,176.1c-1.1-0.6-2.4-1.8-2.2-2c0.1-0.1,0.7,0.1,1.2,0.3c4.4,1.8,7.8,1.7,13-0.2c0.4-0.1,1,0.6,0.8,1
			C3194.6,178.7,3187.2,177.5,3184.2,176.1L3184.2,176.1z M3181.9,170.9c-1-1.5,0.3-0.4,0.8,0.1c3.2,3,7.6,4,11.4,1.2
			c0.2-0.2,0.2-0.4,0.1-0.5c-0.1-0.3-0.1,0-1.7,0.6c-3.6,1.4-6.7,0.2-9.6-2c-1.2-0.9-1.8-1.4-1.8-1.7c0-0.2,0.2-0.4,0.6-0.3
			c0.3,0,1,0.2,1.5,0.2c0.9,0.1,0.8,0,1.8-0.4c2-0.9,3.8-1.3,5.9-0.9c0.5,0.1,1.1,0.2,1.2,0.2c0.5-0.2-0.2-0.8-2-2.2
			c-0.3-0.3-0.8-0.5-0.9-0.7c-0.2-0.4,0-0.5,0.3-0.5c0.7,0,4,2.7,5.1,4.3c0.3,0.5,0.6,0.5,0.6,1.1c-0.1,0.5-0.1,1,0.4,1.8
			c0.4,0.5,0.8,1.4,0.8,1.4c0,0-0.1,0.3-0.5,0.1c-0.2,0-0.3-0.2-0.6-0.2c-0.3,0-0.7,0.3-1.2,0.5
			C3189.5,176,3185.3,174.5,3181.9,170.9L3181.9,170.9z M3191.8,170.7c0.1,0-0.3-1.7-0.8-2.2c-0.9-1-2.3-1.2-3.1-0.2
			c-0.5,0.6-1,2.1-1,2.1s0.7,0.2,0.9,0.2c0-0.4,0-1.3,0.8-1.9c0.4-0.3,1.1-0.3,1.4,0c0.6,0.3,0.8,1.5,0.9,1.9
			C3191.2,170.8,3192,170.7,3191.8,170.7L3191.8,170.7z M3186.3,168.3c-0.6,0.3-1.5,0.5-1.7,0.9c-0.3,0.6,0.6,0.7,1.1,0.9
			c0.6,0.3,0.7,0.2,0.9-0.3c0.1-0.3,0.3-0.7,0.5-1.1C3187.6,167.8,3187.1,168,3186.3,168.3z M3193.3,169.9c0.4-0.4,0.4-0.6,0.1-1
			c-0.1-0.2-0.6-0.4-1-0.5c-0.6-0.2-0.9-0.4-0.5,0.4l0.5,1.2C3192.7,170.4,3192.9,170.3,3193.3,169.9z M3132.6,130.6
			c0.2,0,2.5-0.7,3.3-1.1c0.8-0.3,0.9-0.3,0.6-0.7c-0.1-0.2-0.2-0.6-0.2-1.1l0.1-0.7c-1.4-0.3-3.4,0.5-4.1,1.4
			C3131.7,129,3131.7,130.4,3132.6,130.6L3132.6,130.6z M3132.3,134.1c0.4,0.4,0.5,0.4,1.8,0c0.4-0.3,1.4-0.7,2-0.7
			c1.5-0.4,1.5-0.2,1.1-1.2c-0.2-0.4-0.3-0.8-0.2-1.2c0.1-0.5,0.1-0.6-0.1-0.6c-0.7-0.2-4.1,1-4.7,2
			C3131.7,132.9,3131.8,133.5,3132.3,134.1z M3210.7,167.3c0.1,0.8,0.1,2,0.1,2.6c0,1.3,0.5,1.6,1,0.9c0.5-1.6,0.7-4.2,2-5.6
			c0.9-0.3,2.1,0.2,2.8-0.4c1.5-1.5,0.3-3.2-1.1-3.3C3212.6,161.4,3210.5,165,3210.7,167.3z M3217.8,163.3c0.1,1.6-1.5,2.7-3.1,2.3
			c-0.7-0.2-0.9,0-1.3,0.9c-1,2.6-1.3,5.1-1.6,6.8c-0.1,1.5-0.7,5.5-0.3,6.7c4.6,5.7,9.5,11.6,14.8,17.5h31.7v-37.3l-9.1-8.7l0-13.8
			c-9.8,4.6-19.6,9.3-29.5,14c2.1,6.9-5.1,8.3-6.7,3.7c-1.4,1.3-2.5,8.1-2,8.4c0,0,0.2,0.2,0.5-0.3c0.5-0.9,1.2-1.5,1.9-2
			C3215.2,160.4,3217.7,161.1,3217.8,163.3z M3192.6,162.6c-1.6-1.2-0.7-3.1,0.6-3.7c0.7-0.3,1.8-0.3,3,0.2c1.1,0.5,1.7,0.4,2.8,0.3
			c0.7-0.1,0.6,1.4-0.2,1.8c-0.5,0.3-1.7,0.1-3.2-0.7c-2.6-1.5-3.7,0.4-2.1,2.1C3194.3,163.5,3192.8,162.8,3192.6,162.6z M3140,140
			c1.4-0.9,0.8-2.4-0.5-2.7c-1.7,0-2.1,2-0.9,2.7c0,0.2-0.6,0-0.9-0.2c-0.5-0.4,0-1.9-0.5-1.9c-0.4,0-3.9,1.3-4.3,1.5
			c-1.6,0.9-0.1,2.9,0.8,2.7C3135.6,141.6,3138.2,141.2,3140,140z M3132.1,137.1c0,0.9,0.3,1.3,0.9,1.3c1.2-0.2,2.4-0.8,3.6-1.2
			c0.9-0.3,1.3-0.6,0.6-1.2c-0.2-0.2-0.4-0.6-0.3-1.2c0.2-0.7,0.1-0.8-0.3-0.8c-0.3,0-1,0.3-2.9,1c-1,0.4-1.2,0.5-1.4,1.1
			C3132.2,136.4,3132.1,136.7,3132.1,137.1z M3142.4,148.8c0.2-0.3,0.7-1.8,0.7-2.2c-0.1-0.7-0.6-0.8-1-0.4
			c-0.5,0.5-0.4,1.2-0.7,1.7c-0.1,0.2-0.2,0.4-0.2,0.6C3141.4,149,3142.1,149.1,3142.4,148.8z M3146.5,140.2
			c15.9-16.9,25.7-40.3,8.5-72.5c-1.1-1-2.5,2.3-2.7,2.4l-2.2,1.9c11.6,20.1,9.6,43.1-4.6,59.6l0,1c0,2.3,0.7,2.2,1.7,1.1
			c1-1.1,0.3-0.2-0.1,0.2c-0.4,0.4-0.9,1.1-1.1,1.3C3146.2,136.7,3147,139.3,3146.5,140.2L3146.5,140.2z M3145.4,135.1
			c-0.2-0.5-0.3-1.5-0.4-2.3c-0.1-0.5-0.1-1-0.1-1.5c-0.2-1-0.6-3.3-0.9-3.9c-0.4-0.6-1.2-1-2.2-1c-0.8-0.1-0.9,0-1.1,0.2
			c-0.3,0.5-0.1,2.9,0.2,3.7c0.4,1,0.1,1.6-0.1,2.6c-0.1,0.4-0.1,0.4,0,0.4c0.8-0.1,1.1-1,1.4-0.7c0.1,0.1-0.2,0.9-0.5,1.7
			c-0.4,0.8-0.5,2,0,3.5c0.3,0.8,0.1,1.1,0,1.5c-0.1,0.3-0.3,1.3-0.3,2.3c0.4,1.2,0.2,1.8,0,2.2c-0.5,1.1-0.8,2.5-0.6,3.3
			c0.1,0.4,0.4,0.1,0.6-0.6c0.3-1.2,0.7-1.5,1.7-1.5c0.7,0,0.8,0.2,1-0.1c0.5-0.7,1.8-3.3,1.9-4
			C3146.4,139.3,3146.4,137.7,3145.4,135.1L3145.4,135.1z M3153,147.1c0.4-0.2,1.1-1.1,1.1-1.4c0-0.3-2.7-2.9-3.8-3.6
			c-0.5-0.3-0.7-0.1-1.6,1.1c-0.8,1.1-0.9,1.1-0.7,1.3c0.2,0.2,2.9,2,3.8,2.5C3152.1,147.1,3152.6,147.2,3153,147.1L3153,147.1z
			 M3158,142.5c-0.4-0.3-3.6-3.8-4.5-4c-0.4-0.1-1.5,1.2-1.5,1.5c0,0.2,2,2.2,3.4,3.5c0.4,0.4,0.8,0.6,1,0.6
			C3156.8,143.9,3158,143,3158,142.5z M3161.4,139.2c0-0.2-0.4-0.6-1.2-1.5c-2.2-2.1-3.4-3.1-3.8-3.1c-0.4,0.1-1.2,1.4-1.2,1.9
			c0.1,0.3,3.8,3.6,4.3,3.9C3160,140.9,3161.3,139.6,3161.4,139.2z M3164.8,135.7c0.1-0.3-0.1-0.6-0.6-1c-0.3-0.3-1.5-1.5-2.6-2.5
			c-2.3-2.3-2.3-2.3-3-1.2c-0.8,1.1-0.8,1.1,1.5,3.3c2.4,2.3,2.9,2.8,3.3,2.8C3164,136.8,3164.6,136.4,3164.8,135.7z M3139.2,133.7
			c-0.4-0.1-0.8,0-1.1,0.2c-1.7,1.4,0.7,3.3,1.7,2.1C3140.5,135.4,3140.5,134,3139.2,133.7L3139.2,133.7z M3168.3,132.2
			c0-0.2-0.5-0.8-2.2-2.4c-4.2-4-4-3.9-4.5-3.6c-0.3,0.2-0.9,1.2-0.9,1.6c0,0.3,0.4,0.7,3.5,3.6c1.8,1.7,2.4,2.1,2.7,2.1
			C3167.5,133.3,3168.3,132.8,3168.3,132.2L3168.3,132.2z M3139.3,132.3c0.8-0.4,1-1.3,0.5-2c-0.9-0.8-2.2-0.1-2.2,0.9
			C3137.8,132.2,3138.7,132.6,3139.3,132.3z M3171.8,128.8c0-0.5-7.2-7.2-7.7-7.2c-0.3,0-0.6,0.3-0.9,1c-0.3,0.7-0.3,1.1,0.1,1.4
			c0.5,0.5,1.9,1.8,3.2,3c0.8,0.7,1.7,1.6,2,1.9c0.7,0.8,1.6,1.4,1.9,1.4C3170.8,130,3171.4,129.6,3171.8,128.8z M3139,127.9
			c0-0.3-0.1-0.5-0.3-0.8c-0.5-0.5-1.4-0.2-1.6,0.5C3136.9,129.3,3138.9,129.3,3139,127.9z M3144.3,75.3l1.4-4.3l4.3-0.1l0.6-4.3
			l4.4-0.6l0.1-4.4l4.3-0.6l-0.3-4.8l3.9-0.9l-0.2-4.4l3.6-1.1l-0.1-3.8l0.6-0.5l-1.5-1.6l-1.3,0.4l0,3.9l-3.6,1.2l0.4,4.4l-3.6,0.8
			l0,4.7l-4.2,0.5l-0.3,4.2l-4.1,0.8l-0.6,4.1l-3.9,0.3l-1.2,3.6l-2.6,0v2.4L3144.3,75.3z M3191.3,152.7c-0.1-0.3,0.2-0.3,0.8,0.1
			c0.6,0.4,1.6,0.7,2.3,0.8c0.3,0,1.3-0.2,2.2-0.4c1.1-0.4,2.1-0.4,3.3-0.2c0.9,0.1,1.7,0.2,1.9,0.2c0.6,0.1,1.6-0.6,1.8-1.1
			c0.7-1.2,0.5,1,0.5,1.2c0,1.1,0.2,2.4-0.7,1.8c-0.5-0.2-1.3-0.5-2,0c-0.7,0.5-1.2,0.5-2,0.1c-0.6-0.3-1-0.3-1.5,0.1
			c-0.5,0.5-1.9,0.3-2.6,0.1c-1.2-0.2-1.9-0.4-2.7,0.3c-0.4,0.2-0.5,0.1-0.9-0.9C3191.6,153.8,3191.3,152.8,3191.3,152.7
			L3191.3,152.7z M3194.4,151.9c-0.1-0.1,0.6-0.8,1-1c1.3-0.7,3.8-0.6,5.7,0c1,0.4,1.1,1,0.2,0.8c-1.9-0.4-4.3-0.7-6.2,0.1
			C3194.9,152,3194.4,151.9,3194.4,151.9L3194.4,151.9z M3196,148.8c-1.3-0.5-2-1-2-1.2c0-0.2,0.3-0.1,1.3,0.1
			c1.4,0.5,3.1,0.8,4.5,0.3c1-0.4,1.5-0.6,1.5-0.4c0,0.2-0.4,0.8-1.1,1.2C3198.8,149.5,3197,149.2,3196,148.8L3196,148.8z
			 M3224.6,145.2l1-0.1l-0.3-4.1l3.6-1.1l-0.3-4.1l3.8-1.3l-0.2-4.6l4-0.8l0.5-4l3.8-0.3l0.8-4.3l4-0.1l0.8-3.6l2.7,0l0-2l-4.2,0
			l-0.9,3.9l-4,0.1l-0.8,4.3l-4.1,0l-0.5,4.6l-3.9,0.6v5l-3.8,1l0.3,4.3l-3.8,1.4l0.4,4.1L3224.6,145.2z M3249.7,49.4
			c-0.5,0.4-0.7,1.1-0.6,1.8c0.5,1.4,2.4,1,2.6-0.1c0.1-0.4-0.2-1.1-0.7-1.3c-0.1,0-0.4,0-0.6-0.2c-0.1-0.1,0.6-0.5,1.1-0.4
			c0.5,0.2,1,0.9,1,1.5c0,0.2-0.1,0.6,0,0.7c0.9,0,1.9-0.5,2.9-0.8c1.6-0.5,2.2-1.4,1.9-2.5c-0.3-0.9-1.2-1.3-2.5-0.8
			C3253.2,48.2,3251.2,48.5,3249.7,49.4z M3180,149.6c5.5-3.9,8.8-6.1,15.9-6.5c-2.5-1-2.9-2.4-3.7-3.7c-8.8,0.8-13.5,3.6-17.6,6.3
			C3176.3,146.5,3178.1,147.4,3180,149.6z M3210.8,144.2c-2.7-1.9-5.9-3-9.2-3.9l-2.5,2.6C3198.9,142.8,3206.4,143,3210.8,144.2z
			 M3236.6,119.3c-17.3-26.6-5.7-50,6.4-64.9c0.4-0.5,0.5-0.5,0.4-0.9c-0.1-0.5-0.3-3.1-0.2-4.6c-22.2,22.1-22.8,50.8-8.9,73.6
			C3235.3,121.5,3237.3,120.3,3236.6,119.3L3236.6,119.3z M3239.2,117c-2.8-4.7-18-30.4,5.1-59c0,0-0.1-1.5-0.3-2
			c-0.3-1-0.8-1.4-0.8-1.4c-9.7,14.6-23.8,32.8-6.2,64.5L3239.2,117z M3225.9,68.7c0.3-0.3,0.8-1.3,0.8-1.7c0-0.4-0.3-0.7-2.9-3.3
			c-3.5-3.5-4.1-4.1-4.5-4.1c-0.4,0-1.5,1-1.5,1.4c0,0.2,1,1.3,3.4,3.7C3225.8,69.2,3225.6,69,3225.9,68.7L3225.9,68.7z
			 M3229.1,62.3c0-0.2-0.3-0.6-1.1-1.4c-2-2.1-4.9-4.7-5.1-4.7c-0.3,0-1.2,0.7-1.4,1.2c-0.2,0.3-0.2,0.4,0,0.7
			c0.4,0.6,4.8,4.8,6.1,5.9C3228.4,64.6,3229.1,62.8,3229.1,62.3L3229.1,62.3z M3230.9,59.6c0.4-0.2,1-1.4,0.9-1.8
			c0-0.2-1.2-1.4-2.5-2.7c-2.7-2.7-2.8-2.8-3.5-2.2c-0.6,0.5-1,1.1-0.9,1.3c0.1,0.3,4.1,4.3,4.9,5
			C3230.4,59.8,3230.5,59.8,3230.9,59.6z M3251.3,59.4c1.3-1.2-0.2-2.5-1.2-1.9c-0.4,0.3-0.7,0.9-0.6,1.3
			C3249.7,59.4,3250.6,59.8,3251.3,59.4z M3253.7,59.1c2.1-0.6,3.1-0.9,3.6-1.6c0.3-0.5,0.3-0.7,0-1.5c-0.3-0.7-0.7-0.9-2-0.2
			c-0.9,0.5-3,0.7-3.7,1.2c-0.3,0.2-0.1,0.2,0.1,0.4c0.5,0.3,0.8,0.5,0.7,1C3252.3,59.3,3252.4,59.5,3253.7,59.1L3253.7,59.1z
			 M3251.5,55.8c1-0.5,0.8-1.8-0.3-2.3c-1.5-0.4-2.5,1.4-1.3,2.3C3250.2,56,3251.1,56,3251.5,55.8z M3254.9,55.3
			c1.5-0.5,2.1-0.9,2.5-1.7c0.3-0.7,0.2-0.9,0.2-1.6c-0.1-1-0.6-0.8-1.9-0.3c-0.7,0.3-3.9,1.2-4,1.5c1.6,0.9,1.2,1.4,1.2,2.5
			C3252.9,55.9,3253.7,55.7,3254.9,55.3L3254.9,55.3z M3234.6,53.7c0-0.4-4.2-4.5-4.6-4.5c-0.7,0-1.7,1.1-1.5,1.7
			c0.1,0.3,4,4.2,4.5,4.5C3233.6,55.8,3234.5,54.4,3234.6,53.7z M3237,51.2c0.2-0.1,0.5-0.5,0.7-0.8c0.5-0.7,0.4-1-0.1-1.4
			c-0.2-0.1-1.1-0.9-1.9-1.8c-0.9-0.8-1.7-1.6-1.8-1.6c-0.7-0.1-2,1.1-1.9,1.6c0.1,0.3,3.3,3.5,4,3.9
			C3236.3,51.5,3236.6,51.5,3237,51.2z M3242.6,45.1c0-0.1-0.7-0.6-1.9-1.2c-3.6-1.9-3.6-1.9-4.7-1c-0.4,0.3-0.7,0.7-0.7,0.8
			c0,0.1,0.8,1,1.8,1.9c2,1.9,2.5,2.3,2.8,2.3C3240.5,47.4,3242.5,45.6,3242.6,45.1z M3247.6,43.3c0.4-0.5,0.9-2.3,0.7-2.7
			c-0.2-0.2-0.8-0.2-1,0.1c-0.3,0.2-1,2.5-0.8,2.8C3246.5,43.7,3247.2,43.6,3247.6,43.3L3247.6,43.3z M3208.8,120.8
			c0.3,0,1-0.5,2-1.3c1-0.9,4.3-2.8,4.6-3.6c0.2-0.4,0-1.1-0.3-1.1c-0.3,0-0.3,0.2-2.5,1.7c-1.5,1.1-4,2.9-4.4,3.3
			C3208,120.2,3208.4,120.8,3208.8,120.8z M3208.5,133.3c2.2-1.5,4-3.1,6.9-4.9c0.2-0.3,0.3-0.7,0.1-1.1c-0.2-0.4-0.4-0.3-1.3,0.3
			c-2.1,1.4-4.3,3.1-6.2,4.4c-0.6,0.4-1.1,0.6-1,0.8C3207.3,133.2,3208.2,133.3,3208.5,133.3z M3210.6,134.3
			c1.5-1.2,3.2-2.3,4.8-3.5c0.2-0.2,0.3-1,0.1-1.3c-0.2-0.2,0-0.2-0.5,0.1c-0.6,0.4-4.4,2.9-5.1,3.5c-0.4,0.3-0.8,0.5-0.6,0.6
			C3209.7,134,3210.2,134.2,3210.6,134.3L3210.6,134.3z M3212.5,135.2c0.3-0.2,2.9-1.9,3.1-2.1c0.2-0.3,0.2-1.4-0.1-1.5
			c-0.7,0.5-4.1,2.6-4.1,3C3211.7,135,3212.2,135.2,3212.5,135.2L3212.5,135.2z M3215.2,135.5c0.4-0.4,0.5-0.4,0.5-0.8
			c0-0.7-0.2-0.7-1.2,0c-0.7,0.5-1.2,0.8-1.1,1.1C3214,136.6,3214.7,135.9,3215.2,135.5L3215.2,135.5z M3215.5,137
			c0.2-0.1,0.2-0.2,0.2-0.4c0-0.3-0.1-0.3-0.4-0.3C3214.5,136.3,3215.2,137,3215.5,137z M3205.4,132.8c0.4-1.3,0.9-2.3,1.8-3.2
			c3.5-3.1,2.4-6.9,0.2-10c2.9-4,5.7-8.2,8.1-12.1l0-6.3l0.3,0c-0.1,13.8,0.5,36.3,0.5,36.3l2.8,2.2l-0.4,0.2
			C3219.3,139.8,3210.6,134.4,3205.4,132.8L3205.4,132.8z M3208,131.2c2.4-1.8,4.8-3.3,7.2-5.2c0.3-0.2,0.4-0.2,0.4-0.7
			c0-0.9-0.2-0.9-1.1-0.3c-0.4,0.3-1.8,1.3-3.2,2.2c-1.4,1-2.8,1.8-3,2.1c-1.3,1.6-1.8,2.3-1.7,2.5
			C3206.7,132.2,3206.9,131.9,3208,131.2z M3210.6,126.8c1.2-0.8,4.2-2.9,4.5-3.1c0.5-0.4,0.6-1.1,0.1-1.2c-0.2,0-2.5,1.5-4.4,3
			c-0.9,0.7-1.2,0.9-1.2,1.6C3209.6,127.4,3209.9,127.3,3210.6,126.8z M3211.9,123.6c3.8-2.7,3.7-2.5,3.6-3.5c0-0.3-0.1-0.5-0.3-0.5
			c-0.1,0-0.8,0.5-1.5,1c-0.8,0.5-1.7,1.2-2.1,1.6c-1.3,0.9-1.8,1.2-1.8,1.7c0,0.5,0.1,0.8,0.4,0.8
			C3210.3,124.7,3211,124.2,3211.9,123.6z M3211.3,121.5c1.8-1.2,3.7-2.6,3.9-3c0.3-0.4,0.3-1.3-0.1-1.3c-1.8,1.2-3.9,2.7-5.4,3.9
			c-0.2,0.2-0.4,0.3-0.5,0.6c0,0.3,0.3,0.7,0.5,0.7C3210,122.4,3210.5,122.1,3211.3,121.5z M3210.2,117.3c1.3-0.9,2.6-2,3.9-2.9
			c1-0.7,1.3-0.9,1.2-1.8c0-0.5-0.5-0.2-2.2,0.9c-1.2,0.8-1.8,1.2-2.2,1.7c-0.3,0.7-1.3,1.4-1.4,2.2
			C3209.5,117.8,3209.7,117.7,3210.2,117.3L3210.2,117.3z M3214.3,111.9c1-0.7,1.1-0.7,1-1.6c-0.1-1.1-0.3-1.1-1.2,0.4
			c-0.6,1-0.9,1.3-0.8,1.5C3213.4,112.5,3213.6,112.3,3214.3,111.9z M3210.5,103.5c-0.1-0.5-0.3-0.4-0.8,0.1c-1,0.8-1.1,1.4-0.5,1.8
			c0.3,0.2,0.6,0.1,0.7-0.3C3210.4,104.2,3210.5,103.9,3210.5,103.5z M3205.2,111.5c-0.1-0.5-0.7-1.1-1.1-1.3
			c-0.4-0.2-0.7-0.2-1.1,0.3c-0.4,0.5-0.2,0.8,0.4,1.5c0.4,0.5,0.6,0.7,0.9,0.7C3204.7,112.5,3205.3,112,3205.2,111.5L3205.2,111.5z
			 M3184.6,131.3c-0.3-0.5-0.8-1.1-1.1-1c-0.3,0.1-0.6,0.5-0.6,0.8c0.1,0.5,0.6,0.9,0.9,0.9C3184.4,131.9,3184.8,131.8,3184.6,131.3
			z M3187.1,130.5c-0.5-0.6-1.6-1.8-1.8-1.8c-0.3,0-0.9,0.7-0.9,1c0,0.3,1,1.7,1.3,1.8C3186.5,131.4,3188,131.5,3187.1,130.5z
			 M3190.2,130.7c-0.1-0.3-3.1-3.5-3.3-3.5c-0.3,0-0.9,0.6-0.9,0.9c0,0.2,1,1.5,1.9,2.5c0.5,0.5,0.5,0.5,1.1,0.5
			C3189.5,130.9,3190.3,131,3190.2,130.7z M3195.6,129.9c0-0.7-0.3-1-1.7-2.5c-0.5-0.5-1.3-1.5-1.9-2.1c-1-1.2-1.5-1.5-1.9-1.5
			c-0.3,0-0.8,0.5-0.8,0.9c0,0.2,2.5,3.1,4.8,5.6c0.5,0.5,0.7,0.7,1.2,0.4C3195.6,130.5,3195.6,130.2,3195.6,129.9L3195.6,129.9z
			 M3191.6,122.1c-0.5,0.4-0.7,0.6-0.7,0.9c0,0.4,4.4,5.3,4.8,5.3c0.2,0,0.2,0,0.3-0.6c0.3-1.6-0.2-2-1.3-3.1
			C3194,123.9,3192.4,121.6,3191.6,122.1L3191.6,122.1z M3199.4,118.9c-1.2-1.5-1.9-2.1-2.1-2.1c-0.2,0-0.4,0.2-0.7,0.5
			c-0.5,0.4-0.4,0.4-0.1,0.9c0.2,0.3,0.6,0.8,0.9,1.2c0.7,0.7,1,0.9,1.3,0.6C3198.9,119.6,3199.7,119.3,3199.4,118.9z M3198.7,115.2
			c-0.3,0-0.8,0.5-0.8,0.8c0,0.2,1,1.5,1.7,2.1c0.6,0.5,0.8,0.6,1.2,0.3c0.3-0.4,0.2-0.8,0-1.1
			C3200.4,116.8,3199.3,115.3,3198.7,115.2L3198.7,115.2z M3202.2,115.6c0-0.4-1.3-2.1-1.7-2.2c-0.3,0-1,0.8-1,1.1
			c0,0.2,0.3,0.6,0.7,1.1c0.9,1,1.1,1.3,1.3,1.1C3201.8,116.5,3202.2,116,3202.2,115.6z M3203.6,113.8c0.1-0.4-0.1-0.7-0.6-1.4
			c-0.6-0.8-0.9-0.8-1.5-0.2c-0.2,0.2-0.3,0.4-0.3,0.5c0,0.3,1.3,2,1.6,2C3203.2,114.6,3203.4,114.2,3203.6,113.8z M3201.3,117.9
			c-0.1,0.5-0.3,0.9-0.9,1.1c-4,2.9-3.9,7.6-4.7,11.9c-6.5-0.1-16.8,2.6-16.7,2.7l34.5-34.8c0,0,0.4,0.1,0.2,0.4
			c-2.8,2-2.6,5.9-4.5,7.9C3206.1,110.9,3203.3,114.1,3201.3,117.9L3201.3,117.9z M3182.5,132.1c0.1-0.4-0.3-0.5-0.6-0.2
			c-0.3,0.3-0.2,0.6,0.3,0.5C3182.4,132.4,3182.5,132.3,3182.5,132.1z M3193.2,130.7c0.1-0.3-0.2-0.6-2-2.7
			c-1.9-2.1-2.3-2.6-2.6-2.6c-0.3,0-0.9,0.7-0.9,1c0,0.1,0.3,0.5,0.7,0.9c0.4,0.4,1,1.1,1.5,1.7c0.8,0.9,1.2,1.4,1.5,1.6
			c0.3,0.2,0.5,0.2,1,0.2C3193,130.8,3193.1,130.8,3193.2,130.7z M3196.4,124.1c0.1-0.4,0.3-0.8,0.3-0.9c0-0.3-2.4-2.7-2.8-3
			c-0.5-0.3-1.4,0.7-1.2,1.3c0.1,0.2,0.8,1,1.6,1.8c1,1.1,1.5,1.6,1.7,1.6C3196.2,124.9,3196.2,124.7,3196.4,124.1L3196.4,124.1z
			 M3197.4,121.6c0.2-0.3,0.3-0.6,0.3-0.7c0-0.2-0.4-0.7-1-1.3c-1.1-1.2-1.3-1.3-1.9-0.8c-0.6,0.6-0.4,0.8,0.6,1.9
			C3196.7,122.2,3196.8,122.3,3197.4,121.6z M3206.4,110.3c0.4-0.5,0.4-0.7,0-1.1c-0.2-0.2-0.4-0.4-0.5-0.6
			c-0.3-0.4-0.8-0.3-1.2,0.2c-0.2,0.2-0.4,0.5-0.4,0.6c0,0.1,0.2,0.4,0.5,0.7C3205.5,110.8,3205.9,110.9,3206.4,110.3L3206.4,110.3z
			 M3207.8,108.5c0.3-0.4,0.1-0.9-0.4-1.3c-0.5-0.4-0.7-0.5-1-0.1c-0.4,0.5-0.4,0.7,0.1,1.2C3207,108.9,3207.5,109,3207.8,108.5z
			 M3208.9,107c0.4-0.4,0.4-0.7,0-1.1c-0.3-0.4-0.6-0.5-1-0.3c-0.6,0.3-0.5,0.8,0.1,1.4C3208.3,107.3,3208.5,107.4,3208.9,107z
			 M3182.5,181.3c7.1,0.8,14.7,1.3,28-0.7l0.1-4.5c-4.2,3.3-9.7,1-10-2.7c0-3.3,0.9-7.2,1.6-9.9c0.6-2,0.7-2.8,0.2-3.2
			c-1.2-0.7-3.2-0.7-3.7-2.1c-0.3-0.7-0.3-1.5,0.1-0.9c0.2,0.3,1.5,0.9,2.5,1.1c1.8,0.4,2.1,0.5,2.3,1.3c0.1,0.5-0.2,2.1-0.6,3.6
			c-0.3,1-0.7,2.7-0.7,3.1c0,0.4,0.3,0.4,0.6,0.3c0.1,0,0.8-0.7,1.2-1c1.7-1.6,2.2-1.5,0.8,0c-0.6,0.6-1.4,1.4-1.4,1.5
			c0,0.3,0.3,0.3,1,0c1-0.4,3.4-0.3,4.5,0.2c1.3,0.7,1.4,0.6,1.4-1.4c-0.2-3.8-0.9-8.3-2.1-11.8c-1.9-5.4-5.8-10.3-11.6-10.1
			c-7.1,0.4-11.3,3.2-16.1,6.6c2.9,6.4-1.3,11.4-2.8,12c-0.1,0.1,1.9,6.5,2.8,9.8C3181.2,175.2,3182.5,181.3,3182.5,181.3
			L3182.5,181.3z M3212.5,26c-0.2-0.4-4.1-13.2-5.2-18.6c-10.6-0.6-18.5-1.5-27.8,1.2c0,0-0.2,3.6-0.1,3.8c0.1,0.4,0.4,0.4,0.7,0.3
			c4.3-2.4,9-1.3,9.3,4.5c0.1,2.2-0.6,3.8-0.8,5.9c-0.1,1.9-1.6,4.3-0.7,5.7c0.1,0.2,0.7,0.5,1.6,0.9c1.6,0.7,2.2,1.3,2.3,2.3
			c0.2,0.7-0.3,1.2-0.4,0.5c-0.1-0.5-0.2-0.9-2.1-1.5c-1.9-0.7-2.4-1.4-2.6-1.8c-0.3-0.6-0.2-0.9,0-1.8c0.5-1.9,1-3.8,1-4.7
			c0-0.3-0.4-0.2-0.8,0.2c-0.6,0.5-3.1,2.1-3.1,2.1c0,0,0.4-0.7,1.1-1.4c0.8-0.8,1.9-1.8,1.9-2c0-0.3-0.1-0.1-0.9,0.1
			c-1.4,0.4-3.1,0.3-4.2-0.2c-0.9-0.4-1.6-0.7-1.7-0.4c-0.3,5.7,0.5,11.6,2.9,16.2c2.1,4.2,6.6,9.4,13.3,8.2
			c6.9-1.2,13.6-6.8,13.4-6.8C3207,32.9,3209.9,28.6,3212.5,26L3212.5,26z M3157.7,181.7c-3.1-3.1-10.8-6.4-16.1-7.9
			c-0.4-0.1-0.8-0.3-0.8,0.2l-0.1,10.5l-9.5,8.9v4.2h20.4l13.4-19.6c0,0,0.6-0.1,0.7-0.2c-2.5-10.4-6.1-18.7-8.5-22.9
			c0,0.1-3.4,2.8-6.4-0.6c-1.7-1.9-0.7-5.2,0.9-6.4c-1.3-1-4.1-2.8-6-3.3c-0.4-0.1-0.9,0.7-1.1,1.4c-0.3,1.1-0.9,2.1-1.3,3.3
			c-0.4,1-0.8,1.1-1.4,0.8c-1-0.3-1.2-0.4-1.2-0.4l0,12.4C3148,164.6,3155.6,171.1,3157.7,181.7L3157.7,181.7z M3188.2,49.2l2.2-2.4
			c-3.4-0.4-7-1-11.2-2.4C3182,46.7,3185.1,48,3188.2,49.2z M3176.2,42.6c3.8,1.3,8.7,4.3,14.7,3.1c-5.5-2.2-9.7-7.3-11.5-17.7
			c-0.4,2-1.2,6.2-2.5,6.7c-1.8-6.9-9-2.9-6.1,2.7c-7.3,5-16,7.8-23.9,11.7c0,0-1.2,3.7-7.1,8.7c-1.1-5.9,0.2-14.6-0.5-20.5
			l-9.3-8.8c0.1,1.7,0.1,2.7,0,4.7c0.3,0.3,0.6,0.5,1,0.7c0.6,33.9-0.2,67.4-0.2,98.2c-0.1,18.9,0.4,38.5,0.1,56.3l-0.3,0.6l0,4.3
			l9.5-9.1c0,0-0.4-6.4,0.1-11.3c6,1.2,11.6,4,16.6,7.1c0.6,0.2-3.1-12.3-16.6-17.9c0,0,0-3.9,0-12.4c0-8.2-0.1-9.1-0.3-9.2
			c-0.5,0.6-7.4,2.9-7.8,2.5c0.2,0.1-1.9-14.5-0.1-16.7l6.6,0.1c1.9,1.5,1.1-0.3,2.2-0.6c0.7-0.2,3.7,1,3.7,1
			c12.6-14.9,11.3-39.3,2.3-53.1c-2.3,1.9-4.8,4.4-7.1,5.5c0-0.1,0-7.6,0-7.6c12-7.7,25.1-30.1,24.3-30.2c0,0,3.7,3.6,5.2,5.7
			l-11.9,17.2c2.7,5.5,5.5,10.4,7.3,15.3c0.2,0.7,1,0.6,1.2,1.3c0.2,0.6-0.6,1.4-0.5,2c2.5,9.6,3.1,19.8,0.6,29
			c-0.5,2.1,0.4,3.8,1.7,5.3c0.1,0.1-1.2-1.1-1.3-1.2c-0.4-0.3-1.2,0.7-1.3,1.8c0.1,0.7,0.5,0.9,1,1.4c0.9,0.8,4.6,4.3,6.2,6
			c1.4,1.5,1.8,1.5,2.8,0.5c0.3-0.3,0.6-0.6,0.8-0.8c0,0.1,0.4-0.3,0.5-0.4l21.4-20.9c2.5-2.4-21.4,22-21.4,22s-11.6,11.4-14.4,14.2
			c-2.9,2.9-3.3,3.5-3.5,3.7c-0.2,0.4,0.9,0.4,1.5,0.3c0,0-0.4,0.1-0.9,0.1c-3-0.4-4,2.7-5.9,3.3c-5,3.6-1.6,9.3,3.2,7.4l1.2-0.6
			c2.9,5.4,7.1,15.3,9.1,23.9l-0.8,0.4l-12.7,19h71.9c-5.2-5.1-9.6-11.5-14-16.2c-7.2,2.1-28.9,1.7-28.5,0.8c0,0-3.3-13.3-5.1-19.8
			c5.9-5.1,5.3-13-3.3-16.6c6.2-4.9,12.5-6.6,18.6-7c2,5,6.6,5.4,8.9,0.7c0-0.1,8.3,2.5,11.3,5.3c-4.5-0.5-9-1.4-13.5-1.6
			c4,1.6,8,5.7,9.3,10.4c0.6,1.7,1.6,7.2,1.9,7.2c0,0,1.5-6.4,2.7-6c3,6.2,8.1,1.5,6-3.4c7.6-3.6,16.1-7.7,23.1-11
			c2-3.1,7-8.9,7.4-8.9c0,0,9.2-52.8,9.2-70.4c-0.3-21.2,0.4-44.8-0.5-64.7v-5.7h-19.4L3224.8,11c0,0-0.1,0.3-0.1,0.5
			c1.9,8.2,4.3,15.3,8.1,22.9c5.3-4,9.7,2.6,5.8,6.4c-0.7,0.7-0.5,0.9,0.2,1.4c0.7,0.5,5.7,3,6,3c0.9-1.3,1.2-3.3,1.8-4.8
			c0.2-0.6,0.6-0.6,1.5-0.5c1.1,0.1,1.1,0.6,1.1-6.5l0-6.1c-6.8-3.1-15.7-11-16.1-19.2c3.9,2.8,12.9,7,15.3,7.3
			c1.1,0.3,0.9-1.5,0.9-2.3c0.3,0.2,0.4,3,0.4,3c-4-1.2-6-1-15.9-6.7c1.7,8.1,9.8,14.5,15.7,17.4c0,0,0.2,3.8,0.2,8.1
			c0,13.1,0.1,13.7,0.1,13.7c0,0,3.2-0.8,4.1-1.3c1.6-1.3,4.2-0.3,4.5,0.6c0.5,5,0,9.5-0.1,14.3c-2.7,0.2-4.2,0.8-5.6,0.8
			c-0.9-0.1-1.4-0.1-1.9-0.6c-1.3-2.8-1.2-1-1.4,1.1c-0.1,0.6-3.4-0.5-3.7-0.7c-14.1,16.3-12.9,35-3.3,52.4c1.6-1.1,4.3-3.1,7-4.5
			c0.1,2.2,0.1,6.8,0.1,6.8c-11.1,8.1-24.3,29.6-23.9,29.7l-4.5-5.4c0,0,2.8-4.5,3.8-5.7c0.1-0.1,0.2-1.5,0.2-1.5l6.9-9.9
			c-2.9-6.6-6.9-11.7-8-18.2c-4.6-20.7,0.4-31,0-31.8c0,0-0.1-0.4-0.2-0.5c-0.2-0.1,0-0.2,0.2-0.5c0.3-0.6,0.8-1.8,0.7-2.1
			c-0.1-0.3-3.8-4-7-7c-1.7-1.6-1.6-1.8-2.5-0.9c-0.3,0.3-1.1,1.3-1.1,1.3c-11.5,10.7-20.6,20.4-32.2,31.7l-0.6-0.5
			c16.8-16.7,33.8-33.3,50.4-50.1l-2.9,0c0.1-0.2,0.2-0.4,0.4-0.5c1.6,0,3.2-0.5,4.3-1.1c2.4-1.8,5.8-4.1,6-6.5
			c-0.2-4.5-3.9-5.1-6.7-2.9c-3.8-6.8-6.8-15-8.4-22.7c-0.1-0.4-0.6-1-0.7-1.5c0.8-2.5,13.7-20.1,13.7-20.1h-72.3l13.8,16.4
			c0-0.7,19.6-3,28.6-0.2l5.5,19.4c-5,4.8-6.4,12.7,2.7,16.8c0.2,0.4-0.9,1-0.9,1c0.1-0.2,0.4-0.5,0.3-0.7c-2.5-1.1-5.1-3.8-5.1-3.8
			c-5.5,4.3-10.6,6.7-15.7,6.9c0,0,2.7,1.8,3.2,3.8c0,0-0.2,0-0.3-0.1c-0.5-0.7-1.8-2.8-2.9-3.5c-1.8-0.4-2.9-0.1-4.3,0.9l-1.9,1.8
			C3183.8,48.1,3178.9,45.9,3176.2,42.6L3176.2,42.6z M3175.5,90.1l2-2c0.2-1.5,0.6-3.3,2.3-5.4c1.9-2.3,4-4.4,5.5-6.4
			c1.8-2.4,2.8-4.6,2.3-5.6c2.7-0.5,5.2-2.9,5.3-7.3c0-2.3,1.1-5.7,1.2-5.6c0,0,19.1-0.7,32.2-13.2c0,0,0.9,0.2,0.7,0.4
			c-5,5-10.3,8.7-16.5,11l-34.5,34.5L3175.5,90.1z M3179.3,86.2c0.5-0.5,0.6-0.7,0.3-0.9c-0.4-0.4-1.3,0.4-1.3,1.2
			C3178.4,86.9,3178.7,86.8,3179.3,86.2L3179.3,86.2z M3181.1,84.4c0.4-0.4,0.4-0.7,0.1-1c-0.5-0.5-1.1-0.2-1.4,0.6
			C3179.6,84.7,3180.5,85,3181.1,84.4L3181.1,84.4z M3182.7,82.8c0.2-0.2,0.4-0.5,0.4-0.5c0-0.3-0.7-0.9-0.9-0.9c-0.4,0-1,0.6-1,1
			c0,0.3,0.7,0.9,1,0.9C3182.2,83.3,3182.5,83.1,3182.7,82.8z M3184.2,79.9c-0.5-0.4-0.8-0.4-1.2,0c-0.5,0.5-0.4,0.9,0.1,1.4
			c0.4,0.4,0.6,0.4,1.1,0C3184.7,80.9,3184.8,80.4,3184.2,79.9z M3185.9,79.6c0.5-0.4,0.4-0.8-0.1-1.3c-0.6-0.6-1-0.6-1.4,0
			c-0.2,0.2-0.2,0.5-0.2,0.5c0,0.2,1,1.1,1.2,1.1C3185.5,79.9,3185.7,79.8,3185.9,79.6z M3187.6,78c0.4-0.5,0.4-0.8-0.2-1.4
			c-0.5-0.5-0.9-0.6-1.3-0.2c-0.5,0.4-0.4,0.9,0.2,1.4C3186.7,78.4,3187.1,78.5,3187.6,78z M3189.5,76c0.3-0.3,0.2-0.3,0-0.7
			c-0.3-0.6-1.4-1.5-1.6-1.5c-0.4,0-0.7,0.6-0.7,1.2c0,0.6,0.3,0.8,1,1.4c0.5,0.4,0.3,0.4,0.7,0.2
			C3189.1,76.5,3189.3,76.2,3189.5,76L3189.5,76z M3191,74.7c0.7-0.8,0.5-0.9-1.1-2.7c-0.6-0.6-0.7-0.7-1.1-0.6
			c-0.4,0-0.4,0.1-0.6,0.5c-0.4,0.7-0.1,1.1,0.9,2.2C3190.2,75.2,3190.4,75.3,3191,74.7z M3192.7,72.9c0.3-0.2,0.4-0.5,0.4-0.7
			c0-0.3-1.3-1.8-1.8-2c-0.3-0.2-0.7-0.1-1.1,0.3c-0.3,0.2-0.3,0.3-0.2,0.5c0.1,0.4,1.8,2.2,2.1,2.2
			C3192.2,73.2,3192.4,73.1,3192.7,72.9z M3194.3,71.2c0.3-0.3,0.5-0.6,0.5-0.8c0-0.3-1.4-2-1.9-2.2c-0.4-0.2-0.6-0.1-1,0.4
			c-0.4,0.6-0.3,0.9,0.6,1.9c0.8,0.9,1.1,1.2,1.2,1.2C3193.8,71.7,3194,71.5,3194.3,71.2z M3195.9,69.5c0.4-0.2,0.8-0.7,0.6-1.1
			c-0.2-0.4-2.7-3-3-3.2c-0.5-0.3-0.5,0.1-0.5,1.4v0.7l1.2,1.1C3195.9,70.2,3195.5,69.8,3195.9,69.5L3195.9,69.5z M3197.9,67.7
			c0.2-0.2,0.4-0.5,0.4-0.7c-1-1.3-4.1-5.3-4.6-5.1c-0.1,0-0.1,0-0.1,0.1c-0.1,0.4-0.2,1.2-0.1,1.9c1,0.9,3.2,3.9,3.7,4.1
			C3197.5,68.1,3197.6,68,3197.9,67.7L3197.9,67.7z M3199.6,66c0.2-0.2,0.3-0.4,0.3-0.6c0-0.1-0.3-0.5-0.7-1
			c-0.4-0.4-1.1-1.3-1.6-1.9c-2.8-3.6-3.1-3.8-3.5-3.5c-0.3,0.2-0.4,1.1-0.2,1.4c0.2,0.5,3.4,4.3,4.4,5.3
			C3198.9,66.4,3199.1,66.4,3199.6,66z M3201.2,64.4c0.2-0.2,0.4-0.5,0.4-0.7c0-0.1-0.5-0.7-0.9-1.3c-0.5-0.6-1.3-1.5-1.8-2.1
			c-1.3-1.6-1.3-1.6-2.2-1.7c-1.4-0.1-1.3,0.2,0.4,2.1c0.4,0.5,1.1,1.4,1.7,2c1.2,1.5,1.7,2.1,2,2.1
			C3200.8,64.8,3200.9,64.6,3201.2,64.4L3201.2,64.4z M3202.9,62.8c0.7-0.6,0.6-0.8-1.8-3.3c-0.8-0.8-0.8-0.9-1.5-0.9
			c-0.6,0-0.8,0.1-0.8,0.4c0,0.2,3.1,3.9,3.4,4C3202.4,63.1,3202.5,63.1,3202.9,62.8z M3204.6,61c0.2-0.2,0.4-0.5,0.4-0.6
			c0-0.3-0.7-1.1-1.3-1.7c-0.3-0.3-0.7-0.5-0.9-0.5c-0.4,0-1.1,0.2-1.2,0.4c-0.1,0.1,0.9,1.3,1.8,2.2
			C3203.9,61.4,3204.1,61.5,3204.6,61L3204.6,61z M3206.2,59.4c0.4-0.4,0.4-0.7,0-1.3c-0.3-0.4-0.4-0.4-1-0.4
			c-1.1,0-1.2,0.3-0.3,1.2C3205.5,59.7,3205.7,59.9,3206.2,59.4z M3207.8,57.8c0.4-0.6,0.1-0.9-0.7-0.5c-0.2,0.1-0.3,0.3-0.3,0.4
			C3206.6,58.2,3207.4,58.3,3207.8,57.8z M3180.3,62.5c-1.6,1-4.3,2.9-6.1,4.2c0,0.3-0.1,1,0,1.5c1-0.7,4.3-2.8,5.9-4
			C3180.1,63.7,3180.2,62.9,3180.3,62.5L3180.3,62.5z M3183.2,57.9c-0.1-0.3-0.2-0.1-0.7,0.3c-0.6,0.5-5.9,4.4-7.2,5.4
			c-0.5,0.4-1,0.7-1.1,0.8c-0.1,0.1-0.1,1.2,0.1,1.4c1.1-0.9,6.5-4.5,6.6-4.6C3181.4,60.3,3182.6,58.8,3183.2,57.9L3183.2,57.9z
			 M3182.6,69.6c0,0-6.4,7.7-8.5,11.6c0,0,0,4.4-0.1,6.9l-0.4,0.1c0,0,0-6.8-0.1-14.2c-0.2-18.4-0.4-22.9-0.4-22.9l-2.1-1.5
			l-0.1-0.7c0,0,9.3,6.5,13.8,7.5C3181.4,61.5,3178.4,63.5,3182.6,69.6L3182.6,69.6z M3175,78.8c0.1-0.3,0-0.3-0.2-0.3
			c-0.2,0-0.3,0.2-0.3,0.4c0,0.2,0,0.3,0.2,0.2C3174.7,79.1,3174.9,79,3175,78.8z M3176.5,76.5c0.9-1.1,1.7-1.9,1.8-2.7
			c-0.6,0.1-4,2.5-4.1,2.7c0,1.3-0.3,1.4,0.8,0.9C3175.5,77.2,3175.9,76.9,3176.5,76.5L3176.5,76.5z M3176.8,73.7
			c1-0.8,4.6-2.8,5-3.7c0.2-0.4-0.4-0.9-0.4-0.8c0.1,0.1-5.2,3.2-7.1,4.9c-0.2,0.2-0.1,0.6,0,0.9C3174.5,75.4,3174.9,75,3176.8,73.7
			L3176.8,73.7z M3175.6,72.2c1.1-0.7,3.6-2.5,4.3-2.9c1.1-0.8,1.3-1,0.9-1.6c-0.2-0.2-0.4-0.4-0.7-0.2c-3.1,2.2-3.4,2.5-5.8,4.1
			c-0.2,0.4-0.1,1.1,0.1,1.3C3174.6,72.9,3174.9,72.7,3175.6,72.2z M3175.6,69.8c2.9-2.1,4.4-3.1,4.5-3.3c0.1-0.3,0.1-1.2,0-1.3
			c-1.1,0.8-3.9,2.5-5.8,4.1c-0.1,0.3-0.1,1,0,1.2C3174.6,70.6,3174.7,70.4,3175.6,69.8L3175.6,69.8z M3175.2,62.4
			c2.1-1.5,4-2.9,6.2-4.3c1.8-1.2,2.1-1.5,1.4-1.9c-0.2-0.1-0.7-0.3-1-0.2c-2.4,2-5.1,3.8-7.7,5.8c-0.1,0.3,0,0.8,0,1.1
			C3174,63.2,3174.5,62.9,3175.2,62.4L3175.2,62.4z M3174.9,60.2c0.2-0.1,1.3-0.9,2.4-1.7c3.1-2.2,3.5-2.5,3.5-2.7
			c0-0.7-0.9-0.8-1.7-0.1c-1.5,1.2-5.1,3.4-5.1,3.8c0,0.5-0.1,0.9,0,1.1C3174.3,60.8,3174.5,60.6,3174.9,60.2L3174.9,60.2z
			 M3175.8,57.1c3.2-2.2,3-2.1,3-2.5c0-0.3-0.3-0.2-0.8-0.2c-0.5,0-0.5,0.1-1.3,0.8c-1.8,1.4-2.5,1.8-2.7,2.2
			c-0.1,0.1-0.1,0.6,0,0.8C3174.3,58.3,3174.5,58.1,3175.8,57.1z M3176,54.9c0.6-0.5,1.1-0.9,1.2-1c0.1-0.2-0.4-0.7-0.7-0.7
			c-0.4,0-0.7,0.2-1.6,1c-0.8,0.7-1,0.6-0.9,1c0,0.2,0,0.8,0.1,0.8C3174.2,56.4,3174.7,56.1,3176,54.9z M3174.8,53.5
			c0.7-0.6,0.8-0.7,0.3-1.2c-0.4-0.4-1-0.6-1.2-0.3c-0.1,0.2,0,1.4,0,1.6C3173.8,54,3174.3,53.9,3174.8,53.5L3174.8,53.5z
			 M3189.1,41.4c0-0.2,1.2-1.1,2-1.3c1.1-0.2,2.5-0.1,3.5,0.4c0.8,0.4,1.8,1.4,0.4,0.8c-1.2-0.6-3.9-0.6-4.9-0.1
			C3189.4,41.5,3189.1,41.6,3189.1,41.4z M3188.2,37.1c0.1-0.1,1.3,0.2,1.9,0.4c1.7,0.5,3.1,0.2,4.9-0.3c0.4-0.1,0.6,0.2,0.4,0.4
			c-0.9,0.6-2.1,1-3.1,1.1C3190,38.9,3187.6,37.7,3188.2,37.1L3188.2,37.1z M3177.2,33.8c1-0.5,2.1-7.1,1.8-8.2
			c-1.2,1.8-2.5,2.6-4.4,2.3c-3.1-0.5-3.2-4.3-0.8-4.7c0.9-0.2,2.1,0.5,2.3,0.3c1-0.5,1.8-3.9,2.1-5c0.2-1.1,0.4-4.1,0.5-5
			c0.1-2,0-5,0-5l-14.9-18h-32.5c0,0-0.1,25,0,37.8l9,8.9l0.1,14.4c10.4-4.5,20.4-9.3,30.2-14.4c-1.1-1.4-1.1-4.8,1-6.1
			C3174.5,29.3,3177,31.8,3177.2,33.8L3177.2,33.8z M3185.4,36.9c0.1-0.8,0.7-1.5,0.7-2.3c0-0.2,0.1-0.4,0.6-0.1
			c0.6,0.3,0.8,0.1,1.5-0.2c1.3-0.6,1.6-0.6,2.6-0.2c0.6,0.3,0.8,0.3,1.4,0c0.8-0.5,1.7-0.7,2.4-0.5c1.1,0.4,1.4,0.6,2,0.3
			c0.3-0.1,0.7-0.7,0.8-0.7c0.4,0.7,0.4,1.7,0.6,2.3c0.5,1,0.3,1.7-0.3,1.2c-1.2-1-2.2-1-3.9-0.6c-1,0.3-1.5,0.5-2.7,0.3
			c-3.5-0.4-3.8-0.3-4.5,0.2C3186,37,3185.5,37.1,3185.4,36.9L3185.4,36.9z M3194.9,30.4c-1-0.3-2.2-1.2-3-0.9
			c-1,0.1-1.6-1.2-1.1-1.8c0.9-0.9,2.3,0,2.9,0.4c1.2,0.9,1.4,1,1.9,1c2,0,1.6-1.9,0.6-2.6c-0.6-0.6-0.6-1-0.5-1.1
			c0.2-0.2,0.8,0,1.4,0.6c1.2,1.1,1.2,3.4-0.2,4C3196.1,30.4,3195.6,30.6,3194.9,30.4z M3199.1,24c-0.9-0.7-2.6-2.2-3-2.7
			c-0.7-0.9-1-1.5-0.9-2.2c0.1-0.6,0.2-0.9-0.2-1.1c-0.4-0.2-0.8-1.1-0.7-1.5c0-0.1,0.5,0,0.7,0.3c0.3,0.1,0.3-0.1,0.6-0.4
			c3.8-2.5,6.8-2.1,10.4-0.3c1,0.5,3.8,2.6,2.3,1.9c-0.1,0-1-0.5-2-0.9c-3.1-1.5-6.6-2.4-9.4-0.5c-0.5,0.3-0.8,0.6-0.4,0.6
			c1.6-0.3,3.2-1,4.8-0.9c2.4,0,3.9,1.2,5.7,2.1c2,0.9,2.4,1.2,1.6,1.9c-0.2,0.2-0.4,0.2-1.3,0.1c-1-0.1-1.1,0-1.7,0.3
			c-1.5,1-3.5,1.5-5.2,1.4c-2.1-0.2-2.3-0.3-2.3,0c0,0.2,0.4,0.5,1,1.1c0.5,0.4,1.1,1,1.1,1.1C3200.4,24.5,3199.6,24.4,3199.1,24z
			 M3198.5,20.7c0-0.2-0.5-1.3-0.7-1.6c-0.3-0.3-0.5-0.2-1,0.2c-0.4,0.3-0.5,0.5-0.1,0.9C3197.5,20.9,3198.5,21.1,3198.5,20.7z
			 M3201.6,20.8c0.8-0.4,1.7-1.8,1.3-2.3c-0.2-0.3-0.4,0-0.9,0.8c-0.2,0.4-0.6,0.8-0.7,0.9c-0.7,0.5-1.6,0-2-1
			c-0.2-0.6-0.5-1-0.7-0.8c-0.5,0.4,0.1,2,1,2.4C3200.2,21.1,3201,21.1,3201.6,20.8z M3204.2,20.6c0.8-0.3,1.2-0.6,1.2-1
			c-0.1-0.3-0.7-0.7-1.1-0.7c-0.2,0-0.5,0-0.7,0.2c-0.3,0.4-0.7,1.5-0.8,1.7C3202.9,21,3203.2,20.9,3204.2,20.6L3204.2,20.6z
			 M3207.1,14.3c-4.2-1.6-7.5-2.3-11.5-0.5c-1.3,0.6-2,0.6-2.1,0.2c-0.1-0.4,0.9-1.5,1.9-2c2.8-1.3,6.1-1.4,9,0c1.1,0.5,4,2.6,4,2.8
			C3208.3,14.8,3208,14.7,3207.1,14.3z M3256.3,61.5c1-0.5,1.5-1.6,0.8-2.2c-0.2-0.2-0.4-0.2-0.6-0.2c-0.4,0-3,0.7-3.5,1
			c-0.3,0.2-0.2,0.5,0.1,0.8c0.1,0.1,0.3,0.4,0.3,0.7c0,0.4-0.1,0.8,0.2,0.7C3254.2,62.2,3255,62.1,3256.3,61.5L3256.3,61.5z
			 M3252.6,62.4c0.3-0.5,0.2-1.2-0.6-1.7c-0.4-0.2-0.7-0.1-1,0.4C3250.2,62.5,3252.1,63.1,3252.6,62.4z M3248.8,63.1
			c0.2-1.7,0.1-6.9,0.1-6.9s-0.9,0.8-1.5,0.8c0.2-0.8,0.5-1,0.8-1.8c0.2-0.8,0.3-2.2,0.2-2.9c-0.1-0.9-0.7-0.9,0-2.4
			c0.3-0.8,0.4-1.6,0-2.6c-0.2-0.5-0.2-0.8,0.2-1.4c0.4-0.6,0.3-0.9,0.3-2c0-1.6,0-1.9-0.5-0.6c-0.7,1.1-1.1,0.9-2.2,0.8
			c-1.1,2.5-2.4,5-2.4,7.2c0,1.3,0,1.5,0.8,4.3c0.3,1,0.4,1.4,0.4,2.6c0,1.2,0.1,1.6,0.3,2.3C3245.5,61.6,3246.8,63.6,3248.8,63.1
			L3248.8,63.1z M3210.6,173.8l0-2.5c0,0-4,1.2-6,0.5c-2.1-0.6-2.1-0.7-2-0.4c0.1,0.4,1.6,1.2,3,1.5c1,0.2,3,0,4-0.3
			c0.6-0.2,0.6,0,0.4,0.2c-2.4,1.9-5.5,1-7.4-0.6c-1-1-1.7-1-1.2,0.3C3204.1,178,3210.7,174.8,3210.6,173.8L3210.6,173.8z
			 M3208,170.2l0.9,0c0,0-0.3-1.6-0.7-2c-1-0.9-2.3-0.8-3.2,0.1c-0.4,0.4-0.7,1.9-0.7,1.9l0.7,0
			C3205.3,169.5,3206.4,166.2,3208,170.2L3208,170.2z M3204.4,167.8c-0.5-0.1-1.6,0.4-2.2,0.7c-0.2,0.2-0.2,0.3,0,0.6
			c0.5,0.7,1.3,1,1.4,0.8C3203.8,169.5,3204.4,167.9,3204.4,167.8L3204.4,167.8z M3210.3,169.5c0.1-0.5-0.3-1.3-1-1.6
			c-0.3-0.1-0.6-0.1-0.5,0.2c0.1,0.4,0.3,1,0.5,1.4c0.1,0.3,0.2,0.5,0.5,0.4C3210,169.8,3210.2,169.7,3210.3,169.5L3210.3,169.5z
			 M3248.9,136.7l0-4.2c-2.1,2.1-4.9,5.7-5.7,7.1L3248.9,136.7z M3184.3,21.1c0.9-0.4,1.6-1.6,1.3-2.1c-0.1-0.4-0.5-0.1-0.9,0.5
			c-0.6,0.9-0.8,1-1.3,1c-0.6,0-0.8-0.1-1.2-0.9c-0.3-0.7-0.5-0.8-0.7-0.5c-0.1,0.1-0.1,0.3,0,0.9C3182,21.2,3183,21.7,3184.3,21.1z
			 M3186.7,20.7c1-0.3,1.2-0.5,1.2-0.8c0-0.3-0.8-0.8-1.3-0.7c-0.3,0.2-1.2,1.5-1.1,1.8C3185.6,21.1,3185.9,21,3186.7,20.7z
			 M3181,20.1c0-0.3-0.1-0.6-0.2-0.7c-0.3-0.4-1-0.1-1,0.4c0,0.4,0.5,0.8,1,0.8C3181.1,20.6,3181.1,20.6,3181,20.1z M3186.6,17.6
			c1.4,0.5,2.1,0.6,1.4-0.1c-1.1-1.2-5.9-2.5-8.5-0.6c-0.2,0.3-0.1,1.3,0.1,1.2C3181.6,16.7,3184.3,16.7,3186.6,17.6L3186.6,17.6z
			 M3181.8,13.6c-1.2,0.4-2.3,1-2.4,1.6c-0.2,0.9,0.2,0.9,1.7,0.5c2-0.7,4.2-0.4,5.9,0.6c1.3,0.9,1.7,0.6,1.5-0.2
			C3187.7,13.5,3183.7,13,3181.8,13.6L3181.8,13.6z"/>
		<path id="path6265-7" fill="#E2CF00" d="M3258.1-3.3l-8.7,8.7l0.1,10.3c0.9,1.6-13.5-4.6-15.8-6.5c0.3,6.9,9.6,14.7,15.7,17.5
			l0.2,21.9c2.5-1.3,5.6-2.1,7.8-2.3C3258.6,31.4,3259.6,12,3258.1-3.3z M3209.4,7.5c-0.9,0-1.4,0.2-1.4,0.8
			c-0.3,0,3.2,12.8,4.8,18.2c-3.1,3.1-6.3,8.5-1.7,13.6c1,1.1,2.8,2,4.5,3c0.8,0.7-9.4,7.3-18.4,7.3c-2.9-6.4-6.9-2.8-9.2-0.6
			c-1.7-0.2-8.2-4-11.6-6.2c-0.1,0,0-1,0-1.1c0.2,1.5,13,4.8,13.6,3.3c-0.4,0-5.7-3.6-7.3-7.2c-2-4-3.5-9.6-3.5-9.6
			c-0.7,2.1-0.5,4.9-2.4,5.9c-0.6-6.7-10.1-3.3-5.4,3.3c-2.7,0.8-5,2.2-7.5,3.3c5.4,7.4,12.9,12.3,20.8,15.2
			c-1,2.2-7.2,7.2-2.1,13.1c0.2,0.2-4.8,5.7-7.3,10c-1.9,3.2-1.3,5.7-1.1,5.8c6.8-7.8,10.7-14.5,10.7-14.5c-0.1,0.9,8.1,0.4,8-6.9
			c0.2-2,0.5-4.1,1.3-6c12.5,0.6,23.2-3.9,32.3-13.2c0,0,1.8,0.5,3,0.7c3.2-0.1,5-1.7,6.5-3.2c1.4-1.1,2.7-2.2,3.2-3.3
			c1.8-7.7-6.1-4.7-6.4-4.3c-4.5-6.1-8.3-23.4-8.9-23.5C3221.3,10.7,3212.8,7.4,3209.4,7.5L3209.4,7.5z M3178.7,19.2
			c-0.3,0-1.5,5.4-2.6,5.3c-4.5-2.9-4.6,3.1-0.7,2.8C3178.7,27.1,3180.5,21.9,3178.7,19.2C3178.7,19.2,3178.7,19.2,3178.7,19.2
			L3178.7,19.2z M3130.6,29.4c0.1,32.6,0.7,65.1,1.5,97.7c2.9-0.7,5.1-1.3,8,0c0.3-9.3-0.5-32.6-0.3-55.2c11-8.6,18.7-18,24.1-30.3
			l-16.8,7.9c0,0-5.5,7.9-7.2,8.4c-0.2-1.1-0.5-14.4-0.3-20.1L3130.6,29.4z M3167.9,49.5l-3.3,4.8c0,0,0.1,16.4,0.3,24.3
			c0.1,1.6,1.6,3,0.4,4.4c0.7,0,3.7,21.3,0.8,29.9c-0.5,1.5,0,2.6,0.8,3c4.1,4.6,6.4,9,11.9,6.4c5.9-5.4,14.4-15,14.4-15l-22.3-21.1
			C3168.9,81.1,3167.9,49.5,3167.9,49.5z M3249.3,117.9c-10.1,9.1-19.4,18.4-23.2,29.7c5.4-2.2,10.6-4.8,15.9-7.3
			c2.6-3.1,4.5-6,7.4-9c0,0,0.3,13.3,0.1,20c2.6,2,8.9,8.1,8.9,8.1c0,0,1.7-94.8-2-97.2c-3.6,0.7-5.4,2-6.8-2.2
			C3248.6,79.4,3249.3,117.9,3249.3,117.9L3249.3,117.9z M3214.2,64.6c-3.9,3.2-17.3,16.4-17.3,16.5c3.6,6,17.6,17.9,24.3,24.6
			l1,34.1c1-1.3,1.7-2.6,2.8-3.9c0,0-0.2-17.2-0.6-25.3c-0.1-2.4-0.7-4.3-0.5-4.5c-1.9-9.8-2.7-20.7,0-31.2
			C3217.5,69.3,3215.5,65.7,3214.2,64.6L3214.2,64.6z M3215.2,103.5C3215.2,103.5,3215.2,103.5,3215.2,103.5
			c-3.3,4.7-9.6,14.9-10.1,14.9c-0.1-0.3-6.5,0-7.7,4c-1,3-1.1,5.7-1.8,8.8c-12.8-0.4-22.1,3.6-32,12.7c-4.8,0-8.4,1.1-10.1,3.1
			c-2.5,1.8-3.2,3.4-3.1,5.3c0.2,3.4,6.3,3.9,6.6,1.5c0.3,0,5.9,12.9,6.5,15.1c1.3,3.5,2.7,10.2,2.9,10.2c2.3,0.1,15,3.7,15,2.4
			c1.2-0.5-4.4-18.9-4.4-18.9c9.8-8.2-1-17.1-3.6-16.7c5.6-4,12-6.7,19.1-7c1.1,3.9,6.2,6,8.7,0.7c0,0,11,3.9,11,5.2
			c-4.5-0.7-8.3-1-12.8-1.5c8.7,4.7,9,10.9,10.7,17.1c0.2-1.1,2.5-5.9,2.5-5.9c2.9,6.5,8.6,2,6.2-3.3l7-3.2
			c0.8-0.4-10.4-13.1-20.6-14.8c0.5-0.9,0.7-1.8,1.2-2.6c2.6-2.5,4.5-6.2,0.6-10.6c2.6-3.6,8.6-12.3,8.2-12.5
			C3215.4,107.4,3215.5,103.4,3215.2,103.5L3215.2,103.5z M3131.2,143.7c-0.1,0-0.3,30.3-0.1,45.3c-0.3,0.6-0.4,3.9-0.4,3.9l9.3-8.7
			l0.3-11.3c2.4-0.6,17.6,7.1,16.4,7.1c1.2-0.5-7-15.9-16.5-17.6c-0.2-8.7-0.3-18.6-0.5-21.2
			C3136.4,141.7,3131.2,143.7,3131.2,143.7z M3213.8,161.9c-2.6,0.8-3.7,6.3-2.8,8.9c0.2,0.5,0.1,0.6,0.5,0.1c1-1.5,0.7-4.5,2.5-6
			C3218.7,166.3,3218.2,160.1,3213.8,161.9z"/>
		<path id="path6267-4" fill="#D40000" d="M3153.6,197.6l12.3-18.6c14.7,4.9,29.7,5,44.9,2.6l13.6,16h-5.5l-8.5-12.2
			c-3.1,0.7-6.3,1-9.5,1.5l4,10.7h-4.3l-3.1-10.6c-7.4,0.3-12.4-0.4-17.5-1l-1.8,11.6h-4.4l3-12c-3.5-0.7-7-1.2-9.9-2.1l-9,14.1
			H3153.6z M3167.7,186.6l5.1,1.4l-2.5,9.6h-9.4L3167.7,186.6z M3180.9,197.6l1.4-8.5c3.4,0.7,7.9,0.8,12.6,0.8l2.2,7.7H3180.9z
			 M3205.1,189.7l4-1.1l6,8.9h-7.3L3205.1,189.7z M3146.2,135.9c19.7-22.9,17.1-46.9,6.2-66.3l2.3-2.4c12.6,20.7,15.2,50-7.9,72.8
			C3146.6,138.7,3146.2,135.9,3146.2,135.9z M3224.7,110.3c2.8,4.8,4.6,9.7,7.5,14.5l-7.1,9.6L3224.7,110.3z M3140,125.4
			c-0.2-15.1,0-45.7,0-45.7l6.6-5.1c7.9,9.6,12.3,35.1-2,52C3143.7,125.9,3140.9,126.2,3140,125.4L3140,125.4z M3234.3,122.4
			c-18.2-30.7-8.9-53.2,8.7-73.1c0.1,1.5,0.1,3.1,0.2,4.6c-15.1,17.3-21.1,42.8-6.3,65.9L3234.3,122.4z M3201.3,117.9l8.3-11.3
			c0,0,1.6-4.5,2.9-5.8l1.5-1.3c0.5,0.5,1.5,1.5,1.5,1.5l-0.9,3.5c-3.1,4.7-6.3,9.5-9.7,14.2C3204.9,118.6,3202,118.1,3201.3,117.9z
			 M3245.4,63c0.3-0.3,3.6,1.1,3.6,1.1l0.2,46.4l-6.6,4.2C3240.7,115.8,3225.7,85.3,3245.4,63z M3176,82.6c3-4.1,6.2-7.6,9.1-11.4
			c0.8,0.3,2.7,0.3,2.7,0.3c0.2,0.1-0.7,3.1-2.8,5.2c-5.9,7.1-7.2,8.4-7.5,11.3c-0.1,0.9-2.2,2-2.2,2l-1.5-1.6
			C3174.3,86.1,3175,84.3,3176,82.6L3176,82.6z M3157.3,64.8l6.8-8.9l0.5,23.1L3157.3,64.8z M3178.9,7l-13.1-16.3h6.3l7.8,11.6
			l9.3-1.1L3186-9.3h3.9l2.7,10.3c5.7,0.1,11.3,0.6,16.7,1.1l2.8-11.5h3.9l-3.6,12l10.5,2.8l9.4-14.8h4.7l-13.3,19.1
			C3206.4,4.5,3192.4,5.1,3178.9,7L3178.9,7z M3216.6,0.2l3-9.5l8.9,0l-6.8,10.9L3216.6,0.2z M3195-2.1l-1.9-7.2h15.7l-2,8
			C3202.7-2,3198.9-2.1,3195-2.1z M3176.2-9.3h6.3l2.4,7.4l-3.6,0.4L3176.2-9.3z"/>
		<path id="path6269-8" d="M3163.8-10.4l15.1,18.1c3.2-1.1,19-2.9,28.6-0.8c1.7,6.5,3.4,13.1,5.3,19c0,0-0.6,0.7-1,1.1
			c-6.1,7-1.8,13.8,3.8,16c-1,2.1-11.7,7.3-18.2,6.7c0-0.1-2-4.8-6.1-3.2c-1.4,0.5-2,1.6-3,2.6c-3.9-1.2-9-3.7-11.7-6.5
			c5,2.5,9.9,3.8,14.8,3.2c0,0-0.6-0.5-1.3-0.8c-0.4-0.2-1.4-0.8-2.2-1.3c-2.3-1.5-3.8-3.4-5.4-6.6c-1.8-3.2-2.1-6.7-3.1-9.8
			c-0.5,1.6-0.8,5.7-2.1,6.6c-0.4,0.2-0.4,0.2-0.7-0.7c-1-3.2-4.9-2.8-6.1-0.5c-0.6,2-0.5,2.8,0.3,4.6l-2.3,1.3V39l-1.4,0.7
			l-0.3-0.2c-6.6,3.2-13.1,6.5-19.9,9.6c0,0-3.6,6-6.9,8.3l-0.1-20.3l-9.7-8.8l0,4.8c0,0,0.5,0.5,0.7,0.7c0.1,33.9,0,67.3,0,98.2
			l0,28.4l-0.6,0l0,3.3l0.7,0.1l-0.1,4.7l-0.3,0l-0.1,3l0.5,0.1l0,16.7l-0.5,0.7l0,4.8l10.2-9.7l0.2-11c8,1.5,16.4,7.3,16.4,7.3
			c-1.4-9.2-11.2-16.8-16.8-18.3l0-21.8c0,0-4.2,1.7-6.2,2c-1,0.1-1.4,0-1.9-0.7c-0.4-0.5-0.4-1,0-2.1c0.2-0.5,0.1-0.7,0-1.2
			c-0.3-0.7-0.3-1.1,0-2.4c0.3-0.8,0.2-1.2-0.1-1.9c-0.3-0.8-0.3-0.9-0.2-1.3c0.3-1.1,0.4-1.3,0.2-1.8c-0.4-1-0.4-1.7,0-2.4
			c1.5-2.5,4.9-1.9,6.7-1.8c0.9,1,1.5,1.6,1.6,0.1c0.6-1.8,3.2,0,4.3,0.8c10-13.4,14.9-31.5,2.4-54.2l-7,5.6l0-7
			c9.2-5.9,19.6-19.5,24.1-30.1c1.5,1.8,3.2,3.5,4.8,5.3l-1.1,1.8l-0.3-0.2c-2.9,5.5-10.7,15.8-10.8,15.7c2.9,5.3,5.4,10.7,7.6,16.2
			l0.6-0.3l0.5,1.6l-1,0.3c3.4,11.2,3.5,21.6,1,31.1l0.6,2.5c0,0,3.6,3.5,4.6,4.5c2.5,2.5,5.4,5.2,5.4,5.2l3.3-3.2l-0.2-0.3
			l28.9-28.7l1.8,1.7c-17.7,17.8-48.4,48.6-48.4,48.6l-1.1,0.2c-0.6,0.1-1.5,0.1-2.1,0.1c-0.9-0.1-1.1,0-1.8,0.3
			c-0.8,0.4-1.5,1-2.5,2.1c-0.4,0.5-0.7,0.7-1.2,0.9c-6,3.6-0.6,10.8,4.5,7c3.8,7.2,6.9,15.5,8.7,23.8c0,0.1-0.7,0.3-0.7,0.3
			l-13.5,20h5.2l0.5-0.9h-3.9l12.4-17.9c15.8,4.3,30.3,4.9,45,2.4l12.8,15.6h-5.1l0.7,0.9l6.6,0.1l-15-17.8
			c-5.4,1.4-19.6,2.6-28.5,1.1c-1.4-6.6-3.6-13.8-5.3-19.6c8.5-6.7,2.1-15.5-3.1-16.7c-0.3-0.5,10.6-7.1,18.4-6.7
			c2.2,5.3,7.1,4.6,8.8,0.6c3.2,1.2,7.4,2.4,10.7,5c-4.4-1-9.6-1.5-13.8-1.6c8,3.1,10.3,9.7,11.3,15.9c0.2,1,0.7,2.4,0.7,2.4
			c0.7-2.2,1.2-4.5,2.6-6.5c0.6,2.2,2.9,3.9,5.2,2.6c1.3-1,1.8-2.6,1.4-4.9c-0.1-0.6-0.2-1-0.2-1l1.8-1l0.2,0.2c0,0,2-0.8,2.9-1.3
			c0.2-0.1-0.2-0.4-0.2-0.4l18-8.5c-0.1,0,4.5-6.3,7.2-8.8c0.1,7.6,0.1,10.7,0.1,19.6l1,1c0.9,0.9,2.9,2.7,7.3,6.8
			c1,0.9,1.7,1.4,1.7,1.4l-0.1-132.1h-0.1v-2.5l0.2,0v-6.6l-0.2-0.1v-2.1l0.2-0.2l0-17.8l-0.3,0l0-4.3l-10,10.6l0.1,10
			c-4.5-0.6-10-3.5-13.9-5.8c-1.2-0.8-1.9-1-1.9-0.5c0.5,6,9.2,15.1,15.8,17.5l0,22.5c0,0,1.6-0.8,2.5-1.2l0.1,0.4l2.1-0.9l0.2-0.5
			l1.9-0.2c0,0.4,0.1,0.3,0.1,0.3c1.7,0.5,2.4,1.6,1.7,2.9c-0.2,0.4-0.3,1-0.1,1.2c0.7,1.1,0.9,2.1,0,3.2c-0.3,0.5-0.3,0.9,0,1.4
			c0.9,1.8,0.4,1.7-0.3,2.8c-0.2,0.8,0.7,1.3,0.4,2.1c-0.1,0.5-0.7,1.1-1,1.4c-0.4,0.3-0.8-0.3-0.8-0.3s-1.3,0.6-2.3,0.8
			c-0.9,0.3-2.6,0.9-3.1-0.4c-0.3-0.7-0.1-1.4-0.1-2.2l-1.4-0.2l0,3.7c-0.8,0.4-4-1.2-4-1.2c-13.6,17.6-13.2,37.1-3.1,53.4
			c0.1,0.3,7.1-4.8,7.1-4.8s0,4.1,0,6.4c-8.9,7.4-17.5,17.2-23.6,29.4l-3.8-4.5c0.7-0.6,0.7-1.5,0.7-2.2l2.8-4.1l0-1.1l7.2-10
			c0.1,0.6-7.4-13.5-8.4-18l0.5-0.1c-3.4-12.8-2.7-21.7-0.2-32.1l-0.7-0.7l-9.5-9.5c-0.8,0.7-1.5,1.4-2.3,2.1
			c-0.1,0.1-0.7,0-0.8,0.2c-5,4.7-9.8,9.4-14.5,14.2c-0.1,0.1,0.1,0.6,0,0.8c-4.7,4.9-9.7,9.5-14.5,14.4l-1.8-1.7
			c17-17,49.1-48.6,49.1-48.6s0.1-0.3,0.4-0.3c0.9,0,1.7-0.2,2.6-0.5c1.1-0.2,1.2-0.3,1.7-0.8c0.3-0.3,0.7-0.7,1-0.9
			c0.5-0.3,1.5-1.2,3.2-2.7c1-0.9,1.6-2.2,1.6-3.3c0-2-1.4-3.8-3.1-4c-0.7-0.1-2.1,0.3-2.9,0.8c-0.5,0.4-0.8,0.5-1,0.4
			c-3.5-7-6.9-15.9-8.3-23.2c-0.1-0.5,0-0.6,0.3-1.2c0.2-0.4,0.7-1.2,1.1-1.8c4.3-6.7,8.8-12.4,12.6-18.6h-5.4l-0.7,1.1h4.4
			l-13.1,18.9c-24.2-7.9-43.9-2.9-44.4-2.8l-13.1-16.1h6l-0.7-1.1H3163.8z M3175.5-10.4l0.7,1.1h6.3l-0.4-1.1H3175.5z M3186-9.3h3.9
			l-0.2-1.1h-4L3186-9.3z M3192.9-10.4l0.2,1.1h15.7l0.3-1.1H3192.9z M3212.1-9.3h3.9l0.3-1.1h-4L3212.1-9.3z M3219.9-10.4l-0.3,1.1
			h8.9l0.7-1.1H3219.9z M3258-3.1l0.1,2.9l-6.4,6.8l0,9.5l-1.9-0.4l-0.1-9.8L3258-3.1z M3256.2,3.2c0.1,2.9-0.4,5.7,0.4,8.6
			c0.4,1.5,1.1,3.2,1.2,4.9l-2.1,0c-0.3-0.9-0.4-1.8-0.7-2.9c-0.8-2.6-1.4-5.4-0.8-8.2L3256.2,3.2z M3209.9,7.9
			c0.1,0.1,0.3,1.4,0.6,2.5c1.1,6.2,2.6,10.9,4.1,15.6c1.9,5.9,4.8,13.4,7.6,16.9c0.4,0.4,0.6,0.9,0.4,1.1c-0.2,0.4-1.4-0.1-2.1-0.9
			c-0.3-0.3-0.9-1.3-1.4-2.1c-1-1.8-2.3-4.5-2.4-4.9c-0.1-0.2-0.6-1.5-1.1-2.9c-1-2.5-1.6-4.2-2.4-7c-0.7-2.2-1.3-4.5-2-6.8
			c-1.2-3.8-1.9-6.8-2.6-10.3c-0.1-0.5-0.3-1.1-0.2-1.2C3208.7,7.5,3209.7,7.6,3209.9,7.9z M3210.6,8.1c-0.1-0.1,1.1-0.1,1.5,0.2
			c0.1,0.1,0.3,0.8,0.5,1.8c1.1,5.7,2.8,11.7,4.7,17.3c1.5,4.5,3.2,8.8,5.4,12.3c0.7,1.2,1.6,2.4,2.7,3.8c0.6,0.8,0.7,0.9,0.5,1.1
			c-0.2,0.3-0.6,0.2-1.3-0.1c-0.7-0.3-1.4-1-2.1-2c-0.2-0.3-0.6-0.8-0.8-1.1c-3.1-5.4-5-10.5-6.7-15.7c-1.8-5.3-3.3-10.7-4.4-16.9
			C3210.6,8.5,3210.6,8.3,3210.6,8.1L3210.6,8.1z M3214.5,8.9c0.3,0.3,0.4,0.8,0.7,1.9c1.3,5.3,2.4,10.1,3.9,14.4
			c0.8,2.3,1.5,4.7,2.4,6.9c1.4,3.5,3.1,6.8,5.3,9.4c0.7,0.9,2,2,3,2.6c0.7,0.4,0.8,0.6,0.8,0.8c-0.1,0.2-0.8,0.3-1,0.3
			c-1.2-0.2-2.9-1.1-3.4-1.8c-3.6-3.9-6.1-10.2-8-15.3c-3.2-8.9-5.8-20-5.3-19.7C3212.9,8.3,3214.2,8.6,3214.5,8.9z M3216,9.3
			c0.1,0,0.2,0,0.4,0.1c0.7,0.2,0.8,0.3,0.9,1c1.1,5.1,2.3,9.6,3.7,13.8c1.4,4.3,2.8,8.4,5,12.7c1.6,3.1,3.7,5.3,5.8,6.4
			c0.6,0.3,1.2,0.6,1.3,0.7c0.1,0.1,0,0.2,0,0.4c-0.1,0.2-0.2,0.3-0.8,0.3c-1,0-1.7-0.3-2.8-1c-2.8-1.9-5.3-6.3-6.3-8.8
			c-1.3-3-2.5-6.2-3.6-9.6c-2-6.2-3.2-10.2-4.1-15.4C3215.5,9.4,3215.7,9.3,3216,9.3L3216,9.3z M3258,17.6l0,1.8
			c-7.1,0.5-14.3-2.5-20.1-5.2c4.4,5.8,9.1,11,20.1,12l0,1.9c-14.4-0.2-24.5-14.8-24-18.4C3240,13.5,3250.7,17.9,3258,17.6
			L3258,17.6z M3218.3,9.9c0.3,0,0.8,0.2,1,0.3c1.2,4.4,2,9.3,4,14.2c2.4,6,3.7,11.3,8.1,16.3c1.4,1.4,4.1,1.4,4.1,1.4
			s-0.3,0.8-0.8,0.9c-0.9,0.1-1.6,0.2-2.3,0c-2.6-1.1-4.5-3.8-5.5-5.7c-0.9-1.4-3.3-7.1-5.2-13c-2.1-6.4-3.8-13-3.6-14.3
			C3218.2,9.9,3218.2,9.9,3218.3,9.9z M3220.7,10.7c0.2,0,0.4,0.1,0.7,0.2c0.3,0.1,0.4,0.2,0.6,0.8c0.1,0.4,0.1,0.9,0.3,1.8
			c1,4.6,2.4,8.3,3.8,11.9c1.3,3.4,2.7,6.8,4.4,9.9c0.9,1.5,1.7,3,2.3,3.5c1.5,1.5,4,1.6,4.7,0.1c0.4-0.8,0.3-2.2-0.5-2.8
			c-0.6-0.6-2.1-0.3-2.1,0.4c0,0.2,0.4,0.1,0.9,0c1.4-0.2,1.9,2.4,0,2.8c-2.3,0.5-4-2.6-1.9-4.6c3.5-2.4,6.2,0.9,5.4,4
			c-0.8,1.8-2.1,2.8-3.9,2.9c-2.3,0.1-3.2-0.6-5.6-4c-2.7-4.3-3.9-8.5-5.7-13.2c-1.8-4.5-3-9.2-3.5-13.4
			C3220.4,10.7,3220.5,10.7,3220.7,10.7L3220.7,10.7z M3222.9,11.4c0.2,0,0.6,0.1,0.8,0.2c0.1,0.1,0.3,0.2,0.3,0.2
			c3.2,11.5,5.8,18.4,8.5,23.3c0,0,0,0.9-0.2,1.1c-0.3,0.5-0.5,0.3-0.9-0.4c-1.7-3.3-3.3-6.9-4.8-10.6c-1.8-4.4-3.3-8.9-4-13.2
			C3222.7,11.6,3222.5,11.4,3222.9,11.4L3222.9,11.4z M3244.2,18c0.4,0,0.8,0.4,0.8,0.8c0,0.4-0.4,0.8-0.8,0.8
			c-0.4,0-0.8-0.4-0.8-0.8C3243.4,18.3,3243.7,18,3244.2,18z M3178.7,17.8c-0.9,1.3-1.7,5.8-2.7,5.9c-1.1,0-2.4-0.6-3.2,0.3
			c-1,1.2-0.4,2.5,0.9,3.2c0.6,0.3,1.8,0.4,2.6,0.1C3179.3,26.4,3180.5,21.4,3178.7,17.8z M3247.2,19c0.6,0,1.2,0.5,1.2,1.2
			c0,0.6-0.5,1.2-1.2,1.2s-1.2-0.5-1.2-1.2C3246.1,19.6,3246.6,19,3247.2,19z M3178.8,19.6c1,2.6-0.1,5.8-1.4,6.8
			c-1.2,1-3,1.1-4.1,0.2c-0.9-0.8-0.5-2.8,1.1-2.7c0.5,0,1.2,0.5,1.6,1C3177.1,25.1,3178.3,19.7,3178.8,19.6L3178.8,19.6z
			 M3251.3,20.2c0.7,0,1.3,0.6,1.3,1.3c0,0.7-0.6,1.3-1.3,1.3c-0.7,0-1.3-0.6-1.3-1.3C3250,20.8,3250.6,20.2,3251.3,20.2z
			 M3256,21.2c0.7,0,1.3,0.6,1.3,1.3c0,0.7-0.6,1.3-1.3,1.3s-1.3-0.6-1.3-1.3C3254.6,21.8,3255.2,21.2,3256,21.2z M3212.6,27.3
			c0.2,0,0.3,0.2,0.5,0.6c0.3,0.8,0.3,0.9-0.2,1.4c-4.1,5.7-0.4,11.6,5.6,12.2c0.5,0,0.8,0.6,1,1.3c0,0.3,0,0.3-1.4,0.3
			c-0.9,0-1.6,0-2-0.2c-2.1-0.6-4.7-2.5-5.7-4.2c-1.2-2-1.4-4.1-0.7-6.9c0.5-1.8,1.1-3,2-3.9C3212.1,27.5,3212.4,27.3,3212.6,27.3z
			 M3251.8,27.9l0.1,19.6l-2.1,0.8l0.1-20.9L3251.8,27.9z M3255.7,28.7c2.6,6.5,2.7,12.4,0.4,17.8l-2.4,0.3c3.3-7.6,1.9-13,0-18.3
			L3255.7,28.7z M3130.9,29.7l8.5,8l0.3,88.9l-1.3-0.5l-0.5-87.4l-6.9-6.3L3130.9,29.7z M3213.4,30C3213.4,30,3213.4,30,3213.4,30
			c0.3,0,0.5,0.3,0.7,0.9c0.2,0.6,0.2,0.7,0,1.3c-1.2,2.8-0.2,5.6,2.7,6.4c0.7,0.2,0.8,0.3,1.2,1.2c0.3,0.5,0.4,0.7,0.3,0.9
			c-0.1,0.1-0.5,0.2-1.6-0.1c-4.3-1.5-5.8-6.1-3.9-9.8C3212.9,30.3,3213.1,30,3213.4,30C3213.4,30,3213.4,30,3213.4,30L3213.4,30z
			 M3179.5,29.6c0,0,0.9,3.1,0.8,3.9c-0.2,1.4-2.2,3.6-3.9,4.4c-1.6,0.6-4,0.3-5-0.8c-3.6-4.3,3.2-8.6,4.9-4.1
			c1,2.9-3.2,3.6-3.3,1.4c0-0.6,0.2-0.8,0.7-1.1c0.5-0.3,0.4-0.6,0-0.6c-1.6,0.6-1.6,2-0.9,3c1.4,1.5,3.2,0.6,4.4-0.5
			C3178.8,33.6,3179.1,31.5,3179.5,29.6L3179.5,29.6z M3214.7,32.9c0.1,0,1.8,4,2,4.6c-0.1,0.4-0.5,0.4-1.2-0.1
			c-0.8-0.5-1-0.9-1.3-2.1C3214.1,34.7,3213.9,33.2,3214.7,32.9z M3180.8,34.6c0.4,0,0.8,1.4,0.6,2c-0.3,1.2-3.4,3.2-5.6,3.6
			c-0.4,0.1-0.9,0.2-1.1,0.2c-0.5,0.1-1-0.2-1.5-0.7c-0.4-0.4-0.6-0.8-0.5-0.9c0.1-0.1,1.1,0.1,1.9,0.1c2.4,0,4.3-1.7,5.7-3.8
			C3180.5,34.8,3180.8,34.6,3180.8,34.6z M3133.1,35.6c0,0,1.6,1.5,2.5,2.3c-0.1,3.9-1.5,8.2-1.5,11.7c0,3,2,5.6,2.2,8.2
			c0.1,1.7-0.4,4.3-1.2,6.2c-0.8,1.8-1.2,3.7-1.2,5.6c0.1,4.3,3.2,9.1,2.1,13.4c-1,4-2.2,6.3-1.9,8.5c0.6,4.1,2.8,7.8,2.2,11.2
			c-0.5,3.2-2,6.4-1.8,9.3c0.2,3.3,1.4,6.1,1.8,9.1c0.2,2-0.3,5.1-0.3,5.1l-2.3,0.2c1.3-4.7-0.6-8.9-1.3-13.4
			c-0.6-3.8,1.1-6.9,1.6-10.1c0.3-2,0-4-1-6.5c-2-4.8-1.3-7.9,0.2-12c1.8-4.4-0.7-7.9-1.3-12.2c-0.3-3.6-0.1-6.2,1.3-9.5
			c1-3.1,1.3-4.9-0.2-7.9c-1-1.9-1.2-3-1.2-5.5C3132,44.2,3133.4,41.4,3133.1,35.6L3133.1,35.6z M3181.9,37.6c0.4,0,0.5,0.3,0.5,0.8
			c0,0.9-1.4,2.1-3.8,3.2c-1.3,0.6-2,0.7-2.7,0.3c-0.7-0.3-0.7-0.6,0.1-0.8c1.9-0.6,3.2-1.3,4.8-2.7
			C3181.3,37.9,3181.8,37.6,3181.9,37.6L3181.9,37.6z M3170.9,38.2c6.3,6.7,12.4,10.2,17.1,11.8l-0.7,1.8
			c-6.2-2.4-12.5-5.7-17.8-12.9L3170.9,38.2z M3183,39.3c0.2,0,0.8,0.8,0.8,1c0,0.1-0.2,0.5-0.5,0.9c-0.4,0.5-0.8,0.8-1.8,1.4
			c-1.4,0.8-2.3,1-2.9,0.6c-0.6-0.3-0.4-0.6,1.1-1.5c0.8-0.5,1.8-1.2,2.3-1.6C3182.5,39.7,3182.9,39.3,3183,39.3z M3166.4,40.3
			c5.1,7,11.8,11.7,19.5,14.2l-1.2,1.7c-7.1-2.5-14.1-6.9-20.4-14.7L3166.4,40.3z M3184.3,41.1c0.3,0,0.8,0.7,0.8,0.9
			c0,0.1-0.1,0.4-0.3,0.6c-0.3,0.3-1.7,1.4-2.3,1.7c-0.5,0.2-0.8,0.2-1.4,0c-0.6-0.3-0.5-0.6,0.5-1.2c0.5-0.3,1.2-0.9,1.7-1.3
			C3183.8,41.5,3184.2,41.1,3184.3,41.1z M3163.6,41.7c-0.1,0.2-7.6,17.2-23.3,29.3l-0.1-2.8c8.7-6.9,15-16.4,19.8-24.6L3163.6,41.7
			z M3185.8,42.9c0.2,0,0.4,0.2,0.6,0.5c0.2,0.4,0,0.7-0.9,1.4c-0.5,0.4-0.8,0.5-1.2,0.5c-1.2,0-1.1-0.3,0.1-1.5
			C3185.1,43.2,3185.5,42.9,3185.8,42.9L3185.8,42.9z M3216.2,43.7l3.3,0.3c0.9,0.6-12.8,9.6-22.3,8.8l0.3-2.1
			C3205.7,50.8,3216.4,44.1,3216.2,43.7z M3188.1,44.6c0.8,0.4,1.7,0.9,1.5,1.1c-0.3,0.2-2.6,0.1-3.1-0.2c-0.4-0.2-0.4-0.3,0.2-0.9
			C3187.3,43.8,3187.4,44.2,3188.1,44.6z M3158.9,44c-5.2,9.2-11.4,17.5-18.5,23l-0.1-4.8c6.8-5.2,12-14.8,12-14.9L3158.9,44z
			 M3223.9,44.6l1.6,0.9c-9.9,9.2-20.6,13.1-30.9,12.1l0.8-1.9C3212.1,57.1,3223.2,44.8,3223.9,44.6L3223.9,44.6z M3226.3,44.9
			c0,0,0.5-0.1,0.5,0c-3.3,3.2-7.8,6.7-10.8,8.6c-14,14.4-26,25.7-38.2,38.6l-1.9-2l1.8-1.9c0-3.7,4.5-7.8,7.2-11
			c1.1-1.3,3.2-4.5,3-5.9c-0.1-0.3-0.1-0.4-0.1-0.4c4.2-0.8,5.3-4.3,5.3-7.3c0.2-2,0.5-3.9,1.2-5.5
			C3213.4,59.6,3225.8,45.4,3226.3,44.9z M3192.9,47.1c2.2,0,3.8,1.7,3.8,4.2c0,1-0.4,1.8-1.8,4.5c-1.3,2.3-1.5,3.7-2,6.4l-1.4-1.2
			l-2.5,2.2l0-3.3c0,0,0.9-1.1,2.2-2.6c1.8-1.9,3.3-4.5,3.3-5.9c0-1.4-1.5-2.6-3.1-1.6c-1.3,0.9-1.9,2.6-2.7,7.6
			c-0.1,0.9-0.3,1.9-0.3,2.2c-0.2,0.6-2.1,2.4-2.1,2.4c-0.2,0-0.9-3.7-0.9-3.7l-1.9,0.3c2.2-2.4,4-5.4,5.1-8.4
			C3189.7,48.2,3191,47.1,3192.9,47.1L3192.9,47.1z M3150.9,47.8c0,0-3.8,8-10.6,13.2l0-3.1c3.9-3,6.9-8.3,6.9-8.3L3150.9,47.8z
			 M3243.4,48c-13.3,13.8-30.8,39.3-9.2,75.1l2.9-3.3c-17.4-32.4-5.1-49.1,6.4-66L3243.4,48z M3171.2,49.2c3.9,2.8,8,5.5,13.3,7.3
			c-0.3,0.9-7.5,7-2.3,12.7c0.2,0.3-0.3,1-1.2,2c-2.5,3.4-5,5.8-7,9.6l-0.1,7.2l-2.1-1.8L3171.2,49.2z M3242.9,49.8l0.1,4.1
			c-19.8,24.1-17.6,45.8-6.4,65.8l-2.1,2.2C3216.1,90.3,3227.5,66.5,3242.9,49.8L3242.9,49.8z M3194,52.3c-0.9,2.3-4.7,6.3-4.7,6.3
			s0.5-3.9,0.8-5.1c0.2-0.9,0.8-2.2,1.3-2.8C3193,49,3194.5,50.9,3194,52.3z M3167.7,50.1l0.4,32.3l-2.8-2.8l-0.4-24.7L3167.7,50.1z
			 M3163.9,56.4l0.6,21.9c-2.8-6.6-6.7-13.8-6.8-13.7C3157.7,64.7,3160.9,60.4,3163.9,56.4z M3185.9,63.3c0,0,0.4-0.4,1.1-1.1
			c1.4-1.5,1.6-1.5,1.4,0.5c-0.1,0.8,0,1.7,0,1.7c0.8-0.5,2.8-2.8,3.4-2.4c0.4,0.4,0.8,1.3,0.8,2.6c0,2.6-1.5,5-3.8,5.8
			c-6.4,2-10.7-5.4-6.3-10.1c0.4-0.5,1.7-1.3,2.3-1.2C3185.6,60.4,3185.6,61.9,3185.9,63.3L3185.9,63.3z M3249.7,61
			c0.4,1,0.9,2,2.2,2.5c-0.2,31.4,0,87.1,0,87.1l6.3,5.9l0,2.6l-8.4-7.7C3249.7,151.4,3249.2,85.8,3249.7,61z M3255.9,62.4
			c0.2,3-0.3,6.2,0.2,9.4c0.5,2.2,1.3,4.1,1.4,6.2c0.1,1.9-0.1,3-0.9,5.8c-0.6,1.9-0.6,2.2-0.8,4.1c-0.3,2.6,0.5,5,1.2,7.1
			c0.9,2.8,0.6,6.2-0.8,10.6c-0.5,1.6-0.6,2.3-0.5,3.7c0.2,3,1.3,5.9,1.8,8.9c0.3,1.7,0,3.9-1.1,7.7c-0.4,1.4-0.8,3.9-0.8,4.8
			c0,1,0.3,2.9,0.6,3.7c1.5,3.8,1.5,4.5,1.6,6.8c0,1.7-0.5,3.5-1.1,5c-1,2.4-0.4,4.9,0,7.7l-2.5-2.2c-0.7-2.3-0.5-4.5,0.2-6.3
			c1-2.7,1.2-3,1.2-4.6c0-2.1-1.2-4.6-1.7-6c-0.9-2.6-0.9-5.2,0-7.9c0.4-1.4,1-4,1.2-5.1c0.3-2.1,0.1-3.7-1-7.9
			c-0.5-2-0.6-2.8-0.6-4.8c0-1.9,0.2-3.8,0.8-6.1c0.9-3.6,0.9-5.7-0.3-9.1c-0.9-2.7-1.2-4.6-0.9-6.8c0.1-1.3,0.5-2.5,1.1-3.6
			c1.1-2.7,1.2-5.3,0.4-7.8c-1.4-5.3-1.4-7.9-1.2-12.7L3255.9,62.4z M3248.9,64.1c-0.2,21.5,0,46.2,0,46.2s-6.4,4.5-6.3,4.2
			c-8.2-13.6-11.3-33.5,3-51.5C3245.5,63,3247.8,64,3248.9,64.1L3248.9,64.1z M3151.9,69.3c11.6,21.7,13.1,43.7-6.1,66.2
			c0.6,2,0.5,3.8,0.2,5.7c3.7-2.9,33.8-33,8.5-74.8L3151.9,69.3z M3211.2,67.5l5.7,0.3l0.4,4.9l-1.8,1.8c0,0,0-1-0.1-1.9
			c0-1.1-0.2-2.1-0.3-2c-0.1,0-0.2,1.3-0.3,2.7l-0.1,2.1l-0.6,0.6c-0.9,0.9-1,0.8-1.1-0.4c-0.1-2.6-0.1-2.8-0.3-2.6
			c-0.1,0.1-0.2,1-0.2,2.3c0,1.1-0.1,2.1-0.2,2.3c-0.1,0.4-1.2,1.3-1.5,1.3c-0.3,0-0.3-0.4-0.3-2c0-1.4-0.1-2.1-0.4-1.6
			c-0.1,0.1-0.1,1.5-0.2,2.6c0,1.1-0.1,2.1-0.2,2.2c-0.2,0.4-1.4,1.4-1.6,1.3c-0.3-0.1-0.4-0.9-0.3-2.3c0-0.7,0.1-1.2-0.1-1.4
			c-0.3-0.2-0.3,0.6-0.2,2.5l0,2.1l-0.7,0.8c-1.1,1.2-1.2,1.1-1.2-0.9c0.1-1.6,0-2.3-0.3-2.2c-0.3,0.1-0.2,0.9-0.1,2.5
			c0.1,1.4,0,2.1-0.1,2.3c-0.1,0.1-0.4,0.6-0.8,0.9c-0.4,0.4-0.8,0.9-0.9,0.9c-0.1-1.7-0.2-5.3-0.2-5.3l-6-0.3c0,0,1.2-1.4,1.7-1.7
			c0.3-0.1,0.7-0.2,2.2-0.1c1,0,2.4,0,2.5-0.1c0.4-0.2-0.5-0.3-1.8-0.4c-0.9-0.1-1.1,0-2.1-0.2l0.9-0.9l0.7-0.6l1.9,0.1
			c1.1,0,2,0,2.1,0c1.1-0.2,0.1-0.5-1.2-0.5c-1.3,0-2,0-2-0.3c0-0.3,1.4-1.6,1.8-1.6c0.2,0,1.2-0.1,2.3-0.1c1.8,0,2.4,0,2.3-0.3
			c-0.1-0.3-1.3-0.2-2.1-0.2c-2.2,0-2.3-0.1-0.8-1.4l0.7-0.6l1.4,0c2.1,0.1,3.1,0,3.1-0.2c0-0.2-1.3-0.3-2.5-0.3c-0.7,0-1.2,0-1.2,0
			c0.5-0.7,1.1-1.2,1.7-1.8l1.8,0c1.3,0,2.2,0.1,2.2-0.2c0-0.2-0.5-0.2-1.1-0.2c-0.8,0-1.8-0.1-2-0.2c-0.1-0.1,0.1-0.5,0.7-1.1
			L3211.2,67.5z M3154.6,67.6c16,26.1,10.2,54.3-7.6,71.9l-0.5-3.4c16.8-20.5,19.8-41.6,6.1-66.4L3154.6,67.6z M3184.3,71.1
			c-2.9,4.3-7.3,8.6-8.9,12.1c-0.3,0.4-0.4,1.3-1,1.5c-0.3,0-0.3-0.5-0.3-1.6c0-0.9,0.1-1.2,0.5-2c2.3-4.1,4.9-7.1,7.8-11
			L3184.3,71.1z M3185,71.5l2.7,0.2c-0.6,1.9-1.4,3.2-2.3,4.4c-1.2,1.6-2.6,3.1-4.3,5.1c-2.4,2.8-3.7,5.6-3.6,6.9
			c-0.6,0.6-1,1.1-1.8,1.7l-1.5-1.4C3175.2,82.5,3180.8,77,3185,71.5L3185,71.5z M3217.4,73.9l0.9,0.1c2.9,0.2,4.8,0.4,4.9,0.5
			c0.1,0.1,0.2,0.5,0.2,1c0.1,0.7,0,1.2-0.4,2.9c-0.2,1.1-0.5,2.1-0.6,2.2c-0.3,0.3-0.5,0-0.6-1.6c-0.1-1-0.1-1.7-0.3-1.6
			c-0.1,0-0.2,1.1-0.2,1.8c0.1,2,0.1,2.5-0.5,3.1c-1.1,1.1-1.2,1-1.2-0.9c0-0.8-0.2-1.9-0.3-2c-0.2-0.2-0.3,0.8-0.3,2.7v2l-0.5,0.6
			c-0.7,0.7-0.9,0.8-1.1,0.6c-0.2-0.2-0.1-0.5-0.1-1.6c0-1.3-0.2-2.1-0.5-1.8c0,0-0.1,1.3-0.1,2.4c0,1.1,0,2.1,0,2.2
			c0,0.3-1.3,1.5-1.5,1.5c-0.3,0-0.5-1.4-0.5-2.6c0-0.8-0.2-0.9-0.3-0.5c0,0.1-0.1,1.2-0.1,2.2v1.8l-0.7,0.8c-1,1-1.1,0.9-1.1-0.4
			c0-1.2-0.1-1.8-0.3-1.8c-0.1,0-0.2,0.6-0.2,1.9c0,0.9-0.1,1.8-0.1,2c-0.1,0.2-0.4,0.6-0.7,0.9c-0.3,0.3-0.6,0.6-0.7,0.6
			c-0.1,0-0.3-1.1-0.3-1.6c0-0.1,0-0.8,0-1.6c0-1.8,0.1-1.7-2.8-1.8c-3.4-0.1-3.5-0.1-2.4-1.1c1-0.9,0.8-0.9,3.1-0.8
			c1.8,0.1,2,0.1,2.2-0.1c0.1-0.1,0.2-0.2,0.1-0.3c0,0-0.7-0.1-1.5-0.1c-2.2-0.1-2.4-0.3-1.5-1.2l0.5-0.5h2.3c1.6,0,2.6-0.1,2.7-0.2
			c0.1-0.2-0.5-0.3-1.9-0.4c-0.8,0-1.5-0.1-1.7-0.1c-0.4-0.1-0.2-0.5,0.4-1.1l0.6-0.6h2c1.9,0,2.8-0.1,2.8-0.4
			c0-0.2-0.4-0.2-1.3-0.3c-1.4,0-2.3-0.2-2.3-0.3c0.3-0.6,0.8-1,1.3-1.5l2.1,0.1c2.1,0.1,2.7,0,2.7-0.4c0-0.2-0.9-0.3-2-0.3
			c-0.7,0-1.6-0.1-1.6-0.4c0-0.1,0.3-0.5,0.7-0.9l0.7-0.7l2,0.1c1.1,0,2.3,0,2.4,0c0.3-0.2-0.4-0.4-1.7-0.5c-2-0.1-2.1-0.3-1.1-1.2
			L3217.4,73.9z M3146.9,75c10.5,18.8,8.9,36.5-2.3,51.5c-1.3-0.7-2.6-1.2-4.1-1.3l-0.3-45.4L3146.9,75z M3221.9,82.3
			c0.2,0,0.2,0.3,0.1,1c0,0.6-0.1,1.2-0.2,1.4c-0.1,0.3-0.2,0.3-1.2,0.2c-1.2-0.2-1.1-0.4,0.1-1.6
			C3221.3,82.7,3221.7,82.3,3221.9,82.3L3221.9,82.3z M3165.6,83.2c0,0,1.4,0,2.1,0c0,0,0.1,3.5,0.4,5.5l4.5,0.2l-1.7,1.8l-3.4-0.1
			C3167.4,90.6,3166.3,85.6,3165.6,83.2L3165.6,83.2z M3219.1,85.3c0.6,0,2.3,0.3,2.5,0.5c0.2,0.2,0.2,0.5,0,2.8
			c0,0.8-0.1,2.6-0.1,3.9c0,2.4,0,2.4-0.3,2.5c-0.4,0.1-0.4-0.1-0.5-1.7c-0.1-0.9-0.2-1.7-0.3-1.7c-0.1,0-0.1,0.7-0.1,2.4V96
			c-0.4,0.3-0.7,0.7-1.1,0.9c-0.3,0-0.4-0.4-0.5-1.5c-0.1-1.1-0.2-1.9-0.4-1.6c0,0.1,0,1.2,0.1,2.2l0.1,1.8l-0.8,0.8
			c-0.8,0.8-0.9,0.9-1,0.7c-0.3-0.8,0.1-4.5-0.6-5c-0.1-0.1-1.1-0.1-2.2-0.1c-1.9-0.1-3-0.1-3.2-0.3c-0.2-0.1,0.7-1.2,1.2-1.4
			c0.3-0.1,0.7-0.2,2.3-0.1c1.8,0.1,2.7,0.1,2.5-0.1c-0.1-0.1-1-0.2-1.7-0.3c-1.5-0.1-2-0.3-2-0.6c0.3-0.6,0.8-1,1.3-1.5l0.7,0.1
			c0.4,0,1.3,0.1,2,0.2c0.7,0.1,2.2,0.1,1.6,0c0.2-0.2-0.6-0.4-1.6-0.5c-2-0.2-2.2-0.5-1.2-1.4l0.6-0.6c1,0.1,2.1,0.1,3.1,0.3
			c0.8,0.1,1.2,0.1,1.2-0.2c0-0.2-0.4-0.2-1.3-0.4c-0.3-0.1-2,0-2.1-0.5C3217.7,86.3,3218.4,85.3,3219.1,85.3L3219.1,85.3z
			 M3173.1,89.5c0.3,0,0.3,0.7,0.3,2.7c0,2.1,0.1,2.5,0.3,2.7c0.2,0.2,0.6,0.2,2.5,0.3c2.9,0.1,2.9,0.2,1.9,1.2
			c-0.7,0.7-0.7,0.6-1.3,0.5c-1.5-0.2-3.7-0.1-3.8,0c-0.1,0.2,0,0.3,1.4,0.4c1.7,0.1,2.1,0.2,2.1,0.5c0,0.1-0.3,0.5-0.6,0.8
			l-0.6,0.6l-1.8-0.1c-1.9-0.1-2.8-0.1-2.8,0.2c0,0.2,1.1,0.3,2.7,0.5c0.4,0,0.9,0.1,0.9,0.1c0.1,0.2-0.8,1.2-1.3,1.6
			c-0.4,0.3-0.6,0.1-2.4,0.1c-1.9,0-2.1,0-1.7,0.4c0.1,0.1,0.4,0.1,1.1,0.1c1.2,0.1,1.7,0.3,1.7,0.5c0,0.3-1.1,1.4-1.5,1.6
			c-0.4,0.2-0.6,0.2-1.6,0.1c-0.8-0.1-0.9-0.3-0.9-1c0-0.3,0.1-2.4,0.1-4.6c0.1-4.3,0.1-4.5,0.7-4.4c0.2,0,0.3,0.3,0.4,1.8
			c0.1,1.5,0.1,1.9,0.4,1.9c0.1,0,0.1-0.6,0.1-2.1c-0.1-2.3-0.1-2.7,0.6-3.3c0.3-0.3,0.6-0.5,0.7-0.3c0.3,0.9,0.2,1.9,0.3,2.8
			c0,0.9,0.4,1.1,0.4,0.2c0-1.4-0.1-2.6-0.1-4.1l0.9-0.9C3172.6,89.8,3172.9,89.6,3173.1,89.5L3173.1,89.5z M3167.5,91.3
			c0.3-0.1,2.3,0,2.5,0c-0.5,0.8-1.5,1.8-2.2,2.2C3167.7,93.5,3167.5,91.7,3167.5,91.3z M3221.7,95.5l0.4,2.9l-3.1-0.2L3221.7,95.5z
			 M3179.6,95.9C3179.6,95.9,3179.6,96,3179.6,95.9c0.3,0.1,0.3,0.6,0.4,3.3c0,1.3,0.1,2.2,0.2,2.3c0.1,0.1,0.5,0.2,1.2,0.2
			c0.6,0,1.7,0,2.5,0.1c1.7,0.1,1.7,0.2,0.7,1.2l-0.7,0.7l-2.1-0.1c-2.1-0.1-2.5-0.1-2.5,0.2c0,0.2,0.4,0.3,1.1,0.3
			c0.3,0,1,0,1.5,0.1c1.3,0.1,1.3,0.2,0.3,1.2l-0.7,0.7l-0.7-0.1c-1.1-0.1-3.8-0.1-4,0c-0.3,0.3,0.1,0.4,1.3,0.4
			c2,0.1,2.3,0.2,2.3,0.4c0,0.1-0.3,0.5-0.6,0.8l-0.6,0.6l-2.5-0.1c-1.7,0-2.3,0-2.4,0.1c-0.1,0.2,0.2,0.3,2,0.4
			c1.7,0.2,2,0.4,1.3,1.2c-0.7,0.9-1,1-2.3,0.9c-1.5-0.1-3-0.1-3.2,0c-0.3,0.2,0,0.4,1.1,0.4c1.6,0.1,2.5,0.3,2.5,0.5
			c0,0.3-0.5,0.9-1,1.3l-0.4,0.3l-1.8-0.2c-1.8-0.2-2.8-0.1-2.5,0.2c0.1,0.1,0.8,0.2,1.5,0.2c1.4,0.1,2.1,0.3,2.1,0.6
			c0,0.1-0.4,0.5-0.8,0.9c-0.4,0.4-0.9,0.7-0.9,0.7l-5.6-0.5c0,0-0.3-1,0.3-3.7c0.5-2.5,0.7-3,1-2.6c0.1,0.1,0.1,0.7,0.2,1.1
			c0.1,1,0.4,1.6,0.5,1.6c0.2,0,0.2-0.6-0.1-2c-0.3-1.9-0.3-2,0.4-2.8c0.6-0.7,1-0.8,1.2-0.5c0.1,0.1,0.1,1,0.2,1.7
			c0.1,1.3,0.2,1.6,0.4,1.4c0.1-0.1,0.2-0.5,0.1-2.4l-0.2-1.9l0.8-0.8c0.8-0.8,0.8-0.8,1-0.6c0.1,0.1,0.2,0.9,0.3,1.9
			c0.1,1.4,0.2,1.9,0.4,1.7c0.1-0.1,0-3.3-0.1-4c-0.1-0.5,0-0.6,0.6-1.2c0.7-0.8,1.1-1.2,1.3-1.2c0.3,0,0.4,0.8,0.4,1.9
			c0,1.1,0.1,1.6,0.2,1.7c0.3,0.4,0.3-0.9,0.2-2.2l-0.1-2.3l0.8-0.8c0.7-0.7,0.8-0.7,1-0.5c0.2,0.2,0.2,0.6,0.2,1.7
			c0.1,1.6,0.4,2.4,0.5,1.3c0-0.3,0-0.7,0-1.1c-0.1-0.4-0.1-1.1-0.1-1.8c0-0.9,0-1.2,0.3-1.6C3178.3,96.8,3179.3,96,3179.6,95.9
			L3179.6,95.9z M3212.1,97.7c0,0,1.3,1.1,1.3,1.4c0,0.1-0.5,0.7-1.2,1.4c-1.2,1.2-1.4,1.4-1.5,2.7c-0.1,0.5-0.3,1.1-0.9,2.3
			c-0.4,0.9-1.1,1.9-1.1,1.9c-2,2.4-3.9,4.5-7.3,9.6c-0.2,0.5-0.2,0.9-0.4,1.3c-0.2,0.3-0.5,0.5-0.7,0.6c-0.2,0.1-0.7,0.4-1,0.6
			c-1.3,1-2.1,2.3-2.5,3.9c-0.2,0.9-0.3,1.7-0.7,4.4c-0.1,1.1-0.6,3.1-0.6,3.1c-7.5-0.1-14.5,1.2-20.7,4.7L3212.1,97.7z
			 M3222.1,98.9l1.7,7.6l-1.7,0l-0.2-5.5l-5.3-0.5l1.9-1.9L3222.1,98.9z M3214,99.6c0.5,0.5,1,1,1.4,1.5c-1.4,4.8-6,11-10.5,17.1
			l-3.3-0.4c-0.1-0.1,4.6-6.6,6.8-9c0.8-1,1.4-2,2.2-3.5c0.3-0.5,0.7-2,1.1-3.4C3212.5,100.9,3214,99.6,3214,99.6L3214,99.6z
			 M3215.8,101.2l2.5,2.5l0.6,35.8c-3.8-3-8.4-5.3-13.2-7l0.8-1.9l0.9-1c3.3-3.6,2.6-7.4,0.1-10.1c3-4.4,5.8-7.8,8.1-12.1l0-3
			C3215.6,101.8,3215.8,101.2,3215.8,101.2L3215.8,101.2z M3186,102.7c0.3,0,0.3,0.6,0.4,2.5c0.1,1.8,0.1,2.6,0.3,2.8
			c0.2,0.2,0.3,0.3,2.4,0.3c2.2,0.1,2.6,0.1,2.6,0.4c0,0.1-0.3,0.4-0.6,0.7l-0.6,0.6l-1.9,0c-1,0-2.3,0-2.3,0
			c-0.2,0.2,0.5,0.4,1.4,0.4c0.6,0,1.5,0.1,1.6,0.1c0.4,0.1,0.2,0.5-0.6,1.3l-0.8,0.8l-1.8,0c-1,0-2.2,0-2.3,0.1
			c-0.5,0.2-0.3,0.3,0.6,0.3c1.5,0,2.5,0.1,2.6,0.4c0,0.1-0.3,0.5-0.6,0.9l-0.7,0.7l-2.6-0.1c-2.5,0-2.8,0.2-0.7,0.4
			c0.8,0.1,2,0.3,2.1,0.3c0,0,0.1,0.1,0.2,0.2c0.1,0.2-0.9,1.3-1.4,1.6c-0.3,0.1-0.5,0.1-0.9,0c-0.6-0.1-2.9-0.1-3.2,0
			c-0.2,0.1,0.3,0.3,0.9,0.3c1,0,2.2,0.3,2.2,0.5c0,0.2-0.5,0.8-1,1.3c-0.2,0.2-0.8,0-2.5,0.1c-1.1,0-1.9,0.1-1.9,0.2
			c0,0.1,0.6,0.3,1.3,0.3c0.7,0.1,1.7,0.2,1.8,0.3c0.2,0.2-1.1,1.7-1.1,1.7l-5.4-0.1l-0.5-5.7l0.5-0.5c1-1.2,1.3-1,1.5,1.1
			c0.2,1.6,0.3,2.1,0.5,1.8c0.1-0.1,0-1,0-2.3c-0.1-1.1-0.1-2.1-0.1-2.2c0-0.3,1.2-1.6,1.5-1.5c0.2,0,0.4,0.6,0.5,2
			c0.1,1.2,0.2,1.5,0.4,1.3c0.1-0.1,0.1-0.7,0-2.3l-0.1-2l0.5-0.6c1-1.2,1.3-1.1,1.4,0.9c0.1,1.4,0.2,2.1,0.5,2.1c0.1,0,0.1-1,0-2.6
			l-0.1-2.3l0.7-0.7c0.4-0.4,0.7-0.7,0.8-0.7c0.3,0,0.4,0.6,0.6,1.9c0.2,1.5,0.2,1.8,0.4,1.6c0.1-0.1,0-1,0-2.2l-0.2-2.3l0.8-0.8
			c0.4-0.4,0.9-0.8,1-0.8c0.2,0,0.4,0.7,0.4,1.7c0,0.9,0.2,1.7,0.4,1.9c0.1,0.1,0.1-0.5,0.1-2.1c0-2.5-0.1-2.7,1-3.9
			C3185.6,102.9,3185.8,102.7,3186,102.7L3186,102.7z M3215.2,103.8l0,3.5c-1.4,3-4.6,7.4-7.9,12.1l-1.7-0.9
			C3209.7,113.1,3213.1,108,3215.2,103.8z M3168.2,104.9c0.1,0,0.2,0,0.3,0c0.9,0.1,0.9,0.4,0.1,1.1c-0.3,0.3-0.7,0.6-0.9,0.6
			c-0.3,0-0.3,0-0.2-0.7C3167.6,105,3167.7,104.9,3168.2,104.9L3168.2,104.9z M3221.8,107.4l2.4,2.4l0.6,25.6l-2.5,4.2L3221.8,107.4
			z M3224.8,110.8c2.2,5.1,4.5,10,7,13.9l-6.5,9.1L3224.8,110.8z M3203,118.7c3,0,5.7,2.3,6.1,4.7c0.7,2.8-0.8,5.7-3.1,6.6
			c-0.8,0.3-1.3,0.3-1.3,0.3c-0.3-1.7-0.2-3.3-0.5-4.9c0,0-1.4,1.8-2.2,2.5c-0.4,0.2-0.6,0.3-0.5-0.2c0-0.9,0.1-3,0.1-3l-3.4,3.6
			c0,0-0.3-0.4-0.6-1.3c-1.1-2.9,0.3-5.9,2.5-7.3C3201,119,3202.1,118.8,3203,118.7L3203,118.7z M3248.8,118.5l0.1,3.1
			c-5.4,4.2-13.1,13-19.7,24.5l-2.9,1.2C3230.7,136.7,3240.2,125.8,3248.8,118.5z M3248.9,122.7l0.1,4.7c-4.8,4.6-8.9,9.3-12.5,15.4
			c-2.1,1-6,2.9-6,2.9C3229.9,145.5,3241,128.3,3248.9,122.7L3248.9,122.7z M3200.8,126.7c0.2,0,0.2,0.4,0.1,1
			c-0.2,1.4-0.3,1.9-0.8,2.6c-1.7,2.1-4.5,4.9-4.9,7.5c-0.2,1.4,0.9,2.7,2,2.6c3.3-0.4,3.7-6.3,4-9.2c0.1-0.7,0.2-1.3,0.3-1.6
			c0.7-0.9,1.5-1.8,2.4-2.5l0.4,4.5l1.9-0.6c-5.3,7.2-3.8,7.6-6.5,10.6c-2.6,2.7-7.6-0.4-6.3-4.5c1.1-2.8,2.8-5.6,3.3-8.6
			c0.1-0.9,0.2-1.5,0.2-1.5l1.2,2.5C3198.6,128.7,3200.4,126.8,3200.8,126.7L3200.8,126.7z M3249.1,128.2l0,3.2
			c-2.5,2.8-4.6,4.9-7.1,8.7l-4,1.8C3240.6,137,3244.9,132.4,3249.1,128.2z M3200.3,131c0,0,0.3,1.5-0.3,4.2
			c-0.3,1.3-1.5,5.1-3.5,4.2c-1.7-1.5,0.4-4.2,1.4-5.5C3198.7,133,3199.6,132,3200.3,131z M3195.1,131.4l-1.1,2.3
			c-9.8,0-19.3,3.5-27.7,10.7l-2.1-0.7C3173.1,135.3,3184.2,131.1,3195.1,131.4z M3205.4,133.2c11,3.7,16.1,9.1,20.3,14.7l-1.7,0.9
			c-4.4-5.7-9.7-10.8-19.8-13.8L3205.4,133.2z M3192.8,136.7l-0.5,2c-6.2,0.2-12.7,2.4-19,6.8l-2.3-0.4
			C3177.4,140.1,3184.6,137.2,3192.8,136.7z M3220.9,150.2l-2,0.9c-5.8-7.6-11.1-9.7-17.1-11.7l0.6-1.7
			C3210.6,139.9,3216.5,144,3220.9,150.2z M3139.6,141.2l0.2,20.2l-1.4-0.3l-0.2-19.5L3139.6,141.2z M3136.3,142.3
			c-2.7,10.1-0.6,12.7,0.4,18.5l-2.2-0.4c-2.2-5.9-2.4-11.4-0.6-17.7L3136.3,142.3z M3203.8,143.9c0.2,0.2-0.1,0.7-0.5,0.9
			c-0.4,0.2-0.3,0.2-1,0c-0.6-0.2-1.4-0.8-1.4-1C3201.3,143.7,3203.4,143.7,3203.8,143.9z M3205.7,144c0.4,0,1.4,0,1.5,0.4
			c0,0.2-0.4,0.5-1.2,1.1c-1.3,0.9-1.7,1.1-2.1,0.6c-0.4-0.4-0.3-0.8,0.4-1.4C3204.8,144.2,3205.1,144,3205.7,144z M3161.5,144.2
			c0.7,0,2.1,0.9,2.9,2c0.8,1.3,1.7,2.6,2.5,3.9c1.7,2.9,3,5.9,4.1,8.9c2.9,7.2,4.6,14.2,6,21.2c0,0.6-0.5,0.6-1,0.4
			c-0.2-0.1-0.4-0.2-0.5-0.3c-0.6-1.7-0.8-3.4-1.3-5.2c-1.1-4.3-1.6-6.7-3.8-12.8c-1.1-3.1-2.8-7.5-4.6-10.8
			c-1.2-2.1-2.5-4.1-4.2-5.9c-0.5-0.5-1-0.9-1-1C3160.6,144.4,3160.9,144.2,3161.5,144.2L3161.5,144.2z M3208.5,144.5
			c0.7,0.2,2.3,0.4,1.7,0.9c-2.3,0.9-3.1,1.9-4.3,2.9c-0.2,0-0.9-0.9-0.9-1.1C3206,145.9,3207.2,145.3,3208.5,144.5z M3164.8,144.5
			c1,0,1.9,1.2,2.4,2c3,4.4,5.6,10.7,7.7,16.9c2.3,6.6,3.7,13,4.3,17.6c-0.1,0.1-0.3,0.2-0.7,0.2c-0.6,0-0.7-0.1-0.9-0.6
			c-1.6-7.5-3.7-15.2-6.2-21.8c-1.4-3.5-2.9-7-5.1-10.5c-1.5-2.2-2.3-3.3-2.3-3.5C3164.2,144.5,3164.4,144.5,3164.8,144.5
			C3164.8,144.5,3164.8,144.5,3164.8,144.5L3164.8,144.5z M3158.1,144.6c1.3,0,3.5,1.6,5,3.6c3.1,4.3,4.9,9.3,6.8,14.2
			c2.1,5.6,3.7,11.8,4.6,16.7c0.2,0.7,0.4,1-0.2,1.2c-1-0.3-1-0.3-1.3-1.5c-0.4-1.3-0.5-2.6-0.9-4c-2.1-7.6-4.5-16.1-8.4-22.9
			c-4.7-7.6-6.1-5.5-6.9-6.8C3156.9,144.8,3157.4,144.6,3158.1,144.6L3158.1,144.6z M3169.5,146.5c4.1,7.1,5.8,11.4,7.1,15.7
			c1.9,6.5,4.1,11.6,5.1,19.2c0,0-1.1,0-1.5-0.2c-0.2-0.2-0.4-0.9-0.5-1.5c-1-5.3-2.6-11.6-4.2-16.6c-1.8-5.5-4-10.8-7.2-15.9
			c-0.8-1.4-1-1.9-0.5-1.9C3168.7,145.2,3169.1,146,3169.5,146.5L3169.5,146.5z M3211.8,145.7c0.2,0,0.3,0,0.6,0.1
			c0.5,0.2,0.7,0.3,0.7,0.5c0,0.3-0.3,0.4-1.3,0.7c-0.8,0.2-2.4,1-3.5,2c-0.5,0.4-1,0.9-1.1,0.9c-0.3,0-0.9-0.7-0.9-0.9
			C3207.2,147.6,3209.9,145.8,3211.8,145.7L3211.8,145.7z M3155.9,145.9c3.4,0.1,6.1,4.1,7.5,6.8c0.5,1.1,1.3,2.2,1.8,3.4
			c2.8,6.2,5.2,14.1,6.3,19.1c0.6,2.4,1.2,4.2,1,4.6c-0.3,0.2-0.9,0-1.2-0.2c-0.2-0.1-0.3-0.7-0.6-1.7c-0.8-2.6-2.1-9.9-5.6-17.7
			c-0.1-0.2-1.8-5.1-4.6-9.7c-1.2-1.9-3.1-3.1-4.8-3.5c-0.9-0.1-1.1,0-1.1-0.5c0-0.3,0.1-0.4,0.6-0.5
			C3155.4,145.9,3155.6,145.9,3155.9,145.9z M3177.3,161.8c-0.2,0-0.4-0.4-0.6-1.2c-0.1-0.4-0.2-0.6,0.5-1
			c4.3-4.5,0.6-11.2-4.8-11.8c-0.5-0.1-1.1-0.1-1.3-0.1c-0.3-0.2-0.8-1.1-1-1.5C3177.6,144.4,3185.4,155,3177.3,161.8L3177.3,161.8z
			 M3214.2,147c0.4,0.1,1.4,1,1.3,1.2c-0.1,0.2-1,0.2-2.2,0.5c-2.5,0.5-3.6,2.1-4.8,3.3c-0.3,0.1-0.5-0.1-0.7-0.5
			c-0.2-0.3-0.3-0.7-0.3-0.8C3208.8,148.8,3212.3,146.8,3214.2,147L3214.2,147z M3154.1,147.6c2.2,0,4.3,1.1,5.5,2.8
			c4.4,6.7,9.4,21.4,10.6,28.7c-0.1,0.2-0.4,0.3-1.1,0.1c-0.3-0.1-0.3-0.2-0.5-0.9c-1.4-5.3-2.9-10.5-4.7-15.2c-0.9-2.4-2-4.8-3-7
			c-0.7-1.4-2-3.8-2.5-4.5c-1.2-2.2-3.5-2.8-5-2.1c-1.5,0.8-1.7,2.8-0.6,3.7c1,0.7,2.5,0.6,3.1-0.5c0.2-0.4,0.1-0.8,0-1
			c-0.1-0.1-0.3-0.1-0.4,0c0.1,1.3-1.6,1.4-2.3,0.9c-1.1-0.9-0.4-3.6,2.7-2.5c1.2,0.6,1.6,1.8,1,3.1c-0.6,1.3-1.5,1.9-2.9,1.9
			c-1.7,0-3.6-1.2-3.6-3.4c0-1.6,0.7-2.9,2.1-3.8C3153.2,147.6,3153.4,147.6,3154.1,147.6L3154.1,147.6z M3172.4,148.6
			c5.3,0.2,7.7,6.4,4.9,10.2c-0.7,0.9-1.2,0.7-1.5-0.4c-0.1-0.5-0.3-0.5,0.1-0.9c2.5-2.4,0.4-6.9-3.6-7.1c0,0-0.8-1.1-0.8-1.7
			C3171.8,148.5,3172.2,148.6,3172.4,148.6L3172.4,148.6z M3216.2,149c0.4,0.1,1.2,0.9,1.2,1.2c0,0.3-0.2,0.3-1.1,0.1
			c-2.2-0.4-4.4,0.9-6.3,3.7c-0.9,1.7-1,1.5-1.5,0.1c-0.2-0.7-0.2-0.7,0.7-2.1C3211.1,149.7,3213.7,148.7,3216.2,149L3216.2,149z
			 M3218.3,151.8c1.8,1.7,1,5.4-1.5,5.8c-2.2,0.3-4.2-2.1-2.8-3.7c0.9-1,2-1.1,2.7-0.2c0.7,0.9,0.4,2.1-0.6,2.2
			c-0.1,0-0.2,0.1-0.2,0.2c0,0.2,0.9,0.2,1.2-0.1c0.6-0.7,0.6-1.7,0.1-2.5c-0.5-0.7-1.5-1.2-2.4-0.8c-1.5,0.5-3,2.5-3.9,5.1
			c-0.2,0.7-0.4,1.4-0.5,1.5c-0.2,0.3-0.2,0.3-0.4,0.2c-0.2-0.1-0.5-1.7-0.5-2.3c0-0.4,0.4-1.6,0.9-2.6
			C3212.1,151.5,3215.7,149.5,3218.3,151.8L3218.3,151.8z M3173.3,151.1c2.2,0.1,3.9,3.2,2.9,5.3c-0.3,0.4-0.7,0.7-0.9,0.4
			c-0.1-0.1-0.4-1.1-0.9-2.1c-0.5-1.1-0.9-2.1-1-2.3C3173.1,151.6,3172.8,151.1,3173.3,151.1z M3158.6,152.9
			c2.5,4.3,4.5,9.3,6.2,14.2c1.3,3.8,2.4,7.5,3,10.8c0.1,0.3,0.1,0.5,0,0.7c-0.2,0.2-1.4-0.4-1.4-0.4c-2-7.1-3.7-14.1-8.6-23.1
			c0,0-0.2-0.4-0.3-0.6c-0.1-0.6,0.1-1.3,0.4-1.7C3158.2,152.6,3158.4,152.6,3158.6,152.9L3158.6,152.9z M3131.1,161.1
			c11.6,0.8,20.5,5.7,25.3,18.6c-1.7-1-10.3-7.6-25.2-8.5l0-1.8c10.7-0.1,21.1,5.5,20.8,5.4c-4-8.2-13.9-11.5-21-11.7L3131.1,161.1z
			 M3211.5,163.7c-0.7,1.1-0.7,1.1-1,2.1c0,0.3,0.1,2.3,0.1,3.5c0.1,1.5,0.1,2.1,0.2,2.3c0.2,0.2,0.6,0.3,0.8,0.1
			c0.1-0.1,0.2-0.4,0.3-0.7c1-3.6,1.4-5,1.8-5.4c0.3-0.3,0.3-0.3,1.4-0.2c2.4,0.2,3.2-2.6,1.6-3.7
			C3214.6,160.4,3212.4,162.3,3211.5,163.7z M3214,164.4c-1.7,1.4-1.7,3.4-2.2,5.2c-0.3,1.2-0.7,1.9-0.8,0c-0.3-2.6,0.1-4.5,1.2-6.1
			c0.7-1.1,1.8-1.9,2.9-1.9c2.2-0.2,2.4,1.6,1.8,2.5C3216.4,164.9,3215.2,165.2,3214,164.4z M3134.2,165.3c0.8,0,1.5,0.7,1.5,1.5
			c0,0.8-0.7,1.5-1.5,1.5c-0.8,0-1.5-0.7-1.5-1.5C3132.7,166,3133.4,165.3,3134.2,165.3z M3139,166.3c0.7,0,1.3,0.6,1.3,1.3
			s-0.6,1.4-1.3,1.4c-0.7,0-1.3-0.6-1.3-1.4S3138.3,166.3,3139,166.3z M3143.4,167.8c0.6,0,1.1,0.5,1.1,1.1c0,0.6-0.5,1.1-1.1,1.1
			c-0.6,0-1.1-0.5-1.1-1.1C3142.3,168.3,3142.8,167.8,3143.4,167.8z M3146.5,169.8c0.5,0,0.8,0.4,0.8,0.9c0,0.5-0.4,0.8-0.8,0.8
			c-0.5,0-0.9-0.4-0.9-0.8C3145.7,170.1,3146.1,169.8,3146.5,169.8z M3135.6,172.5c-0.3,1.6-0.1,3.3,0.3,4.5c0.9,2.5,0.5,7,0.5,7
			l-2.5,2.5c0.2-2.3,0.5-4.8,0.3-6.8c-0.1-1.3-0.7-2.5-0.8-3.8c-0.1-1.2,0.1-3.6,0.1-3.6L3135.6,172.5z M3139.7,173.2l0.1,10.7
			l-8.6,8.3l0-2.2l7.3-7.3l-0.2-9.9L3139.7,173.2z M3160.9,197.6l-0.6,0.9h9.7l0.2-0.9H3160.9z M3173.5,197.6l-0.2,0.9h4.5l0.1-0.9
			C3177.9,197.6,3175.6,197.6,3173.5,197.6z M3180.9,197.6l-0.1,0.9h16.7l-0.2-0.9H3180.9z M3200.4,197.6l0.3,0.9h4.4l-0.4-0.9
			H3200.4z M3207.8,197.6l0.3,0.9h7.6l-0.6-0.9H3207.8z"/>
		<path id="path35-67-2-1-9" fill="#D40000" d="M3119.2-19.5v2.8h2.7c0,0,0.1,2.7,0.1,8.3c0,5.5,0.1,8.2-0.2,9.8
			c-0.9,3.6-6.2,3.6-7.2,1c-0.6-1.5-0.4-2.7-0.5-4.2h-2.9c0,0,0,0.8,0,1.7c0,4,1.4,6,4.5,6.8c3.2,0.9,7-0.5,8.3-3.2
			c0.8-1.6,0.7-1.7,0.7-11.2c0-6.3,0.1-9,0.1-9h2.5v-2.8H3119.2L3119.2-19.5z"/>
		<path id="path35-6-7-1-4" fill="#D40000" d="M3269.7,207.8v-2.8h-2.7c0,0-0.1-2.7-0.1-8.3c0-5.5-0.1-8.2,0.2-9.8
			c0.9-3.6,6.2-3.6,7.2-1c0.6,1.5,0.4,2.7,0.5,4.2h2.9c0,0,0-0.8,0-1.7c0-4.1-1.4-6-4.5-6.8c-3.2-0.9-7,0.5-8.3,3.2
			c-0.8,1.6-0.7,1.7-0.7,11.2c0,6.3-0.1,9-0.1,9h-2.5v2.8H3269.7z"/>
	</g>
</g>
</svg>
