<?xml version="1.0" encoding="utf-8"?>
<!DOCTYPE svg PUBLIC "-//W3C//DTD SVG 1.1//EN" "http://www.w3.org/Graphics/SVG/1.1/DTD/svg11.dtd">
<svg version="1.1"
	 id="svg6051" xmlns:rdf="http://www.w3.org/1999/02/22-rdf-syntax-ns#" xmlns:dc="http://purl.org/dc/elements/1.1/" xmlns:cc="http://creativecommons.org/ns#" xmlns:svg="http://www.w3.org/2000/svg"
	 xmlns="http://www.w3.org/2000/svg" xmlns:xlink="http://www.w3.org/1999/xlink" x="0px" y="0px" width="178.6px" height="249.4px"
	 viewBox="0 0 178.6 249.4" enable-background="new 0 0 178.6 249.4" xml:space="preserve">
<g id="layer1" transform="translate(-259.81436,-390.74243)">
	<g id="g5943" transform="matrix(0.99999718,0,0,1.000002,-2845.4627,1126.8041)">
		<path id="rect10346-5-7" fill="#FBFBF6" stroke="#7F7F7F" stroke-width="0.4" d="M3114.2-735.7H3275c4.7,0,8.5,3.8,8.5,8.5
			v231.6c0,4.7-3.8,8.5-8.5,8.5h-160.8c-4.7,0-8.5-3.8-8.5-8.5v-231.6C3105.7-731.9,3109.5-735.7,3114.2-735.7z"/>
		<path id="path10378-7-1" fill="#D40000" d="M3119.4-679.9c0,0-1.8-2.5-4.2-5.5c-1.6-2-2.9-4.2-3-6c-0.1-2.1,1.2-4.3,3.5-4.4
			c2.3-0.1,3.3,1.6,3.7,3.1c0.4-1.4,1.3-3.2,3.7-3.1c2.3,0.1,3.6,2.2,3.5,4.4c-0.1,1.9-1.4,4-3,6
			C3121.2-682.4,3119.4-679.9,3119.4-679.9L3119.4-679.9z"/>
		<path id="path10380-5-9" fill="#D40000" d="M3269.8-542.8c0,0-1.8,2.5-4.2,5.5c-1.6,2-2.9,4.2-3,6c-0.1,2.1,1.2,4.3,3.5,4.4
			c2.3,0.1,3.3-1.6,3.7-3.1c0.4,1.4,1.3,3.2,3.7,3.1c2.3-0.1,3.6-2.2,3.5-4.4c-0.1-1.9-1.4-4-3-6
			C3271.5-540.3,3269.8-542.8,3269.8-542.8z"/>
		<path id="path35-67-2-8-6" fill="#D40000" d="M3119.3-724.6v2.8h2.7c0,0,0.1,2.7,0.1,8.3c0,5.5,0.1,8.2-0.2,9.7
			c-0.9,3.6-6.1,3.6-7.2,1c-0.6-1.5-0.4-2.7-0.5-4.2h-2.9c0,0,0,0.8,0,1.7c0,4,1.4,6,4.5,6.7c3.2,0.9,7-0.5,8.3-3.2
			c0.8-1.6,0.7-1.7,0.7-11.1c0-6.3,0.1-8.9,0.1-8.9h2.5v-2.8H3119.3L3119.3-724.6z"/>
		<path id="path35-6-7-4-8-8" fill="#D40000" d="M3269.8-498v-2.8h-2.7c0,0-0.1-2.7-0.1-8.3c0-5.5-0.1-8.2,0.2-9.7
			c0.9-3.6,6.1-3.6,7.2-1c0.6,1.5,0.4,2.7,0.5,4.2h2.9c0,0,0-0.8,0-1.7c0-4-1.4-6-4.5-6.7c-3.2-0.9-7,0.5-8.3,3.2
			c-0.8,1.6-0.7,1.7-0.7,11.1c0,6.3-0.1,8.9-0.1,8.9h-2.5v2.8H3269.8L3269.8-498z"/>
		<g id="g3347-7-8-1" transform="matrix(0.99431686,0,0,0.99733632,2558.8278,-1241.0201)">
			<g id="g9405-3-0-4" transform="translate(-1694.0624,23.063255)">
				<g id="g3861-4-5-0">
				</g>
			</g>
			<g id="g3498-4-3-9" transform="matrix(0.15515913,0,0,0.15515913,604.9465,621.11516)">
				<g id="g2997-9-2-6">
					<g id="g3884-5-1-3" transform="matrix(0.99998259,0.0059011,-0.0059011,0.99998259,1.5988528,-2.1391077)">
						<g id="g3000-2-1-2">
							<path id="path2993-7-5-1" fill="#E2CF00" d="M629.2-551.5L570-512.4l-0.6,45.2c-35.3-16.7-50.8-44.3-56.6-76.7
								c-9.9,12.6-7.5,76.1-7.5,76.1c-9,4.7-12.3,10.9-18.1,16.5c5.7,9.4,21.9,25.2,21.9,25.2c-0.1-0.3-7,66.1,1.8,68.7
								c7.9-28.3,18.4-53.1,57.6-79.2c0,0,1.2,105.4-0.7,207.2c-16.7-11.4-52.1-31.7-74.9-52.7c29.3-38.2-1.1-87.6-44.9-54.4
								c-28.6-15.3-33.4-88.2-40.7-126.4c-1.4-7.7-8.2-30.1-8.2-30.1s-94.2-25.5-134.5-23.1c34.4,88.2,28.5,195.9-121.5,216.9
								C71.5-265.8-11.4-228.7-91.7-159.7C-106-57.7-158.3-7.2-195.3,20.8c0.5,41.3,0.2,82.2,2.2,123.9c0,0.3,33.8-22.5,39.1-18.4
								c29.4,184.1,133.5,220,123.1,225.2c-1.7,0.8-33.8,34.3-33.8,34.3l-127.2-82.7c-3.6,127.4-0.3,257.4,2.3,385
								c22.3-12.8,63.2-43.3,63.2-43.3l0.4-43.4c-0.2-4.1,57.8,35.8,58.3,83.7c4.5,3,14-69.1,4.9-76.8l23.6-24.6l-25.7-24.4
								c0,0,6.2-40.8-7.1-64.2c-8.3,53.8-52.8,70.9-52.8,70.9s-2-196.6-3.2-196.8l79.9,50c-42.8,59,33.2,77.6,42,49
								c49.2,45.4,30.7,100,52.5,164.7l139.2,24.7c-57.9-105.9,3.5-227.4,116.1-219.4c21-8.9,40-21.7,40-21.7s-14.1-22.8-31.9-43.9
								L68.9,370l111-211.1l-73.8-1.9c0,0,59.2-127.6,46.2-137.8c-4.6-3.6-2.9-44.6-2.9-44.6l66,2.1c2.4-29.4-32.7-141.1-81.8-214
								l270.6,0.8L253-23.2l81.8,1.9L286.7,79.3l8.3,78.2l-72.6,2.8c13.2,108.4,94.4,222.2,122.9,257.3
								C392,406.2,479,338.8,533,296.8c6.6-72.8,31.3-134.9,96.5-181.5L629.1-4.5c0,0-37.2,24.4-37.3,22.7
								c0-25.9-13.8-79.8-39.1-127.8c-27.1-51.5-71.3-98-81.4-100.8c23-35.3,32.9-38.5,32.6-39l127,80.4L629.2-551.5z M-7.1-292.3
								c0,0-24.6,9.5-45.9,9.3c-38.3,2.2-67.5,5.5-82.9,37c-3.1,9.6,3.8,13.1,8.9,15.5C-98.3-266.4-21.3-219.5-7.1-292.3z
								 M-176.3-126.6c0,5.1,5.7,13.3,8.5,4.7c2.4-6.1,2.9-16.1,0.1-22.2C-175.4-148.4-176.2-131.6-176.3-126.6z M239.8,44.5
								l-37.4,0.4l0,43.9l37.7-0.2L239.8,44.5z M608.7,261c-0.8,4.4-4.7,24,4.4,20.5C623.8,273.1,614.4,235,608.7,261z M574.1,371.4
								c-4.5-6.4-18,9.7-29.2,10.3c-49.8,3-86.6-3.5-92.5,48.7c28.6-18.5,69-10.4,94.9-16.5C566,407.7,587.4,390.5,574.1,371.4z"/>
							<path id="path3504-0-2-5" fill="#131F67" d="M-198.6,749.6l-8-1360.4l846.6-5l8,1360.4L-198.6,749.6z M-165-132.3
								c0.7-13.1-4.8-18.5-9.4-9.4c-1.1,2.1-4.6,24.9,4,25.6C-164.7-115.7-165.3-126.7-165-132.3z M-178.6-116.9
								c-0.1-3.1-2-4.4,2.1-31.3c-8.1-3.1-15.1-16.1-9.3-24.4c2.3-3.2,1.6-3.9,0.6-6.6c-2.3-6.7-1.2-12.1,5-16.4
								c4-2.7,4.1-3.5,2.8-7c-3.3-9.2-0.3-18.2,8.5-21.4c6.1-2.2,4.9-2.5,5.5-6.3c1.4-8.7,6.2-14,14.9-13.1c8.1,0.8,8.6,0.8,9.3-3.2
								c1.9-11,15.1-23,32.4-31.2c8.6-4.1,22.8-7,50.2-7.1c15.7-0.4,35.2-2.6,46.1-12.3c1.8-1.7,4.3-6.1,5.2-5.6
								c2.1,1.4,1.6,12.3-2.3,22.3c-11.5,29-27.2,37.1-71.8,37.1c-13.3-0.6-32.9,1.4-41.1,9.9c-2.5,2.6-4.1,5.1-3.2,6.5
								c18.5,2.5,37.5,10.7,48.8,47.1c33.4-24,86.6-60.7,152.6-93.9c-8.2-43.5,29.5-50.5,50.8-41.9c0,0,0.5-2.8-0.3-6.1
								c-0.8-3.2-2-7.4-6-12.8c-1-2-7-5.7-5.8-8.6c1.9-4.9,1-6.2-3.1-10.6c-2.7-2.9-0.9-9.1-0.3-11.6c0.8-4.7,3.8-11.4,1.1-13.8
								c-4.2-3.9-18.6-10.3-26-15.5c-8.2-5.9-8.4-11.2,3.5-30.7c5.4-11.4,10.4-23.5,14.7-31.7c6.5-12.3,7.1-20.4,3.1-27.5
								c-5.2-9.2-4.4-20.1-4.3-19.8c0,0-49.4-68.3-69.7-95.5l-230,1.4l3.1,521.8l39.3-37.9l-10.8-12.6c-1.5,7.4-0.1,14.5-9.1,15
								C-175.2-112.5-178.1-113.8-178.6-116.9z M-38.4,580.5c1.2-20.7-8.9-54.5-24-77.9c0.8,17.8,2.2,39.6-1.3,57.1L-38.4,580.5z
								 M323.3,632.4c-1.8-0.6-16.8-1.4-26.3-1.8c-31.3-1.5-51.7-16.4-65.4-37.1c-3.4-5.1-2-4.9,5.4,0.9
								c20.9,16.1,40.4,25.7,57.5,23.2c24.2-3.6,37.3,5.2,34,15.6C328,634.9,327.8,633.8,323.3,632.4z M241.1,586.7
								c-4.9-4.2-5.2-6.1,0.5-2.3c17.6,11.6,39,30.6,65.1,19.2c5.4-3.5,0.4-3-8.7-2c-13.9,1.6-30.9-5.4-51.8-19.7
								c-10.2-7-5.8-12.9,5.7-7.5c3.6,1.7,7.2,2.9,9.4,3c11.2-7.6,35-7.6,34.4-7.6c2.7-2.3-6.2-6-19.4-10.9
								c-8.6-3.2-10.7-4.5-4.3-4.8c5.6-0.2,14.4,2.5,20.7,6.5c10.6,6.7,15.9,10.4,19.1,10.9c5.2,0.4,10.5,1.1,1.6,5.3
								c-4,1.9-3.7,2.4-3.2,6.9c0.8,7.1,1.2,7,4.5,11c5.5,6,8,17.3,0.1,10.3c-1.7-0.8-1.9,0.7-6.5,2.6
								C281.3,615.6,260.9,603.7,241.1,586.7z M291.2,588.4c1.5-2,3.7-7.1,4.1-8.5c-0.5-3.3-3.5-2.2-5-0.4c-2.5,3.1-6,7.7-3.1,9.3
								C288.6,589.5,290,590.1,291.2,588.4z M281.9,586.3l6-10.8c-1.5-0.7-21.9,3.7-18.7,6.6C272.1,584.7,281.9,586.3,281.9,586.3z
								 M304.8,550.1c-9.3-4.9-12.1-15.7-5.2-22.8c5.8-6,15.7-5.6,27.7,1.7c4.2,2.6,6.8,3.8,9.6,2.8c4.8-1.8,6.6,0.9,6.3,4.6
								c-0.8,8.3-13.7,10.4-21.8,1c-10.8-12.4-22.4-3.6-18.9,5.4c1.8,4.6,5.2,5.3,9,7C311.3,550.5,307.5,551.5,304.8,550.1z
								 M262,494.8c15.4-4.3,38.5,11.9,50.9,9.6c5.4-1.2,4.7,6.6-0.9,9.4c-6.5,3.3-15.9,1.2-35.7-9c-16.3-8.7-29.4,6-18.5,16.8
								c2.3,2.2,5.8,3.5,9.9,3.3c5.5-0.3,7.1,1.2,0,3.1c-4.1,1.1-11.7-0.5-15.4-4.2C243.6,514.9,245.7,497.8,262,494.8z M-65.1,449
								c-0.6-18.3,9.2-28.6,9.4-28.7l-69.7-46.7l2.1,188c34.3-22,45.4-49.6,47.1-85.1c68.3,75.6,47.7,168.3,5.6,221.3
								c-1.9-32.2-11.8-70.3-51.1-89.6l0.2,38.5l-65.6,46.5l0.3,45.2l154.3-0.9l73.4-110.7C27.2,577.8,29,537,19.8,514.7
								c-6.9-18.4-19.9-42.1-28.3-38.4C-36.5,498.8-64.4,472.9-65.1,449z M-6.6,470.4c24.1,17.2,30.7,45.4,35.8,70.5
								c0.2,0.2,13.1,85.2,13.5,86.3c1.6,4.7,1.1,9.3-3,12.9c-22,30.6-65,96.1-65,96.1l425.3,0c-22.9-32.9-40.8-65.4-62.5-92.4
								c0.9-1.5-1.8-20-5.4-25.9c-3.7-6.1-4.6-9.4-2.1-15c6.1-13.9,12.4-29.1,18.1-41.9c10.9-24.5,12.1-24.7-3-32.6
								c-17.9-10.3-21.1-13.6-17.4-25.5c1.3-4.3,1.5-6-4-7.1c-2.6-0.5-8.8-2-13-3.1c-12-3.7-8.5-1.4-12.9,1.8
								c-3.3,1.7-6.3-4.7-10.2-12.1c-4.6-8.6-5.7-8.8,1.8-4.4c13.9,8.1,38.4,4.8,29.7-4.7c-4.2-4.6-8.2-7-7.8-17.5
								c0.4-10.4,0.5-13.5-6.6-14.9c-14.2-2.8-29.6-1.5-42.8,1.9c-40.1,10.3-72.1,45.3-84.1,71.2c-2.7,4.5,3.6,4.3,6.3,4.3
								c13.2-1.2,22.6,19.7,14.1,29.1c-4,4.2-7.9,1.7-3.7-3.8c4.8-9-2.5-20.9-13.1-17.8c-13.3,3.9-13.6,21.1-15.2,33.2
								c-4.3,34.6,13.5,80.8,17.9,90.2c0,0,0.9,1.4,0.6,1.4c-0.3,0-2.4,2-3.3,0.9c-3.1-3.5-11.1-31.7-15.4-51.9
								c-8.5-55.9,5.6-107.4,52-136.9c41-30,61.8-23.7,85.2-25.2c8-2.9,19-7.4,27.4-11.5c73.2-38.7,139.9-76.6,201.1-126.7
								c44.8-34.2,66.1-61.9,104.5-96.8L631.2,8.4c0,0-3.9-3.2-3.9-6.3c2.4-13-20.2,8.8-34.8,16.1c-9.7-88.9-58.3-176.1-116.9-226.9
								l2.4-3.3c0,0,19.6,12.8,29.3,18.8l-0.1-12.4l-23.6-14.6c-1.1-4.5-0.5-5.2,4.6-5.3l18.9,13.8l-0.1-11.3l-15.3-9.6l4.8-6.2
								l8.2,5.2c-3.5-8.9,1.4-8.7,6.4-2.7c2.1,2.7,4.8,6.2,6,9.5c0.4,1.3,1.8,4.3,1.8,4.3l13.4,9.8c0,0-0.5-4.8-0.1-6.3
								c2.2-7,18.4,15.6,16.4,16.1l13.7,9.8c3.2-4.9,15.4,4.8,16,9.6c1.1,2.1,47.3,31.4,47.3,31.4l0.4-16.3l4.9-6.5l0-377.6
								L570.3-513l-0.4,45.7c-28.9-9.2-54.2-50.8-58-76.9c-1.9-1-9.9,51.5-5.4,74.4c-7.6,5.7-20.4,19.1-20.3,19.1l23.3,25.2
								c0,0-4.4,38.8-3.2,58.1c1,9.1,1.2,10.1,3.9,10.1c2.2,0,4.2-2.4,4.2-4.5c5.3-23.1,22.9-59.2,53.8-71.6c2-0.1,1,205.7,1,205.7
								l-77-51.8c-3.8-3.3,5-3.1,10.3-20.6c13.6-45-34.7-60.6-53.1-34.5c-3.1,0-15.9-15.7-17.9-22.3c-14.3-28.5-17.2-60.8-20.2-86.8
								c-1.7-11.8-6.2-31.1-9.8-42.8c-2-6.2-2.2-10.7,1.9-16.5c17.6-36.8,51.8-62.3,64.5-99.4l-426.4,1.1c27.1,22.1,51,84.2,75.6,92
								c-11.8,1.6-7.7,11.9-3.1,22.9c5.7,13.6,5.1,16.4-9,44.6c-20.7,41.3-21.8,37.7-0.9,50.3c12.9,8.2,15.3,10,13.5,21.2
								c-1.8,11.2-2.4,7.8,8.3,8.6c5.7,0.5,10.2,1.5,12.8,2.6c2.9,1.3,5.1,3.1,8.8,1.9c6.3-2.1,6.5-0.6,6.7,4c0.1,2,3.1,6,4.1,7.5
								c2.5,4,1.3,4.6-3.1,1.9c-13.8-8.6-36.7-4.7-28.2,4.6c3.5,3.8,7.1,16.7,7.4,23.1c0.6,11.4,8.1,15.4,23.6,13
								c30-2.4,97.3-40,112.8-81.9c-34.5,12-27.7-30.5-15.3-29.3c0,0-3.3,7.6-3.4,11.9c-0.3,15.2,12.4,16.3,21.1,5.5
								c3.8-5.7,8.3-26.7,5.9-50.4c-2.9-28.7-14.7-60.7-16.9-68.7c50.2,117.8,5,170.1-64.3,204.4c-26.6,11.3-30.2,11.2-45.9,12.1
								c-10.7,0.9-20.4,6.3-30.7,9.8C62.2-260.8-10.8-225-75.9-171.8c-46.7,35-83.8,66.5-120.7,106.9l1.1,208.4
								c11.1-1.8,29.2-12.8,39.8-19.1c12.7,77.8,53.3,167.7,119.9,221.2c0,0-1.5,3-1.6,2.9c-9.5-6.2-19-12.4-28.1-17.2l-0.4,9.9
								l22.4,15.2c0.6,2.4-3.8,5.7-3.8,5.7l-18.5-12.6l-0.1,10.1l14.3,9c3.9,3.8-4.6,5.9-4.6,5.9l-8.5-6.1c0,0,0.6,4.9,0.4,5.8
								c-2.2,7.5-14.5-8.9-16.7-17.1l-12-7c1.7,4.8-2.6,5.6-6,4.4c-9-4.5-8.6-12.2-10.5-16.8l-16-10c-2.7,15.2-19-6.1-16.5-11.2
								l-20.6-13.8c1.1,0.4-7.8,2.3-10.8,0.4c-3.5-2.3-4.8-11.5-4.8-11.5l-12.3-7.5l0.1,13.3l126.9,87.5l-1.8,3.4l-132.3-89.4
								l7.7,391.3l64-44.8c-1.3-14.6,1.3-27.7,0-44.4c33.1,20.4,44.3,34.3,59.1,77.3c9.3-24.6,7.5-48.2,3.1-70
								c8.4-7,16.6-13.7,20.8-24.2c-8-10.9-15.8-13.9-24.2-24c-0.7-12.4,6.3-49.2-3.5-61.3c0,0-17.4,53.6-55.6,69.9
								c-1.5-56.5-1-198.5-1-198.5s39.5,26.9,59.6,37.8c9.4,5,16,8.1,16.2,11.7c0.1,1.8-3.7,4.2-5.3,6.7c-1,1.6-5.3,16.9-3.5,28.8
								c0.8,8.8,5,14.3,9,18.5C-38.7,487.2-15.6,480.7-6.6,470.4z M68.9,370l149.9-212.3c18.4,77.7,49.2,148.8,89.2,213.1L68.9,370z
								 M142.3,147.3c0,0,10.4-21,15.2-32.1l-18.5,0.1l11-12.5l27.6-0.2L163,134.2l11.7-0.1l16-31.5l42.9-0.3l-14.8,31.5l9.9-0.1
								l15.9-31.5l39.9-0.2l-13.9,31.5l9.4-0.1l8.1-15.9l2.2,28.8l-39.7,0.2l15.5-32.1l-12.8,0.1l-17.5,32.1l-37.2,0.2l15.9-32.1
								l-14.1,0.1L183,147.1L142.3,147.3z M264.1,34L279.9,0l-12.7,0.1l-17.5,33.2l-39.6,0.2l15.4-32.9l-9.9,0.1
								c-6.6,10.4-17.2,31.4-17.2,31.4l-42,0.2c0,0,11.8-22.3,16.4-33.2l-10.4,0.1l-8.4,13.5c-3-5-1.1-18.4-1.7-24l39.6-0.2
								l-15.7,32.6l12.6-0.1l17.2-32.6l41.8-0.2l-16.8,32.6l9.9-0.1L257.6-10l42.5-0.3l-14.7,30.8l13.1-0.1l-5.7,13.4L264.1,34z
								 M224.6-24.8l-8,1.6C205.8-110.9,156.7-200,136-236.8l241.6,2L224.6-24.8z M505.2-533c0,0-22.9,29.8-24.1,79.5l21.8-17.6
								C501.3-521.6,505.2-533,505.2-533z M481.4-449.8c-0.1,37,9.7,60.5,22.1,78.9c0.1-23.8,2.3-47.9,3.7-54.3L481.4-449.8z
								 M-112.5,261.2l-78.4-53.3l0.1,11.8l93.2,62.5L-112.5,261.2z M-126.7,232.4c-21-10.4-64.3-42.6-64.3-42.6l0.1,10.8l68.9,47.8
								c1.4,1.3,3.2,1,3.8-0.5C-120.9,243.3-124.2,237.1-126.7,232.4z M-146.1,185.8l-45.1-31l0.1,9.7
								c11.6,10.2,49.6,34.5,49.6,34.5L-146.1,185.8z M-191.2,147.6l42.4,27l-2.7-12.1l-30.1-20.2L-191.2,147.6z M565.1-235.1
								l1.1-194.4c-43.9,21.1-52.2,81.8-50.7,83.6c-44-44.9-61.1-142.1-0.1-207.8c4.7,21,6.5,51.4,50.1,78.9l0.9-41.2l60.4-39.2
								l-0.3-48.6l-146.3,0.9c-22.5,28.8-44.9,62.3-67.1,92.9c-8.3,11.5-10.4,16.8-8.8,22.8c15,52.8,12.5,118,43.6,148.7
								c41.2-39.2,80.4,19.2,48.4,55.6L565.1-235.1z M-60.7,609.4c5.7,17.7,2.1,53.4,1.7,53.4c6.7-3.7,24.6-55.5,19.9-74.9
								 M166.6-362.9c-10.3-2.9-18.1-7.3-29-6.2c-8.6,0.9-11.5-1.9-6.3-6.6c6.8-5.8,13.4-8.3,26.2-1.7c38.3,19.7,39.3-9.4,22.1-11.4
								c-4.9-0.6-4.7-3.7,0.2-2.9C206.3-390.7,198.4-355.3,166.6-362.9z M121.8-391.7c-5.1-1.8-11.2-4.9-13.4-4.2
								c-5.7,1.6-5.9-1.6-5.2-5.3c1.6-8.9,10.7-7.4,22.8,0.2c17.3,10.9,23.8-4.9,8.1-13.4c-5.3-2.8-3.7-3.6-0.6-3.8
								c8.2-0.4,15.9,10.7,13.8,19.8C141.8-383.7,128.4-389.3,121.8-391.7z M172.1-419c-11.2-1.9-27.4-16.8-34.9-17.8
								c-4.2-0.5-9.2,0.1-10.5-1.6c-4.2-5.2,7.5-5.2,8.3-7.1c0-4.4,0.3-7.1,0.1-8.6c-2.1-2.8-10.3-13.9-10-19.3c0.2-0.3,4.3,3,6.4,3
								c19.9-10.6,33.5-6,50.4,1.3c7,3,25,16.8,25.2,19c0.4,3.7-7.6-3.2-13.9-7.4c-15.4-10.6-29.3-18.1-48.6-11.7
								c-3,1.1-2.5,1.6,7.4,0.9c9.7-0.6,17.6,2.3,30,10.2c3.1,2,6.8,5.4,9,6.4c15.6,7.3,19,14.6,9.1,12.7c-2.1-0.4-6.2-2.6-10.3-4
								c-7.1-2.5-4.6-1.7-11.4,1.5c-2.4,1.1-8.2,3.5-12.9,4.1c-3.6,0.6-15.4,0.6-10.2,5.5c5.6,5.5,14.8,9.5,21.1,12
								C180.9-417.7,177.4-418.1,172.1-419z M173.3-443.1c7.3-2.7,1.5-8.8-7.7-10.1c-2.1-0.3-6.6,9.7-6.7,11.9
								C158.8-439.7,169.3-441.6,173.3-443.1z M153.2-441.9c1.7-1.1,7.2-9.2,7.2-10.5c0-5.2-6.6-3.7-8.1,1.7
								C150.5-444.1,150.4-440,153.2-441.9z M129.8-483.5c-6-2.6-14.2-14.1-4.9-12.2c2,0.4,12.4,0.9,19.2,0.9
								c22.9,0,45.8,10.2,60.4,25.2c8.1,8.4,8.7,14.6,0.5,8.8C175.7-486.7,157.9-481.7,129.8-483.5L129.8-483.5z M361.5,414.4
								l-8.1,4.4c0,4.5,1.7,3.8,5.3,6.9c0,0-5,0.8-8.6,0.6c-5.9-0.4-7.3-0.3-4.6,3.9c1.2,1.9,2.9,4.8,2.9,4.8s-3.2,0.7-8-0.6
								c-7.3-2-11.1-0.9-8.3,3.1c0.8,1.1,2.3,3.2,2.3,3.2c-5.4-1.2-15.2-5.9-15.2-5.9l-6.9,2.1C326,463.9,375.1,446.6,361.5,414.4z
								 M601.1,374.5c7.6-6.4,3.8-14.2-7.3-19.9c-4.6-2.4-4.2-2.4-11.6,2c-9.2,5.5-9.9,5.8-3.2,12.7
								C586.9,377.7,595.5,379.2,601.1,374.5z M572.8,356.6c7-3.1,4.4-2.6,3.9-9.9c-2.1-8.4,2.7-9,5-16.9c0.9-4.3-2.7-2.7-9.7,3.9
								c-5.8,4.9-7.5,6.1-7.5,3.7c0.6-2-4-7.1-8.2-7.7c-3.5-0.6-3.2-1.4,0.2-5.9c5.9-7.8,8.3-17.6,4.3-26.1
								c-5.1-10.8-6.8-12.4-18-2.9c-5.7,5.3-13.8,9.4-17.7,16c-2.8,4.8-1.1,9.5,3.4,18.9C539.6,353.3,556.8,363.8,572.8,356.6z
								 M612,356.6c12.3-4.9,7.2-18.2-12.1-31.5c-11.7-8-15-7.9-5,0.8c6.3,5.6,7.3,7.5,4.7,11.6c-2.2,3.4-4.6,7.3-2.3,10.4
								C600.8,352.7,606.9,358.6,612,356.6z M-82.1,338.6l-13.5-8.4l0.1,11.6l13.5,7.9L-82.1,338.6z M589.5,345.1
								c2.7-1.9,4.9-7.2,4.9-9.5c0.6-5.4-8.2-4.1-12.4,1.9C577.3,344.3,582.9,349.7,589.5,345.1z M619.4,326.6
								c6.1-6.5,3.1-13.3-9.6-21.3c-4.9-3.2-7.4-5.2-6.7,1.1c0.2,1.9-1.9,4.5-3.2,6c-4.3,4.9-2.4,5.8,10.1,13.6
								C616.3,329.9,616,330.3,619.4,326.6z M-82.2,318.4l-13.5-8l0.1,10.5l13.5,9L-82.2,318.4z M-111.5,329.1l0.1-10.6l-17.5-11.5
								l-0.2,11.8L-111.5,329.1z M573,320.8c-2.2,6.1,6.8,3.3,7.3,2.7c1.5-3.1,0.2-3.3-0.6-3.7C578.1,319.1,572,320.2,573,320.8z
								 M576.9,313.2c3.1-1,3.5-0.6,3-6.2c-0.7-8.4,0.6-9.1,6.1-12.8c4.5-3,4.5-2.5,4.4-7.7c-0.1-6.2,0.3-8.9,8.5-10.2
								c3.4-0.5,5.3-1.4,5.5-4c0.4-4.5-6.8-11.9-15.7-16.2c-1.3,0-21.1,17.4-26.6,23.4l-3.4,3.7l4.1,7.6c6.4,11.8,5.4,16.2,1.8,31.9
								c-0.7,4.2,2.5,3.6,3.3-1.5C569,316.3,569.7,314.6,576.9,313.2z M606.9,271c-1.5,9.6,3.5,15.4,8.2,10.6
								c2.5-2.6,4.5-23.7,2.7-27C608.2,244.4,607.3,268.7,606.9,271z M453.4,430.1c35.5-21.1,81.5-4.3,107.2-21.6
								c12-13.3,24-21.9,17.1-31c-5.4-7.1-8.8-8.2-8.8-8.2c0.4,0.5-18.7,16.8-46.6,13.2C475.9,381.2,454,395.9,453.4,430.1z
								 M514,380c22.7,0.7,41.1-3.4,49.5-10c5.2-4.1,6-4.8-2.2-5.5c-17.6-1.3-35.6-21.7-41.3-41.5c-1.2-4.1-2.5-8.5-2.5-8.5
								C470.7,352.3,367.7,412,367.7,412c7.1,31.9-16,51.1-47.4,39.9c-5.5-0.5-4.7,6.5-3.7,9.4c1.7,4.7,5.5,8.7,6.3,9.3
								c4.7,4,5.6,6.6,4.9,10.4c-0.7,3.8-0.6,3.7,2.1,5.1c4.7,2.5,4.5,6.1,2,13.5c-2.7,10.4-2.9,13.1,4.6,18
								c9.7,6.1,28.6,12.8,25.9,22.1c-6.2,21.1-16.5,39.4-25.5,59.2c-3.4,5.5-2.6,14.5,0.1,18.7c3.4,6.4,3,14.2,7.3,20.1
								c24,35.1,44.6,65.5,66.4,97.2l223.6-1.3l-3.1-519.5c0,0-37.5,34.6-37.4,37c0.2,2.9,8.2,7.4,11.7,7.9c0.1-1.6-0.1-7.8,0.4-9.9
								c0.3-3.1,10.4-2.4,13.7,0.3c2.3,1.9,1.7,14.4-0.6,24.6c-1.9,8.3-1.6,8.4,2,13.2c4.4,5.8,5.9,10.8,5.4,17.4
								c-0.3,3.6-0.2,6.5,0.8,8.9c2.5,5.6,1.8,13.6-0.9,17.3c-3.8,5.4-3.9,6.2-3,9.1c3.2,9.9,2.1,18.4-9,22.8c-1.4,0.6-3,3-3.8,5.1
								c-4.7,15.9-13.8,16-26.2,11.5c-8.6,34.3-44.2,43.1-70,42.2c-26.8-0.9-54,1.3-66.1,18.9C450.9,398.8,469.4,378.7,514,380z
								 M594.5,310.6c4.5-1.7,5.1-6.5,1.2-9.5c-5.9-4.6-12.6,0.2-9.8,6.9C587.5,311.8,590.1,312.3,594.5,310.6z M-110.9,299.7
								l-17.9-12.3l0.2,11.1l17.9,11.3L-110.9,299.7z M-77.2,308.6l-12.7-15.1c-37.4-22.5-69.8-47.8-100.9-68.1l-0.2,14l8.9,4.4
								c0,0,0.7-3.1,1.3-4.9c1.1-3.4,11.4,6,14.7,13.5c0.8,1.9,2.6,6.1,2.6,6.1l12,6.5c0,0,0.2-3.4,0.2-4.3
								c0-7.2,12.8,2.6,18.7,14.3c1.4,2.8,3.3,5.8,3.3,5.8l11.3,6.8c4.4-6.1,15.7,2.1,18.7,9.5c3.7,9.3,10.2,10.1,10.4,10.1
								L-77.2,308.6z M-144.4,306.9l0-10.8l-18.7-12.1l-0.2,10.9L-144.4,306.9z M621.5,303.3c0.5-2.8-2.4-13.8-6.6-14.4
								c-2.6-0.4-6.7,3.6-6.7,6.4C608.3,298.9,621,306.3,621.5,303.3z M606.3,290.3c4-4.5-1.1-10.2-7.3-8.2
								c-7.4,2.4-4.8,9.1,3.5,9.2C604.3,291.4,605.4,291.3,606.3,290.3z M-145.5,286.8l0-10.3l-17.3-11.3l-0.3,10L-145.5,286.8z
								 M-179.3,283.4l0.1-9.9l-11.3-7.8l0.1,11.8L-179.3,283.4z M-179.1,253.9l-11.6-7.4l0.1,10.7l12.1,6.8L-179.1,253.9z
								 M-132.4,221c-1.2-3.1-6.1-13.1-6.1-13.1l-52.5-36.2l0.1,11.2l58.8,39L-132.4,221z M-157.4,134.4l-0.6-4.6l-4.6,2.5
								L-157.4,134.4z M-168.5,135.6l-7.3,4l22.2,14.2l-1.8-10.2L-168.5,135.6z M598.2,10l5.7-4.2l-10.1-6.8L593.1,6L598.2,10z
								 M608.4,3.4l7.5-6.2l-25.2-17.5l1.8,11L608.4,3.4z M626.1-6l0-7.5l-40.8-27.2l2.9,13.8c7.2,4.1,16,10.1,25.2,16.5
								C619.1-6.4,619.1-4.8,626.1-6z M626-19.9l-0.1-12l-47.2-30.9l3.9,14L626-19.9z M625.9-37.9l-0.1-12.6l-57.1-37.2l6.3,16.6
								L625.9-37.9z M625.7-69.4l-72-47.6l9.3,18.3l62.8,41.4L625.7-69.4z M625.6-87.8l-90.3-59.3l10.2,16.7l80.2,53.5L625.6-87.8z
								 M625.5-107.2l-3.4,0c-0.2,8.6-9.6,2.4-13.1-7c-2.7-6.3-3.3-7.9-3.3-7.9l-18.2-12.1c0.4,2.5,1.5,9.6,1.5,9.6l-12.3-7.4
								c0,0-3.6-11.8-3.7-11.9l-20.9-14c0.5,2.4,0.8,6.4-0.5,6.7c0,0-6.4-2.7-9.3-6.9c-3-4.4-3.5-8.8-3.5-8.8l-17.1-10.9l-4.2,0.5
								c0,0-2.3-1.5-4.5-3.3c-4.1-7.2-8.8-8.3-14.5-11.2c0,0,12.1,13.9,18.5,22.1c5.9,7.6,13.1,13,13.1,13l95.4,62.9L625.5-107.2z
								 M625.4-126.8l-7.4-4.4l0.6,11.6l6.8,4.6L625.4-126.8z M-115.8-147.9c0.5-0.7-1.4-1.6-3.5-6.1c-5.2-11.2-5.7-15.1-3-27
								c1.3-5.6-3.9-8-6.2-2c-1.8,4.7-4.6,7.3-7.4,7c-2.6-0.3-3.1,0.8-2,4.3c1.4,4.9-1.5,11.3-5.6,13.1c-4.2,1.1-4.9,3.7-3.7,7.6
								c2,6.3-4.8,11.7-10.2,11.5c-8.3-0.4-5,7.1,5,14.3c3.7,2.6,5.4,4.1,8.3,2.7C-136.6-129.8-122.6-140.1-115.8-147.9z M605-128.9
								l-0.5-11l-21-14l2.7,14.8L605-128.9z M625.3-133.7l-0.1-11.1l-8.6-5.5l0.5,11.8L625.3-133.7z M-161.1-146.3
								c2,2,4,2.2,7.2,0.3c3.7-1.9,2.2-4.8-1.6-6.7C-159.2-154.6-164.1-148.8-161.1-146.3z M-167.4-151.1c-0.3-2.3,2.5-5.5,4.5-5.6
								c4.3-0.3,3.5-2.6-1.4-5.5c-2.3-1.4-6.4-4.6-7.9-5.7c-7.4-5.3-14.4,3-8.9,9.9C-176.5-152.2-169.8-148.8-167.4-151.1z
								 M602.8-148.8l-1.7-12.3l-18.9-12.4l1.6,13.5L602.8-148.8z M-83.3-174.7c1-1.7,1.3-3.3,1.2-5.4c-0.4-7.7-4.5-16.8-10.1-24.4
								c-4.2-5.6-9.3-10.4-14.4-13.2c-14.5-7.3-33.7-4-30.9,5.5c2,6.4,1.6,11.9-3.9,15.1c-3.8,2.2-4.2,5.2-0.2,5.2
								c2.9,0,10.5-2.7,13.7-7.8c4.5-7.1,7-11.3,6.1,0.3c-0.4,4.9,0.2,4.5,7.7,4.1c10.2-0.6,8.3,1.3,2.4,6
								c-8.6,6.7-10.3,18.1-5.9,27.7c2.7,5.9,4.6,9.1,8.2,8.3C-101.8-158.4-89.4-168.5-83.3-174.7z M569.4-164.2l-18.6-12.1
								l0.8,13.1l20.1,11.7L569.4-164.2z M-143.4-171.9c-6.9-8.5-14.8,2.5-9.6,7.2C-149.2-161.4-139.8-164.9-143.4-171.9z
								 M-159.5-170.6c-0.9-2.7,4-7,4.8-8.7c2.2-5-18-18.7-24.2-10.5c-4.3,5.7-1.3,11.3,10.4,19
								C-161.5-166.2-158.1-166.2-159.5-170.6z M567.4-183.2l-17.2-10.6l0.4,11.3l18.3,10.9L567.4-183.2z M537.2-172.9l-0.1-11.5
								l-17.4-12l-0.2,11.9L537.2-172.9z M-135.2-182.6c3.1-3.1,2.1-4.1-4-3.8c-3.8,0.2-5-0.4-5.3,1.3
								C-145-181.1-138.4-179.4-135.2-182.6z M-149.6-186.9c0.3-0.8-1.9-2.4-5.4-5.3c-6.8-5.6-7.6-9.1-1.1-13.6
								c9.2-6.3-0.5-15.2-11.3-11.5c-8.7,3-8.6,11.7-3.4,17.3C-163.7-195.3-150.8-181.8-149.6-186.9z M537.1-202.5L520-214l0.1,11.4
								l17.1,9.8L537.1-202.5z M-146.5-197.7c7.5-3.9,7.9-13.6,0.3-10c-3.1,1.5-7.2,5.5-7.2,7.3
								C-153.3-196.9-150.3-195.7-146.5-197.7z M-141-219.9c9.8-5.3,8.3-10.2-1.6-16.3c-12-6.8-20.3,6.4-10.4,15.3
								C-147.8-216.3-146.6-216.9-141-219.9z M-128.4-229.5c15.9-17.2,26.5-16.4,47.5-16.1c54.4,0.2,70.9-25.9,69-44.1
								c-26.3,13.3-50,6.4-75.1,10.3c-43.3,9.9-48.3,30.4-51.2,42.1L-128.4-229.5z M89.2-289.2c14,0,13.4,0.5,7.6-11
								c13.6,1.8,19.2,8.3,14.6-5.3c7.2,2.5,11.6,4.5,19.1,6.9l4.7-2.8c-29-27.9-60.9-3.9-52.3,24.3l10.7-5.2L89.2-289.2z"/>
							<path id="path3502-5-8-1" fill="#D40000" d="M165.7,736.6l6.5-32.5l59.9,2.6c0,0,7.1,20.4,9.9,29.5L165.7,736.6z M27.4,736.7
								L58.9,684l45.2,12l-10.1,41.1L27.4,736.7z M115.2,736.9l13.3-56.1c-25.8-5.5-50.2-9.1-78.7-16.6L4,737.5l-27.8-0.6
								c23.8-32.1,67.2-96.8,67.2-96.8c100.6,34,201.9,39.2,303.7,20.3c0,0,37.8,49.3,51.5,76.1l-26.5-1.1l-33.2-54.9
								c-22.9,2.6-45.4,5.8-69.3,6.9l16.6,48.5l-26.3,0.2l-15.2-48.3c-28.7-0.9-52.8,1.4-87.2-3.7l-11.8,52.7L115.2,736.9z
								 M304.6,735.8l-9.3-34.4l32.3-4c0,0,15.1,26.2,23.4,38.1L304.6,735.8z M12.8,417.5c39.8-61.3,180.5-258,180.5-258l20.8,0.7
								c0,0-125.9,177.6-186.6,267.1L12.8,417.5z M-192.8,323.7l49.7,35.3l2,277.5l-50.1,35.7L-192.8,323.7z M10-131.4L40.3-73
								C-86.3,48.4-60.4,189.8,8.4,290.3c0,0-8.7,22.6-27.8,46.7c-92.6-60.3-121.6-218.3-120.9-220C-39.2,25.8-25.7-3.2,10-131.4z
								 M532.8,297.7c6-89.3,49.4-148,98.1-183.9l3,90.8C602.1,235.6,568.4,267.5,532.8,297.7z M399.3,208.6
								c110.9-104.8,113.8-252.7,31.9-360.7l33-46.6C511.6-148.6,558.2-96,578.5,26.6C508.3,82.7,446.4,175,430.4,268L399.3,208.6z
								 M245,88.3l-0.5-42.6l41.7-0.5l-0.9,42.5L245,88.3z M156.8,88.5L156,46.1l41.2,0.1l-0.4,43L156.8,88.5z M227.6-25.4
								c0,0,137-194.2,190.9-264.4l11.6,8.4L247.7-24.5L227.6-25.4z M-96-158.8c0.3,76.3-48.2,137.1-98,176.8l0.2-86.9L-96-158.8z
								 M627.9-531.3l2.3,338.7l-46.9-27.8l2.3-284.1L627.9-531.3z M405.4-510c-105.6-26.8-201.7-34.4-302.5-12.2
								C89.6-537.8,45-602.9,45-602.9l25.5,0.2L107-545l68.8-9.4l-18-46.9l28.4,0l14.4,46c-0.1-0.4,56,0.2,87.2,3.7
								c4.9-17.2,13.9-51.2,13.9-51.2l31.3-0.2c-3.9,16.4-14.5,55.4-14.5,55.4c25.6,3.4,73.2,15.2,73.6,15.7
								c16.5-23.6,31.9-47.3,46.8-70.9l30.5-0.3C460.4-588,407.1-509.2,405.4-510z M385.7-550.5L339.1-561l11.9-41.1l65.1-0.4
								L385.7-550.5z M118.2-563.7l-21.9-38l41.7-0.2l14,33.5L118.2-563.7z M212.7-572l-6.5-30.3l75.7-0.4l-7.5,32.4L212.7-572z"/>
							<path id="path3500-9-6-1" d="M39.5-603.9l67.9,96.7c0.3-0.3,37.7-7.7,74.4-9.7c36.5-2,80.1,0,80.5,1.1
								c0,0,11.7,34.7,15.7,51.7c5.3,22.8,4.9,49-0.4,66.4c-7.8,25.5-12,33.2-29.7,50.8c-13.1,12.9-31.7,26.9-50.9,34.4
								c-26.6,11.3-29.3,11.2-45,12.1c-10.4,0.5-11.4,1-17.1,3.9c-1.7,0.6-2.9,2.5-4.4,3c-1.3,0.4-3.8,0-3.8,0
								C40.4-255-27.1-212.3-78.1-174.2c-0.6,0.4-1,2.4-1.5,2.9c-4.2,3.5-8,6.1-12.1,9.2c-0.6,0.4-1.8-0.3-2.4,0.1
								c-60,46.8-93.8,84.6-106.3,95.5l2.5,216c0,0,27.3-14.3,41.3-22.9c10.4,83.6,52.6,164.6,118.8,220.7l-28.3,39.6l-132.2-89.9
								l4.2,398.6l69.7-49l-0.2-42c21,13.9,41.4,19.3,56.5,83.2c11.7-22.5,10.5-56,5-78.4c0.1,0,17.7-14.7,23-26l-26.2-22.9
								c0,0,6.4-55.9-5.9-67.1c-9.6,25.4-17.1,52.4-53.3,72.1l-1.6-194.2c18.1,11.3,35.3,24.1,53.3,35.8l2.5-0.5l18.6,12.6
								c0,0-1.9,4-3.7,6.7C-78.7,460-41,501.6-10.7,476.3c11.9-9.9,34.5,30.9,38.9,70.3c4.4,25.4,6.9,57,14,79
								c2.2,6.4,1.4,10.1-3.2,14c-23.1,33-69.7,99.4-69.7,99.4l33.8-0.2l2.4-3.9l-24.9,0.1c21.3-28.7,41.6-62.1,63.7-90.1
								c83.1,30.7,219.1,37.1,301,17.7c17.1,23.7,33.7,48.5,50.2,72.6l-23.6,0.1l3.3,5.1l31.9-0.2l-67.8-98.6
								C293,655.7,180,651,182,649.9c0,0-0.3-0.8-4.3-12c-19.8-62.5-21.9-118.1,26.5-163.3c25.7-23.1,54.5-38.5,86.8-35.8
								c14.4-0.4,14.7-1.1,20.7-3.9c3.3-1.5,10.2-3.1,10.2-3.1l32.6-18.3l4.3-0.9l9.4-5l1.9-2.3l15.1-7.8l1.7,0.1l20.5-11.9l0.3-1.7
								l8-5l1.9,2c2.2,0.2,80.2-51.6,112.6-80.4l2,0.7c37.9-31,89.4-79.9,104.7-98.5l-1.4-92.5l-1.3-1.1L633.1,6.8l-3,0l-0.2-12.6
								c-16.8,6.3-35.2,22.1-36.5,21.4c-11.2-86.6-51.6-166.2-117.2-224.5l27.5-38.5l129.5,86l0.2-25.3l1.6,0
								c1-97.2,0.4-349.2,0.4-349.2l-1.3-0.1l-0.1-20.1l-65.7,42.5l-0.7,42.5c-29.3-9.4-48-44.4-54.3-75.6
								c-8.5,3.5-12.3,36.4-8.9,78.1c-9,5.4-14.8,11.4-20.2,18.5c7.2,9,15.2,16.3,24,23.8c-1.8,3.9-5.3,59.7-1.5,66.5
								c1.8,5.1,7.9,4.3,7.9-1c8.6-43.5,49.7-72.2,52-69.6l0.2,200.3l-73.5-50.9c15.3-17.4,18.3-46.7-1.1-60.9
								c-19.5-14.2-38.4-2-42.9,7.2c-23.8-15.3-32.2-72.7-35.8-95.1c-0.9-10.9-3.8-25.7-7.1-39.1c-2.1-8.4-4.5-16.4-4.9-23.9
								c-0.2-3.5,0.2-5.1,3.4-9.5l70.6-101.4l-36.3,0.1l-0.4,0.6l28.6-0.1l-63.6,91.5c-96.7-29.8-196.9-36.5-303.8-16.6l-53.3-74.1
								l24-0.2l-1-1.6L39.5-603.9L39.5-603.9z M95.3-603.4l1,1.8l41.6-0.4l-0.6-1.5C137.3-603.5,95.4-603.4,95.3-603.4z M157-603.5
								l0.8,2.2l28.4-0.1l-0.9-2.1L157-603.5z M301.8-603.6l-0.3,1l31.3-0.1l0.3-1L301.8-603.6z M206-603l0.3,1.3l75.4-0.4l0.3-1.2
								L206-603z M351.2-603.2l-0.3,1.1l65.1-0.4l0.5-1L351.2-603.2L351.2-603.2z M626.3-549.3l0.3,13.7l-43.6,28
								c-0.7,58.6-1.1,284-1.1,284l-10.5-6.8l0.4-282.3C571.7-512.6,610.3-537.7,626.3-549.3z M511.6-537.6l1.5,0l0.5,3.2l-2.5,0
								L511.6-537.6z M514.7-529.3l1.2,4.3l-6.4,0l1.1-4.2L514.7-529.3L514.7-529.3z M625.1-527.8l0.1,8.9L587.6-495l-0.1-8.9
								L625.1-527.8z M508.7-519.6l9.9,0.1l1.7,4.9l-12.4,0.1L508.7-519.6z M266.4-515.5l6.6,1c15.3,36,19.4,66.9,22.2,99.2
								c6.3,41.8,18.7,83.7,27.3,101.4l-9.7,0c-1.1-0.1-21.9-60.6-26.4-96.3c-1.2-7.1-0.8-13.6-1.2-20.2
								C283-458.2,279.1-479,266.4-515.5z M278.8-514.2l8.4,0.8c6,25.6,14.8,49.7,18.4,75.4c5.8,41.1,9,83.1,29.1,123.6l-7.9,0
								c-12.2-27.4-19.8-55.9-24.8-86.8c-3.9-17.7-4-31-6.1-47.1C293.5-467.5,285.9-491.9,278.8-514.2z M291.6-513l8.4,1.2
								c5.7,25.4,15.4,53.3,18,76.3c5.4,46.8,13,90.4,28,121.3l-5.9-0.1c-23.1-44.1-23.7-83.4-30.3-124.8
								C305.9-463.6,297.8-487.9,291.6-513z M305.1-511.1l7.5,1.1c5.3,25.3,14.8,53.9,17.1,79.5c4.1,45.4,12.4,79.8,29.5,116.4
								l-7,0.2c-20.6-35.6-23.6-79.4-30.2-123.8C318.2-462.3,310.2-487,305.1-511.1z M625.2-513l0.1,11.1l-37.6,24.4l-0.1-10.9
								L625.2-513z M317.3-509l7.8,1.2c5.2,24.4,14.6,50.4,17,74.1c4,40.6,11.7,81.6,28.7,119.3l-7.2,0.5
								c-17.9-38.1-25.8-72.7-29.5-116.6C332-455.1,322.4-485.1,317.3-509z M522.7-510.1l2.7,6.6l-18.1,1l0.2-7.4L522.7-510.1z
								 M330.1-506.7l9.3,1.8c10,38.9,12.8,75.7,19.7,112.7c8.6,45.9,17.5,69,24.8,77.5l-7.7,0.3c-18.9-39.7-25.8-79.2-30.3-120.2
								C343.1-458.8,335-482.6,330.1-506.7z M344.2-504.1l7.1,1.4c8.6,31.8,12.6,61.5,16.4,90.3c7,54.7,25.5,96.2,29.4,98.1
								l-7.8-0.3c-17-23.2-23.5-62.8-32.1-118.8C353.4-458.1,349.7-481.2,344.2-504.1z M355.6-501.9l7.9,1.9c0,0,7.3,28,12.9,65.1
								c4.7,30.9,7.4,91.8,41.2,126.7c16.9,17.4,46.6,32.4,66.7,15.8c8.6-7.4,14.1-19.2,8.8-31.8c-8.8-21.1-38.4-17.3-28.4,4.8
								c1.1,5.3-5.8,5.6-10.7,0.4c-5.1-5.5-3.9-11.8-0.3-17.7c7.5-12.3,27.8-13.7,39.8-2.8c19.2,18.6,11.1,50.7-13,61
								c-27.7,12-63.7-12.2-78.1-35.4c-23.7-40.4-27.6-78.9-33.3-119.8C366.3-455.8,360.7-479,355.6-501.9L355.6-501.9z
								 M367.5-498.7l8,1.9c0,0.1,9,39.4,12.1,62.7c3.8,28.8,7.9,62.7,20.4,88.9c7.8,16.3,19,29.9,30.4,37.8
								c9.7,6.8,18.5,11.1,31.4,8.2c14.9-3.3,15.4-26.4,1.2-26.4c-7.3,0-2.6-7,3.5-7.2c21.4-0.8,22.3,33,2.1,40.6
								c-23.1,8.8-48.1-7.4-63.7-27.7c-27.3-41.9-26.5-80.2-32.6-114.1C378.4-451.9,368.1-497.9,367.5-498.7z M529.7-498.5l4.9,6.5
								l-27.2,0l0.1-6.2L529.7-498.5z M379.4-495.4l7.7,2.6c0.2,0,7.9,30.5,12.8,66.6c5.7,34.8,7.7,63.7,25.9,88.8
								c7.6,10.4,21.8,24.3,30.7,25.9c5.5,1.2,11.2-0.1,12.6-4.3c2.3-6.9,8.2-3.8,8.3,2.5c0,4.4-3.2,8.9-8.6,10.5
								c-26.5,4.7-50.9-28.4-58.4-45.2c-10.1-24.5-14.5-51.9-19.1-86C389.5-448.5,380.5-494.5,379.4-495.4z M625.3-495.7l-0.1,11
								l-37.5,23.9l-0.1-10.7L625.3-495.7z M391-492.1l8.6,2.3c0,0,7.3,26.8,11.8,60c4.5,33.6,14.1,72.7,31.6,92.8
								c1.6,1.9,2.7,3.3,3.4,4.4c1.3,2.7-0.2,7.4-1.5,7.4c-31.1-16-38.8-80.8-41.6-102.7C399.2-461.8,391-492.1,391-492.1z
								 M511.7-487.6l27.4,0.6l6.6,6.4l-36.2-0.1C505.5-484.7,507.9-484.2,511.7-487.6z M625.4-479.4l0.1,9.1l-37.6,24.1l-0.1-9.4
								L625.4-479.4z M512.7-475.8l40.1,0.5l14.1,8.3l-61.2-0.1L512.7-475.8z M625.5-464.9l0.1,11L587.9-430l-0.1-10.3L625.5-464.9z
								 M498-462l68.1,0.3l0.2,7.4l-73.8-1.5L498-462z M489.2-449.4l77-0.3l0.2,8.2l-70-0.3L489.2-449.4z M625.6-448.9l0.1,11.4
								L588-413.9l-0.1-10.9L625.6-448.9z M503.7-436.2l59-0.1l-6.4,6.9l-44.5-0.2L503.7-436.2z M625.7-432.9l0.1,10.8l-37.6,24
								l-0.1-10.6L625.7-432.9z M548.2-424.2l-7.1,7l-30.6-0.2l1-6.3L548.2-424.2z M625.8-417.1l0.1,11.6l-37.6,23.3l-0.1-10
								L625.8-417.1z M510.1-412.1l25.2,0.4l-3.8,5.3l-22.1,0.2L510.1-412.1z M283.3-401.6c4,29.1,25.5,87.7,25.4,87.7l-8.3,0.1
								c0.4,0.6-15.3-36.9-21.1-72.2C278.6-389.4,280.8-400.8,283.3-401.6L283.3-401.6z M508.5-401.2l19.4,0.2l-4.2,7.5l-15.8,0.1
								L508.5-401.2z M625.9-400.2l0.1,10.1l-37.6,23.4l-0.1-9.2L625.9-400.2z M508-389.2l12.9,0.3l-3,7l-10-0.2L508-389.2z
								 M626-384.5l0.1,10.8L588.4-350l-0.1-10.4L626-384.5z M275.5-380.1c3.9,21.2,20.2,63.7,21.5,66.5l-7.1,0.1
								c-0.3,1-16.9-38.1-18.8-54.8C270.2-371.8,272-378.8,275.5-380.1z M507.9-377l7.6,0.3l-1.3,4l-6.2,0.2L507.9-377z
								 M508.6-367.4l4,0.1l-0.9,3.8l-2.5,0L508.6-367.4z M626.1-367.9l0.1,8.7l-37.6,24.1l0-8.3L626.1-367.9z M266.1-364.8
								c5.8,17,11.7,34.3,18.5,50.8l-8.5-0.2c-5.7-11.9-9.7-25.3-14.1-38.5C260.8-358.2,263.4-362.9,266.1-364.8L266.1-364.8z
								 M257.8-353.4l14.3,39.2l-8,0c-3.3-7.9-7.1-16.7-9.7-24.8C251.7-347.4,251.9-347.7,257.8-353.4z M626.1-353.2l0.1,10.3
								l-37.6,23.6l-0.1-8.9L626.1-353.2z M248.4-342.6c1.8-0.2,2,2.1,3.6,6.8l7.8,21.7l-9.9-0.2c-2.9-6.8-4.7-12.8-5.5-19.5
								c-0.3-3.2-0.9-6.5,1.4-7.8C247-342.2,247.8-342.5,248.4-342.6z M237.9-334.3c1.7,0,2.3,3,3.7,7.5l4.2,12.7l-9.2-0.2
								c-2.7-6-3.8-10.3-3-16.6C235.6-333.3,237-334.3,237.9-334.3L237.9-334.3z M626.2-336.6l0.1,10.8l-37.6,22.9l-0.1-10.1
								L626.2-336.6z M228.5-326.4l3.9,12.5l-8.3-0.1c-1.4-2.9-0.5-6.5-0.6-9.8L228.5-326.4z M217.7-320c0.1,0,0.2,0,0.3,0.1
								c1.2,5.5,0.1,5.9,0.1,5.8l-11.6,0C206.5-314,215.9-320,217.7-320L217.7-320z M626.3-319.1l0.1,8.7l-37.6,23.7l-0.1-8.8
								L626.3-319.1z M177.8-302.8l226.7-0.7l7.6,10.6c0,0-22,0.7-94.3,0.7c-60.8,1.1-183-0.2-183-0.2l11.9-5.7
								C163.2-298.5,178.1-302.9,177.8-302.8z M626.4-304.1l0.1,9.5l-37.6,23.1l-0.1-9.2L626.4-304.1z M-11.4-291.2
								c-18.2,8.2-35.2,10.3-47.9,9.3c-27.4-2.1-69.2,9.6-77.5,36c-2.6,9.3-2.6,9.6,2.4,14.3c2.5,2.3,4.9,4.1,5.4,3.9
								c4.4-3.9,10.2-11.2,16.4-13.4c8.2-2.5,12.7-2.9,26.2-3.6c29.1-1.5,35.6-2.7,42.8-4.7c15.9-4.3,31.8-20.1,32.7-37.5
								C-10.8-288.9-11.4-291.2-11.4-291.2z M-12.2-288.8c-2.9,36.4-42.2,41.4-59.5,40.4c-35.1-1.9-48.9,8.7-54.4,15.2
								c-1.8,1.8-2.9,1.3-2.6-0.2c4-20.2,36.5-21.1,52.9-21c40.2,1.6,50.2-17.8,49.1-18c-3,1.4-5.3,2.6-8.4,4.1
								c-1.3,0.6-1.1-0.2-4.5-2.2c-0.1,0.3-4,9.3-9.1,0.8c0.1,0.4-3.6,7.6-10.7,1c0.1,0.7-4.2,6.9-11.1,0.7
								c-6.4,5.5-9.5,2.5-12.3-1.3c-2,1.2-7.9,9.3-13,0.7c-5.3,3.4-7.5,7.1-12,4.9c-10.6,2-19.8,12.9-23.5,23
								c-1.2,3.4-3.5,4-3.8,0.2c-1.3-10.4,15.7-28.6,33-33.7c13.4-4,22.5-6.8,52-5.9C-33.4-279.8-12.2-288.8-12.2-288.8z
								 M417.9-288.6l10.7,7.1L245.1-25.4l-16.3-0.3L417.9-288.6z M121.2-286.7l21-0.1l0.2,34.8l-18.1,0.1l-6.5-9.6
								c1.7,1,3.6,1.5,5.7,1.5c6.2,0,11.2-5.1,11.2-11.3c0-6.2-5.1-11.2-11.3-11.2c-6.2,0-11.2,5.1-11.2,11.3c0,0.5,0.1,1.1,0.1,1.6
								l-6.8-10c0,0,2.9-1.7,9.7-4.8C117-285.2,121.2-286.7,121.2-286.7z M186-287.1l35.6-0.2l0.2,34.8l-35.6,0.2L186-287.1z
								 M264.1-287.5l36.9-0.2l0.2,35l-36.9,0L264.1-287.5z M343.7-288l36.8-0.2l0.2,34.8l-36.8,0.2L343.7-288z M626-288.9l0.6,10.8
								L589-254.9l-0.1-10.7L626-288.9z M360.8-283.7c-6.6,0-11.9,5.4-11.9,12c0,6.6,5.4,11.9,12,11.9c6.6,0,11.9-5.4,11.9-12
								C372.8-278.4,367.4-283.7,360.8-283.7z M204-282.1c-6.6,0-11.9,5.4-11.9,12c0,6.6,5.4,11.9,12,11.9c6.6,0,11.9-5.4,11.9-12
								C215.9-276.9,210.6-282.2,204-282.1z M281.7-282.4c-6.6,0-11.9,5.4-11.8,12s5.4,11.9,12,11.9c6.6,0,11.9-5.4,11.9-12
								S288.3-282.4,281.7-282.4z M321.8-281.2c5.5,0,10,4.4,10.1,9.9c0,5.5-4.4,10-9.9,10.1c-5.5,0-10-4.4-10.1-9.9
								C311.9-276.7,316.3-281.2,321.8-281.2z M163.8-280.1c5.5,0,10,4.4,10.1,9.9c0,5.5-4.4,10-9.9,10.1c-5.5,0-10-4.4-10.1-9.9
								C153.8-275.6,158.2-280.1,163.8-280.1z M400.7-281.2c2.4,0,4.5,0.9,6.2,2.3L396.1-264c-2.7-1.6-4.5-4.5-4.5-7.9
								C391.5-277,395.6-281.1,400.7-281.2z M244.2-280.2c5.5,0,10,4.4,10.1,9.9c0,5.5-4.4,10-9.9,10.1c-5.5,0-10-4.4-10.1-9.9
								C234.2-275.6,238.6-280.1,244.2-280.2z M123.4-278.7c4.1,0,7.5,3.3,7.5,7.4c0,4.1-3.3,7.5-7.4,7.5c-4.1,0-7.5-3.3-7.5-7.4
								C116-275.4,119.3-278.7,123.4-278.7z M100.5-278.2c64,80.5,98.3,162.4,113.6,251.7L203.5-27
								c-18.2-97.1-58.5-180.3-112.8-247.2L100.5-278.2L100.5-278.2z M360.8-279.7c4.4,0,7.9,3.5,7.9,7.8c0,4.4-3.5,7.9-7.8,8
								c-4.4,0-7.9-3.5-8-7.9C353-276.1,356.5-279.6,360.8-279.7z M204-278.1c4.4,0,7.9,3.5,8,7.8c0,4.4-3.5,7.9-7.9,8
								c-4.4,0-7.9-3.5-7.9-7.9C196.1-274.5,199.6-278.1,204-278.1z M281.7-278.4c4.4,0,7.9,3.5,7.9,7.8c0,4.4-3.5,7.9-7.9,8
								c-4.4,0-7.9-3.5-7.9-7.9C273.8-274.8,277.3-278.3,281.7-278.4z M479.4-273.9c4.4,32-3.8,52.7-28.2,56.2
								c-31.1,4.5-35.1,6.8-35.1,36.3c0,34.9-5.1,45.1-29.8,48c-27.8,3.3-34.3,6.6-31.6,41.2c2,25.3-7.9,36.1-29.3,40.9
								c-16.7,3.8-31.2,9.5-37.4,26.4l-15.3,0.3c3.8-26.6,30.5-39.5,47.6-40.5c18.5-4.5,22.3-10.7,19.1-43.1
								c-2.4-24.4,6.5-31.8,35.1-37.6c22.9-4.7,28.5-11.3,27.1-30c-2.9-40.2-0.3-46.2,22.5-51.2c11.6-2.8,30.5-4.2,37.7-13.1
								c8.2-10.2,6-18.7,5.2-31.2L479.4-273.9L479.4-273.9z M626.6-273.7l0.1,10.5l-37.6,23.5l-0.1-10.2L626.6-273.7z M72.2-264.2
								c-7.9,34.9,19.9,42.3,36.8,48.1c19.7,6.7,24.5,16.6,22.5,51.2c-1.5,26.2,1.4,32,18.4,40.8c26,13.2,33.1,32.2,21.7,60.1
								c-7,17.2-3.2,22,1.3,36.9l-12.6,0c-0.9,0.3-11.6-18.6-2.7-39.1c10.6-24.3,10.2-36.4-13.8-47.1c-18.6-8.3-24.3-16.2-25.5-33.6
								c-0.5-7.3-0.5-10.9,1.1-26.8c2-20-5.1-28.6-34.8-39.4c-13.2-4.8-22.2-16.2-25-34.2c-0.8-5.1-0.1-10.9-0.1-10.9L72.2-264.2
								L72.2-264.2z M514.5-263l112.9,74.2l-0.7,16.7l-119.8-79L514.5-263z M442-260.9c5.4,0,9.9,4.3,9.9,9.8s-4.4,9.9-9.8,9.9
								c-5.4,0-9.9-4.4-9.9-9.8S436.6-260.9,442-260.9z M88.2-254.5c4.9,0,9,3.9,9,8.9c0,4.9-3.9,9-8.9,9c-4.9,0-9-4-9-8.9
								C79.3-250.5,83.3-254.5,88.2-254.5z M626.4-256.7l-0.3,10l-36.9,23.1l-0.1-10L626.4-256.7z M128.3-247.1l256.2-1.5l-6.5,8.9
								l-244.8-1.1L128.3-247.1z M39.5-246.2c34.3,44.1,68,89.6,94.3,175.5l-11,4.3C101.1-135.5,68-192.9,29.1-240.3L39.5-246.2
								L39.5-246.2z M626.8-241.8l0.1,11l-28.3,17.4l-8.4-5.4L626.8-241.8z M24.5-237l5.1,6.6c0,0-5.4,4.3-11.6,8.8
								C1.3-209.6-0.9-208.2-2-200.4c-2.5,18.6,16.6,27.6,35.7,16.8c6.8-3.2,21.8-12.8,21.8-12.8l4.4,6.3c0,0-21.5,16.3-34.1,20
								c-27.7,8.2-48.7-26.9-28.3-47.9c3.1-3.2,9.7-7.5,15-11C17.9-232.5,24.5-237,24.5-237z M138.9-233.3l236.1,0l-149.6,207
								l-6.7-0.3C206.6-103.7,177.2-170.9,138.9-233.3z M36-224l13.9,19.2c0,0-8.9,8.6-23.8,16.9c-11.9,6.6-24.8-5.2-17.4-15.9
								C16.4-214.5,36-224,36-224z M626.9-225.5l0.1,10.1l-16.3,10.1l-7.5-4.7L626.9-225.5z M34.3-214.3c-6.5,0.4-17.4,7.9-21,14.3
								c-1.6,2.8-1,5.1,0.5,7c2.3,2.9,4.9,2.7,12.7-1.6c16-8.6,19-13.7,11.9-18.7c-1-0.7-2.2-1-3.5-1
								C34.7-214.3,34.5-214.3,34.3-214.3z M33.8-210.2c1-0.1,2.2,0.2,3.2,0.1c2.8,1.1,2,4.6-0.9,5.4c-0.6-1-5.5-1.1-5.1,3.8
								c-1.1,2.8-1.1,2.6-4.6,3c-2.3-0.6-3.9,1.1-4.3,2.1c-2.4,1.3-5.4,0.9-6-0.5c-0.5-1.4,1.4-5.5,3.1-5.5c0.8,0.1,2.2-1.2,3.7-2.2
								c-0.1-2.7,3.1-3.1,4-3.1c0.9,0.2,3.9,0.2,5.3-2.3C32.6-209.9,33.2-210.1,33.8-210.2z M627-211.3l0.1,15.5l-11.9-7.5
								L627-211.3z M-28.1-205.4c43.3,50.5,74.6,104.4,94.7,179l-8.6,6C44.7-72.8,24.3-128-35.4-199.7L-28.1-205.4z M475-207.6
								c19.6,16.4,99.8,91,115.8,224.2l-10.6,6.6c-9-70.3-37.1-150.8-112-221.8L475-207.6z M436.5-202.7c5.4,0,9.9,4.4,9.9,9.8
								c0,5.4-4.4,9.9-9.8,9.9s-9.9-4.3-9.9-9.8C426.7-198.2,431.1-202.7,436.5-202.7z M-40-196c0,0,9.1,9.2,9.1,11.4
								c0,4.4-3.5,6.9-24.2,14.6c-3.5,1.3-18.8,4.9-18.8,4.9l-0.6-7.4c7.8-2.9,28.8-8,30.3-12.5c0.7-1.8-3-6.2-2.2-6.2L-40-196z
								 M103.2-195c4.9,0,8.9,4,9,8.9c0,4.9-3.9,9-8.9,9c-4.9,0-9-4-9-8.9C94.3-190.9,98.3-195,103.2-195z M465.2-194.6
								c65.4,63.1,101.6,141.3,110.4,222.3c-75.3,62-126.3,139.7-146.2,236.6c-10.2-16.8-18.9-36.1-28.3-54.9
								c100.5-89.3,120.8-249.3,32.8-360.8L465.2-194.6L465.2-194.6z M67.7-180.1l4.6,7c0,0-1,0.9-15.1,9.7
								c-20.6,13-24,21.4-17,34.5c7.1,13.4,15,14.1,37.2,3.2c7.8-3.8,14.5-7.9,14.5-7.9l3.6,7.3c0,0-9.9,8.2-29,15.3
								c-18,6.7-35.1-4.4-38.4-25.2c-2.4-15.1,4.1-23.3,30.3-38.4C61.4-176.1,67.7-180.1,67.7-180.1z M377.5-178.6
								c5.4,0,9.9,4.4,9.9,9.8c0,5.4-4.3,9.9-9.8,9.9c-5.4,0-9.9-4.4-9.9-9.8C367.6-174.1,372-178.6,377.5-178.6z M-24.2-175.9
								l6,5.6c0,0-2.5,3.8-17.1,12.7c-13.1,8-14.5,6.7-7.9,12.2c12.3,10.3,29.4,33,29.3,38.9c-0.1,5.7-5.1,11-14.9,15.4
								c-5.3,2.4-26.5,10.1-29.6,10.7c-6.2,0.7-7.9,3.2-1.7,8.8c10.6,12,19.7,37.8,16.2,45.6c-4,8.9-8.9,10.4-47.8,12.4
								c-4.4,0.2-6.6-1-4.1,4.7c1.8,4.1,3.6,9.8,7.2,27.3c3.2,15.6,2.7,22.6-3.3,25.9c-3.5,1.9-30.6,1.4-41.8-0.8
								c-12.8-2.4-14.2-2.6-12.1,5.7c2.8,11.5,4.6,42.4-4.1,48.4c-3.6,2.4-7.5,1.8-23.4-3.4c-10.2-3.4-19-7.2-19-7.2l0.1-9.6
								c8.3,3.4,31,13,37.4,9.9c7.6-11-3.3-49.3-7.4-57.5c-5-9.8,0.2-12,11.5-5.9c5.9,4.1,57,23.9,54,6
								c-3.2-17.1-8.9-36.4-19.7-48.6c-10-11.2-5.1-15.9,6-11c19.6,8.6,60.1,6.3,58-2.8C-55-47.3-68.5-67.2-87-82.6
								c-5.1-4.3-5.3-6.1,0.7-7.2c17.1-1.5,66.1-6.8,59.2-18.3c-5.9-9.4-13.9-19.8-20.6-25.3c-11-9.1-22.1-13.1-27.1-15l0.3-7.1
								C-52.1-157.5-40.6-164.2-24.2-175.9L-24.2-175.9z M-78.2-168.6c-7.5,84-42.2,153.4-114.4,202.1l-0.5-9.4
								c63.5-48.2,93.6-116.5,101.6-182.4L-78.2-168.6z M-16.6-165l6,5.3c0,0-1.5,2.3-10.1,9.2c-6.6,5.2-4.3,3.1,0.3,9.2
								c4.1,4.8,11.3,14.5,11.3,14.5l-2.1,13c-7.6-10.7-13.9-18.5-25.2-29.9c-5.7-5.8-5.4-6,2.7-10.3
								C-27.6-157.3-22.7-161.4-16.6-165z M76.3-164.2C76.3-164.2,76.3-164.2,76.3-164.2c0.1,0,11.8,20.9,11.8,22.8
								c-6.9,6.5-25,15.9-32.4,13.8c-11.5-3.6-13.4-15.8-2.4-23.1c9.5-7,21.3-13.1,22.9-13.5C76.2-164.2,76.2-164.2,76.3-164.2
								L76.3-164.2z M146.2-157.6c4.9,0,8.9,3.9,9,8.9c0,4.9-3.9,9-8.9,9c-4.9,0-9-4-9-8.9C137.2-153.6,141.2-157.6,146.2-157.6z
								 M73.9-156.4c-8.5,2.3-16.8,10-21.5,13.3c-1.7,1.2-0.3,7.3,1.3,9.4c2.1,2.7,6,2.2,10.6-0.4c1.9-1.1,5.4-2.9,7.8-4
								c6.5-3.1,9.2-5.3,9-7.8C80.1-149.2,77.3-156.7,73.9-156.4z M-97.5-152.2c1.9,9.4-3.7,26-6.9,35.3
								c-18.9,25.1-46.5,38-72.7,46.8c-5.8,2-13.7,1-13.7,1C-154.6-106.6-123.6-134.2-97.5-152.2z M74.4-152.5
								c2.4,0.1,4.1,3.2,3.4,5c-4.1,2.2-6.4,0.4-5.8,3.5c0,0,0.4,4.8-5.6,5c-1.5-0.6-4-0.5-5.2,0.8c-4.2,1.8-7.9-1.9-3.3-4
								c1.2-0.6,4.3-1.6,5.1-3.4c0.4-2.3,2.3-4.2,4.5-2.9c1.1,0.1,3.6,0.2,4.4-1.5c-0.3-2,1.1-2.2,2.1-2.3
								C74-152.5,74.2-152.6,74.4-152.5z M-172.1-146.9c-1-0.1-1.8,0-2,0.3c-1.8,1.7-4.4,27.7-2.6,29.5c2.6,2.6,9.6,3.3,10.3,0.2
								c2.1-10.2,1.6-17.8,2.6-26.4C-163.7-144.9-169-146.7-172.1-146.9L-172.1-146.9z M-169.3-144.1c0.9,0.2,1.7,1.4,2.2,3.6
								c-0.1,4.3-0.5,13.2-2.1,18.2c-1,3.9-4,3-5.1-0.5c-1.2-3.7-0.3-14.2,1.9-18.5C-171.2-143.5-170.2-144.3-169.3-144.1z
								 M-0.9-145l6.3,7.7C-7-12-95.9,96.9-191.1,140.4l-0.3-8.3C-82.5,74.1-17.3-21.9-0.9-145L-0.9-145z M431.5-147.1l11.9,16.2
								l-17,0.6L431.5-147.1z M-76.6-138.8c5.9,0,37.1,18.9,33,28.5c-3.3,7.6-29.3,8.4-41.3,7.4l1.7-7.3c0,0,3.6,1.2,17.5-0.3
								c14.6-1.1,13.5-6.1-3.3-16.5c-7.2-4.5-8.9-5.6-8.9-5.6L-76.6-138.8L-76.6-138.8z M9.8-129c9.7,16.2,19,34.5,27.7,54.9
								c-117,111.7-107,262.9-32.2,361.7L-26.5,331c-64.3-60.6-99.5-135.5-111.8-215.1C-45.4,48.3-2.1-52.2,9.8-129z M446.8-126.7
								l7.1,13.4l-16.9-0.2L446.8-126.7z M374-119.5c5.4,0,9.9,4.4,9.9,9.8s-4.3,9.9-9.8,9.9c-5.4,0-9.9-4.3-9.9-9.8
								S368.5-119.5,374-119.5z M100.2-115.2l3.4,7.6c0.2,1-23.8,8.7-31.4,18.4c-7.1,9-6.3,18.4-2.3,24.8
								c6.9,9.2,11.7,10.4,23.2,6.8c9.4-2.9,16.3-6.9,25.6-11.7l1.5,3.8c0-0.2-13.3,7.9-23.5,13.8c-3.8,2.2-8.4,3.1-12.4,3.1
								c-23.3-0.4-35.7-30.3-16.7-48.2c2.8-2.6,12.2-7.9,20.2-12C93-111.5,100.2-115.2,100.2-115.2z M407.9-112.3
								c77.4,110.3,25.6,231.9-23.7,275.1l-1.4-13C465.7,54.2,436-56.6,401-105.8L407.9-112.3z M457.4-107.6l6.1,13.6l-17.8-1.8
								L457.4-107.6z M148-101.3c4.9,0,9,4,9,8.9c0,4.9-4,8.9-8.9,9c-4.9,0-9-3.9-9-8.9C139.1-97.3,143.1-101.3,148-101.3z
								 M398.9-101.1c67.8,97.3,31.3,253.4-96.8,301.6l-0.7-10.9c130.5-55.5,142.5-201.2,89.5-283L398.9-101.1z M107.2-98.7
								l8.6,22.9c-10.7,7.2-14.8,8.5-26.8,11.5c-9.4,2.2-16.9-14.1-9.7-20.4C87.6-91.9,96.5-95.1,107.2-98.7z M-110.9-97.4
								c1.6-0.1-0.1,3.8-4.1,13.7c-8.8,21.7-9.4,22.2-31.9,25.9c-11.7,1.9-20.4,2.4-28.8,1.7c-12.6-1.1-18-4.7-9.8-6.4
								c23.6-5.3,49.6-17.7,66.5-29.7C-114.6-95.4-112-97.3-110.9-97.4z M316.7-97.2c6.1,0,11.1,4.9,11.1,11s-4.9,11.1-11,11.1
								s-11.1-4.9-11.1-11S310.6-97.2,316.7-97.2z M-17.7-92.2l-0.9,8.5c0,0-13.6,7.3-20.1,10.1c-4.9,2-5.3,2.5-3.7,7
								c3.2,9.1,9.5,20.4,9.5,20.4l-5.6,13c-3.6-11.6-7.3-23.9-13.8-34.6c-6.1-8.4-7.3-9.5,2.2-11.3C-37.9-83.3-28.4-86.4-17.7-92.2
								z M104.2-90.1c-6.7,0.3-20.6,6-21.9,11.4c-0.8,3,0.1,7.3,2.7,8.2c7,2.5,20.9-3.3,24.5-8.5c1.1-1.6-0.6-4.9-1.9-7
								C106.6-87.6,106.8-90.3,104.2-90.1z M104.5-85.6c0.1,0,0.2,0,0.4,0c1.1-0.1,5.3,5.1,0.6,4.7c-1.6-0.1-3,0.5-4.3,1.8
								c-0.1,2.5-3.7,3.5-5.5,2.6c-1.3-0.6-3.1,0.7-3.3,1.5c-2.6,1.9-5.9,1.8-6.3,0.5c-0.9-0.9,1.7-4.8,4-4.6c0.5,0,2.1-1.1,3.6-2.4
								c0.7-2.6,3.5-2.2,5.2-2.1C101-82.8,102.8-85.4,104.5-85.6z M465.9-87.3l5,13.7l-17.6-1.5L465.9-87.3z M384.3-83.8
								c5.9,1.6,9.3,7.2,6,12.7c-3.6,4.7-7,4.7-12.3,4.5c4.4,5.1,6.4,12.3,2.1,17c-6.4,6.6-18.9-3.4-18-4.3L384.3-83.8z M-94.7-76
								c0,0,27.3,23.2,27.5,33.7c0.1,4-1.2,5.3-4.4,6.4c-10.6,3.6-40.4-5.3-40.4-5.3l3.8-7.3c4.7,1.3,27.7,7.1,29.7,4.1
								c2-3.1-19.3-23.7-19.4-23.7L-94.7-76z M40.1-67l3.3,11.3l-11.1-2.7L40.1-67z M473.6-67.5l3,15.6l-17.8-4L473.6-67.5z
								 M134.7-65.3l2.7,9.2C19.8-0.8-13.9,125,48.2,228.3l-6.9,9.6C-41.7,105,40.8-30.9,134.7-65.3z M-133.7-54.5
								c2.3,0,2.8,1.3,2.8,2.7c0,1.9-11.8,17.1-15.7,20.6c-8.3,3.4-40.7-9.9-45.6-20.3c-1-3,2.2-1.7,9.4-0.3
								C-164.6-46.8-146.3-53.9-133.7-54.5z M180.4-56.1c4.9,0,9,3.9,9,8.9c0,4.9-4,9-8.9,9c-4.9,0-9-4-9-8.9
								C171.5-52.1,175.5-56.1,180.4-56.1z M28.6-55l1.7,13.9l-13.7-0.7L28.6-55z M-190.9-42.9c9,8,22.2,14.6,34,16.9
								c7.3,1.6,5.2,2.3-1.5,9.3c-6.3,6.6-5.8,7.5-12.2,4.2c-10.8-5.4-22.5-17.7-22.1-24.4C-192.6-39.7-192.1-42.9-190.9-42.9z
								 M478.8-45.4l2.3,14.8l-16.8-5.7L478.8-45.4z M12-37.3L17.5-24L2.6-24.3L12-37.3L12-37.3z M380.8-36.3c7-0.4,9.8,5,9.9,9.5
								c0,1.9-0.4,5-0.4,5c8.7-5.6,20.4-1.1,20.1,7.9c-0.4,12.7-6.6,12.9-16.8,11.2c5.6,9.2-0.9,18.1-11.4,14.8
								C372.6,9,374.4-1,378.8-7c-22.5,3.8-28.3,35.8-2.3,45.1c-5.3-8-6.6-17.7,4.7-19.4c10.5-1.6,15,6.4,10.5,16
								c9.9-3.5,19.2,2.1,16.3,11.8c-3.5,11.6-13.9,10.9-20,3.9c4.4,10.5-5.6,18.1-13.3,14.1c-12.1-6.4-6.2-17.9,1.9-21
								c-31-3-38,39.9-15.1,45.9c-5.9-3.6-6.6-20.5,6.8-18.3c13.2,2.6,10.1,14.8,1.7,20.4c10.2-2.2,19.8,6.6,13.6,15.6
								c-7.2,10.7-17.4,3.2-21.1-4c1.2,9.7-4.9,15.9-12.8,12.3c-13.6-6.2-3.7-21.8,7-20.9c-21.6-12.6-50.8,14.3-33.4,36.3
								c-0.7-10,4.2-18.3,11.1-17.2c6.1,0.7,11.4,7.5,9.8,13c-1.6,4.7-6.8,8.2-12.4,9.4c16.5,1.7,18,13.4,11.2,19.2
								c-11.5,9.8-17-1.4-19.7-8c-2.3,16.4-21.6,10.9-22.4-0.9c-0.7-13,14.2-12.8,17-12.1c0.4-0.4-11.7-12.2-24.4-13.8l0-7.5
								c50-31.8,67-86.9,50.7-138.9l3-3.5c8.2,6.2,16.5,19.6,31.6,14.6c0,0-3.5-2.4-5.3-4.2C365.7-26.6,370-35.7,380.8-36.3
								L380.8-36.3z M50.1-24.8l5.2,7.6C-20.2,72.4-5.8,174.4,38.4,241.6l-6.3,7.7C-7,199.9-39.3,79.7,50.1-24.8L50.1-24.8z
								 M-191.1-22.3c6.3,3.6,10.5,9,16.4,13.8c4.6,3.6,4.5,4.3,0.8,7.8c-8.4,8.2-13.2-3.6-15.9-8.4
								C-193.3-15.5-193.6-22-191.1-22.3z M105.7-23.5c5.7,0.5,9.6,6.1,9.3,10.6c-0.1,2,0.1,3.6,0.1,3.6s1.6-2,2.9-4.5
								c6.4-10.9,20.5-4.7,18.2,7.8c-1,5.9-10.9,8.2-13.6,6.5c2.6,7,9.5,8.6,18,11.5c2.9,0.5,8,2,8,2l0.2,4.7
								c-45.5,29-71.1,78-53.9,144.6l-5,6.9c-9.3-22.1-17.7-21.6-32.9-22.3c0,0,3.8,2.6,6,5.2c4.6,5.4,2.6,14.9-3.7,15.9
								c-14.7,2.4-14.9-8.1-13-15.2c0,0-2.6,2.2-3.9,3.1c-5.8,3.8-13.1-0.1-13.8-7.6c-0.7-7.1,1.7-11.7,9-12.6
								c2.4-0.3,6.2,0.3,6.2,0.3s-1.5-2.8-2.3-4.3c-3.5-6.8,4.1-12.7,11.1-11.3c11.1,2.6,10.3,12.2,3.9,19.8
								c17.2,1.2,26.2-10.1,24.8-21.3c-1.6-13.6-7.9-21-21.5-23.2c0,0,2.2,3.4,3.2,5.1c3.5,6.1-1.4,13.7-8.7,13.7
								c-7.5,0-12.3-6.8-9.5-13.6c0.7-1.7,3.5-3.7,3.1-3.9c-0.3-0.1-4.1,1.1-5.2,1.3c-9,1.5-14.8-6.4-11.1-14.3
								c2.6-5.6,10.6-7.1,16.5-4.4c0.9,0.3,2.1,1.6,2.2,1.3c0.2-0.3-0.6-2.1-0.8-3.4C47.7,71,51.1,67.1,59,67.5
								c11,0.6,15.1,9.5,7.8,17.6c-1.9,2.1-4.8,5.2-4.8,5.2c0.4,1.6,15.6,2.6,23.4-5.6c9-9.5,10.3-29.2,1.2-35.6
								C85,48.2,82,46.1,82,46.1c4.4,8.6-3.5,18.6-10.5,16.8c-14-3.3-12.9-14.8-3.7-18.5c0,0-9.4-3.4-12.1-7.2
								c-3.8-5.3-2.6-10.2,2-14c5.7-4.7,13.9-1.7,17.9,4c2.3-7.3,5.7-12.2,15.6-8.3c7,3.3,7,12.5-0.7,17.6c-2.4,1.6-6.8,3.2-6.8,3.2
								s6.6,3.7,14.6,3.8c15.4,0.1,27.5-18.2,21.2-32c-1.3-2.8-4.5-6.4-4.5-6.4s-0.3,4.9-1.3,6.7c-3.5,7-11.7,7.1-16.6,2.8
								c-4.4-3.9-3.2-9.3,0.2-12.9c2.6-2.8,4.9-3.3,8.5-5c-4.1-1.4-8.7-2.3-10.7-6.6c-1.9-4-0.6-9,4.3-12.2
								C101.7-23.3,103.8-23.7,105.7-23.5L105.7-23.5z M482.9-24L484-8.3l-17.6-6.6L482.9-24z M-0.1-20.3L6.3-6L-10-6L-0.1-20.3z
								 M340-22.2c15.6,56.4-5.6,97.2-46.3,129.2l-4.6-5.9c31.7-27.3,55.4-59.4,44.5-116.2L340-22.2z M-128.9-19.3
								c0,0,23.8,30.5,19.2,40.8c-6.2,9.9-43.6-11.1-43.1-12.3l4.7-4.5c5.9,2.4,24.4,12.4,28.5,10.8c1.4-9.3-9.6-21.2-13.7-29.1
								L-128.9-19.3z M152.5-20.9l179.4,2.2l-5.3,9.5l-14,0.2l-27.4,49.2l-128.9,0.7L152.5-20.9L152.5-20.9z M-48.8-14.8L-55-3.5
								c-5.8,1.8-23.3,2.2-24.7,3.4c2.1,5.7,4.6,22.6,4.6,22.6l-6.9,8.9C-83.9,20.5-87,6.8-89.8-3.2c-2.4-8.5-1.7-6.7,16.5-8.2
								C-65.2-11.9-56.8-13-48.8-14.8z M-12-1.5l7.5,13.1l-15,0.2L-12-1.5z M-191.6,0.5c0.8-0.3,5.5,4.8,6.3,6.3
								c-0.3,3.4-5.6,5.3-6.4,4.1c-0.3-0.5-0.5-8.1,0-10.2C-191.7,0.5-191.7,0.5-191.6,0.5z M485.2-3.3l-0.1,16.4l-17.8-7.8
								L485.2-3.3z M626.3-0.5l-0.2,10.6C561.9,42,466.2,127.1,439.7,278.9l-5.7-6.2C460.6,127.8,554.7,41.6,626.3-0.5z M-21.9,18
								l8.1,12l-14.5,1.7L-21.9,18z M485.7,19.6l-1.3,14.5l-17.6-9.6L485.7,19.6z M149,24.6c0.1,3.4,0.4,5.9,0.6,9.4
								c-39.6,26-52.7,66.5-45.8,117.4l-5.5,8.2C85.1,113.4,97.8,56.4,149,24.6z M-176.1,28.5c0,0,15.3,34,9.4,42
								c-5.8,4.8-19.2-3-25.4-6.2l-0.2-8.1c0,0,4.7,2.4,9.4,4.2c9.6,4.2,9.6-0.9,4.3-15.1c-1.9-5-3.7-10.8-3.7-10.8L-176.1,28.5z
								 M609.5,24.9c4.1,2.4,17.2,6.1,17.2,6.1l-0.1,9.7l-27.1-9.5L609.5,24.9z M-31.2,39.2L-20.8,50l-14.4,3.4L-31.2,39.2z
								 M596.6,36.7c1-0.1,2-0.1,3.1,0.1c9.2,0,26.9,7.3,26.9,7.3l-0.1,10.7c-9-2.5-19.4-7.5-28.9-8.8c-7.5-1-7,3.2-7,13.8
								c0,14.3,3.7,27.3,10.6,41.6c5.7,11.8,2.8,15-6.5,9.8c-16.8-11.4-52.4-19.8-57.8-13.1c-5.6,6.9,5.7,40.9,18.6,57.1
								c5.2,6.6,5.6,7.6,3.2,10.2c-2,2.1-5.1,2.2-10.8,0.5c-18.5-5.8-45.3-6.9-53-1.9c-7.6,5,12.5,39,29.3,50
								c10.9,7.7,8.8,11.5-8.7,12c-28.6,0.3-50.6,6.8-49.3,14.6c2.2,13.3,20.8,31.4,42.1,40.9c13.1,5.2,7.6,7.4-1,10.5
								c-14.4,5-28.3,12.9-41.9,20.3l-6.6-8.3c0,0,13.6-8.8,28.5-17.2c3.5-2,3.3-2.7-1.6-6.8c-15.9-13.2-27.7-28-30.2-38
								c-2.4-9.7,2.4-15.9,16.8-21.4c8.9-3.4,12.2-4.4,20-6.3c11.3-2.6,11.5-3,6.6-11.6c-2.2-3.9-5.8-10.3-8-14.3
								c-17.1-28.8-8.2-39.2,31-40.1c9.6-0.6,11.5-0.6,10.9-3.9c-2.2-13.6-8.3-29.2-7.5-40.7c1.7-17.4,19.5-21.7,51-14
								c7.3,1.8,7.8,1.4,6.5-4.5C576.9,60.4,582,37.9,596.6,36.7z M484.4,39.3l-2.6,16.9l-16.8-11L484.4,39.3z M-141,47l46.1,2.7
								l-7.3,8.6l-27.9-0.4l-0.9,23.8l-8.9,7.7L-141,47z M157.9,47l38-0.2L195.8,87L158,87.2L157.9,47z M203.2,46.8l35.3-0.2
								l0.2,40.2l-35,0.6L203.2,46.8L203.2,46.8z M245.5,46.5l37.9-0.2l-0.1,40.2l-37.5,0.2L245.5,46.5L245.5,46.5z M576.5,47.8
								c-0.8,10.3,1.4,29,2.4,37c-0.6,2.4-2.3,2.1-12.2-0.1c-6.9-2.3-26-2.8-26-2.8l7.9-8.5c6.5,0.7,11.7,0.7,18.5,1.5
								c-0.1-6.8,0.1-19.7,0.1-19.7L576.5,47.8z M-37.1,59.3l10.7,10.6L-40,73.5L-37.1,59.3z M480.8,59.8L476.7,77l-15.4-13.7
								L480.8,59.8z M605,59.5c7.7-0.2,14.1,2.3,21.2,8.5l0.1,8.8l-15.1-6.7c-0.1,10,8.8,28,8.8,28l-7.2,3.4
								c-6.3-10.1-10.6-19.2-11.1-30.6C601.9,66.7,601.3,59.7,605,59.5z M-42.2,80.7l12.7,7.4l-13.9,5.7L-42.2,80.7z M476.1,81.4
								l-6.1,17.7l-13.6-15.2L476.1,81.4z M-192,91l34.1,11.3l-6,6.5l-28.3-8.8L-192,91z M285,92.9l3.2,62.6l-179.7-0.4l6.2-8.9
								l11.7-0.2l30.5-52L285,92.9z M-44.5,99.7l13.4,9.3l-13.8,6.2L-44.5,99.7z M627.3,101.2l0.1,10.2
								c-43.2,32.3-89.8,87.8-97.2,185.5l-11.6,10.1C523.7,211.7,563,145.7,627.3,101.2z M469,102.6l-6.2,15.9l-12.6-14.7L469,102.6
								z M520.7,105.2c-0.2,9.4,7.6,38.7,7.6,38.7c-11.8,0.7-23.3-0.6-36,3l6-10.8c0,0,5.6-0.6,10.4-1.6c10-2.1,9-0.8,6.6-9.6
								c-2.2-8.2-2.4-9.9-2.4-9.9S520,105.1,520.7,105.2z M553.9,107c11.8,0,29.5,10.5,37.5,16.5l-4.2,4.7
								c-1.2,0.4-17.8-8.4-30.8-10.4c4.3,8.4,6.4,14.7,15.9,28l-6,6c-1.8-0.4-25.6-35.1-19.4-43C548.8,107.5,551.2,107,553.9,107z
								 M-142.2,119.2c16.1,93.9,53.5,158.3,112.4,216l-5.9,7.8c-69.2-62.5-107.2-142.4-117.4-217.7L-142.2,119.2L-142.2,119.2z
								 M-45.4,122.6l12.7,6.8l-12.9,7.6L-45.4,122.6z M627.2,118.9l0,13.8l-8-7.9C621.4,122.8,624,120.9,627.2,118.9z M460.5,122.7
								l-8.5,15.9l-11.3-14.9L460.5,122.7z M615,128.6c11.5,1.5,15.3,24.4,11.5,28.9c-1.8-2.8-17.6-12.5-24.8-16.6
								C601.2,139.8,612.7,129.4,615,128.6z M430.7,141.5l18.4,1.6l-9.7,15.2L430.7,141.5z M-45.1,144.3l14.3,6.9l-12.9,9.2
								L-45.1,144.3z M600.6,147.2c2.4,0,5.1,1,8.4,2.8c13,7.1,19.8,15,19.1,22c-0.3,3.2-2.1,3.9-4.2,1.6
								c-3.8-4.2-16.5-9.6-27.5-11.7c-8.3-1.6-9.1-2.3-6.6-6.1C593.5,149.9,596.6,147.2,600.6,147.2z M379.5,155.2
								c20.3,75.2,55.6,132.9,99.8,180.3l-9.1,7.8c-33.5-38-70.4-82.5-100.9-179.1L379.5,155.2z M419.2,159l18.4,2.7l-10.7,13.8
								L419.2,159z M160.2,161.3c2.1,0.1-6.1,32.1-35.3,34.5c-18.5,3.2-20.5,6.3-20.6,35c-0.1,39-6.4,48.1-38.2,50.7
								c-21.1,1.7-23.8,6-20.1,36.3c3.6,28.8-7.2,43.6-34.1,43.7c-23.3,2.1-32.8,13-32.7,34.5c0.1,8.7,0.2,10.8,0.2,10.8l-15,1.3
								c0,0-0.1-14.2,1-21.1c4.4-27.9,16.3-39.2,41.5-39.2c19.5-1.6,22.5-4.8,21.6-34.3c-0.9-30-1.3-29.8,6.4-37.7
								c5-5.1,10.8-7.4,21-8.4c31.8-3.2,34.3-5.3,34-38c-3.1-27.1,4.3-43.8,21.5-45.2c34.8-3,33.9-21.9,32.4-22.7l16.2-0.3
								C160.2,161.3,160.2,161.3,160.2,161.3L160.2,161.3z M231.5,160.9c21.1,110.2,86.4,213,122.1,250.9l-6.9,3.7
								c-52.1-64-99.6-137.5-123.6-254.5L231.5,160.9L231.5,160.9z M194.6,161.1l16.2,0.1L26,424.6l-9.9-7.3L194.6,161.1z
								 M217.2,161.2c17.9,63.5,32,125.5,87.6,208.4l-233.5-0.1L217.2,161.2z M281.7,161.1c1.4-0.6,7,32.1-1.1,47.3
								c-7.2,20.5-3.6,32.1,12.5,39.4c27.5,12.7,34.5,25.4,31.2,56.9c-2.3,22.1,4.4,32.7,25.2,39.6c24.7,8.3,35.6,21.5,35.6,43.3
								c0,3.3-1.2,7.2-1.2,7.2l-13.7,8.2c0,0,0.1-3,0.7-6.5c3.4-24.1-1.2-30.6-29.7-41.8c-27-10.6-33.7-23-29.3-54
								c1.4-10.1-0.7-20.3-4.9-28c-7.1-12.5-22.7-12.3-33.9-23.7c-9.3-9.7-10.4-23.4-2.7-46.9c4.8-14.5,5.5-20.1,1.6-32.1
								c-2.5-8-3.5-8.7-3.5-8.7L281.7,161.1z M-42.6,166.5l15.9,4.3l-11.9,12.4L-42.6,166.5z M586.5,166c5.4-0.2,16,1.7,24.6,5.9
								c19.8,9.7,23.4,17.8,6.1,13.5c-9.8-2.4-23.8-1.8-37.3,1.7c-14.3,3.6-14,3.8-9.1-4.9C576.9,171.2,578.5,166.3,586.5,166z
								 M515.3,170.6c12-0.3,24.1,3.1,35.4,7.3l-3.6,6.2c-7.9-1.3-16.1-5.1-28.1-4c5,9.4,10.8,14.2,18.6,22.4l-2.9,6.2
								c-0.7,0.8-22.9-17.4-27.4-29.8C505.4,173.3,507.2,170.8,515.3,170.6z M255.7,173.5c5.9,0,10.7,4.7,10.8,10.6
								s-4.7,10.8-10.6,10.8c-5.9,0-10.7-4.7-10.8-10.7S249.8,173.6,255.7,173.5z M477.4,172.6c0,0,17.6,34.4,16.5,35.7
								c-10.8,4.8-22.6,7.4-34.4,11.8l2.2-10c0,0,4-0.3,17.2-5.4c6.3-2.5-7.1-20.1-7.1-20.1L477.4,172.6z M406.5,175.6l18.1,3.1
								l-12,13.6L406.5,175.6z M68.5,177.7c4.3-0.4,10.9,7.9,10.9,7.9L57.7,216c-10.4-2-8.3-17.8,1.2-18.4c2.2,0,6.2,0.4,6.2,0.4
								s-3-1.6-4.7-3.8C54,186.4,60.1,178.4,68.5,177.7z M356.8,183.5c25.5,0.1,26,31.3,21.1,41.6c-3.5,7.1-8.9,11.1-25.1,18.5
								c-14.1,6.5-15.7,6-15.7,6l-3.4-7.5c0,0,8.2-3.7,17-7.3c18.3-7.5,22.7-13.2,20.6-26.4c-2.9-18.7-17.4-21.5-45.4-8.8
								c-3.2,1.5-7.3,3-7.3,3l-1.9-3.8c0.4-0.4,22.4-12,34.7-15C353.3,183.6,355.1,183.5,356.8,183.5z M-36.8,189.2l14.4,4.7
								l-10.4,10.4L-36.8,189.2z M604.7,189.4c12.7-0.1,23.2,2,23.2,6.5c0,2.2-0.5,2.3-11.9,4c-17.4,2.5-46.3,17.5-62.5,31.4
								c-9.6,8.2-7.1,6.3-3.1-5.5c4-11.8,9.9-25.8,13.2-28C571.7,192.4,590.2,189.6,604.7,189.4z M396.6,192.3l12.3,2.6l-7.9,7.8
								L396.6,192.3z M355.6,199.2c4.4-0.1,6.6,2,8.3,6.1c3.8,9,0.1,14.4-14,20.6c-6.4,2.9-12.1,7-19.2,8.3l-9.1-23.9
								c0,0,2.8-1.1,12.1-4.9C344.3,200.9,351.2,199.3,355.6,199.2z M314.2,202.3c28.8,80,63.8,131.8,100.7,174.8l-8.8,5.6
								c-39.2-45.9-75.4-99.7-101.7-179.1L314.2,202.3z M627.3,203c1.2,0.1,1.9,0.6,1.6,1.4c0,3.4-50.7,52-79.7,76.7
								c-13.2,11.3-12.8,11.2-13.9,9.8c-0.8-8.3,4.7-38.1,8.1-43.3c19.3-20.7,49.3-37.7,78.5-44.1
								C624.3,203.1,626.1,202.8,627.3,203z M353.5,204.9c-3.4,0.1-8.6,2.2-15.4,4.9c-10,3.9-10.8,8.6-6.3,14.3
								c2,2.5,4,1.9,13.6-1.9c9.8-3.9,14-5.7,14.6-9.2C360.8,208,357.9,204.8,353.5,204.9z M354.4,207.6c1.8,0.1,3.4,1.6,3.4,3.7
								c0,1.6-2.2,3.1-4.6,3.1c-0.8,0-2.8,0.5-4.1,1.8c-1.2,1.8-2.1,3.6-4.3,3.2c-1.3-0.2-3.8-0.3-4.7,0.5c-4.5,3.9-8.9,0.7-6.9-3.2
								c0.5-1,2.3-1.5,3.8-1.5c1.3,0,4.2-0.3,4.6-1.9c0.5-1.9,3.4-2.4,5.3-2.3c2.2,0.3,3.9-0.8,4.5-1.7c0.8-0.7,1.7-1.5,2.6-1.5
								C354.2,207.6,354.3,207.6,354.4,207.6z M124,209.6c5.9,0,10.8,4.7,10.8,10.6S130,231,124.1,231c-5.9,0-10.7-4.7-10.8-10.7
								S118.1,209.7,124,209.6z M-30.9,210.8l16.2,2.1L-24.8,226L-30.9,210.8z M293,217.1c5.9,0,10.7,4.7,10.8,10.6
								c0,5.9-4.7,10.7-10.6,10.8c-5.9,0-10.7-4.7-10.8-10.6C282.4,222,287.1,217.1,293,217.1z M-23.5,231.1l17.6,1l-10,13.5
								L-23.5,231.1z M69.4,233.1c5.9,0,10.7,4.7,10.8,10.6s-4.7,10.7-10.6,10.8c-5.9,0-10.7-4.7-10.8-10.6S63.5,233.1,69.4,233.1z
								 M509.2,237.2c7.3-0.2,15.9,0.5,15.9,0.5l-2,8.2c-8.9,0.9-20.4-1.5-30,2.6c3.6,5.8,24.5,13.9,26.9,16
								c0.2,0.9-1.7,8.7-1.7,8.7c0.6,2-35.4-14.4-36.7-28.4C481.5,240.1,496.9,237.4,509.2,237.2z M385.7,246.5
								c20.4,0.1,30.7,28.5,22.8,41.2c-3.1,5.7-10.2,12.5-19.5,18.5c-4.5,2.9-16.4,8.8-16.4,8.8l-5.4-8.2c0,0,4.7-1.9,9.2-4.4
								c11.2-6.4,33.9-20.1,22.8-38.4c-6.2-9.9-15.5-11.8-34.7-1.9c-14.3,7.4-17.6,8.1-17.6,8.1l-3.7-6.6
								C344.2,264,371.9,247.1,385.7,246.5z M451.4,247.1c9.9,18.8,26.6,32.9,31.2,36.3c0,0-16.5,10.8-26.4,17.6l-5.9-6.8l14.2-12.3
								l-16.2-22.3L451.4,247.1z M-12.7,251.8l16-0.1l-6.8,14.5L-12.7,251.8L-12.7,251.8z M607.8,250.8c-1.8,9.3-2,19.2-2.7,30.1
								c3.5,3.2,6.7,4.8,9.5,4.6c3-9.8,5.2-20.9,3.7-32.4C615.3,250.8,611.5,251.1,607.8,250.8z M612.7,253.5
								c0.4-0.1,0.9-0.1,1.3,0.1c2,1,1.8,2.4,1.9,4.2c0,6.1,0.9,13.8-1.7,19.7c-1.5,3.4-4.9,2.1-5-2.4c-0.2-6.2,1-11.4,1.4-17.1
								C610.7,255.6,611.5,253.9,612.7,253.5z M384.6,263.4c10.5,0.7,14.6,9.5,10.8,15.8c-9.4,12.2-19.1,14.5-31.6,21.6l-12.6-23.2
								C351.2,277.6,375.3,263.8,384.6,263.4z M384.3,268.6c-7,0.9-11.3,4.3-17.2,7.2c-7.1,3.6-9.4,9-4.6,13.9
								c5.4,5.9,24-8.4,27.1-11.9c1.9-3,1.5-5.7-1.1-7.8C387.4,269.1,386,268.6,384.3,268.6z M0.5,271.8l15.7,0.1l-8.4,12L0.5,271.8
								z M384,271.4c0.7,0.1,1.3,0.3,1.8,0.6c2.7,1.9,2.5,5.3-1.3,6.3c-1.9,0.5-5.2,0.5-5.2,3.1c0,1.9-2.9,2.6-4.6,2.4
								c-1.7-0.3-4.5-0.4-5.1,1.7c-1.4,2.9-2.5,2.9-4.5,0.9c-2.2-2.2-1.2-4.9,3.1-5.4c1.8-0.2,3.4-1.5,4-2.9
								c-0.1-1.8,1.1-2.8,3.1-2.4c2.8,0,4.7-1.1,6.6-3.7C382.6,271.5,383.3,271.4,384,271.4z M294.1,272.9c5.9,0,10.7,4.7,10.8,10.6
								s-4.7,10.8-10.6,10.8c-5.9,0-10.7-4.8-10.8-10.7S288.1,272.9,294.1,272.9z M65.6,293.9c5.9,0,10.8,4.8,10.8,10.7
								c0,5.9-4.7,10.7-10.7,10.8c-5.9,0-10.7-4.7-10.8-10.6C55,298.8,59.7,293.9,65.6,293.9z M516.4,300.3l0.1,8.1
								c0.3,0.4-16.6,7.9-26.5,12.5c-3.2,1.8-1.9,5.2-1.7,8.7l-4.8,3.3c0,0-6.6-4.8-7.5-7.9C473.6,315.2,504.6,303.3,516.4,300.3z
								 M-190.4,304.9L-67.3,388l-8.3,12.3l-114.3-76.7L-190.4,304.9L-190.4,304.9z M425.1,304c8,0,14.1,4.5,20.2,13.7
								c11.9,18.3,6.1,32.8-18.3,47.8c-11.3,6.9-11.4,7-11.4,7l-5.8-7.1c0,0,8.3-4.9,11.7-7.1c20-12.8,25.6-24.1,16.7-36.7
								c-8.6-12.1-17.5-11.1-42.3,4.8c-5,3.2-11,5.8-11,5.8l-5.5-7.4c0,0,14-7.3,18.8-10.4C409.1,307.4,418,304,425.1,304z
								 M339.5,310c5.9,0,10.8,4.7,10.8,10.6c0,5.9-4.7,10.8-10.7,10.8c-5.9,0-10.7-4.8-10.8-10.7C328.8,314.9,333.6,310,339.5,310z
								 M7.5,315c5.9,0,10.7,4.7,10.8,10.6c0,5.9-4.7,10.7-10.6,10.8c-5.9,0-10.7-4.7-10.8-10.6C-3.2,319.8,1.5,315,7.5,315z
								 M424.7,321c4.1-0.2,7.1,2.5,8.8,6.5c4.3,10.3-1.4,18-22.3,29.9c-1.8,1-5.5,3-5.5,3l-15.6-21.2c0,0,5.4-3.8,10.5-6.9
								C412.2,324.8,419.5,321.3,424.7,321z M422.7,326.2c-1,0-2.1,0.4-3.4,1.2c-5.4,3.1-14.3,6.5-18.5,12.2
								c-2.5,3.4-1.3,6.8,3.4,11.2c4,2.6,24.5-12.6,25-17C427.3,329.1,425.6,326.1,422.7,326.2z M-189.3,330.9l3.4,2.3l-3.4,2.7
								L-189.3,330.9z M422.9,329.9c1.3,0.1,2.5,0.4,3.1,1.1c1.5,1.8,0.6,5-2.6,5.6c-1.6,0.3-4,0.7-4.8,3.2c-0.6,1.6-2.8,2.9-5,2.9
								c-2.5-0.6-3.8,1-4,2.1c-1.2,2.1-4.3,2.5-6.2,0.5c-1.5-1.5,1.1-6,2.8-6c0.3,0.1,2.2,0.6,4.5-2.5c0.4-2.2,3-3.6,4.9-3.5
								c1.9,0.6,3-1.5,3.8-2.6C420.3,330.1,421.6,329.8,422.9,329.9z M-181.2,336.2l4.9,3.3l-13,9.4l0-7.5L-181.2,336.2z
								 M-171.6,342.4l6.7,4.4l-24.3,17.6l-0.1-9.5L-171.6,342.4z M-159,350.3l7.1,4.6l-37.1,25.4l-0.1-9.7L-159,350.3z M-145.6,357
								l0,8.1l-43.4,30.7l0-8.2L-145.6,357z M-140.6,362.8l9.4,6.4l4,274.5l-58.5,40.7l0-12l49.1-36L-140.6,362.8L-140.6,362.8z
								 M568.5,366.1c-13.1,15.1-30.8,16.2-46.2,15.9c-41.5,0.8-67.3,3.2-72.4,52.8c16.9-12.8,34.8-14.5,55.6-14
								c26.3-0.2,38.1-2,48.8-7.4c17.1-8.7,27.9-24.1,25.8-34.8C578,376.2,572.6,366.6,568.5,366.1z M-145.5,372.7l0.1,9.5
								l-43.4,29.5l-0.1-9.6L-145.5,372.7z M352.7,370.6c5.9,0,10.8,4.7,10.8,10.6s-4.7,10.7-10.7,10.8c-5.9,0-10.7-4.7-10.8-10.6
								S346.7,370.7,352.7,370.6z M67.9,373.4c77.1,1.9,240.8,0,240.8,0l8.8,12.5l-257.4-1.2L67.9,373.4z M570.2,370.9
								c2.4-0.2,2.7,3-2.2,7.8c-9.2,9.1-18.7,13.6-49,13.2c-32-0.4-44.5,4.7-52.7,19c-2.4,4.2-2.3,5.8,1.1,2.6
								c2.9-3.5,9.5-10.2,12.3-3.9c5.4-3.6,10.1-9,13-2.2c1.6-0.4,10.7-9.7,13-1.5c4.4-5,8.2-6.5,10.3,0.5c6.2-3,9.5-8.7,13.2-0.9
								c5-3.6,8.8-8.2,11.8-1.3c4.3-1.3,8.6-9.2,11.2-2.9c0.5,0.2,16-9.3,20.3-18.6c3.6-8.2,6.9-2.8,2.9,5.6
								c-10.4,20.5-28.4,28.1-69.9,28.4c-25.2,0.2-35.5,2.7-43.4,7.4c-12.6,7.5-5.9-11.2,2.9-22.5c11.1-14.3,23.9-18.6,58.9-17.5
								c19.1,0,31.3-2.7,36.5-6.9C564.7,373.5,567.9,371.1,570.2,370.9z M1.8,378.6c5.9,0,10.8,4.7,10.8,10.7
								c0,5.9-4.7,10.7-10.7,10.8c-5.9,0-10.7-4.7-10.8-10.6C-8.9,383.5-4.2,378.6,1.8,378.6z M-145.4,387.4l0.1,9.7l-43.4,30
								l-0.1-9.9L-145.4,387.4z M65.6,390.8l33.8-0.2l0.2,35.7l-33.8,0.2L65.6,390.8z M141.4,390.3l36.4-0.2l0.2,35.7l-36.4,0.2
								L141.4,390.3z M222.5,391l35.1-0.2l0.2,34.6l-35.1,0.2L222.5,391z M298.6,391.2l23.4,0.7c0,0,13.1,16.5,18.6,24l-17.2,9
								l-24.6,0.2L298.6,391.2L298.6,391.2z M81.9,394.9c-6.6,0-11.9,5.4-11.9,12c0,6.6,5.4,11.9,12,11.9c6.6,0,11.9-5.4,11.8-12
								C93.8,400.2,88.4,394.9,81.9,394.9z M159.7,395.7c-6.6,0-11.9,5.4-11.9,12s5.4,11.9,12,11.9c6.6,0,11.9-5.4,11.9-12
								S166.3,395.6,159.7,395.7z M239.3,395.5c-6.6,0-11.9,5.4-11.9,12c0,6.6,5.4,11.9,12,11.9c6.6,0,11.9-5.4,11.9-12
								C251.3,400.7,245.9,395.5,239.3,395.5z M49.3,399c2.4,1.7,3.9,4.4,3.9,7.5c0,5.1-4.1,9.3-9.2,9.3c-1.8,0-3.5-0.5-4.9-1.4
								L49.3,399z M81.9,399c4.4,0,7.9,3.5,8,7.8c0,4.4-3.5,7.9-7.9,7.9c-4.4,0-7.9-3.5-7.9-7.8C74,402.5,77.5,399,81.9,399z
								 M278.2,398.1c5.3,0,9.6,4.2,9.6,9.5c0,5.3-4.2,9.6-9.5,9.6c-5.3,0-9.6-4.2-9.6-9.5C268.7,402.5,272.9,398.1,278.2,398.1z
								 M318.6,397.9c-6.6,0-11.9,5.4-11.8,12c0,6.6,5.4,11.9,12,11.9c6.6,0,11.9-5.4,11.9-12C330.5,403.1,325.1,397.9,318.6,397.9z
								 M120.5,399.4c5.3,0,9.6,4.2,9.6,9.5c0,5.3-4.2,9.6-9.5,9.6c-5.3,0-9.6-4.2-9.6-9.5C111,403.8,115.2,399.4,120.5,399.4z
								 M159.7,399.7c4.4,0,7.9,3.5,8,7.8c0,4.4-3.5,7.9-7.9,7.9s-7.9-3.5-7.9-7.8C151.9,403.3,155.4,399.7,159.7,399.7z
								 M-145.3,401.6l0.1,9.6l-43.4,30.7l-0.1-9.4L-145.3,401.6z M239.3,399.5c4.4,0,7.9,3.5,7.9,7.8c0,4.4-3.5,7.9-7.8,7.9
								s-7.9-3.5-8-7.9C231.4,403.1,235,399.6,239.3,399.5z M199.4,400.8c5.3,0,9.6,4.2,9.6,9.5c0,5.3-4.2,9.6-9.5,9.6
								c-5.3,0-9.6-4.2-9.6-9.5C189.9,405.1,194.1,400.8,199.4,400.8z M318.6,401.9c4.4,0,7.9,3.5,8,7.8c0,4.4-3.5,7.9-7.9,7.9
								c-4.4,0-7.9-3.5-7.9-7.8C310.7,405.5,314.2,402,318.6,401.9z M-20.7,412.2c20.3-0.4,42.4,9.8,54.9,26.9
								c18.9,25,31.6,56.9,37.6,98.9c2.9,20.8,13,83.2,18.6,97.9l-7.6-1.4c-1,0.5-11-39.2-17.4-91.7c-2.4-19.4-6.7-44.5-18.1-67.4
								c-13-26.1-35.1-53.7-64.3-55.7c-17-1.2-33,9.6-34.6,24.6c-2.4,11.9,4.6,22.9,13.8,26.6c9,3.6,19.7,0.8,20.8-11.4
								c0.2-2,0-4-0.8-5.9c4.1-0.7,7.3,1.2,9,4.6c0.9,0.1,0.1,17.7-13.7,21.3c-16.7,5.6-36.1-10.9-37.7-27.7
								c-1.2-14.2,9.5-31.8,23.1-36.7C-31.9,413.2-26.4,412.3-20.7,412.2z M-145.2,418.4l0.1,9.8l-43.4,30.4l-0.1-9.9L-145.2,418.4z
								 M-19.6,423.9c24.4-0.8,48.3,26.2,58.5,44.1c10.6,18.6,19.1,48.3,22.1,76.2c5.2,47.5,14.5,86.3,16.4,88.1l-6.7-1.4
								c-1.4,0.9-10.8-41.9-16.7-89.7c-3.3-26.8-13.4-53.3-25.3-73.7c-11-18.8-25.8-32.8-43.3-34.8c-10.9-1-22.1,2.2-24.3,13.7
								c-1.1,6.8,2.4,13.4,10.5,13.9c1.9,0.1,3.7,0.3,4,0.3c4.2,0.7-2.4,7.6-6.8,7.1c-15.7-2.1-23-22.9-10.7-34.1
								C-34.6,427-27.1,424.2-19.6,423.9z M32.6,430.6l274,1.2c0,0,0.3,4.9-16.8,4.2c-14.5-0.6-23.9,1.5-33.5,4.6l-215.3,0.8
								L32.6,430.6z M-145.1,434.8l0.1,9.1l-43.4,30.8l-0.1-10.1L-145.1,434.8z M-17.7,437.9c5.3-0.1,10.6,1.2,14.7,3.5
								c34.1,19.5,47.3,68.2,52,98.9c6.4,45.5,13.7,87.7,15.6,88.7l-7.4-1.6c-1,0-9.3-39.4-14.6-83.5c-4.3-35.7-16.7-71.5-41-86.5
								c-15.6-10.5-18.7-11.5-25.8-5.3c-6.2,5.4-12.5-2.6-7.4-9.2C-28.2,439.5-23,438-17.7,437.9z M-145,451l0,7.5l-43.4,30.6
								l-0.1-8.9L-145,451z M54.4,450c0.6-0.5,23.8,38.4,31.4,100c4,32.4,15.3,87.6,17.1,88.1l-8-0.8c-8.4-32.6-13-63.4-17.6-91.2
								c-5.1-31.4-9.2-59.4-29.1-95.8L54.4,450C54.4,450,54.4,450,54.4,450L54.4,450z M59.7,450.3l7.1,0.1
								c12.3,23.1,25.5,59.1,30.2,95.2c4.1,31.2,8.1,62.9,19.5,95.9l-7.7-2.1c-9.8-26.8-13.4-59.2-18.7-92.7
								C84.2,509.5,75.1,477.2,59.7,450.3z M103.6,450.1c12.7,32.2,20.9,47.6,26.8,87.3c4.6,30.8,11.1,69.3,25.5,110.1l-7.2-0.3
								c-10.7-28.1-19-65.9-22.9-102.1c-5.3-49.2-27.7-95.1-27.9-94.8L103.6,450.1L103.6,450.1z M91.4,450.3
								c0.7-1,24,45.1,29.7,95.8c3.8,33.8,11.9,67.2,22.9,99.4l-7.4-0.1c-8.6-9.8-15.2-56.4-22.5-100c-7.4-44.4-17.7-71.7-29.1-95
								L91.4,450.3C91.3,450.3,91.4,450.3,91.4,450.3L91.4,450.3z M72.7,450.4l6.5,0c17.3,37.3,24.6,59.6,30.1,95.7
								c6.9,45.7,13.6,87,20.8,97.7l-8-0.5c-11.2-32.9-16.4-65.9-20.5-98.9C97.2,508.8,86.7,478.3,72.7,450.4z M108.9,450.5l7.8,0.1
								c13.6,27.1,24.9,60,29,97.8c2.3,20.5,6.2,51.9,21.9,100.2l-6.2-0.4c-12.8-32.4-20.6-70.7-25.3-104
								C131.3,510.6,123.1,482.9,108.9,450.5z M156.8,450.5c7.5,18.8,13.6,37.5,17.7,56.7l-4.4,8.6c-7-25.4-14.9-45.1-22.7-65.1
								L156.8,450.5z M121.3,450.7l9.5,0.2c16.5,37.7,25.1,77.6,27.5,91c0,0,2.3,11.8,2.5,15.7c-0.3,33,5.5,56.5,18,92l-5.6-0.4
								c-14.5-41.2-18.5-70.4-22.3-98.4C147.6,515.5,135.9,479.3,121.3,450.7z M143.2,450.9c9.8,24.2,17.4,47.5,24.2,70.8
								c-0.3,5.3-0.7,11.1-4.2,15.4c-8.1-28.5-14.9-58.2-27.3-86.1L143.2,450.9L143.2,450.9z M161.1,451l7.5,0.1l15.2,42.7l-5.8,6.5
								C173.5,486.1,168.9,470.6,161.1,451z M204.9,451l5.6,12.8l-5.9,5c0,0-6.1-12-7.7-17.7L204.9,451z M216,450.9l2.8,7.4
								l-4.9,3.8l-3.9-11L216,450.9z M173.1,451.3l7.7,0c3.2,9,11.6,31,11.6,31l-5.5,5.9C186.9,488.2,176.2,460.4,173.1,451.3
								L173.1,451.3z M185,451.3l6.8,0c2.1,5.8,8.6,22,8.6,22l-4.7,4.5L185,451.3z M220.8,451.4l6.8,0.3l-0.8,1.7l-4.2,2.1
								L220.8,451.4z M-1.3,462.2c28.5,14.8,36.6,59.5,39.8,84.2c5.6,43,11.9,77.9,13.1,78.8l-6.3-1c0,0-4.8-22.1-8.1-43.1
								c-2.8-17.5-4.9-32.1-5.7-38.8c-0.5-4.2-1.2-9.1-1.6-10.8c-4.1-17.6-5.4-21.7-10.5-32.4c-5-10.3-6.7-12.9-14.9-22
								c-3.2-3.5-6.2-6.1-7.3-8.3C-4.4,465.6-1.3,462.2-1.3,462.2z M-144.9,465.3l0,8.4l-43.4,31.1l-0.1-9.7L-144.9,465.3z
								 M-144.8,480.2l0.1,9.7l-43.4,29l-0.1-8.6L-144.8,480.2z M-144.7,496.7l0.1,9l-43.4,30.7l-0.1-9.3L-144.7,496.7z
								 M-71.8,505.4l3.8,0l0.3,6.3l-5.9-0.3L-71.8,505.4L-71.8,505.4z M-144.6,513.7l0.1,9.6l-43.4,29.1l-0.1-9L-144.6,513.7z
								 M-76.3,516.9l9.2,0l-0.1,6.6l-11.9-0.3L-76.3,516.9L-76.3,516.9z M-81.6,527.6l15.1,0.2l0,6.3l-18.8-0.2L-81.6,527.6z
								 M-144.5,529.3l0.1,10.1l-43.4,29.3l-0.1-10.2L-144.5,529.3z M-89.2,539.5l22.2,0.1l-0.1,5.3l-26.5,0L-89.2,539.5z
								 M-144.4,545.7l0.1,9.9l-43.5,28.2l-0.1-8.9L-144.4,545.7z M-98.4,550.2l30.5,0.2l-0.7,5.1l-34.7,0.1L-98.4,550.2z
								 M-144.4,561.2l0.1,9.5l-43.5,28.7l-0.1-9.2L-144.4,561.2z M-109.8,561l40.1,0.7l8.5,7.6l-62.4,0.7L-109.8,561L-109.8,561z
								 M-121.8,575.1l68.9,0.4l4.8,4.4l-73.9,0.7L-121.8,575.1z M-144.3,577.4l0.1,10.1l-43.5,28.8l-0.1-9.2L-144.3,577.4z
								 M-121.7,586.2l76.4-0.1l-5.5,6.2l-70.9,0.6L-121.7,586.2L-121.7,586.2z M-144.2,594l0.1,9.2l-43.4,29.9l-0.1-10.6
								L-144.2,594z M-123.5,598.7l66-0.2l-7.7,6.1l-45.6,1.3L-123.5,598.7L-123.5,598.7z M-144.1,610.2l0.1,8.8l-43.4,31.5
								l-0.1-9.9L-144.1,610.2z M-104.1,611.1l38.7-0.1l0.8,5.2l-33.3,0.1L-104.1,611.1z M-93.3,621.8l29.7,0.1l1.4,6.7l-26.5-0.2
								L-93.3,621.8z M-144,626.8l0,8.2l-43.4,30.7l-0.1-9.1L-144,626.8z M-61.5,633l0.4,6.4l-17.7,0.8l-5-6.7L-61.5,633z
								 M-61.5,644.4l-0.1,6.7l-12.4,0.3l-2.8-6.5L-61.5,644.4z M-72.5,656.4l9.8,0l-0.8,5.2l-7.6,0.1L-72.5,656.4z M-69.5,668.8
								l4.8,0l-0.8,4.1l-2.4,0L-69.5,668.8z M27.4,736.7l-2.3,2.9l68.2-0.4l0.7-2.9L27.4,736.7z M115.4,736.2l-1.2,4l30.8-0.2l0.8-4
								L115.4,736.2z M165.6,736.6l-0.9,3.7l78.7-0.5l-1.3-3.7L165.6,736.6z M259.8,736.1l1.6,4.5l26.5-0.2l-1.8-4.5L259.8,736.1z
								 M351.1,735.5l-46.5,0.3l1.7,5l48.1-0.3L351.1,735.5L351.1,735.5z"/>
						</g>
					</g>
				</g>
			</g>
		</g>
		<path id="path163-0-2-5-8-7-5-0-7-4" fill="#D40000" d="M3153.3-671.3c0,0-3.7-6.1-8.7-13.3c-3.4-4.8-6-10-6.3-14.5
			c-0.3-5.1,2.4-10.3,7.3-10.5c4.9-0.2,6.9,3.9,7.7,7.4c0.8-3.5,2.8-7.7,7.7-7.4c4.9,0.2,7.6,5.4,7.3,10.5
			c-0.2,4.5-2.9,9.7-6.3,14.5C3157.1-677.4,3153.3-671.3,3153.3-671.3L3153.3-671.3z"/>
		<path id="path163-0-2-5-8-7-7-8-0-0-6" fill="#D40000" d="M3235.8-551.4c0,0-3.7,6.1-8.7,13.3c-3.4,4.8-6,10-6.3,14.5
			c-0.3,5.1,2.4,10.3,7.3,10.5c4.9,0.2,6.9-3.9,7.7-7.4c0.8,3.5,2.8,7.7,7.7,7.4c4.9-0.2,7.6-5.4,7.3-10.5
			c-0.2-4.5-2.9-9.7-6.3-14.5C3239.5-545.3,3235.8-551.4,3235.8-551.4z"/>
	</g>
</g>
</svg>
