<?xml version="1.0" encoding="utf-8"?>
<!DOCTYPE svg PUBLIC "-//W3C//DTD SVG 1.1//EN" "http://www.w3.org/Graphics/SVG/1.1/DTD/svg11.dtd">
<svg version="1.1"
	 id="svg7064" xmlns:rdf="http://www.w3.org/1999/02/22-rdf-syntax-ns#" xmlns:dc="http://purl.org/dc/elements/1.1/" xmlns:cc="http://creativecommons.org/ns#" xmlns:svg="http://www.w3.org/2000/svg"
	 xmlns="http://www.w3.org/2000/svg" xmlns:xlink="http://www.w3.org/1999/xlink" x="0px" y="0px" width="178.6px" height="249.4px"
	 viewBox="0 0 178.6 249.4" enable-background="new 0 0 178.6 249.4" xml:space="preserve">
<g id="layer1" transform="translate(4.411083e-5,-740.55114)">
	<g id="g6392" transform="matrix(0.99999718,0,0,1.000002,-3105.2771,1123.8043)">
		<path id="rect7331-9-9" fill="#FBFBF6" stroke="#7F7F7F" stroke-width="0.4" d="M3114.2-382.9H3275c4.7,0,8.5,3.8,8.5,8.5
			v231.6c0,4.7-3.8,8.5-8.5,8.5h-160.8c-4.7,0-8.5-3.8-8.5-8.5v-231.6C3105.7-379,3109.5-382.9,3114.2-382.9z"/>
		<path id="path7363-8-9" d="M3119.4-343c-3.4,4.4-7.1,6.9-7.2,10.3c0,1.1,0.6,3,2.7,3.3c1.4,0.2,3.2-0.8,3.3-2.7
			c0-0.4,0.5-0.4,0.5,0.2c-0.1,1.6-0.6,3.4-1.6,4.9c1.5,0,3,0,4.5,0c-0.9-1.5-1.5-3.3-1.6-4.9c0-0.5,0.5-0.6,0.5-0.2
			c0,2,1.9,3,3.3,2.7c2.1-0.4,2.8-2.2,2.7-3.3C3126.5-336.1,3122.8-338.6,3119.4-343L3119.4-343z"/>
		<path id="path7367-3-1" d="M3269.8-174.1c-3.4-4.4-7.1-6.9-7.2-10.3c0-1.1,0.6-3,2.7-3.3c1.4-0.2,3.2,0.8,3.3,2.7
			c0,0.4,0.5,0.4,0.5-0.2c-0.1-1.6-0.6-3.4-1.6-4.9c1.5,0,3,0,4.5,0c-0.9,1.5-1.5,3.3-1.6,4.9c0,0.5,0.5,0.6,0.5,0.2
			c0-2,1.9-3,3.3-2.7c2.1,0.4,2.8,2.2,2.7,3.3C3276.9-180.9,3273.2-178.4,3269.8-174.1L3269.8-174.1z"/>
		<path id="path35-7-9-2" d="M3119.3-371.8v2.8h2.7c0,0,0.1,2.7,0.1,8.3c0,5.5,0.1,8.2-0.2,9.7c-0.9,3.6-6.1,3.6-7.2,1
			c-0.6-1.5-0.4-2.7-0.5-4.2h-2.9c0,0,0,0.8,0,1.7c0,4,1.4,6,4.5,6.7c3.2,0.9,7-0.5,8.3-3.2c0.8-1.6,0.7-1.7,0.7-11.1
			c0-6.3,0.1-8.9,0.1-8.9h2.5v-2.8H3119.3L3119.3-371.8z"/>
		<path id="path35-7-8-1-4" d="M3269.8-145.2v-2.8h-2.7c0,0-0.1-2.7-0.1-8.3c0-5.5-0.1-8.2,0.2-9.7c0.9-3.6,6.1-3.6,7.2-1
			c0.6,1.5,0.4,2.7,0.5,4.2h2.9c0,0,0-0.8,0-1.7c0-4-1.4-6-4.5-6.7c-3.2-0.9-7,0.5-8.3,3.2c-0.8,1.6-0.7,1.7-0.7,11.1
			c0,6.3-0.1,8.9-0.1,8.9h-2.5v2.8H3269.8L3269.8-145.2z"/>
		<g id="g3851-4-2-7-4" transform="matrix(0.15513522,0.00255852,-0.00256389,0.1548104,3382.9204,-262.82254)">
			<path id="path4037-8-0-2" fill="#131F67" d="M-1645.4-625l22.5,1359.5l841.7-13.9l-22.5-1359.5L-1645.4-625z M-1377.9-622
				l381.3-4.9l-57.6,91.5c-77.5-23.2-202.2-5.2-266.5,8.2C-1338.1-555.2-1363.2-590.4-1377.9-622z M-1634.1-614.3l244.8-4
				l59.2,103.7c2.1,2.9,0.2,8.9-0.9,12.3c-6.8,20.1-12.8,31.8-26.8,55.8c-13.2,22.8-17.8,43.5-12.7,57.3c0.8,1.7,1.4,4.3,1.2,6.5
				c-0.7,6.9-6.4,15-14.2,20.7c-5.4,1-16.5,1.8-22.9,8.3c-5.5,5.6-9.9,13.7-8.9,28.3c0.4,5.2,1.1,8.6,1.1,8.6
				c-72.6,31.6-124.4,68.1-122.7,69.4c-0.7-0.3-65.2-28.5-91.8-35.3L-1634.1-614.3z M-982.9-625l168-2.8l7.9,480.7l-64.1-40.8
				c5.2-3.8,8.5-6,14-9.9c1-0.3,2.9-0.4,4.1-0.7c11.2-2.7,18.9-11.2,14.8-19.9c-2.7-5.9,0.9-5.6,4.1-10.4c3.6-5.5,2.7-10.3,0.3-14.8
				c-1.2-2.2-0.6-3.2,1.3-7.4c5-6.5,1.1-17.2-5.6-20.6c-0.7-1,0.7-2.6,1-4.1c1.7-8.7-1.8-16.2-9.3-18c-3.9-0.9-5.2-1.6-3.9-5
				c2.3-6.1-0.9-8.4-5.9-10.3c-8.5-3.2-6.1-3.8,4.2-8.6c21.2-9.9,25.7-38.5,10.6-64.1c-1.9-3.3-7-10.9-10.5-16c-4-6-8-11.1-8-11.1
				l27.6-39.8c0,0-20-23-27.2-35.7c1.5-6.4,20.9-26.7,23.1-46.1c3.5-30.4-19.9-49.5-41.7-46.8c-15.1,1.8-33.6,11.8-31.7,39.9
				c0.6,8.7,4.1,17.7,10.5,28.5c4.5,8.1,10.2,16.7,15.7,24.9l-27.8,39.3l29.3,35.9c0,0-0.4,0.6-1,1.6c-2.8,4.6-10.9,18.1-14.3,26
				c-10.2,21.1-13.6,44.1,8.4,60c3.8,2.3,6.8,4.2,8.4,5.8c2.2,2.1,0.9,3.7-2.5,4.6c-4,0.9-8.1,0.9-12.4,2.7
				c-13.5,5.2-27.1,13.4-36.7,21.5c-5.4,4.5-13.9,18.6-19.1,30c-5.6,12.4-7.2,15.2-7.2,15.2l-100.9-62.2c0,0-2.6-2-3.3-2.7
				c-1.9-2.1-1.2-3.3,0-5.6c1.1-2,1-7.7,0.4-12.1c-0.3-8.4-0.2-8.4,4.5-16.2c1.7-2.7,2.3-5.5,1.3-9.6c-1.6-4.7-1.8-3.2,1.2-6.4
				c1.1-1.5,2.5-2.2,2.7-3.7c0.3-2.1,0-5.7-0.1-12.5c-0.1-13.6-0.3-12.5,7.2-18.6c9.4-7.6,12.8-11.1,14.3-14.5
				c2.1-4.8-0.1-8.4-5.6-18c-2.5-4.3-6.4-10.2-8.2-13.5c-3.5-5.9-8.6-13.6-11-21.1c-3.6-5.7-3.3-15.7-0.1-21.6
				c4-7.4,5.1-11.9,4.7-26.7c-0.4-13.8-1.3-12.5,2.1-17.1C-1023.5-559-982.9-625-982.9-625z M-875.2-575.2c0.6,0,1.1,0,1.7,0
				c8.3,0.3,16.5,2.8,24.2,10c10.5,10.2,10.1,25.2,6.9,40.8c-1.5,4.5-2.6,9.2-5.7,13.9c-1.7,2.7-3.1,5.1-3.1,5.5
				c0,0.3-2.5,4.5-5.5,9.2c-3,4.7-6.4,11.1-6.4,11.1s5,8.7,13.8,19.5c6.7,9.6,11.1,18,11.5,17.5c0,0-1.6,4.2-3.8,7.2
				c-6.7,9.1-19,28.1-19.5,30.1c-0.1,0.5-1.4,1-1.4,1.4c0.1,1.7,2.7,3.8,6.5,8.9c23.3,30.9,27,57.3,10.1,73.1
				c-8.4,7.9-16.8,10.4-25.8,9.6c-16.6-1.5-32-15.4-30.6-35.9c0.6-9.5,0.1-12.3,5.5-23.3c2.4-6.2,7.9-16.9,11.6-22.3
				c3.2-3.9,6.7-9.4,6.7-9.4s-8.3-12.4-23.5-29.7c-2.7-3.2-4.5-7.5-4.5-7.5l24.9-38.3c0,0-3.1-7.3-8.2-14.6
				c-10.5-15.1-17.3-31.2-17.4-40.3C-907.3-561.3-892.6-574.9-875.2-575.2z M-802.7-35.6c-15,8.3-29.2,35.9-0.8,16.3l1,15.7
				c-14.6,21.4-44,6.4-37-15.7c-20.1,3-23.6-17.5-22.7-27.2c-26.6-5.3-17.9-33.6-17.9-33.6c-15.5-12.5-18.4-25.9-6.3-40.3
				c-12.7-7.6-16.3-12.5-30.2-18c12.1,93.8,63.7,141.8,117.8,184.5c-1.4,0-1.1,30.3-4.5,24.8C-880.5,15.3-930.5-49-940.7-154.2
				c-0.6,1.7-36.6-26.9-42.5-25.2c-9.5,170.8,128.2,280.8,185.1,302c0,0,1.2,23.8,0.2,23.9c-86.2-35.9-183.3-144-203.8-274.1
				l-49.2,79.1l-19.1-7.8l79.6-130.1l-55.8-33.7l-87.6,144c0,0-2.2,11.9,4.3,11.6c126.5,11.4,316.7,160,257.9,407.9
				c-5.5-2.1-14.2-6.2-14.7-6c9.5-21.4,34.8-159.7-49.9-269.7c-38.8-50.4-98.5-103.7-193.2-118.1c8.1,16,5.3,52.5,5.3,52.5l22.1,4.1
				c-7.6-7.7-13.9-14.1-17-22.5c-4.3-13.2,1.6-21.1,16.4-13.5c5.9,3.2,7.3,3,13-1.3c11.7-9,25.3-0.2,22.4,14.5
				c-0.4,2.2,0.2,3.5,5.8,3.9c12.7,1.1,25.6,7.1,34.1,16.9c4.2,5.1,5.1,4.4,8.6,1.2c8.7-7.9,23.6,2.6,21.2,14.5
				c-1.4,6.8-0.5,8.5,2.6,9.7c17.5,7,21.8,11.5,27.4,26.6c2.1,5.5,3.7,7.3,4.7,7c0.7-0.2,3.5-1.2,6-2.2
				c12.9-5.1,20.7,10.4,11.7,22.8c-1.8,2.5-0.4,4.9,3,6.7c10.9,5.7,18.4,19.6,19.9,34.3c0.6,5.6,1.2,5.6,6.8,5.3
				c14.3-0.8,21.5,18.4,9.9,25.7c-4,2.5-3.2,5.7,0,9.4c8.5,9.8,10.6,16.9,10,28.2c-0.7,15.1,0.2,14.7,5,16.5
				c14,5.1,11.8,27.4-1.9,27.5c10.2,22.8-2.3,50.9-1.8,51.4c26.5,14.3,3,30.4-4.6,27.8c0,0-3.7,10.4,0.8,15.6
				c-22.5,30.8-52.6,36.4-85.7,52.1l-2.8-107.2c14.1,10.9,28,21.1,41.9,31.3c0,0,3.5-1.1,0.2-4c-6.2-5.6-21.8-15.2-26.1-19.1
				c-9.4-6.9-44-38.9-50.2-46.5c-2.8-5.1-6.8-2.1-6.7-1.7c4.2,7,7.4,15.1,12.8,22.3c11.7,15.6,23,33,22.1,50.3
				c0.1,9.7-3.6,19.8-5.6,24.7c-1.5,6.7-12.2-0.9-9.7-6.6c4.5-15.5,8.2-28.1-9.1-52.6c-8.4-11.9-19.5-33.6-19.5-33.6l-6.8,1.8
				l2.6,139.9c-5.7,0.3-20.2,4.3-17.2,4.4c45.1-9.8,60,54.7,16.4,57.5c-8.3,0.4-16.6,14.9-17.4,22.6c0.7,18.8,3.8,38.6-9.7,56.8
				c-3.5,4.8-5.1,12.4-8.3,18.3c-16.3,30-23.5,47.2-21.7,54.8c0.5,2,0.9,4.6,0.9,4.6c-53.3,14.2-93.3,18.3-147.2,20.5
				c-0.5-0.8,17.2-53.5,30.3-80.6c9.7-20,14.7-33.7,11.8-37.7c-42.7,2.9-35.5-59.9,5.4-58.4c0,0,9.7-36.3,20.9-52.7
				c10.8-6.2,32.8,1.6,44.9-6.7c28.7-9.3,48.2,24.5,48.2,24.5l7.2-32.6l-255.4,3c0,0-24.7,10.7-38.2,5.4
				c-8.7-3.4-21.1-12.6-21.1-12.6c0,0,95.9-159.5,109.9-182.4c1.1-1.9-2.6-5.7-2.6-5.8c-0.6-5.1-113.9,184.4-113.9,184.4
				c-66.4-41-149.9-92.9-223.8-138.4l-1.4-70.3c52.6-34.4,47.6-48-1-10.7c-0.7,0.6-1.5-26.4-1.5-26.4c36.9-34.1,5.9-23.1-1.3-11.4
				c0-8.4-2.1-19.7,3.2-24.7c16.1-15.4,35.7-1.8,37,20.5c21.4,3.8,19.1,22.7,24.7,30.1c22,11.9,10.8,30.8,16.3,37.1
				c23.2,14.1,7.6,37.6,2.7,37.2c2.9,1.9,31.8,20.6,34.2,19.8c-4.1-100.2-105.7-179.5-119.1-189.1l2-21.7c0,0,139.4,86,140.6,227.6
				l44.4,25.4c-6.3-145.2-73.7-242.7-185.7-303.2l-1.9-26.9c93.9,41.8,181.7,128.1,204.2,271.6l50.2-80.9l18.3,8.5l-80.6,134.2
				l52.3,33.1c39.2-53.5,71.6-118.8,91.5-149.9c-0.6-2.8-1.8-6.8-1.8-6.8c-197.7-29.3-311.8-212.2-262-406.1l13.8,5.8
				c-38.7,143.6,31.7,348.3,246.8,386.9c-0.7-15.2-4-52.5-4-52.5s-28.3-8-24.1-4.7c7,5.8,22.9,31,16.5,40.1
				c-4.7,0.7-12.6-1.8-21.4-7.9c-3.3-2.3-3.4-1.8-7,2.1c-10,11-24.8,5-25.2-9.8c-0.2-6.3-0.4-7.6-9.3-7.5
				c-13.5,0.1-19.6-2.1-27.9-12.8c-5.9-7.6-5.3-7.6-12.1-5.2c-12.8,6.4-23.4-6.4-19.5-17.1c1.9-5-0.2-6.6-6.1-7.5
				c-11.5-1.7-24.7-15.9-27.3-27.6c-0.5-2.4-1.7-3-8.5-2.6c-13.3,0.7-20.7-7.2-15.7-18.6c2.7-6.1,3.5-8.6-1.9-12.6
				c-6.6-5-10.3-8.4-13.3-14.5c-2.4-4.8-2.8-7.9-4.5-18.3c-0.6-3.6-1.8-4.2-6.5-4.7c-13.7-1.6-19.4-15.5-9.5-24.8
				c3-2.8,3-2.8-1.7-8.7c-9.2-11.5-12.8-26.6-9-36.7c1-2.7-0.1-6.1-3.3-6.8c-12.6-2.9-13-16.8-1.2-24.8c3.4-2.3,3.6-3.8,0.9-8.3
				c-4.7-7.9-4.9-28.9-0.6-39c2.8-6.5,2.7-6.7-1.8-9.4c-9.6-5.9-7.2-22.7,4-25.6c5.4-1.4,5.8-2.1,4.2-8.7
				c-2.8-11.8-3.3-14.8,3.6-19.6c19-12.8,67.7-37.4,67.7-37.4l16.1-8c0,0,3.3,99.1,2.4,110.8c-0.6,5.1,4,8,9.4,13.2
				c11.1,10.5,17.3,23.4,32,32.2c0,0,9-5.2,14.5-8.9l-1.8-141.2c1.1-3.2,1.9-3.6,5.6-4.1c3.1-0.6,10.8-1.6,13.4-2.4
				c6.2-1.9,7.2-4.5-1-3.5c-2.5,0.3-6.2,1.4-10.3,2.3c-25.6,8.1-45.3-31.6-26-52.1c3.7-3.4,17.6-9.5,24-10c1.8,0,7.2-6.9,10.9-13.2
				c3.7-6.3,5.1-11,2.9-17.3c-4.8-13.1-0.8-33.5,12.4-55.9c14.3-21.1,25.3-44.7,30.8-69.6c51.9-7.1,95.8-20.8,142.9-18.7
				c2.1,15.9-49.6,110.4-38.4,115.7c42.1,9.3,28.6,59.3-3.3,58.1c-4.8,0.1-5.2,0.5-8.1,11.1c-5.5,15.5-9.1,27.3-15,41.8
				c0,3.7-20.8,3-38.2,3.2c-7.4,5.9-39.2,22.1-57.4-17.6l-0.1,34.2c0,0,239.8-7.8,282.6-3.1c0.7-10.7,23.9,7.9,23.9,7.9l-114,186.1
				l5.6,5.3c16.6-20.8,115.7-186.8,115.7-186.8l222.8,138.6c-1.5,21.2,1.4,68.6,1.4,68.6c-60,33.1-41.2,49.2-0.2,9.6L-802.7-35.6z
				 M-1176.2-533.2c0,0,62.4-0.5,93.8,4c27.5,3.9,26.1,3.2,26.3,23.1c0.2,14.1,0.1,13.8-3.4,20.7c-6.5,12.6-5.1,24.9,5.7,42
				c10.5,16.6,18.3,28.8,18.3,31.2c0,3.7-0.5,8.2-9.3,14.6c-10.4,7.5-12.3,12.7-12,20.1c0.2,6-0.9,8-4.5,8c-1.4,0-6.5,2.5-11.9,5.1
				c-9.6,4.7-9.6,4.7-18.6,4.8c-4.5,0-6.7-1.6-8-1.1c-2.4,1.2-4.5,9.3-4.4,11.7c0.3,0.8,1.5,0.3,4.2-0.6c14.8-5.3,37.1-3.4,37.7-1.2
				c3.1,2.7,3.1,6.9-1.3,11.3c-2.9,4.7-4.2,7.1-2.8,14.2c1.8,9.7,0.6,13.6-4.3,17c-15,10.5-35.2,12.1-67.7,6.4
				c-34.2-6-57.8-18.6-77.6-41.6c-8.8-10.3-11-13.9-6.8-14.7c5.3-0.9,11.1-2.1,16.5-4.5c23.8-10.7,22.7-54.6-9.7-58.7
				C-1229.1-421.7-1189.7-484.5-1176.2-533.2z M-1144.9-503.5c-11.5,6.7-17.4,14.7-17.4,19c0,1.8,0.4,1.4,5.9-2.3
				c15.9-10.8,58-26.8,73.3-18.2c11,6.4,15.2,4.2,8.7-4.5C-1089.6-529.9-1129.2-512.4-1144.9-503.5z M-1103.4-497.2
				c-1.7,0-3.5,0.3-5.3,0.7c-11.1,2.7-23.3,12.1-33.3,20.4c-5,4.1-11.9,12.1-13,14.2c-2.4,4.7,3.2,9.8,10.7,5.5
				c4.4-2.5,4.8-1.9,9-1.4c9.8,2.8,21,7.2,38.2,5.4c1.6,0.3,1.5,0.7,1,2.2c-1,2.8-7,8.1-14.8,14.1c-4.1,3.1-7.6,5.7-7.9,6.1
				c-1.2,2,4.3,2.1,10.2-1.4c8.4-5,18.1-15.8,24-24.5c0.6-0.8,1.3-1.5,1.6-2.4c0.6-2-3-1.1-5-1.6c-0.8-0.2-0.7-2.3-0.9-3.3
				c-0.6-2.5,0.3-6.7,0.7-10.3c0.3-2.9,3.4-5.3,5.4-7.4c8.8-9.5,8.1-13.7-3.9-6.3c-2,1.2-3.6,2-5.6,2.2
				c-17.8,0.9-28.2,0.3-42.8,13.1c-6.5,5.4-10.5,6-4.7,0.2c8.9-7.4,19.9-17.9,32.3-20.9c7.5-2,14.7,3.6,18,2.1
				C-1089.7-494.5-1096-497.4-1103.4-497.2L-1103.4-497.2z M-1105.6-471.4c2.1,1.3,4.2,8.3,4,10.6c-0.2,2.7-4.9,1.7-5.6,0.4
				l-2.7-7.7C-1110.9-470.7-1107.6-472.2-1105.6-471.4z M-1114.6-469.6c2.2,2.1,2.8,6.8,4.1,10.6c-0.7,2.8-18.4-0.7-20.6-3.7
				C-1128.6-466.2-1119.6-470.5-1114.6-469.6z M-1083-420.1c-1.3-0.1-3.1,0.6-4.6,2.3c-7.8,8.2-5,22,4.6,26.3
				c4.7,2.1,11.7,0.4,21.9-3c4.9-1.6,8.4-2.3,9.4-2.4c4,0,6.1-6.3,3.2-9.2c-3.3-3.3-11.1-2.6-19.3,3.9c-4.2,3.3-7.2,5-10.6,5
				c-8.3,0-12.5-8.5-4.2-17.7C-1079.7-417.8-1080.8-420-1083-420.1z M-1140.5-359.8c10,7.8,28.6,3.3,41-5.2
				c11.1-7.6,15.7-9.9,24.8-8.5c11.1,1.7,10.6-2.6,5.7-8c-5.5-6.1-18.9-4-30,3.6c-24.6,16.9-33.5,19.8-40.9,11
				c-7.9-9.4,1.1-21.9,10.3-15.3c7.6,5,7.4,1.1,4.2-2.3C-1143.5-399.4-1156.1-371.9-1140.5-359.8z M-1227.7-350.5
				c12.8,15.7,25,28.6,43.2,38l0.2,3l-58.3,0.8C-1238.6-315.9-1227.6-350.1-1227.7-350.5z M-1424.4-305.9c-0.8,24,3.7,38,18,54.5
				c15.2,17.6,14.6,45.3,5.3,62.6c-4.1,7.7-12.9-1.5-8.9-6.5c5.7-7.4,5.7-25.2,2.8-36.2c-6.4-18.3-20.5-27-26.5-46.3
				c-2-8.3-1.7-23.1-1.7-23.1L-1424.4-305.9z M-1406.1-304.1c1-0.2,2.7,0.8,5.1,2.9c8.4,7,7.3,27.5-1.9,40.7c-2.8,4-5.2,2.9-8.1-0.7
				c-3.8-3.6-2.5-4,0.5-10.5c3.2-6.8,4.1-14.4,3.3-23.3C-1407.8-301-1407.6-303.9-1406.1-304.1z M-871.3-306
				c7.3-0.2,16.4,1.2,17.3,3.8c0.8,3.2-0.8,5.8-4.9,7.6c-10.6,4.7-24.8-1.4-21.3-9.1C-879.4-305.1-875.7-305.8-871.3-306z
				 M-889.7-303.9c2.1-0.1,3.7,0.4,5,1c3.5,1.7-1.8,14.1,15.6,13.6c4.2,0.5,7.2-0.5,6.7,1.4c-0.8,2.8-8.2,7.2-16.3,8.5
				c-24.1,4-23.1,2.8-21.7,19.8c0.9,11.2,0.2,14.9-1.2,21.7c-2.4,11.8-3.3,23.1-1.6,19.4c2.3-5,8-20.9,7.9-29.8
				c-0.3-13.2,4.4-15.9,6.4-6.4c0.9,6.3-1.9,9.9,2.5,16.3c2.5,3.6,3.6,3.5,2.1,9.2c-1.3,5-0.3,6.4,1.4,8.9c1.8,2.5,3.6,3.1,2.1,6.6
				c-3.1,7.7,2.1,14.9,9.3,15.4c3.4,0.2,4.3,1.7,3.3,3c-1.7,2.2-5.3,3.3-8.2,4l-77.7-47.9c0,0,5.5-11.5,7.2-14.6
				c10.6-24.4,19.2-35.6,51.3-48.8C-893.3-303.5-891.3-303.9-889.7-303.9z M-848.6-288.7c2.1-0.1,3.7,1,5.5,3.2
				c4.8,6,0.8,13.6-10.7,20.4c-9.8,5.8-12.7,6.5-15-2.3c-0.5-1.6-1.9-3.5-2.7-4.3c-2.3-2.1-1.8-3.8,1.1-5.4c1.4-0.8,5.8-2.7,9.3-5.1
				C-855-286.4-851.3-288.6-848.6-288.7z M-881-270.6c2.4,0,4.9,0.5,6.8,1.7c3.1,1.9,3.2,7,0.1,9c-6.1,2.6-15.9-0.6-15.2-6.3
				C-888.9-269-885.1-270.6-881-270.6z M-841.4-265c2.2-0.1,3.8,0.9,5.2,3c3.7,5.5-0.4,11.2-12.5,17.4c-8,4.1-18.2,5.9-17.5,3.6
				c0.5-1.9-2.5-11-3.8-12.4c-0.5-1.5,0.1-0.2,10.2-3.5c3.6-1.2,8-3.2,10.1-4.5C-846.3-263.7-843.6-264.9-841.4-265z M-1417.8-241
				c-5.4,13.7-6.2,19.7-3.3,33.9c2.4,11.8,5.1,17.7,17.6,35.1c9.5,13.2,12.5,18.3,10.4,22.6c-1.5,2.3-5,4.5-7.3,2.3
				c-4.6-5.8-7.5-13-12-19.5c-17.4-24.7-18.7-31-21.2-50.7c-1.1-9,3.7-28.2,8.1-31.2C-1420.6-250.6-1416.3-244.1-1417.8-241z
				 M-1024.8-253.7c-4.6,3.5-7.4,10.5-9.7,15.6c0.6,3.6,3.4,1.2,10.9-10.2C-1021.7-251.1-1023-254-1024.8-253.7z M-878.2-250
				c6.8,0.1,9.3,6.2,6.3,9.4c-4.4,4.7-12.4,1.3-12.5-5.2C-884.5-248.6-883.2-250-878.2-250z M-840.3-242c3.9,0.1,4.5,4,2.5,9.6
				c-2.5,5.3-5.6,6.2-14.9,9.3c-11.2,3.7-13,3.2-14.8-7.1c-0.7-3.9-0.4-3.1,9.9-6c4.4-1.3,9.6-3.4,12.3-4.6
				C-843.3-241.6-841.6-242-840.3-242z M-1502.2-226.4l3.1,20.8l4.2-15.7L-1502.2-226.4z M-876.5-229.7c5.5-0.1,8.6,4.8,5.8,7.8
				c-1.5,1.7-5.5,1.8-7.4,0.8C-882.6-224.2-881.9-229.7-876.5-229.7z M-1044.8-216.1l10.9,6.4l-85,139.3l-10.5-0.1l-1-2.2
				L-1044.8-216.1z M-846.7-218c6.4-0.2,7.1,5.9-0.6,11.6c-3.2,2.1-6.7,2.7-9.5,2.8c-3.9,0.2-6.5-0.7-6.9-3.4
				c-1.8-6.5-2.8-8.2,3.2-7.9c1.2,0.1,4.5-0.2,7.1-1.3C-850.7-217.4-848.5-218-846.7-218z M-873.3-211.6c4.5,0,7.4,4.7,4.4,7.2
				c-3.6,3-8.3,1.3-8.3-3.2C-877.2-210.4-876.5-211.5-873.3-211.6z M-1501.4-191.4l-23.4,21.4c8.9,10.2,16.4,20.3,24.1,31
				L-1501.4-191.4z M-1021-198c10.3-0.6,13.8,4.3,8.9,7.8c-6.6,4.5-12.3,4.4-19.8,3.5c-10-1.7-2.2-9.8,8.7-11.1
				C-1022.4-197.9-1021.7-198-1021-198z M-1031.7-182.8c2.1-0.1,5.2,0.4,9.1,1.7c6.8,2.2,15.3,9.1,15,13c-0.5,6.4-12.5,3.3-22.3-5.7
				C-1036-179.3-1036.3-182.6-1031.7-182.8z M-1040.8-182.6c5.9,0.5,12,20.1,7.6,26.3c-4.3,6-12.4-6.7-11.1-16.8
				c0.5-4,1.4-9.3,3-9.5C-1041.2-182.6-1041-182.6-1040.8-182.6z M-1422.6-171.9c3.3,0.7,7.6,5.2,6.7,8.7c-0.6,1.4-2,1-3.5,0.7
				c-2.7-1.1-4.9-4.8-4.4-8C-1423.5-171.4-1423.2-171.9-1422.6-171.9z M-979.5-175.9l17.4,11.4l-17.2,1L-979.5-175.9z
				 M-1050.2-151.1c13.2-0.1,16,4.1,6.3,9.4c-4.1,2.2-14,2.8-19.2,1.1C-1071.4-143.3-1061.7-151-1050.2-151.1z M-943.5-144l1.1,11.9
				l-33,3.4l-1.9-12.4L-943.5-144z M-1057.7-136.2c2.3-0.2,6,0.8,10.8,3.2c9.1,4.5,14.3,12.2,9.7,14.7c-4.2,2.3-11.7-0.2-17.1-5.7
				C-1061.5-131.2-1062.1-135.8-1057.7-136.2z M-1069-135.9c6,0.3,11.5,16.6,7.7,24.9c-2.1,4.5-4.9,3.6-8.9-3.7
				c-3.9-7-4.3-19.5,0-21C-1069.8-135.9-1069.4-136-1069-135.9z M-1499.1-124.2l-14,29.3l26.6,22.4L-1499.1-124.2z M-938.9-111
				l2.5,11.5l-31.6,8.4l-3.3-12.5L-938.9-111z M-1077.5-106.5c3.9,0,7.5,0.9,9.6,2.7c2.9,2.5,2.3,3.7-4.5,6.5
				c-12.1,5.2-27.1,2.4-18.6-5.1C-1087.8-105.1-1082.5-106.5-1077.5-106.5z M-871.3-110.6c-12,8.3-0.2,12.6,8.3,6.3
				C-863.6-106.3-868.7-110.6-871.3-110.6z M-1086.1-90.7c8.7,0.1,25.9,11.8,22.3,17.5c-1.9,3.1-13.3,0.7-17.9-3.6
				c-6-5.6-9.3-13.2-6-13.8C-1087.3-90.7-1086.7-90.7-1086.1-90.7z M-1097.1-90c4.5-0.9,12,19.8,6.6,25.3c-2,2-2.6,1.9-6-1
				c-6.9-5.9-5.9-17-1.9-23.2C-1098-89.6-1097.5-89.9-1097.1-90z M-830.4-83.4c-1.2-2.2-2.7-3.2-4.3-4.4
				C-876.6-70.9-865.6-55.6-830.4-83.4z M-930.3-80.3l4.4,11.6l-31.8,13.2l-4.9-12.7L-930.3-80.3z M-1476.7-49.2l-10.4,28.7
				c11.8-0.1,22.5,5.3,33.3,10L-1476.7-49.2z M-919.1-50.1l7,11.3L-942-22l-6.2-12L-919.1-50.1z M-1617.4-16.2l12.5,8.5l-17.7,22.8
				l-1.7-3.1l-0.1-18.7L-1617.4-16.2z M-902.2-21l7.4,10.4L-923.4,10l-7.3-11.3L-902.2-21z M-1586,3.8l13.5,10l-20.6,25.7l-12.9-9.5
				L-1586,3.8z M-1439.5,7.7l-0.1,30.5l31.3,0.7L-1439.5,7.7z M-1077.6,15.5l35.9,19.9l-5.9-31.2
				C-1056.8,6.1-1068.6,12.4-1077.6,15.5z M-882.3,5.8l8.5,10.2l-26.4,22.9l-8.7-10.6L-882.3,5.8z M-1558.5,26l12.6,11.3l-21.5,24
				l-11.7-10.6L-1558.5,26z M-859.1,31.2l9.8,9.6l-23.9,25.7L-883,57L-859.1,31.2z M-1529.8,54.8l9.8,11l-24.6,20.2l-9.4-11.1
				L-1529.8,54.8z M-1386,55l7.5,29.8c-0.5-2.2,30.9-9.4,35.1-7.2L-1386,55z M-1018.5,51.5l30.3,31l2.8-30.4L-1018.5,51.5z
				 M-834.2,53.4l10.9,8.2l-19.5,28.8l-12.4-9.4L-834.2,53.4z M-1507.9,83.5l9.1,12.7l-25.9,16l-7.6-11.2L-1507.9,83.5z
				 M-805.6,74.9l1.7,1.6l0.3,20.4l-8.1,12.3l-11.4-6.5L-805.6,74.9z M-973.7,100.6l27.1,47.5l6.8-35.9
				C-949.5,112.2-965,106.2-973.7,100.6z M-1486.5,115.4l6.5,13.7l-27.4,13.1l-6.5-13.6L-1486.5,115.4z M-1471,148.2l5.3,13.8
				l-29.2,10.2l-4.9-13.3L-1471,148.2z M-1601.9,175.5l9.2,6.3C-1545.4,155.9-1560.4,148.7-1601.9,175.5z M-1332.8,155.1
				c1.8-0.2,3.9,2.2,5.7,7.7c2.7,8.3,1.5,18.6-4.1,18.5c-3.8-0.4-5.4-10.1-5.4-12.9C-1336.9,160.1-1335.2,155.4-1332.8,155.1z
				 M-1306.6,159.6l11.4,1l0,3.2l-88,145l-11.1-6.8L-1306.6,159.6z M-1355.3,163.8c3.6,0,8.9,2.4,13.7,7.2c2.8,2.9,5.8,7.1,6.6,11.4
				c-0.1,1.4-2.5,0.9-4.8,0.6c-6-0.8-14.9-4.8-17.8-9.8C-1361.2,166.9-1359.3,163.8-1355.3,163.8z M-939.6,162l13,58.6
				c3.5-14.8,11.2-23.4,16.9-35C-925.2,178.7-931.6,170.4-939.6,162z M-1458.8,182.5l3.1,15.2l-30.3,7.6l-3.4-14.7L-1458.8,182.5z
				 M-1345.1,185.9c0.4,0,0.9,0,1.3,0c11.2,1.1,12.8,3.5,5.4,8.7c-4.5,3.1-16.8,3.8-18.8,0.5C-1359.5,191.7-1351.6,186-1345.1,185.9
				z M-1565.9,198.4l9.5,5.4C-1540.3,191.8-1558.1,189.8-1565.9,198.4z M-1360.9,200.2c3.4,0,5.6,6,6.8,11.6
				c1.2,5.4,1.7,10.3-0.3,13c-2.5,3.4-5,4-7.1,0.7C-1367.5,216-1367.6,200.2-1360.9,200.2z M-1385.9,209.4c1.6-0.1,3.6,0.3,5.9,1.1
				c7.9,2.8,18.6,14.8,14.2,16.5c-6.5,2.6-20.9-4.4-23.7-11.6C-1390.8,211.9-1389.3,209.6-1385.9,209.4z M-1450.8,220.2l1,15
				l-32,1.8l-1.2-14.9L-1450.8,220.2z M-1372.2,231.6c3.2-0.1,6.3,0.2,8.9,1.3c4.6,1.9,1.3,5.5-6.5,8.4c-5.2,1.9-12.6,2.5-15.2,0.4
				C-1391.1,237-1381.6,232-1372.2,231.6z M-1620.1,237.4c22.2,13,68.1,41.9,68.1,41.9c-2.1,0.5-4.4,2.2-6.5,3.9
				c-1.6,1.4-3.4,2.7-4.9,3.3c-2.4,1-4.7,1.2-6.7,1.7c-14.1,3.3-20.9,11.4-16.3,21.3c1.8,3.9,2.2,3.2-0.7,6.6
				c-8.3,8.2-7.2,10.6-4.1,20.8c0.1,1.5-9.8,14-0.7,23.2c5,4.2,5.2,1.5,3.6,11.3c-0.5,5.9,1.2,10.7,9.7,12.2
				c4.8,2.1,4.7,1.3,3.1,5.4c-1.1,5.8,0.6,8.2,4.7,10.2c3.7,2.2,5.2,2.8,2.7,4.9c-28.2,15-36.6,40.5-9.1,77.5
				c3.2,4.3,11.4,16.6,11.4,16.6c-8.8,13.6-17.3,24.8-26.3,36.9l27.5,37.1c-4.2,6.9-14.2,20.9-20.2,34.7c-9,20.7-2.4,49.4,24.8,57.6
				c11.6,3.5,26.9,0.2,36.3-11.1c7.7-9.2,11.6-27.3,4.2-46c-9.4-20.9-20.4-31.1-24-37l28.2-36.6c0,0-20.3-28.2-28.4-38.4
				c52.8-66.9,8.5-84.6-0.1-90.2c-1.3-0.9-1.1-5.1-1.1-5.1c48.4-6.4,64.5-33.2,78.1-67.2c29.2,18.1,71,42.5,100.3,61.6
				c2.8,2.5,4.7,4.1,4.3,5.6c-0.3,1.2-1.4,6.5-1.3,12c1.5,8.7,0.9,12.7-2.6,16.1c-3.3,3.2-2.6,4.6-2,8c1,5.9,1.9,6.5-0.7,9.5
				c-3.2,3.7-4.3,5.5-3.5,14.4c0.4,5.3,1.2,9.3-0.1,12.4c-1.7,4.1-6.6,6.2-13,11.4c-11.2,9.1-9.6,11.8,6.6,43.9
				c13.8,27.3,15.4,33.6,10.5,43.5c-4.1,8.2-5.6,14.5-4.9,26.3c0.2,3,0.5,6.2,0.5,7.8c0,3.8,0.1,3.4-2.1,5.8
				c-1.7,1.9-4.5,5.6-6.2,8.3c-18.2,28.2-66,100.8-66,100.8l-165.2,2.7L-1620.1,237.4z M-1388.5,246.6c1.9-0.2,4.3,3.2,7.1,10.2
				c1.6,4,1.5,11-0.9,13.7c-4.8,5.4-11.8-7-9.8-17C-1391.2,249-1390,246.7-1388.5,246.6z M-925.3,231.4c0.4,25.5,0.4,58.5-7.9,83
				l10,4.3c-3.6-25,0-45.5,22.8-56.7C-911,255.1-919.1,243.3-925.3,231.4L-925.3,231.4z M-1413.1,255.5c0.8,0,1.7,0.1,2.7,0.5
				c3.7,1,8.3,3.1,11.1,5.8c4.8,4.7,9.7,10.4,8.5,11c-7.7,3.6-27.7-6.6-25.2-14.8C-1415.4,256.3-1414.4,255.6-1413.1,255.5z
				 M-1447.7,257.2l0.4,12.5l-19.4-11.9L-1447.7,257.2z M-1010.3,255.9c3.1,0.2,8,4.2,7.3,7c-1.3,3.1-2.9,2.8-5.1-0.4
				C-1010.9,258.7-1012,256.2-1010.3,255.9z M-1398,277.8c4.6-0.2,8.7,0.8,9.1,3.2c0,2.3-3.5,5.3-7.8,6.7c-10.8,3.5-19,1.5-16.1-3.9
				C-1411,280.2-1404,278-1398,277.8z M-1018.7,285.7c-4.5,8.3-4.6,34.7,3.7,45.3c12.8,13.7,24.8,31.7,23.9,55.8l-12,5.6
				c0.3-19.9-0.7-32.8-16.4-49.6c-18.8-19.8-15-54.6-8.8-64.9C-1023.1,267.7-1015,281.9-1018.7,285.7z M-1550,283.5
				c3.9-0.3,8.6,1.9,17.3,7.4c22.2,15.2,34.2,21,56.2,36c3.2,2.9,3.1,2.5,2.6,4.9c-7.8,32-31.5,57.6-67.2,62.8c-4.1,0.6-2-2-4.6-7
				c-2.7-5.1-7.4-7.3-12.7-7.2c-14.8,0.1-2.3-8.4,15.7-11.1c6-1,13.1-1.9,16.9-5.6c0.8,0.4-3.5-24.8,0.4-33.8
				c1.9-8-0.1-11.9-2.2-6.9c-1.4,3.1-3.2,11.3-4.1,19.6c-0.8,7-2.2,8-4,4.6c-0.8-1.5-0.8-5.2,0.3-8.2c1.2-6.6-7.2-11.5-5.6-17.6
				c2.2-5.1-0.3-10.6-3.1-12.5c-1.6-3.3-1.4-5.6-1.3-7.9c0.4-5.4-3.3-10.5-9-12.6c-2.5-1.2-1.8-2.6,0.8-3.9
				C-1552.5,283.9-1551.3,283.6-1550,283.5z M-1567.8,292.8c1.4,0,2.8,0.1,4.2,0.4c2.9,1.7,5.4,11.7,2.2,12.2
				c-1.2,0.2-4.9,0.7-7.8,1.6c-9.8,3-14.4,2.7-14.3-2.9C-1583.4,298.3-1575.5,293.1-1567.8,292.8z M-1554.7,293.6
				c3.9,0,7.1,4.4,4.7,6.9c-2.5,2.5-7.3,0.8-7.4-2.8C-1557.4,295.8-1556.6,293.7-1554.7,293.6z M-1551.8,309.3
				c1.1-0.1,2.3,0.2,3.7,0.7c3.6,1.6,5.8,7.7,3.5,10c-1.7,1.7-6.7,1.2-9.4-1C-1558.8,315.1-1556.6,309.5-1551.8,309.3z M-1564,310.4
				c2.2,0,3.8,0.7,4.3,2.2c0.4,1.3-0.2,2.5,0.4,4.4c1,2.9,2.9,5.2,1.3,6.4c-7.5-0.3-23,9.4-27.5,9c-3.8-0.4-4.3-3.9-1.1-9.6
				C-1582.9,316.3-1570.7,310.3-1564,310.4z M-1559.1,328.6c1.6-0.1,1.9,0.8,1.3,3.2c-0.4,1.7,0,5.8,1.2,8.4
				c1.3,2.8,3.6,4.4,2.4,5.5c-1.9,0.6-8.4,2-13.8,4.1c-6.9,4-26.4,16-21.8-2.8c1.5-6.3,8.6-10.7,21.2-15.4
				C-1563.8,329.9-1560.8,328.7-1559.1,328.6z M-1548.8,328.6c3-0.3,6.5,1.1,8.2,4.9c4.7,9-8.4,10.5-12.7,3
				C-1555.9,332.1-1552.7,329-1548.8,328.6z M-1546,349.8c6.8-0.1,12.2,8.3,7.3,11.6c-3.6,2.3-8.2,1.9-12.4,1
				C-1557.3,359.6-1554.6,349.9-1546,349.8z M-894.1,339.2c26.1,13.1,61.5,25.1,95.8,33.8l5.6,336.7l-233.5,3.9L-1092,603
				c0,0-2.2-3.6-2.9-5.2c-1.3-3-0.9-5.5-0.1-8.6c2-7.6,8.2-22.6,13.9-33.2c15-28.6,36.4-60.1,24.1-87.1
				c-1.4-3.1,11.9-20.2,11.9-20.2c21,1.4,38.2-12.6,31.4-44.8C-970.2,385.3-934.3,370.1-894.1,339.2z M-1558,351.8
				c0.6,0-1.1,7.4,2.7,11.8c2.4,3.5,2,3.4-5.8,6.6c-2.9,1.6-5.8,4.1-7.5,5.6c-11.1,10.2-22.5-2.7-11.7-13.5
				c8.7-8,17.8-9.9,22.2-10.5C-1558.1,351.8-1558,351.8-1558,351.8z M-1022.4,349.9c3.8,0.6,8.8,5.6,7.2,8.3
				c-5.2,9-5.3,13.8-5.7,23.1c-0.4,10.3,1.4,11.8-2.5,10.1c-2.6-1.1-7.4-3.1-8.5-5.7C-1034.5,379.6-1028.7,348.9-1022.4,349.9z
				 M-1561.1,384.7c4.2-0.1,8.6,1.2,11.1,4.3c2.1,2.6,2.4,4.9,0.3,6c-4.8,2.7-21,1.6-21.9-1.7
				C-1572.9,388.2-1567.2,384.9-1561.1,384.7z M-1316.6,387.2c19.7-0.3,42.8,3.6,60.7,11c25.4,9.1,48.1,33,53.3,43.4
				c1.6,3.1-1.5,3.2-4.2,3.5c-30,5.5-39.4,42.7-13.7,60c8,4.9,14.5,4.2,14.5,4.2c6.4-0.7-27.5,67.2-40.8,109.4
				c-43.2-1.1-75.8,6.1-118.2-7.7c-4.7-7.5-3.9-24.1-0.7-32.8c2.9-7.9,6.8-13.9,4.7-22.9c-3.6-15.6-18.2-35.8-23.2-48.6
				c-4.3-9.8-4.1-13.5,3.1-19.3c8.5-6.8,10.6-8.2,12.9-11.6c2.1-3.2,1.2-3.9,1.1-10.9c-0.1-8.6-0.3-7.2,6.8-8.6
				c2.5-0.5,8.3-2.4,12.7-4.9c9.2-5,15.6-5,21.1-2c2.4,0.6,2.1-1.8,3-5.1c0.4-1.4,1.4-3.7,1.3-4.4c-0.2-1.4-3.3-1-6.7-0.4
				c-13.7,2.2-24.6,2.8-30.2,0.8c-4.9-1.7-4.9-5-2.2-10.4c2.4-4.9,4.2-4.8,3-14.9c-1.5-12.6,0.2-15.3,6-19.5
				C-1345.2,390-1331.9,387.4-1316.6,387.2z M-1245.2,397.1l64.1-1.1c-6.1,10.3-12.9,26-16.6,40.9c-0.6,1.2-1.2,2.3-2.7,0.8
				C-1209.3,425.6-1219.3,412.5-1245.2,397.1z M-1297.6,443.1c-7.7,0.3-17.2,4.2-29.1,11.3c-8.1,4.8-14.7,7.8-23.4,6.4
				c-5-0.8-5.6-0.1-6.2,1.5c-2.8,7.3,8.2,14.9,19,9.6c3.2-1.4,27.4-14.5,28.7-15.6c1.4-1.2,11.5-4.3,14.2-4.4
				c8.1,0,13.2,6.2,12.3,13.6c-1.2,9.8-15,10.5-16.1,1.8c-0.8-6.7-3.6-3.7-3.8-0.4c0,2.8,2.3,9.2,4.6,10.6
				c11.8,7.1,27.1-7.4,19.4-21.9C-1282.6,446.8-1288.9,442.7-1297.6,443.1z M-1349.6,478.1c-7.9,1.6-13,4.8-21.6,5.7
				c-7,1.7-6.4,7.3-2,10.2c3.4,2.2,7.7,0.8,19.9-7.3c12-7.9,22.7,8,13.1,16.4c-6,5.3-1.8,6.6,2.3,3.4
				C-1327.1,498.2-1333.7,474.8-1349.6,478.1z M-1311.3,518.9c-0.9,0-2.4,0.3-4.4,1.3c-9,4.3-16,8.8-20.2,14.8
				c-0.7,1.3-0.3,3.4-0.6,5.1c-0.3,1.3-1.3,3-1.1,3.9c0.2,0.8,2.8,1.6,3.2,2.3c1.6,3,0.7,10.6-0.1,16.1c-0.4,2.6-4.3,3.5-5.8,5.1
				c-5,5.3-3.7,6.9,1.7,4.8c3.8-1.5,2.1-4.1,11.6-2.4c12.3,2.2,21.9-1.3,31.5-6.8c10.6-6.1,14.4-9.5,14.9-8.8
				c0.7,1.2,0.2,1.8-7.3,8.3c-18.9,16.2-33,20.1-43.8,14.3c-3.2-2.1-5.8-3-3.3,1.7c0.3,0.5,2.9,2.5,4.8,3.3
				c11.1,4.8,24.8,0.4,42.2-13.8c3.8-3.1,7.2-6.6,11.6-10.4c14.4-12.4,10.4-18-5.9-11.7c-5.2,2-6.7,0-13.7-2.6
				c-9.5-3.5-12.6-3.8-23.4-3.8c-9.4,0-10.9,0.9-10.9-0.7c0-2,6.2-9.3,13.3-12.5C-1310.4,522.9-1308.5,519-1311.3,518.9z
				 M-1293.4,548.7c1.8,1.7-0.7,2.9-7.5,6.3c-3.8,1.9-7.4,3.5-7.8,3.5c-0.6,1.1-7.3-13.3-5.5-14
				C-1313.5,544.1-1297.7,545.2-1293.4,548.7z M-1318.1,547.6c1.6,3.3,2.9,6.7,3.6,9.8c0.2,1,0.9,2.4-0.7,2.4
				c-1.2,0.2-3.2,0.3-3.9-0.8c-1.6-2.4-3.4-10.6-2.9-12.2C-1320.9,545.2-1318.8,546.3-1318.1,547.6z M-1261.7,572.7
				c-0.6,0-1.6,0.5-3.3,1.5c-26.8,16.5-59.2,25.3-80.2,17.8c-7.1-2.6-8.4-1.6-5.7,3.2c1.8,3.3,5.4,7.2,10.8,8.6
				c17.2,4.4,44.5-2.9,65.5-17.1C-1266.1,580.8-1259.2,572.7-1261.7,572.7z M-1101.4,613c0.1,0,54.2,97.9,58.9,102.4l-389.8,4.8
				l64.1-94C-1367.5,631.4-1209.3,650.5-1101.4,613L-1101.4,613z"/>
			<path id="path4035-6-4-6" fill="#D40000" d="M-1429.8,720.1l61.4-94c93.4,16.2,177,5.4,268.4-12.5l62.8,102L-1429.8,720.1z
				 M-942,365.6l-1.3-55.2l19.3,6.8c-7.1-25.6,9.3-52.7,24.6-54c-49.6-36.2-9.6-76.4-10.4-77.2c-54.1-26.8-27.9-69.7-31.7-73.5
				c-65.6-15.9-41-68.1-45.8-62.7c-37.8,12.1-59.3-19.5-60.4-45.4c-32.6,19.2-83.9-6.4-68.4-36.4c0,0,17.6,8,20.6,6.3
				c26.5-20,24.9,8.1,30.6,14.1c20-3.2,32.1,11.9,37.2,19.3c29.6-0.5,28.2-7.5,29,21.1c22.4,5.3,21.7,17.3,34.9,33.6
				c28.1-0.2,23.5,9.1,17.4,24.7c20.5,15.8,22.4,28.4,25.9,43c22.2,7.6,26.2,10.8,12.1,29.7c20,28.9,10.9,46,13.9,47.5
				c24.6,17.1,12.5,23.7,2.1,30.6c4.1,23.2,7.1,26.6-1.1,50.5c28.2,19.4-4,28.8-5.6,28.4l0.2,19.6L-942,365.6z M-1620.5,232.9
				l-1.7-68.4l239.3,149.1l-29.1,47.4L-1620.5,232.9z M-1304.4,328.3l54-118.1l-22.2-127.5l160.4,0.8
				c18.7,40.7,30.2,75.4,77.5,142.4l-48.6,16l3.1,82.1L-1304.4,328.3z M-1167.7,295.2c-1.7-3.4-2.6-5.7-2.4-7.2c0.6-2,2.1-1.9,4-0.9
				c6.9,3.2,13.7,5.9,18.7-0.4c2.5-3.3,1.7-8-0.5-10.6c-4-7.8-16-1.9-20-1.5c-3.8,0.1-5.3-3-2.3-7.6c1.8-2,2.9-4.2,3.2-6.8
				c1.8-17.9-28.6-11.1-17.7,6.1c4.9,6.4,2.2,10.3-5,6.3c-7.9-4.3-18.6,0-18.1,9.4c0.4,7.1,9.4,11.4,16.9,7c1.7-1,3.1-2.1,4.3-2.7
				c3.5-1.6,6-0.4,4.9,3.6c-3.1,5-6.6,12.1-3.5,16.7c3.2,6.7,13.8,5.9,17.4,1.6C-1165.3,305.4-1164.7,300.6-1167.7,295.2
				L-1167.7,295.2z M-803.7-70l-239.7-149.8c14.4-19.3,22.8-34.8,30.7-50.2l208.1,129L-803.7-70z M-1175.4-115.9l26.3,123.7
				l-165.6,5.1c-9.8-41.5-68.2-134.9-68-133.3l42.4-109.3l219.7-3.9L-1175.4-115.9z M-1238.3-161c4.1-3.9,3.8-9.8-1-16.3
				c-4.6-6.3-2.7-11,4.6-6.7c4,2.6,10.3,3.1,14.6,1.6c5.4-1.9,7.6-6.3,6.7-11.7c-1.1-6.6-8.4-8.3-16.2-5.3c-2.3,0.5-3.6,2.4-5.5,3.3
				c-4.2,1.9-5.9-3.1-2.2-9.7c4.2-7.3-0.4-15.1-8.3-15.6c-8.4-0.6-13.3,9-9.7,14.2c5,7.4,1.6,12.7-5.6,7.8
				c-10.3-7.1-23.4,2.3-17.7,13c2.7,5.2,11.5,6.4,19.2,3c6.5-2.9,8.5,0.3,4.6,7C-1262.7-162.7-1249.2-150.8-1238.3-161L-1238.3-161z
				 M-1480.6-279l-0.7,66.2c-25-14.7-21.3-15-22.3-14.7c7.6,19.8-0.5,44.5-21.3,56.9c38.5,34.9,18.4,60.2,12.5,77.2
				c48.8,27.3,25.1,76.2,25.3,73.7c47.7-0.5,47.4,41.2,49.1,58.6c58.9-4.7,51.8,42.6,59.6,46.5c28.4-13.3,61.8-9.4,71.3,28.8
				c6.1,21.7-15.3,1-24.4,2.1c-32.3,20.8-26.5-10.2-28.4-14.5c-27,3-30.8-9.8-42.8-18.7c-29.1,6.1-26.8-3.5-25.4-21.3
				c-23-4.3-28.2-18.5-37.5-32.3c-31.6,1.5-19.1-21-19-25.4c-3.9-3.4-22.3-20.9-23.6-41.3c-32.6-8.6-12.5-25.3-11.4-31
				c-12.5-15.1-15.9-26.3-12.1-45.6c-29-13-5.2-26-3.3-33.7c-9.8-24.9-3.1-32.5,0.4-46.2c-18.9-21.4-7.8-20.4,5.5-33.8
				c1.7-2.4-3.2-13.2-3.1-19.7L-1480.6-279z M-1318.3-526.8l-53.4-92.1l370.8-6.1c0,0-39.4,56.6-54.6,85
				C-1148.3-553.1-1234.7-544.7-1318.3-526.8z"/>
			<path id="path4039-1-1-4" fill="#E2CF00" d="M-1557.6,661.9c-32.6-6.9-38.8-47.6-8.9-82.1c2.4-2.8,4-7.1,4-7.1
				c-10.8-16.1-15.8-21.8-26.8-37.8c9.3-14.5,20.2-25.7,27.1-38.2c-0.5-2.2-3.7-4.3-7.6-9.8c-22.6-32.1-25.2-44.9-14.3-64.4
				c10.2-18.3,35.3-20.8,50.8-5.1c16.8,17,16.3,32.7-4.6,65c-4.6,7.1-7.9,13.5-7.9,13.5c6.1,11.9,16.4,22.8,26.9,37.7
				c-9.3,11.9-18.8,23.1-27,36.8c0,0,0.9,2.9,2.8,5c34.7,38,32.8,82.4-5.7,86.8C-1550.7,662.4-1555.5,662.2-1557.6,661.9z
				 M-1291.6,164.6c-0.9-1.4-119.4,197.6-119.4,197.6l14,8.7l113.4-184c1.8,1.3,3.5,2.9,3.2,5.1c0,0-93.3,157.9-108.9,183.1
				c-0.4,0.7,24,14.6,24.8,14.6c35.4-18.2,184.4-5.4,283.1-13.1c0.4,0.3-0.9,34.7-0.9,34.7s-23-25.7-27.5-25.8
				c-22.5-0.4-45.9,9.5-62.9,8.7c-10.8,3.5-22.4,43.1-24.7,53c-19.7-2-38.4,18.9-33.5,38c6.8,21.2,17.8,19.4,29.8,19.5
				c-0.7,24.1-42.2,88.3-41.9,119.6c44.9-4.3,93.6-5.9,139.8-20.7c0,0,16.6-50.4,38.1-83.8c7-12.8,10.2-31.8,7.1-43.7
				c-2.1-13.1,3.5-16.5,8.4-25.7c3-5.8,14.3-5.7,15.8-6.2c29.4-9,18.2-47,5.5-53.6c-15.8-8.2-37.7,5.3-46.5-11.8
				c-9.3-18-7-55.7-7-55.7l-222.9,4.8c0,0,61-120.7,59.4-121.6C-1262.8,197.3-1291.4,164.9-1291.6,164.6z M-1438.9,276
				c0.8-12.1-0.5-208.8-187.9-303.5l0.6-25.9c1.1-1.4,170.3,73,202.4,272.8l50.5-82.1l19.2,7.2C-1381.7,187.4-1436,291-1438.9,276z
				 M-1552.9,207c7.3-22.8-5.1-10.6-16.5-11.3c-7.9-4.1-15.7-9.5-23-14.2c53.8-29.7,21.5-27.7-9.8-7c-8.3-4.3-18.8-13.9-19.4-13.1
				c60.6-40.4,37.6-40.8-1.1-11.7c0.9-26.8,0.1-16.7,0.5-25.7c32.8-36.4,2-16.4-0.3-15.9c-8.8-35.6,30.7-28.8,34.7-1.8
				c7,5,20.7,11.2,25.1,33.3c19.1,11.7,17.3,21.7,16.6,36.2c7.5,7.2,26.9,22.3,4.8,36.9L-1552.9,207z M-1626.1,45.1l0.9-19.8
				c2.4-8.1,147.4,91.8,139.3,223.3c1.7-1-16-8.9-21.1-13.3C-1508.6,138.6-1612.6,55.3-1626.1,45.1z M-802.3,142.4
				c-96.3-42.2-188.9-145.8-195.9-282.3l-52.5,91.4l-19.3-7.8c1.8,1.5,41.5-75.2,82.8-128.4c14.7,172.2,83.6,251.2,187,307.7
				L-802.3,142.4z M-1304.1,87.7c-92.8-10-228.9-133.9-191.7-305.6c5.4-17.5,96.3,77.3,96.3,77.3c0.5-4.4,82.4,122.9,80.6,148.1
				c67.7,18.1,198.9-2.3,198.9-2.3c109.7,22.6,226,138.7,187.5,307c0,0-29.4-18.6-54-40.4c-75-70.1-99.4-128.3-126.6-192.6
				C-1207.7,72.2-1296,90.6-1304.1,87.7z M-804.8-63c1.8,8.5,1,26.2,1.3,26.1c-24.2,27.2-26.7,27.8,4,18.6
				c-3.4,25.8-22.3,30.3-33.8,21.8c-4.2-3.2-4.5-20.9-4.5-20.9c-18.8-4.4-25.3-9.9-23-30.1c-21.6-2.2-20.9-12.7-19.5-34.7
				c-19.8-10.7-15.2-28.4-3.7-36.1l9.8,6.5c-3.1,2.8-1.3,20.3,15.7,7c0,0,14,11.2,20.6,15.5c-49.3,32.8-19.2,25.3,11.1,3.8
				c5.8,3.8,13.8,10.1,17.9,12.8C-848.7-43-861.6-18.5-804.8-63z M-800.6,45.8l-1.3,23.1c-99.3-58.5-127.2-137.4-135.9-221.8
				c0,0,13.4,9.5,19.5,13.4C-907.7-30.6-806.7,41.3-800.6,45.8L-800.6,45.8z M-1343.9-231.3l235.8-2.4l-60.5,120.6l33.6,38.4
				c0,0,79.8-129,119.9-196.5l-14.4-8.3L-1144-92.8l-4.8-5.1l112.8-186.5c-7-4.4-20.3-11.5-20.3-11.5s-200.7,6.5-288,7.6
				c2.6-12.1,2.9-33.5,2.9-33.5c13.2,18.3,27.2,34.5,56.9,15.9c0,0,35.5,0.6,36.8-1.1c4.2-7.1,11.6-29.3,20.1-54.4
				c34.2-2.9,30.5-19.4,34.3-24.8c-3.4-48.6-30.3-22-28.2-39.7c7.2-31.6,45.4-103.7,40.3-109.8c-10.3-6.6-110.8,14.9-140.1,19
				c-2.7-1-16.3,46.1-31.1,66.3c-16.1,22.1-21.6,45.5-12.8,67.4c-8.3,24.4-25,22.2-38.3,29.2c-14.9,16.7-10.3,41.8,4.3,51.3
				c10.2,6.6,25.7,6,41.2-7.1L-1343.9-231.3z M-878.2-408.2l-28.2-36.6l26.1-39.4c-10.8-16.6-28.7-41.9-25.9-62.2
				c6.1-40.4,60.5-35.4,65.9,3.1c2.9,17.8-9.8,40-22.7,58.8c9,15.8,12.8,18.3,25.8,36.4c-7.3,13.4-25.3,39.8-25.3,39.8
				c11.8,19.1,28.1,40.1,27.2,59.7c-0.9,16.9-19,34.2-36.2,30.9C-924.8-328-896-385.5-878.2-408.2z"/>
			<g id="g4049-4-4-2">
				<path id="path4033-2-3-3" d="M-1380.7-623c15.1,27.2,57.8,100.6,57.8,100.6c98.4-22.1,181.4-28.7,268.9-11l60.8-95.6
					L-1380.7-623z M-1367.7-617.6l17.8-0.3l36.2,71.5l60.2-13.1l-11.3-59.7l17.1-0.2l9.6,57.4l88.7-3.7l10.6-55.7l16.4-0.1
					l-10.8,56.6l70.5,8.3l33.3-66.7l23.6-0.4l-50.9,82.5c-93.3-16.6-185.6-9-262.7,11.3L-1367.7-617.6z M-1334-618.2l52.1-0.9
					l13.3,48.4c-6.3,3.4-30.2,9.6-38.2,8.9C-1316.6-578.3-1326.9-602.3-1334-618.2z M-1233.5-619.8l79.3-1.3l-6.1,41.5l-66.5,3.2
					L-1233.5-619.8z M-1107.8-621.9l61.1-1l-23.3,50.7l-46.2-5.5L-1107.8-621.9z M-874.3-575.4c-3.6,0-6.9,0.4-9.9,1.1
					c-15.8,3.6-23.9,15.9-23.7,35.8c0.1,9.1,7.1,25.1,17.5,40.2c5.1,7.3,8.5,14.1,8.5,14.1l-25.9,39.5l28.9,36.5c0,0-4.3,5.2-6.9,9
					c-12.7,18.6-18.4,35.8-17.3,49.9c1.2,15.2,10.2,26.6,26.9,31.9c9.2,2.9,22.1-1,30.7-9.1c6.9-6.5,10.4-14.9,10.3-24.6
					c0-13.9-7-30.7-20.7-48.9c-3.7-4.9-5.6-8.8-5.6-8.8s18.3-27,25.2-39.4l-26.3-36.4c19.9-31,23.9-37.8,24.1-56.7
					C-839.5-559.9-853.3-575.7-874.3-575.4z M-876.8-573.1c0.9,0,1.8,0,2.7,0c23.3,1.4,35.9,18.5,33.2,40.8
					c-2.8,21.2-21.6,41.3-24.5,48.2c9.4,14.8,27.1,35.7,27.1,35.7c-7.1,13.5-25.7,39.7-25.7,39.7s1.1,2.1,2.4,3.8
					c20.3,27.7,25.9,40.9,24.9,57.8c-0.9,13.3-11.1,25.3-24.2,27.9c-20.6,4.2-37.9-10.3-40.3-30.1c-1.6-17.3,9.4-34.4,17.8-47.7
					c3.6-5.6,6.7-10.9,6.7-10.9l-28.8-36.6c8.4-13.8,19-27.3,26.8-38.9c0,0-4.3-6.7-8.3-12.8c-15.9-24.2-20.4-36.6-18.2-50.2
					C-902.7-563.1-890-572.7-876.8-573.1z M-874.5-560.6c-8.6,0.4-16.7,6.9-19.8,16.1c-4.4,17.3,14.1,43,22.5,49.9
					c15.2-18,24.7-38.1,18.7-51.9C-857-555-865.9-561-874.5-560.6z M-872.2-555.1c15.6,0.1,21.7,18.5,10.1,39.7
					c-4,7.3-10,14.9-10,14.9s-5.8-7-9.4-12.3c-14.3-21.6-11-38.7,6.1-42C-874.4-555-873.3-555.1-872.2-555.1z M-1182.4-540.3
					c-40.8,0.9-95.3,8.6-143,20.3c-3.7,25.8-16.2,51.8-30,72.5c-13.2,22.4-17.8,41.7-13,54.9c4.4,12.3-6.8,31-19.5,32.3
					c-15.8,1.7-25.7,12.9-25.2,28.6c0,25.1,17.6,40.3,41,31.3c2.4-0.3,4,1.2,4,1.2l1,143.9c-13.2,2.3-22,5.3-33.2,11.5
					c-21.3-23.5-39.1-40.1-55.3-51.7c-1-32-0.2-64.2-2.2-96.2c-23.5,9.5-48.5,24.9-69,39.1c-6.9,4.8-7.5,7.4-4.7,19.2
					c1.6,6.6,1.2,7.3-4.2,8.7c-11.2,2.9-14.4,20.9-4.8,26.8c4.5,2.8,4.5,2.9,1.8,9.4c-4.3,10.1-3.8,29.2,0.9,37.2
					c2.7,4.5,2.6,6-0.9,8.3c-11.8,8-10.7,24.6,1.8,27.5c3.2,0.7,4.1,2.1,3.1,4.9c-3.7,10.2,0.1,25.4,9.2,36.9c4.8,6,4.7,5.9,1.7,8.7
					c-9.9,9.3-4.2,25.5,9.5,27c4.7,0.5,4.7,0.5,5.3,4.1c1.7,10.3,2.5,13.2,4.9,18c3,6.1,6.5,10.2,13.1,15.1c5.4,4,5.4,4.1,2.6,10.2
					c-5,11.3,3.5,22.4,16.7,21.7c6.8-0.3,6.8-0.4,7.3,2c2.6,11.7,16.8,25.3,28.3,27c5.9,0.9,6.9,2.3,4.9,7.3
					c-3.1,8.1-0.9,13.2,7.3,17.3c5.5,2.7,7.1,2.8,13,0.6c6.7-2.4,6.8-2.4,12.7,5.2c8.3,10.7,13.7,13.3,27.2,13.2
					c8.9-0.1,9.2,0.1,9.4,6.4c0.4,14.9,16.2,20.8,26.2,9.8c3.6-4,3.6-3.9,6.9-1.6c14.4,10.2,27.1,12.7,25.8,2.9
					c-3.1-22.8-19.9-36.5-19.9-36.5l20.8,5.1c1.3,24.1,2.6,53.2,8,73.3l-89.7,148.3c0,0-5.6-3.3-11.6-7.3
					c-8.8-5.8-19.5-12.7-26.1-16.6c-3.4-2-7.7-4.5-11-7.3c-3.3-2.6,1.9-6.2,2.9-9.1c20.6-38.2,53-84.3,76.5-129l-23.5-8.7
					c-17.4,28.5-30.2,51.4-46.5,77.6C-1440.7,89.8-1527.5-15.7-1631-59l0.9,31.9c108.8,53.4,187.7,166.1,187.9,300.5
					c-0.4,0.5-9.1-4.5-20.9-12.1c-6.2-4-18.7-11.9-20.2-12.6c2.5-148.9-146.5-234.5-146.7-230.3c0,0-0.6,19.2-0.9,28.2
					c63.6,41.1,114.3,116.9,120.4,185.1c0.1,0.6-29.8-18-29.8-18c17.5-9.1,12.2-31.7-0.5-37.6c-4-1.7-4.2-2.6-2.4-8
					c3.9-11.1-3.8-27.5-14.1-30.1c-4.5-1.1-5.3-2.3-5.6-8.6c-0.6-11.5-7.1-19-18.6-21.3c-3.2-0.6-3.2-0.7-3.5-4.6
					c-1.3-22.3-23.3-31-39.5-15.7c-1.8,1.7-3.7,5-3.7,5l0.3,24.2c5.5-3.2,13.9-13.8,17.4-13.5c3.9,0.4,2,3-6.5,10.6
					c-5.5,4.9-10.9,10.2-10.9,10.2l0.9,31.9c9.2-6.2,18.5-13.2,27.1-19.5c7.5-5.4,11.3-7.2,12.2-5.7c1.1,1.7-0.6,3.9-4.8,6.6
					c-11.4,7.8-24.6,17-34.1,24.8l0.3,22l1.9,2.7l0.9,19.2l-1.7,0.5l0.4,24.2l229.4,141.3l112.5-184.1l1.9,1.9l-112.5,183.4
					c0,0,4.8,4,9.4,6.3c4.6,2.5,10.4,5.8,15.4,9c2.4,3.7,6.5,7,10.8,6.5c3.9-4.4,21.2-9.3,22.8-11.3c64.6-2,250.1-3.8,250.1-3.8
					l1.5,29.7c-8.8-28.6-35.8-34.1-56.7-20.9l-34.7,0.6c-0.3,0-19.9,37.3-22.6,56.6c-14.6-1.7-33.8,12.8-34.6,27.3
					c-2,20.6,11.7,35.3,29.3,32.1c0.3,0.1-2.4,20.4-12.2,36.4c-12.8,28.1-19.3,43.8-27,67.7c-5.2,15-3.3,17.7-2.4,18
					c51.8-1.6,99.4-7.4,148.2-24.1c0,0-1-3.5-1.4-5.5c-1.9-7.9,4.5-24.3,22.9-58.3c14.2-26.2,18.2-36.2,19.5-48.5
					c0.6-6.2,0.5-7.8-1.9-19.4c-0.1-1.1-1-2.6-0.8-3.8c1.4-7.8,13-21.7,13.3-21.4c0,0,4.3-0.9,6-1.1c26.7-2.3,34.4-38.9,11.6-54.9
					c-11.1-6.6-17.6-7-29.2-3.7l-2.5-141.2l16.3,0.3l17.8-9.1c29.1,24.1,48.3,48.9,79.6,67.2l-0.5,1.3l-23.3-15.4l1.6,92.5
					c26.4-14.3,51-27.5,74.6-47.3l-4.9-4.1l0-13.2c22.5,1.4,24.2-27.3,5.7-30.4c0,0,0.4-2.3,2.1-6c5.5-11.7,6-22.7,1.7-34.7
					c-2.6-7.3-2.6-9.2,0.4-9.2c13.7-0.1,12-24.4-2-29.4c-4.8-1.8-4.5-0.2-3.7-15.3c0.5-11.3-2.3-18.9-10.8-28.7c-3.2-3.7-3-5.5,1-8
					c11.5-7.3,2.8-27.7-11.6-26.9c-5.6,0.3-5.6,0.3-6.2-5.3c-1.5-14.7-10-28.6-20.8-34.3c-3.4-1.8-3.9-3.2-2-5.8
					c9-12.4,0.1-29.1-12.7-23.9c-2.5,1-5.1,2-5.8,2.2c-1,0.3-1.9-1.1-3.9-6.6c-5.6-15.1-10.5-19.7-27.7-26.6
					c-3.4-1.4-3.6-2.4-2.2-9.3c2.4-12-14.2-22.8-22.9-14.9c-3.6,3.2-3.7,3.2-7.8-2c-8.3-9.2-21.6-15.5-33.3-16.5
					c-5.6-0.4-6.5-0.8-6-3c2.9-14.7-11.5-24-23.2-15c-5.6,4.3-7.1,4.5-13,1.3c-12.4-6.7-17.7-6.8-18.9-0.6
					c-0.3,5.2,0.9,11.3,2.3,15.1c3.2,10.2,7.1,14,15.6,21c0,0-14.1-3.7-17.6-4.3c0.3-0.4-1.8-48.7-11.5-75.9l87.4-144.3l52,33
					l-80,131.4l24.1,9.3c0,0,31.1-53.6,47.4-79.9c13.1,129,114.9,240.7,205.9,272.8c-0.3,0.2,0-18.6,0.2-27.7
					c-96.2-40.5-188.9-156.4-185.5-297.5l38.8,23.9c13,112.8,63.3,178.2,146.3,232.9l-0.6-34.6C-854.3,3.4-902.1-50.5-916-137.7
					c0,0,19.4,11.8,28,17.4c0,0-2.4,1.4-3.6,2.5c-10.1,8.7-6.7,26.2,6.9,35.8c2.2,1.6,2.2,1.6,0.3,7.1c-3.9,11,2.6,24.1,13.3,26.7
					c6.2,1.5,6.1,1.4,6.3,8.4c0.4,13.6,6,19.8,20.6,22.8c2,0.4,2.1,0.6,2.1,6.7c0.2,15.1,14.8,24.9,27.3,18.4
					c3.9-2,16.1-12.6,16.1-12.6l-0.4-24.2c0,0-5.5,4.7-9.5,8.5c-7,6.7-9.2,7.6-9.3,3.6c0-2.9,3.2-6.8,9.9-12
					c3.5-2.7,8.8-8.4,8.8-8.4l-0.5-28.2c0,0-3.3-5-3.2-11c0.1-3.3,0.9-8.3,0.9-8.3l3.4,0l-0.6-32.7l-4.2-3.2l-0.2-21.7l-226.8-141.5
					L-1144-95.5l-3-3.4l114-186.7l-31.4-19.4l-18.6,9.6c0,0-129.9,0.1-256.6,3.8c0,0-0.4-3.5-0.5-13.4c-0.1-12.4,0.4-14.2,2.8-9
					c5.3,11.7,18.2,18.5,32.9,17.6c8.3-0.5,9.5-0.9,18.7-6c3.4-1.9,4-2,20.3-2.1c17.4-0.2,20.5-0.9,20.5-4.5
					c5.8-13.9,11.5-30,14.8-42.1c1.6-5.9,2.3-8.5,3.6-9.7c1-0.9,1.9-0.7,4.4-0.9c11.1-0.9,14.2-1.7,22.1-9.6
					c15.8-16.4,6.1-49.2-17.3-48.9c-6.2,0.1-2.2-16.4,10.4-43.3c13-27.8,14.9-32.1,21.5-50.7c4.4-12.2,6.4-20.9,6.9-26.1
					C-1179.8-540.4-1181.1-540.4-1182.4-540.3z M-1183.5-532.4c3.3,2.7-4.5,22.7-18.5,53.1c-11.6,25.1-16.7,37.6-19.2,46.7
					c-0.7,2.6-1.7,6.4-2.2,8.4c-0.7,2.8-1.8,4.2-4.5,6.2c-1.9,1.4-4.6,3.5-6,4.7c-3.9,3.2-4.8,2.2-4-4.1
					c1.6-11.8,6.1-24.6,16.5-46.9c8.3-17.7,16.3-36.8,22.5-56.1c1.4-4.5,2-9.1,4.4-10.8C-1191-533.3-1187.3-533-1183.5-532.4z
					 M-1201-530.9c2.2,1.5-7.8,29-25.5,67.1c-22,47.6-22.7,80.8-2,88.5c16.3,6.1,32.3-12,22.1-24.8c-4.9-6.2-15.2-6.5-18.7,0
					c-1.9,3.6,0.9,7.6,4.3,2.6c4.9-7.3,15.2,0.9,12.9,9.4c-1.6,5.9-9.7,10.7-14.8,9.8c-22.5-4.1-18.8-35.8,4.4-37.9
					c22.2-2,32.8,27.6,16.9,45c-5,5.6-11,8.5-21.4,8.6c-14.5,0.2-28.2-11.5-27-22.6c1.7-10.2,1.9-18.4-1.7-26.3
					c-1.1-2.5-2.5-5.1-2.5-8.3c0.1-9,7.2-23,23.1-57.8c5.7-12.4,12.6-34,16-47.5c1.2-4,0.6-5.1,2-5.6
					C-1209.2-531.5-1204-532.7-1201-530.9z M-1220.1-530.1c3.4,0.1-4,25.1-13.5,46.4c-7.2,16.3-17,37.3-24.3,56.7
					c-2.4,4.1-4,4.5-9,1.9c-5.5-2.8-4-7.5,8.5-33.4c9.4-19.6,18.4-41.8,24.6-64.1c0.5-2.7,1.4-5,3.6-6.3
					C-1226.7-530.5-1223.5-530.2-1220.1-530.1z M-1238.2-527c1.8,2.4-9.4,36.1-27.1,74.1c-3.8,8.1-6.3,15.5-10.1,23.7
					c-1.9,1.9-9.1,3-12.7,3.8c-3.8-0.4-0.3-7.5,10-29.3c8.4-17.8,10.8-22.8,15.2-33.6c3.2-7.9,7.8-21.5,12.2-34.2
					c0.3-1,0.7-3.3,1.6-3.8C-1245.6-527.8-1241.5-528.4-1238.2-527z M-1256-524.6c0.3,0.8-0.3,2.5-0.6,3.8
					c-2.7,13.5-9,26.2-13.6,39.2c-0.5,1.8-5.6,12.8-11.3,24.6c-5.7,11.7-10.9,22.9-11.5,24.9c-0.7,2-2.5,7.2-4.1,11.6
					c-10.1,22.7,1.5,40.3,15.4,41.4c21.8,1.4,23.3-29.1,7.9-31.7c-5.8-0.9-12.1,2.4-12,9c-0.4,3.5,4,7.5,3.8,2.5
					c-0.4-9.1,12.3-8.9,14-1.2c3.3,15-13.7,22.6-24,11c-4.3-4.8-4.3-10.3-3.6-15.3c1.9-13.5,17.2-23.5,31.8-13.6
					c19.9,13.6,13.6,44.4-11.7,49.8c-8.6,2.4-19.6-0.3-26.6-7.2c-4.4-4.4-7.4-11-8.6-19.2c-0.7-4.6-1-9.9-0.4-15
					c1.8-15.8,12.9-39,22.7-58.7c7.5-16.3,13.3-37.8,20.1-55.1C-1266.4-525.4-1255.7-526.9-1256-524.6z M-1275.1-522.2
					c1.2,0.3-4.5,19.1-12.6,39.4c-9,20.6-20.7,44.2-27.2,64.5c-2.1,5-3.7,4.9-9.9-0.8c-3.3-3-1.5-7.5,9.4-30.9
					c16.9-36,23.1-51.3,25.6-59.9c1.2-4,2.1-8.9,4.7-10.5C-1281.7-521.9-1278.5-523.1-1275.1-522.2z M-1292.5-517.4
					c-1.8,6-7.5,23.9-17.5,45.2c-6.3,13.4-12.4,28.3-18.6,42.1c-3.4,8.5-3.5,8.5-9.6,9.9c-10.3,2.3-10.3,2.2-1.5-16.4
					c2.6-5.5,7.6-15.7,11.2-22.6c6.6-12.7,16.6-37.3,20.2-49.5c1-3.3,2.3-6.4,3.9-8.1C-1303.3-517.3-1295.3-519.8-1292.5-517.4z
					 M-1315-514.8c1.8-0.1,3.5,0.2,4.3,1.2c0.5,4.2-10.3,31.2-17.1,43.7c-2.1,3.8-4.1,8.8-6.4,13.3c-8.6,14.3-18.8,41.5-21.4,52.8
					c-4.1,17.9,16.6,31.1,27,17.9c6.6-8-0.6-22-10.3-17.9c-3.4,1.4-2,2.9,2.7,3.2c7.6,0.5,8.4,12.3,0.4,15
					c-8.9,2.9-15.7-4.8-15.8-12.8c-0.2-16.4,17.6-22.7,29-13.9c11.3,9.1,13.5,31.2-3.3,40.1c-16.4,8.6-36.9-2.4-41.3-22.1
					c-3.4-15.1-0.2-29,14-52.6c8.1-13.6,20.8-37,27.1-57.4c1.2-3.5,2.4-6.3,3.5-7.8C-1321.7-513.3-1318.1-514.6-1315-514.8z
					 M-871.6-474.5l-21.7,28.6c6.5,9.1,22.1,27.1,22.1,27.1l20.6-27.5L-871.6-474.5z M-871.2-458.7l9.4,11.7l-10.3,12.6l-10-11.4
					L-871.2-458.7z M-869.3-397.4c0,0-26.3,29.8-19.8,51.5c5.8,19.3,35.1,23.6,41.7-5c0.5-2.3,0-5.3-0.4-9.1
					C-848.5-371.6-869.3-397.4-869.3-397.4z M-869.2-391.6c0,0,7.9,11,13.5,20.8c6.2,9.3,8.3,35.6-13.3,35.1
					c-11.7,1.4-23.1-13.8-14.1-32.8C-880.8-374.3-869.2-391.6-869.2-391.6z M-1311.6-379.6c1.5-0.3,3,2.9,4,5.3
					c1.3,3.2-2.2,12.4-5.9,17c-0.7,0.8-5.6,1.3-12.9,5.1c-0.1-3.4,1.9-11,3.2-14.3c4.9-5,9-11,11-12.7
					C-1312-379.4-1311.8-379.6-1311.6-379.6z M-1365-377.1c3.4,3.7,6.6,6.9,6.6,9.2c-0.1,3.4-4,7.6-7,10.6
					c-3.7,3.8-11.3,1.7-11.3-3.1C-1376.8-362.2-1366.3-377-1365-377.1z M-1251.5-374.1c3.2,1.7,6.5,7.4,7,10
					c-4.3,25.2-21,56.2-20.4,55c0,0-10.6,2.1-15.1-0.1c11.4-16.3,18.8-37,23.8-53.9C-1254-370.4-1253.1-374-1251.5-374.1z
					 M-1261.2-370.4c1.8-0.1,2.5,1.3,1.1,5.2c-6.4,27.9-21.3,57.3-33.2,62.9c-15.7,7.2-31.6,1.7-38.6-10.1
					c-7.5-12.8-6.6-33.2,17.8-38.1c14.3-1.7,29.3,9.4,21.9,27.7c-8.3,13.7-31.4,6.5-24.9-11c5-6.5,15.7-1.1,12.4,6.2
					c-1.7,3.7,0,5.9,2.6,3.3c8.2-8.3-5.8-22-14.9-14.9c-14.9,11.7,4.2,36.4,21.6,25.4c5.3-3.4,14.7-21.9,18.1-35.4
					c1.5-5.8,2.8-11.3,6.5-14.9C-1267.5-367.5-1263.5-370.2-1261.2-370.4z M-1301.3-368.6c0.9,0,1.9,0.4,3.3,1.1
					c1.8,0.8,3.9,2.4,3.7,4.4c-0.2,2.4-1.5,7.5-4.2,10.1c-1.6-0.5-6.2-2.3-9.3-3c-1.9-0.5,0.6-4.7,1.7-7c1.8-3.8,2.9-5.3,4.4-5.5
					C-1301.6-368.6-1301.4-368.6-1301.3-368.6z M-1351.2-366.9c2.3-0.1,5.9,2.4,8.3,2.7c0.5,3.4-3.8,10.9-10.8,19.7
					c-5.7,7.2-5.7,7.3-9.7-0.5c-2.6-5.1-2.7-4.9,4.4-14.1c3.8-4.9,5.6-7.1,7.3-7.8C-1351.5-366.8-1351.3-366.9-1351.2-366.9z
					 M-1328.5-364.7c0.1,1.8-0.7,5.9-1.5,8.3c-7.7,24.3-26.2,48.6-41.8,54.8c-20.3,7-39.1-3.4-40-28.2c0-29.2,34.6-37.8,45.5-11.4
					c4.9,11.9-7.7,30.2-18.9,27.4c-11.3-2.9-16.3-20.3-7.1-24.8c6-2.9,12.4,1.7,11.2,8.2c-0.4,2.2-0.3,2.6,1,2.3
					c5.8-1.2,2.5-12.7-4.4-15.5c-13-5.3-22.5,12.3-13.5,25.1c10.7,15.3,27,12.1,36.2-7.2c1.6-3.3,4.5-8,6.6-10.5
					c5.6-6.7,7.4-9.3,12.3-18.2c2.7-4.9,4.1-7.9,5.5-9.5C-1335-364.2-1333.4-363.6-1328.5-364.7z M-1282.7-364.2
					c2.4,0,4.4,1.5,4.4,4.9c0,2.8-3.9,14.9-5.7,17.7c-0.7,1.1-2.3,5-2.6,4.1c-2.5-7.9-6.8-10.3-7.5-12.4c-0.8-2.4,1.4-4.8,2.3-7
					C-1289.9-361.5-1285.9-364.2-1282.7-364.2z M-1239.6-361.1c3-0.1,7.2,1.2,8.1,3.4c2.8,4.7-14.8,49.1-15.4,49.2l-13.6-0.4
					c7.9-17.7,14.8-35.2,19.8-52.1C-1240.4-361.1-1240-361.1-1239.6-361.1z M-1055.7-294.4l17.5,10L-1149.4-101l-16.8-12.4
					L-1055.7-294.4z M-1340.5-285.9c106.7-1.4,253.5-4,253.5-4l-6,11.9c0,0-160.5,1.1-247.4,2.7L-1340.5-285.9z M-1484.3-276.1
					l0.8,59.6c-11.2-9.5-44.9-30.2-45.1-29.7C-1528.7-246.1-1500.2-265.8-1484.3-276.1z M-1027.6-277.7l10.8,6.6l-116.8,193l-6.9-13
					L-1027.6-277.7z M-1340.2-269.9l16.7-0.3l0.3,18.9l-16.7,0.3L-1340.2-269.9z M-1301.9-270.6l20.3-0.3l0.3,18.9l-20.3,0.3
					L-1301.9-270.6z M-1257.7-271.1l20.8-0.3l0.3,18.9l-20.8,0.3L-1257.7-271.1z M-1214.2-271.7l21.1-0.3l0.3,18.9l-21.1,0.3
					L-1214.2-271.7z M-1170.4-272.3l20.8-0.3l0.3,18.9l-20.8,0.3L-1170.4-272.3z M-1126.6-272.7l21.3-0.4l0.2,13.3l-3.1,5.6l-18,0.3
					L-1126.6-272.7z M-1011.8-268.4l205.7,128.3l0.2,18.2l-214.1-133.4L-1011.8-268.4z M-1024.9-252.8l1.8,1.2l-8.4,13.3l-1.8-1
					L-1024.9-252.8z M-1339.2-245.6l228.4-3.8l-6.7,11.7l-221.6,3.3L-1339.2-245.6z M-1526.6-236.6c1.5-0.1,4.6,1.2,9.3,3.7
					c11.3,6.1,18.6,19.3,13.9,24.2c-4.2,4.3-14.5-4.6-21-17.6C-1528-233.2-1528.9-236.5-1526.6-236.6z M-1122.3-231.9l-71.7,119
					c-17-22.6-36-42-76.6-27.9c-21.5-16.1-44.1-18.3-67.7-3.9l-1.1-83.2L-1122.3-231.9z M-1501.6-225.6l5.8,4.9
					c-1.6,3.3-2.3,8-3.4,12.2C-1499.4-214.3-1499.9-220-1501.6-225.6z M-1034.5-232.1l229.5,145.6l0.2,13.8l-237.5-147.5
					L-1034.5-232.1z M-1531.7-220.5c2.9-0.1,5.8,1.1,8,3.7c3.5,4.1,2.2,11.7-2.6,15c-9.5,6.6-21.2-5.7-13.7-14.4
					C-1537.6-218.9-1534.6-220.4-1531.7-220.5z M-1494.1-219.3l12.6,9.7c-19.5,123.1,44,246,177.1,280.9l1.8,15.7
					c0.3,0.7-56.5-15.9-81.5-33.9c-34.1-22.3-63.2-53.9-83.4-91c-13.8-23.9-21.6-50.3-26.7-71.7
					C-1500.6-146.3-1501-182.8-1494.1-219.3z M-1507.8-202.4c4.8,0.1,5.3,3.5,1.6,10.2c-4.8,8.5-12,14.5-23.9,19.8
					c-6.5,2.9-8.3,1.7-7.6-5.4c1-10.6,8.2-18.4,20.8-22.7C-1513.9-201.4-1510.8-202.4-1507.8-202.4z M-1471.3-201.7
					c2,1.6,2.6,2.1,5,4.1c-4,1.5-6.9,5.4-6.8,9.9c0.1,5.7,4.8,10.3,10.5,10.2c5.1-0.1,9.3-3.9,10-8.8c1.9,1.6,3.6,3,5,4.2
					c-2.3,6.1-8.1,10.4-15,10.5c-9,0.1-16.4-7-16.5-16C-1479.2-193.6-1476.1-198.8-1471.3-201.7L-1471.3-201.7z M-1462.9-193.7
					c0.6,0,1.1,0.1,1.6,0.2c1.3,1.1,2.4,2,3.7,3c0.4,0.8,0.6,1.6,0.6,2.5c0.1,3.2-2.5,5.8-5.7,5.9c-3.2,0.1-5.8-2.5-5.9-5.7
					C-1468.7-191-1466.1-193.7-1462.9-193.7z M-1501.9-189.3c-1.1,15.9-0.4,32.4,0.4,49c-3.3-13.1-10.3-22.8-21.7-29.3
					C-1515.5-175.2-1507.4-182-1501.9-189.3L-1501.9-189.3z M-1442.1-177.9l11.2,9.3C-1438.2-38.5-1323.5,9-1320.5,6.7l5,14.6
					C-1394.5-4.1-1450.2-84.5-1442.1-177.9z M-802.7,123.1l-0.3,16.4c-89.8-33.1-193.6-159.2-194.3-281.6
					c-22.3,35.5-34.8,59.1-54,91.1l-15.8-7.2c25.1-38.8,48.9-80.2,74.1-118.3c2.9-4.3,5.2-6.3,5.5,3
					C-986.8-131.4-970.8,41.6-802.7,123.1z M-1533.1-166.2c2.9-0.2,7,1.1,12.2,4.5c8.3,5.3,17.7,22.1,14.6,25.9
					c-2.8,3.4-15-0.4-21.1-6.7C-1539.5-154.9-1540.4-165.6-1533.1-166.2z M-1463.5-165.7c9-0.1,16.4,7,16.5,16c0.1,9-7,16.4-16,16.5
					s-16.4-7-16.5-16C-1479.7-158.1-1472.5-165.5-1463.5-165.7z M-1427.1-164.7l10.8,12.3c3.9,109,90.5,141.2,89.7,141.5l2.8,11.7
					C-1328.5,1.5-1431-43.1-1427.1-164.7z M-1463.4-159.8c-5.7,0.1-10.3,4.8-10.2,10.5c0.1,5.7,4.8,10.3,10.5,10.2
					c5.7-0.1,10.3-4.8,10.2-10.5C-1453-155.3-1457.7-159.9-1463.4-159.8z M-1463.3-155.2c3.2-0.1,5.8,2.5,5.9,5.7
					c0.1,3.2-2.5,5.8-5.7,5.9c-3.2,0.1-5.8-2.5-5.9-5.7C-1469.1-152.5-1466.5-155.2-1463.3-155.2z M-1408.2-146.3
					c1.3,0,7.6,8.8,7.6,8.8s-6.7,2.5-9.7-0.4C-1413.2-140.7-1411.7-146.2-1408.2-146.3z M-936.9-150l16.1,10.6
					C-912.1-65.9-868.8,0.5-804.5,46l-0.1,18.2C-882.9,13.2-927-57.2-936.9-150z M-1534.4-138.9c0.3,0,0.5,0,0.8,0
					c9.8,0,14.1,14.9,3.8,19.4c-6.5,2.8-13.7-1-14.5-7.6c-0.6-4.7,2.8-9.8,7.6-11.3C-1535.9-138.7-1535.1-138.8-1534.4-138.9z
					 M-1401.1-131.3c2.6,0,5.4,1.4,8,4.3c7.1,7.8,7.1,10.1-0.2,13.2c-10.3,4.4-19-1.3-15.7-10.3
					C-1407.3-128.8-1404.4-131.2-1401.1-131.3z M-1507.4-129.1c0.8,0,1.6,0.1,2.4,0.3c7.7,2.9-8.4,33.5-19.3,36.8
					c-6.9,2.1-8.4-0.6-6.3-11.3C-1528.3-115.2-1515.5-128.8-1507.4-129.1z M-1458.6-129.2c9-0.1,16.4,7,16.5,16s-7,16.4-16,16.5
					s-16.4-7-16.5-16S-1467.5-129.1-1458.6-129.2z M-1458.5-123.4c-5.7,0.1-10.3,4.8-10.2,10.5c0.1,5.7,4.8,10.3,10.5,10.2
					c5.7-0.1,10.3-4.8,10.2-10.5C-1448-118.9-1452.7-123.4-1458.5-123.4z M-1499.1-121.8c1.7,15,4.4,28.9,11.4,47.3
					c-6.4-9.9-15.5-14.7-24.1-20.3C-1506-103.8-1499.2-112.9-1499.1-121.8z M-1458.4-118.8c3.2-0.1,5.8,2.5,5.9,5.7
					c0.1,3.2-2.5,5.8-5.7,5.9c-3.2,0.1-5.8-2.5-5.9-5.7C-1464.1-116.1-1461.6-118.7-1458.4-118.8z M-1366.3-118.6
					c17-0.6,29.2,13.1,28.7,26.5c0.8,15.5,1.5,25.5,0.5,44.8l-14.2-25c-0.3-7.1,0.8-12.6,0.1-19.7c-1.9-19.1-20.6-16.1-21.4-14.2
					l-6.1-9.5C-1374.3-117.5-1370.2-118.4-1366.3-118.6z M-1306.5-117.6c15.9-0.3,25.3,8.5,26,24.4c1.4,30.5,1,100.2,1,100.2
					l-34.4,0.6l-19.5-46.2c0,0-0.8-4.5-0.7-7.7c0.9-14.9-0.1-31.5,0.2-45C-1332.2-105.7-1320.7-117.4-1306.5-117.6z M-1386-111.5
					c2.2-0.1,4.3,0.6,5.9,2.1c8.1,7.9,8.2,13.2,0.1,17c-10.6,5-16.2,4.2-19.9-2.9C-1403.6-102.2-1393.9-111.2-1386-111.5z
					 M-884.5-117.6l8.8,5.5c0,0-1.8,2.9-2.8,4.6c-4.8,8.6,3.7,13.5,15.3,8.7c2.1-0.8,3.9-2,3.9-2l7.3,4.8c0,0-5.1,2.9-10.8,5.8
					c-14.4,7.4-24.9,4.5-28.7-7.8c-1.5-4.9-0.2-11,2.5-14.6C-887.6-114.5-884.5-117.6-884.5-117.6z M-1253.4-110.4
					c13.3-0.7,26.4,9.5,29.7,23.4c1.4,6.5,1.2,93.1,1.2,93.1l-52.8,0.8l-0.6-90.8c-0.4-5.7-0.2-11.4,2.8-15.6
					C-1267.4-106.7-1260.4-110.1-1253.4-110.4z M-1308.2-105.6c-10.7,0.7-16.4,18-5.3,26c4.6,3.3,4.7,4,2.5,15.5
					c-2.6,13.2,0.6,31.1,7.3,41.1c5.2,8.3,4.1,4,1.4-3.4c-3.5-14-2.1-24.3,5.7-40.7c7-13.8,13.6-35-9.4-38.5
					C-1306.8-105.6-1307.5-105.6-1308.2-105.6z M-869.8-108.9l4.8,3.1c0,0-0.7,0.6-1.7,1.6c-1.9,1.9-5.7,2.2-6.9,0.8
					C-875.5-105.6-869.8-108.9-869.8-108.9z M-1250.2-95.9c-11.5-0.2-18.7,21.2-3.9,26.1c3.4,2.1,4,4.9,2,8.9
					c-2.7,5.4-5.3,18.1-4.7,23.4c0.7,7.6,2.9,17.5,4.4,20.9c4,9.4,3.2,5.7,2-5.3c-0.6-12.3,1.7-21.2,8.7-33
					c8.3-14.2,19.5-37.3-7.3-41C-1249.5-95.8-1249.8-95.9-1250.2-95.9z M-1447.5-92.5c9-0.1,16.4,7,16.5,16s-7,16.4-16,16.5
					s-16.4-7-16.5-16S-1456.5-92.4-1447.5-92.5z M-1372-92.1c2.8-0.1,4.9,1.8,7.6,5.5c7.2,10.4,6.4,12.5-7,20.2
					c-14.2,8.1-24.1-11.6-10.6-21c4.1-2.8,7-4.4,9.4-4.7C-1372.4-92.1-1372.2-92.1-1372-92.1L-1372-92.1z M-1521-88.9
					c15.1-0.1,39.1,21.1,27.7,24.4c-1.6,0.5-3.7,0.8-4.6,0.8C-1516.9-64.5-1539.1-88.8-1521-88.9z M-1447.4-86.6
					c-5.7,0.1-10.3,4.8-10.2,10.5c0.1,5.7,4.8,10.3,10.5,10.2c5.7-0.1,10.3-4.8,10.2-10.5C-1437-82.2-1441.7-86.7-1447.4-86.6z
					 M-847.9-93.5l7.6,5c0,0-4.6,2.2-10,5.2c-14.6,8.1-18.8,14-13.6,19c1.8,1.8,4,2.6,7.9,1c10.2-4.1,19.6-11.3,29-17l5.7,3.8
					c-0.1-0.3-22.3,16.3-34.4,23.3c-19.1,10.2-30.4-9.8-19.9-23.5C-867.5-84.8-858.7-87.7-847.9-93.5z M-1447.3-82.1
					c3.2-0.1,5.8,2.5,5.9,5.7c0.1,3.2-2.5,5.8-5.7,5.9c-3.2,0.1-5.8-2.5-5.9-5.7C-1453.1-79.4-1450.5-82-1447.3-82.1z M-836-86.8
					l4.2,2.7c0,0-0.4,0.2-12.9,7.7c-13.6,8.1-14.2,8.3-15,7c-0.7-0.4,0.2-3.6,4.4-6.5C-848-80.9-835.1-87.2-836-86.8z M-1192.8-80.5
					c9.3-0.3,18.9,3.9,24.5,13.3c2.9,7.2,3.2,13.8,3.3,21.4l0.6,50.8l-53.2,0.9c0,0-3-34.6-1-63.5C-1216.4-72-1204.8-80-1192.8-80.5
					z M-1357.8-70.2c3.4-0.3,5.9,3,9.2,10.1c3.3,7.1,1,11.1-8.9,15.6c-1.2,0.6-2.7,1-3.2,1c-10.1-0.8-14.4-12.4-7.3-19.6
					C-1363.6-67.6-1360.5-70-1357.8-70.2z M-817.1-73.9l4.7,2.8c0,0-2.3,2.2-19.3,15c-13.7,10.3-15.7,13.1-12.7,18.8
					c2.4,4.5,7.5,3.9,14.4-1.6c9.6-7.6,24.7-20.5,24.7-20.5l0.6,8.6c-9.9,8.3-21.9,22.3-31.4,27.7c-18.5,9.5-32.3-15.5-15.5-28.3
					C-837.1-62.5-817.1-73.9-817.1-73.9z M-1190.5-67.7c-13.9,0.1-18.7,20.8-3.7,25c4.3,2.2,4,3.4,1.3,13.8
					c-1.6,6.3-2.1,13.9-1,18.8c1.2,6.2,2.6,6,1.9-0.6c0-3.7,3.6-13.5,7.2-19.6C-1171.3-50-1175.2-67.8-1190.5-67.7z M-1514.5-62.1
					c9.2-0.1,14.5,12.6,6.7,18.2c-5.6,4-17.4-0.6-17.5-6.7c-0.1-5.3,4-10.3,9-11.3C-1515.7-62.1-1515.1-62.1-1514.5-62.1z
					 M-1488.1-61.5c2.9-0.1,4.6,4.1,4.7,12.5c0.2,12-3.9,22.5-11.2,28.8c-10.5,9-13.3-15.1-3.6-31.2
					C-1494.1-58.1-1490.6-61.5-1488.1-61.5z M-807.3-69.6c2.6-0.1,2.2,1.9-0.8,4.1c-2.3,1.7-6.3,5-18.5,15.7
					c-2.2,1.9-5.4,4.5-7.1,5.6c-4.1,2.8-7.6,2.2-5.6-1.1C-837.3-48.4-809.7-69.5-807.3-69.6z M-1430.7-58.7c9-0.1,16.4,7,16.5,16
					c0.1,9-7,16.4-16,16.5s-16.4-7-16.5-16C-1446.8-51.2-1439.6-58.6-1430.7-58.7z M-1430.6-52.8c-5.7,0.1-10.3,4.8-10.2,10.5
					c0.1,5.7,4.8,10.3,10.5,10.2c5.7-0.1,10.3-4.8,10.2-10.5C-1420.1-48.4-1424.9-52.9-1430.6-52.8z M-1625.2-49.3
					c111,53.8,181.3,156.8,200.2,275.1l52.1-85.7l14.5,5.2l-75.8,128.3l-3.4-1c-2.4-124-66.1-240.4-187.5-302.8L-1625.2-49.3z
					 M-1430.5-48.3c3.2-0.1,5.8,2.5,5.9,5.7c0.1,3.2-2.5,5.8-5.7,5.9c-3.2,0.1-5.8-2.5-5.9-5.7
					C-1436.3-45.6-1433.7-48.2-1430.5-48.3z M-1475.9-46.9c5,10.6,11,21.6,20.3,34.2c-9.3-8.5-19.3-7.9-29.3-9.1L-1475.9-46.9z
					 M-1345-46.7c1.7-0.1,3.4,0.6,4.8,2.4c4.6,6.1,5.5,11.8,2.4,15c-4.2,4.3-11.1,2.8-14.3-3.2C-1355.3-38.8-1350.1-46.4-1345-46.7z
					 M-805.1-47l0.3,9.6c0,0-2,2.5-4.1,4.6c-6,5.8-14.3,15.1-14.8,17.5c-1.8,7.6,5.7,10.3,13,4.6c2.5-2,6.1-5,6.1-5l0.2,11.8
					c-6.1,5.4-12.3,10.7-20.8,9.1c-5-1.4-9.4-5.3-10.4-10.2c-3.8-14.9,10.5-23.4,21.6-33.6C-810.5-41.9-805.1-47-805.1-47z
					 M-1407.2-28.7c0.3,0,0.5,0,0.8,0c9-0.1,16.4,7,16.5,16s-7,16.4-16,16.5c-9,0.1-16.4-7-16.5-16
					C-1422.6-20.9-1415.8-28.1-1407.2-28.7z M-1080.4-30.4c8.9-0.2,13.8,11.7,6.7,18.6c-2.8,2.7-9.1,4.7-12.7,2.3
					C-1096.4-16.3-1089.3-29.8-1080.4-30.4z M-1098-20.7c5.2,5.4,9.4,21.1,6.4,24.1c-6.6,7-26.4-15.6-25.5-30.7
					C-1115.1-36.2-1099.9-22.7-1098-20.7z M-1335.9-25.4c3.7,0,4.5,3.3,3.7,5.3c-0.8,1.9-3.7,2.1-6,1.2
					C-1342.2-20.5-1340.5-25.3-1335.9-25.4z M-1406.3-22.8c-5.7,0.1-10.3,4.8-10.2,10.5c0.1,5.7,4.8,10.3,10.5,10.2
					c5.7-0.1,10.3-4.8,10.2-10.5C-1395.9-18.3-1400.6-22.9-1406.3-22.8z M-1483.7-17c19.6-0.3,40.6,14.8,22.6,18.2
					c-13.3,2.5-22,0-32.6-9.3c-5.4-4.7-3.5-7.3,6.1-8.6C-1486.3-16.9-1485-17-1483.7-17z M-1406.2-18.3c3.2-0.1,5.8,2.5,5.9,5.7
					c0.1,3.2-2.5,5.8-5.7,5.9c-3.2,0.1-5.8-2.5-5.9-5.7C-1412-15.6-1409.4-18.2-1406.2-18.3z M-1378.8-4c0.3,0,0.6,0,0.8,0
					c9-0.1,16.4,7,16.5,16c0.1,9-7,16.4-16,16.5c-9,0.1-16.4-7-16.5-16C-1394.1,3.8-1387.4-3.4-1378.8-4z M-1059-8.4
					c4.6-0.2,8.7,0.7,11.1,2.8c2.9,2.6-1.3,7.7-10.1,12.2c-10.2,5.2-28.2,4.8-28.3-0.6C-1086.4-1.4-1070.9-8-1059-8.4z M-1450.7,2.3
					c9-0.1,11.9,27.8,4.3,41.4c-3.9,7-9.5,2.5-13.6-11.2C-1463.4,21.3-1457.6,2.4-1450.7,2.3z M-1377.9,1.9
					c-5.7,0.1-10.3,4.8-10.2,10.5c0.1,5.7,4.8,10.3,10.5,10.2c5.7-0.1,10.3-4.8,10.2-10.5C-1367.5,6.4-1372.2,1.8-1377.9,1.9z
					 M-1040.7-1.8c0.8,0,1.7,0.4,3,1c9.9,4.7,17.5,27.1,12.5,37.3c-5.2,10.7-17.7-9.5-17.9-29c-0.1-6.4,0.3-9,2.1-9.2
					C-1040.9-1.8-1040.8-1.8-1040.7-1.8z M-1476.2,6.8c0.2,0,0.4,0,0.6,0c8.9,0.1,15.6,12.3,7.3,18.7c-3.6,2.8-9.3,3.4-12.8,1.2
					c-6.9-4.2-6.7-14.8,0.3-18.6C-1479.2,7.3-1477.7,6.9-1476.2,6.8z M-1377.8,6.5c3.2-0.1,5.8,2.5,5.9,5.7c0.1,3.2-2.5,5.8-5.7,5.9
					c-3.2,0.1-5.8-2.5-5.9-5.7C-1383.6,9.2-1381,6.5-1377.8,6.5z M-1438.6,9.4c5,7.2,25,26,27.8,27.6c-8.8-2.7-17.7-1.3-26.7,0
					C-1436.5,30.4-1435.6,19.5-1438.6,9.4z M-1121.3,5.8C-987,34.9-902.9,175.6-933,309.3c0,0-11.4-6.1-13.2-9.1
					c4.4-23.1,6.7-59.7,0.1-96.3c-11.1-62.1-63.1-152.6-174.2-182.2C-1121.6,17.8-1121.3,5.8-1121.3,5.8z M-1049.2,5.6
					c1.7,9.1,3.3,18.2,5.6,26.4c-9.5-6.6-20.3-12.3-31.3-16.8C-1067.1,13.4-1060,11.9-1049.2,5.6z M-1010.6,7.9
					c5.3-0.2,10.8,3.5,10.8,10c0,2.9-3,8.1-5.4,9.4c-8.8,4.7-18.1-3.8-14.3-13.1C-1017.8,10-1014.2,8-1010.6,7.9z M-1346.7,17
					c9-0.1,16.4,7,16.5,16c0.1,9-7,16.4-16,16.5s-16.4-7-16.5-16C-1362.8,24.5-1355.7,17.1-1346.7,17z M-1346.6,22.9
					c-5.7,0.1-10.3,4.8-10.2,10.5c0.1,5.7,4.8,10.3,10.5,10.2c5.7-0.1,10.3-4.8,10.2-10.5C-1336.2,27.3-1340.9,22.8-1346.6,22.9z
					 M-1623.4,29c67.1,38.1,128.2,120.6,134.1,214.9l-16.3-10.3c-8-63.5-41.7-132.1-118.1-187.5C-1623.7,46.1-1623.6,40-1623.4,29z
					 M-1255.3,22.9l85.9-1.4l0.3,18.5l25.6-13.7l0.7,41l-26-15.2l0.3,17.9l-85.9,1.4l-0.3-18.8l-26.1,13.2l-0.4-40.8l26.3,14.2
					L-1255.3,22.9z M-1346.5,27.4c3.2-0.1,5.8,2.5,5.9,5.7c0.1,3.2-2.5,5.8-5.7,5.9c-3.2,0.1-5.8-2.5-5.9-5.7
					C-1352.3,30.1-1349.7,27.5-1346.5,27.4z M-1312.7,30.1c0.1,0,0.2,0,0.3,0l1.1,5.9c-0.2,0-0.3,0-0.5,0
					c-5.7,0.1-10.3,4.8-10.2,10.5c0.1,5.7,4.8,10.3,10.5,10.2c1.4,0,2.7-0.3,3.9-0.8l1.1,5.9c-1.5,0.5-3.2,0.8-4.9,0.8
					c-9,0.1-16.4-7-16.5-16C-1328,37.9-1321.2,30.7-1312.7,30.1z M-1118.5,29c0.3,0,0.6,0,0.8,0c9-0.1,16.4,7,16.5,16
					c0.1,7.7-5.2,14.2-12.3,16l-1.1-5.8c4.4-1.3,7.6-5.3,7.5-10.1c-0.1-5.7-4.8-10.3-10.5-10.2c-0.2,0-0.5,0-0.7,0l-1.1-5.8
					C-1119.1,29-1118.8,29-1118.5,29z M-1004.3,32.6c20.1-0.2,28.6,11.2,12.2,16.3c-7.6,2.4-17.6,1.4-27.5-2.8
					C-1027.9,42.5-1016.7,32.7-1004.3,32.6z M-1423.7,40.6c4.9-0.1,9.6,0.6,13.1,2.2c8.5,3.8,8.3,6.5-0.6,11.9
					c-12.4,7.4-42,0.6-33.2-7.7C-1440.4,43.1-1431.8,40.8-1423.7,40.6z M-1311.6,40.5c0.4,0,0.9,0,1.3,0.1l2,10.5
					c-0.9,0.6-1.9,0.9-3.1,1c-3.2,0.1-5.8-2.5-5.9-5.7C-1317.4,43.2-1314.8,40.6-1311.6,40.5z M-1117.4,39.4c3.2,0,5.8,2.5,5.8,5.7
					c0,2.5-1.5,4.7-3.8,5.5L-1117.4,39.4z M-1082,43c9-0.1,16.4,7,16.5,16s-7,16.4-16,16.5c-9,0.1-16.4-7-16.5-16
					S-1090.9,43.1-1082,43z M-1398.7,52.3c1-0.1,2.1,0.4,3.2,1.3c9.9,7.8,15,24.6,11.4,37.2c-3.5,12-19-9-19.2-25.9
					C-1403.3,57-1401.6,52.5-1398.7,52.3z M-977.3,46.7c1.3,0,2.8,1,4.2,3.3c6.2,10,6.3,30.8,0.1,37.4c-3.5,3.7-4.8,3.1-8.7-4.4
					C-988.2,70.3-983.8,46.8-977.3,46.7z M-1081.9,48.8c-5.7,0.1-10.3,4.8-10.2,10.5c0.1,5.7,4.8,10.3,10.5,10.2
					c5.7-0.1,10.3-4.8,10.2-10.5C-1071.4,53.3-1076.2,48.8-1081.9,48.8z M-1385.7,56.6c12.4,7.6,25.1,14.4,38.3,20.1
					c-12.3-2.7-21.3,1.6-30.5,7.3C-1376.3,73.7-1379.9,65.5-1385.7,56.6z M-1016.4,52.7c9.2,1.1,18.3,2.5,28.9,0.3
					c-1.8,9-2.3,18.2-1.3,27.6C-997,70.5-1006,61.1-1016.4,52.7z M-1081.8,53.4c3.2-0.1,5.8,2.5,5.9,5.7s-2.5,5.8-5.7,5.9
					c-3.2,0.1-5.8-2.5-5.9-5.7S-1085,53.5-1081.8,53.4z M-1411.5,64.4c7.6,3.6,8,12.7,0.7,17.6c-9.1,6.1-21.3-4.2-15.7-13.3
					C-1421.4,62.4-1417.9,62.4-1411.5,64.4L-1411.5,64.4z M-1049,63.7c9-0.1,16.4,7,16.5,16c0.1,9-7,16.4-16,16.5
					c-9,0.1-16.4-7-16.5-16C-1065.1,71.2-1058,63.8-1049,63.7z M-953.7,64.8c1.6-0.1,3.2,0.3,4.8,1.1c5.8,2.9,7.2,10.6,2.7,15.2
					c-5,5.1-12,4.3-15.5-1.6C-965.8,72.6-960.5,65-953.7,64.8z M-1110.6,69.8C-1030.1,95.7-975,184-986.5,270l-10.2-9.3
					c6.8-48.7-21.4-141.2-111.3-177.8L-1110.6,69.8z M-1048.9,69.6c-5.7,0.1-10.3,4.8-10.2,10.5c0.1,5.7,4.8,10.3,10.5,10.2
					c5.7-0.1,10.3-4.8,10.2-10.5C-1038.4,74-1043.2,69.5-1048.9,69.6z M-1048.8,74.1c3.2-0.1,5.8,2.5,5.9,5.7
					c0.1,3.2-2.5,5.8-5.7,5.9c-3.2,0.1-5.8-2.5-5.9-5.7C-1054.6,76.8-1052,74.2-1048.8,74.1z M-1353.3,80.2c4.1,0.3,11-0.6,12.7,3.3
					c1.9,4.8-8,13.4-20.6,15.3c-5.2,0.4-16.2,1.9-18.6-1.8C-1382.1,92.3-1367.4,80.5-1353.3,80.2z M-1607.5,87.2
					c10.8-0.7,23.3,13.6,12.5,25.6c-8.6,9.2-26.4,21.9-26.4,21.9l-0.1-7.9c0,0,17.4-13.2,17.6-18.9c-0.1-6.7-5.7-10.4-11.8-6.3
					c-1.2,0.8-6,4.8-6,4.8l0.2-13.3C-1618.3,89.4-1612.6,87.5-1607.5,87.2z M-1330.9,86c8,0.2,27.1,28.6,22.5,34.5
					c-3.7,4.7-19-5.4-24.8-16.3c-3.2-5.9-2.4-16.5,1.3-18C-1331.6,86.1-1331.3,86-1330.9,86z M-1207,87.5c0,0,1.9,66.8-1.7,73.1
					c-14.6,27.5-47.3,13.8-50.4-6.5c-2.2-12.3-1.9-65.6-1.9-65.6L-1207,87.5z M-1202.3,87.4l51.9-0.9c0,0,1.3,94-0.7,99.4
					c-1.6,4.4-9,12.1-13.7,14.2c-15.1,6.9-31.6-2.3-35.9-20C-1203.9,167.3-1202.3,87.4-1202.3,87.4L-1202.3,87.4z M-1146.1,86.5
					l34.4-0.6c0,0,1.3,5,2.7,9c2.5,7.1,11,27.4,11.9,28.7c4.3,5.5,5.5,67,1.5,74c-14.8,23-40.2,16.8-49.9-8.2
					C-1147.8,181.3-1146.1,86.5-1146.1,86.5z M-1105.8,88.1c62.3,28.3,110.6,89.8,106,169.7l-11.5-11.1
					c3.2-55.2-39.9-123.4-89.2-143L-1105.8,88.1z M-1020.8,88.6c9-0.1,16.4,7,16.5,16c0.1,9-7,16.4-16,16.5s-16.4-7-16.5-16
					C-1036.9,96.1-1029.7,88.7-1020.8,88.6z M-959.8,89.2c6,0,13.5,2,19.1,6.4c6.7,5.3,7.7,9.6,2.6,11.3c-9.8,3.2-21.8,0.5-29.3-6.8
					C-974.5,93.5-968.6,89.3-959.8,89.2z M-1020.7,94.5c-5.7,0.1-10.3,4.8-10.2,10.5c0.1,5.7,4.8,10.3,10.5,10.2
					c5.7-0.1,10.3-4.8,10.2-10.5C-1010.2,99-1014.9,94.4-1020.7,94.5z M-1346.1,101.2c8.7-0.1,12.8,12,6.3,18.3
					c-2.7,2.6-10.1,3.2-13.4,1.2C-1362.2,115.1-1357.2,101.3-1346.1,101.2z M-1231.5,102.4c-2.7,8.3-7.2,17.7-10.9,24.1
					c-9.9,17.2-8.4,28.6,2.5,34.2c16,8.2,27.1-14.7,11.4-23.4c-5.5-3-5.5-3.1-3.7-11.6C-1230,115.2-1229.8,102.6-1231.5,102.4z
					 M-1020.6,99c3.2-0.1,5.8,2.5,5.9,5.7c0.1,3.2-2.5,5.8-5.7,5.9c-3.2,0.1-5.8-2.5-5.9-5.7C-1026.3,101.7-1023.8,99.1-1020.6,99z
					 M-1175.9,105c-0.7,0-0.1,4.2,0,11.7c0.1,12.2-0.8,15.9-8.3,32.3c-9.6,21-8,35.2,4.3,39.6c9.6,3.4,18.8-4,18.7-15.2
					c-0.1-5.3-2.5-9.4-6.1-10.4c-3.3-0.2-7-1.6-6.7-3.2C-1172.3,147.3-1161.9,123.7-1175.9,105z M-970.6,103.2
					c8.1,4.9,16.5,9.6,28.4,10c-4.9,12.3-4.2,21.2-4.9,31C-952.4,131.2-960.6,116.8-970.6,103.2z M-1583.3,115.3
					c0.6,0,1.3,0,1.9,0.1c7.7,1.1,14.3,10.8,12.4,18.1c-1.7,6.4-2.2,7.5-26.7,24.4c-13.6,9.4-15,9.8-15,9.8l-7.4-4.8
					c0,0,6.1-4.3,15.9-11c18.7-13.1,21.5-16.1,19.4-21.8c-2.2-6.2-9.3-4.7-20.4,4.1c-16.4,13.1-18.1,13.9-18.1,13.9l-0.1-7.6
					c0,0,7.2-5.9,10.3-8.7C-1603.4,126.2-1593,115.5-1583.3,115.3z M-1092.3,110.5c1.9,0,3.3,1.7,2.7,3.3c-0.3,0.8-1.4,1.3-2.8,1.3
					c-3,0-3.2-4.2-0.3-4.6C-1092.5,110.5-1092.4,110.5-1092.3,110.5L-1092.3,110.5z M-925.5,116.6c3.7,12-3.5,32.2-8.1,34.8
					c-4.8,4.9-8,0.4-9.3-12.2C-943,128.9-931.9,96.8-925.5,116.6z M-1123.2,113.1c1.8,17.3,2.6,31.7-5.3,45.9
					c-10.2,18.4-7.2,34,4.1,37.3c11.3,3.3,21.1-4.9,18.9-15.8c-0.7-3.3-5.3-8.7-8.2-9.4c-3.5-0.8-3.9-3-2.1-9.9
					c3.6-13.4,2-30.2-3.9-42.3C-1120.2,117.1-1122.4,113-1123.2,113.1z M-1085.3,118.3c9.5-0.1,14.2,12.1,7.2,18.8
					c-3.9,3.7-6.4,2.1-10.7-6.7C-1092.8,122.1-1091.7,118.3-1085.3,118.3z M-997,119.3c9-0.1,16.4,7,16.5,16c0.1,9-7,16.4-16,16.5
					c-9,0.1-16.4-7-16.5-16C-1013.2,126.9-1006,119.5-997,119.3z M-996.9,125.2c-5.7,0.1-10.3,4.8-10.2,10.5
					c0.1,5.7,4.8,10.3,10.5,10.2c5.7-0.1,10.3-4.8,10.2-10.5C-986.5,129.7-991.2,125.1-996.9,125.2z M-996.8,129.8
					c3.2-0.1,5.8,2.5,5.9,5.7c0.1,3.2-2.5,5.8-5.7,5.9c-3.2,0.1-5.8-2.5-5.9-5.7C-1002.6,132.5-1000,129.8-996.8,129.8z
					 M-1066.6,135.2c1.3-0.1,2.6,0.1,3.8,0.7c8.6,4,7.9,15.9-1.4,23.1c-5.9,4.6-8.5,3.1-14.2-8.4
					C-1081.6,144.4-1073.8,135.6-1066.6,135.2z M-1563.4,144.8c0.9,0,1.7,0.1,2.5,0.3c8.9,2.3,14.6,12.5,12.6,20.4
					c-4.7,12.2-21.1,16.5-33.5,21.8l-6.6-4.6c0,0,9.1-5.4,17.9-9.6c8.3-4,9.6-5.5,8.9-10.4c-1.4-9.5-5.9-9-26.5,2.5
					c-8.4,4.7-14.5,8.8-14.5,8.8l-4.7-3.7c6.8-4.6,10.9-7.2,18.3-12.5c12.4-8.8,19.5-12.6,24.7-12.9
					C-1564,144.8-1563.7,144.8-1563.4,144.8L-1563.4,144.8z M-903.2,140.9c3.2,9.1-2.9,17.3-12.2,13.8c-5.1-1.9-8.7-8.3-5.7-14.3
					C-917.1,133.8-905.4,134.8-903.2,140.9z M-1089.6,140.8l15.1,26c0,0,0.3,7.3,0.5,11.4c0.8,17,4.6,22.6,14.5,20.8
					c0.7-0.1,4.3-1.2,4.3-1.2l6.5,10.6c0,0-6.8,3.1-8.6,3.5c-11.7,2.7-28.1-5.9-30.9-17.7C-1090.8,182.8-1089.6,140.8-1089.6,140.8z
					 M-1568.4,159.5c4.4,0.2,2.6,3.7,0.6,4.8c-8.5,4.5-16.6,9.4-25.4,14.7l-6.1-3.6c0,0,4.6-2.7,7.7-4.7
					C-1581.8,164.5-1571.9,159.7-1568.4,159.5z M-980.7,153.1c9-0.1,16.4,7,16.5,16s-7,16.4-16,16.5s-16.4-7-16.5-16
					S-989.7,153.3-980.7,153.1z M-1049.5,156.5c3.7-0.2,6.9,1.4,9,4.7c4.5,7.1,0,16-10.5,20.9c-5.8,2.7-6.8,2.2-13.3-7
					c-4.4-6.2-4.3-7.3,0.3-11.4C-1058.8,159.1-1053.7,156.7-1049.5,156.5z M-1620.6,167.4l235.5,147.1l-6.5,11.4l-228.4-144.2
					L-1620.6,167.4z M-928.1,157.9c14.2,0,32.9,16.1,26.5,22.7c-0.7,0.7-2,1.2-3,1.2C-924.8,180.9-947.5,157.8-928.1,157.9z
					 M-980.6,159c-5.7,0.1-10.3,4.8-10.2,10.5c0.1,5.7,4.8,10.3,10.5,10.2c5.7-0.1,10.3-4.8,10.2-10.5
					C-970.2,163.5-974.9,158.9-980.6,159z M-1291.8,167.1l6.4,15.9l-112.9,186.6l-11.5-7.1L-1291.8,167.1z M-980.5,163.6
					c3.2-0.1,5.8,2.5,5.9,5.7c0.1,3.2-2.5,5.8-5.7,5.9c-3.2,0.1-5.8-2.5-5.9-5.7C-986.3,166.3-983.7,163.6-980.5,163.6z
					 M-937.9,164.8c5.9,10.5,15.4,16.8,26.3,21.1c-10,8.5-14.9,19.5-14.4,30.9C-928.9,199.8-931.4,182.9-937.9,164.8z
					 M-1550.9,180.5c2.5,0,4.7,0.5,6.5,1.6c22,14.5,2.3,29.6,0.4,28.5l-7.5-4.6c2.5-4.3,8.2-10.1-1.2-15.3
					c-5.3-2.2-11.1,0.7-16.2,4.3l-7.9-5.2C-1576.8,189.9-1561.7,180.6-1550.9,180.5z M-1038.2,180.5c0.8,0,1.6,0,2.4,0.1
					c12.3,2.2,11.7,15.2-1,21.4c-7.2,3.6-8.5,2.9-15.1-8C-1055,189-1046.1,180.9-1038.2,180.5z M-1554.6,193.8c1.3,0,3,1.1,3.2,2.2
					c0.7,3.4-5.6,6.9-5.6,6.9l-7.4-4.7C-1561.3,196.5-1558.1,194.1-1554.6,193.8z M-900.9,186.1c1.8-0.2,3.1,0.6,3.6,2.8
					c2.7,10.1-8.3,29-18.6,32.2c-6,1.9-7.8-0.9-6-9.4C-919.3,199.9-907.3,186.7-900.9,186.1z M-1276.8,193.1l19.1,13.4L-1368,387.3
					l-19.8-11.3L-1276.8,193.1z M-968.7,189.4c9-0.1,16.4,7,16.5,16s-7,16.4-16,16.5c-9,0.1-16.4-7-16.5-16
					S-977.7,189.6-968.7,189.4z M-968.6,195.3c-5.7,0.1-10.3,4.8-10.2,10.5c0.1,5.7,4.8,10.3,10.5,10.2c5.7-0.1,10.3-4.8,10.2-10.5
					C-958.2,199.8-962.9,195.3-968.6,195.3z M-968.5,199.9c3.2-0.1,5.8,2.5,5.9,5.7c0.1,3.2-2.5,5.8-5.7,5.9
					c-3.2,0.1-5.8-2.5-5.9-5.7C-974.3,202.6-971.7,199.9-968.5,199.9z M-1228.7,204.8c12.5,13.7,26.8,44.4,74.8,29
					c16.6,13.1,39.4,20.3,67.1,5l1.6,83.5l-214,3.8L-1228.7,204.8z M-1619.5,213.4l213,135.2l-6.4,11.8l-206.5-127.2L-1619.5,213.4z
					 M-1027.9,203.7c0.2,0,0.4,0,0.5,0c10.8,2.5,12.2,13.2,2.3,17.5c-5.3,2.3-6.4,1.8-11.7-5.7c-2.1-3-3.3-5.4-3-6.2
					C-1039,207.5-1030.9,203.7-1027.9,203.7L-1027.9,203.7z M-892.4,212.9c3.8,0,7.5,1.9,9.4,5.8c2.7,5.9,1.3,10.8-4.1,14.2
					c-8.9,5.6-19.1-4.2-14.6-14C-900,214.9-896.2,212.9-892.4,212.9z M-1024.2,226.4c5-0.1,9.2,4.6,6.8,7.5
					c-1.6,1.9-3.6,1.4-6.3-1.6C-1026.8,228.8-1027,226.4-1024.2,226.4z M-963.7,227.5c9-0.1,16.4,7,16.5,16s-7,16.4-16,16.5
					s-16.4-7-16.5-16S-972.7,227.6-963.7,227.5z M-917.9,227.6c12.3-0.1,29.6,20.1,26.9,31.4c-0.9,3.7-7.8,1.8-16.1-4.3
					C-918.3,246.3-925.7,227.7-917.9,227.6z M-963.7,233.4c-5.7,0.1-10.3,4.8-10.2,10.5c0.1,5.7,4.8,10.3,10.5,10.2
					c5.7-0.1,10.3-4.8,10.2-10.5C-953.2,237.8-957.9,233.3-963.7,233.4z M-924.2,234.8c3.5,9.9,7.2,20.1,22.6,27.1
					c-23.5,11.4-27.8,30.1-23.8,53.9l-5.6-3.3C-926.3,291-922.8,266.6-924.2,234.8z M-963.6,237.9c3.2-0.1,5.8,2.5,5.9,5.7
					c0.1,3.2-2.5,5.8-5.7,5.9c-3.2,0.1-5.8-2.5-5.9-5.7C-969.3,240.6-966.8,238-963.6,237.9z M-966.2,264.1c9-0.1,16.4,7,16.5,16
					c0.1,5.7-2.7,10.7-7.1,13.7l-5.3-3.8c3.9-1.6,6.6-5.4,6.5-9.8c-0.1-5.7-4.8-10.3-10.5-10.2c-5.4,0.1-9.8,4.4-10.1,9.7l-5.3-3.9
					C-979.6,269.2-973.5,264.2-966.2,264.1z M-892.1,264.9c7.7-0.1-3.9,21.6-14.9,27.6c-8.3,4.6-16,5.1-16.1,1
					C-923.2,282.9-903.9,265.1-892.1,264.9z M-966,274.5c3.2-0.1,5.8,2.5,5.9,5.7c0.1,3.2-2.5,5.8-5.7,5.9c-3.2-0.3-5.8-2.8-5.9-5.7
					C-971.8,277.2-969.2,274.6-966,274.5z M-894.1,292.9c3.8,0,7.6,1.6,9.3,4.8c2.1,4.1,1.4,7.9-2.3,11.7
					c-9.2,9.4-22.1,0.1-16.2-11.7C-901.7,294.5-897.9,292.9-894.1,292.9z M-923.9,302.2c13,0.2,23.2,16.2,21,25.5
					c-2,2.5-16.6-8.2-18.1-9.3C-923,315.1-923.2,309.9-923.9,302.2z M-941.5,312.5c14.1,9.1,27.8,17.2,41.2,23.9l-40.3,26.8
					L-941.5,312.5z M-1305,330.6l219.4-2.8l0.2,9.2l-225.4,3.9L-1305,330.6z M-1313.7,345.2l14.8-0.2l0.3,18l-20.3,0.3l-0.2-9.9
					L-1313.7,345.2z M-1102.9,342.2l17.7-0.3l0.3,18l-17.7,0.3L-1102.9,342.2z M-1277,345.2l20.2-0.3l0.3,18l-20.2,0.3L-1277,345.2z
					 M-1235,344.6l21.8-0.4l0.3,18l-21.8,0.4L-1235,344.6z M-1190.4,343.9l21-0.3l0.3,18l-21,0.3L-1190.4,343.9z M-1145.5,343.4
					l20-0.3l0.3,18l-20,0.3L-1145.5,343.4z M-1327.8,368.6l243.3-3.4l0.2,10.8l-250.3,3.6L-1327.8,368.6z M-1119.8,387.9
					c24.8-0.7,39.7,26.7,20.6,46.5c-17.5,18.1-47.6-4.2-33.1-24.5c8.1-11.3,28.6-2.6,23.7,9.4c-3.2,7.9-14.2,4.4-14-4.1
					c0-3.4-2.5-1-2.8,2.6c-0.3,4.6,4.5,9.6,10,9.6c14.4-0.2,16.2-19.3,2.2-26.1c-12.5-6-25.4,2.1-28.1,18c-0.3,1.7-2.3,6.1-3.8,9.2
					c-4.4,9.3-5.8,14.6-7.9,25.1c-1,1.3-4.2,3.5-6.4,4.6c-7,3.6-6.7,2.1-4.3-9.4c7.1-33.2,19.2-54.7,34.3-59.3
					C-1126.1,388.5-1122.9,388-1119.8,387.9z M-1046.5,388.4c15.3-0.6,27,11.8,29.2,21.5c9.3,29.5-29.7,48.3-43.9,21.7
					c-7.9-15.2,7.6-33.8,22.3-26.9c12,5.6,11.5,23.8-0.6,23.9c-6.6,0.4-10.7-5.4-7.1-10.3c1.9-1.9,4.1-0.5,5-3.6
					c0.4-1.3-1.5-2.3-6-1.4c-7.4,1.6-6.4,16.7,2.3,19.5c13,4.2,23.8-9.5,17.4-22.9c-7.6-16-27.6-15.8-36.5,1.3
					c-1.3,2.5-3.3,6-4.4,7.6c-13.3,18.7-14.3,21.5-18.2,31.9c-0.4,1-1.1,1.8-2.3,1.7c-3.8,0.1-7.4,0.9-9.9,2
					c-1.7-0.4,0.4-6.9,0.6-7.4C-1090,418.2-1066.6,389.4-1046.5,388.4z M-1164.9,398.4c-3.1,5.7-12.6,24.1-18.8,51.2
					c-1.8-1.1-6.6-3-10.1-4.1c-1.3-0.4-0.3-2-0.4-4.2c2.3-12.2,9.8-33.6,18.3-44.6C-1174.2,395.2-1162.3,394.6-1164.9,398.4z
					 M-1151,403.6c-8.1,10.7-16.3,39.1-17.9,53.7c-0.2,2.2-0.6,4.6-0.8,5.4c-1.2,4.4-9.5-4.8-9.6-10.6c-0.1-9.8,10.3-39.9,17.9-51.5
					c2.6-4,3-4.7,8.7-5C-1143.4,395.2-1147.4,398.8-1151,403.6z M-1557.4,403.3c-2.1,0.1-4.1,0.4-6.1,0.9
					c-12,3.2-26.1,16.2-27.3,29.7c-0.7,0.4-2.1,9.9-1,14.7c4.3,18.1,15.1,30.2,28.3,48c0,0-15.9,25.5-26.9,37.4l27.1,37.8
					c-7.1,14.6-19.6,25.7-22.5,43.6c-4.6,23.5,8.1,46.2,34.2,47.9c19.5,0.3,32.1-13.1,34.2-33.1c0.8-13.3-5-29.9-25.1-55.8
					c-1-1.3-2.9-4-2.9-4s2.2-2.6,3.3-4.4c6.7-9.5,24.4-32.6,24.4-32.6l-27.6-37.6c0,0,1.1-2.6,3.2-5.5
					c21.5-30.3,25.3-45.6,21.2-60.5c-1.6-5.8-5.4-10.3-10.4-15.2C-1539.3,406.6-1548.5,402.9-1557.4,403.3z M-1558,407
					c8.6-0.3,17.5,3,24.8,10.4c16.8,17,15.6,31.6-5.3,63.9c-4.6,7.1-9.1,14.9-9.1,14.9l27.7,36.9c-8.7,12.7-18.6,24-27.6,37.4
					c4.8,7.1,12.6,14.7,17.5,23.3c5.9,9.7,9.5,19.4,10.7,28.3c2.5,18.8-9.4,39-30.4,39.9c-20.3,0.5-36-16.2-35.9-37.4
					c0-9.5,3.8-18.3,8.4-26.9c4.7-8.8,15.9-25.8,15.9-25.8l-26.8-37.8l27.1-37.5c0,0-20.6-24.4-27.1-42.1
					c-5.4-20.1,3.9-31.8,5.1-33.6C-1577,412.1-1567.7,407.3-1558,407z M-1574.3,460.9c4.2,10.4,10.9,18.1,18.4,25.5
					c6.7-8.1,14.2-18.9,18.3-29C-1518.1,408.5-1596.5,405.8-1574.3,460.9z M-1556.2,481.6c-10.1-11.4-17.3-20.9-18.2-36.1
					c-1.6-30.2,37.9-27.4,36.4-0.4C-1540,459.8-1547.6,469.2-1556.2,481.6z M-1067.7,426c0.8,4.2,5.1,11.4,4.8,13.1
					c-1.8,4.5-4.6,6.8-8.4,14.2c-0.8,1.6-0.4,1.9-2.6,1.5c-2.1-0.3-5.7-1.3-7.6-1.9c-1.1-0.3-2.4-0.9-1.9-2.3
					C-1079.9,442-1075.8,431.7-1067.7,426z M-1133,440.1l-4.4,12.1c-0.4,1.3-0.5,1.5-1.8,1.3c-2.7-0.3-5-0.5-7.6-0.2
					c-5.8-0.6,4.7-22.3,6.3-25.6C-1138.2,428-1134.5,437.2-1133,440.1z M-1128.5,442.8c0.1,0,0.2,0,0.3,0c2.4,0.3,5.9,1.5,8.5,2.6
					c1.5,0.6,1.5,0.6,0.9,2.4c-1.3,2.7-2.8,10.3-4.5,13c0,0.4-8.3-4.7-10.6-5.7C-1134.1,453.7-1131.6,443.3-1128.5,442.8z
					 M-1059.3,443.1c2.7,0.1,6.1,2.4,7.9,3.8c0.9,1.7,0.1,3.4-2.8,8.6c-2.6,4.6-5.3,9.6-6,9.1c-2-1.5-5.8-3.5-7.7-6
					c-1.4-1.9,1.1-6.8,2.9-9.4C-1062.3,444.9-1060.9,443.4-1059.3,443.1z M-1103.4,443.2c2.5,0.5-1.2,13.4-1.9,15
					c-2.3,3.6-5.9,8.3-8.8,10.2c-1.5,1-6.1-1.7-6.1-4.9c0-2.3,4.2-13.9,5.6-16.9C-1114.3,446.2-1106.1,443.3-1103.4,443.2z
					 M-1205,449.8c0.6,0,1.1,0,1.7,0c9.8-0.4,19.9,4.2,26.5,14.9c3.1,5.1,3.1,5.3,2.5,10.1c-1.4,11.2-0.7,18.8,2.3,25.6
					c3.5,7.8,3,10.5-4.9,28c-8,17.7-17.7,39.2-25,59.1c-3.2,8.5-6.2,18.2-8,26.1c-1.2,5-7.3,3.6-13.3,3.4c-3,0.7,4.1-20,14.7-44.8
					c8.5-19.8,20.2-42.2,24.6-64.3c3.6-18,2.2-25.4,0-32.9c-8.7-21.8-37.4-16-37,4.3c0.8,13.1,16.1,19.9,21.4,6.9
					c0.8-5.9-2-2.4-4.4,0.5c-5.1,6.2-14.2-0.5-12.9-9.5c1.7-11.9,17-16.1,24.5-6.8c8.3,10.2,6.7,20.8-4.9,29
					c-12,9.1-23.1,4.2-29.3-4.9C-1239.6,473.9-1222.4,450.6-1205,449.8z M-1145,457.5c12,0,25.2,9.9,27.5,17.8
					c1.2,5.4-0.4,11.8,1.6,17c1.7,4.2,3.3,6.6,2.2,10.3c-9.4,32-32.1,66.3-43.1,104.2c-1.3,2.6-2.5,3-5.5,3.9
					c-4.6,1.4-6.4,1.3-6.9-1.1c-0.5-2.3,1-6.7,3.5-14.9c3.1-9.8,9.9-26.7,14-34.6c9.5-18.5,14.7-31.1,21.5-46.9
					c1.3-2.9,1.6-4.7,3.6-8.9c8.6-18.2-1.8-35.9-20.2-35.7c-14.7,0.2-20.8,23.2-7.9,29.7c12.7,6.4,21.7-11,10.5-16.9
					c-2.7-1.4-3.4,0-1.2,2.5c5.1,5.9,0.7,14-6.2,10.9c-10.8-4.8-5.6-23.1,6.9-22.2c19.3,1.3,22.3,29.3,2.7,36.7
					c-26.9,10.2-41.8-33.1-16.6-48.1C-1154.4,458.6-1149.7,457.5-1145,457.5L-1145,457.5z M-1088.1,457.5c7.1-0.3,14.6,2.1,20.9,7.9
					c15.4,14.3,11.7,36.7-13.1,80.5c-8.1,14.7-16,32.2-20.2,45c-1.1,3.2-2,4.8-4.4,6.2c-4.4,2.5-9.4,2.9-10.1,1.2
					c-1.7-4.4,10.5-32,32.3-75.3c5.7-11.6,13-25,12.4-38.6c-1.7-10.8-10.8-18.4-22.8-14.7c-8.1,2.5-11.2,14-5.1,19.7
					c2.5,2.4,5.6,3.6,7.6,3.4c3.7,0.1,7.9-3.7,0.7-4c-7.6,0.1-10.4-9.5-4-13.9c9.2-6.4,20,0.8,19.4,12.9
					c-1.2,24.4-36.8,21.4-38.2-3.7C-1113.7,468.5-1101.6,458-1088.1,457.5z M-1188.1,498.2c5.4-0.5-3.4,28.7-19.1,61.5
					c-8.5,18.2-14.9,37.6-21.5,56.6c-1.8,2.6-13,3.2-13,0.6c18.7-63.8,32.5-74.9,38.9-99.2c1.1-4.2,1.9-10.2,2-10.8
					C-1195.7,505.4-1191.6,499.3-1188.1,498.2z M-1554.5,508.5l-20.5,27.7l21,28.7l20.8-28.1L-1554.5,508.5z M-1100.2,509.5
					c0,3.3-6,19.1-10.5,28.7c-19.9,41.8-24.8,53.1-28.1,64.2c-0.6,2-1.6,3.3-2.9,3.8c-2.5,1-9.6,2.5-10.3,1.5
					c3.9-24.3,36.3-80,42.3-104.2C-1107.1,503.3-1100.4,507.1-1100.2,509.5L-1100.2,509.5z M-1083.8,506.7c1.4-0.1,2,0.4,1.6,2.3
					c-0.6,3-4.1,10.1-10.1,22.5c-16.7,34.3-25.5,54.6-28.2,65c-0.6,2.4-1,4.4-2.2,5c-2.4,1.3-10.6,4.8-11.1,1.2
					c2.4-15.4,12.3-25.6,37.4-90.1c1.2-2.1,2.2-3.2,3.4-3.4C-1089.7,508.6-1086.9,507-1083.8,506.7z M-1154.6,518.4
					c-0.6,4-5,12.3-12.2,27.8c-12.1,25.7-19.8,44.8-24.4,61.7c-0.7,2.8-1.8,5.6-2.8,6.4c-2,1.4-11.1,1.2-11.1,1.2
					c-1.5-6.9,9.1-33.1,20.8-60.6c6.4-15,13.9-29.9,18.8-43.3C-1162,512-1155.1,515.3-1154.6,518.4z M-1136.2,511.5
					c3.7-0.1,0.9,6.2-7.6,23.8c-7,14.3-18.1,34.5-25.1,57.5c-1.9,5.1-4,11.4-4.8,14c-1,3.4-2,5.1-3.4,5.8c-2.6,1.4-9.1,1.4-10.3,0
					c-1.8-2.2,7.3-28.1,16.3-48.1c8-16.8,13.5-30.2,20.4-45.7c1.9-3.1,2-3.3,3.9-3.7C-1142.7,514.8-1138.5,512-1136.2,511.5
					L-1136.2,511.5z M-1553.9,521.7l11,14.3l-12.4,16l-10.8-15.2L-1553.9,521.7z M-1554.5,584.1c0,0-4.5,5.4-9.1,13.8
					c-13.4,23.2-13.5,40.2,2.9,50c6.9,3.4,15.9,2.5,21.4-2.6c18.2-16.4,4.1-38.2-8.1-53C-1550.5,587.9-1554.5,584.1-1554.5,584.1z
					 M-1553.7,589.9c7,8,12.2,14.1,17,24.2c5.5,13.7,2.3,24.6-7.9,29.8c-16.1,8.3-31.1-9.5-23.7-28.9
					C-1562.9,600.7-1553.7,589.9-1553.7,589.9z M-1099.7,609.6c1.6,2.9-153.5,41.5-268.9,12.5l-68.2,102.3l403.5-7.4L-1099.7,609.6z
					 M-1105.4,616.9c0,0,38.6,64.3,57.5,95.8l-25.9,0.4l-38.2-78.3c-19.6,5.8-39,10.1-58.7,12.9l14.2,66.8l-19.4,0.3l-12-63.8
					c-28.2,2.6-57,4-86.4,3.6l-11.7,62l-20.3,0.3l12-61.6c-22.4-2.6-44.6-5.1-67.4-8.5l-36.8,71.6l-28.6,0.5l58.2-90.1
					C-1279.4,645.3-1197.3,639.7-1105.4,616.9L-1105.4,616.9z M-1119,652l30.3,61.4l-55.4,0.9l-11.1-55L-1119,652z M-1356,660.4
					l48.5,5.5l-11.7,51.3l-65.4,1.1L-1356,660.4z M-1197.8,665.4l7.5,49.6l-83.4,1.4l8.5-48.9L-1197.8,665.4z"/>
			</g>
		</g>
		<path id="path153-6-3-1-9-5-1-4" d="M3153.3-356.8c-7.3,10.5-15.2,16.5-15.3,24.7c0,2.7,1.4,7.2,5.9,8c2.9,0.6,6.9-1.8,7-6.6
			c0-1,1-0.9,1,0.4c-0.1,3.8-1.3,8.2-3.3,11.8c3.2,0,6.4,0,9.6,0c-2-3.6-3.2-8-3.3-11.8c0-1.3,1-1.3,1-0.4c0.1,4.8,4.1,7.1,7,6.6
			c4.5-0.9,5.9-5.4,5.9-8C3168.6-340.3,3160.7-346.3,3153.3-356.8z"/>
		<path id="path153-6-3-1-8-6-9-9-4" d="M3235.8-160.3c-7.3-10.5-15.2-16.5-15.3-24.7c0-2.7,1.4-7.2,5.9-8c2.9-0.6,6.9,1.8,7,6.6
			c0,1,1,0.9,1-0.4c-0.1-3.8-1.3-8.2-3.3-11.8c3.2,0,6.4,0,9.6,0c-2,3.6-3.2,8-3.3,11.8c0,1.3,1,1.3,1,0.4c0.1-4.8,4.1-7.1,7-6.6
			c4.5,0.9,5.9,5.4,5.9,8C3251-176.8,3243.2-170.8,3235.8-160.3z"/>
	</g>
</g>
</svg>
