<?xml version="1.0" encoding="utf-8"?>
<!DOCTYPE svg PUBLIC "-//W3C//DTD SVG 1.1//EN" "http://www.w3.org/Graphics/SVG/1.1/DTD/svg11.dtd">
<svg version="1.1"
	 id="svg5005" xmlns:rdf="http://www.w3.org/1999/02/22-rdf-syntax-ns#" xmlns:dc="http://purl.org/dc/elements/1.1/" xmlns:cc="http://creativecommons.org/ns#" xmlns:svg="http://www.w3.org/2000/svg"
	 xmlns="http://www.w3.org/2000/svg" xmlns:xlink="http://www.w3.org/1999/xlink" x="0px" y="0px" width="178.6px" height="249.4px"
	 viewBox="0 0 178.6 249.4" enable-background="new 0 0 178.6 249.4" xml:space="preserve">
<g id="layer1" transform="translate(-134.10011,-187.88523)">
	<g id="g4942" transform="matrix(0.99999718,0,0,1.000002,-3235.4013,1276.7554)">
		<path id="rect6355-6-85-3-5-0-1" fill="#FBFBF6" stroke="#7F7F7F" stroke-width="0.4" d="M3378.4-1088.5h160.8
			c4.7,0,8.5,3.8,8.5,8.5v231.6c0,4.7-3.8,8.5-8.5,8.5h-160.8c-4.7,0-8.5-3.8-8.5-8.5V-1080
			C3369.9-1084.7,3373.7-1088.5,3378.4-1088.5z"/>
		<path id="path147-6-9-8-7-0-5-6-46-4-5" d="M3534-879.7c3.1-0.1,4.5-3.7,2.2-6.6c-0.3-0.4-0.4-0.7,0.2-0.3
			c1.6,1.1,4.5,0.4,4.7-2.9c0.2-4.1-5.3-5.3-6.3-0.9c-0.1,0.5-0.4,0.4-0.3-0.2c0.1-1.8,0.6-3.4,1.4-5c-1.2,0-2.5,0-3.7,0
			c0.7,1.6,1.3,3.3,1.4,5c0.1,0.7-0.3,0.7-0.3,0.2c-1-4.4-6.5-3.2-6.3,0.9c0.2,3.3,3.1,4,4.7,2.9c0.6-0.4,0.6-0.2,0.2,0.3
			C3529.4-883.4,3530.9-879.7,3534-879.7L3534-879.7L3534-879.7z"/>
		<path id="path147-6-9-8-7-4-5-62-9-4-5" d="M3383.6-1048.6c-3.1,0.1-4.5,3.7-2.2,6.6c0.3,0.4,0.4,0.7-0.2,0.3
			c-1.6-1.1-4.6-0.4-4.7,2.9c-0.2,4.1,5.3,5.3,6.3,0.9c0.1-0.5,0.4-0.4,0.3,0.2c-0.1,1.8-0.6,3.4-1.4,5c1.2,0,2.5,0,3.7,0
			c-0.7-1.6-1.3-3.3-1.4-5c-0.1-0.7,0.3-0.7,0.3-0.2c1,4.4,6.5,3.2,6.3-0.9c-0.2-3.3-3.1-4-4.7-2.9c-0.6,0.4-0.6,0.2-0.2-0.3
			C3388.2-1044.9,3386.7-1048.5,3383.6-1048.6C3383.6-1048.6,3383.6-1048.6,3383.6-1048.6L3383.6-1048.6z"/>
		<path id="path37-5-2-4" d="M3377.8-1059.8h-2.2v-3h2.2c0,0,0-1.6,0.1-4.5c0.1-6.1,0.3-7,2-8.7c3.5-3.3,9.3-0.6,9.2,4.4
			c-0.1,7,0,13.7-0.2,14.6c-0.4,1.7-0.4,1.8-0.3,2.1c0.3,0.6,2.9,0.9,2.9,0.7v3c-2,0.2-2.8,0-4.4-1.2c-1,1-4,1.9-6.5,0.8
			C3378.8-1052.5,3377.5-1054.8,3377.8-1059.8L3377.8-1059.8L3377.8-1059.8z M3385.3-1054.6c-1.1-1.6-2.9-3.7-4.6-4.5
			c-0.1,1.8,0,3.3,0.7,4.1C3382.3-1053.6,3383.9-1053.3,3385.3-1054.6L3385.3-1054.6L3385.3-1054.6z M3386.2-1071.9
			c-0.8-2.3-2.9-3.1-4.4-1.6c-0.9,0.9-1.1,1.8-1.1,6.9c0,3.1,0,4.5,0,4.5c3,1,5.7,4.4,5.7,4.4l0.1-9.5
			C3386.4-1068.8,3386.4-1070.4,3386.2-1071.9L3386.2-1071.9L3386.2-1071.9z"/>
		<path id="path37-3-2-7-4" d="M3539.8-868.5h2.2v3h-2.2c0,0,0,1.6-0.1,4.5c-0.1,6.1-0.3,7-2,8.7c-3.5,3.3-9.3,0.6-9.2-4.4
			c0.1-7,0-13.7,0.2-14.6c0.4-1.7,0.4-1.8,0.3-2.1c-0.3-0.6-2.9-0.9-2.9-0.7v-3c2-0.2,2.8,0,4.4,1.2c1-1,4-1.9,6.5-0.8
			C3538.7-875.8,3540.1-873.5,3539.8-868.5L3539.8-868.5L3539.8-868.5z M3532.3-873.7c1.1,1.6,2.9,3.7,4.6,4.5
			c0.1-1.8,0-3.3-0.7-4.1C3535.3-874.7,3533.7-875,3532.3-873.7L3532.3-873.7z M3531.4-856.4c0.8,2.3,2.9,3.1,4.4,1.6
			c0.9-0.9,1.1-1.8,1.1-6.9c0-3.1,0-4.5,0-4.5c-3-1-5.7-4.4-5.7-4.4l-0.1,9.5C3531.2-859.4,3531.2-857.9,3531.4-856.4L3531.4-856.4
			L3531.4-856.4z"/>
		<g id="g5457-6-3-6" transform="matrix(1.0221444,0,0,1.026231,3100.8569,-1473.3086)">
			<g id="g3405-1-0-4" transform="matrix(0.15135237,-0.00168536,0.00168536,0.15135237,320.81553,485.20923)">
				<path id="path3391-4-8-9-0" fill="#D40000" d="M226.3,742.5c3.3-41.9,1.4-86.9,3.7-121c-1.3-2.4,3.5-9,3.7-9
					c-2.7-5.1-3.5-18.1,0.1-29.6c28.6-104.2,79.2-185,131.2-260.2c40.2,125.8-91.4,212.3-120.1,321.5c-9.6,37.8-8.5,64.3-12.4,98.5
					L226.3,742.5z M9,741.6l-152.7-241.8l33.9-16.1L47.1,741.2L9,741.6z M215,299.1c1.3,6.9,6.7,10.7,12.5,7.6
					c5.7-3,6.3-3.2,2.8,2.2c-7.9,11.9,7.7,23.7,17.9,13.5c3.6-3.6,4.3-9.6,1.1-12.6c-3.6-3.5-4.4-5.2,1-2.6
					c13.5,5.7,21.2-13.9,8.1-20.7c-3.4-1.7-10-0.3-12.5,2.3c-3,3.1-3.5,2-2.6-0.4c0.5-1.4,0.9-3.8,2-6.5c0.9-2.2,1.6-5.1,1.6-5.1
					l-13.9,0c0,0,1.1,3.2,2.2,5.9c1,2.5,1.4,4.4,1.9,5.5c1.8,3.8-0.4,2.4-4.1-0.5c-5.3-4-11.9-3-15.8,2.2
					C215.6,292.8,214.4,295.9,215,299.1z M237.2,104.1l29.9-0.6l31.8,91c-26.8,43.4-34.4,92.5-4.4,142.8l-94.7-0.9
					C222.9,261.4,227.2,181.7,237.2,104.1z M267.2,222.4c4-3.5,4.6-10,1-14.4c-4.5-5.5-3.5-5.8,2.6-2.1c8.8,5.2,17.5-5.8,12.3-15.7
					c-3.3-6.3-14-7.8-18.2-2.3c-3.5,4.6-3.1,0.4-0.3-5.8c1-2.3,2.4-6.5,2.4-6.5l-14.5,0.1c0,0,1.8,4.1,2.8,6.8
					c2.6,7,2.6,9.2-1.4,4.7c-8.8-7.5-19.2-2.3-19.4,8.4c0,8.2,7.4,13.5,13.9,9.8c4-2.3,5.8-2.8,1.2,2.5c-3.1,5.1-2.1,11.6,1.9,14.7
					C257.2,226,263.2,225.8,267.2,222.4z M66.7,248.4c1.2-0.8,1.6-0.3,0.9,0.9c-0.6,1-2.2,2.4-3.5,3.8c-6.8,7.4,1.8,17.1,12.7,15.7
					c7.4-0.9,11.9-12.5,6.5-17.2c-1.8-1.2-3.2-1.4-4.5-3.1c-0.1-0.6,0.2-1.1,0.9-0.8c1,0.4,2.9,2,3.9,2.3c6.9,1.9,12.1-0.8,13.9-5.7
					c1.2-5.6,0.2-11.7-4.4-14.9c-4.2-2.9-10.6-2.2-14.3,2.7c-3.8,5-4.3,0.2-1.1-6.7c1.2-2.6,2-6.3,2-6.3l-13.3,0.6
					c0,0,0.7,2.9,1.8,6.2c2.9,7.6,5,9.7,1.2,5.8c-16.2-9.8-21.7,3.2-22,8.4C46.7,249.9,60.9,255.6,66.7,248.4z M133.4,102.1l24,0.3
					c-19.2,96.1-57.2,176.3-120.2,231.1l-117.5-1.7l-56.2-40.2l22.2-28.2C34.7,280.5,99.1,207.3,133.4,102.1z M22.9,324.1
					c7.1-3,10.1-10.9,5.5-16.3c-4.1-4.9-4.6-6.4,1.9-2.6c8.6,5.1,17.1-4.8,12.9-14.7c-2.6-6.2-10.9-8.1-16.9-4
					c-5.3,3.9-5.2,2.1-2.4-4c1.4-3,2.5-8,2.5-8l-14.7,0c0,0,1,3.5,2.1,5.9c2.4,5.5,3.3,8.1,2.1,8.1c-0.5,0-2.4-1.7-3.4-2.7
					c-2.9-2.7-10.9-3.3-13.9-0.5c-8.9,8.3-4.1,23.1,7.1,20.5c7.3-1.7,8.9-4.4,2.9,2.3C1,316.4,12.3,328.6,22.9,324.1z M-70,320.1
					c6.1-2.8,8.2-9.8,4.9-14.4c-3.4-4.6-5-7.6,1-3.4c8.1,4.2,15.2-1.2,15.2-10.4c0-9.7-10.8-14.3-18.8-8.6c-1.4,1-3,1.8-3.3,1.8
					c-1,0,0.9-5.2,2.8-8.6c0.9-1.5,2.4-4.5,2.4-4.5l-14.7-0.7c0,0,0.8,4,1.9,7.1c2.3,6.3,2.8,8.4-1.2,4.8c-11-10.5-22.9,2.6-18.4,14
					c2.4,6.4,9.9,6.5,14.4,3.4c4.1-3.1,2,1-0.8,4.3C-92.3,314-81.4,325.3-70,320.1z M605,86.2l0.6,17.8l-192,156.4l-7.8-12.3
					L605,86.2z M-102.9,111.7c27.6-19.2,58.5-53.8,88.7-71.7C7.2,90.7-44.9,139.6-102.9,111.7z M397.3,108
					c-18.2-107,96.3-83.4,90.1-74L397.3,108z M-217.8,35.8l190-151.4l8.4,13L-219.8,57.9L-217.8,35.8z M299.8-113.3
					c0.5,1.6,6.1,7.8,6.1,8.3c-1.6-1.2-11.2-6.8-16-1.5c-1.7,1.9-3.8,6.5-3.6,11.3c1.9,8.6,11.6,11.7,18.6,5.9c2-1.7,3.7-3.7,4.1-3
					c0.3,0.6-0.8,3.6-1.7,5.9c-1,2.4-4.9,7.4-2.1,7.4l13.4,0.1c0,0-0.5-3.1-2-6.6c-2.9-6.5-2.8-10,0.8-5.3
					c6.9,9.2,20.6,1.7,19.3-9.2c-0.9-7.9-8.9-12.5-14.8-8.8c-0.6,0.4-2.5,2.2-2.8,2.3c-0.7,0,1.3-3,2.6-5.4
					c4.4-8.2-1.9-16-11.8-15.2c-3.2,0.2-6.7,2.2-6.7,2.5C299.4-121.8,298.8-116.6,299.8-113.3z M463.3-188.5
					c18.6,17.5,37.4,30.5,56.1,41.8l-18.1,27.9C380.9-131.4,292.7-84.7,254.7,44l-19.9,3.6c8.4-80.5,36.3-160.1,116.9-237.3
					L463.3-188.5z M347.6-170.5c0,3.8,7,8.4,5.4,9.5c-0.7,0.4-4.9-3.3-6.8-3.5c-13.9-1.6-17,20-3.3,22.5c2.7,0.5,8.3-1.1,10-2.5
					c2.2-1.8,3.8-3.3,4.2-3.1c0.8,0.3-1.1,4.1-2.7,7c-1.4,2.6-3.5,8.1-3.5,8.1l15.8,0.2c0,0-1.4-4.9-2.8-8.3
					c-1.8-4.4-2.1-7.2-0.9-6.9c0.5,0.1,1.1,1.5,2.2,2.5c6.8,6,16.9,3.6,19.6-5.6c2.6-8.6-7.7-17.6-14.9-12.9c-2.5,1.7-2.5,0.4,0-3.4
					c2.3-3.4,1.8-8.7-0.2-11.8C362.4-186.7,347.3-181.1,347.6-170.5z M460.8-143.6c-0.4-1.9,0.1-1.4,2.1,0.8
					c6.3,6.7,17.2,5.8,20.1-3c2.9-8.7-5.5-18.8-12.9-15.4c-3.9,1.7-3.9,1.1-1.7-1.7c5.8-7.3-0.4-17.1-10.1-17.1
					c-8.9,0-14.2,8.5-10,15.9c1.7,3,1.2,3.7-1.9,2.1c-9-4.5-17.7,9.8-11.1,18.4c3.9,5.1,12.9,5.7,18.1,0.8c2.8-2.6,2.7-1.4,0.7,4.1
					c-1.8,4.8-3.8,8.6-3.8,8.6l15.7,0.3C466.1-129.9,462-138,460.8-143.6z M122,45.8c4.6-1.1-15.4-67-30.3-96.5
					c17.8-41.2,41.9-81.1,2.7-141.2l96.7,0.8C160.6-123.6,158,47.3,151,47.7L122,45.8z M131.3-30.1c0,0-4.7-6.6-4.9-11.9
					c-0.5-3.4,0.3-3.6,2.1-0.1c8.5,9.6,20.3,0.6,20.4-7.9c1.1-7.7-7.9-14.4-13.7-10.6c-4.1,2.7-5.2,1.9-1.5-3.1
					c5.2-7-0.3-16.3-9.4-16.3c-11.9,0-16.5,11-8.1,19c6.2,5.9,0.4,2.4-4.6,0.3c-9.7-4.2-16.2,5.6-11.9,15.7c2.9,6.9,11.7,8.8,17,3.3
					c2.9-3,5.5-4.8,3.9-0.2c-0.9,3.7-5.3,11.6-5.3,11.6L131.3-30.1z M147.5-134.1c0,0-5.7-7.2-6.6-12.7c-0.3-2,1.1-1.5,4.3,1.4
					c10.3,9,24.8-6.8,15.2-16.7c-3.3-3.4-6.7-4.4-10.6-2.4c-4.9,2.5-4.5,1.3-2-1.3c3.6-3.8,3.4-10.8-0.4-14.3
					c-10.5-9.5-27.4,4.3-17.7,14.5c4.2,4.4,2.2,3.8-2.5,1c-8.9-5.4-18.9,9.1-12.3,17.7c7.9,6.8,13.8,3.6,19.4-0.6
					c1.2-0.6,2.2-0.9,2.2-0.4c0,1-5.6,13.8-5.6,13.8L147.5-134.1z M21.1-176c-5.9-0.5-9.5-55.6-2.1-73
					c16.2-73.5,63.7-126.6,93.4-171.4c47.6-66.7,43-178.3,45-173.8l6.6,0.8c0,0-5.9,65.4-3.3,94.9c2.7,26,2.1,27.6,0.2,30.2
					c-0.5,2.4,0.1,9.5-0.4,11.9c-21.9,96-72.8,194.4-125,268.5L21.1-176z M504.8-338.7L349.3-590l38.1-3
					c13.9,22.5,149,237.3,149,237.3L504.8-338.7z"/>
				<path id="path3395-8-0-1-6" fill="#E2CF00" d="M-159,744.2c18.7-65.8-28.3-219.8-58.6-240.2c35.8-1.1,78.7,0,77.4-3.3
					c0,0,149.3,240.7,148,242C6.7,743.9-159,744.2-159,744.2z M461.1,376.8c-36.8-5.6-21.9-36.1,1.8-39c-3.1,0.5,2.7-15.2,21.9-21.3
					c4.4-7.8,8-21.2,12-27.4c-11.5,3.6-25.5,13.1-77.4,4.9c4.8-24.6,54.6-28.2,72.5-24.2c10.3,2.5,20.4,18.1,23.5,18.4
					c32-5,72.3,24.4,59.7,53.6c-2,4.2-6.7-5-17.4-9.1c-34.6-13-36.8-31.8-44.7-40.3c-2.9-0.6-18.6,29.7-18.6,29.7l4.6,20.7
					c8.3-0.7,45.1,22.6-1.2,37.6C484.5,424.1,460.8,392.9,461.1,376.8z M550.5,181.5c-1.9-2,1.7-15.7,6.5-23.5
					c2.6-4.2,8.4-7,11.9-6.4c6.1,1.1,5,10-3.3,35.8C565.2,191.3,556.9,191.6,550.5,181.5z M-180.8-8.3c-10.1-0.1-0.7-27.5,5.6-36.2
					c2.1-2.7,10.1,3.2,10.4,7.2C-164.2-30.2-175.4-5.4-180.8-8.3z M-185.9-195.3c12.3,3.1,31.6,15.7,40.9,22.7
					c11.5,8.8,8.1,25.7,17.4,27.3c6.3-3,18.1-30.7,18.1-30.7s3-14.2-5.1-18.7c-20.2-11.2-19.7-23-18.4-24
					c6.2-15.5,18.1-12.6,24.6-13.4c0.2-8.5,0.2-26.6,17.8-24.5c15.4,1.6,16.7,23.7,10.2,23.9c-0.1-0.4,29.3-3.9,28.8,15.5
					c-0.3,10.5-17.8,23.7-23.2,18.8c0,0,2.7,21-23.7,27.8c-6.2,6.2-11.5,32.7-11.5,30.4c16-14.1,40.9-17.2,80-11.6
					c-24.8,44.7-91.7,22.9-96.8,14.2C-160.5-148.3-192.1-161.9-185.9-195.3z M104.4-299.9c35.7,3.6,74.9-7.1,104.5-0.9
					c3.4,0.5,7,5.5,9,6.7c15.3,8.5,31.4,6.1,56.2-3c6.1-2.2,119.4-0.1,119.4-0.1C418.9-258.8,464-186.5,465-189c0,0-62.8-1.4-91.7,0
					c-20.4,1-8.4,3.9-22.6,4.3C250.9-111.4,230.3,49,230.3,49s31.5-7.9,39.7,0.8c40.2-113.4,114.6-164.5,217.5-153.2
					c47.6,5.2,103.8,52.7,103.8,52.7L488.5,31.1c-78.5-40.7-113.6,76.3-89.7,76.8l207-165.4c0,0,3.4,13.7,3,14.2
					c-14.8,19-261.6,214.8-261.6,214.8l-10.6-12c0,0-6.8,5.9-10.4,9.9c-0.4,6.5,1.8,12,6.7,17.2c-48.9,38.3-51.3,109.7-16,149
					c0,0-15.8,0.9-17.5,1.2c-20.2,3.2-39.9-96.3,0.5-142c-19.7-39.7-31.5-93.5-34-96.1c0.5,6.3-31.8,3.9-31.8,3.9
					c-3.4,80.2-12.6,158.8-32.7,234.3l148.4,4.8l-64.4,109c0,0-70.9-2.6-101.4-5c-31.7-18.9-50.2-5-80.2,1.5
					C61.2,448-1.5,445.3-1.5,445.9c-20.8-42.5-43.3-73.8-74-110.3c-3.9-6.6,126.1-1.1,126.1-1.1s66.1-97.6,78.2-125.2
					C138.3,187.6,160,109,160,109c0.9,4.1-11.6-20.7-41.3-20.4c-26.4,163.1-221.2,216-336.8,109.5l-0.9-19l259.8-206L52-13.5
					c-2.4-2-159.5,125.7-156.9,125c45.8,24.6,99.4,5.7,94.1-73.6c36.8-26,69.5-56.4,101.7-87.5c0.7-1.2,34.6,78.5,33.6,93.7
					c20.1-6.5,31.8,7.7,31.4,5.3c-6.7-46,35.4-219.4,36.4-239.4c-22.3-2-51.9-1.6-98.3-3.9c36.5,72.6,23,121.3-29.6,165.1L53.8-42.6
					c4.4,2.5,76.8-58.7,20.1-152c-2.6,0.2-30.4-2.8-30.4-2.8S101.4-287.2,104.4-299.9z M384.3-595c0,0,162.5-2.1,162.5,2.7
					c-6.2,87.2,13.3,167.1,61.6,241.3c0,0-71.9-3.4-70.6-2.4L384.3-595z"/>
				<path id="path3393-8-5-4-3" fill="#131F67" d="M622.9-598.5l-844.2-9.4l-15.1,1355.2l844.2,9.4L622.9-598.5z M543.4-593.5
					c-0.1-0.1-12.5,143.3,61.3,238.1c-45.7-7.4-71.9-0.7-98.8,17.8l3.6,3.8c36.9-22.1,68-15.9,99.8-12l-2.1,184.6
					c-0.3,9-38.2,4.5-61.4-13.3c-11-6.7-25.2-20.6-31.5-31c-1.9-3.2-3.9-6.3-4.5-7c-2.1-2.5-15.2-27.5-39.1-74.8
					c-12.2-24.1-28.3-56.9-41.4-82.3c-8.5-16.5-24.2-47.6-25.3-50.1c-2.3-5.2-19.4-39.5-26.1-52c-17.6-33-46.1-90.7-56.2-111.3
					c-2.2-5.4-5.7-7.8,0.5-7.6c1.4,0.1,2.8,0.2,3.6,0.3c1.1,0.6,2.5-1.9,2.5-1.9L543.4-593.5z M-218.4,174.4l0.2-14.5L30-39.8
					l7.7,10.2L-218.4,174.4z M23.8-177.5c-1,0.4-2.1,0.7-3.3,1.1c-6-28.2-2-65.7,5.8-93.9C37.5-309.4,58.1-340.6,81-372
					c52.3-71.6,75.7-125.7,75.8-222.6l7.3,0.9c-0.5,15.3-2.6,26.8-3.4,47.2c-1.2,21.8-1,38.4,1.1,59.8c1,10.5,1.6,17.3-0.1,18.6
					c-0.8,0.7-1.6,4.3-0.9,5.6c-0.2,2.9-0.6,8.7-0.6,8.7C147.7-396.3,82.9-249,23.8-177.5L23.8-177.5z M53-46L40.2-62.1
					c0,0-9.9-8.2-0.8-17.2c26.3-26.1,26.8-59.6,2-90c-1.6-3.8,8.1-23.1,8.1-23.1l19.8,0.5C99.7-153.9,107.3-87.5,53-46z M72.8-194.8
					c0.6-2.6-29.3-1.9-29.3-1.9c18.9-27.5,35-55.8,50.9-84.2c24.6-43,58.8-118.4,69.9-173.2c7.1,64.3,17.4,159.8,72.3,164.2
					c18,1.4,39-10.7,42.4-8.6l114.2,0.4c22.9,47.7,47.7,78.6,77.2,111.4c21.3,12.4,47.3,22.4,72.5,29c14.3,3.7,15.7,1.4,43.9,5.7
					c7.5,1.2,18.9-1.9,18.8-1.9c-22.8,17.6-48.8,12.2-77.4,4.3c-1.6-0.4-3.3-1-5-1.6l-22,32.4c-48.1-12-203.1-5.6-245.8,162.4
					c0,0,4.2,2.2,3.2,1c34.1-145.8,171.4-173.4,236.5-158.2l-5.7,8.5C381.1-119.6,292.2-52.8,270.1,43.1l2.1,1.9
					C314.4-99.8,486-151.7,590.8-49.8l19.6-13.6l-0.8,18.6l-263,215.4l-10.3-10.9c0,0-1.9,1.4-3.9,3.1c-6.8,5.5-9.5,6.9-7.6,10
					c1.8,3.1,9.1,10.3,9.4,11.1c-43.6,34.7-58.1,102.5-17.5,150.5c4.5,5.1,3.7,6.4,2.9,0.7c-36.4-40.5-30.9-111.4,15.4-144.4
					L344,203c-20.7,44.2-32.3,113.3,20.8,119.9c18.5,51.3-4.1,111.5-29,151.8c-26.4,46.4-58.3,84.9-78.5,135.6
					c-9.8,21.1-25.6,83.9-25.4,132.1l-5.7-0.1c0.2-19.6,1.8-42.9,2.1-57.8c1.6-72.6,1.5-68.3,3.1-70.1c0.5-0.6,2.1-1.2,2.2-1.7
					c0.2-0.8-1.2-2.3-1.7-4.1c-0.5-1.8-1.5-5-1.3-7.7c0.1-2.7,2.7-6.6,2.2-7.5c-11-40.2-11.1-112.2-47.7-145.6
					c-17.9-15.8-42-16.7-73.3-4.2c-68.7-0.6-58.6,3-114.1-0.8c-22.5-42.3-49.9-83.6-79.7-114.2c-13.9-15.9-33.4-24.7-51.7-36.3
					c7.5-13.9,16-24.1,25.3-30.6c1.9-2.7,3.3-5.6,5.7-7.9C84.4,273.8,127,93,118.4,97.5l-1.7,1.4
					c-53.2,186.2-235.3,177.4-325.9,95.6c0,0-13.1,11.1-13-1.2c0.1-11.2,4.2-14.4,4.2-14.4L41.4-27.8c4.7,3,9.6,13.1,11.7,12
					c4.8-2.5,11.8-7.4,11.6-10.4c-0.1-2.3-9.2-17-9.2-17C125-113.6,94.4-145.8,72.8-194.8z M174.7-593.6c1.2,0,2.4,0.6,3.3,2
					c1.5,2.5-4.9,16.9-8.7,19.4c-3.7,2.4-3.9-0.4-1.1-14.4C168.9-590.7,172-593.6,174.7-593.6z M551.7-589l60.4,0.7l-2.5,228.4
					C565.8-422.9,543.6-495,551.7-589z M190.7-592.6c1.5,0,2.8,0.4,3.2,1.5c1.5,3.9-7.4,20.4-18.4,34.1c-5.7,7.1-8.5,9.1-10.3,7.4
					c-1.4-3.3-1.4-7.1,3.9-13c4.3-4.9,11.7-16.3,14.7-22.6C185.2-589,186.5-592.4,190.7-592.6z M251.8-591.1c1.7,0,3.5,0,4,0.9
					c10.2,21.3,29.5,40.6,49.4,51.1c2.9,1.7,1.5,5.8,2.4,8.8c-22.5-3.6-51.6-35.8-59.2-59.1C248.3-591.3,250-591.2,251.8-591.1z
					 M286.9-590.8c4.4,4.6,11.4,10.2,12.9,15.4c0.9,3.2,1.6,6.9,0.9,8.6c-3.9,2.4-23.1-20.3-22.3-23
					C280.9-591.4,284-591.7,286.9-590.8z M202.7-592c1.9,0.1,4.8,0,5.2,1.5c2.3,9.8-20.5,47.9-37,58.5c-5.9,3.8-6.2,2.8-5.7-3.7
					c0.4-4.3,0.8-4,6.8-9.6c8.6-8,18.1-20.5,23.3-31.6C202.1-591.1,200.5-592,202.7-592z M218-591.7c2.1,0,4.1,0.8,4.7,1.7
					c0.7,1.3-0.3,3.4-1,5.9c-7.6,20.8-26.3,50.7-48.1,67.6c-8.5,6.4-9.9,6.3-10.4-0.4c-0.3-3.9,1.5-5,5.5-7.7
					c18.5-12.5,35.2-34.3,42.4-56.8c1.4-4.4,0.9-8.3,3.3-9.6C215.3-591.5,216.7-591.7,218-591.7z M331.2-554.2
					c0.9,1.5,7,11.4,1.9,7.6c-2.1-1.7-5.9-6.1-11.9-13.1c-14.2-16.5-14.7-15.5-14.3-19.6c0.2-5.3-3.5-14,4.7-11.7
					C319.5-581.4,324.4-566.1,331.2-554.2z M266-590.8c1.6,0,3.6,0.3,5.2,0.7c9.3,17.9,32.3,33.9,32.2,33.8c0,0,0.5,7.8-0.4,9.1
					c-0.5,2.4-36.5-25.6-40.4-42.2C263-590.5,264.3-590.8,266-590.8z M240.1-590.8c8.3,15.8,25.5,51.5,66.7,66.3
					c3,0.7,6,9.2,3.7,11.5c-22.6-6.8-63.4-29.5-76.9-77.6C235.1-591.9,238.7-591.7,240.1-590.8z M229-587.9
					c-1.4,0,18.8,60.6,78.3,79.3c5.1,1.7,8.1,3.9,7.8,7c-0.5,3.8-0.3,4.3-6,1.4c-16.2-8.7-39.3-12.9-58.8-3.3
					c-3,1.5-6.2,5.7-3.7,8.3c1.4,1.4,4.8,0.4,9.2-1.2c22.6-8.5,57.1-3,63,10.9c4.2,9.8,4.9,17.1,2.5,18.2c-1.8,0.9-4.8-2.4-10.2-7.2
					c-17-15.2-37.4-19.6-53.9-5.4c-3.6,3.1-7,2.5-8.3,3.8c-1.2,1.2,0.2,4.1,1.1,6.8c1,2.9,1.1,3.7,0,6.1c-1.5,3.3-1.6,7.6-1.4,10.7
					c0.3,7.7,5.3,14.4,19.9,24.7c11.3,8,20.2,12.6,6.4,1.2c-23.8-19.7-28-27.7-12.6-20.8c15.5,6.4,37.1,0.4,52.5-11.1
					c5.2,0,8.3-0.9,11,1.1c11.1,26.8,20,62.5,34.7,97.1c-18.3,20.2-81.7,69.5-126.5,67.2c-38.7-2-51.7-65.5-59.8-100.6
					c-2.7-14.8-5.8-30-5.2-50.9c0,0,0.7-0.6,1.7-0.4c6.5,1.3,17.6,2.3,23.3,1c10.3-2.3,12.4-4.1,13-2.6c0.7,1.8-3.6,5.8-11.2,10.8
					c-3.3,2.2-12.8,6.7-11.8,7.3c2.3,1.5,13.8-4.4,15.7-6c3-2.5,5.1-2.7,6.5-1.2c1.7,1.7,2-0.1-3.7,13.6c-6.3,15.1-5.7,16.5,6.1,26
					c4.1,3.3,7.9,6.6,8.8,8c1.1,1.9,1.9,4.1,2.4,4.8c2,2.7,0.8-1.6-0.3-8.6c-1.3-5.1-6.3-10.3-9.8-12.8c-6.5-4.6-5.4-9,0.2-24.4
					c16.4-45.3,12.6-65.7-4.8-75.7c-7.9-4.5-30-3.6-37,2.1c-3.5,2.8-2.9-2.8-2.4-3.2C207.8-534,218-561.4,229-587.9z M309.8-564.7
					c11.8,12,26.5,28.2,35.3,39.7c4.8,6.2,7.4,12.4,11.2,18.9c0.7,1.2,1.5,2.5,0.9,3c-0.2,0.2-1.9-0.8-2.8-1.5
					c-8.7-6.7-44.3-48.2-44.3-48.2C308.5-559.5,307.4-561.8,309.8-564.7z M316.7-536.7c0,0,30.9,34.5,48.6,51.5
					c3.4,7.4,10.1,18.2,9.9,20c-0.1,0.8-3.8-2.1-3.8-2.1c-19.6-18.5-37.6-39.1-56.4-58.8c0.2,0.1-1.4-8.1-1.4-11.3
					C314-539.2,315.9-537.4,316.7-536.7z M383.5-448.5c4.1,6.9,7.1,13.1,9.1,17.1c3.3,6.4,2.1,6.6-0.8,4.2
					c-22.2-18.6-40.6-41.1-61.5-61.7c-2.7-2.8-8.1-9.2-8.1-9.2c0.2,0.2-6.7-14.8-2.3-14.4c3.5,1.4,5.7,5.2,7.9,7.6
					C338.8-493,359.6-472.4,383.5-448.5z M188.9-499.4c9.2-0.2,18.3,2.3,22.8,8c4.1,5.2,5.7,13.4,3.4,15.7c-1.5,1.5-6.5-2.8-6.5-2.8
					c-21.6-12.4-29.1-6.6-41-3.2c-1.7,0.5-3.4-4.1-1.2-8.5C170.8-497.6,181.8-499.3,188.9-499.4z M325.5-486.4
					c23,23.6,46.3,49.7,71.2,70c3.5,3,5.9,5,7.5,6.6c3.2,6.6,10.7,22.4,10.7,22.4c-26.7-19.1-86.7-84.8-86.1-84.3
					C329.5-471.4,323.9-483.6,325.5-486.4z M280-483c4.2,0,8.9,1.4,12.5,2.9c11.7,4.8,19,9.8,6.9,8c-16.8-2.5-22.6-2.7-28.8-1.7
					c-11.5,1.7-12.4,3-13.4,1.1C254.6-477.5,267.2-483,280-483z M184.2-482.7c4.2,0,8.8,1,13.3,3c14.2,6.4,16.7,10.5,4.6,8.4
					c-6.3-1.1-17.9-1.1-26.2,0.9c-2.6,0.6-5.6,2.1-6.3,2.4c-3,0.9-3.7-1.3-2.4-5C169.3-479.3,176.1-482.8,184.2-482.7z M287.6-463.3
					l3,0.3c-3.9,20.9-24.8,18.6-30.2,0.6l3,0C274.1-445.2,282.4-455.2,287.6-463.3z M299.2-462.1c9.6,0,9,5.8-1.1,9.6
					c-7.7,2.9-8.6,2.3-5.7-3.4C295.1-461.4,294.9-462.1,299.2-462.1z M199.8-462.5c0.7,18.9-25.6,22-26.9,1.4l2.5-0.1
					c8.4,16.2,18.5,6.6,21.7-1.4L199.8-462.5z M211.4-459.7c2.9,2.1,1.1,4.8-5.4,8.7c-5.9,3.6-7.3-0.8-2.4-6.9
					C205.6-459.8,208.9-461.4,211.4-459.7z M257-459.3c1.2-0.4,3.8,4.8,1.5,6c-1.4,0.7-3.4-1.4-3.6-2.9
					C254.7-457.5,255.4-458.8,257-459.3z M335.5-457.2c17.3,19.5,34.7,39.1,85.8,81.6c0,0,7.1,13,8.7,18.1c-1.3,1.5-1.9,1.3-5.5-0.5
					c-33.3-26.3-64.3-58.3-88.4-87.9C335-450,332.4-454,335.5-457.2z M168.5-457.1c2,0,4.7,4.4,3.2,7.1c-1.3,1-3.3-0.6-4.1-1.8
					c-0.8-1.2-0.8-3.4-0.2-4.4C167.7-456.9,168.1-457.1,168.5-457.1z M342.5-428.5c-0.1-0.7,80.5,82.9,91,81.5
					c4.8,2.9,16.7,26.6,16.7,26.6c0.3,0.8,0.3,2.1-1.7,1.1c-13.7-7-70.9-55.5-99.9-91.4C346.5-416,344-422.6,342.5-428.5z
					 M245.4-417.4c14.1,7,7.9,21.1-7,11.9c-11.8-7.3-21.1-8.1-21.1-1.9c0,2.6,3.2,6,6.3,6c5.8,0.4,11.1,2.6,16.9,4
					c8.9,2,15.7-0.3,18-5.7c3.9-9.2-5-19.4-11-18.9C241.4-421.5,242.9-418.6,245.4-417.4z M357.8-393.6c-1-0.9,40.1,45.1,96.3,83.4
					c2.2,2.6,7.5,15.8,8.4,17.5c-0.2,1.2-1.5,0-1.5,0c-28.4-16.9-65.9-50.1-101.2-87.7c0,0-3.4-8.3-4.3-13.7
					C356.2-394.4,357.1-393.9,357.8-393.6z M263.2-378.2c-1.3,0.2-3,2.1-5.2,3.2c-4.4,2.4-5.8,3-16.4-0.4c-5.8-1.8-6.7-1.7-10.2,0.8
					c-3.1,2.2-4.7,2.6-8.1,1c-6.1-2.8-8.9-0.8-14.6,1.1c-5.4,1.9-7.2-0.5-12-1.7c-0.6,0-1.1,19.5-0.5,20.1c0.2,0.2,5.1-2.9,7.8-4.2
					c4.7-2.3,4-2,10.9-1.6c10.1,1.9,20.1,1.4,26.9-1.2c8.4-2.3,15-1.8,20.8,3.1c3.5,2.9,8.2,2.5,5.5-2.8c-0.9-1.8-3-8.6-2.7-11.2
					c0.4-3.8-0.4-6.2-1.8-6.3C263.4-378.2,263.3-378.2,263.2-378.2z M370.9-361.8c18.9,18.6,42.2,46.8,97.3,79.9
					c2.8,5.1,6.7,11.9,9.1,17.2c0.2,1.5-0.2,2.8-1.6,2.2c-34-22.1-53-32.9-100-80.3c-2.9-4.8-6-12.9-8.3-19.5
					C367.9-364.2,370.1-362.3,370.9-361.8z M362.7-354.9l20.8,40.1l-71.5-0.9C330.3-326.4,347.8-340.6,362.7-354.9z M244.2-355.3
					c-11.8,4.5-13.6,5.5-25.2,2.5c-6.8-1.7-4.9,2.2-1.5,3.9c8.7,4.2,21.5,1.5,26.2-1.7C246.9-352.6,249.1-357.2,244.2-355.3z
					 M232-343.2c-12.3,0-23.9,4.2-24.9,9.2c-0.2,1,0.8,2.1,2.7,0.9c8.4-4.9,29.1-6.3,44.7-0.5c2.5,0.9,3-0.6,0.4-2.8
					C249.2-341.3,240.4-343.2,232-343.2z M387.8-324.4c22.9,21.6,45,41.5,94.5,70.6c3.5,7.9,8.6,17.3,9.5,18.1
					c-46.4-23.2-96.8-68.4-96.8-68.4s-7.9-14.3-9.6-20.5C385.3-326.6,387.2-324.9,387.8-324.4z M403.4-291c0,0,42.2,36.5,90.5,61.5
					c1.9,1.9,6.7,13.6,8.3,14.8c1.6,1.3-1.9,1.2-5.4-0.6c-25.3-12-79.4-50.1-79.4-50.1C412.2-273.9,404.9-282.9,403.4-291z
					 M-108.1-146.1c4-8.3,8.1-17.5,10.7-25c11.6,0.2,17.3-4,21.5-9.2c5.9-0.1,10.4,0,18.4-0.2c-0.2-7.9,0.3-19.1,0.3-19.1
					c8.2-8.3,13.8-17.8,1.4-32.8c0,0-0.4-6.9-0.5-18.6c-5.8-1-18.8-0.5-18.8-0.5c-10.3-14.9-29-11.4-34.8-0.4c0,0-8.4,0.4-14.1,0.3
					c-0.2,3.1-1.3,17-1.3,17s-24.7,16.4,0.5,36.4l-0.5,16.5c4.7,0.4,8.2,0.2,14.4,1.4c0,0-10,22.5-16.5,33.1
					c-2.2,0.5-1.7-0.7-4.2-8.2c-3.1-8.9-10.2-18.6-16.2-23.4c-8.2-6.5-19.5-8.6-27.3-14.2c-7.5-5.4-12.8-12.4-15.3-11.1
					c-0.8,2.7-1.9,18.1,0.9,28c3.9,16.3,27.2,27,46.7,35c1.5,1,2.8,2.5,2.8,3c0,2.7-2.6,1.8-9,1.1c-9.7-1.1-13.7,1.5-17.2,9.8
					c-1,2-3.5,5.5-5.5,7.8c-2,2.3-4.1,4.6-4.4,5.6c-0.3,1-2.4,6-4.4,10.2c-1.3,2.6-3.3,5.3-3.5,9.1c-0.6,11.7-0.9,27.4,0.7,37.3
					c1.2,7.3,10.3,11.6,13.5,12.2c4.8,1,5.7,5.9,4.9,9.9c-4,19.8-15.5,31.8-19.1,25.3c-0.9-1.7-1.9-9.8-2.1-9.8
					c-0.2,0.1-2,6.9-1.4,9.7c0.7,3,4.5,5.2,8.3,3.9c5.6-2,10.1-7.4,13.7-20c1.5-5.1,2.9-8,5.3-8.3c4.4,0.4,11.2,9.5,11.2,9.5
					c-23.1,18.8-67.5,53-67.5,53l7-625.6l361.5,4c1.5,49.6-5,91.8-23.3,135.8c-21.6,47.4-54.8,82.4-80.4,125.9
					C17.1-279.1,6.8-224.4,16.5-169.1c-31.4,40.1-57.6,59.3-82.6,77.8c0,0-18.3-19.7-28.5-30.7c0,0,4.4-0.3,9.4-0.5
					c23.5-2.4,49-5.4,59.1-29.8c1.4-2.7,0.9-3.9-0.8-4.3c-18.4,2.3-34.4-0.4-44.8,0.2C-97.2-154.8-108.1-146.1-108.1-146.1z
					 M-105.5-128c0,0-29.4-14.4-31.6-14.8c-12.8-2.5-43.7-19-48.8-30c-0.7-1.4-2.2-21.5-2.7-25.6c0.2-1.3,0.7-1.3,2-0.3
					c3.3,2.3,16.1,10.8,20.8,13.2c19.5,9.7,27,16.6,31.7,31c1.2,3.6,2.4,7.4,3.1,8.1c1.6,1.7,2.2,1.6,4.2,0.1
					c8.5-10.8,12.6-19.8,16.6-31.4c0.5-1.3,1.6-2.6,1-4.5c-1.5-5.2-5.2-11.9-1.3-16.9c-12.3,0.4-23.9-8.7-22.3-17.7
					c3.5-16.6,10.5-13.5,23.8-15.8c-1.1-38.6,34.9-28.8,34.5-2c39.6,3.8,20.5,40.2-2.5,34.4c8.9,20.9-18.6,28.4-22.4,24.8
					c-1.6,6.7-12.3,28.3-14.6,34.7c29.6-20.5,76.7-10.7,83.6-12C-48-117.2-103.6-126.5-105.5-128z M424.7-253.5
					c7.4,5.8,70.2,46.1,81.8,47.1c0,0,5.5,6.3,10.1,12.1c4.2,5.4,5.8,6.2,6.3,7.3c0.5,1.1-1.6,1-2,1c-28.3-12.7-57.1-26-81.5-46.8
					c-3.3-2.9-4-4.1-5.6-6.3C431.7-242.1,425.3-252.4,424.7-253.5z M445.3-221.4c28.7,16.6,53.1,32.6,79.4,41.4
					c3.7,1.5,5.7,1.6,7.5,2.9c1.9,1.3,9.8,6.4,11.7,7.5c11.9,7.2,13.2,6.9,10.2,8c-3.3,1.3-24.4-5.1-42.1-11.9
					c-31.5-12.1-42.6-18.8-54-29.3C455.5-205.4,443.6-219.9,445.3-221.4z M-132.2-137.2c2.4,0,6.3,1.5,10.3,4.7
					c4.3,3.4,14.9,10.5,19.3,12.4c2.2,1,2.9,1.2,2.9,1.2l28.1,32.6l-73.9,58.7c0,0-5.9-6.1-7.7-8.2c-1.8-1.9-1.2-3.5,1-5.7
					c1.8-1.7,2-5.5,1.7-7.4c-0.4-2.8-0.3-5.9,3.2-8.4c2.8-2,3.3-5.7,3.2-6.7c-0.1-0.8,1.6-3.4,4-5.2c5.2-3.7,6.8-8.2,5.1-13.6
					c-0.7-2.3-1.1-2.8,1.9-4.8c5.3-3.4,6.6-6.7,7.1-11.8c0.1-0.8-0.1-1.7-0.2-2.3c-1-5.4,3.8-4,7.6,2.8c2.1,3.7,2.6,9.8,3.6,16.7
					c1.2,8.2,2,10.4,2.5,9.3c2.6-6.6-0.1-31.3-7.6-34.7c-10.9-5-20-15.1-17.2-19c1-1.3,1.1-0.9,7.8,2.3c3.9,1.9,7.5,3.4,8.1,3.4
					c7.8,0.3,3.1-3,0.6-3.4c-3-0.5-12-6.1-13.1-8C-135.6-135.5-134.6-137.1-132.2-137.2z M-151-133.1c7.2,0,8.5,1.9,8.5,8.1
					c0,3.6,1.3,6.5,6.9,13.8c2.3,3,3.8,5.3,3.7,6.4c-0.3,1.9-0.9-0.1-8.8-1.1c-2.8-0.4-4.2-0.4-5.2,1c-2.8,4-8.5-0.3-11.9-6.2
					C-166.1-125.4-163-133.1-151-133.1z M-14.8-123.1L62-27l-8.9,6.7l-77.1-94.8L-14.8-123.1z M-27.8-117.4l8.2,14.2
					c0,0-24.3,20.3-30.8,26.1C-102.1-36.2-218.8,56.7-218.8,56.7l-1.3-19L-27.8-117.4z M-168.4-116.4c1.5,0.1,3.2,2,5.7,5.8
					c2.1,3.3,6.6,9.9,11.4,14.4c9.4,8.8,10.3,8.1,2.6,8.8c-3.1,0.3-4.1-0.1-6,4.6c-5.7,7-22.1-18.4-18.1-28.1
					C-171.2-114.6-169.9-116.5-168.4-116.4z M-141.4-102.5c1.4,0,3.3,0.5,5.4,1.8c4.1,1.7,4.4,2.7,3.7,6.7c-0.7,3.8-3.6,4.7-9.2-0.3
					C-145.7-98.4-145-102.3-141.4-102.5z M-17.2-98.8l9,11.9L-217.3,78.7l0.2-19.3C-212,60.1-77.9-54.1-17.2-98.8z M-178.2-98.6
					c0.6-0.1,1.4,1.8,3.7,5.3c4.6,7.1,8.9,11.8,13.7,15.6c4.6,3.5,5.1,5.5,1.9,5.5c-1.4,0-3.2,1.4-4.2,3.1c-2,3.4-2.2,2.6-5.2,0.7
					c-4.3-2.6-8.6-6.5-10.3-11.5c-1.6-4.8-1.7-12-0.3-17.2C-178.6-98.1-178.4-98.6-178.2-98.6z M-145.5-84.9c5.3-0.1,9,6.1,5.5,11
					c-2,1.9-3.7,2.8-7.6,0.4c-5.1-3.1-6-7.7-1.7-10.3C-148.1-84.5-146.8-84.8-145.5-84.9z M-179.7-71.9c1.1,0,3.1,1.6,6.4,5.1
					c2.6,2.7,7,5,8.8,6c4,2.3,4.2,3.1,2,4.8c-0.9,0.8-4,0.8-4.9,3.2c-2.5,6.9-12.5-1.3-13.3-11.2C-181.2-69.1-181.2-71.9-179.7-71.9
					z M-154.4-70.8c6.6,0.4,9.7,8.1,4.3,11.8c-2.9,2-10.1-1.7-10.8-5.5C-161.3-66.9-156.9-70.9-154.4-70.8z M0.3-63.4
					c3.8,0,6.9,3.2,6.9,7c0,3.8-3.2,6.9-7,6.9c-3.8,0-6.9-3.2-6.9-7C-6.7-60.3-3.5-63.4,0.3-63.4z M-20.5-60.7c3.8,0,6.9,3.2,6.9,7
					c0,3.8-3.2,6.9-7,6.9c-3.8,0-6.9-3.2-6.9-7C-27.5-57.7-24.3-60.8-20.5-60.7z M-159.8-53c0.4,0,0.9,0,1.3,0
					c6.4,0.4,6.6,6.5,2.8,9.7c-2.3,1.9-4.3,2.5-7.3,0.1C-168.1-47.4-166.1-52.7-159.8-53z M-5.2-41.1c3.8,0,6.9,3.2,6.9,7
					c0,3.8-3.2,6.9-7,6.9c-3.8,0-6.9-3.2-6.9-7C-12.2-38.1-9.1-41.1-5.2-41.1z M605.1-33.9l-0.2,17.6L357.3,185.1l-8.2-10.9
					L605.1-33.9z M-19.4-39.3L-37.9,1.2l-5.3-10.6l-13.6-0.2l4.3-12.1l-7.9-9.8L-19.4-39.3z M365,134.4l32.6-25.5
					c-13.1-70.3,42.7-97.6,95.2-76.6l33.1-27.6C465.6-47.2,322.1-14.1,365,134.4z M-70.4-7.5c3.8,0,6.9,3.2,6.9,7
					c0,3.8-3.2,6.9-7,6.9c-3.8,0-6.9-3.2-6.9-7C-77.4-4.5-74.2-7.6-70.4-7.5z M-91.5-6.1c3.8,0,6.7,3,6.7,6.8c0,3.8-3,7.2-6.8,7.1
					c-3.8,0-6.9-3.2-6.9-7.1C-98.5-3-95.4-6.1-91.5-6.1z M20.6,9.3l-32.3,25.3c7.5,67.3-25.5,101.1-95.5,77.3l-34.3,26.6
					C-50.4,202.6,70.6,122.5,20.6,9.3L20.6,9.3z M-78,14.3c3.8,0,6.9,3.2,6.9,7c0,3.8-3.2,6.9-7,6.9c-3.8,0-6.9-3.2-6.9-7
					C-85,17.3-81.8,14.2-78,14.3z M595.6,23.5c3.8,0,6.9,3.2,6.9,7c0,3.8-3.2,6.9-7.1,6.9c-3.8,0-6.9-3.2-6.9-7
					C588.6,26.5,591.7,23.5,595.6,23.5z M-92.4,17.5l-20.9,40.3l-5-12.3l-13.7,0l4.6-14.1l-8.5-7.4L-92.4,17.5z M568,29.1l6.2,10.8
					l13.4,0.5l-5.2,10.1l9.6,10.1l-43.9,10.3L568,29.1z M-141.6,50.6c3.8,0,6.9,3.2,6.9,7c0,3.8-3.2,6.9-7.1,6.9
					c-3.8,0-6.9-3.2-6.9-7C-148.6,53.7-145.5,50.6-141.6,50.6z M-161.6,51.2c3.8,0,6.9,3.2,6.9,7c0,3.8-3.2,6.9-7.1,6.9
					c-3.8,0-6.9-3.2-6.9-7C-168.6,54.2-165.5,51.2-161.6,51.2z M533.7,63.1c3.8,0,6.9,3.2,6.9,7c0,3.8-3.2,6.9-7,6.9
					c-3.8,0-6.9-3.2-6.9-7C526.8,66.1,529.9,63,533.7,63.1z M604.8,64.9l-0.2,15.4l-201,163.4l-8.3-10.8L604.8,64.9z M-147.9,71.6
					c3.8,0,6.9,3.2,6.9,7c0,3.8-3.2,6.9-7,6.9c-3.8,0-6.9-3.2-6.9-7C-154.9,74.7-151.8,71.6-147.9,71.6z M547.8,81
					c3.8,0,6.9,3.2,6.9,7c0,3.8-3.2,6.9-7,6.9c-3.8,0-6.9-3.2-6.9-7.1C540.8,84.1,543.9,81,547.8,81z M528.1,82.1
					c3.8,0,6.9,3.2,6.9,7c0,3.8-3.2,6.9-7,6.9c-3.8,0-6.9-3.2-6.9-7.1C521.1,85.1,524.3,82,528.1,82.1z M605.7,85.4l-0.8,19.6
					c-62.6,52.2-190.7,155.9-190.3,156l-9.4-13.3C405.2,247.6,545.7,129.3,605.7,85.4z M-160.7,74l-19.6,43l-8.1-11.7l-12.1-1
					l3-11.7l-11-7.7L-160.7,74z M502.9,98.4l12.3-2.2l-2.3,12.5l8.5,9.1l-45.1,9.4l22.2-40.1L502.9,98.4z M567.9,309.6
					c9,13.8,8.2,28.7,4.4,30.9c-4-2.3-7.5-6.3-11.6-8.1c-20.9-9.3-37.5-16.9-40.4-30.2C509.2,271.9,560.4,298.1,567.9,309.6z
					 M458.5,228.4l71.2-56.7c0,0,10.8,5.7,12.8,8.3c0.7,2.8-1.3,3.6-4.2,6.2c-1.3,1.7-2.2,3.3-2.3,7c-0.1,3.9,1.2,5.7-0.5,7.4
					c-2.7-0.2-4.8,3.3-4.7,6.1c0.1,2.1-2.8,4.5-4.4,6.1c-2.9,2.8-3.8,3.4-5.8,13.1c-0.2,1-0.2,3.5-1.5,4.8c-4.1,0.3-7.2,10.3-9,10.9
					c-3-0.2-7.7-3.9-8.8-9.3c-0.7-3.5-0.4-10.3,0.4-14.7c1-5.2,1.5-9.9,1.2-11.2c-0.7-2.9-2.7-1.1-2.7,2.9c0,1.7-0.7,6.6-1.8,11.3
					c-1.1,4.7-4,10.9-2.8,14.6c1.9,5.5,8.9,7.9,12,10.9c8.3,7.8,10,11.5,11,13.2c6.5,12.3,6.5,14.4,4.8,23.5c-1,5.3-6.2,4.3-9.2,2.1
					c0,0-19.7-14.7-28.2-21.9C473,252,463.9,240.8,458.5,228.4z M484.8,268.2c7.5,3.1,27.1,17.7,27.1,17.7L493.5,323
					c3.2,5.9,4.4,20.4,4.4,20.4c22.7-1.5,34.6,36.9-0.7,33c3.8,23.7-34.5,41.8-33-0.6c-39.7,2.6-25.9-42.2-1.5-33.5
					c-0.5-19.1,12.2-21.4,21.2-26c7.4-8.2,12.2-27,12.2-27l-1.7-5.8l0,0c-7.7,13.1-39.8,16.5-74.9,9.1
					C429.2,270.3,458.1,271.2,484.8,268.2z M414.5,295.8c-1.2,4.5-1.3,4.4,4.2,3.9c2.7-0.2,13.8-0.1,21.5,0.3
					c14.2,1.3,36.5,1.6,47.7-6.8c2.2-2,3.4-1.9,3.8-0.8c0.9,5.5-10.2,23.5-10.2,23.5l-18,9.7c0,0-7.3,0.3-16.4-0.1l-0.3,16.1
					c-7.2,4.1-19.6,22.1-0.1,36.1l-0.8,17.6L463,396c11.4,11.1,20.7,11.2,31.4,0.9l20,0.2l0.1-19c9.9-7.8,11.5-21.2,1.5-32.1l0-19.3
					l-15.4-0.1c0,0-3.1-2.5-3.2-4.4c0-1.3,11.5-22.8,13.7-25.9c2.8-4,2.1-1.7,6.4,7.6c6.3,13.3,12.5,18.8,28.6,26.8
					c14.4,7.2,19.5,10.5,23.7,14.5c3.3,3.2,5.3,2.2,6.6-2.5c2.9-10.5,2.2-21.2-3.6-30.9c-12.1-20.6-33.5-21.8-36.8-26.5
					c-0.4-1.1,3.9-2.4,8.7-4.4c8.2-4.8,20.2-19.6,21.8-25.6c-0.2-2.9,1.8-12,3.2-13.9c1.7-3.5,1.9-5.2,1.9-14.8
					c-1.4-5.5,0-12.6,0.7-15c0.8-5-1.8-10.9-5.5-18.1c-1.3-6.7-1-5,3.5-20c0.7-2.4,5.8-23.3-0.4-24.8c0.1,0.2,0.6,0.8,0.8,1.2
					c1.9,6.9,0.6,13.3-1.1,19.6c-5,16.8-5.2,18.8-9.6,17.3c-1.2-0.4-9-6.5-9-6.5s0-7.9,1.7-15.7c-1,2.6-1.7,9.5-4.8,11.1
					c-1.7,0.4-3.9-1.1-8.2-4.9c-1.6-1.4-5.1-3.9-5.1-3.9s50.6-42.4,69.7-56.4l-7.1,635.8l-359.8-3.9c-4.1-39.4,8.4-91.4,28.5-143.4
					c12.5-32.1,30.2-55.9,50.1-84.5c38.2-54.6,67.3-110.2,57.2-181.2c-1.3-10.5-2.7-15.6-2.2-18.4c4.7-8.5,23.1-34.4,36.5-45
					c19.6-15.7,47-39.1,49.1-37.7c6.3,12.5,13.9,22.7,23.9,30.5c1.8,2,1.8,3.7-2.3,4.5C451.4,266.6,423.7,272.1,414.5,295.8
					L414.5,295.8z M-209.6,108.2c3.8,0,6.9,3.2,6.9,7c0,3.8-3.2,6.9-7,6.9c-3.8,0-6.9-3.2-6.9-7
					C-216.6,111.2-213.4,108.2-209.6,108.2z M464.4,117.3c3.8,0,6.9,3.2,6.9,7c0,3.8-3.2,6.9-7,6.9c-3.8,0-6.9-3.2-6.9-7
					C457.4,120.3,460.6,117.2,464.4,117.3z M479.3,136.5c3.8,0,6.9,3.2,6.9,7c0,3.8-3.2,6.9-7,6.9c-3.8,0-6.9-3.2-6.9-7
					C472.4,139.6,475.5,136.5,479.3,136.5z M456.8,139.2c3.8,0,6.9,3.2,6.9,7c0,3.8-3.2,6.9-7,6.9c-3.8,0-6.9-3.2-6.9-7
					C449.8,142.3,453,139.2,456.8,139.2z M431.8,154.8l12.6-0.5c-1.6,4.5-2.5,9.2-3.5,13.8l10.2,7.6l-44.4,7l19.5-39L431.8,154.8z
					 M400.3,268.9l-73.5-97.1l9.1-7.2l74.1,96.1L400.3,268.9z M392.3,175.2c3.8,0,6.9,3.2,6.9,7c0,3.8-3.2,6.9-7,6.9
					c-3.8,0-6.9-3.2-6.9-7C385.3,178.3,388.4,175.2,392.3,175.2z M548.8,187.8c6,4.8-0.1,11.3-5.9,8.6c-5-2.2-4.6-7.2-0.6-9.2
					C544.8,186,546.7,186.3,548.8,187.8z M556.8,192.3c6.2,0.2,12.9,14.9,11.6,19.2c-1.9,5-3.6,5.2-12.3-2.3
					c-8.6-7.4-8.7-7.7-5.1-11.6C552.9,195.4,553.9,192.4,556.8,192.3z M409.2,193.4c3.8,0,6.9,3.2,6.9,7c0,3.8-3.2,6.9-7,6.9
					c-3.8,0-6.9-3.2-6.9-7C402.2,196.4,405.4,193.3,409.2,193.4z M387.7,195.8c3.8,0,6.9,3.2,6.9,7c0,3.8-3.2,6.9-7,6.9
					c-3.8,0-6.9-3.2-6.9-7C380.7,198.8,383.8,195.8,387.7,195.8z M540.2,202.5c6.8,1.1,8.6,6.3,5.4,10.1c-4.3,5.2-13.9,0.3-11.6-5.9
					C535.1,203.9,537.7,202.5,540.2,202.5z M552.5,210.4c2.7-0.2,6.7,3.6,11,9.8c4.9,7,5.3,9.2,3.8,13.4c-2.1,6.1-3.4,7.2-7.8,1.2
					c-1.7-2.3-5.5-7.6-8.3-10.6c-5.9-6.3-6.8-4.7-3.2-9.5C549.7,212.6,550.8,210.6,552.5,210.4z M536.3,217.5
					c6.1,3.2,6.7,7.4,3,10.3c-4.3,2.3-11.8-0.6-13.3-4.8C523.9,216.8,530.5,213.7,536.3,217.5z M546.6,226.8
					c3.5-0.2,6.3,3.4,10.5,10.4c7.1,11.8,7.5,15.8,1.2,23.4c-4.5,5.5-5,5.8-9.2-3.1c-3.5-7.3-10.2-15.8-16.4-21
					c-2.6-2.2-3.5-5.1-1.6-5.3c0.5-0.1,2.9-0.1,5.2-0.2c3.4-0.1,4.6-0.5,6.4-2.3C543.9,227.5,545.2,226.9,546.6,226.8z M521.5,235.7
					c3.2-0.1,7.4,1.7,10.5,5.3c3.5,3.8,3,7.2-3.9,7.8c-3.1,1.2-11.6-4.5-11.6-8.2C516.5,237.4,518.6,235.8,521.5,235.7z
					 M537.7,249.4c0.2,0,0.3,0,0.5,0c2.9,0.2,4.4,3,7.6,9.6c4.9,10.2,3.4,15.6-5.3,20c-5.9,3-10.4,3.8-11.2,0.3
					c-0.2-1-0.2-3.9-0.6-6.7c-0.6-3.8-1.4-7.7-4.7-12.7c-5.2-8.1-6.1-10.9-0.3-8.5c3.1,1.3,6.4,1.2,10-0.6
					C535.2,250,536.5,249.5,537.7,249.4z M508,265.3c-2-0.1-3.3,1.2-2.8,4.5c1.8,0.9,4.7,0.1,6.9,0.9c2.9,1.1,4.7,5.9,7.9,5.2
					C520.4,271.9,512.5,265.5,508,265.3z M-94.4,329c-16.2-7.9-56.2-26.3-75.6-26.8c-35.8-10.5-37.1-5.9-49.7-9.3
					c66.9-16.6,111.3,17.2,127.9,33.6C-84.2,334.2-88.4,332-94.4,329z M-53.7,486.8C-16.2,553.4,18.5,628.5,77,739.8l-5.8,1.7
					l-227.7-2.1c12.6-122.1-52.1-239.3-56.6-234.8c51.6,1.5,94.5-7.9,103.8-26.8l-7.3-2.2c-30.3,25.6-75.3,26.3-105.2,17.9
					c1.4-63.7-0.5-131,2.2-194.6c35.5-2.2,63.7,11.1,83,37.2C-104.1,380.1-82.4,435.7-53.7,486.8z M-156.1,309.2
					c9.1-0.6,58.7,20.5,80.9,36c6.1,6.5,15,17.7,15,18.8c0,3-4.4-0.7-25.8-13.3c-16.2-9.3-33-16.9-49.4-24.1c-0.8-0.3-2.3-1-2.3-1
					s-1.2-1.4-3.3-3.1C-146.7,318-158,309.8-156.1,309.2z M-132.2,332.7c-0.5-0.1,49.2,18.5,88.6,50.6c5.2,4.3,11.5,20,11.5,20
					c-3.5-6.7-65.8-44.9-87.7-53.8C-119.8,349.5-132.2,332.7-132.2,332.7z M-114.8,356.9c2.7-1.6,75.3,42.3,85.8,53.6
					c4.8,3.8,16,21.9,16,25.5c0,3.2-3.5,0.4-10-5.7c-33.3-31.8-81.6-56-82-55.5L-114.8,356.9z M-101.6,382
					c34.1,14.9,76.8,50.2,98.3,71.3c5.4,5.4,9.2,13.3,9.9,16.9c0.4,2.3-0.7,2.1-1.2,3.3c-27.8-32.6-89.3-70.2-97.5-73.2
					C-92,402.3-98.7,387.7-101.6,382z M11.1,484.1c3.9,4.1,10,18.2,8.6,19.9c-0.7,0.8-0.6,0.4-2.3-0.8c-8.9-9.1-54.8-50.7-93.1-74.1
					c-3.6-1.9-15.6-21.2-13-21.5C-68.5,414.4-11.3,461.2,11.1,484.1z M-71.9,437.3c0.7,0.1,1.9,0.9,3.9,2.1
					c35.3,20,86.3,69.9,95.9,81.9c2.2,3.7,5.6,10.4,5.3,14.5c-0.5,3.2-1.7,0.5-15.9-13.8c-22.8-22.9-49.1-45-77.1-63.7
					c-5.4-3.8-4.3-4.2-8.2-11.1C-71.8,440.2-73.4,437.2-71.9,437.3z M155.3,440.6c25.4,1,35.1,20.3,50.3,55.9
					c12.4,35,17.3,67,17.6,92.5c0,1.7-3.1,0.2-4.5-0.2c-6.8-1.9-15.2-3.7-25-1.3c-7.2,1.7-14.1,1.5-6.6-3.3
					c2.4-1.5,8.9-7.4,12.4-9.5c7-4.3,2.8-4.2-4.2-0.9c-5.3,2.5-8.8,5.7-10.9,6.2c-1.3,0.3-0.5-4.1,0.9-7.2c7.6-18.1,9.9-28.8-1-32.3
					c-3-0.9-6.9-3.7-8.8-5.6c-1.5-1.5-2.7-7.4-3.2-7.6c-0.5-0.3-0.9,5.3-0.9,6.2c0,2.9,3.7,8.9,8.1,12.1c7.6,5.6,9.1,7.1,4.8,20
					c-6,18.1-7.3,22.6-8.4,26.8c-0.6,2.4-1.9,6.5-2.5,9.2c-2.4,10.3-2.2,19.3-1.9,27.9c2.3,19.2,22.8,28.8,50.6,18.5
					c2.6-1,3.7-0.1,3.7-0.1c-22.3,22.2-47.2,36.2-62.2,81.4c-18.1-37.6-44.1-67.2-87.6-79.4l-0.6-7.8c15.2,7.5,44.6,17.7,63.5,6.8
					c10.1-6.7,7.1-11.2-5.1-6.6c-14.6,5.5-40.8,4.5-53.8-3c-2.6-1.5-5.4-0.3-6.1,0c-0.6-4.4-6.7-21-5.8-27.3c-0.5-0.9,4-0.9,4.9,0.3
					c3.6,4.9,21.8,19.5,40.9,18.6c9.5-0.5,17.3-3.3,25.7-11.9c0.7-0.6,4.1-1,4.5-1.5c0.7-0.8,0.2-2.1,0.2-2.5
					c-0.2-0.7-1.4-2.5-2.2-4.5c-1-1.8-1.2-3.7-1-5.1c0-1.2,0.8-1.8,1.5-2.6c0.7-1.6,0.6-3.6,0.2-4.7c-1.7-1.2-1.5-3.3-0.5-4.3
					c2.6-2.9-22-25.8-26.8-25.8c-1.8,0-0.8,3.2,2.8,5.7c12.5,8.5,21.6,19.6,19.5,21c-1.6,1.1-7.2-1.4-13-2.8
					c-11.5-2.8-25.4-4.7-40.5,6c-5.7,4.6-20.6,5.1-20.6,5.1c-0.1-8.1-33.3-98.9-33.4-95c12.6-14.4,52.1-48.3,91.5-62.7
					C133.7,441.2,146.6,439.3,155.3,440.6L155.3,440.6z M6.5,459.2l71.1,1.9c-18,8.8-50.9,40.7-50.9,40.7
					C17.7,483,14.9,473.6,6.5,459.2z M-55.2,467.8c5.3,0.1,61.3,46.7,69.2,57.7c1,1.3,6.6,7.4,12.6,13.5C41,553.9,47,562.4,47,568.5
					c0,2.9-2.6,1-6.4-3.4c-28.9-32.8-47.7-50.7-83.6-76c-4.1-2.2-16.6-19.3-12.3-21.2C-55.3,467.9-55.2,467.8-55.2,467.8z
					 M137.9,478.5c-1.6-0.1-1.3,1.5-0.5,2.9c8.9,8,32.5,7.9,40.8,1.6c7.5-5.7-2.3-2.8-5.3-1.5c-7.1,3-14.7,2.5-24.5-0.2
					C142.7,479.7,139.5,478.5,137.9,478.5z M159.6,491.6c-8.3,0-17,2.4-15.1,5.4c0.7,1.1,2.9,3.2,8.4,0.3c7.9-3.8,23.8,1.5,24.3,1.6
					c1.6,0.4-5.3-4.7-7.6-5.7C167.1,492.1,163.4,491.6,159.6,491.6z M-39.9,498c30.1,18.9,66.7,56.5,88.6,83.3
					c3.6,4.6,6.2,10.3,6.2,13.6c0,4.8-1,2.1-20.9-18.5c-15.6-16.4-39.2-38.6-54.9-50.7c-9.4-7-11.1-7.9-15.5-16.2
					C-40.4,501.7-41.9,497.9-39.9,498z M149.2,506.3c-5.7,2.7-13.3,2-20.6-0.6c-6.7-2.4-5.1-0.4-2.7,6.9c1.1,3.3,1.8,8,1.8,8.7
					c0,1.6,0,1.7,4.7-0.8c4.1-2.2,5-3,13.7-0.9c8.9,2.2,9,1.4,13.2-0.7c3.7-1.9,4.4-3,6.9-2c4.9,2,10.4,2.9,16.7-0.3
					c4.8-2.5,6.4-0.8,8.6,0.4c3,1.5,4.2,0.6,3-2.4c-0.5-1.2-1.3-6.3-1.3-8c0-3.1-0.7-5.9-2-5.2c-4.8,2.4-8.7,4.9-13.3,4.7
					C169.5,505.9,162.3,500.7,149.2,506.3z M-222.1,508.5c74.6,95.1,61,230.8,58.5,229.7l-61.1-0.4L-222.1,508.5z M-24.2,529.8
					c30,21.5,65.5,58.9,85.2,84.6c3.3,4.5,0.6,5.8,2.2,11.1c0.6,2-2.7-1-12.2-11.4c-11.8-13-31.3-32.5-44.1-43.9
					c-14-12.4-18.1-15.6-21.1-19.8C-16.5,547-26,530.2-24.2,529.8z M145.8,540.3c-0.3,0-0.6,0-0.9,0c-10.8,0.4-16.4,12.4-7.2,21
					c3.4,3.2,8.9,5.2,8.9,3.5c0-0.4-1.7-2.2-2.9-3.1c-7.6-6-6.7-15.2,2-15.2c3,0,3.2,1.1,10.2,6.2c8.2,6,17.9,6.1,17.8,0.2
					c0-4.4-1.6-8.9-9-8.2c-1.9,0.2-4.5,0.3-6.8-0.3c-2.2-0.6-4-1.9-4.8-2.3C150.5,540.9,148,540.4,145.8,540.3z M-4.9,566.4
					c22.9,15.8,54.3,51.2,70.3,72.1c3.7,4.9,3.9,10.3,2.3,13.1c-0.4,0.6-3.2-1.2-3.2-1.2C46,628.1,24.9,607.7,4.3,587.1
					C4.3,587.1-7.9,567-4.9,566.4z M218.8,602.5l-5,2.4c-7.4-11.4-14.4-11.7-20.3,1.5l-3.7-1C187,602.4,200.1,573.7,218.8,602.5z
					 M217.8,592.8c2.1,0.1,5.7,1.3,6.5,3.4c0.9,2-0.2,4.2-3,4c-0.4,0-3.2-3.4-4.5-5.5C215.8,593.4,216.2,592.7,217.8,592.8z
					 M132.7,605.7l-5.6,0.2c-10.5-14.1-18.6-4.8-23.4,1l-6-0.9C98.9,590.6,126.1,585.6,132.7,605.7z M187.3,594.4
					c0.8,0,1.7,0.2,2.4,0.5c-2.2,3.3-2.6,6.1-3.2,9.1c-2.2,0.9-5.3,2.7-7.6,0.3C174.7,600.3,181.4,594.2,187.3,594.4z M99.9,595
					c2.6,0,1.9-0.1,0.7,1.3c-1.2,1.5-2.8,4.1-3.7,6.5c-0.4,1.6-0.7,2.2-2.2,2.3c-3,0.1-8.9-1.1-8.9-1
					C83.6,601.9,93.1,595.1,99.9,595L99.9,595z M133.7,597.3c1.8-0.2,1.3,2.3,0.8,3.3c-1.1,1.3-1.6,1.7-2.2,0.1
					c-0.3-0.8-0.7-1.4-1.1-1.9c-0.9-1.1-0.8-1.2,0.3-1.4C132,597.3,133.1,597.3,133.7,597.3z M224.9,609.5c6.5-0.1,2,10.9-7.1,13.5
					c-10.1,5-21.5,3.6-33.1-3.2c-6.6-3.9-8.6-7.9-2.8-6.2c21.8,6.3,27.1,5.2,40.4-3.2C223.2,609.7,224,609.6,224.9,609.5z
					 M14.6,604.7c21.6,18.7,37.7,39.7,54.9,59.2c3.4,4.3,5,8.5,4.3,11.3c-0.9,3.5-7.9-4.9-7.9-4.9c0.2,0.1-42-45.9-42-45.9
					S13.3,604.8,14.6,604.7z M79.6,611.8c1.5,0.1,4.5,0.8,9.3,2.1c20.9,6.6,27.2,6.4,39.3,1c7.7-3.4,10.9-2.9,7.5,2.4
					c-6.1,9.7-27.5,10.5-43.4,4.9c-4.2-1.5-7.9-4.1-12-7.2C78.2,612.8,77.7,611.7,79.6,611.8z M176.1,619.4c1.2-0.1,3.6,1.4,6.4,3
					c17.4,10.1,30.4,8.5,41.3,1.9c2-1.8,3-0.9,3.3,0.8c0.9,6.1,1.1,10.4-1.7,13.3c-1.6,1.7-4.4,2.4-8.5,3.8
					c-17,5.5-37.7,1.2-41.5-11.6C174.1,624.1,173.3,619.5,176.1,619.4z M36.6,645.1c0.1,0,0.1,0,0.2,0c1.2,0.2,4,2.7,8.4,7.8
					c23,26.7,35.8,42.1,33.4,49.7c-0.2,0-0.4,1.6-1.4,0.8c-12.7-11.2-23.1-23.5-30.7-36.2C38.1,653.3,34.7,645.3,36.6,645.1z
					 M224.6,665.9c-19.9,14.8-44.2,50.4-46.5,68.1c-0.5,3.4-0.1,5.9-1.4,7.1c-1,1-3.2,1-6.2,0.4c-1.8-0.4-1.4-0.6-1.8-2.6
					c-1.6-8.1,6.4-28.4,22.7-52.2c8.5-12.5,27.8-29.3,33.2-29.3C228.1,658.9,224.5,666,224.6,665.9z M78.8,656.1
					c1.4,0,3.5,0.7,6.5,2c17.6,7.8,24.2,10.6,35.5,20.1c21.1,17.6,44.4,59.2,37.4,63c-3.1,1.7-5.2,0.6-6.4-3.3
					c-0.2-0.7-2.4-6.5-5-11.4c-14-26.4-32.4-44.7-58.5-57.8c-9.6-4.8-10.6-4.3-11.3-8.3C76.5,657.4,77,656.1,78.8,656.1z
					 M224.2,672.8c1.8-0.1,2.2,3.1,1.5,9.6c-0.6,5.3-0.9,5.2-6.8,11.3c-9.5,7.5-20.9,25.4-26.3,43.6c0,0.6-0.5,2-1.4,2.8
					c-2.5,2.1-5.5,1-7.6,0.9c-1.5-0.8-1.1-4.1-0.8-6c4.5-16.6,15.4-36.9,32.3-54.6C219.8,675.6,222.7,673,224.2,672.8z M82.3,671.7
					c9.4-0.1,42.4,25.1,55.6,47c8.6,14.3,10.9,20.2,8.9,22.2c-1.1,1.1-5.8,1.2-8.3,0.2c-2.2-0.9-3.1-4.3-7.2-12.3
					c-10.8-20.8-26.4-35.9-43.5-44c-3.2-1.5-4.9-2.5-5.9-3.6C80.8,678.9,79.4,672.2,82.3,671.7z M87.2,690.3
					c2.9,0.6,10.9,5.9,17.6,10.9c11.8,8.9,29.6,35.7,25.8,39.5c-1.2,1.2-5.4,1.2-7.5,0.4c-12.5-22.8-28.9-33.8-35.5-40.1
					C85.5,697.4,80.9,689.3,87.2,690.3z M60.7,694c0.5-0.1,2.8,2.1,6.8,6.4C79.2,713,86.7,727,84.8,734c-1.5,5.9-3.3,2.6-16.6-23.6
					C62.6,699.4,59.9,694.2,60.7,694z M224.1,696.1c0.2,7.2-0.4,9-1.2,12.8c-0.5,2.6-2.3,3.8-3.9,5.8c-4.1,5-8.8,13.7-11.2,20.8
					c-2,5.7-1.1,7.1-8.1,6.2c-3.3-0.5-2.5-1.3-1.1-5.1C203,724.3,213.9,704.4,224.1,696.1z M88.2,708.2c0.2-3.7,31.7,28.8,27.3,32.3
					c-4.2,0.7-6.6,0.8-8.4-0.7c-3.3-7.7-18.4-22.3-18.4-22.3L88.2,708.2z M222.1,719.9c0.1,0,0.1,0,0.2,0c1.4,0.3,0.4,20-0.8,21.7
					c-2.3,1.1-6.6,1.2-8.9-0.1c-1.4-0.8-1.8-2.2-1.3-3.7C212.7,733.9,219.8,720.3,222.1,719.9z M101.4,740.2c-1,1.6-7.2,1.8-9.6,0
					c-0.7-0.6-1.4-10.4-0.5-12.1C93.8,726.5,102.2,738.1,101.4,740.2z"/>
				<path id="path3389-2-3-5-0" d="M343.3-599.2l3.9,5.3l-23.4-0.1c3.8,3.3,88.4,178.5,196.9,381.1c17.9,35.5,52.8,48.7,93.3,50.7
					L508.6-336.6c11.5-6.1,34.5-22.6,48.2-19.3c0.8,4.2,4.9,2.6,5-1.2l5,0.2l1.7,2.7l20.9,0.2l1.7-2.4l18,2.8
					c-47.5-59.9-71.9-151.6-62.6-240.8l-159.7-1.4l-2.1-2.8L343.3-599.2z M323.9-594c-0.1-0.1-0.2-0.1-0.2,0L323.9-594z
					 M139.1-479.9c-18.8,58.4-64.2,106.1-91.4,154.4c-29.2,52.7-36.4,98.7-28.9,149.2l5.2,0.5c61.8-82.4,110.1-181.2,137.6-278.5
					c0.6-2.1-0.3-5.9,0.2-8c-1.1-2.6-0.1-5.4,0.6-6.1c1.6-1.6,1.1-7.9,0-18.4c-2.5-31.1-1.7-55.6,1.2-83.7c2.2-21.6,2.2-25,2.2-25
					l-10.4-0.3C156.9-559,151.5-513.6,139.1-479.9z M391.1-590.7l17.1,0.5c2.1,52.4,46.1,59.7,52.9,59
					c-11.7,35.3,6.6,74.4,51.4,80.4c-10.7,32.7,7.1,76.2,43,75.4l3.8,2.4c-2.4,4.7-3,14.4-2.8,14.6c-8,0.5-12.3,1.6-17.5,2.6
					C493.3-426.3,391.1-590.7,391.1-590.7z M543.4-589c-5.8,58.4,5,138.9,32,186.7c0,0-0.9,3.2-1.5,4c-2.7,3.9-3.9,0.5-5.5-2.7
					c-5.7-10.9-16.8-12.7-21.7-6.7c-10.9,14.5,0.7,20.3,9.6,28.7c-36.8-2.7-48.6-43.3-39.8-63.2c-0.2,3.8,1.8,9.6,4.4,13.7
					c10.2,15.8,25.4,2.7,21.2-9.7c-1.7-5.1-8.2-13.8-8.2-13.8s9-1.2,12.7-3.4c3.4-2.1,5.6-5.8,4.8-11c-0.7-4.1-0.8-5.9-3-9.7
					c-2.7-3.4-7.5-5.8-11.4-5.6c-7.6,0.4-8.6,5.6-13.6,9.2c-1.1-9.4-7.1-16.7-16.9-15c-7.5,1.3-13,9.2-8.5,19.2
					c2.3,5.1,5.5,6.7,8.7,11.1c-52.8-6.5-46.3-69.2-40.5-68c0,0,1.6-0.3,1.1,2.1c-3.2,15.3,15.8,24.7,24.3,13.6
					c5.4-9-5.9-23.4-5.9-23.4s7.6-1.5,11.1-3.5c13.9-7.8-0.6-30.8-13.5-25.4c-4.5,2-5.7,6.2-10.1,8.3c-2.9-3.3-3-6.9-8.3-9.9
					c-14.4-8.2-23.7,10.8-15.7,19.2c3.2,3.4,9,6.6,7.9,7c-44.9-6.2-43.9-53.2-42.9-52.9L543.4-589z M157.2-592.9l6.2,0.1
					c-2.1,27.9-6.5,64.6-4.2,91.9c2.7,26,2.8,29.7,0.9,32.3c-2.6,2.8-1.2,4.2-0.8,6.5c0.6,4.3,0.7,4.3,0.1,6.7
					c-5.7,21.8-12.9,44.3-22,67c-29.8,79.4-77.9,165.8-115.4,211c0-0.2-1.7,0.1-1.7,0C10.8-241.2,33-294,44.5-315.6
					c23.4-43.9,59.8-81.1,81.6-127.1C144.8-481.8,158.7-529,157.2-592.9z M384.8-590.7l148.1,236l-27.7,13.2L353.7-590.2
					L384.8-590.7z M472.6-543.9c3.9,0,7,3.3,7,7.2c0,3.9-3.2,7-7.1,7c-3.9,0-7-3.3-7-7.2C465.5-540.8,468.7-544,472.6-543.9z
					 M521.7-465.2c4,0,7.1,3.3,7.1,7.2s-3.3,7.1-7.2,7.1c-3.9,0-7.1-3.3-7.1-7.2S517.7-465.3,521.7-465.2z M162.5-455.3
					c2.5,10.2-49.6,162.9-122.4,259.7l31.3,1l0.9,3.5C115.4-125.9,87.4-69,51.7-42.8l12.1,16.5l-11.1,8.8L41.8-30.8
					c-90.4,66.3-267,213.2-267,213.2l0.7,23.9l13.8-10.6c87.8,86.9,276,84.3,327.4-92.5l13.2,0.4C98.5,233.2-23.5,282.7-115,260.2
					l-21.8,30.6l5.7,3.1c-1-1.7-2-2.2-0.4-3.7l18.5-23.3C24,286,107.7,209.3,135.7,104.5l17.5,0.5c-16,88.2-58.3,165.5-118,225.7
					c-42.6-0.6-117.5-2.5-117.5-2.5c27,26.7,78.2,108,80.2,116.2c0,0,53.6,2.3,111.1,1.5c21.2-9.3,49.4-12.7,62.5-6
					c23,11.9,44.3,55.4,53.3,125c2.3,17.9,4.5,25.5,5.2,29.1c0.1,0.6,1.7,1.1,1.9,1c0.9-0.5-1.4,3.1-1.6,5.8
					c-0.1,2.7-0.1,6.7,1.2,8.2c1.6,1.8,1.4,3,1.2,3.7c-0.2,0.5-3.3,3.4-3.3,3.4c-0.9,40.4-1.1,77.2-3.9,126.9l8,0.1
					c0.8-80.1,25.8-153.9,63.6-204.4c23-33.2,47.4-69,61-103.2c15.3-38.5,17.8-79.1,10.2-113.4l-5.5,0.2
					c-32.5-22.8-45.3-70.9-4.6-104.6L344.1,199c-40.6,30.7-50.5,88-9.3,136l-16.3-0.2c-40.1-51.3-30.5-109.5,17-150.6l-10.4-13.5
					l11.5-10l10.2,11.4L611.9-44.4l0.1-24l-20.3,16.1C475.1-162.5,299.6-88,272.5,42.9l-16,0c35.1-140.8,159.3-179.3,248.6-159.5
					l22.5-33.2c-16.2-4.7-31.9-15.7-46.7-28.6c-6.2-5.4-10.2-8.8-14.7-14.2c-41.9-45.3-70-107.8-71.3-107.9l-115.2-1.6
					c-17,8.2-46.1,17.4-61.8,4.4c-33.8-27.9-44.6-83.6-48.9-119.5c-1.3-11.1-2.3-30.5-3.3-37C164.9-455.4,163.6-455.4,162.5-455.3
					L162.5-455.3z M570.4-388.9c3.9,0,6.9,3.2,6.9,7.1s-3.2,6.9-7.1,6.9c-3.9,0-6.9-3.2-6.9-7.1S566.5-388.9,570.4-388.9z
					 M585.3-380.5c5.6,7.4,10.6,15.1,13.3,23.1c-2.6-0.1-5.1,0.7-8.1-1.6c-0.6-8.1-3.9-13-8-18.5L585.3-380.5z M564.1-370.4
					c2.3,1.2,4.1,10,2.4,11.5c-2.8,0.6-4.7,0.3-5.7-0.6C559.5-361.9,562.3-370,564.1-370.4z M104.9-299.1l107,1.3
					c18.5,14.5,36.7,12.8,63.2,1.6l119,1.3l6.6,12.3L99-285.9C100.7-290.4,104.9-299.1,104.9-299.1z M95.9-280.1l307.9,3.4l7.6,12.6
					l-323.3-3.6L95.9-280.1z M125.4-261.6l34.5,0.4l-13,21.6l-35.6-0.4L125.4-261.6z M202.1-260.7l33,0.4l-14.9,21.5l-32.7-0.4
					L202.1-260.7z M308.7-259.5L294.6-238l-33.5-0.4l14.6-21.3L308.7-259.5z M350.1-259.1l33,0.4l-12.6,21.6l-34.2-0.4L350.1-259.1z
					 M-93.5-260.6c-21.4-0.5-17.8,28-15.7,27.1c-13.4-3.2-23.4,3-25.2,14.5c-1.4,9.1,7.3,22.1,22.9,20.5c-2.1,2.4-0.1,16.1,1.9,17.4
					c0,0,0.2,2-8.1,19c-10,20.2-12,21.1-16.2,7.7c-4.6-14.4-11.8-21.7-30.8-31.2c-5.1-2.5-12.2-6.9-15.9-9.8
					c-8.5-6.5-8.6-6.4-8.3,6.6c0.3,16.9,5.4,24.4,23.4,34.6c8.8,5,25.7,12.1,28.7,12.1c2.2,0,10.1,3.7,21.7,10
					c2.3,1.3,10.1,5.7,20.1,6.8c10.7,0.9,34.8-1.4,48.8-9.3c7.9-4.4,10.9-8.4,16.8-19.9c0,0-19.8,0.8-28.8-1.7
					c-18.8-1.3-28.1-0.3-42.4,6.9c-12,6-12.6,7.1-7.6-3c2.3-4.7,4.5-10.2,6.5-15.6c2.1-5.4,2.7-5.9,7.9-6.4c11.4-1,18-7.6,19.2-19
					c0.3-3.1-0.1-6.3-0.1-6.3c7.8,1.2,23.7-2.4,23.4-18.5c-0.3-14.5-10.6-17.9-23.3-19.1C-72.8-244.5-78.1-260.3-93.5-260.6z
					 M-93.3-256.1c18.8,0.3,18.1,17.6,9.8,27.2l-9.9-8.3l-8.1,7.3C-110.2-235.6-109.9-256.4-93.3-256.1z M420-250.2l9.1,13.7
					l-19-0.2L420-250.2z M69.5-234.5l35.3,0.4l-14.4,19.8L57-214.7C57-214.7,64.7-227.4,69.5-234.5z M180.9-233.3l-13.6,20.6
					l-30.9-0.3l12.6-20.1L180.9-233.3z M222.2-232.8l31.9,0.4l-12.9,21.9l-31.5-0.4L222.2-232.8z M297.4-232l32.3,0.4l-13.4,21.9
					l-31.9-0.4L297.4-232z M370.6-231.2l33.3,0.4l-14,21.9l-32.1-0.4L370.6-231.2z M-93.1-232.2l15.7,16.2l-15.6,15.3l-15.8-15.4
					L-93.1-232.2z M-53-216.2c-3,18.6-20.9,17.3-25.9,8.2l7.4-8.2l-8.9-8.9C-71.6-239-50.8-230.2-53-216.2z M-106.2-225.7l-8.7,9.6
					l9.3,9.2c-6.2,8.4-29.5,7.4-24.6-12.8C-127.1-232.6-113.9-234.8-106.2-225.7z M437.9-222l9.7,13.6l-18.4-0.1L437.9-222z
					 M54.6-209.7l395,5.7l10.4,13c-137.9,0.8-272.9-5.3-413.8-6.9L54.6-209.7z M-84.4-202.8c15.5,9.8,3.8,29.9-13,26.2
					c-12.5-5.6-14.9-18.7-3.5-26.1l8.7,7.4L-84.4-202.8z M51-193.6l-10.8-0.1l-10.6,12.2c39.2,42.3,37.4,78.5,0,109.7L44.3-55
					C86.1-90,96-145.6,51-193.6z M91.7-191.5c21.9,35,40.4,101.1-26.6,160.6l-7.9-9.8c58.3-55.7,45.3-103.3,20-150.6L91.7-191.5z
					 M97.9-190.6l89.7,1.3c-20,73-34,115.9-37.3,230.3l-25.9-0.1c2.9-2.6-12.7-69.3-31.3-92.5C133.5-118.6,112.5-156.9,97.9-190.6z
					 M-184.3-193.7c1.6,0,4.7,2.1,10.9,5.8c5.5,3.4,12.8,7.7,16,9.6c12.2,7,18.3,13.6,21.7,23.6c2.5,7.5,0.9,7.6-6.6,0.5
					c-5.6-5.3-11.5-9.8-26.3-20.2c-5.2-3.7-6.9-3.1-3.9,1.3c2.2,3.2,6.9,6.8,16.4,12.8c6.9,4.3,16.4,12.9,15.6,14.2
					c-0.7,1.1-1.9,1-5.2-0.5c-1.5-0.7-6.5-2.8-11.1-4.7c-19.4-8.1-27.7-18-28.7-34.2C-185.7-191.1-186-193.7-184.3-193.7z
					 M225.1-188.7c0,0,2.7,3.6,3,5.1c0.7,3.2-2.5,6.1-12.4,10.4c-3.4,1.5-6.3,2.3-6.2,4.3c0.4,4.7,9.3,11.9,8.1,18.2
					c-2.1,4.8-14.6,9.5-17.7,15.2c0,3.9,8,10.1,6.8,15.4c-0.6,1.6-3.3,3.2-7.1,6.5c-7.9,6.7-8.5,7.8-5.6,13.1
					c6.6,12.4,6.8,11.5-2.4,20.2c-9.3,8.7-9.2,8.6-4.8,16.4c4.7,8.3,4.4,8-2,13.2c-6.3,5.1-6.1,6.2-2.8,12.7
					c3.2,6.3,3.9,6.4-1.6,11.2c-6.4,5.6-7.6,6.2-3.2,13.3c4.6,7.4,4.9,7.1-0.4,13c-5,5.6-5.6,5.9-3,9.8c3.3,4.9,4,6.2,0.3,11.5
					c-3.9,5.7-3.9,5.3-0.4,10.7c2.9,4.6,2.3,9.6,2.3,9.6L164.7,41c0,0,0-6.4-1.3-8.7c-3.1-5.7-3-7.5,0.8-12.5
					c3.9-5.1,3.3-5.6-0.3-10.8c-3.6-5.3-3-5.2,1.7-11.1c4.4-5.4,4.6-8,2.2-11.1c-5.7-7.5-5.7-10.6,0.2-15.4
					c4.5-3.7,4.9-5.3,1.2-11.8c-3.7-6.3-4.2-6.9,2.8-13c7.1-6.3,7.1-6.2,2.4-13.5c-4.5-7.1-4.3-7.5,3.2-14.3
					c7.5-6.8,7.6-6.9,2.8-15.6c-4.5-8.2-4.5-8.1,4.5-16c9-7.3,12-8.2,3.3-19c-4.9-8.5-1.3-9.3,6.9-13.4c14.3-8.5,7.8-8.1,2-21.1
					c-4.9-8.7-2-8.7,6.7-13c2.2-0.9,4.6-1.9,7.1-3.3c5.9-3.2,2.7-6.2,2.7-6.2L225.1-188.7z M243.7-188.3l42.8,1
					c-50.3,62.8-75.1,143.6-84.7,229l-16.2-0.4C185.4-25.5,207.3-108.7,243.7-188.3z M463.6-184.4c24.3,20.9,42.3,32.9,55.1,37.7
					c0,0-17.6,28.5-18.9,27.4c-99.1-20.2-217.9,36.4-246,160.9l-15.6-0.1c6.3-48.9,19.7-89.7,43.9-132.1c24-41.2,46-65.2,79.1-95.3
					L463.6-184.4z M292.7-187.4l21.1,0.6c0,0,3.9,4.8,5.7,6.5c9,10.4,9.8,8.4-10.4,19.5c-12.8,7-18.4,10.3-19.2,13.3
					c-0.6,3,5.4,9.1,6.1,13.1c0,0.5-17.4,11.8-20.5,13.4c-4.4,2.1-4.6,3.9-0.4,11.4c4.9,8.7,4.5,8.4-6.3,15.7
					c-10.5,7.2-12.6,6.4-8.2,13.7c6.1,10.1,3.1,12.4-11.5,20.1c-3.7,1.9-3.8,3.9-1.3,10.8c3.5,9.6,4.4,8.7-3.2,13.7
					c-8.9,6-10.5,6.2-8.6,9.9c5.6,10.9,7.8,13.6,0.2,17.1c-5.9,2.6-6,4.2-2.9,11.4c3.2,7.3,4,7-1.8,11c-5.4,3.7-8.5,2.8-3.4,9.1
					c4,4.9,3.6,8.8,0.3,11.7c-2.9,1.2-4.3,6.6-3.5,6.8l-7.4,0.1c-5.7-7.9,1.2-12.3,2.2-13c1-1.8-0.2-3.1-2.5-7.3
					c-3.2-5.9-3-6.6,1.6-9.9c4.7-3.4,4.9-2.5,1.8-10.1c-3.5-8.9-3.3-9.9,2.4-13.9c5.7-4,5.7-4.9,2-12.7c-3.9-8.2-3.9-8.2,6.1-14.7
					c7.1-4.6,7.2-4.3,3.5-13c-2.5-6-0.7-8,9-14.5c5.5-3.7,5.9-4.4,3.4-8.9c-6.9-12.4-6.9-12.7,5.4-20.5c10.1-6.4,10-6.9,6.2-15.6
					c-4.1-9.4-4.4-8.7,9.3-16.7c11.4-6.6,12-6.2,7.4-14.4c-5.7-10.2-5.3-8.5,17.4-21.2c8.2-5.5,15.5-3.5,7.5-13
					C297-182.4,292.7-187.4,292.7-187.4z M-105.8-175.2c1.6,0,2.8,1.9,2.6,5.5c-0.3,5-2.8,10-5.1,14.9c-4.9,10.1-9.7,17.6-12.2,17.6
					c-5.9,0-5.7-1.3,2.3-16.5c3.7-7,7.4-14.9,8-16.4C-108.9-173.5-107.2-175.1-105.8-175.2z M-33.6-151.3
					c-0.1,21.5-67.7,31.6-71.1,20.7c11.9-9.1,46.6-4.6,54-12.8c-8.9-0.6-20.9,0.7-29.2,0.8c-10.3,0.1-26.9,4.3-27.1,6.1
					c-1-5.7,17.8-16.1,32.7-16.6C-60.3-153.6-45.3-151.8-33.6-151.3z M-28.1-118.5c0,0-132.7,107.4-198.3,159.3l0.1,23.5l209.9-168
					L-28.1-118.5z M-28.6-113.1l8.3,10.3L-217.4,54.1l-0.5-16.7L-28.6-113.1z M588-50.4l-7.1,7.4C391.8-187,213.7,26.5,308.9,181.7
					c-0.9,2-7.7,6.8-7.7,6.8C195.2,8.4,404.1-198.7,588-50.4z M483.4-82.6c10.8,0.2,30.7,7.9,39,18.1c9.7,11.9,6.8,17.1-5.6,5.9
					c-13.3-9.9-24.3-12.2-5.8-0.6c4.1,2.6,7.7,7.6,7.9,8.1c0.7,2-2.8-0.1-18.3-6c-9.2-3.5-20.9-12.7-23.8-19
					C474.5-80.8,477.7-82.7,483.4-82.6z M443.3-82.8c3.4,0,6.4,0.3,8.5,0.9c13.6,4.1,17.9,6.2,22.9,10.2c3.5,2.7,2.3,4.7-1.7,2.9
					c-4.7-2.1-19.5-6.7-22.2-6.4c-3.9,0.4,0,2.9,5.5,4.4c12.3,3.2,18.4,6.5,9.6,6.5c-4.6,0.6-24.7,0.5-30.1-0.2
					c-9.1-1.2-22.7-9.7-19.5-12.6C419.6-80.3,433.1-82.8,443.3-82.8z M404-70.4c16.2,0.4,24.9,6.5,7.2,7.5
					c-30.5,4.5-36.4,11-2.6,3.5c7.9-1.7,7.7,1.1,2.2,3.7c-4.5,2.1-10,3.1-14.6,5.3c-8.4,3.4-27.4,3.9-34.8,1
					C350.5-53.6,385.1-70.8,404-70.4z M534.1-66.2c8.2,0.3,25.5,12.3,33.1,23.5c5,7.3,2.4,12.5-5.2,6.6c-1.5-1.2-12.4-10.7-13-10.9
					c-1-0.4,9,9.4,10.5,12.1c1.2,2.3,4.1,7.6-1.4,7.7c-8.6-1.2-28.4-23.9-28.4-35C529.7-65.1,531.4-66.3,534.1-66.2z M432.6-61
					c3.4-0.1,1.6,1.7-4.9,6.2c-11.8,8.1-5.7,6.5,8.1-0.4c4.2-2.1,9.2-3.7,10.9-4c1.8-0.3,3.9-0.8,4.7-1c3.7-1.1,0.8,3.4-5.2,8.1
					c-12.7,9.9-26.9,17.7-36.7,20c-12.5,2.9-15.1,3.3-10.4-4.4c7.5-12.3,18.2-22.1,28.4-23.9C429.8-60.7,431.5-61,432.6-61z
					 M474.6-60.3c5.2,0,11.6,1.1,21.7,3.4c7.1,2.3,5.2,2.8-3.3,3.6c-16,1.6-9.4,3.5,6.2,3.4c21.3,0.1-10.7,7.5-21.1,9
					c-8.1,0.3-10.4,0-28-3.5c-6.7-1.3-2.6-6.2,10.2-12.1C465.4-59,469.4-60.3,474.6-60.3z M605.9-56l0.4,13.7L346.6,170.1l-8.6-9.8
					L605.9-56z M518.2-45.2c10.3,0,25,7.3,23.4,11.5c-0.6,1.6-1.8,1.5-9.6-0.7c-5.1-1.4-14.3-3-13.1-1.8c0.4,0.4,7.6,3.2,10.3,3.9
					c9,2.3,19.8,7.5,17.4,9c-4.2,2.5-8.1,0.5-13-0.1c-12.4-1.9-32.8-8.4-36.1-11.6C493.7-38.5,507.2-45.1,518.2-45.2z M398.2-45.7
					c1.9,0.1,2.5,1.8,0.7,4.2c-2.7,3.5-4,6.5-6.4,10.8c-8.8,13.2-14.2,18.4-22.6,23.5c-8.3,5.1-9.5,4.2-8.7-6.5
					c1.1-11.1,9.1-22.7,20.5-28.1c5.2-0.7,8.2-2,2.7,4.5c-9.8,11.5-3.2,10.4,6-2.7C393.3-44.3,396.3-45.8,398.2-45.7z M364.7-44.5
					c5.6,0,7.4,2,0.2,5.3c-6.8,3.1-20.5,12.4-20.8,13.5c-0.6,1.8,4.5-0.9,13-5.5c11.3-6,12.3-5.9,6.8,1.1
					c-6.2,7.9-21.2,17.7-32.8,21.2c-16.3,4.3-15.9,1.2-6.7-10.8c8.8-13,16.2-19.2,27.4-22.6C356.7-43.9,361.4-44.5,364.7-44.5z
					 M89-45.6C146.9,56.8,113,159.7,44,211.7c-72.1,54.3-183.4,49.8-248.3-17.1l9.2-8.5c0,0,102.3,106.7,233.8,14.5
					C105.4,153.8,134,41.9,80.2-36.9L89-45.6z M-175.2-48.3c-0.2,0-0.3,0-0.5,0.1c-2,1.3-9.7,23.1-11.3,32.2
					c-0.5,2.7,0.1,5.3,2.3,7.5c1.5,1.5,4,0.6,4.8,0.3c5-2.2,7.8-5.6,12.3-16.5c3-6,3.5-13.1,2.9-15.6c-0.2-1-1.8-3.4-3.8-4.8
					C-170.7-46.7-173.8-48.3-175.2-48.3z M-174.1-43.7c2.4,0,7,3.9,7.5,6.6c0,4.8-2.8,12.7-4.9,11.5c-3.4-4.3-7.3-1.6-7.9-3.2
					c-0.4-4.7,2.7-10.8,4.8-14.9C-174.4-43.7-174.2-43.7-174.1-43.7z M462.8-32.8c26.2,0.3,52.2,8.3,71.2,25.4l-10.3,9.3
					c-44.6-32.5-96.9-23.7-128.2-2.5c-30.9,21-58.6,68.1-32.7,135l-9.7,8.6C323.9,89,340.7,18.4,393.8-14.6
					c18.7-11.6,42.6-18.1,66.5-18.3C461.1-32.8,462-32.8,462.8-32.8z M75-29.3c0.8,0,2,2.6,1.8,5.8c-0.2,3.8-1.9,8.8-4.5,9.9
					c-2.9,1.2-4.7-7.6-4.7-7.6C69.4-24.1,71.9-26.9,75-29.3z M544.5-21.1c1.1,0,2.1,0,3,0.1c2.9,0.4,2.9,3,0.1,5.5
					c-3,2.7-4.6,2.8-7.5,0.6c-2.7-2-2.8-3.4-0.4-5.1C540.8-20.7,542.7-21,544.5-21.1z M40.8-26.1l8.6,10.8L18.9,8.6l-3.6,0.2
					l-232.9,188.5l0.1-17L40.8-26.1z M522.7,5.1L491,30.7C428.5-2.6,377.5,55,394.7,108l-27.4,23.3C320.1-2.7,462.8-46.7,522.7,5.1z
					 M358.3-17.1c0.1,0,0.2,0,0.3,0c0.2,0.1,0.4,0.2,0.6,0.4c1.1,1.1-1.3,18.8-3,22c-0.6,1.2-1.1,2.7-1.1,3.4
					c0,1.5-5.9,13.5-10.6,21.5c-1.7,3-3.6,6.9-4.1,8.8c-3.8,17.5-11.4-10.8-8.4-27.1c1.4-7.7,12.5-23.4,15.6-22.2
					c1.6,0.6,1.5,1.8-1.4,7.9c-8.1,17-10.1,25.9-1.7,9.4C354.3-11.9,356.9-16.8,358.3-17.1z M-175.6-22.7c1.2,0.1,2.1,0.7,2.6,2.1
					c0.3,1.2,0.7,3.6,0,4.7c-1.7,3.6-5,6-8.4,5.7c-1.5-0.1-3.1-1.4-3.3-3c-0.2-1.5,0.2-3.9,2.1-5.8
					C-180.2-21.3-177.5-22.8-175.6-22.7L-175.6-22.7z M63.7-18.9c3.7,0.2,7.5,10.3,5,14.8c-2.1,3.7-2.5,3-5.9-4.3
					c-1.8-3.8-3.2-7.9-3.2-7.9l3.1-2.4c0.2-0.1,0.5-0.2,0.8-0.2C63.4-18.9,63.5-18.9,63.7-18.9z M57.3-14.7c0,0,3.8,7.1,4.7,12.8
					c0.5,3.5,0.5,2.8-3.3,1.3c-3-1.9-3.6-3-5.4-5.3c-1.2-2.2-2.4-3.8-2.4-3.8L57.3-14.7z M80.9-13c2,0,4.1,2,6,6.9
					C94,12.4,93.1,33,84.7,42.6c-1.4,1.6-1.7,1.7-3.3,0.6c-1.3-0.8-1.4-9.6,0-12c0.4-0.8,1.7-6,1.8-9c0.3-7.1-1.6-8-2.6-1.4
					c-1.2,7.5-2.4,12.8-4.4,8.3c-1-2.3-1.5-4.6-2.3-7.1C69.9,6,74.9-12.8,80.9-13z M49-8.6c0,0,6.9,9.2,9.8,12.4
					c1,1.8,1,2.2-0.7,2.8c-2.8,1-12-5.3-15.7-7.2c-2-1.6-1.1-2.8-1.1-2.8C43.9-5.3,46.4-7.1,49-8.6z M326.3-5.2c3.8,0,3.7,1.3-0.3,7
					c-22.7,31.9-18.1,27.2-3.7,9.8c8-9.7,9.4-10.6,10.2-8.4c0.6,1.6-9,20.6-13.9,27.4C316,34.1,307.3,40,303,42.1
					c-10.7,5.3-9.5,3.1-5.4-10.2C302.8,11.3,315.6-5.2,326.3-5.2z M35.8,2.7c59.6,153.1-109,218.2-183.9,146.8l8.9-6.9
					C-34.7,215.2,70.5,101.9,23.9,11.8C23.9,11.8,28.3,8.2,35.8,2.7z M49.9,6.5C60,7.7,74.7,26.3,75.3,36.6c1.5,7.3-0.6,8.6-4.1,3.4
					c-5.9-11.2-5.3-4.2-0.2,7c2.7,5.6,3.2,12.4,0.4,12.7c-3.9-0.8-12.1-14.3-14.6-19.9c-6-12.2-6.5-10.1-9.6-28.1
					C46.5,8.3,47.4,6.5,49.9,6.5z M19.4,11.2C65,101.3-36.6,207.7-138,137.1l30.9-24c53,26.2,112.9-4.9,96.7-78.6L19.4,11.2z
					 M485,33.1l-85,69.2C383.3,44,447.3,11.4,485,33.1z M328.5,31.2c2.8-0.5,4.9,17.1,5.1,41.8c0.2,24.2,0.8,26.6-6.6,17.6
					c-3.1-3.7-7-7.2-8.6-10.5c-4.9-9.5-3.2-19.4-1.7-33.2c1.4-12.9,6-10.8,5.1,2.7c-0.6,8.7-0.6,19.5,0.8,19.5c0.5,0,0.6-0.8,0.4-2
					c-0.6-2.5,2.7-30.4,3.9-33.7C327.5,32,328,31.3,328.5,31.2z M96.3,39.3c6.1,2.4,7.6,22.8,0.8,42.3c-2.9,8.4-7.3,13.9-13.9,17.2
					c-4.7,2.4-5.7,1.6-3.6-2.6c3.9-6.9,6.1-14,7.7-22.9c0.7-8.7-3.9-1.8-3.6,2c-3.8,16.2-8.5,18.5-7.7,1.5c0.6-12.6,2.3-18,8.3-26.5
					C87.3,45.9,90.6,40,96.3,39.3z M307.5,43.7c2.5,0,3.1,3.4,0.8,9.9c-1.6,4.5-7.1,19.1-6.4,19.1c0.4,0,6.2-13.2,7.4-15.3
					c1.9-3.5,2.6-4.2,4.3-4c1.6,6.5-0.2,14.7-1.1,21.4c-3.6,17.6-15.8,35.6-20.4,30.2c-7.4-8.9-3.5-44.6,6.6-55.3
					C302.5,45.6,305.6,43.6,307.5,43.7z M-13.3,42.8c8.4,62.4-43.3,88.4-87.5,69.1C-99.9,111.7-13.3,42.8-13.3,42.8z M196.7,46.3
					l8.8,11.8l16.4,1l-8.5,12.3l8.2,15.9l-18.3,0.1l-10.7,12l-9-11l-16-1l9.5-14.8l-7.4-14.3l17.3-0.6L196.7,46.3z M59,50.1
					c2.1,0.1,12,13.5,13,18.4c2.9,11.9,1.5,34.4-2.7,33.6c-4.5-16.2-2.6-24.6-4.2-22.7c-2.9,2.9,1.5,27.8-0.1,33.9
					c-0.7,1.6-3.2-0.4-6-4.4c-7.3-10.8-5.9-52.6-0.1-58.7C58.9,50.1,59,50.1,59,50.1z M606.4,81.4L402.1,246.8l11.5,15.2
					l192.8-155.6L606.4,81.4z M314,81.1c0.9-0.2,2.9,1.3,6.6,5.5c6.5,9,13.4,21.4,15.9,30.9c0.9,3.7,2.4,8.6,3.4,10.9
					c1.4,3.4,1.5,4.4,0.6,5.4c-3.6,4.3-18.1-6.8-22.7-17.2c-6.5-14.7-6.5-27.9,0-15c2.4,4.7,5.3,11.5,5.3,8.8c0-0.8-2.8-10.6-5-15
					C316.8,92.5,311.8,81.5,314,81.1z M604.2,88.4l0.3,13.9L414.2,257.8l-7.3-9.1C406.9,248.7,586.1,103,604.2,88.4z M309.8,93.7
					c0.9,0.1,1.3,1.4,1,4.2c-1,9.2-3.4,29.1-3,30.8c0.3,1.1,3.1-13.2,3.8-15.7c3.4-13.2,7.9,18.5,4.8,32.6c-0.5,2.2-1.5,5.8-2,8
					c-0.5,2.2-2.1,6-2.8,6.9c-5.4,8.3-17.6-25.2-15.3-42.3C297.8,107.7,306.6,93.3,309.8,93.7z M91.6,98.6c2.5-0.1,2.9,2.3,2.4,7.4
					c-1.6,17.4-13.4,35.6-26.2,40.3c-12.7,4.7-13.9,3.7-6.3-5.2c5.8-6.8,9.3-14,8.3-14.9c-0.5-0.5-1.8,2.3-6.5,8.2
					c-5.9,7.3-6.7,1.1-1.4-9.8c4.6-9.3,8.9-14.2,17.5-19.9C85.7,100.7,89.5,98.7,91.6,98.6z M206.2,105.1c-3.4,75.1-23,156.4-60,227
					l-33.8-0.3c42-60.5,69.3-135.6,77.6-226.5L206.2,105.1z M221,105.4c0,0,5,5.3,7,8.9c2.2,3.9,2.8,7.4-1.3,10.2
					c-4.8,4-6.8,2.5,0.9,12.6c4.1,5.3,2.7,6.2-2.4,10.6c-5.3,4.5-5.6,4.8-0.8,11.1c5.2,6.7,6.1,7.8-0.8,12.8
					c-6.2,4.6-6.3,5.6-1.6,13.2c4.3,7,5.7,6.9-2.9,14c-7.3,6.1-7.5,4.4-0.6,15.7c2.5,4.2,2.3,4.5-2.4,8.6
					c-11.7,10.1-11.1,9.5-9.5,12.2c12.5,18.4,6.8,17.8-5.8,26.3c-2.5,2.1-1.9,4.5,3.6,13.7c4.7,7.8,4,9.5-7.3,17
					c-11.7,7.9-12.1,9-6.4,17.2c5.6,8.1,5.8,7.6-3.6,15.8c-4.2,3.7-7.7,7.1-7.7,7.1l-20.6-0.2c0,0,4.4-3.9,7.4-6.1
					c17.1-12.3,17-11,10-20.1c-6.2-8.1-5.6-8.6,0.8-13.1c4.6-3.2,10.9-6.6,15.6-9.9c2.5-1.8,0.7-3.3-3.4-11.2
					c-4.6-8.9-4.8-7.9,3.9-15c9.6-7.7,9.8-7.4,4.7-17.4c-5.1-10-5.2-9.2,1.4-14.4c9.8-7.8,10.3-7.4,5.3-16.7c-4-7.4-4-7.2,2.9-14
					c7-6.9,6.2-6.4,2.1-12.9c-4.1-6.5-3.9-7.4,1.7-12.2c6-5.2,5.2-4.9,0.3-11.7c-4.8-6.7-4.7-6.2,1.3-11.3c3.1-2.7,6.3-5.4,6.1-6.7
					c-0.4-3.3-3.5-8-6.5-12.5c-1.1-1.7,1.2-2.2,4.9-6c3.8-3.9,3.6-2.9,0.8-8.1c-1.5-2.8-4.4-7.6-4.4-7.6L221,105.4z M165.8,104.9
					l5.9,0.2c0,0,1,1.3,2.3,2.8c3.7,3.9,3.9,6.2,0.1,8.2c-3.7,1.9-2.3,4.7,0.7,9.2c3.2,4.8,3.2,4.2-1.5,8.8
					c-4.8,3.8-7.3,4.9-2.1,12.3c3,3.4,2.5,7-2.1,9.9c-3.6,2.3-9.6,4.2-3.4,13.2c3,6.4,3.2,6-3.2,10.4c-8.5,5.9-10.1,4.9-6.3,13.7
					c4.2,9.8,4.6,9.9-4.3,16.4c-10.4,7.5-10.8,8.1-6.6,17.2c4.2,9.2,4.4,6.9-6.6,15.3c-8.1,6.1-9.9,6.5-7.6,11.6
					c4.3,9.7,6.2,12.3-6.8,18.8c-15,7.5-15.8,8.1-8.7,19.5c5.7,9.3,4.5,8-5.2,13.4c-14,7.9-20.2,11.3-20.7,13.8
					c-0.3,2.8,10.8,11.3,10.8,11.3l-19.5,0.3c0,0-8.1-6.7-11.2-9.9c-8.7-8.7-8.8-5.9,20.6-19.7c16.2-7.7,14.9-5.9,12.3-10.5
					c-7.6-13.6-7.9-15,6.8-22.2c12.8-6.2,10.6-6.7,7.6-16.4c-2.6-8.4-2.2-7.7,4.6-12.5c16.3-11.8,15.8-10.6,13.4-16.5
					c-2.4-5.8-4.3-8.5-2.4-11.4c5.9-8.3,18.3-9.9,13.4-19.9c-2.3-6.4-3.1-7.9,4.1-13.4c6.5-5.3,6.5-4.6,2.5-11.7
					c-4.9-6.5-4.2-7.6,3.2-12.6c5.3-4.7,5.2-4.6,2.3-9.3c-4-6.5-3.8-6.7,2.1-11.7c4.8-4.1,5.6-4.3,2.6-8.9c-3.9-6.1-3.2-7.4,2-10.3
					c3.2-1.8,3.2-2.5,3-5.6C167.4,108.4,165.8,104.9,165.8,104.9z M238.7,106.1l27.1,0.4c8.1,50.3,23,71.1,31.5,87.1
					c-34.8,54.6-27.6,100.3-7.1,140.9l-85.7-1.3C227.3,258.2,239.4,182.7,238.7,106.1z M52.9,104.2c1-0.1,1.7,1.6,3.3,4.4
					c5.3,9.3,1.3,22.4-6.8,36c-6.1,10.2-7,2.3-4.2-12.4c1.8-9.3-3,4.6-5.4,15.9c-1.3,6.1-4.3,11-7.4,10.7c-3-0.5-2-9.1-1.9-11
					c0.8-13.5,6-23,15.9-36.3C50.2,106.5,51.7,104.3,52.9,104.2z M329,133.7c1.3,0,3.1,0.5,5.3,1.8c1.7,1,4.8,2.9,6.9,4.1
					c7.5,4.2,8.1,5.5,4.4,9.6c-4.5,5.1-7.3,3.1-14.8-5.5C325.7,137.9,325.7,133.8,329,133.7z M326.3,145c1.2,0,3.7,1.4,6.1,4.2
					c4.9,5.7,4.2,10.5-1.2,9.1c-2.2-3.3-3.3-8.3-5.4-12C325.3,145.4,325.6,145,326.3,145z M568.2,148.4c-4.8,0-12.9,6.2-14.5,12.6
					c-4.9,19.6-4.9,18.7-0.7,21.6c1.2,0.9,2.1,1.5,2.7,1.9c2.4,2,5.7,5,6.2,4.4c4,0.1,10.3-25,10.2-30.2c0.3-5.5,0.5-6.1-0.8-8.6
					C570.6,148.9,569.5,148.4,568.2,148.4z M322.6,146.1c0.3-0.1,0.7,0.1,1.2,0.5c3.1,3.2,4.3,8.8,5.9,12.8c0,0.9-0.4,2.3-0.8,3.1
					c-2.8,5.2-6.9,0.1-7.3-8.9C321.4,148.6,321.7,146.3,322.6,146.1z M567.4,152.7c0.2,0,0.4,0,0.6,0c3.2,0.2,2.7,3.5-1.8,8.3
					c-2.4,2.5-7.2,3.7-8.8,2.1c-2.3-2.3,2.6-8.5,7.8-10C566,152.9,566.7,152.7,567.4,152.7z M23.5,149.4c0.2,0,0.4,0,0.5,0
					c1.7,0.1,3.1,0.9,4.2,2.2c2.1,2.7,1.2,6.8,0.1,10.2c-2.6,8.9-19.7,26.1-25.7,26.1c-3.6-0.7,11.6-19.6,12.2-22.8
					c-1.1-1.1-10.5,9.5-15,17c-2,3.4-4.3,7.5-5.5,8.2c-3.1,0.3-6.8,2.3-6.8,0.2c0.6-9.5,19.5-30.1,26-35.8
					C17.4,151,20.8,149.4,23.5,149.4z M68.6,150.8c14.4,0-14.3,31.2-32.7,35.6c-5.7,1.4-16.3,1.6-17,0.4c-0.7-1.2,0.1-2.2,2.5-2.7
					c3.8-1,22.7-12.7,22.7-14.1c0-1.8-7.8,1.1-14.5,5.3c-4.3,2.7-6.3,2.1-4-1.2C36.5,158.6,51,150.8,68.6,150.8z M318.2,153.6
					c0.8,0.1,1.6,1.7,2.1,5.3c2.5,6.8,2.7,8.6,0.2,10.6c-4.3,3.4-5.3,2.4-5.2-5.4C315.4,157.7,316.8,153.5,318.2,153.6z M-157,157.3
					c0,0,5.2,2,3,4.5c-1.5,1.7-8,0.2-8-0.3L-157,157.3z M567.5,165.6c1.7-0.1,1.7,1.5,0.8,5.5c-0.5,2.1-2.7,13.1-6.4,16.1
					c-0.5,0.3-5.7-2.9-7.2-4.4c-0.7-0.7-2.7-2.3-3-3.3c-0.9-3.4,0.1-7.7,2.7-9.8c1-0.8,3-1.3,4.1-1.3c0.8,0,3.3-0.8,5.5-1.7
					C565.6,166,566.8,165.6,567.5,165.6z M-155.3,165.1c3.5,0,7.7,0.4,11.3,1.7c10.6,3.2,30,12.2,33,15.1c4.3,4.2-7.1,8.5-20.9,8.5
					c-7.3,0-8.6-1.5-18.6-7.7c-1.3-0.9-7.1-4.8-5.4-6.2c1.9-1.9,7.5,0.6,14.4,4.3c2.3,1.2,7.8,0.9,7.8-0.1c0-1.2-13.9-6.6-24.3-10
					c-6.8-2.3-6.7-4.5-2.4-5.4C-159.1,165.3-157.3,165.1-155.3,165.1z M-169.1,169.8c0,0,2.9,2.6,6.6,5.4c4,3.1,8.7,6.9,12,12
					c4.7,5.9,12.1,20.4,11.2,23c-2,6-22-4.8-38.2-21.4c-5.3-5.4-8.4-9.4-8.4-9.4l6.3-5.6c0,0,5.5,4.7,11.8,10.4
					c11.8,10.7,11.8,7-0.1-4.2c-3.4-3.2-6.5-6-6.5-6C-174.2,171.9-172.3,170.1-169.1,169.8z M322.1,175.7c0,0,6.3,6.7,8.7,9.8
					c-39.5,37.8-55.1,91.1-18,148.4l-18.1-0.3C261.5,266.5,278.1,216.4,322.1,175.7z M-8.9,173.6c2.4-0.1,0.2,2.8-4.2,10.1
					c-8.2,13.6-9.9,17.1-23,20.3c-3.4,0.8-8.2,0.1-10.2,0.3c-5.6,0.6-3.1,0,5.6-5.5c12-7.6,1.8-3.7-9.3,1.8
					c-6.4,3.2-13.2,3-13.7,1.3c-0.3-0.9,2.6-3.4,4.5-5c17-14.9,22.2-14.2,37.9-19.4C-14.4,175.1-10.5,173.7-8.9,173.6z M-79.4,186.6
					c6.1,0.1,11.8,0.8,16.8,2c3.3,0.8,8.8,1.5,4.1,5.6c-5.3,4.8-19.4,11.4-29.8,11.7c-1.5,0-22.9-1.7-18.2-6.3
					c0.9-0.5,3.8-0.3,6.3-0.8c11.9-2.1,8.7-4.1-5.9-3.4c-18.3,0.8-19.1-1.1-5.2-4.8c10.2-2.7,20.1-4,29.2-4.1
					C-81.1,186.6-80.2,186.6-79.4,186.6L-79.4,186.6z M18.3,189.1c8.1,0,14.5,1.5,14.4,4.6c0,5-15.5,15.9-25.7,18
					c-2.4,0.5-5.8,1.2-7.5,1.6c-3.5,0.8-23.1-0.1-25-0.9c-9.1-3.4-2.7-4.7,14.1-6.4c7.3-0.8,10.8-2.6,10.8-4c0-0.7-5.4-0.9-13.4,0
					c-9,1-7.2-1.6,4-7.2C-2.5,191,9.1,189,18.3,189.1z M-132.4,194.3c1.1,0,3.9,1,8.4,3c9.7,2.9,23.1,6.3,32.1,16.4
					c7.3,7.2,9.1,9.6,7.5,12.1c-1.9,3-24.9,0.5-34.5-3.8c-6.4-2.8-13.9-8.7-17.3-13.8c-8.3-12.4-4.7-15.6,5.9-6.9
					c12.8,10.5,14.7,11.6,17,11.1c0.9-0.2-1.3-2.3-5.6-5.6C-129.6,198.7-134.9,194.3-132.4,194.3z M-53,208.4
					c10.8,0.1,13.1,1,23.6,5.9c13.1,4.8,9.8,8.8-13.5,14.4c-11.7,2.6-23.4,0.6-31.9-4.8c-18.6-11.8-17.4-14.1,3.5-8.7
					c6.9,1.8,13.7,2.2,14.2,0.9c0.3-1-8-3.2-14.7-5.5c-7.3-2.5-1-2.2,13.6-2.2C-56.3,208.4-54.6,208.4-53,208.4z M486.6,264.3
					c0,0-2.4,1.1-3.5,1.7c-0.8,0.4-7.3,1.2-14.4,1.6c-14,0.9-23.4,3-32,6.3c-12.9,5-21.6,20.8-21.6,20.8c9.6-0.5,63.7,9.9,79-9.5
					c3.2-4.1-8.4,30.8-14.2,32.3c-14.3-1.9-20.5,20.5-19.1,19.6c-14.5,5.4-25.7,8.6-22.2,25.4c1.5,7.3,8.8,16.1,24.5,14.1
					c-4.6,29,30.8,36.9,35.1,1.9c0,0,6.9-1.2,9.6-1.5c16.2-3.7,20.4-27.3-3.3-35c-6.6-2-6.9-3.3-6.9-3.3c1.3-5.3,1.1-10.9-2.7-17.2
					c5.4-12.4,18.7-36.4,18.7-36.4L486.6,264.3z M489,271.6c3.2,4.4-13.9,11.4-32.1,12.8c-4.1,0.3-13,1-13.3,1.4
					c-2,3.4,35.1,1.3,46.7-5c4-2.2,4.3-0.2,2.6,3.2c-13.6,17.1-45.9,12.5-71.1,9.2c-1.4-1.5-0.2-3.2,5.5-7.8
					c10.5-8.3,18-11,34.4-12.5C466.4,272.7,487,269.1,489,271.6z M508.9,289.6c-2.4,7.4-14.8,29.9-14.8,29.9
					c-1.5,1.5-6.9,2.5-6.4-3.2c0.1-6.1,11.9-31.3,15-31.8C506.4,284.2,509.1,287,508.9,289.6z M516.6,291.4
					c3.3,26,22.9,32.4,41.7,40.8c4.9,2.3,9.1,6.4,14.1,9.1c9.5-12.6-0.8-37.5-17.1-45.7c-12.1-5.8-23.2-10.5-30.1-10.1
					C521.1,285.8,516.7,288.3,516.6,291.4L516.6,291.4z M526.7,290c2.1,0,5.1,0.6,16.1,3.7c16.6,4.6,28.2,17,31.1,33.2
					c0.1,0.7,0.8,13.2-2,12.7c-4.3-1.3-6.6-5.7-13.5-8.7c-8.7-3.7-20.8-8.6-28.2-15.5c-6-5.6-9.2-11.5-9.9-16.6
					c-0.7-5.3,1.1-5.8,5.4-1.5c9.8,8,19.5,10.8,29.2,18.5c2.7,2.1,12.4,7.7,5.8,0.9c-4.5-4.6-17.6-12.7-24.7-16.2
					C526.3,295.8,521.1,290,526.7,290L526.7,290z M-223.8,307.5l109.7,175.8c-27.6,14.2-41.3,20.4-86.9,16.3l0.1,2.3l-19.4-1.3
					c32.9,52.7,73.5,121.3,60.4,240.2l136,1.4c0,0,2.1,2,2.3,2.2c2,1.4,5-2.3,5-2.3l61.4,0.4l1.6,2l28.6,0.1
					c0,0-128.1-246.3-192.4-368.5C-143.7,326.9-171.6,304.9-223.8,307.5L-223.8,307.5z M480.3,321.2c7.3-0.1,14.6,5,14.5,14.8
					c0,5.1-4.4,12.2-4.4,12.2l-9.9-9.6l-9.6,9.4c-4.6-3.9-7.3-11.3-5.8-15.5C468.1,325.3,474.6,321.2,480.3,321.2z M364.8,323.3
					c9,36.9,18.7,87.8-64.6,204.3c-49.3,68.9-65.8,134.2-68.7,214.1l-4.9,0c2.8-43.8,4-123.4,4-123.4l4.6-4c0,0-2-3.4-2.9-7.4
					c-1.5-6.7-0.2-4.5,4-22.4C254,498,364.8,323.3,364.8,323.3z M-73.1,335.4l415.3,6.5l-5.7,10.8l-401.9-7.4L-73.1,335.4z
					 M480.5,344.7l15.3,15.2l-15.3,16.8l-15.7-16.8L480.5,344.7z M467.8,350.9l-8.5,8.9l7.2,7.8c-7.7,15.7-27.5,3.2-26.7-8.6
					C440.7,345.1,456.9,339.6,467.8,350.9z M494.3,369l6.8-8.4l-7.5-8.4c12.5-12.1,24.1-1.2,25.2,9
					C519.9,372.1,502.7,384.2,494.3,369z M2.5,353.1l34,0.7l-12.9,23.5l-34.5-0.5L2.5,353.1z M78.3,354.1l31.2,0.3L96,378.3
					L64.4,378L78.3,354.1z M152.1,355l33.1,0.4l-13.7,23.8l-34.1-0.4L152.1,355z M226.3,355.8l33.9,0.4L247.6,380l-35.2-0.4
					L226.3,355.8z M301.8,356.6l32.7,0.4L321,380.8l-33.6-0.4L301.8,356.6z M-59.3,352.7l22,0.2l-9.2,15.7L-59.3,352.7z M488.5,374
					c12.5,10.2,3.5,26.7-9.6,26.9c-9,0.1-22-15.3-7.6-27.6l9.3,8.7L488.5,374z M26.1,381.6l31.9,0.4l-12.3,21.5l-31.3-0.3
					L26.1,381.6z M97.2,382.5l35,0.4l-12.6,21.5L86.3,404L97.2,382.5z M172.2,383.4l34.9,0.4l-11.6,21.5l-35.2-0.4L172.2,383.4z
					 M247,384.2l34.6,0.4l-11,21.5l-36.6-0.4L247,384.2z M-38.4,381.9l22,0.2l-9.6,17.2L-38.4,381.9z M-22,407.1l323.7,6.5
					l-5.6,10.4l-310-3.4L-22,407.1z M-10.9,426l303.4,4.1l-7.1,14.5L180.6,443c-20.3-15.5-43.7-8.7-70.5-0.3c0,0-80.3-0.1-111.8-1.2
					L-10.9,426z M-112.4,486.4L44.8,740.8L9.4,740l-149.3-239.3L-112.4,486.4z M-144.7,502.5L3.7,740.3c-6.9-0.2-13.4,0.1-20.3-0.1
					c3.3-44-31.9-65.1-52.8-66.4c13.1-51.4-24.3-73.5-49.3-77.9c10.9-66.9-44.4-77-45.3-76.3c0.3-5.5-0.7-9.5-1.3-14.1L-144.7,502.5
					z M-169.2,506c-0.3,1.4,2.7,14.8-3.3,12.3l-0.3-12.3L-169.2,506z M-201,506c2.1,8.9,6.6,10.7,12.7,16.7c0,0-7.9,1.3-9.8,0
					c-3.3-2.3-10-16.8-10-16.8L-201,506z M-177.6,521.3c3.8,0,6.9,3.2,6.9,7c0,3.8-3.2,6.9-7,6.9c-3.8,0-6.9-3.2-6.8-7
					C-184.5,524.3-181.4,521.2-177.6,521.3z M-163.9,526.8c19.9-1.1,48.5,20.6,40.4,60.4c-1.3-2.8-2.8-8.9-6-13.3
					c-13.5-18.6-29.9,6.5-19.1,17c5.3,5.1,7.7,7.1,7.2,7.6c-12.2-2.5-21.6,8.3-16.7,20.4c8.3,15.7,20.2,7.6,27.2-1.6
					c0,0,4,14,8.2,15.8c6.4,2.8,15.2-0.6,18.3-8.3c4.6-11.5-6.2-14.5-8.6-21c23,1,51.9,34.9,38.2,63.9c1.8-6.6-5.1-21.6-19-17.9
					c-6.9,2.3-9.5,12.4-4,22.8c1.7,3.3,2.7,4.6,2.7,4.6s-6,0.7-7.6,1.7c-18.1,10.9,4.7,41.3,18.3,22.6c1.4-2.2,3.7-4.8,3.7-4.8
					c2.2,4.2,2.8,10.1,6.8,12.2c16.5,8.5,24-9,17.2-17.7c-3.9-4.9-8.2-10.5-8.2-10.5c-0.7-3.1,49.5,10.6,42.8,59.5l-133.3-1.7
					c13.2-75-15.8-161.3-30.7-187.7l6.7-8.7c1.6,3.3,4.3,11.5,9.1,13.1c15.4,5.1,20.2-5.6,18.3-16.7
					C-153,532.5-161.3,527.6-163.9,526.8L-163.9,526.8z M-129.4,597.9c3.6,0,6.5,3,6.5,6.7c0,3.6-3,6.5-6.6,6.5s-6.6-3-6.5-6.6
					C-136,600.8-133,597.8-129.4,597.9z M-80.2,676.7c3.7,0,6.6,3.1,6.6,6.7c0,3.7-3.1,6.6-6.7,6.6c-3.7,0-6.6-3-6.6-6.7
					C-86.9,679.6-83.9,676.6-80.2,676.7z"/>
			</g>
			<g id="printing-marks-1-5-5-6">
			</g>
		</g>
		<path id="path147-0-8-1-3-6-7-5-8" d="M3500-865.9c7.8-0.2,11.3-9,5.5-15.8c-0.8-1-0.9-1.6,0.6-0.6c3.9,2.6,11.4,0.9,11.8-7.1
			c0.5-9.8-13.2-12.7-15.8-2.2c-0.1,1.1-1,1.1-0.8-0.5c0.2-4.2,1.6-8.2,3.4-12.1c-3.1,0-6.5,0-9.3,0c1.8,3.9,3.1,7.8,3.4,12.1
			c0.2,1.6-0.7,1.6-0.8,0.5c-2.6-10.4-16.3-7.6-15.8,2.2c0.4,8,7.9,9.7,11.8,7.1c1.5-1,1.5-0.4,0.6,0.6
			C3488.7-874.9,3492.2-866.1,3500-865.9C3500-865.9,3500-865.9,3500-865.9L3500-865.9z"/>
		<path id="path147-0-8-1-0-3-83-6-6-4" d="M3417.6-1062.4c7.8,0.2,11.3,9,5.5,15.8c-0.8,1-0.9,1.6,0.6,0.6
			c3.9-2.6,11.4-0.9,11.8,7.1c0.5,9.8-13.2,12.7-15.8,2.2c-0.1-1.1-1-1.1-0.8,0.5c0.2,4.2,1.6,8.2,3.4,12.1c-3.1,0-6.5,0-9.3,0
			c1.8-3.9,3.1-7.8,3.4-12.1c0.2-1.6-0.7-1.6-0.8-0.5c-2.6,10.4-16.3,7.6-15.8-2.2c0.4-8,7.9-9.7,11.8-7.1c1.5,1,1.5,0.4,0.6-0.6
			C3406.2-1053.4,3409.7-1062.2,3417.6-1062.4C3417.6-1062.4,3417.6-1062.4,3417.6-1062.4L3417.6-1062.4z"/>
	</g>
</g>
</svg>
