<?xml version="1.0" encoding="utf-8"?>
<!DOCTYPE svg PUBLIC "-//W3C//DTD SVG 1.1//EN" "http://www.w3.org/Graphics/SVG/1.1/DTD/svg11.dtd">
<svg version="1.1"
	 id="svg8118" xmlns:rdf="http://www.w3.org/1999/02/22-rdf-syntax-ns#" xmlns:dc="http://purl.org/dc/elements/1.1/" xmlns:cc="http://creativecommons.org/ns#" xmlns:svg="http://www.w3.org/2000/svg"
	 xmlns="http://www.w3.org/2000/svg" xmlns:xlink="http://www.w3.org/1999/xlink" x="0px" y="0px" width="178.6px" height="249.4px"
	 viewBox="0 0 178.6 249.4" enable-background="new 0 0 178.6 249.4" xml:space="preserve">
<g id="layer1" transform="translate(-1.0077784e-5,-740.55055)">
	<g id="g7107" transform="matrix(0.99553491,0,0,0.99680337,-3353.968,771.39685)">
		<path id="rect7166-7" fill="#FBFBF6" stroke="#7F7F7F" stroke-width="0.4" d="M3378-30.5h161.5c4.7,0,8.5,3.8,8.5,8.5v232.4
			c0,4.7-3.8,8.5-8.5,8.5H3378c-4.7,0-8.5-3.8-8.5-8.5V-22C3369.4-26.7,3373.2-30.5,3378-30.5z"/>
		<path id="path6307-8" fill="#E2CF00" d="M3481.8-9.5c0,0,20.3,29.4,27.2,34.6c0.5,0.2,9-1.4,9-1.4c-4.3-10.4-7.1-21.2-4.3-33.3
			L3481.8-9.5z M3493,37c-14,4-27.9,7.7-43.1,1.2l-16.6,16c-0.1,0.4,20,9.1,20.3,8.1c-9.9,26.6,5.5,31.5,15.3,2.2
			c12.8-1.7,28.2-3.4,40.9-12.3C3499,45.6,3493,36.9,3493,37z M3408.9,41.7c-5.3-3.3-9.4,3.4-5.6,6.8c-0.5,2-0.6,4.9,1.3,6.2
			c1.7,1.1,5,0,5.4,0c0,0,0.1,3.5-0.2,3.5c-0.5,0-2.4-1.6-3.6-2c-3.9-1.2-9.5-1.8-9.4-1.6c0.2,0.3-1,1.2,3.4,3.9
			c1.6,1,6.8-0.1,10.9,1.2c2.5,0.8,4.8,2.1,6.1,1.4c3.6-1,5-5.7,4.8-5.7c-0.1-0.1-10.9,2.8-9.9,3.3l0-4.1c4.2,0.5,8.1-2.6,3.9-7.9
			C3419.3,43.7,3414.9,36.3,3408.9,41.7L3408.9,41.7z M3426.6,60.4c-10.4,10.5-31.7,30.3-31.7,30.3l0.2,14.8l20.8,18.7
			c1.6-19.8,12.9-38.3,23.6-47.6C3440.5,73.7,3428.9,61.4,3426.6,60.4z M3500.9,64c-1.6,12.2-3,28.8-23.6,47.3
			c3.6,6.1,8.1,12.3,14.7,15.3c0.5,1,18.9-19.2,30.3-28.7l-0.1-12.9L3500.9,64z M3407.9,66.7c0,0.3-0.8,3.5-1,3.4
			c0,0.2,2.1-0.8,2.3-1.7c0.2-0.8,0.7-1.8,0.7-2C3409.5,63.1,3408.6,65.5,3407.9,66.7z M3400.2,75.2c-0.7,1.8-1.5,5.1-1.2,7.3
			c3.7,1.9,4.7-5.9,3.7-6.6C3402.1,75.7,3400.7,75.2,3400.2,75.2z M3514.2,110.5c-0.3,1.5-0.3,2,0.4,2.3c1.2,0.5,1.7-0.1,2.7-2.6
			c0.6-1.5,1.1-3.7,0.6-4.6C3515.7,104,3514.5,109.4,3514.2,110.5L3514.2,110.5z M3449.6,123.5c-15.2,2.4-30.3,3.9-42.4,13.3
			c1.4-0.2,15.9,13.6,16.7,15.5c22.3-10.9,44-2.7,44-2.7l16.3-15.8c0.6-0.3-17.7-7.9-21.2-9.2C3475.6,90.9,3455.7,96,3449.6,123.5
			L3449.6,123.5z M3509.3,119.6c-1,0.8-1.5,1.5-2.3,2.6l0.8,1.3l2-2.2L3509.3,119.6z M3495,133.8c2.1-1,9.6-4.6,9.9-3.7l-0.2,3.6
			c-1.1-0.4-8.5,0.8-4.2,8.5c-2.7,6.1,3.3,9.2,7.5,5.2c8.8,3,7.6-5.8,5.8-7.2c1.4-2.2-0.4-7-1.3-7c0,0,7.7,1.7,6.9,0.4
			c-0.3-0.6-0.8-1.7-2.5-2.8c-2-1.3-5.4-0.8-8.2-1.4c-3-0.6-4.9-1.7-7.4-1.8C3497.6,127.8,3494,131.1,3495,133.8z M3409.7,162.4
			l-10.6,2.8c0,0,3.4,7.9,4.6,15c1.4,8.7,0.3,18.1,0.3,18.1l30.6,0.2L3409.7,162.4z"/>
		<path id="path6309-7" fill="#D40000" d="M3437.2,198.4c-13.4-19.2-25.9-37.5-42.4-57.7c0,0,0-7.8,0.1-15.5l50.8,73L3437.2,198.4z
			 M3464.4,167.3c-0.4-3.7-1.2-8-2.2-11.8l9.3-8.8C3470.4,154.6,3468.9,160.6,3464.4,167.3z M3508.7,139.7c2.1,2.8-1.4,4.3-2.7,3.1
			C3503.3,140.3,3507.2,137.7,3508.7,139.7z M3416.8,122.3c-1.5,1,2.8-24.1,14.6-37.1C3438.5,105.9,3425.9,117.4,3416.8,122.3z
			 M3475,122.2l-7.8-2.1l3.7-11c0,0,7.6,1.7,6.9,4C3475.8,120.5,3475,122.2,3475,122.2L3475,122.2z M3438.7,118
			c2.1-3.5,3.7-7.4,5.2-11.3l7.9-0.2l-3.9,10.9L3438.7,118z M3486,102.5c-6.1-12.1,1.1-31.3,14.3-36.6
			C3499.8,78.3,3496,90.7,3486,102.5z M3445.2,99.1c0.3-4.3-0.2-8.8-0.8-12.8c8.4,1.9,17.5,3.2,27.6,3.7l1,11.6
			C3464,99.9,3454.8,98.8,3445.2,99.1z M3465.3,81.4c0.9-3.6,2-7.1,3.6-10.5l9.6-0.4c0-0.2-4.1,6.4-5,11.1
			C3471.9,81.4,3465.3,81.4,3465.3,81.4z M3447.1,78.6c-2.8-1-6.6-1.3-8.1-3.4l2.9-9.2l8.6,2.6L3447.1,78.6z M3471.3-9.5l6.7-0.1
			c0,0,32.4,41.6,44.5,57.7c-0.4,1.6,0.1,15.6,0.1,15.6C3505.5,39.5,3471.3-9.5,3471.3-9.5z M3409.1,48.5c-1.8-1.9,1.1-3.7,2.3-1.9
			C3412.5,48.1,3410.1,49.5,3409.1,48.5z M3445.5,41.7c0.1-9.6,6.9-21.1,6.8-20.8c-0.1,0,1,9.4,2.3,12.4
			C3454.3,33.8,3445.8,42.3,3445.5,41.7z"/>
		<path id="path6311-0" fill="#131F67" d="M3393.4-11.1v210.5H3524V-11.1H3393.4z M3513-9.5c-1.1,11.7-1.2,20.7,4.8,32.8
			c-1.1,1.1-9.3,1.5-11.9,2.8c0,0.3,0.7,0.9,0.7,0.9c2.7-1.3,13.3-2.4,13.3-2.4c-4.4-7.7-8.1-22.7-5.3-34.1h7.9v56.3
			c0,0,0.1,10.7,0.3,16.8c-4.1-5.3-9.3-12.5-12.8-17.9c-4.3-6-9-13.1-13.9-19.7c-1.4-2.1-3.5-4.8-5.2-7.2c-2.6-3.8-4.8-6.7-7.5-10.7
			c-2.9-4.2-5.7-8-9.1-12.9c-2.9-4.1-3.1-4.7-3.1-4.7H3513z M3463-9.5c4.9,8.6,13.8,11.6,16,12.2l1.3,1.9c-10.4-2-16-8.8-18.6-12.9
			c-0.2-0.3-0.2-1.2-0.2-1.2H3463z M3458.1-9.5c-1.4,3.2-3.3,5.2-5.1,7.2l0.1-2.1c0.1,0.1,2.7-2.9,3.6-5.1H3458.1z M3460.5-9.5
			c0,0,0,0.7-0.1,1.1c-1,3.4-7.5,9.8-7.4,8.9l-0.1-1.7c0,0.1,4.9-4.8,6.2-8.3H3460.5z M3455.8-9.5c-0.5,0.9-2.4,3.9-2.6,3.1l0.2-3.1
			H3455.8z M3470.6-9.5c0.8,1.2,1.6,2.2,2.4,3.4c0.2,0.2,0.3,0.5,0.2,0.6c-0.1,0.3-0.5,0.1-1.6-0.9c-1.8-1.6-3-3.1-3-3.1H3470.6z
			 M3464-9.5h1.6c3.3,5.5,9.2,8.5,11.3,9.2c0.5,0.6,1.1,1.7,1.4,2C3472.8,0.1,3466.6-4.6,3464-9.5z M3467.9-9.5
			c1.8,2.5,4.5,4.4,6.1,5.6c0.8,0.7,1.9,2,1.8,2.3c-3.5-1.1-7.5-5-9.4-7.9H3467.9z M3461.1-7.8l1,1.5c-2.3,3.9-5.3,7.3-9.1,10.1l0-2
			C3457.4-1.4,3459.3-4.7,3461.1-7.8z M3462.7-5.6c2.8,3.8,8.8,9.6,18.4,11.3c0,0,0.5,0.5,1.3,1.6c1,1.4,1,1.4,1.2,3.7
			c0.1,4.1,1.4,9.7,2.8,13.3c-0.2,0.9-0.3,1.3-2,3.6c-6.9,9.3-21.5,18.1-28.7,6.1c-2.4-3.8-2.6-11.2-2.8-15.8c0,0,0-0.3,0.1-0.4
			c0.2-0.8,0.4-0.7,1.7-0.3c1.3,0.6,2.7,0.1,4.1-0.3c1.6-0.6,1.7-0.1,0.2,1.3c-0.5,0.5-1.2,1.3-1.1,1.2c0.1,0,1-0.4,1.4-0.7
			c1.2-0.9,1.5-0.6,1.1,0.5c-1.9,4.4-2.3,4.5,0.4,5.8c0.6,0.3,1,0.5,1.3,0.8c1.9,1.7,1.2,0.8,0.7,0c-0.8-1.3-0.1-1.9,1.3-1.1
			c0.9,0.5,2.1,0.9,2.7,0.7c1.2-0.4,1.6-1.8,1.3-3.3c-0.3-0.8-2-2.3-1.6-0.8c1,0,1.9,1.4,1,2.4c-0.7,0.9-1.9,0.4-3.7-0.8
			c-1-0.8-2.2-0.4-2.2,0.6c0,0.6-0.9,0.5-1.4-0.3c-0.3-0.4-0.1-1.7,0.5-3c3.8-7.7,0.6-15.1-6-13c-0.7,0.2-1.4,0.4-1.4,0.4l0-2.9
			C3456.8,2.1,3460.8-2.1,3462.7-5.6L3462.7-5.6z M3466.5,8.2c-1,1.2-0.6,2.3,1.5,1.2c1.8-0.9,2-1,4-1.1c2.8-0.1,5.2,0.8,8.3,2.7
			c2,1.2,2.3,1.3,1.8,0.6C3480.5,8.4,3470.8,3.6,3466.5,8.2z M3457.2,8.5c1.9,0.5,3.7,1.7,3.4,2.3c-0.1,0.2-0.2,0.2-0.5,0.1
			c-1.4-0.7-3.6-1.8-6.8-0.4c-0.4,0.2-0.6-0.1-0.6-0.5c0-0.8,1.4-1.5,2.9-1.6C3456.2,8.4,3456.7,8.4,3457.2,8.5z M3468.3,11
			c-1.1,0.6-1.5,0.9-2,0.6c-1.2-0.6-0.9-0.1-0.2,1.1c0.5,0.9,0.5,1.1,0.4,1.6c-0.1,0.6-0.1,0.6,0.5,1.3c1.1,1.4,2.2,2.8,3.8,3.9
			c0.5,0.3,1.2,0.7,1.2,0.7c0.2,0,0.1-0.1-0.2-0.4c-2.1-2-3.7-3.8-1.6-3c2.5,0.8,4.8-0.2,6.7-0.9c0.8-0.2,1.6-0.4,1.8-0.4
			c1.8,0,2.2-0.7,1.1-1.9C3476,9.3,3472.8,8.3,3468.3,11z M3477.4,11.8c0.8,0.7,1.2,1.1,1.1,1.3c-0.1,0.2-0.7-0.1-1.7-0.7
			c-2.1-1.1-4.4-1.4-7.3-0.5c-2.3,0.7-1.6-0.4,0.9-1.4C3472.5,9.6,3475.3,9.9,3477.4,11.8z M3456.2,10.3c1.7,0,3.5,0.5,4.7,1.6
			c0.8,0.7,0.2,0.9-1.1,0.3c-2.1-0.9-3.8-1-5.5-0.2c-0.5,0.3-1.1,0.5-1.3,0.5c-0.3-0.2-0.4-0.8-0.2-1.1
			C3453.5,10.7,3454.9,10.3,3456.2,10.3z M3484.8,10.9c0.1,0,0.3,0.2,0.6,0.6c0.5,0.7,0.5,1.1,0.1,2.4c-0.5,1.6-0.7,1.3-0.9-0.9
			C3484.6,11.6,3484.6,10.9,3484.8,10.9L3484.8,10.9z M3486.5,13.2c0.2,0,0.4,0.3,0.8,1c0.3,0.5,0.2,0.7-0.6,3
			c-0.3,1-0.7,1.8-0.7,1.8c-0.2,0.2-0.2,0.2-0.3,0c-0.6-0.7-0.5-2.2,0-3.9C3486.1,13.9,3486.3,13.3,3486.5,13.2L3486.5,13.2z
			 M3470.9,13.4c0.1,0,0.4,0.1,0.4,0.1c0,3.5,2.7,2.8,3,0.3c0,0,0.7-0.1,0.8,0.1c0.3,0.5-0.4,2-1.5,2.5c-0.8,0.4-1.9,0.3-2.6-0.3
			c-0.2-0.3-0.7-1.6-0.6-2.2C3470.5,13.6,3470.7,13.4,3470.9,13.4L3470.9,13.4z M3469.3,13.8C3469.3,13.8,3469.3,13.8,3469.3,13.8
			c0.3,0,0.5,0.1,0.6,0.4l0.6,1.8c-0.4,0.5-2-0.5-2-1.3C3468.5,14.2,3468.9,13.8,3469.3,13.8L3469.3,13.8z M3458.3,13.8
			c0.4,0,0.6,0,0.6,0.4c0.1,1.2-1,2.4-2.5,2.5c-1.4,0.2-2.2-1-2.2-2.1c0-0.8,0.7-0.9,0.8-0.3c0.2,1.9,1.9,2,2.6,1
			C3457.9,14.9,3457.8,13.9,3458.3,13.8z M3476.1,14.2c0.1,0,0.3,0,0.5,0.1c1.5,0.5,1.5,0.7,0.3,1.2c-1.5,0.5-1.6,0.6-1.3-0.4
			C3475.8,14.5,3475.8,14.2,3476.1,14.2z M3460.3,14.4c1.1,0.1,1.2,1,0.2,1.3c-1.4,0.6-1.9,0.6-1.4-0.3
			C3459.4,14.7,3459.7,14.4,3460.3,14.4z M3453.4,14.7c0.1,0,0.3,0,0.4,0.2c0.2,0.5,0.4,0.9,0.7,1.4c-0.2,0.2-0.8,0.2-1.1-0.1
			C3452.7,15.7,3452.8,14.7,3453.4,14.7L3453.4,14.7z M3488.1,15.8c0.4,0,0.9,0.7,1,1.2c-1.5,1.9-1.3,5.5-1.6,6.6
			c-0.3,0.9-0.4,0.1-1.2-2.2C3485.9,20.5,3487.6,15.9,3488.1,15.8C3488.1,15.8,3488.1,15.8,3488.1,15.8z M3489.6,17.8
			c0.3,0.2,0.8,0.6,0.9,1.3c0,0.4-0.2,0.9-0.3,1.5c-0.3,1.3-0.7,3.6-0.9,5.8c-0.1,0.9-0.1,1.8-0.1,1.8c-0.5,0.9-1.4-1.5-1.3-3.4
			C3488.2,23.3,3488.4,18,3489.6,17.8L3489.6,17.8z M3491.8,20.5c0.2,0.3,0.3,0.5,0.4,0.8c0.1,0.4,0,1-0.2,2.1
			c-0.7,3-0.6,6.2-0.1,9.5c0.1,0.7-0.4,0.3-1.1-0.9c-0.4-0.7-0.7-1.6-0.8-2.6c-0.3-2.3,0.2-5.5,0.7-8
			C3490.7,20.2,3490.9,19.2,3491.8,20.5L3491.8,20.5z M3492.9,22.3l1.2,1.5c0,0-0.5,3.3-0.5,5.1c-0.1,0.7,0.6,7.9,0.8,8.5
			c-0.7-0.8-1.1-1.3-1.9-2.4c-0.1,0-0.8-7.2-0.3-9.9C3492.5,23.5,3492.9,22.3,3492.9,22.3L3492.9,22.3z M3494.8,25.2
			c0.2,0,0.5,0.2,0.8,0.7c0.3,0.4,0.4,0.7,0.4,1.3c0,0.4-0.2,0.7-0.2,1.3c0,4,0.5,7.7,1.2,11.3c0.2,1.3-0.2,0.8-1-0.1
			c-0.7-0.7-0.7-1-1.1-2.1c-0.1-0.2-0.8-7.5-0.8-8.1c0-2.3,0.1-3.5,0.4-4.1C3494.6,25.3,3494.7,25.2,3494.8,25.2z M3490.4,33.2
			c0,0-1.4,0.7-1.8,0.5c-0.6-1.6-2.7-6-2.8-6.7c0-0.3,0.9-1.4,0.9-1.4C3487.9,28.1,3489,30.7,3490.4,33.2z M3464,28
			c-0.4,0.5-0.9,0.3-1.9-0.2c-0.5-0.2-0.4,0.1-1.3,0.5c-0.7,0.3-0.9,0.4-1.3,0.4c-0.6,0-0.8-0.2-0.8,0.2c0,0.2,0,1.3-0.2,1.8
			c-0.2,0.7-0.4,1-0.2,1.2c0.3,0.3,0.5,0.1,1.2-0.5c1-1,1.7-0.7,2.9-0.3c1.3,0.4,1.6,0.6,2.8,0.2c1.7-0.6,2.7-0.6,3.4-0.2
			c1.2,0.7,1.5,0.7,1-1.3c-0.2-0.7-0.2-1.7-0.3-1.9c-0.1-0.2-0.4,0.4-0.7,0.6c-0.6,0.4-0.9,0.4-2.3,0C3465.5,28,3464.6,27.2,3464,28
			L3464,28z M3485.7,28.2c0.5,1.2,2.6,5.3,2.5,5.8c-0.4,0.4-0.9,0.6-1.3,0.3c-1-1.9-1.3-2.9-2.2-5
			C3484.5,28.8,3485.2,27.5,3485.7,28.2L3485.7,28.2z M3496.8,28.1c0.1,0,0.5,0.3,0.7,0.6c0.7,1,0.8,1.1,0.8,2.1
			c0.1,3.7,0.5,8,1.6,11.4c0.2,0.7,0.6,1.5,0.6,1.6c-0.3,0.5-2-0.9-2.5-2.9c-0.7-2.6-1.1-5.4-1.3-7.2
			C3496.4,30.5,3496.4,28.2,3496.8,28.1L3496.8,28.1z M3484.4,30.1c0.6,1.2,1.3,3.1,1.9,4.3c0.2,0.5-0.9,0.9-1.2,0.8
			c-0.5-0.4-0.7-1.3-1-1.9c-1-2.2-1.2-2.2-0.6-2.9C3483.7,29.9,3484.1,29.3,3484.4,30.1z M3499.1,31.4c0.1,0,0.2,0.1,0.3,0.3
			c0.6,0.7,1,1.3,1.2,1.8c0.1,0.4,0,0.7,0.1,1.4c0.1,1.9,0.6,4.5,2,9.7c0.1,0.5,0.3,1.1,0.3,1.3c-0.1,1-1.5-0.6-2-2.2
			c-0.5-1.8-1.3-4.2-1.6-6.3C3499,34,3498.7,31.4,3499.1,31.4L3499.1,31.4z M3483.1,32.8c1.2,2.7,1.3,2.7,0.5,3
			c-0.8,0.2-0.8,0.2-1.7-1.7c-0.7-1.4-0.8-1.5-0.2-2C3482.5,31,3482.7,32,3483.1,32.8z M3466.7,32.2c-0.1,0-0.5,0.3-0.9,0.5
			c-1,0.4-2.7,0.4-3.7,0.1c-1.9-0.7-1.3,0.2,0.3,0.8c1.3,0.4,3.8,0.1,4.2-0.7C3466.8,32.6,3466.9,32.2,3466.7,32.2z M3480.9,33.6
			c1,1.6,1.4,2.3,1.2,2.4c-0.2,0.2-1,0.5-1.3,0.3c-0.4-0.2-0.8-1.2-1-2C3479.9,33.9,3480.6,33.3,3480.9,33.6L3480.9,33.6z
			 M3454.6,34.3c0.5,0,1.7,1.6,1.4,1.9c-0.1,0.2-0.5,0-1.6-0.3c-0.4-0.1-1.2-0.2-0.9-0.8C3453.7,35,3454.4,34.3,3454.6,34.3z
			 M3479.8,36.5c-0.1,0.3-0.9,0.3-1.2,0.3c-0.3-0.6-0.4-0.9-0.4-1.3c0.1-0.2,0.7-0.9,0.9-0.7C3479.2,35,3479.7,36.3,3479.8,36.5
			L3479.8,36.5z M3501.6,35c0.2,0,0.5,0.3,0.9,0.9c0.8,1.2,0.7,1.1,1.3,3.9c0.7,3.2,1.5,5.4,2.3,8.6c0,0.5-0.2,0.4-0.8,0
			c-1-0.6-1.3-1.2-1.6-3c-0.5-2.8-1.6-5.4-2-8.8C3501.4,35.6,3501.4,35,3501.6,35L3501.6,35z M3477.2,36.1c0.6,0,0.5,0.9,0.3,1
			c-0.4,0.4-1.6,0.3-1.8,0.3C3475.3,36.7,3476.8,36.1,3477.2,36.1z M3504.5,39.1c0.2,0,0.6,0.7,1.5,1.9c0.8,1.1,0.6,1,1.1,2.8
			c0.7,2.6,1.8,4.5,2.5,6.9c0,0.3-0.3,0.2-0.6,0.1c-0.6-0.3-1.2-0.7-1.7-1.1c-0.4-0.4-0.4-0.9-1.4-4.5c-0.4-1.3-0.5-1.6-1-3.6
			C3504.5,39.8,3504.3,39.1,3504.5,39.1z M3416.5,46.9c2.8,5.1,1.7,7.3-4.2,8.1c-0.4-0.1,0,2.6,0,3.8c3-1.7,6.6-2.1,9.9-3.2
			c-0.9,2.9-2.5,6.2-7.3,5.7c-5-3.9-10.9-1.6-14.9-3.1c-2.2-0.8-3-3.2-3-3.7c2.6,0.3,5.6,0.8,8.1,0.6c-2.8-2.1-2-5.1-1.6-6.4
			c-3.2-4.1-0.5-8.7,4.2-7.6c0.5,0.1,1.4,0.6,1.4,0.6C3413.6,37.5,3418.9,41.4,3416.5,46.9L3416.5,46.9z M3508.2,44.4
			c0.2,0,0.6,0.5,1.4,1.6c2.5,3.5,4.6,6.7,4.6,6.9c-0.1,0.6-2.7-0.4-3.3-1.3c-0.7-1-2.8-6-2.8-6.8
			C3508.1,44.5,3508.1,44.4,3508.2,44.4z M3407.9,59.2c1.3,0.2,1.6,0.3,1.6,0.8c0.1,0.4-3.1,0.5-3.5,0.2c-0.3-0.3,0.1-0.8,0.4-0.9
			C3406.9,59.1,3407.4,59.1,3407.9,59.2L3407.9,59.2z M3496.6,59.7c-18,8.5-25.4,31.2-16.3,48.5l-1.2,0.9c-8.9-18.4-2.3-38,12.2-48
			c0.6-0.4,1.9-0.7,2.5-1.1c0,0-5.9,1.4-7.9,2.1c-0.4,0-1.6,0.4-2.9,1.8c-1.1,1-4.6,5.9-4.5,6l-9.3,0.4l0,0.3l9.1-0.2
			c-9.4,15.5-7.1,30.2-1.3,40.6l0.1,0.1c0.3,0.2,1.2-0.4,3.1-2.2c0.8-0.7,1.7-1.6,2.1-2c1.1-1,2.8-2.8,3.9-4.1
			c-6.3-12.9-0.1-29.9,14.7-37.5c0-0.4-0.2-1.7-0.2-1.7s-0.6-0.5-0.9-0.5c-16.5,7.3-23.1,25.3-16.4,41.7l-1.1,1.2
			c-8.4-17,0.6-38.2,16.4-44.3c0-0.4-0.3-0.9-0.8-0.6c-17,7.9-24.4,28.1-16.1,45.3l-1,0.9c-9.5-18.8,0.5-40,16.1-47.2
			C3497.5,60.2,3496.6,59.7,3496.6,59.7L3496.6,59.7z M3405.1,59.8c0,0-0.1,1,0.2,1.3c0.2,0.7-0.1,0.6-0.7,0.5
			c-1.5-0.4-0.3,0.5,0.9,1.2c1.2,0.7,1,0.7,0,1.3c-0.7,0.4-0.6,0.6-0.5,1c0.1,0.5,0.2,0.2,0.5-0.1c0.6-0.6,1.1-0.7,1.7-0.7
			c0.8,0,0.9,0.7,0.8,1.2c-0.3,1.1-1.4,1-2.3,0.8c-1.5-0.4-3.9-3-3.9-4.5C3401.6,60.3,3403.4,59.8,3405.1,59.8z M3411.7,60.2
			c0.6,0.2,1.3,0.5,2.1,0.8c1.1,0.4,2.2,0.9,2.9,1.4c2.2,1.5,2.1,4.4,1.9,4.7l-11.3,10.8c0,0-0.6-0.3-1.2-0.6c-1.9-1-2.4-1.5-1.3-2
			c0.5-0.3,0.7-0.8,0.8-1.4c0.1-0.7,0.1-0.6,0.5-0.9c0.8-0.6,0.8-0.8,0.8-1.8c0-0.6,0.1-0.9,0.3-1.3c0.2-0.3,0.4-1,0.5-1.8
			c0-0.1,0-0.4,0.1-0.6c0.1-0.6,0.3-0.8,0.5-0.9c0.1-0.1,0.3-0.6,0.5-1c0.3-0.9,0.3-0.8,0.8-0.7c0.7,0.1,0.6,0.6,0.6,1.3
			c0,0.3-0.3,0.6-0.2,0.5c0.1-0.1,0.6-0.3,0.7-0.3c0.2-0.1,0.5,0,0.5,0.4c0,0.2-0.1,0.6-0.1,0.9c0,0.8,0,1.7,0.2,2.3
			c0.8,2.9,0.7,2.5,0.4,0.1c-0.1-0.6-0.1-1.4-0.1-2.1c0.1-0.5,0.2-1.1,0.4-1.5c0.5-0.9,0.5-1-0.6-1.5c-0.4-0.2-1.1-0.4-1.2-0.7
			c-0.2-0.3-0.7-0.8-1.4-1c-1.6-0.4-2.6-2-2.3-2.2c0.2-0.2,0.8,0,1.2,0.1c1.5,0.1,1.8,0,2.5-0.6c0.4-0.3,0.5-0.6,0.8-0.6
			C3411.1,59.9,3411.5,60.1,3411.7,60.2L3411.7,60.2z M3488.8,61.9c-15.2,12.3-17.9,32.3-10.3,47.7l-1.3,1
			c-9.5-18.1-3.1-37.6,8.6-48.2L3488.8,61.9z M3401,63.4c0.3,0,0.6,0.4,1.6,1.5c0.7,0.8,1.5,1.4,1.9,1.7c0.9,0.4,0.7,0.3,0,1
			c-0.8,0.9-0.3,1.6-1.3,1.2c-2.4-1.1-4-4.4-2.5-5.2C3400.8,63.4,3400.9,63.4,3401,63.4z M3399.8,66.8c0.1,0,0.1,0,0.2,0
			c0.3,0.1,0.6,0.6,1,1c1.1,1.1,1.5,1.5,2.4,1.9c0.8,0.4,0.8,0.5,0.3,1.1c-0.2,0.2-0.3,0.5-0.4,0.7c0,0.2-0.1,0.4-0.2,0.4
			c-0.9,0.2-4-1.7-4.1-3C3399,67.8,3399.3,66.9,3399.8,66.8z M3406.3,67.2c0.5,0,0.8,0.5,0.8,1.2c0,0.5-0.3,0.8-0.9,1
			c-1.3,0.5-2.1-0.4-1.2-1.5C3405.4,67.5,3405.9,67.2,3406.3,67.2z M3405.5,70.3c1,0,1.3,0.8,0.5,1.5c-0.7,0.7-2,0.7-2-0.1
			C3404,71.2,3404.9,70.3,3405.5,70.3L3405.5,70.3z M3399.4,71.3c0.7,0.2,2.3,1.4,3,1.5c0,0.4-0.4,0.5,0.2,1.2
			c0.3,0.3,0.3,0.6,0.1,0.7c-0.8,0.4-3.6-0.9-3.8-2.3C3398.8,71.7,3399,71.3,3399.4,71.3z M3403.1,73c1,0,2.1,0.1,1.9,0.5
			c-0.1,0.3-0.4,1.2-0.9,1.1c-0.2-0.1-0.4-0.3-0.6-0.4C3403.1,73.6,3402.9,73,3403.1,73z M3439.6,77c2.8,2.6,13,29.2-8.3,48.7
			l-4.5,1.4c20.5-16.1,17.1-39,11.5-48.8c0-0.3-0.1-0.3-0.6,0.2c-0.4,0.4-0.5,0.5-0.3,0.6c6.2,9.6,8.6,36.8-16,49.9
			c-0.4,0.4,0.4,0.4,0.4,0.4c0-0.4,11.1-3,10.3-3.1c10.3-9.1,19.2-30.8,8.1-49.8C3440,76.2,3439.6,77,3439.6,77L3439.6,77z
			 M3436.1,80l-0.1,0.6c8.9,17.6,0.4,39.1-16.2,47c0.3,0.2,0.6,0.3,0.9,0.5c18.8-10.2,24.2-31.6,16-48.3L3436.1,80z M3434.6,81.3
			l-0.1,0.6c7.4,14.9,1.5,35.7-16.1,44.1c-0.2,0.9,0,0.6,0.8,0.6c20.4-11,22.3-31.8,15.9-45.3L3434.6,81.3z M3433.3,83.1
			c-0.6,0.8-1.6,1.2-2,2.1c5.9,15.7-1.7,30.8-14.7,37.2c0,0.8-0.6,2.7,0.8,2.4c16-7.3,23-26.6,16-41.8
			C3433.4,83,3433.3,83.1,3433.3,83.1z M3513.8,113.4c0.6,0,1.1,0.2,1.7,0.3c2,0.3,3.3,1.7,2.4,2.6c-0.3,0.3-0.7,0.1-2-0.5
			c-0.6-0.3-0.7-0.6-0.8-1.2c-0.1-0.8-0.3-0.9-0.5-0.3c-0.2,0.6-0.4,1-1.1,0.8C3511.5,114.7,3512.2,113.4,3513.8,113.4z
			 M3492.5,126.8c-4.8-2.7-10.7-7.6-14-13.2c-1.7,3.2-3.6,8.9-3.6,8.9l-7.5-2.1l-0.1,0.2l7.4,2.1l-0.7,2.5c-0.1,0.3-1.2,3.1-1.2,3.1
			l11.6,5.4c-0.7,1.1-1.5,1.9-2.5,2.9c-0.6,0.6-0.6,1.4-0.6,1.4l16-15.3c0,0,2.1,3.1,2.8,3.8c0.7,0.7,0.9,0.8,0.1,1
			c-3.8,0.6-6.7,3.4-5.7,7.3c0.2,0.4,0.5,0.3,1.2-0.2c2.5-2.3,8.6-4.4,8.8-3.8l0,2.4c-6.6,0.1-5.9,5-5.4,7.6c0,0.1-1.9,1.7-1.9,1.7
			c0.7,0.4,1.3,0.7,2,1.2c-0.6,3.2,2.2,7.9,7.6,5.5c0.5,0.5,0.9,1,1.4,1.6c0.6-0.6,1.2-2.2,1.2-2.2c2.7,1.2,8.3-1.5,5.4-7.8l1.6-1.5
			l-1.5-1c0-1.6-0.3-3-1.2-4.4c0,0,2.5,0.6,4.4,0.8l0,0c1.2,0.1,2.1,0.1,2-0.6c0-0.2-0.2-1.2-0.3-1.5c-0.6-1.6-3.5-2.8-6.3-3
			c-0.5,0-1,0-1.1-0.1c-0.2-0.2,0.1-0.5,0.4-0.5c1.5,0.3,3-0.9,3.3-2.3c0.1-0.3,0.4-0.7,0.8-1.2c0.8-0.9,0.9-0.9,0.9-2.1
			c0-0.9,0.1-1.1,0.6-1.7c0.5-0.8,0.8-1.9,0.5-3.1c-0.1-0.4-0.4-0.9-0.1-1.8c0.5-1.5-0.6-2.8-1.9-3.6c-0.1,0-0.1,0.1-0.2,0.2
			c-1.2,0.4-2.7-0.5-2.7-0.5c-0.3-0.2,1.1-8.1,3.9-7.4c0.5,0.3,0.7,1.7,0.6,1.7c0.1,0,0.2-0.8,0-1.4c-0.2-0.6-0.6-1.1-1.5-0.9
			c-0.7,0.1-1.4,1-1.8,1.4c-1.3,1.7-1.3,2.8-1.8,4.6c-0.2,0.8-0.2,0.8-1.4-0.1c-0.8-0.7-1.2-0.9-1-1.3c0.1-0.2,0.7-0.7,0.7-0.7
			l10.7-9.9v99.2h-58.3l0.4-13c1.1-8.9-0.8-27.7-2.3-29.5c1.1-1.3,4.6-4.3,4.4-4.4l-0.5-0.3l-1.8,1.7l-4.5-1.4
			c-1.9-1.3-3.9-2.6-5.9-3.1c-3.3-0.9-9.7,1.9-9.8,1.9c-10.2,0.8-18.5,4.9-18.3,4.9c-0.4-0.4-1-1.7-1.1-1.7
			c-5.3-7.4-10.5-11.5-17.6-16.5l9-5l-21.3-22.3l-0.2-18.1l30.9-29.6c0.2-0.5,9.8,6.8,13.4,12.8c0.7-2.9,2-5.6,3-8.5
			c0.1-0.3,6.1,2.2,7.9,2.3c0.3,0,0.5-0.3,0.5-0.3l-8-2.6l1.6-4.7c0,0,0.6-1.3-0.1-1.5c-3.6-1.2-7-3.2-10.5-5c0,0,1.6-1.8,1.6-1.9
			c0-0.1,0.7-1,0.5-1.4c-1.8,1.7-16.2,15.1-16.2,15.1c-0.4-2.3-1.1-3.1-2.5-4.5c0.8,0,2-0.8,2.6-1.3c2.1-1.5,3.3-4.3,3-5.9
			c-2,0.6-3.9,1.4-6.4,1.9c-1.4,0.3-2.8,0.9-3.6,1.6l-0.1-2.6c0,0,3.4,0.6,5-1.7c1.4-2,0.8-4.2,0.5-5.4c0-0.3,0-0.2,0.5-0.8
			c0.4-0.4,1.1-0.9,1.1-0.9c0-0.1-1.8-0.8-2.1-1.4c0.5-4.7-3.3-6.6-6.5-5.7c-0.6,0.2-0.9,0.3-1.6-0.5c-0.1-0.1-1-1-1-1
			s-0.4,0.9-0.6,1.3c-0.6,1.2-0.8,0.9-2.2,0.9c-3.4,0.2-5,2.9-4.2,6.4c0.2,0.8,0.1,0.7-0.4,1.7c-0.3,0.5-0.7,1.2-0.7,1.2
			s0.6,0.3,1.1,0.5c0.6,0.3,0.7,0.6,0.7,1.2c0.1,1.4,0.4,2.3,1.2,3.5c-2.7,0.1-4.8-0.2-7.2-1c0.4,3.8,3.1,5.1,6.5,5.7
			c0,0-0.4,0.3-0.7,0.5c-0.8,0.2-1.3,0.9-1.3,1.5c-0.1,0.6-0.5,1.2-0.9,1.5c-0.5,0.5-1,1.1-0.8,2.3c-0.1,0.9-0.3,1.2-0.5,1.5
			c-0.5,0.7-0.7,1.4-0.6,2.3c0.1,0.4,0.2,1.3,0.1,2.3c-0.1,1.6,0.4,2.1,1.1,3.2c0.5,0.7,0.4,0.7,0.3,1.2c-0.3,1.2-0.5,1.9-0.8,2.8
			c-0.6,2.1-0.6,3.7-0.1,4.1c0.8,0.6,1.6,0.4,2,0.3c3-0.9,2.5-3.9,2.6-5.8c0.1-0.5,0.3-0.8,0.4-0.7c0.8,1,1.7,1.6,2.9,2.2
			c-4,4.1-6.5,6.5-11.6,11v-99h57.5c0,0,0.1,0.8-0.1,4.4c-0.2,7.3-0.6,14.9-0.1,22.3c0.1,2.6,0,5.1,0.4,7.6c0.4,2.5,0.5,5.1,1.7,7.4
			c0.5,1.2,0.5,1.2-1.3,2.8c-0.9,0.8-1.6,1.7-1.6,1.8c0,0,0,0.2,0.1,0.1c0.1-0.1,0.7-0.7,0.8-0.8c0.5-0.6,1.3,0.2,4,0.9
			c0.5,0.2,1.3,0.7,1.9,1.1c4.1,3.4,9.8,2.4,14.1,0.5c1.2-0.5,1.5-0.6,3.5-0.8c7.2-0.9,15-4,15-4l0.9,1.6c0,0,0.4-0.1,0.6,0.3
			c4.2,7.9,17.8,16.9,17.5,16.5l-8.9,4.9c6.5,8,21.4,21.6,21.4,21.6v19.6c-4,3.2-7.9,6.8-11.4,10.4c-1,1-1.7,1.6-1.3,1.6
			c0.9-0.1,1.7,0.8,2.4,1.4c0.5,0.5,0.4,0.5-0.2,1.2c-0.4,0.5-0.5,0.6-0.5,1c0,0.7,0,1.2-0.6,1.7c-0.4,0.5-0.6,0.8-0.7,1.4
			c-0.1,0.6-0.1,0.9-0.5,1.5c-0.7,0.1-0.7,1.1-0.6,1.6c0.7,0.7,0.4,1.5,0.4,1.3c-1.3,1.5-2.7,2.7-1.8,0.7c0.4-0.8,0.5-1.4,0.5-1.4
			s-0.6,0.7-1,1c-0.5,0.5-0.7,0.2-0.7-1.3c-0.1-1.1-0.5-2.7-0.7-3c-0.1-0.2-0.1,0.1-0.1,1.2c0.1,1.4,0.2,1.8-0.3,3.3
			c-0.7,1.9-1.2,2.2-0.1,2.1c1-0.1,1.9-0.1,2.4,0.5c0.2,0.2,0.4,0.6,0.8,0.8c0.9,0.5,1.5,1,2,1.5c1.5,1.7,1.1,3.2-1.9,2.2
			c-1.6-0.5-0.5-1.2,1.1-1.1c1,0.1,1.2-0.3,0.3-0.6c-1.7-0.3-1.9-0.5-3,0.8c-4.6-0.5-7.2-3-8.5-5.2c-0.5-0.9-0.7-1-0.3-1.5
			c0.1-0.2,0.1-0.1-0.2,0.1c-0.2,0.3-0.9,0.5-1.1,0.7C3495.4,123.8,3493.9,125.5,3492.5,126.8L3492.5,126.8z M3512.6,115.9
			c0.8,0.1,0.8,0.8,0.1,1.4c-0.7,0.5-1.1,0.6-1.5,0.2C3510.5,116.9,3511.3,115.9,3512.6,115.9z M3514.9,116.4c0.6,0,1.4,0.3,2.4,1.1
			c1.1,1,1.4,3.3,0.4,3.7c-0.4,0.2-0.5,0-1.4-0.9c-0.6-0.6-1.3-1.1-2-1.5c-1.4-0.7-1.6-0.9-0.6-1.4c0.2-0.1,0.4-0.3,0.6-0.5
			C3514.3,116.5,3514.4,116.4,3514.9,116.4z M3513.4,119.4c0.2,0,0.4,0.1,0.8,0.3c2.3,1.3,3.5,3.3,2.7,4.4c-0.5,0.7-1.4,0.5-2-0.6
			c-0.4-0.6-1.3-1.3-2.4-1.9c-1.2-0.6-1.3-0.7-0.4-1.2c0.4-0.2,0.6-0.4,0.8-0.7C3513.1,119.4,3513.1,119.4,3513.4,119.4
			L3513.4,119.4z M3514.1,124.2c1.8,1.8,1.6,2.7,0.4,3.4c-0.8,0.5-2,0.6-2.4,0.2c-0.7-0.6-0.6-1.2,0.1-1.5c0.7-0.1,0.4-0.4-0.2-0.6
			c-2.3-0.6-3.7-1.9-1.2-1.6c0.7,0.1,1.4-0.5,1.8-0.9C3513.1,122.6,3513.8,123.9,3514.1,124.2L3514.1,124.2z M3394.5,124.9
			l51.1,73.1h-41.3c1.5-11.6-1.5-24.5-5.3-32.9c4.2-0.7,8.2-1.8,12.2-2.9l-0.8-1.1c-4.8,1.9-9.2,2.6-13.3,3.1
			c5.5,9.4,7.5,22.4,5.8,33.8h-7.9v-56.7L3394.5,124.9z M3403.7,135.7c0.7,0,2.5,1.2,2.7,2.2c0,0.2,0.5,1.4,1,2.5
			c0,0.2,1.8,3.4,1,3.1c-1.6-2.1-4.3-5.7-5-7.5C3403.4,135.8,3403.5,135.7,3403.7,135.7z M3409.2,138.9c0.1,0.5,0.6,1.9,1.1,2.8
			c1.1,2.4,2.8,6.1,2.5,7.2c-0.2,0.7,0,0.7-0.6-0.2c-0.3-0.4-1.3-1.8-1.5-2.1c-0.6-0.8-0.2-0.1-0.5-1.3c-0.8-3.5-2-5.3-2.8-7.3
			C3407,137.1,3408.8,138.6,3409.2,138.9z M3410.2,139.5c0.1,0.1,2.2,1.5,2.4,1.7c0.7,2.6,3.6,10.8,2.8,12.2
			c-0.3-0.2-1.4-1.5-1.5-2.2c-0.3-3.9-1.6-6.7-2.9-9.7C3410.6,140.7,3410.3,139.8,3410.2,139.5z M3414,142.4c0.6,0.3,1.3,1,1.7,1.7
			c0.3,0.4,0.4,0.9,0.6,2c0.7,3.4,2.1,6.7,1.5,10.3c-0.4,0.5-1.2-0.7-1.4-1.9c-0.4-4-0.8-5.9-2.1-10.5
			C3414,143.1,3413.8,142.4,3414,142.4z M3417.3,145.4c0.1,0,0.4,0.3,0.9,0.7c0.9,0.9,1,1.2,1,2.6c0,2.1,0.7,4.5,0.8,6.6
			c0.1,1.2,0.3,4.4,0.1,4.6c-0.3,0.4-1.4-1-1.4-3c0.2-2.5,0-4.3-1-8.6C3417.3,146.3,3417,145.5,3417.3,145.4
			C3417.2,145.4,3417.3,145.4,3417.3,145.4L3417.3,145.4z M3511.7,133c3.7,2.4,2.4,6.7,1.6,7.2c5,6.4-2.8,9.7-5.3,7.4
			c-3.7,3.7-10,0.6-7.6-5.5c0,0-4.6-8.9,4.5-8.3c0,0,0.2-3.6-0.1-3.7c-3.3-0.2-7.7,2.9-8.9,3.8c-0.7,0.4-0.8,0.2-0.8,0.2
			c-0.2-1.9-0.2-2.7,0.6-3.7c1.3-1.8,3.5-2.4,6.3-3c3.5,1.1,6.9,2.8,10.2,2.5c1.8,0,3.6,0.3,5.4,1.2c1.2,0.6,1.8,2.7,1.8,2.7
			C3517.5,134.7,3511.7,133,3511.7,133z M3510,119.8c0-0.6,0.7-1.3,1.4-1.3c1,0.1,1.1,1.2,0.2,1.6c-0.2,0.2-1.1-0.1-1.1,0.1
			c0.1,0.4-0.3,0.2-0.4,0.1C3510,120.3,3510,120,3510,119.8z M3509.4,122.3c0.4-0.2,0.7-0.3,1-0.3c0.5-0.1,1.3,0,1.4,0.6
			c0.2,0.6-0.9,0.9-1.8,0.9c-0.4,0-1,0.1-1.1-0.2C3508.8,123,3509.2,122.5,3509.4,122.3L3509.4,122.3z M3398.7,81.9
			c0.7-2.5,0.3-3.8,1.4-6.9l2.9,1c0,0,0.1,3-0.5,4.6C3402,82.3,3400.1,83.6,3398.7,81.9z M3420.1,148.4c0.3,0,1.2,1.2,1.5,2.3
			c0.3,1,0.2,2.3,0.5,3.4c0.6,3.7,0.5,7.4,0.4,8.5c-0.1,0.6-0.4,0.3-0.9-0.2c-0.7-0.8-0.6-0.8-0.6-2.9c0-1.8-0.4-6.4-0.6-7.3
			c-0.3-1.7-0.5-3.3-0.4-3.6C3420,148.4,3420,148.4,3420.1,148.4z M3453.5,148.8c3.7,0.6,6.6,3.1,8.3,7.3c1.6,4.2,2,10,2.3,15.3
			c0,1.3-0.5,0.9-1.9,0.2c-1.5-0.7-1.8-0.5-4,0c-1.4,0.3-1.2-0.6,1-2.2c0.8-0.5,1.6-1.2,1.4-1.3c-0.1-0.1-0.8,0.1-1.3,0.5
			c-2.2,1.8-2.8,2.2-2.2,0.5c0.2-0.4,0.7-1.6,0.9-2.2c0.8-2.2-0.1-3.1-2.8-4.5c-0.7-0.3-1.1-0.9-0.4,0.3c0.6,1-0.6,1.8-2,0.6
			c-1-0.8-3-0.3-3.6,0.7c-0.6,1-0.3,2.8,0.9,3.3c1.1,0.5,1.5,0.1,0.4-0.6c-1.3-0.9-1.1-2.5,0.4-2.5c0.4,0,1,0.4,2.7,1.3
			c1.2,0.6,2,0.4,2-0.6c0-0.6,0.4-0.6,1.1-0.2c1,0.5,0.9,1,0.4,2.4c-0.4,1-0.6,2.2-0.9,3.2c-0.9,3.6-1,7.6,0,8.8
			c2.6,3.3,5.3,3,7.7,0.8l-0.1,3.7c-2.4,1.9-5.2,3.2-9.5,10.4c-1.5-1.9-8-9.7-18.4-11.4l-2.3-3.2c0-0.2-1.7-11.9-2.9-15.9
			c0,0,1.3-2,2.5-3.4C3437.8,154.5,3445.7,147.9,3453.5,148.8L3453.5,148.8z M3440,152.2c-0.4,0.1-0.5-0.7-0.3-0.8
			c0.5,0,0.6,0,1.1,0C3441.2,151.4,3441.2,151.8,3440,152.2z M3422.5,151.6c0.5,0.4,1.2,1.4,1.8,2.3c0.3,0.5,0.1,1.3,0.2,2.2
			c0.1,1.2,0.2,3.1,0.3,4.3c0.2,2.3-0.1,4.2-0.4,4.9c-0.3,0.8-1,0.3-1.2-0.9c0-0.3,0.2-3.1,0.2-4.7
			C3423.3,157,3422.6,153.7,3422.5,151.6z M3438.2,151.5c0.2,0,0.3,0,0.4,0.2c0.6,0.7,0.8,1.2,0.3,1.5c-0.7,0.6-1.3,0.4-1.7-0.7
			C3437,151.8,3437.6,151.6,3438.2,151.5z M3436.1,152.2c0.6,0.4,1.2,1.5,1.3,2.2c0,0.2-0.2,0.4-0.6,0.7c-0.4,0.4-0.5,0.3-1-0.4
			c-0.7-1.1-1-1.8-0.9-2.2C3435.2,152.2,3435.7,152.1,3436.1,152.2z M3460.7,152.3c1,0.1,2,0.5,3,0.8l-1.5,1.4
			C3461.7,153.8,3461.2,153.1,3460.7,152.3z M3433.9,153.1c0.6,0.7,1.5,2.6,1.5,3.3c-0.1,0.2-0.4,0.5-0.6,0.6c-0.2,0-0.3-0.3-1-1.4
			c-1.1-1.9-1.4-2.5-0.8-2.7C3433.2,152.9,3433.7,152.9,3433.9,153.1z M3431.7,153.5c0.6,0.5,2,3.4,2.1,4.2c0,0.2-0.1,0.4-0.2,0.6
			c-0.9,1-0.7,0.8-2-2c-1.1-2.3-1.4-2.5-0.7-2.8C3431,153.5,3431.4,153.4,3431.7,153.5L3431.7,153.5z M3429.5,154.3
			c0.4,0,0.5,0.7,1.3,2.2c1.3,2.9,1.8,3.3,1.5,3.6c-0.4,0.5-0.6,0.8-0.9,0.2c-0.8-1.3-1.6-2.9-2.3-4.3c-0.6-1.1-0.6-1.2-0.3-1.5
			C3429.1,154.3,3429.4,154.3,3429.5,154.3L3429.5,154.3z M3452.6,155.1c-0.5,0.1-2.4,0.8-1.2,0.9c0.2,0,0.9-0.1,1.3-0.2
			c1.2-0.1,3.7,0.1,3.6-0.1C3456.1,154.8,3453.3,154.9,3452.6,155.1z M3427.8,155.3c0,0,0.3,0.6,0.6,1.2c1.8,3.6,2.9,4.9,2.5,5.4
			c-0.3,0.3-0.7,0.8-0.9,0.7c-0.4-0.2-0.9-1.3-2.2-4c-1.4-2.7-1.5-2.9-0.8-3.3C3427.3,155.2,3427.7,155.1,3427.8,155.3L3427.8,155.3
			z M3426,156.6c0.8,1.4,0.7,1.2,0.7,5.7c0,2.8-0.4,4.6-0.8,5.3c-0.2,0.4-0.7,0.1-0.9-0.6c-0.1-0.3,0.2-0.8,0.2-1.3
			c0.3-3.4,0.1-6.7,0.1-9.9C3425.6,155.8,3425.9,156.4,3426,156.6z M3447.8,157.7c0.4,0.6,0.3,1,0.3,1.8c0,1.1,0.1,1.2,0.8,0.6
			c0.7-0.5,0.7-0.5,1.9,0.3c0.7,0.5,1.6,0.5,2.1,0c0.4-0.4,0.5-0.2,1.1-0.1c0.6,0.3,0.7,0.4,2-0.2c0.8-0.4,0.9-0.4,1.4-0.2
			c0.9,0.8,1,0.5,0.9-0.5c0-0.4,0.1-1,0.2-1.4c0.4-1.8-0.3-1.8-1.2-0.7c-0.4,0.4-1.2,0.6-1.9,0.3c-1.1-0.5-2.8-0.3-4.1-0.1
			c-1.5,0.3-2.2-0.2-2.8-0.7c-0.3-0.3-1.1-0.6-1.2-0.3S3447.3,157,3447.8,157.7L3447.8,157.7z M3427.7,160.2c0.2,0,0.5,0.5,0.9,1.7
			c0.5,1.5-0.4,6.8-1,7.7c-0.3,0.5-0.5,0.7-1.1-0.1c-0.2-0.4-0.1-0.5,0.2-1.5c0.4-1.6,0.7-4.1,0.7-5.3
			C3427.5,161.1,3427.5,160.3,3427.7,160.2z M3429.7,165.4c0.1,0,0.3,0.3,0.5,0.9c0.3,0.8,0.2,2.4-0.2,3.6c-0.2,0.7-0.5,1.5-0.8,2.1
			c-0.1,0.4-0.8,0.2-1-0.6c-0.1-0.5,0.3-1.1,0.5-1.9c0.2-0.8,0.4-1.8,0.5-2.3C3429.3,166,3429.5,165.3,3429.7,165.4z M3444.4,167.7
			C3444.4,167.7,3444.4,167.7,3444.4,167.7C3444.4,167.7,3444.4,167.7,3444.4,167.7c-0.1,0,1.4,1.7,1.8,2.1c0.2,0.2,2,2.3,0.9,1.8
			c-2.8-1.2-6-0.6-8,1.3c-0.3,0.2-0.5,0-1.2-0.1c-1.6-0.1-2.1,0.5-1.2,1.3c0.1,0.1,0.4,0.2,0.6,0.4c0.1,0.2,0.1,0.5,0.2,0.6
			c3,4,8.6,4.8,12.1,2.2c0.4-0.3,0.7-0.4,1.1-0.3c0.8,0.2,0.9-0.4,0.2-1.4c-0.3-0.4-0.7-0.9-0.5-1c0.4-0.4,0.7-1-0.1-1.2
			c-0.5-0.2-1.1-0.8-1.4-1.6C3448.3,170.7,3444.9,167.8,3444.4,167.7L3444.4,167.7z M3430.8,169.5c0.7,0,0.7,3.9,0,5
			c-0.4,0.4-1.2-0.4-1.1-1.2c0.1-0.6,0.8-3.6,0.9-3.7C3430.6,169.5,3430.7,169.5,3430.8,169.5L3430.8,169.5z M3444.1,171.9
			c0.5,0,1.3,0.2,1.9,0.8c0.3,0.3,0.9,1.6,0.7,2.1c-0.1,0.3-0.7,0.2-0.8,0.1c-0.4-2.6-2.4-2.9-3.1-0.5c0,0-0.4,0.4-0.5-0.3
			C3442.4,172.5,3443,171.9,3444.1,171.9z M3460.7,172.1c0.7,0,1.3,0.3,1.6,1c0.2,0.5,0.2,0.9,0.2,1.1c-0.1,0.2-0.3,0.1-0.3,0.1
			c-1-2.9-2.5-1.5-3,0c0,0-0.5,0.2-0.6,0c-0.1-0.2,0-0.5,0.2-0.9C3459.2,172.6,3460,172.1,3460.7,172.1L3460.7,172.1z M3446.7,172.3
			c0.4,0,1,0.3,1.5,0.8c0.5,0.5,0.5,0.8,0.1,1.1c-0.2,0.2-1.1,0.4-1.2,0.1l-0.7-1.6C3446.3,172.4,3446.5,172.3,3446.7,172.3
			L3446.7,172.3z M3441.6,172.3c0.4,0,0.5,0.1-0.1,1.6c-0.1,0.3-1.8-0.1-1.5-0.8C3440.5,172.7,3441.2,172.3,3441.6,172.3z
			 M3458.4,172.5c0.2,0,0.3,0,0.4,0.1c-0.1,0.1-0.8,1.7-0.8,1.7c-0.6-0.1-1.3,0-1.4-0.5c-0.1-0.5,0.1-0.7,1-1.1
			C3457.8,172.6,3458.1,172.5,3458.4,172.5z M3463.3,172.9c0.6,0.2,0.8,0.8,0.7,1c-0.1,0.2-0.4,0.2-0.6,0.1
			c-0.2-0.2-0.5-0.6-0.5-0.9C3463,172.8,3463.1,172.8,3463.3,172.9z M3431.7,174.4c0.2,0.4,0.5,2.5,0.1,2.4
			c-0.4-0.1-0.6-0.7-0.7-1.3C3431.2,175.3,3431.5,174.4,3431.7,174.4z M3438.7,175.5c0.2,0,0.6,0.1,1.3,0.5c2.3,1.1,4.6,1.3,7.1,0.7
			c1.4-0.4,1.8-0.6,2-0.3c0.3,0.4-0.2,0.8-2.2,1.5c-2.2,0.7-4.5,0.6-7.5-1.5C3438.6,175.8,3438.5,175.5,3438.7,175.5L3438.7,175.5z
			 M3463.9,176c0.4,0.7-0.9,1.4-1.5,1.5c-1.4,0.4-3.4,0.2-4.6-0.5c-0.1-0.1-0.2-0.1-0.3-0.2c-1-0.7-0.6-1.2,0.5-0.7
			c1.1,0.6,3.5,0.7,4.7,0.1C3463.3,176,3463.7,175.7,3463.9,176z M3435.7,177.4c-0.1,0,0.1,0.3,0.5,0.8c3.1,3.5,10.5,5.4,14.7,1.8
			c1.3-1.2,1.1-1.8-1-0.8c-2.3,0.8-5.5,0.8-8.3,0.4c-1.4-0.2-3.6-0.7-4.8-1.5C3436.2,177.5,3435.8,177.3,3435.7,177.4z
			 M3457.1,177.5c0.2,0,0.5,0.1,1.2,0.5c1.1,0.5,3.4,0.4,4.2,0.1c1.6-0.6,2,0.2,0.4,1c-1.7,1.1-4.1,0.6-5.6-0.7
			c-0.4-0.4-0.7-0.9-0.5-0.9C3457,177.4,3457.1,177.5,3457.1,177.5z M3436.5,183.6c6.1,0.6,15.4,7,19,14.3h-2.1
			c-3.6-5.8-9.2-10.7-15.8-12.5C3437.4,185.3,3436.4,183.9,3436.5,183.6L3436.5,183.6z M3463.7,185l-0.3,2c-1,0.8-4.8,4-7.6,8.9
			c-0.6,0-0.9-0.7-0.8-1.2C3457.3,190.2,3460,187.8,3463.7,185L3463.7,185z M3439,186.6c1.4-0.1,10.5,5.2,13.6,11.4h-1.7
			c-3.5-4.5-7.3-7.8-10.7-9C3439.3,188.1,3438.4,186.6,3439,186.6z M3463.4,188l0,2.7c-2.2,2.1-3.8,4.6-5,7.2h-1.7
			c0,0-0.4-1.1-0.2-1.5C3458.3,192.9,3460.2,190.4,3463.4,188L3463.4,188z M3449.5,197.9h-1.6c-1.4-2-3.4-4.2-5.3-5.3
			c-0.8-1-1.6-2.2-1.3-2.3C3441.3,189.6,3448.6,194.8,3449.5,197.9z M3463.5,192.1l0,1.6c-1.1,1.4-2,3-2.9,4.3h-1.4
			C3460.4,195.2,3463.6,191.3,3463.5,192.1L3463.5,192.1z M3444.6,195.1c0.5,0.1,2.4,2.2,2.3,2.8h-0.8c-0.5-0.6-1-1.6-1.4-2.2
			C3444.5,195.4,3444.4,195,3444.6,195.1L3444.6,195.1z M3463.1,195.6C3463.1,195.6,3463.1,195.6,3463.1,195.6c0,0,0,2.3,0,2.3h-1.4
			C3461.6,197.9,3462.4,196.1,3463.1,195.6L3463.1,195.6z"/>
		<path id="path6313-8" d="M3470.8-9.8l52.3,74.4l0-16.5l-16.8-21.7c3.8-1.2,8.5-2,12.2-2.3c-4.7-10.5-7.1-20.3-5-33.8
			C3498.8-9.9,3484.1-9.9,3470.8-9.8z M3512.6-9.4c-0.4,4.8-0.9,10.1-0.1,16c-2.7-1-3.4,0.7-3.8,0.9c-0.5-1.1-2.4-3.1-4.6-0.8
			c-1.1,1.2-0.6,3.5,2,4.5c-3,0.2-4.5-2.3-5-4.9c-1.6-1-3.3-2-3.5-5.7l0.8,0.1c-0.3,2.5,2.3,3.8,3.9,2.6c1-0.8,1.1-1.9,0.7-3.7
			c0.8-0.2,2.7-0.9,2.2-3.3c-0.7-3.3-4.1-2.9-5.6-0.7c-1.3-1.6-3.6-1.9-4.6,0.6c-0.5,1.4,0.7,2.9,2,3.2c-3,0.6-4.6-3.6-4.7-6.4
			l-1.3-2.2C3499.3-9.4,3502.9-9.4,3512.6-9.4z M3471.6-9.3l6.1,0l44.4,57.5l0.1,14.3L3471.6-9.3z M3487-9.3l1,0
			c0.8,5.1,3.7,8.7,8.6,10.5c0.3,4.1,2.2,9.8,9.8,11.7c-0.2,4.7,2.8,9.1,6,11.3c0,0-0.9,0.2-1.5,0.3c-4.3-3.4-5.4-8.5-5.8-10.5
			c-0.1-0.3-0.6-0.4-0.9-0.4c-3.7-1.3-6.8-4.3-8.1-8l-0.8-3.6c0-0.5-0.1-0.2-1.2-0.7c-2.8-1-5.5-4.1-6.7-7.8
			C3486.8-8.7,3487-9.3,3487-9.3z M3483.1-9.3l3.4,0c0,0,0,0.6,0.1,1c0.5,3.6,3.7,8.2,7,9.7c0.5,0.2,1.1,0.5,1.3,0.7
			c0.9,5.9,3.6,9.5,9.3,12c0.1,0.1,0.3,0.2,0.4,0.3c0.8,3.7,2.5,7.9,5.7,10.3l-1.4,0.1L3483.1-9.3z M3499.7-3.1
			c0.8,0,1.4,0.6,1.4,1.4c0,0.8-0.6,1.4-1.4,1.4c-0.8,0-1.4-0.6-1.4-1.4C3498.3-2.4,3498.9-3.1,3499.7-3.1z M3452.7,4.6
			c0.1,0.2-19,16.4-17.2,46.9l-0.6,0.6l0.2,0.2c-0.6,0.7-1.2,1.3-1.9,2c4,2.5,10.9,5.3,10.9,5.2l-1.3,3.1l8.3,2.7l-1.1,2.9
			c0,0-5.7-1.9-8.1-2.7c-1.2,2.6-1.9,5.4-2.7,8.1c-0.1,0.2-0.3,0.1-0.6-0.3c-4.3-7.3-13.1-12.6-12.8-12.1l-31.3,29.7l-0.2,18.4
			l21.6,22.3c0,0-6.3,3.1-9.2,5.1c2.3,1.9,4.9,3.3,7.2,5.1c4.7,3.3,7.9,8.3,11,11.6c14.5-7.2,29.1-6.8,41.7-2.4
			c-1.5,1.5-3.1,2.9-4.6,4.6c3.7,9.6,2.5,28.7,2.3,29.3c7.6-7.8,19-24.5,17.4-48.1l3.2-3.2c-0.1-0.2-8-4.4-11.3-5.4l0.9-2.9
			l-7.9-2.5l0.9-2.3l7.9,2.3c1.5-3.7,3.1-8.9,3.1-8.9c3.2,4.7,6.6,9.1,13.8,13.4l31.1-29.8l-0.2-19.2l-21.2-21.2l8.8-4.6
			c-0.8-0.7-2.1-1.3-2.9-2c-0.1,0,0.2-0.2,0.1-0.2c-0.2-0.2-0.4-0.3-0.6-0.5c-0.1,0-0.2,0.2-0.3,0.2c-3-2.1-6-4.2-8.3-6.7
			c-0.1-0.1,0-0.3,0-0.4c-1.2-1.3-2.4-2.5-3.7-3.8c-0.6-0.6-1.5-2-1.5-2l-0.1-0.5L3492,35c-4.3,2.5-22.6,8.9-40.4,1.9l3.4-3.4
			c-0.9-2.2-1.5-4.6-1.7-6.6C3452.4,18.9,3452.7,4.6,3452.7,4.6L3452.7,4.6z M3508.7,9.1c0.8,0,1.5,0.7,1.5,1.5
			c0,0.8-0.7,1.5-1.5,1.5c-0.8,0-1.5-0.7-1.5-1.5C3507.2,9.7,3507.9,9.1,3508.7,9.1z M3513.3,10.8c0.7,3.7,2.4,9,4,12.6l-2,0.2
			c-1.6-1-3.3-2.5-3.5-4.7c-4.3,0-5.6-6.7-4-5.9c-0.2,2.3,1.5,3.2,3.1,3c1.4-0.2,2.6-2.1,0.9-4.3C3512.7,11.5,3513,11.2,3513.3,10.8
			z M3452.3,21.7c0.3,4.7,1.2,8.1,2.1,11.7l-8.5,8C3446.5,34,3448.6,27.5,3452.3,21.7z M3493.1,37.1l1.1,1.6
			c-12.3,7.2-33.3,7.7-46.1,1.6l1.7-1.6C3461,43.8,3479.3,44.2,3493.1,37.1z M3413.2,39.5c-1.2,0-2.7,0.5-4.2,1.6
			c-5.6-2.6-9.3,3.4-5.8,7.4c-0.5,2.9-0.9,3.4,1.2,6.3c-2.3,0.3-5.2-0.3-7.6-0.7c0.4,4.2,6.5,5.2,9,4.8c2.7-0.6,5.3,0.8,5.4,0.8
			c1.6,0.4,2.6,1.2,4.2,1.6c2.6,0.6,6.4-2.4,7-5.4c0.1-0.4,0.2-0.7,0-0.8c-1.8,0.5-3.7,1.1-5.5,1.5c-1.7,0.4-3,0.8-4.3,1.8l-0.1-3.5
			c8.8,0.4,5-8,4.5-8.4C3418.6,43.3,3416.7,39.6,3413.2,39.5L3413.2,39.5z M3493.5,39.8l1.9,4.6l-5.1,1.7l-1.3-4.5L3493.5,39.8z
			 M3412.9,39.9c3,0,5.7,3.2,2.8,6.7c5.6,4.9-1.6,10.2-5,6.6c-4.5,4.2-9.4-0.2-6.8-4.7c-4.8-4.3,1.1-10.2,5.2-6.4
			C3410.1,40.6,3411.5,39.9,3412.9,39.9z M3447.7,41.6c0.7,0,1.3,0.6,1.3,1.3s-0.6,1.3-1.3,1.3s-1.3-0.6-1.3-1.3
			S3447,41.6,3447.7,41.6z M3414.5,41.7c-0.1,0-0.2,0-0.3,0.1c-0.1,0-0.5,0.6-1.3,1.5c-1.4,1.6-1.5,1.6-1.5,1.6
			c-1.5-0.5-2.5-0.2-3.4,0.4c0,0-1.1-0.2-2.6-1.5c-0.7-0.6-1.1-0.7-1.2-0.4c-0.1,0.3,0.2,0.7,1.5,1.6c1.8,1.3,1.7,1.2,1.7,1.2
			c-0.1,1.1,0.1,2,0.5,2.8c0,0-0.3,0.8-1.6,2.5c-0.4,0.5-0.7,1-0.7,1.2c0,0.7,0.6,0.2,1.9-1.5c0.5-0.7,1.2-1.6,1.2-1.6
			c1.6,0.5,2.1,0.2,3.1-0.1c0,0,0.3,0.3,1.2,0.9c1.6,1.3,1.9,1.4,2.1,1.2c0.3-0.2,0.2-0.3-0.4-0.7c-1.8-1.3-2.4-2-2.4-2
			c0.4-1.4,0-2.6-0.4-3.3c0,0,0-0.2,1-1.3c0.7-0.8,1.7-2.1,1.7-2.3C3414.7,41.9,3414.6,41.7,3414.5,41.7z M3450.7,42l4.6,1.4l-1,4.8
			l-4.9-1.6L3450.7,42z M3483.9,43.2l1.3,4.7l-4.8,1.3l-0.8-5L3483.9,43.2z M3487.3,43.3c0.7,0,1.3,0.6,1.3,1.3
			c0,0.7-0.6,1.3-1.3,1.3c-0.7,0-1.3-0.6-1.3-1.3C3486,43.9,3486.6,43.3,3487.3,43.3z M3498.2,43.4l4,3.6l-4.5,2.3l-2.1-4.7
			L3498.2,43.4z M3460.3,44.5l4.7,0.6l-0.2,5l-5.4-0.7L3460.3,44.5z M3444,44.5l5.2,2.3l-1.9,5.2l-5.3-2.3L3444,44.5z M3457.4,44.9
			c1.9,0.3,1.4,2.6,0,2.6c-0.7,0-1.3-0.6-1.3-1.3S3456.7,44.9,3457.4,44.9z M3474.3,44.9l0.6,5l-4.8,0.3l-0.1-5.1L3474.3,44.9z
			 M3477.6,45.5c0.7,0,1.3,0.6,1.3,1.3c0,0.7-0.6,1.3-1.3,1.3c-0.7,0-1.3-0.6-1.3-1.3C3476.3,46.1,3476.9,45.5,3477.6,45.5z
			 M3410.1,46c0.7,0,1.3,0.6,1.3,1.3s-0.6,1.3-1.3,1.3s-1.3-0.6-1.3-1.3S3409.3,46,3410.1,46z M3467.5,45.9c0.7,0,1.3,0.6,1.3,1.3
			c0,0.7-0.6,1.3-1.3,1.3c-0.7,0-1.3-0.6-1.3-1.3C3466.2,46.5,3466.8,45.9,3467.5,45.9z M3490.3,46.3l1.9,5.2l-5.3,1.7l-1.5-5.3
			L3490.3,46.3z M3494.1,46.4c0.7,0,1.3,0.6,1.3,1.3c0,0.7-0.6,1.3-1.3,1.3c-0.7,0-1.3-0.6-1.3-1.3
			C3492.8,47,3493.3,46.4,3494.1,46.4z M3503.2,47.9l3.4,2.4l-1.7,0.9C3504.5,50.2,3503.7,48.9,3503.2,47.9z M3454.3,48.3l5.1,1.1
			l-0.8,5.3l-5.5-1.1L3454.3,48.3z M3439.2,48.6l2.7,1.3l-1.8,4.4l-4.3-2.3L3439.2,48.6z M3451.2,48.9c0.7,0,1.3,0.6,1.3,1.3
			c0,0.7-0.6,1.3-1.3,1.3c-0.7,0-1.3-0.6-1.3-1.3C3449.9,49.5,3450.5,48.9,3451.2,48.9z M3480.4,49.2l0.9,5.3l-5.7,0.8l-0.4-5.4
			L3480.4,49.2z M3501.8,49.3c0.7,0,1.3,0.6,1.3,1.3c0,0.7-0.6,1.3-1.3,1.3c-0.7,0-1.3-0.6-1.3-1.3
			C3500.5,49.9,3501.1,49.3,3501.8,49.3z M3497.7,49.3l1.9,4.7l-5.6,2.3l-1.6-4.7L3497.7,49.3z M3483.5,49.7c0.7,0,1.3,0.6,1.3,1.3
			c0,0.7-0.6,1.3-1.3,1.3c-0.7,0-1.3-0.6-1.3-1.3C3482.2,50.3,3482.8,49.7,3483.5,49.7z M3464.7,50.2l5.3,0.1l-0.1,5.4l-5.8-0.2
			L3464.7,50.2z M3507.4,50.6l2.1,1.5c-21.6,13.9-52,15.7-75.6,1.9c0,0,1-1,1.5-1.5C3456.7,65.3,3487.9,63.5,3507.4,50.6z
			 M3461.8,51.2c0.7,0,1.3,0.6,1.3,1.3s-0.6,1.3-1.3,1.3s-1.3-0.6-1.3-1.3S3461.1,51.2,3461.8,51.2z M3472.7,51.5
			c0.7,0,1.3,0.6,1.3,1.3c0,0.7-0.6,1.3-1.3,1.3c-0.7,0-1.3-0.6-1.3-1.3C3471.4,52.1,3472,51.5,3472.7,51.5z M3447.3,52.2l5.6,1.6
			l-0.9,4.4l-6.1-1.8L3447.3,52.2z M3443.6,52.2c0.7,0,1.3,0.6,1.3,1.3c0,0.7-0.6,1.3-1.3,1.3s-1.3-0.6-1.3-1.3
			C3442.3,52.8,3442.9,52.2,3443.6,52.2z M3486.9,53.2l1.3,5l-6.2,1.3l-0.7-4.9L3486.9,53.2z M3490.5,53.9c0.7,0,1.3,0.6,1.3,1.3
			c0,0.7-0.6,1.3-1.3,1.3c-0.7,0-1.3-0.6-1.3-1.3C3489.2,54.5,3489.8,53.9,3490.5,53.9z M3410,54.7l0,3.5c-1-0.8-2.2-1.7-3.4-2.7
			C3407.8,55.5,3408.9,55.2,3410,54.7L3410,54.7z M3397.3,54.8c0.3,0,0.9,0.2,1.7,0.2c2.5,0,7.2,0.8,8.6,1.9
			c0.5,0.4,1.2,0.7,1.5,1.3c0,0.3-0.4,0.3-1-0.1c-1.2-0.7-3.1-1.4-5.7-1.7c-0.5-0.1-0.5,0-0.5,0.2c0,0.3,0.4,0.4,1.8,0.7
			c1.8,0.3,2.1,0.5,2.5,0.6c1,0.3,0.4,0.7-0.7,0.8c-4.4,0.4-7.7-1.5-8.4-3.7C3397.1,54.8,3397.2,54.8,3397.3,54.8z M3458.6,54.8
			l5.5,0.7l-0.3,4.6l-6.1-0.7L3458.6,54.8z M3411.5,55.2c1,0.8,0.3,3.1-0.2,3.7c-0.3,0.4-1.1,0.2-1.1-0.4c0.1-0.5-0.1-2.8,0.1-3.5
			C3410.6,54.9,3411.1,55,3411.5,55.2L3411.5,55.2z M3475.6,55.4l0.3,4.8l-6,0.3l0-4.7L3475.6,55.4z M3455.3,55.8
			c0.7,0,1.3,0.6,1.3,1.3s-0.6,1.3-1.3,1.3c-0.7,0-1.3-0.6-1.3-1.3S3454.5,55.8,3455.3,55.8z M3421.6,55.8c0.2,3.5-5.2,5.9-7.2,4.8
			c-0.9-0.5-0.5-0.8,1.2-1.1c2.3-0.6,3.8-1.2,3.8-1.6c0-0.3-0.3-0.2-1.3,0.1c-1.4,0.5-2.9,0.7-4.3,1.3c-1,0.5-1.4,0.6-1.7,0.3
			c-0.5-0.6,1.8-2.1,4.2-2.5C3418.2,56.9,3420,56,3421.6,55.8L3421.6,55.8z M3479,56.3c0.7,0,1.3,0.6,1.3,1.3c0,0.7-0.6,1.3-1.3,1.3
			c-0.7,0-1.3-0.6-1.3-1.3C3477.7,56.8,3478.2,56.3,3479,56.3z M3466.9,57.2c0.7,0,1.3,0.6,1.3,1.3c0,0.7-0.6,1.3-1.3,1.3
			c-0.7,0-1.3-0.6-1.3-1.3C3465.6,57.8,3466.1,57.2,3466.9,57.2z M3495.9,59.4c8.7,8.3,18.3,17.9,26.1,25.8c0,4.1,0,12.4,0,12.4
			l-30.1,28.7c-5.4-3.3-10.1-7.5-14.3-14.9c0.5-0.4,0.9-0.7,1.3-1.1l-1.6,0.9c-5.5-8.9-7.9-26.6,1.5-40.8l-9.5,0.3l1.6-3.3l10.4-0.6
			l4.2-4.5c0,0,1.3-0.2,2.4-0.5c1.1-0.3,3.3-0.9,5-1.4C3494.4,59.9,3495.8,59.4,3495.9,59.4L3495.9,59.4z M3425.6,61.7
			c0,0,8.9,4.9,13.9,14.6c-16.1,13.9-22.1,30-23.5,46.8c-8.7-8.2-13.2-12.7-21.1-20.7l0.3-11.9L3425.6,61.7z M3459.3,63.3
			c-2.3,5-4.3,10.4-6.1,16.2l-2.5-0.7c0,0,1.6-0.7,2.3-1.1l-1.3-2.1l2.5-1l-1.4-1.8l2.5-1.4l-1.2-1.6l2.3-1.1l-1.4-1.6l2.4-1.3
			l-1.2-1.6L3459.3,63.3z M3460.1,63.3c0,0,0.3,0.1,0.7,0.1c0.1,0-0.4,1.3-0.4,1.3c0.9,0.2,0.9,0.1,1.2,0.2l0.7-1.4l1.1,0.2
			c-2.2,5-4.5,10.4-5.9,16.3l-1.3-0.3c0,0,0.4-1.2,0.4-1.4c-0.1,0-0.9-0.3-1.1-0.4c-0.1,0.2-0.5,1.6-0.5,1.6l-1,0
			C3455.6,73.2,3458.5,66.1,3460.1,63.3L3460.1,63.3z M3464.3,63.5l2.3,1.9l-2.6,1l1.3,1.8l-2.7,1l1.6,1.9l-2.7,1l1.6,2.2l-2.8,1
			l1.8,2l-2.5,1.2l1.5,1.5c0,0-1.6,0.5-1.7,0.5c-0.3,0.1-1.3-0.2-1.3-0.2C3459.6,74.5,3461.6,68.7,3464.3,63.5L3464.3,63.5z
			 M3409,64.4c-0.6,0.4-0.3,1.3-1.1,2.1c-0.1,0.1-0.1,0.4-0.2,0.7c0,0.2-0.7,2.7-0.7,2.7s0.2-0.2,0.4-1c0.2-0.7,0.4-2,0.5-2.2
			c0.6-0.2,0.7-2.1,1.3-1.8c0.3,0.2,0.3,0.5,0.1,1.2c-0.4,1.5-0.6,2.1,0.1,1.1c1.1-1.3,1.2-2.5,0-2.7
			C3409.3,64.5,3409,64.4,3409,64.4L3409,64.4z M3425.2,65l-28.1,26.4l-0.1,9.9l9.8,9.9l6.9,6.7c2.5-15.1,8.3-29.5,22.5-42
			C3434.1,72.5,3430.4,68.1,3425.2,65L3425.2,65z M3501,65.3c-16.5,7.8-20.3,23.7-15.2,38.2C3493.6,93.3,3499.8,83.8,3501,65.3z
			 M3442.2,66.1l7.5,2.4l-2.8,9.7l-6.8-2.1l-0.7-1.7L3442.2,66.1z M3500.1,66.3c-0.7,12.9-5.6,25.5-14,35.4
			C3481.8,91.2,3484.4,74.3,3500.1,66.3z M3459.7,66.4l-0.5,1.2l1,0.3l0.4-1.2L3459.7,66.4z M3458.7,69.2l-0.4,1.2l1.1,0.4l0.4-1.2
			L3458.7,69.2z M3502.9,69.4c-2.3,17.9-12,34.2-22.2,42.5c3.2,5.3,7.1,8.7,10.9,11.5l28.7-27.6l-0.1-9.2L3502.9,69.4z M3427.1,74.2
			c-0.2,0.7-0.2,1-0.2,1s0.3-0.3,1.2-0.8c5.6-2.8,3.8,1.5,1.2,3.1c-0.6,0.3-1.2,0.7-1.2,0.7s0.6,0.1,1.2,0.2
			c3.4,0.7,2.7,2.7-0.9,2.4c-0.5,0-1.1-0.1-1.1-0.1s0.2,0.8,0.5,1.4c1.2,3-1,3.3-2.5,1.3c-0.2-0.3-0.7-1-0.7-1s-0.1,0.6-0.2,1.1
			c-1.3,4.8-4.4,4.6-3.2-0.2c0.1-0.5,0.3-1.4,0.3-1.4s-0.7,0.4-1.5,0.8c-4.1,1.8-4.7-0.1-1-2.8c1.1-0.8,1.4-1.1,1.4-1.1
			c-0.7-0.1-1.3-0.2-1.8-0.3c-3-0.7-3.7-2.5,1-2.4c0.7,0,1.4,0.1,1.4,0.1s-0.2-1-0.5-1.8c-1.1-3.6,1.2-4,3.1-0.8
			c0.4,0.7,0.5,0.7,0.5,0.7c-0.1,0,0.1-1.2,0.6-2.3C3426.8,67.6,3427.8,71.6,3427.1,74.2L3427.1,74.2z M3477.8,70.7
			c-2,3.5-3.7,7-4.5,10.6l-7.7-0.1c0.5-3.2,1.9-6.6,3.5-10.1C3472.3,70.9,3475.1,70.8,3477.8,70.7z M3457.6,72.2l-0.4,1.3l1.1,0.3
			l0.4-1.3L3457.6,72.2z M3400.2,74.6c-0.8,2.1-1.1,4.5-1.6,6.4c-0.2,1.1,0,1.6,0.7,1.8c0.9,0.4,2.3-0.1,3.1-1.2
			c0.4-0.6,0.7-1.9,0.8-4.1l0.1-2C3402.1,75.3,3401.3,75,3400.2,74.6L3400.2,74.6z M3456.5,74.9l-0.4,1.2l1.1,0.4l0.4-1.2
			L3456.5,74.9z M3506.2,75.3c1.3,0,1.5,0.1,2.7,0.9l2.3,2.4c-0.6,0.6-1,1.4-1,2.3c0,1.7,1.4,3.2,3.1,3.2c0.9,0,2.2-0.9,2.2-0.9
			l3.6,3.8c-2.1,0.9-4.2-1.2-4.9-2c-0.2-0.2-0.2-0.3-0.2-0.3s0,0.1,0,0.5c-0.3,1.7-1.9,6.6-3.5,6.3c-1.8-0.3,0-7.3,0.1-7.2
			c-1.2,1.3-7.2,2.7-6.7,1.2c0.8-2.9,5.3-4,5.8-4.5C3507.3,79.5,3504.3,75.5,3506.2,75.3L3506.2,75.3z M3400.5,75.4
			c0.8,0.1,1.3,0.1,1.8,0.4c0.2,0.1,0.2,0.3,0.3,0.5c0,0.8,0.2,3.3-0.6,3.4c-0.9,0-1.7,0.2-2.3,0.6c-0.5,0.4-0.6,0.1-0.5-0.8
			c0.1-0.9,0.6-2.7,0.7-3.5C3400,75.6,3400.2,75.4,3400.5,75.4z M3423.9,75.5c-1.7,0-3.1,1.4-3.1,3.2c0,1.7,1.4,3.2,3.1,3.2
			s3.1-1.4,3.1-3.2C3427.1,76.9,3425.7,75.5,3423.9,75.5z M3423.9,76.6c1.1,0,2,0.9,2,2s-0.9,2-2,2c-1.1,0-2-0.9-2-2
			S3422.8,76.6,3423.9,76.6z M3440.2,76.6c7.2,12.5,6.4,29.6-2.1,42l9.1-0.6l-1.2,2.3l-9.7,1c-1.5,1.4-2.8,2.9-4.3,4.4l0,0.5
			c-3.3,0.8-6.7,1.7-10.1,2.9c-1.8-1.8-5.2-5.3-5.2-5.4l0.2-1.1c23.2-11.8,16.4-35.6,14.8-37.6C3434.1,82,3437.1,79.2,3440.2,76.6z
			 M3504.5,78.9c0.9,0,1.7,0.8,1.7,1.7s-0.8,1.7-1.7,1.7c-0.9,0-1.7-0.8-1.7-1.7S3503.5,78.9,3504.5,78.9z M3512,79.3l2.8,2.9
			c-0.4,0.4-0.9,0.6-1.4,0.6c-1.1,0-2-0.9-2-2C3511.4,80.2,3511.6,79.7,3512,79.3z M3414.2,79.7c0.9,0,1.7,0.8,1.7,1.7
			c0,0.9-0.8,1.7-1.7,1.7c-0.9,0-1.7-0.8-1.7-1.7C3412.5,80.5,3413.3,79.7,3414.2,79.7z M3401.6,80.4c0.8,0.3,0.6,1-0.4,1.7
			c-0.7,0.4-1.3,0.5-1.9,0.2C3398.2,81.7,3400.5,80,3401.6,80.4z M3414.7,84.6l-10.2,9.9c0.6-1.6,0.7-3.3,0.7-4.9
			c3.1,0.3,4.4-1.2,3.9-4.5C3411.1,85.2,3413.2,85,3414.7,84.6L3414.7,84.6z M3431.1,85.7c4.7,13.6,0.6,27.9-14.2,36.2
			C3417.5,109,3423,96.5,3431.1,85.7z M3444.6,86.9c8.1,2.1,17.4,3.1,27,3.1c0.1,3.7,0.2,7.6,1,11.3c-8.2-2.2-17.4-3.2-27.4-3
			C3445.7,94.5,3445.1,90.1,3444.6,86.9L3444.6,86.9z M3505.1,88.9l-8.7,10.2l0.4-5.6c2.9,0.4,4-1.2,3.5-4.2
			C3501.9,89.5,3503.5,89.2,3505.1,88.9z M3420.8,89.5l-0.7,4.1c-1.7,0-3.4,0.7-3.4,4.5l-5.2-0.1L3420.8,89.5z M3516.2,90.2
			c0.9,0,1.7,0.8,1.7,1.7c0,0.9-0.8,1.7-1.7,1.7c-0.9,0-1.7-0.8-1.7-1.7C3514.5,91,3515.3,90.2,3516.2,90.2z M3412.9,90.7
			c0.9,0,1.7,0.8,1.7,1.7c0,0.9-0.8,1.7-1.7,1.7c-0.9,0-1.7-0.8-1.7-1.7C3411.2,91.5,3411.9,90.7,3412.9,90.7z M3512.4,92.5
			l-0.9,6.2c-2.4-0.2-4.3,0.2-3.7,4.3c-2-0.2-4.8,0.3-6.6,0.4L3512.4,92.5z M3504,93.6c0.9,0,1.7,0.8,1.7,1.7c0,0.9-0.8,1.7-1.7,1.7
			c-0.9,0-1.7-0.8-1.7-1.7C3502.3,94.4,3503,93.6,3504,93.6z M3400.4,94.9c0.9,0,1.7,0.8,1.7,1.7c0,0.9-0.8,1.7-1.7,1.7
			c-0.9,0-1.7-0.8-1.7-1.7C3398.7,95.7,3399.5,94.9,3400.4,94.9z M3406.1,96.9c2.2,0.5,1.2,5.6,0.7,6.9c0,0,6.1-3.2,6.4-1.8
			c0.2,2.9-5,4.9-5,4.9s3.6,3.1,3.7,5c0,1.3-1.5,1-3.4-0.6c-0.8-0.8-1.5-1.4-2-2c0.7-0.6,1.1-1.4,1.1-2.4c0-1.7-1.4-3.2-3.1-3.2
			c-1,0-1.8,0.4-2.4,1.1c-0.5-0.4-1-0.9-1.6-1.6c-1.1-1.1-1.9-1.9-1.8-2.3c1.5-1,4.4,1.8,4.7,2
			C3402.9,102.6,3404.5,97.2,3406.1,96.9z M3403.1,103.2C3403.1,103.2,3403.1,103.2,3403.1,103.2
			C3403.2,103.2,3403.1,103.2,3403.1,103.2z M3495.6,100.9c1,0,1,2.3,0.6,3.6c-0.3,0.9-0.5,1.7-0.5,1.7s0.9-0.7,1.3-0.9
			c2.8-1.3,3.9,0.2,2.4,1.9c-0.7,0.9-1.6,1.1-2.4,1.8c1.1,0,2.3,0.3,3.2,0.8c0.7,0.4,1.3,1,1.3,1.3c0,0.7-1.8,1.1-3.5,0.9
			c-0.7,0-2-0.4-2-0.4s0.6,0.9,0.8,1.5c0.6,1.7,0.4,3.8-0.5,3.8c-1.5-0.4-2.2-2.1-2.8-3.3c-0.5,1.3-1,2.8-2,3.8
			c-1.1,1-1.6,0.2-1.6-1.5c0-0.7,0.5-2.7,0.5-2.7c-6.3,2.1-5.9-0.8-0.9-3.3c-3-1.5-4.9-2.8,0.3-3.1c-0.1-0.1-1-2.9-0.1-3.6
			c0.9-0.6,2.8,1.5,2.9,1.6c0-0.2,0.5-1.8,1.4-3C3494.7,101.2,3495.2,100.9,3495.6,100.9z M3489.8,106.9
			C3489.8,107,3489.8,107,3489.8,106.9C3489.8,106.9,3489.8,106.9,3489.8,106.9z M3517.5,105.1c-1.1,0.1-1.8,1.1-2.3,1.9
			c-0.1,0.2-0.3,0.2-0.4,0.5c-0.5,1.5-0.9,3.2-1.1,5.4c0.7,0.3,2.3,0.8,3,0.5c0.2-0.1,0.1-0.6,0.2-0.8c1.1-2.8,1.6-4.8,1.6-6.1
			C3518.5,105.6,3518.2,105,3517.5,105.1z M3404.3,105c1.1,0,2,0.9,2,2c0,0.7-0.3,1.2-0.8,1.6c-1.3-1.3-2-2-2.9-2.9
			C3403,105.3,3403.6,105,3404.3,105z M3517.9,106c0.3,0.7-0.6,1.4-1.8,1.4c-0.7,0-0.9,0.1-0.6-0.5
			C3515.9,106.1,3517.3,104.7,3517.9,106L3517.9,106z M3502.5,105.5c0.9,0,1.7,0.8,1.7,1.7c0,0.9-0.8,1.7-1.7,1.7
			c-0.9,0-1.7-0.8-1.7-1.7C3500.8,106.3,3501.5,105.5,3502.5,105.5z M3412.8,105.6c0.9,0,1.7,0.8,1.7,1.7c0,0.9-0.8,1.7-1.7,1.7
			c-0.9,0-1.7-0.8-1.7-1.7C3411.1,106.4,3411.9,105.6,3412.8,105.6z M3493.2,106.3c-1.7,0-3.1,1.4-3.1,3.2c0,1.7,1.4,3.2,3.1,3.2
			c1.7,0,3.1-1.4,3.1-3.2C3496.4,107.7,3494.9,106.3,3493.2,106.3z M3451.2,106.7c-0.8,3.6-2.1,7.1-3.7,10.5c-3,0.2-6.3,0.3-8.5,0.6
			c3.6-6.3,3.7-7.8,5-11.2L3451.2,106.7z M3456.4,107.2c0.9,0.1,1.8,0.2,2.6,0.4c-1.5,5.5-3.6,11.1-6.2,16.5l-1.6-0.2l-0.8-0.9
			l2.5-1l-2-2l3.3-1l-2-2l3.2-0.8l-1.7-2.1l2.9-1.1l-1.8-2.4l3.1-0.9L3456.4,107.2z M3493.2,107.4c1.1,0,2,0.9,2,2.1
			c0,1.1-0.9,2-2,2c-1.1,0-2-0.9-2-2C3491.2,108.3,3492.1,107.4,3493.2,107.4z M3459.6,107.7l1.1,0.2l-0.3,1.2l1.2,0.3l0.4-1.3
			c0,0,1,0.1,1.1,0.2c-1.3,5.3-5.9,16.3-5.9,16.2l-1.2-0.2l0.3-1.1l-1.1-0.2v0l-0.5,1.2l-1.2-0.1
			C3456.3,117.7,3458.3,112.7,3459.6,107.7L3459.6,107.7z M3517,108.1c0.9,0,0.8,0.4,0.2,2.1c-0.6,1.5-0.8,2.2-1.1,2.4
			c-0.7,0.5-2.2,0.1-2-0.6c0.4-2.3,0.5-3.3,1.1-3.6C3515.8,108.2,3516.4,108.1,3517,108.1z M3463.9,108.3l2.8,0.5l-2.4,1.4l1.5,1.8
			l-2.9,1.2l1.8,1.8l-2.8,1.1l1.7,2l-2.9,1.2l2,1.7l-3.3,1l1.2,1.9l-1.2,0.7l-1.5-0.2C3460.5,118.7,3462.1,113.9,3463.9,108.3
			L3463.9,108.3z M3470.9,109.7l5.5,1.5l1.1,2l-2.6,8.8l-7.4-2.2L3470.9,109.7z M3459.9,110.6l-0.5,1.4l1.2,0.3l0.5-1.5
			L3459.9,110.6z M3458.8,113.9l-0.5,1.4l1.1,0.2l0.5-1.5L3458.8,113.9z M3457.7,116.8l-0.5,1.4l1.1,0.2l0.5-1.4L3457.7,116.8z
			 M3509.6,119.4c0,0-0.6,0.4-0.7,0.6c0.1,0.3,0.5,0.8,0.4,1.2c0,0.2-0.3,0.5-0.7,0.9c-1,1.2-1.4,1.1-0.8-0.2
			c0.2-0.4,0.3-0.8,0.3-0.8c-0.2,0.3-0.4,0.7-0.6,1.1c-0.3,0.7-0.7,1.3-0.7,1.3c0.7,0.2,1.1,0.7,1.5,1c0,0,0.2-0.6,0.4-1.1
			c0.2-0.8,0.6-1.1,1.1-1.4c0.3-0.2,0.6-0.5,0.6-0.5C3509.9,120.9,3509.9,120.1,3509.6,119.4z M3456.6,119.8l-0.6,1.5l1.1,0.3
			l0.6-1.6L3456.6,119.8z M3394.1,123.6c-0.1,6.1,0.1,10.1-0.1,16.6l16.4,21.3l-2.6,0.9c0,0,0,0.3-0.2,0.3c-3.5,1-9.2,1.9-9.2,1.9
			c4.2,9.7,7,21.8,5.1,33.9l42.5-0.1L3394.1,123.6z M3483.9,133.9l-1.5,1.5c-21.6-11.7-51.3-11.7-73.1,2.5l-1.8-1.3
			C3431.3,121.4,3460.5,121.5,3483.9,133.9z M3394.9,125.7l50,72l-5.9,0.1l-44.1-57.8L3394.9,125.7z M3502.2,127
			c0,0-1.4,0.4-2.7,0.8c-3.5,1.1-5.1,3.1-4.8,5.9c0.1,0.8,0.3,0.8,1.7-0.1c3.3-2.1,3.5-2.2,7.6-3.4c0.3-0.1,0.8,0,0.8,0l-0.2,3.3
			c-6.9,0-6.5,5.5-4.5,8.3c-0.7,1.3-2.2,5.9,2.8,7.7c2.5,0.5,5.1-1.5,5-1.6c4.6,2.2,9.9-1.5,5.8-7.8c1.6-2.8,0.5-4.8-1-6.6
			c0,0,0.3,0,2.4,0.4c3.3,0.6,4.6,0.5,4.6,0.5c0-3-2.5-4.3-7.6-4.7C3508.5,130.2,3502.2,127,3502.2,127z M3446.8,127.4
			c0.2,0,0.5,0,0.7,0l-0.2,5.1l-5.6,0.3l-0.4-5.1C3443.3,127.5,3445.1,127.4,3446.8,127.4L3446.8,127.4z M3453.5,127.5l6,0.7
			l-0.9,4.7l-5.5-0.6L3453.5,127.5z M3502.1,127.6c0.5,0.1,0.3,0.6-0.3,0.8c-1.1,0.2-3.8,1.8-3.8,2.2c0,0.3,0.1,0.2,1.1-0.3
			c0.5-0.3,1.6-0.7,2.3-1c0.8-0.3,1.7-0.7,2-0.8c0.9-0.4,1.4-0.1,1.1,0.7c-0.2,0.5-0.3,0.6-2.5,1.3c-1.9,0.6-2.3,0.8-3.5,1.6
			c-0.5,0.3-1.3,0.8-1.8,1c-1.3,0.7-1.5,0.7-1.5-0.2c-0.1-2.6,2.8-4.6,6.8-5.2C3501.9,127.6,3502.1,127.6,3502.1,127.6L3502.1,127.6
			z M3450.3,128.2c0.7,0,1.4,0.6,1.4,1.4c0,0.8-0.6,1.4-1.4,1.4c-0.7,0-1.4-0.6-1.4-1.4C3448.9,128.8,3449.5,128.2,3450.3,128.2z
			 M3435.5,128.5l0.4,4.6l-5.5,1.4l-1.3-4.8C3431.3,129.3,3433.4,128.9,3435.5,128.5L3435.5,128.5z M3506.2,128.9
			c1.5,0.2,1.4,3.7,0.6,4.3c-1.2,0.9-1.9-0.9-1.4-3.3C3505.5,129.2,3505.8,128.9,3506.2,128.9L3506.2,128.9z M3438.6,129.1
			c0.7,0,1.4,0.6,1.4,1.4c0,0.8-0.6,1.4-1.4,1.4c-0.7,0-1.4-0.6-1.4-1.4C3437.2,129.7,3437.8,129.1,3438.6,129.1z M3465.4,129.5
			l6.2,1.7l-1.5,4.8l-5.8-1.6L3465.4,129.5z M3462,129.6c0.7,0,1.4,0.6,1.4,1.4c0,0.8-0.6,1.4-1.4,1.4c-0.7,0-1.4-0.6-1.4-1.4
			C3460.7,130.2,3461.3,129.6,3462,129.6z M3512.8,130c2.7,0,6.2,1.4,6.2,3.4c-0.1,0.6-5.6-0.2-8.2-1.2c-0.9-0.4-2-1.5-2-1.9
			c0-0.3,0.5-0.3,0.8,0c0.4,0.4,1.6,0.9,4.6,1.6c2.3,0.6,2.5,0.6,2.5,0.2c0-0.3-1.3-0.7-2.8-1c-0.7-0.1-1.4-0.3-2.5-0.4
			c-0.5,0-0.6-0.3-0.2-0.6C3511.6,130,3512.1,130,3512.8,130L3512.8,130z M3508,131.1c0.7,0.3,0.9,0.9,1.3,1.3
			c-0.5,0.2-0.7,0.4-1.4,0.5C3507.9,132.3,3507.8,131.7,3508,131.1L3508,131.1z M3426.8,131.4c0.7,0,1.4,0.6,1.4,1.4
			s-0.6,1.4-1.4,1.4s-1.4-0.6-1.4-1.4S3426,131.4,3426.8,131.4z M3423.1,131.8l1.5,4.7l-5.2,2.3l-1.9-4.7
			C3419.3,133.2,3421.3,132.5,3423.1,131.8z M3447.4,132.6c0,0,4.2,0,5.6,0l-0.3,5.3l-5.2,0L3447.4,132.6z M3441.8,132.9l0.3,5.3
			l-5,0.7l-1-5.3L3441.8,132.9z M3473.5,132.9c0.7,0,1.4,0.6,1.4,1.4c0,0.8-0.6,1.4-1.4,1.4c-0.7,0-1.4-0.6-1.4-1.4
			C3472.2,133.5,3472.8,132.9,3473.5,132.9z M3509.9,133c3.1,0,6,3.5,3,7.2c5,3.8-0.4,10.2-4.8,6.5c-6.3,6.2-9.8-2.2-7.2-4.4
			c-3.8-6.3,0.9-10.3,5.7-7.5C3507.5,133.6,3508.7,133,3509.9,133z M3458.7,133.2l5.5,1.2l-1.1,5.2l-5.4-1.1L3458.7,133.2z
			 M3476.9,133.3l5,2.5l-3.9,3.8l-2.9-1.4L3476.9,133.3z M3444.6,133.9c0.7,0,1.4,0.6,1.4,1.4c0,0.8-0.6,1.4-1.4,1.4
			s-1.4-0.6-1.4-1.4C3443.3,134.5,3443.9,133.9,3444.6,133.9z M3455.5,134.1c0.7,0,1.4,0.6,1.4,1.4c0,0.8-0.6,1.4-1.4,1.4
			C3453.5,136.5,3454.1,134.1,3455.5,134.1z M3430.4,134.8l1.2,5.2l-5.1,1.7l-1.8-5.1L3430.4,134.8z M3434,135.2
			c0.7,0,1.4,0.6,1.4,1.4s-0.6,1.4-1.4,1.4c-0.7,0-1.4-0.6-1.4-1.4S3433.2,135.2,3434,135.2z M3509.5,137.6c-0.4,0.5-0.9,1-0.9,1
			c-1.3-0.5-2.5-0.3-3.3,0.3c0,0-0.9-0.7-1.7-1.3c-1.4-1.1-1.8-1.4-1.8-0.9c0,0.1,0.5,0.6,1,1.1c1.6,1.3,1.9,1.8,1.9,1.8
			c-0.4,1.2-0.4,2.2,0.3,3.2c0,0,0,0.1-0.5,0.7c-1,1.1-2,2.7-1.8,2.9c0.3,0.3,1.1-0.4,2.2-1.8c0.7-1,1-1,1-1c1.3,0.3,2,0.7,3.2-0.4
			c0,0,0.5,0.1,1.4,0.9c1.5,1.2,2,1.5,2.2,1.1c0.1-0.3-0.1-0.6-1.3-1.5c-0.8-0.6-1.7-1.4-1.7-1.4c0.3-0.4,0.5-2-0.5-3.1
			c0,0,0,0.1,1.4-1.7c0.9-1.2,1.1-1.3,0.8-1.6C3510.9,135.4,3509.6,137.5,3509.5,137.6L3509.5,137.6z M3470.1,136.1l5,2.1l-1.8,5.2
			l-4.8-2L3470.1,136.1z M3415.4,136.5c0.7,0,1.4,0.6,1.4,1.4c0,0.8-0.6,1.4-1.4,1.4s-1.4-0.6-1.4-1.4
			C3414.1,137.1,3414.7,136.5,3415.4,136.5z M3466.3,136.6c0.7,0,1.4,0.6,1.4,1.4c0,0.8-0.6,1.4-1.4,1.4s-1.4-0.6-1.4-1.4
			C3464.9,137.2,3465.5,136.6,3466.3,136.6z M3412,137l1.6,4l-3.7-2.8L3412,137z M3452.8,138l4.9,0.6l-0.8,4.7l-4.3-0.4L3452.8,138z
			 M3447.3,138.1l-0.1,4.9l-4.7,0.2l-0.4-4.9L3447.3,138.1z M3423.2,138.9c0.7,0,1.4,0.6,1.4,1.4c0,0.8-0.6,1.4-1.4,1.4
			c-0.7,0-1.4-0.6-1.4-1.4C3421.8,139.5,3422.4,138.9,3423.2,138.9z M3419.4,139l1.9,4.9l-3,1.4l-4-3.8L3419.4,139z M3437.1,139.1
			l0.8,4.6l-4.9,1.2l-1.2-4.7L3437.1,139.1z M3507.2,139.1c1.1,0,1.9,0.9,1.9,1.9s-0.9,1.9-1.9,1.9s-1.9-0.9-1.9-1.9
			S3506.1,139.1,3507.2,139.1z M3449.8,139.3c0.7,0,1.4,0.6,1.4,1.4s-0.6,1.4-1.4,1.4c-0.7,0-1.4-0.6-1.4-1.4
			S3449.1,139.3,3449.8,139.3z M3463.2,139.8l5.2,1.7l-1.8,4.2l-4.5-1.2L3463.2,139.8z M3440,140c0.7,0,1.4,0.6,1.4,1.4
			c0,0.8-0.6,1.4-1.4,1.4c-0.7,0-1.4-0.6-1.4-1.4C3438.6,140.6,3439.2,140,3440,140z M3459.9,140.5c0.7,0,1.4,0.6,1.4,1.4
			c0,0.8-0.6,1.4-1.4,1.4s-1.4-0.6-1.4-1.4C3458.5,141.1,3459.1,140.5,3459.9,140.5z M3426.7,142.1l1.8,4.2l-4.9,2.1l-2.1-4.2
			L3426.7,142.1z M3430.2,142.3c0.7,0,1.4,0.6,1.4,1.4c0,0.8-0.6,1.4-1.4,1.4c-0.7,0-1.4-0.6-1.4-1.4
			C3428.8,142.9,3429.4,142.3,3430.2,142.3z M3448.3,143.6c8.1,0,15.4,1.7,21.2,4.1l-1.7,1.6c-19-6.5-31.4-3.6-44.1,2l-1.3-1.6
			C3431.4,145.3,3440.2,143.6,3448.3,143.6L3448.3,143.6z M3469.8,143.6c0.7,0,1.4,0.6,1.4,1.4c0,0.8-0.6,1.4-1.4,1.4
			c-0.7,0-1.4-0.6-1.4-1.4C3468.4,144.2,3469,143.6,3469.8,143.6z M3420.3,146.6c1.1,0.1,1.2,2.1,0.7,1.5l-1.2-1.4
			C3420,146.6,3420.1,146.6,3420.3,146.6z M3471,147.4c0,1.5-1.5,11.9-6.4,19c-0.3-3.6-1.2-7.9-2.1-10.8
			C3462.5,155.7,3467.8,150.8,3471,147.4z M3408,163.1l25.6,34.6l-2.7,0c-0.6-2.5-1.4-5.1-3-7.1c-1.3-1.6-2.5-2.8-4.8-3.8
			c-1.4-0.6-1.6-0.5-1.7-1.6c-0.4-6.1-5.3-9.9-9.1-11.3c-0.4-3.7-2-7.3-6.1-10.3L3408,163.1z M3405.5,164c2.3,1.6,4.9,3,6.3,9.4
			c0.1,1.3,0.2,1.2,1.2,1.6c4.1,1.2,7.6,6.1,8,10.4c0,1.3,0.4,1.4,2,2.1c2,0.8,4,2.6,5.1,4.3c1.7,2.5,2.3,6.2,2.2,6l-1.4,0
			c-1-6.3-5-8.9-9.2-10.1c0.3-8.9-6.6-11.7-9-12.2c0.1-6.4-4-9.1-6.7-11.3C3404.5,164.1,3405.5,164,3405.5,164L3405.5,164z
			 M3401.4,164.8c2.1,0.7,3.7,3.6,3.5,5c2.8,0.3,5.7,3,5,5.8c-0.2,0.1-0.5,0.1-0.8-0.2c0.7-5.4-7.3-2.7-4.1,1.2l-1.4,0.9
			c-1.2-5.4-2.6-8.5-4.1-12.4C3400,165,3401.4,164.8,3401.4,164.8z M3408.1,176.2c0.7,0,1.3,0.6,1.3,1.3c0,0.7-0.6,1.3-1.3,1.3
			s-1.3-0.6-1.3-1.3C3406.8,176.8,3407.3,176.2,3408.1,176.2z M3415,182c3.1,0.9,4.1,4,4,5.1l-0.7,0c-1.1-5-6.7-2.3-4.4,1.7
			c-3,1.1-2.8,3.9-1.9,5c1.2,1.5,4.3,1.5,5.3-0.9c2.9,3.8,7-0.5,3.4-4c2.9,1.1,3.4,5,2.9,6.2c1.4,0.5,2.9,2.6,2.7,2.6l-21.9,0
			c0,0,1.1-8.8-0.1-15.5c1.5,0.3,2.4,0.7,4.1-1.3c2.7,2.2,4.7,0.6,4.5-1.4c-0.2-1.4-0.9-2-2.1-2.7
			C3413.4,176.3,3415.2,180.4,3415,182L3415,182z M3417.4,188.3c0.7,0,1.3,0.6,1.3,1.3s-0.6,1.3-1.3,1.3c-0.7,0-1.3-0.6-1.3-1.3
			S3416.7,188.3,3417.4,188.3z"/>
		<path id="path7198-0" fill="#D40000" d="M3383.5,25.4c-1.7-2.9-3.5-5.6-5.8-8c2.3-2.4,4.1-5.1,5.8-8c1.7,2.9,3.5,5.6,5.8,8
			C3387.1,19.8,3385.2,22.6,3383.5,25.4z"/>
		<path id="path7202-9" fill="#D40000" d="M3533.9,178.9c-1.7-2.9-3.5-5.6-5.8-8c2.3-2.4,4.1-5.1,5.8-8c1.7,2.9,3.5,5.6,5.8,8
			C3537.4,173.3,3535.6,176.1,3533.9,178.9z"/>
		<path id="path7204-2" fill="#D40000" d="M3417.5,34c-4.1-6.9-8.5-13.5-14-19.2c5.5-5.7,9.8-12.3,14-19.2c4.1,6.9,8.5,13.5,14,19.2
			C3426,20.5,3421.6,27.2,3417.5,34z"/>
		<path id="path7222-2" fill="#D40000" d="M3499.9,192.8c-4.1-6.9-8.5-13.5-14-19.2c5.5-5.7,9.8-12.3,14-19.2
			c4.1,6.9,8.5,13.5,14,19.2C3508.4,179.2,3504.1,185.9,3499.9,192.8z"/>
		<path id="path37-2-1-6-5" fill="#D40000" d="M3377.7-1.8h-2.2v-3h2.2c0,0,0-1.6,0.1-4.5c0.1-6.1,0.3-7,2.1-8.7
			c3.5-3.3,9.3-0.6,9.2,4.4c-0.1,7,0,13.7-0.2,14.7c-0.4,1.7-0.4,1.8-0.3,2.1c0.3,0.6,2.9,0.9,2.9,0.7v3c-2,0.2-2.8,0-4.5-1.2
			c-1,1-4.1,1.9-6.5,0.8C3378.7,5.5,3377.3,3.3,3377.7-1.8L3377.7-1.8z M3385.2,3.4c-1.1-1.6-2.9-3.7-4.7-4.5
			c-0.1,1.8,0,3.3,0.7,4.2C3382.2,4.4,3383.8,4.7,3385.2,3.4L3385.2,3.4z M3386.1-13.9c-0.8-2.3-2.9-3.1-4.4-1.6
			c-1,0.9-1.1,1.8-1.1,7c0,3.2,0,4.5,0,4.5c3,1,5.7,4.4,5.7,4.4l0.1-9.5C3386.4-10.9,3386.3-12.4,3386.1-13.9L3386.1-13.9
			L3386.1-13.9z"/>
		<path id="path37-3-27-1-5" fill="#D40000" d="M3539.7,190.2h2.2v3h-2.2c0,0,0,1.6-0.1,4.5c-0.1,6.1-0.3,7-2.1,8.7
			c-3.5,3.3-9.3,0.6-9.2-4.4c0.1-7,0-13.7,0.2-14.7c0.4-1.7,0.4-1.8,0.3-2.1c-0.3-0.6-2.9-0.9-2.9-0.7v-3c2-0.2,2.8,0,4.5,1.2
			c1-1,4.1-1.9,6.5-0.8C3538.7,182.8,3540.1,185.1,3539.7,190.2L3539.7,190.2z M3532.2,184.9c1.1,1.6,2.9,3.7,4.7,4.5
			c0.1-1.8,0-3.3-0.7-4.2C3535.2,184,3533.6,183.7,3532.2,184.9L3532.2,184.9z M3531.3,202.3c0.8,2.3,2.9,3.1,4.4,1.6
			c1-0.9,1.1-1.8,1.1-7c0-3.2,0-4.5,0-4.5c-3-1-5.7-4.4-5.7-4.4l-0.1,9.5C3531,199.2,3531.1,200.8,3531.3,202.3L3531.3,202.3
			L3531.3,202.3z"/>
	</g>
</g>
</svg>
