<?xml version="1.0" encoding="utf-8"?>
<!DOCTYPE svg PUBLIC "-//W3C//DTD SVG 1.1//EN" "http://www.w3.org/Graphics/SVG/1.1/DTD/svg11.dtd">
<svg version="1.1"
	 id="svg6140" xmlns:rdf="http://www.w3.org/1999/02/22-rdf-syntax-ns#" xmlns:dc="http://purl.org/dc/elements/1.1/" xmlns:cc="http://creativecommons.org/ns#" xmlns:svg="http://www.w3.org/2000/svg"
	 xmlns="http://www.w3.org/2000/svg" xmlns:xlink="http://www.w3.org/1999/xlink" x="0px" y="0px" width="178.6px" height="249.4px"
	 viewBox="0 0 178.6 249.4" enable-background="new 0 0 178.6 249.4" xml:space="preserve">
<g id="layer1" transform="translate(-245.52871,-287.88523)">
	<g id="g6073" transform="matrix(0.99999718,0,0,1.000002,-3123.9727,1023.9469)">
		<path id="rect10414-2-6" fill="#FBFBF6" stroke="#7F7F7F" stroke-width="0.4" d="M3378.4-735.7h160.8c4.7,0,8.5,3.8,8.5,8.5
			v231.6c0,4.7-3.8,8.5-8.5,8.5h-160.8c-4.7,0-8.5-3.8-8.5-8.5v-231.6C3369.9-731.9,3373.7-735.7,3378.4-735.7z"/>
		<path id="path10446-4-8" fill="#D40000" d="M3383.6-679.9c0,0-1.8-2.5-4.2-5.5c-1.6-2-2.9-4.2-3-6c-0.1-2.1,1.2-4.3,3.5-4.4
			c2.3-0.1,3.3,1.6,3.7,3.1c0.4-1.4,1.3-3.2,3.7-3.1c2.3,0.1,3.6,2.2,3.5,4.4c-0.1,1.9-1.4,4-3,6
			C3385.4-682.4,3383.6-679.9,3383.6-679.9L3383.6-679.9z"/>
		<path id="path10448-8-7" fill="#D40000" d="M3534-542.8c0,0-1.8,2.5-4.2,5.5c-1.6,2-2.9,4.2-3,6c-0.1,2.1,1.2,4.3,3.5,4.4
			c2.3,0.1,3.3-1.6,3.7-3.1c0.4,1.4,1.3,3.2,3.7,3.1c2.3-0.1,3.6-2.2,3.5-4.4c-0.1-1.9-1.4-4-3-6
			C3535.8-540.3,3534-542.8,3534-542.8z"/>
		<path id="path37-2-5-5-0" fill="#D40000" d="M3377.8-707h-2.2v-3h2.2c0,0,0-1.6,0.1-4.5c0.1-6.1,0.3-7,2-8.7
			c3.5-3.3,9.3-0.6,9.2,4.4c-0.1,7,0,13.7-0.2,14.6c-0.4,1.7-0.4,1.8-0.3,2.1c0.3,0.6,2.9,0.9,2.9,0.7v3c-2,0.2-2.8,0-4.4-1.2
			c-1,1-4,1.9-6.5,0.8C3378.8-699.7,3377.5-701.9,3377.8-707L3377.8-707L3377.8-707z M3385.3-701.8c-1.1-1.6-2.9-3.7-4.6-4.5
			c-0.1,1.8,0,3.3,0.7,4.1C3382.3-700.8,3383.9-700.5,3385.3-701.8L3385.3-701.8L3385.3-701.8z M3386.2-719.1
			c-0.8-2.3-2.9-3.1-4.4-1.6c-0.9,0.9-1.1,1.8-1.1,6.9c0,3.1,0,4.5,0,4.5c3,1,5.7,4.4,5.7,4.4l0.1-9.5
			C3386.4-716,3386.4-717.6,3386.2-719.1L3386.2-719.1L3386.2-719.1z"/>
		<path id="path37-3-27-3-0-9" fill="#D40000" d="M3539.8-515.7h2.2v3h-2.2c0,0,0,1.6-0.1,4.5c-0.1,6.1-0.3,7-2,8.7
			c-3.5,3.3-9.3,0.6-9.2-4.4c0.1-7,0-13.7,0.2-14.6c0.4-1.7,0.4-1.8,0.3-2.1c-0.3-0.6-2.9-0.9-2.9-0.7v-3c2-0.2,2.8,0,4.4,1.2
			c1-1,4-1.9,6.5-0.8C3538.7-523,3540.1-520.7,3539.8-515.7L3539.8-515.7L3539.8-515.7z M3532.3-520.9c1.1,1.6,2.9,3.7,4.6,4.5
			c0.1-1.8,0-3.3-0.7-4.1C3535.3-521.8,3533.7-522.1,3532.3-520.9L3532.3-520.9z M3531.4-503.6c0.8,2.3,2.9,3.1,4.4,1.6
			c0.9-0.9,1.1-1.8,1.1-6.9c0-3.1,0-4.5,0-4.5c-3-1-5.7-4.4-5.7-4.4l-0.1,9.5C3531.2-506.6,3531.2-505.1,3531.4-503.6L3531.4-503.6
			L3531.4-503.6z"/>
		<path id="path3054-4-0-3" fill="#131F67" d="M3524.1-716.6h-130.6v210.5h130.6V-716.6z M3508-714.9h14v81.2c0,0-1.2,0-1.1-0.6
			c0.1-0.8,0-2.2-0.5-2.8c-0.2-0.3-0.6-0.6-0.7-0.9c-0.4-0.7-1-1.5-1.4-1.7c-0.2-0.1-0.5-0.2-0.5-0.3c0-0.2-0.1-0.7-0.2-1.1
			c-0.3-1.2-0.5-1.1,0.3-2.3c2.5-4,3.5-7.7,3.2-11.4c-0.1-1.1-0.4-2.6-0.5-2.8c-2.5,2.5-4.2,5.6-5.9,7.8c-0.4-3.2-0.3-5.7-0.4-8.3
			c1.3-0.4,2.1-1.1,2.7-2.9c0,0,1.4,1.1,2.3,1l-0.6-2.1c3.8-1.2,4.3-6.1-0.2-7.2l0.4-2.6c0,0-1.3,0.5-1.9,0.7
			c-0.3,0.1-0.4,0-0.6-0.4c-2.1-3.3-5.3-2.6-6.7,0.6l-1.7-0.7c0.2,0.9,0.4,1.8,0.3,2.7c-3.6,1.6-2.7,6.1,0.2,6.7l-0.3,2.1l2.2-0.7
			c0.3,1,0.2,1.6,1.9,2.7c0,4.4-0.1,7.1,0,11c-2.3-2.4-4.5-4-8.3-5.2c0,0,0,0.9,0.2,2.4c0.1,0.5,0.1,0.4-0.2,0.4
			c-0.5,0-2.8-3.7-2.8-3.7s-0.3,0-0.5,0.2c-0.3,0.3,0.3,0.8,1.2,2.1c1,1.5,0.9,1.4,0.1,2.1c-4.5,3.9-11.1,18.6-10,20
			c-2.9,0.2-14,5.7-16,17c-0.1,0.5-0.4,1.2-0.4,1.2l-3.2-0.8c1.9-9.3,6.3-28.2,6.3-28.2s3.1-0.9,4.9-1.1l0-0.7l-4.2,1l0.2-1.6l4-0.8
			l0-0.4l-4.2,0.6l0.7-2.7c0,0-9.5,1.4-12.9,1.3c0.2,10.5-0.6,19.2-0.2,30.5l-4.7-2.8c-0.4-7.9-0.5-27.7-0.5-27.7l-12.9-2l0.4,3.1
			c-10.7-4.3-21.3-8.2-29.2-16.5c4.8-3.7,12.9-7.5,12.9-7.5l-0.3-0.6c-19.9,10.3-27.1,17.5-37.1,26.4v-73.6h53.8l-0.2,13.5
			c0,0-0.1,0.3-0.2,0.5c-0.7,3.2,1.2,9,0.9,11.8c0.2,0.9,0.1,2.5,0.1,2.5c-3.2,4.5-5,8.7-6.4,13.9c-0.6,0.2-1.4,0.7-2,0.8l-0.2,0.7
			c1.3-0.7,4.9-1.8,4.9-1.8c16.1,7.9,27.9,6,40.5,0.1c-2,7.1,2.4,16.2,9.6,18.1c0.8,0.2,2.2,0.4,3,0.2c0.8-0.2-1.8-6.3-3-6.5
			c-3.5-1.5-4.9-5.1-4.5-9.2l-0.6-1c-1.2,5,1.7,10,5.6,11.2l1.1,2.3c-7.1-2.1-10.1-8.8-7.8-15.5c0-4.1-2.6-6-3.8-7.7
			c-6.2-2.4-7.3-8.1-6.2-12.8c2.9,1.2-1.9-4.1-1.9-4.1c-2.1,4.6-3,10.5,1.8,16.4c-3.1,4.2-7.2,7.5-11.7,10.3
			c-6.6,3.5-11.6,1.1-14.7-6.5c-1.9-4.6-2.6-9.2-2.6-14c0-3,0-3.1,1.2-2.6c1,0.5,3.3,0.5,4.7-0.2c1.8-1,1.8-0.4-0.2,1.7
			c-0.5,0.6-1.1,1.1-1.1,1.2c0,0.6,0.9,0.1,2.1-1.1c0.4-0.4,0.8-0.9,0.9-0.9c0.2,0,0.1,0.6,0,1.2c-0.1,0.2-0.3,1.2-0.5,2.2
			s-0.5,2.1-0.6,2.6c-0.5,1.7-0.4,2.5,1.2,3.3c0.9,0.4,2.3,1.8,2.3,1.8c0,0-0.4-1.6-0.2-2.1c0.2-0.6,0.9-0.2,1.6,0.2
			c1.6,0.8,2.5,0.8,3.4,0.1c1.2-1,0.8-3.2-0.6-3.8c-1.1-0.4-1.3,0-0.2,0.7c1.6,1.1-0.2,2.9-1.6,1.8c-1.1-0.8-2.9-0.9-3.1-0.2
			c-0.2,0.7-0.4,0.5-1.1,0.1c-1.1-0.7-1.2-0.8-0.2-4.5c1.8-7.1,1.6-9.7-0.8-11.8c-1.8-1.6-4.7-2.3-7.8-0.6v-2.4
			c4.5-1.8,7.8-4.9,10.4-9.9h0.5c2.6,5.7,6.9,9.9,14.9,13c3.1,3.1-4-8.9-1.7-4c-4.2-1.7-8-4.9-10.1-9h1.2c1.2,1.8,3.7,5.1,8.1,7.3
			c1.9,0-2.8-5.8-3.5-7.3h36.9c-1.2,9-2.8,18.7,3.7,36.3c-3-1.6-15.2,1.8-13.1,2.5c1.1-1.3,8.8-3.1,14.6-1.7
			C3511.5-678.2,3503.2-697.6,3508-714.9L3508-714.9z M3512-677.8C3512-677.8,3512-677.8,3512-677.8
			C3512-677.8,3512-677.8,3512-677.8z M3483.5-642.9l0,1.4l0.3-0.1l-0.2-1.4L3483.5-642.9z M3450.2-714.9h1.6
			c-0.4,0.7-0.9,1.4-1.7,1.8L3450.2-714.9z M3453-714.9h1.7c-1.4,2.2-2.8,3.6-4.5,4.6l0-1.7C3451.2-712.9,3452.2-713.9,3453-714.9
			L3453-714.9z M3455.8-714.9h1.6c-2.2,3.4-4.4,5.7-7.3,7.2v-1.4C3451.9-710.5,3454.4-712.6,3455.8-714.9z M3458.3-714.9h1.3
			c-2.2,4.3-5.3,7.3-9.4,9v-1C3454.6-709.4,3456.6-712.1,3458.3-714.9z M3461.8-714.9h1.6c2.1,4.3,6.6,8.4,11.5,10.2l0.7,1.7
			C3469.2-705.3,3464.9-708.8,3461.8-714.9z M3466.4-714.9h1.1c1.2,1.6,2.6,3.1,4.3,4.2l1,2C3470.5-710.3,3468-712.2,3466.4-714.9z
			 M3468.4-714.9h1.2l1.6,2.9C3470.2-712.6,3469.4-714,3468.4-714.9L3468.4-714.9z M3467-703.7c-1.7,0-3.3,0.5-4.4,1.4
			c-1.2,1-0.3,2,1.4,1.2c2.9-1.4,6.3-0.7,9.9,1.2c3,1.7,2-0.1-0.9-1.9C3471-703.1,3468.9-703.7,3467-703.7z M3453.2-701.5
			c2.5,0,5.3,1.1,5.3,2.6c-1.6-1.4-4.9-2-8-0.6c-0.2-0.1-0.3-0.9-0.1-1.2C3451.1-701.3,3452.1-701.5,3453.2-701.5z M3468.1-700.6
			c-1.5,0-3,0.4-3.6,1.3c-0.3,0.4-0.4,0.5-0.8,0.4c-0.7-0.1-0.7,0.3,0.1,1.4c0.4,0.6,0.3,1.2-0.2,1.9c-0.6,0.9-0.5,0.9,1.3,1.8
			c1.4,0.7,2.5,1.7,3.8,2.5c0.9,0.5,1.1,0.1,0.2-0.6c-0.3-0.2-1.1-0.8-1.9-1.3c-1.3-0.8-2.2-1.7-1.2-1.3c0.5,0.2,0.6,0.2,1.1,0.3
			c1.3,0.3,2.6,0.5,3.8,0.2c0.8-0.2,1.8-0.7,2.7-1.4c0.2-0.1,0.4,0,1,0c2,0.1,1.6-0.5-1.3-2.1c-2.9-1.6-5.2-1.9-7-1
			c-0.8,0.4-1.2,0.5-1.1,0.2c0.1-0.2,0.3-0.5,0.7-0.7c3-1.8,5.4-0.3,8,1c1.1,0.7,1.4,0.9,1.6,0.6c0.2-0.3-1.3-1.3-3.2-2.3
			C3470.9-700.2,3469.4-700.6,3468.1-700.6L3468.1-700.6z M3458.5-698.5c0.5,0.2,0.3,0.8-0.2,0.6c-2.8-1.2-3.3-1.9-6.6-0.7
			c-1.1,0.4-1.5,0-0.2-0.5C3454.4-700.3,3456.5-699.5,3458.5-698.5z M3456.6-697c-0.7,3.8-4.5,2.6-4.1,0l0.7,0
			c0.1,2.3,2.4,2.3,2.7,0L3456.6-697z M3478.6-697l1,2.2c-2.2,5.5,0.8,13,7.4,14.8c0,0,1.1,1.6,0.9,1.9
			C3475.5-681,3476.5-692.8,3478.6-697z M3466.9-696.9l0.3,0c1.1,2.7,2.6,1.1,2.9,0l0.8,0C3470.7-694,3466.6-693.6,3466.9-696.9
			L3466.9-696.9z M3457.4-696.8c0.5-0.1,0.7,0.7,0.5,0.8c0,0-1,0.9-1.1,0.4C3456.7-696.3,3457.2-696.7,3457.4-696.8L3457.4-696.8z
			 M3451.6-696.7c0,0,0.1,0,0.1,0c0.3,0.2,0.4,0.9,0.3,1.3c-0.2,0.2-0.9-0.1-1.1-0.4C3450.7-696.1,3451-696.7,3451.6-696.7
			L3451.6-696.7z M3471.7-696.4c0.2,0,0.9,0.3,0.8,0.6c0,0.1-1,0.8-1.2,0.7C3471-695.4,3471.5-696.4,3471.7-696.4
			C3471.6-696.4,3471.6-696.4,3471.7-696.4L3471.7-696.4z M3466.2-696.3C3466.2-696.3,3466.2-696.3,3466.2-696.3
			c0.1,0.1,0.7,0.4,0.2,1.1c0,0-0.7-0.2-0.7-0.3C3465.6-695.9,3466.1-696.3,3466.2-696.3z M3481.2-691.5c-0.2,3.2,0.7,6.3,4.1,8.2
			l-0.7-1.4c-0.9-0.7-2.7-2.7-2.5-5.1L3481.2-691.5z M3450.2-685.8l0.4,2.1c-1.9,3.2-3.3,6.3-4.5,9.9l-1.8,0.7
			C3445.7-677.7,3447-681.4,3450.2-685.8z M3451-682.5l0.5,1.8c-0.9,1.7-1.9,3.7-2.5,6l-2,0.7C3447.9-677.1,3449.2-680,3451-682.5z
			 M3457.3-681.8C3457.2-681.8,3457.2-681.8,3457.3-681.8c-0.1,0.4-0.1,1.3,0,3c0,0.3,0.3,0.2,1.2-0.3c0.7-0.4,0.7-0.4,1.4-0.2
			c2,0.7,2.9,0.4,3.6,0.2c1.2-0.3,1.7-0.2,2.3,0.2c0.4,0.2,0.9,0.4,1,0.4c0.5,0.2,0.3,0,0-1.5c-0.4-1.7-0.2-1.8-0.9-1.4
			c-0.1,0.1-0.6,0.3-0.8,0.4c-0.6,0.1-1.5-0.6-2.1-0.4c-1.4,0.5-1.4,0.4-2.7,0.1c-0.6-0.2-1.3,0.2-1.8,0.3
			C3458.1-681,3457.7-681.8,3457.3-681.8z M3480.8-680.9c2.3,2.2,4.7,2.9,7.3,3.7c-0.3,1.1-0.9,2.3-1.2,3.7c-13.5,7.2-27.2,7-40,0.4
			l6.7-2.6c3.6,6.3,8.3,8,13.6,6C3473-672.5,3477.3-676.3,3480.8-680.9z M3451.8-679.7l0.6,1.6l-0.9,2.3l-1.6,0.7
			C3450.2-676.7,3450.8-678,3451.8-679.7z M3464.1-677.9c-0.4,0-1,0.3-2.4,0.3c-0.8,0-1.3-0.1-1.6,0c-0.6,0.1,0.1,0.4,1.5,0.8
			c1.4,0.4,3-0.2,3.2-0.8C3464.8-677.7,3464.6-677.9,3464.1-677.9L3464.1-677.9z M3452.8-677.1l0.4,0.8l-0.6,0.2L3452.8-677.1z
			 M3488.8-676.7l1,2.3c-1.8,3.8-2.9,14.3,8.8,17.5l0.5,1.5C3491.1-655.1,3483.2-665.3,3488.8-676.7L3488.8-676.7z M3462-675.9
			c-1.1,0-2.3,0.3-3.1,0.9c-0.7,0.6,0.2,0.9,1.1,0.5c1.2-0.6,3.1-0.5,4.3,0.2c0.9,0.6,1.3,0.5,0.7-0.4
			C3464.5-675.5,3463.3-675.9,3462-675.9L3462-675.9z M3513.1-673.3c3.1-0.1,3.4,4.4,2.8,4.7c0.2-0.1,0.7-0.2,1.4-0.2
			c2.2,0.1,3.4,1.3,3.5,3.1c0.1,1.8-1.2,2.8-3.3,2.7c-0.7,0-1.3-0.1-1.2,0c0.4,1.5-0.1,3.7-2,4.2c-0.2,0.1-0.5,0.4-0.5,0.5
			c-0.1,2.3,0.5,10.3,0.5,10.3s3.6-6.1,4.4-7c1.6-2.2,2.2-2,1.9,1.6c-0.4,5-1.1,6.2-4,10.4c-1.3,1.8-4.2,0.9-4,2.1
			c0.1,0.3,0.5,0.8,1,1.2c0.3,0.3,0.6,0.5,1.4,0.5c1.3,0,1.8-0.3,1,0.8c-0.6,0.9-2.7,1.1-3,1.5c-0.6,1.1-0.2,0.8-1.1,1.8
			c-0.7,0.8-0.5,0.4-0.1,1c0.5,0.8,0.3,2.5-0.2,3.7c-0.4,0.9-0.4,1.6-0.4,1.6c0,0.1,1.2-1.2,1.5-2.7c0.3-1.2,0.6-1.9,0.6-1.2
			c0,0.9,0.1,2.1,0.9,2.5c0.6,0.4,0.7,0.7,0.6,1.2c-0.1,0.5,0.4,0.9,0.9,1.2c0.1,0.1,0.5,0.3,0.4,0.5c-0.1,0.8,0.2,1.7,0.7,1.8
			c0.2,0.1,1.8,0,2.1-0.9c0-0.3,0-1.5-0.6-1.5c-0.4-0.2-0.4-0.3,0.3-0.7c1-0.6,1.7-1,2.2-1.1c0.7-0.1,1.3-0.8,1.3-0.8l0.1,48
			c-5.9,6.1-12.4,12.2-21,18.2c-5-4.2-10.4-8.4-16.2-11.6l-2-1.2l0.7-0.9l-3.5-4.6l3.9-3.2l1,1.3l-1.8,1.8l2.8,3.1l6.2-6.1l-4.1-3.9
			l2.1-4l1.4,0.7l-1,2.6l3.1,2l3.9-7.8l-4.9-2.3l1.3-5.2l1.5,0.2l-0.5,3.8l3.9,0.8l1.6-8.9l-5.7-1l0.5-5.1l1.6,0l-0.2,2.8l4,0.6
			l0.8-7.8l-5.5-0.9l0.7-6l1.3,0.2l-0.2,3.7l4.1,0.7c0.4-2.5,0.8-5.6,1.5-8.1l-5.2-2l1.9-5l1.2,0.4l-1,2.7l3.9,1.7l3.3-6.5l-4.6-3.2
			c1-1.7,2-3.3,3.5-4.7l0.9,0.8c0,0-0.3,0.3-0.8,1c-0.6,0.9-0.8,1.3-0.7,1.5c0.1,0.2,2.9,2.3,3.1,2.3c0.2,0,1.2-0.9,1.7-1.4
			c0.5-0.6,0.8-0.7,1.3-0.3c0.1,0.1,0.3,0.2,0.4,0.4c0.1,0.2,0.2,0.3,0.2,0.4c0,0.1,0,0.2,0,0.2c0,0,0.1-0.1,0.4-0.2
			c0.4-0.2-0.7-1.2-1.7-1.7c-2.8-1.6-6-4.5-6.7-8.1c-0.3-1.6,3.9,0.3,6.9,3.3c0.4,0.4,2.1,2,2.1,2c-0.2-4.2-0.6-8.5-0.4-12.8
			l-0.6-0.4c-0.9-0.6-1.2-1.7-1.3-2.7c-0.1-0.7,0.6-1.1-0.8-1c-2.9,0-4.6-2.7-2.8-5.1c0.6-0.9,3.3-1.3,3.3-1.3
			C3509.5-671.6,3511.6-673.1,3513.1-673.3L3513.1-673.3z M3512-640.6C3512-640.6,3512-640.6,3512-640.6z M3515.9-668.5
			C3515.8-668.5,3515.8-668.5,3515.9-668.5C3515.8-668.5,3515.8-668.5,3515.9-668.5z M3419.5-659.4c8.1,6.9,13.2,11.5,29.7,16.6
			l0.4,2.5c-9.5-2.2-19.8-6.7-32.1-17.7L3419.5-659.4z M3417-657.8c5.1,4.8,10.4,8.5,15.7,11.6l1.9,1.1l-1,1l3.1,4.5l-4,3.3l-1-1
			l2.1-2.1l-3-3l-6.1,6.2l4.2,3.7l-2.4,3.7l-0.9-0.4l1.3-2.6l-3.9-2.1l-4.3,8l5.5,2.5l-1.2,4.9l-1.3-0.1l0.4-3.9l-4.1-0.7l-1.4,9
			l5.3,0.8l-0.1,5.2l-1.4,0l0.1-2.9l-4.2-0.2l-0.4,7.6l5.2,0.7l-0.5,6.1l-1.3-0.3l0.1-4l-4-0.4l-1.4,8.5l5.3,1.5l-1.9,5.3l-1.2-0.6
			l0.8-2.7c-1-0.4-3.7-1.6-3.7-1.6l-3.5,6.6l4.5,3.1l-2.8,4.9l-1.1-0.7l1.9-2.9l-3.8-2.4l-2.1,2.9c-0.9-0.8-2.5-1.9-3.2-2.6
			c-0.7-0.6-1.2-0.7-2-0.5c-0.7,0.2-1.3,0.3-1.2,0c0.1-0.1,1.4-1,3.3-2.2c0.5-0.3,1-0.7,1-1c0-0.2,0.3-0.6,0.7-0.8
			c0.4-0.3,0.3-0.5,0.3-0.8c-0.4-1.5-0.1-3.8,0.6-5.3c0.5-1,0.7-1.2,0.3-1.2c-1,0.1-2.1,3.6-2.3,4.6c-0.1-0.1-0.2-1-0.2-1.3
			c-0.1-0.6-0.2-1-0.7-1.2c-0.6-0.1-0.4-0.4-0.5-0.9c-0.1-0.7-0.5-1.2-1.1-1.5c-0.6-0.3-0.7-0.4-0.7-1c0-0.5-0.5-1.3-0.9-1.6
			l-2.1,0.8c-0.2,0.6,0.1,1.3,0.4,1.6c1.1,1-0.5,1-1.6,1.7c-0.3,0.2-0.6,0.6-0.9,0.5c-0.7-0.2-0.6,1.8-1.3,1.6l0.2-48.8
			C3400.5-645.5,3417-657.8,3417-657.8L3417-657.8z M3502.7-649.2l0.8,0.9c-2.5,2.9-4.4,5.8-6.4,9.4c-1.7,3.1-3.2,7.4-4,12.1
			c-0.6,2.9-0.7,5.8-1.1,8.7c-0.4,3.2-0.5,7.4-1.1,10.8c-1.1,9.2-3.7,14-9.2,19.2c-2.4,2.3-10,6.6-10.2,6.6l-1.8-0.4
			c15.6-8,19.5-13.6,21.1-32.5C3491.2-638.3,3502-647.5,3502.7-649.2L3502.7-649.2z M3504.2-647.6l0.8,0.8l-4.5,6.5l4.5,3.2
			l-1.8,4.2l-1.4-0.5l1-2.8l-3.8-1.6l-3,8.3l5.4,1.7l-0.9,5.4l-1.1-0.3v-3.7l-4-0.8l-1.2,9.3l5.9,0.8l-0.4,4.8l-1.4-0.1l-0.1-2.8
			l-4.1-0.2l-0.9,8l5.8,1l-1,5.7l-1.2-0.3l0.3-3.8l-3.9-0.5l-2.2,7.7l4.9,2.5l-2.4,4.9l-1-0.7l1.3-2.9l-3.8-1.9l-3.7,6.4l4,3.9
			l-3.9,4.1l-0.9-1.1l2-2.2l-3-3l-6.2,5l3.2,4.2l-0.4,0.5l-3.3-1.3l-1.6-2.1l-1.9,0.8l-1.5-0.6c9.2-4.8,15.1-10.5,17.6-18.9
			c1.4-4.7,1.8-9.8,2.2-14.9c0.2-2.7,0.5-5.4,0.8-8c0.5-4.3,1.1-7.9,2.8-12.1C3498.5-640.1,3501-643.7,3504.2-647.6L3504.2-647.6z
			 M3454.8-644.4l6.3,3.3l-0.1,2.2l-5.8-2.9L3454.8-644.4z M3456.6-644.3l4.5,0.6l0,1.8L3456.6-644.3z M3436.4-644.2l2.6,1.2
			l2.2,2.6l1.7-1.1l1.8,0.7c-5.7,3-10.8,6.5-14.7,12.6c-4.4,6.8-4.9,15.7-5.4,24.3c-0.9,11.8-3,20.2-10.8,29.8l-1.2-0.7l4.2-6.8
			l-4.8-3.1l2.2-4l1.1,0.4l-0.8,2.4l3.9,2.1l3-8.5l-5.6-1.7l0.9-5.3l1.4,0.1l-0.4,3.8l4,0.6l1.1-9l-5.3-0.8l0.1-4.8l1.3,0.1l0,2.9
			l4.2,0.2l0.3-8.2l-5.2-0.6l0.6-5.8l1.5,0.2l-0.3,3.5l4,0.6l1.9-7.5l-5.2-2.4l2.8-5.1l1.3,0.6l-1.3,2.8l3.6,1.8l3.8-5.9l-4.1-3.9
			l4-4.2l1,1l-2.2,2.5l3,2.8l5.9-5l-2.9-4.4L3436.4-644.2z M3474.1-644l-0.2,2.1l-6.3,3.6v-2.1L3474.1-644z M3508-643.9l1.4,0.9
			l-1,1.2l-1.2-0.8L3508-643.9z M3471.4-643.6l-3.8,2.2v-2.2L3471.4-643.6z M3516-641.5c0.2,0,0.4,0,0.5,0.1
			c0.4,0.2,0.3,0.9-0.1,1.2c-0.6,0.4-2.1,0.4-2.2,0C3514-640.9,3515.2-641.6,3516-641.5L3516-641.5z M3455.6-640.7l5.4,2.9l0,2.1
			l-5.2-2.9L3455.6-640.7z M3473.3-640.6l-0.3,2.7l-5.6,3l0-2.3L3473.3-640.6z M3446.3-640.6l2.2,0.6c-8.2,3.7-16.4,9.1-19.6,18.4
			c-1,2.8-1.7,5.9-2.1,9.9c-0.2,4.2-0.7,8.4-0.9,11.9c-0.4,7.2-2.7,16.8-10.8,27.1l-0.8-0.6c5-6.1,7.5-11.7,9.1-17.6
			c2.5-9.4,1.3-19.7,4-29.2c1.6-5.7,5-10.9,10.1-15.3C3441.1-638.1,3446.3-640.6,3446.3-640.6L3446.3-640.6z M3450-639.8
			C3450-639.8,3450-639.8,3450-639.8c2,6.8,4.5,19.2,4.5,19.2c-5.3-2.6-14.1-2.1-14.1-2.1s-5-6.4-5.9-7
			C3438.5-635.1,3449.3-639.7,3450-639.8L3450-639.8z M3518.1-638.7c1.2,0,1.1,1.8-0.4,3.1c-0.8,0.6-1.2,0.6-1.7,0
			c-0.2-0.2-0.7-0.4-1-0.4c-0.9,0,0.8-1.8,2.4-2.5C3517.7-638.6,3517.9-638.7,3518.1-638.7z M3456.3-637.2l4.8,2.5l0,2.1l-4.5-2.4
			L3456.3-637.2z M3472.7-636.9l-0.3,2.3l-5,2.6l0-2.1L3472.7-636.9z M3519.9-636.1c0.2,0,0.3,0,0.4,0.2c0.7,0.8-0.6,3.1-2.1,3.8
			c-0.6,0.3-0.9,0.2-1.4-0.2c-0.2-0.2-0.6-0.5-0.8-0.4c-0.8,0.1-0.4-0.9,0.3-0.9c0.2,0,1.4-0.9,2.3-1.7
			C3519.2-635.8,3519.6-636,3519.9-636.1L3519.9-636.1z M3514.7-635.2c1.1,0,1.5,0.9,0.2,1.3c-0.9,0.3-1.4,0.1-1.4-0.5
			C3513.7-635,3514.3-635.1,3514.7-635.2L3514.7-635.2z M3456.9-633.9l4.3,2.2l0,2.2l-3.9-2.1L3456.9-633.9z M3472.3-633.6l-0.3,2.1
			l-4.6,2.4l0-1.7L3472.3-633.6z M3520.8-632.8c0.3,0,0.4,0.3,0.4,0.9c0,1-0.6,1.9-1.6,2.3c-0.7,0.3-1.2,0.3-1.5-0.1
			c-0.2-0.2-0.4-0.3-0.5-0.3c-1.5-0.1-1.3-0.4,0.2-1c0.5-0.2,1.5-0.9,2-1.2C3520.2-632.6,3520.6-632.8,3520.8-632.8z M3515.3-632.1
			c0.7,0,1.4,0.5,1,0.9c-0.3,0.3-1.5,0.4-1.7,0.2C3514.1-631.5,3514.5-632.1,3515.3-632.1z M3457.7-630.6l3.7,2l0,2.1l-3.5-2
			L3457.7-630.6z M3471.7-630.4l-0.1,2.2l-4.2,2.1l0-2.1L3471.7-630.4z M3516.9-629.5c0.7,0.1,0.6,0.7,0,1.1c-0.4,0.3-1,0.1-1.2-0.2
			C3515.2-629.6,3516.4-629.5,3516.9-629.5z M3518.3-627.3c0.1,0.2,0.1,0.7-0.2,0.8c-0.3,0.1-1.1,0-1.2-0.2
			c-0.1-0.2-0.1-0.3,0.1-0.5C3517.4-627.5,3518.1-627.7,3518.3-627.3z M3458.2-627.3l3.1,1.7l0,2.1l-2.9-1.7L3458.2-627.3z
			 M3471.2-627.2l-0.2,2l-3.6,1.8l0-1.9L3471.2-627.2z M3433.1-625.9c0.8,0,1.4,0.5,0.9,1.4c-0.3,0.6-0.5,0.8-1.7,1.6
			c-0.5,0.4-1,0.7-1,0.7s-0.4,0.3-0.6,0.4c-1.1,0.8-0.7-0.8,0.7-3.2C3431.8-625.6,3432.5-625.9,3433.1-625.9z M3470.9-624.2
			l-0.3,2.2l-3.3,1.7v-2.1L3470.9-624.2z M3458.7-624l2.6,1.3l0,2.1l-2.4-1.3L3458.7-624z M3490.3-623.8c0.1,0,0.2,0,0.2,0.1
			c0.2,0.3,0.2,1.6,0,2.4c-0.4,0.9-1.1-1.3-1-1.9C3489.7-623.5,3490-623.8,3490.3-623.8z M3435-623.4c1.1,0,1.8,0.7,1.5,1.8
			c-0.4,1-2.8,1.7-3.9,2.4c-0.7,0.4-0.9,0-0.7-0.6c0.1-0.3,0.2-0.5-0.4-0.6c-1.3-0.2-0.5-0.8,1.9-2.5
			C3434-623.2,3434.5-623.4,3435-623.4L3435-623.4z M3487.7-622.7c0.4,0,0.8,0.2,1.3,0.7c0.8,0.9,1.4,2.8,1,3.3
			c-0.3,0-0.5,0.5-0.5,0.7c-0.1,0.6-1.1-0.5-2.2-2.2C3486.5-621.6,3486.9-622.7,3487.7-622.7L3487.7-622.7z M3443.4-622.4
			c3.2,0,9.4,0.7,18,6.1c1.1,0.7,2.2,1.4,3.4,2.1c3.3,1.8,5.9,3,10.1,3.7l-0.1,2.2c0,0.7,1.1,4.7,0.6,6.9c-0.8,0,0.7,0.7,0.7,0.7
			l1,2c0,0-5.1,0-7.5-0.5c-3.8-0.6-10.6-3.8-14-6.4c-3.5-2.5-8.7-4.7-13.1-5.5l-0.1-1.9c0,0-0.4-6.4-0.8-7.3l-0.8-2
			C3441.1-622.2,3442-622.4,3443.4-622.4L3443.4-622.4z M3470.5-621l-0.2,2.2l-2.9,1.3v-1.8L3470.5-621z M3484.7-620.9
			c0.8,0,2,0.9,3.4,2.8c0.3,0.4,0.5,0.8,0.6,1c0,0.2-0.1,0.4-0.3,0.3c-0.5-0.1-0.7-0.3-0.9,0.4c0,0.2,0.1,0.5-0.1,0.4
			c-1-0.3-3.7-3.1-3.6-4C3483.9-620.5,3484.2-620.9,3484.7-620.9L3484.7-620.9z M3459.3-620.7l2.1,1.1l0.1,2.1l-1.8-0.8
			L3459.3-620.7z M3436.9-620.1c0.6,0,1,0.2,1.2,0.7c0.5,1.2-0.4,1.9-2.9,2.5c-2.2,0.5-2.2,0.6-1.9-0.3c0.2-0.6-0.5-0.6-0.9-0.8
			c-0.7-0.2-0.1-0.3,1.8-1.3C3435.4-619.8,3436.3-620.1,3436.9-620.1z M3429.5-619.5c0.1,0,0.1,0.1,0.2,0.2c3.2,4,2.4,9.7-1.7,12.6
			c-0.5,0.3-0.5,0-0.4-0.6l0.1-1.2c0-0.2,4.7-3.1,1.2-9.6l0.3-0.9C3429.3-619.3,3429.4-619.5,3429.5-619.5z M3482.6-618.3
			c1.3,0,4.9,3.3,3.3,3.4c-0.2,0-0.1,0.2-0.1,0.4c0,0.1,0,0.4,0,0.5c-0.1,0.3-0.5,0.2-1.2-0.2c-1.6-1-2-1.3-2.6-1.8
			C3480.9-617,3481.2-618.3,3482.6-618.3L3482.6-618.3z M3469.9-617.7l0,1.8l-2.6,1.3l0-1.6L3469.9-617.7z M3437.4-616.4
			c1.7-0.1,2.7,1.7,1,2.6c-0.7,0.4-3,0.1-4,0c-1.2-0.1-0.5-0.5-0.4-0.6c0.2-0.3,0.3-0.3-0.3-0.7c-0.5-0.5-0.8-0.7,0.5-0.8
			c0.6-0.1,2.1-0.2,2.6-0.4C3436.9-616.4,3437.2-616.4,3437.4-616.4z M3489.9-616c0.1,0,0.1,0.2,0.1,0.8l-0.1,1.2
			c-0.8,0.1-4.7,5-1.5,10.7l-0.3,1c-0.1,0.5-0.2,0.6-0.6,0.3c-2.4-1.7-3.1-10.1,1.8-13.6C3489.7-615.9,3489.8-616,3489.9-616z
			 M3480.7-615c0.5,0,1,0.1,1.7,0.4c1.5,0.7,2.5,1.2,2.7,1.6c0.1,0.2-0.1,0.4-0.4,0.5c-0.4,0.1-0.4,0.3-0.3,0.7
			c0,0.3,0.1,0.5-0.2,0.5c-0.6,0-1.9-0.4-3.2-1.1C3478.7-613.5,3479-615.1,3480.7-615z M3469.5-615v2.2l-2.1-1L3469.5-615z
			 M3434.1-613.2c0.2,0,0.5,0,0.9,0.1c0.5,0.1,1.2,0.2,1.6,0.1c2.4,0,3.4,1.6,1.4,2.5c-0.5,0.2-0.8,0.2-2.2-0.2
			c-0.7-0.2-1.6-0.4-1.9-0.5c-0.7-0.2-1-0.4-0.5-0.6c0.4-0.2,0.5-0.5,0.2-0.9C3433.5-613,3433.6-613.2,3434.1-613.2L3434.1-613.2z
			 M3489.9-613.2c-0.3,3.3-0.6,5.9-1.1,9.2C3488.4-604.1,3485.9-610.3,3489.9-613.2z M3479.8-611.6c0.8,0,2.1,0.3,3.4,0.8
			c1.1,0.4,1.3,0.5,0.5,0.9c-0.5,0.2-0.4,0.4-0.3,0.7c0.2,0.2,0.6,0.7,0,0.6c-0.8,0.1-2.7-0.1-3.3-0.2c-1.8-0.3-2.3-2-0.8-2.7
			C3479.4-611.5,3479.6-611.6,3479.8-611.6z M3433.3-610.7c0.2,0,0.5,0.1,1,0.3c3.2,1,4.6,2.3,3,3.5c-0.5,0.4-1.2,0.2-2.5-0.6
			c-1.4-0.8-2.1-1.2-2.3-1.5c-0.3-0.3-0.1-0.6,0.3-0.6c0.5,0,0.5-0.2,0.4-0.7C3433.1-610.6,3433.1-610.7,3433.3-610.7z
			 M3442.1-610.4l2.5,0.6l-6.2,27.4c-2.1,0.6-3.3,0.9-4.8,1.7l4.3-0.7l-0.4,2l-3.9,0.7l-0.1,0.6l4.5-0.8c0,0-0.2,1.9-0.3,2.6
			c4.3-0.3,8.5-1.5,12.8-1.6c0,0,0.1-21.6,0.1-24c0-2.5,0-5.6,0-5.6l4.3,2.4l0.7,27.2l13.5,2.2c-0.1-0.5-0.5-2.6-0.5-2.6
			c10,3,20.1,7.4,29.1,16.4c-4.2,2.3-8.1,4.5-12.2,6.7l-0.6,0.9c10.3-4.8,25.9-14.9,37.2-26v72.3h-53.7c0,0,0-3.5,0-6.7l0-6
			c-0.2-3.9,0.4-8.1-0.7-11.4l-0.2-3.4c3.3-3.9,5.1-8.8,6.7-13.8c0,0,1.6-0.6,2.4-0.9l0.3-1c-1.5,0.8-5.1,2.1-5.1,2.1
			c0.4-0.3-7.6-3.7-12.5-4.5c-8.1-1.3-19,0-27.7,4.4c-0.4,0.3-0.6,0.3-0.5-0.1c2-7.4-2.2-14.8-9.7-16.9c-1.6-0.5-2.9-0.5-2.9-0.5
			l0.1,0.6c12.2,1.4,15,14.3,10.3,20.4c-1.2,2-1.4,2.6,1.2,2.5c10.4-0.1,14.1,11.6,9.3,18.1c0,0,0.4,0.8,0.4,0.8
			c3-3.9,3.8-11.4-1.5-16.7c3.9-4.4,11.3-11.3,17.8-10.9c2.3,0.1,4.7,3,6.2,5.3c3.3,4.8,4.1,11.6,4.3,15.4c0.1,1,0.2,1.7,0.2,2.3
			c0,1.5-0.3,1.4-1.3,1.1c-1.2-0.3-2.9-0.3-4.2,0.1c-2,0.6-1.7,0.3,0.1-2c1.1-1.3,1.2-1.7,0.8-1.8c-0.1,0-0.6,0.4-1.2,1.3
			c-1.8,2.7-1.6,1.6-0.4-2.7c0.8-2.8,0.7-3-1.5-4.7c-0.8-0.6-1.7-1.1-1.8-1.3c-0.4-0.9-0.6,0.2-0.2,1c0.4,0.7-0.4,1.1-1.8,0.3
			c-3.3-1.8-5.4,1.9-2.5,3.5c0.7,0.4,1.1,0.1,0.5-0.4c-1.8-1.7-0.5-3.1,1.9-1.6c1.4,0.9,1.9,0.6,2.4-0.5c0.3-0.4,2.5,1.1,2.4,1.8
			c0,0.4-0.3,1.7-0.5,2.6c-0.7,2.4-0.9,3.2-1.2,4.8c-0.6,2.9-0.5,4.3,0.1,5.6c1.3,2.8,4.6,4.1,7.5,3c0.4-0.2,1.2-0.3,1.2-0.3l0,2.1
			c-5.7,2.2-9.8,8.9-9.6,9.2l-2,0c-2.7-5.4-7.4-9.4-13.5-11.7c-1.2-1,0.3,2.8,1.6,3.6c2.9,1.5,6.6,4.1,8.7,8.1l-1.4,0
			c-1.8-2.7-4-4.5-6.2-6.1c-0.5-0.1,0.4,4.9,2.4,6.4l-37.1,0.7c2.5-10,3-21-2.9-35.5c4.9,0.3,9.3-0.8,13.3-2.5l-0.4-1
			c-4.6,2.2-9.6,2.6-14.6,2.1c3.8,7.1,7.1,21.8,3.9,36h-14.1v-77.5c0,0,0.8,0.5,1,0.7c0.4,0.4,0.7,1.1,0.8,1.5
			c0.2,0.6,0.3,0.6,1.2,1.3c0.4,0.3,0.6,0.6,0.6,0.7c0,0.2,0,0.7,0.2,1.1c0.7,0.9,0.6,1.5,0.1,2.1c-2.6,2.7-4.2,8.5-2.9,14.5
			c3.1-2.1,6.3-7.6,6.4-7.6l0.3,7.5c-0.3-0.1-2.2,1.1-2.2,2.5c-0.9,0.3-1.9-0.2-2.8-0.4l0.6,2.2c-3.2,1.3-3.3,5.7,0.3,6.9
			c0,0-0.3,1.7-0.6,2.6l2.4-0.4c1.4,4.2,6.7,2.8,6.7-0.1c0,0,1.6,0.6,2.2,0.9l-0.6-2.8c6.1-3,1.5-7,0.1-7c0-0.8,0.4-1,0.7-2
			l-2.4,0.2c-0.4-1.5-2.1-2.7-2.2-2.5l-0.3-10.7c1.9,1.6,3.7,3.3,6.1,4.6c2.3,1.2,2.5,0.9,2.2-1.1c-0.2-0.9-0.1-1.5-0.1-1.5
			c0.8,0.2,3,3,2.9,4.4c0.8,1,1.5-1.7-0.5-4.1c5.4-5.7,9.5-15.1,10.3-21.5l7.2-2.9l0.1-0.9C3438.2-600.7,3440.8-605.2,3442.1-610.4
			L3442.1-610.4z M3448.1-608.7l1.6,0.7l-1.9,0.9L3448.1-608.7z M3432.2-608.3c0.3,0.1,0.8,0.5,1.5,1c1.4,1,2.2,1.7,2.2,2.4
			c0,0.3-0.2,0.7-0.6,0.9c-0.8,0.5-1.7,0.1-3.5-1.8c-0.6-0.6-1-0.9-1.2-1.2c-0.2-0.3-0.1-0.6,0.3-0.5
			C3432.5-606.9,3431.2-608.7,3432.2-608.3L3432.2-608.3z M3482.6-607.9c0.3,0,0.5,0,0.7,0c0.4,0.1,0.5,0.3,0.3,0.5
			c-0.4,0.3-0.3,0.7,0.1,0.9c0.3,0.1,0.2,0.4-0.2,0.6c-0.2,0.1-0.5,0.2-0.9,0.3c-2.2,0.7-3.9,0.5-4.3-0.6c-0.5-1.2,0.5-1.8,3.2-1.8
			C3481.9-607.9,3482.3-607.9,3482.6-607.9L3482.6-607.9z M3449.9-607.2l0,1.6l-2.3,1.1l0.3-1.6L3449.9-607.2z M3430.1-606.7
			c0.2,0,0.5,0.3,1,0.9c2.2,2.8,2.6,3.3,1.8,4c-0.9,0.9-2.1,0-3.4-2.4c-0.2-0.3-0.4-0.7-0.5-0.9c-0.5-0.6-0.3-0.7,0.3-0.7
			c0.3,0,0.5-0.1,0.5-0.4C3429.9-606.5,3429.9-606.7,3430.1-606.7z M3483.9-605.3c0.4,0,0.4,0.1,0.2,0.6c-0.1,0.4-0.4,0.6,0.2,0.8
			c0.1,0,0.3,0.3,0.1,0.4c-0.5,0.3-2.6,1.3-3.3,1.5c-1.5,0.5-2.4-0.7-1.5-1.9c0.4-0.5,2.9-1.4,4.1-1.5
			C3483.8-605.3,3483.9-605.3,3483.9-605.3L3483.9-605.3z M3428.9-603.7c1.5,2.2,1.7,3.3,0.7,3.9c-0.6,0.5-1.9-0.2-2.3-1.7
			c-0.2-1.1-0.3-2.3,0-3.2C3427.9-606,3428.8-603.9,3428.9-603.7L3428.9-603.7z M3449.9-604.6l0,1.8l-2.8,1.4l0.3-1.9L3449.9-604.6z
			 M3455.7-604.5l2.7,1.7l0.2,1.5l-2.8-1.5L3455.7-604.5z M3485.4-602.8c0.1,0,0.1,0,0.1,0.1c0,0.2-0.1,0.9,0.3,1
			c0.8,0.1,0.6,0.4-0.1,1c-0.7,0.7-1.4,1.4-2.3,1.9c-2.3,0.9-3-1.6-0.8-2.9c0.8-0.4,1.4-0.7,1.9-0.9
			C3484.9-602.6,3485.2-602.8,3485.4-602.8z M3455.7-601.9l3.1,1.8l0.1,1.8l-3.1-1.6L3455.7-601.9z M3449.8-601.7l0,1.6l-3,1.7
			l0.2-1.8L3449.8-601.7z M3462.3-600.4c0.9,0.4,11.8,3.5,15.4,2.4c0,0,3.1,4.5,5.4,6.1c-3.6,5.3-15.6,10.4-15.6,10.4L3462.3-600.4z
			 M3486.9-600.3c0.2,0,0.2,0.2,0.2,0.6c0,1.1-1.8,5.1-3.2,3c-0.4-0.8,0-1.6,1.2-2.5C3486.1-599.9,3486.7-600.3,3486.9-600.3
			L3486.9-600.3z M3427.3-599.7c0.3,0.3,0.1,1.2-0.4,1.1c-0.2,0-0.2-0.9-0.1-1.4C3426.9-600,3427.2-599.8,3427.3-599.7z
			 M3449.8-599.2l0,2l-3.6,2l0.4-2.3L3449.8-599.2z M3455.7-598.9l3.5,1.9l0.4,2.2l-3.9-2L3455.7-598.9z M3449.8-596.1v2.1l-4,2.1
			l0.3-2L3449.8-596.1z M3455.8-595.9l4,2.3l0.5,2.1l-4.4-2.3L3455.8-595.9z M3399.7-595.9c0.6,0,0.9,0.7,0.4,1.1
			c-0.3,0.3-1.2,0.2-1.3,0C3398.3-595.1,3398.9-595.8,3399.7-595.9z M3400.9-593.7c0.1,0,0.2,0,0.3,0c0.5,0.1,0.8,0.8,0.5,1.2
			c-0.5,0.7-1.9,0.2-1.7-0.7C3400-593.4,3400.5-593.7,3400.9-593.7z M3449.7-593v1.8l-4.4,2.3l0.3-2.1L3449.7-593z M3455.9-592.7
			l4.5,2.4l0.3,2.1l-4.8-2.5L3455.9-592.7z M3398.7-592.7c0.2,0,0.4,0,0.5,0.2c0.1,0.1,0.2,0.5,0.5,0.7c0.6,0.3,0.6,0.4-0.5,0.9
			c-0.5,0.2-1.4,0.8-1.7,1.1c-1,0.7-1.4,0.4-1.5-0.3C3396-591.2,3397.8-592.6,3398.7-592.7z M3402.1-591.2c0.2,0,0.4,0,0.6,0.1
			c0.4,0.2,0.4,0.8,0,1c-0.8,0.5-2.1-0.2-1.4-0.8C3401.5-591.1,3401.8-591.2,3402.1-591.2z M3449.7-590.2l0,2.4l-4.9,2.6l0.3-2.4
			L3449.7-590.2z M3399.7-589.9c0.3,0,0.6,0.1,0.9,0.3c0.3,0.4,0.6,0.5,0.8,0.5c0.8,0,0.6,0.3-0.3,0.7c-1.2,0.6-2.1,1.3-2.9,2.1
			c-0.9,0.8-1,1-1.3,0.7C3395.8-587,3398-589.8,3399.7-589.9L3399.7-589.9z M3456-589.9l5.1,2.8l0.4,2.4l-5.5-3.1V-589.9z
			 M3403.1-588.2c0.2,0,0.4,0,0.6,0.2c0.4,0.3,0.2,0.9-0.4,1.1c-0.4,0.2-1.1,0.1-1.3-0.1C3401.5-587.5,3402.3-588.2,3403.1-588.2z
			 M3400.6-587c0.3,0,0.6,0.4,0.8,0.8c0.1,0.1,0.4,0.1,0.7,0.1c1,0,1.1,0.4,0.2,0.9c-0.3,0.2-1.2,0.8-1.8,1.3
			c-1.6,1.5-2.5,1.2-2.3-0.4C3398.5-585.8,3399.8-586.9,3400.6-587z M3456-586.9l5.6,3.1l0.5,2.6l-6.2-3.4V-586.9z M3449.8-586.8
			l0,2.4l-5.3,2.8l0.4-2.4L3449.8-586.8z M3456.1-583.8l6.3,3.8l0.2,2.5l-6.5-3.8V-583.8z M3449.8-583.4l0,2.3l-5.9,3l0.3-2.2
			L3449.8-583.4z M3402.1-581.9c0.2,0,0.3,0,0.4,0.1c0.7,0.3,0.5,0.9-0.5,1.4c-1.1,0.6-1.4,0.5-1.6-0.2
			C3400.2-581.1,3401.3-581.9,3402.1-581.9z M3468.1-581.6c11,2.5,21.7,8,32.2,17.6l-2.2,1.6c0,0-9.1-10.5-29.5-16.7L3468.1-581.6z
			 M3456.1-580.5l3,1.8l0,0.5l-3.1-0.3V-580.5z M3404.3-580.4c0.2,0,0.4,0.1,1.5,0.7c4.4,3.2,6.1,5.1,7.2,8.6c0.6,2.1,0.6,2-1.5,0.9
			c-2-1.1-4.8-2.9-6.5-5.2c-0.3,5.4,0.3,12.2,0.3,12.2c2.7,1.4,1.8,4.9,1.8,4.9c7-1.9,5.5,7.4,0.3,5.4c1.2,7-6.7,6.4-5.9,0.4
			c-6.3-0.2-5.2-7.2,0-6.2c-0.5-2.1,0.2-3.6,2.1-4.5l-0.3-9.2c0,0-5.2,7.5-6,7.3c-0.5-0.1-1.3-0.9,0-7.5c0.7-3.4,4.3-7.6,6.3-7.7
			C3404-580.4,3404.1-580.5,3404.3-580.4L3404.3-580.4z M3409.3-580.4l0.9,0.6l-0.9,1.6l-1-0.7L3409.3-580.4z M3449.7-579.9l0,1.4
			l-2.8,0.2L3449.7-579.9z M3420-563.5c6.7,1,10.8,9.3,7.7,15.3c-0.4,0.3,0.2,1.6,0.6,1.1c3.3-4.7,0.8-16.1-8.7-17.2
			C3417.6-564.6,3419.4-564,3420-563.5L3420-563.5z M3421.1-561.3c-0.5,1.5-0.7,1.8,0.7,1.2c2.4,0.9,5.1,4.9,4.2,8.9
			c-0.3,0.5,0.2-0.3,0.5,1C3427.7-553.1,3426.5-559.4,3421.1-561.3z M3452-553.8c6.9,0,13.6,1.5,19,4.6c-1.8,1-7.7,2.5-7.7,2.5
			c-3.3-3.7-5-7.4-10.9-5.5c-6.2,1.6-11.8,7-15,10.6c-3.2-1.9-4.9-2.4-7.7-2.5c-0.2,0-0.4,0.7-0.2-0.4c0.8-1.2,1.4-2.7,1.9-4.1
			C3437.3-552,3444.7-553.8,3452-553.8z M3473.3-549c-1.4,4.4-3.1,8.8-6.1,12.7l-0.4-1.9c2.8-4.3,4.1-8.3,4.7-10L3473.3-549z
			 M3470.7-547.9c0.2,0.3-2.7,7.2-4.2,8.5l-0.6-1.8c1.2-1.8,2.9-6.1,2.8-6.1L3470.7-547.9z M3453-547.9c-0.1,0-0.1,0.1-0.1,0.3
			c0,0.6,0.7,1.1,1.9,1.4c1.6,0.4,3.9-0.2,3.9-1c0-0.4-0.3-0.5-1.2,0c-1.2,0.5-2.2,0.4-3.7-0.4
			C3453.3-547.8,3453.1-547.9,3453-547.9z M3467.5-546.8c-0.5,1.7-1.1,2.9-2,4.2l-0.3-0.9c0.6-1,1-2.1,1.5-3.1L3467.5-546.8z
			 M3465.8-546.2c-0.2,0.6-0.5,1.3-1,1.8l-0.7-1.4L3465.8-546.2z M3455.5-544.9c-1.1,0-2.2,0.4-2.3,1c0,0.3,0.4,0.2,2.4-0.1
			c1.1-0.1,1.6,0.5,2.6,0.4c0.5-0.1,0-0.5-0.1-0.7C3457.5-544.7,3456.4-544.9,3455.5-544.9z M3450.8-543.6c-0.1,0,0,0.3,0.4,1
			c0.2,0.4,0.3,1.2,0.3,1.7c-0.1,1.2,0,1.2,0.6,0.5c0.4-0.4,1.1-0.3,2.3,0c0.8,0.2,0.9,0.3,1.5-0.1c0.6-0.4,0.8-0.2,1.3-0.1
			c0.5,0.1,1-0.1,1.5-0.3c0.7-0.2,0.8-0.1,1.4,0c0.9,0.4,0.8,0.4,0.8-1.1c0.1-1.5,0-1.6-0.9-1.1c-0.8,0.5-1.4,0.7-2.7,0.3
			c-1.4-0.5-1.6-0.4-2.6-0.1c-1.2,0.4-1.8,0.5-2.7-0.1C3451.3-543.4,3450.9-543.7,3450.8-543.6L3450.8-543.6z M3431.1-541.4l0.5,0.9
			c4.9,1.7,8.1,5.7,6.2,12.5l0.5,0.7C3440.8-534,3438-539.7,3431.1-541.4z M3432.6-538.5l0.7,1.4c3.7,1.8,3.4,6.7,3.2,6.5l0.6,1.3
			C3438-532.5,3436.4-537.2,3432.6-538.5L3432.6-538.5z M3447.9-531.2c-0.1,0-0.2,0.1-0.3,0.2c-0.1,0.2,0.2,0.4,1.9,1.6
			c1.4,1,2.5,1.7,2.5,1.9c-0.1,0.1-0.9-0.1-1.6-0.3c-1.7-0.5-4.1,0.1-5.5,1.1c-0.4,0.2-0.9,0-1.4-0.2c-0.2-0.1-0.6-0.1-0.9-0.1
			c-1,0.3,0,1.3,2.5,2.6c3.1,1.6,4.8,1.7,6.7,0.8c1.3-0.7,1.7-0.2,0.3,0.6c-2.4,1.3-4.7,0.9-8.5-1.7c-1.8-1.2-2.5-1-1,0.1
			c2.7,2.1,7.8,4.7,10.9,1.5c0.1,0,0.4,0,0.5,0c0.7,0,0.7-0.2,0-1.3c-0.4-0.7-1.2-1.3-0.2-2.1c0.8-0.6,0.7-0.9-0.2-1.2
			c-0.2-0.1-0.2,0.1-0.6-0.2C3450.9-529.8,3448.7-531.2,3447.9-531.2z M3448.9-527.6c0.9,0,1.9,0.8,2.2,2.1c0,0.1,0,0.2,0.1,0.4
			l-0.8,0c-0.7-2.7-2.7-1.8-2.8-0.2l-0.7-0.1C3447-527,3447.9-527.6,3448.9-527.6L3448.9-527.6z M3465.4-525.3l-0.5,0.1
			c-0.3-1-1.9-2.3-2.7,0.1l-0.7,0C3462-528.4,3464.9-527.9,3465.4-525.3L3465.4-525.3z M3461.3-526.7c0.2,0.3-0.2,0.8-0.4,1.1
			c-0.2,0.2-0.7,0-0.9-0.2c-0.2-0.2,0-0.7,0.2-0.8C3460.6-526.8,3461.1-526.9,3461.3-526.7z M3452-526.6c0.2,0.5-0.4,0.9-0.5,0.7
			c-0.1,0-0.3-0.9-0.2-0.9C3451.5-526.8,3451.9-526.8,3452-526.6L3452-526.6z M3466-526.7c0.3,0,0.7,0.2,0.8,0.6
			c0,0.3-0.3,0.5-0.6,0.5c-0.1,0-0.7-0.4-0.6-1C3465.7-526.8,3465.8-526.7,3466-526.7z M3446.5-526.5c0.1,0.2-0.1,0.7-0.2,0.8
			c0,0-0.7,0-0.7,0s-0.1-0.5,0.1-0.8C3445.9-526.7,3446.4-526.7,3446.5-526.5L3446.5-526.5z M3459.5-524.8c0.1,0,0.2,0,0.3,0.1
			c2,1.3,4.6,1.9,6.4,1c0.4-0.2,0.7-0.2,0.7,0c0,0.2-0.5,0.7-1.3,0.9c-1.9,0.6-5.1-0.2-6.2-1.4
			C3459.2-524.5,3459.2-524.8,3459.5-524.8L3459.5-524.8z M3441.9-523.4c-0.2,0-0.3,0.1-0.2,0.3c0.1,0.8,5.5,3.9,7.7,4.3
			c1.8,0.3,3.3,0.2,4.4-0.5c2.7-1.6,2-3.8-0.6-2.1c-1.8,1.1-6.3,0.6-9-1C3442.9-523,3442.3-523.4,3441.9-523.4L3441.9-523.4z
			 M3466.1-522.3c0.7-0.3,1-0.4,1.1-0.3c0.7,0.6-0.4,1.5-2.5,1.8c-1.6,0.3-2.6,0.3-4.5-1.1c-1.5-1.1-0.8-1.6,0.1-1.1
			C3462.5-521.6,3464.1-521.5,3466.1-522.3L3466.1-522.3z M3442.4-518.9c4.7,1.7,10.1,5.8,12.5,10.8l-1.5,0c-1.6-2.9-4.8-6.5-10.1-9
			C3442.9-517.5,3442.6-518.2,3442.4-518.9L3442.4-518.9z M3467.3-516.5v1.6c-2.9,1.5-5.4,3.8-7.2,6.9l-1.7,0
			C3460.3-511.5,3463.2-514.6,3467.3-516.5z M3467.3-514.2v1.9c-1.9,1.1-3.4,2.5-4.5,4.2h-2C3462.4-510.7,3464.6-512.9,3467.3-514.2
			L3467.3-514.2z M3445.6-512.7c1.4,0.8,3.7,3,4.6,4.7l-0.8,0c-0.8-1-2-2.1-3-3C3445.8-511.7,3445.6-512.7,3445.6-512.7z
			 M3467.3-511.4C3467.3-511.4,3467.3-511.4,3467.3-511.4v1.6c0,0-1.4,1-2,1.8h-1.6C3464.8-510,3467.1-511.5,3467.3-511.4
			L3467.3-511.4z M3467.3-508.9v0.9l-1,0C3466.4-508.1,3466.9-508.8,3467.3-508.9L3467.3-508.9z M3447.8-508.7
			c0.3,0.2,0.5,0.7,0.5,0.7l-0.3,0L3447.8-508.7z"/>
		<path id="path3052-2-5-5" fill="#E2CF00" d="M3407.3-542.5c3.3,0.1,10.2-1.1,10.1-1c0,0,21.6,36.1,20.7,35.7
			c-0.3,0.4-27.6,0.4-27.6,0.4C3409.9-507.3,3416.3-520.7,3407.3-542.5z M3417.1-567.9c10.5-8.8,21.5-8.8,33.3-10l0.3-29.8l4.3,2.6
			l0.1,27.3c15.6,1.2,29.1,6.9,40.6,17c0.1,0.2-16.7,9.3-24.1,11.7c-5.7-4.2-20.9-6.9-30.9-3.7c-2.8,0.9-6.1,2.3-9.4,3.4
			c2.4-14.4-8.8-16.5-12.7-17.2C3418-566.7,3417.4-567.7,3417.1-567.9z M3403.6-563.2c0.2-3.1,0-6.1-0.2-9.3
			c-0.1-0.7-6.1,9.3-6.5,6.9c-0.9-6.1,2.2-13.9,6.9-14.8c0.5-0.6,9.8,5.2,9.4,10.2c-0.1,1.6-8.3-5.5-8.4-5.1
			c-0.2,0.8,0.2,12.1,0.5,12.1c2.4,1.3,1.8,3.1,2.1,4.5c6.3-0.9,6,6.1,0,5.9c0.4,8.4-7.3,4.6-5.8,0.1c-7.8-0.4-3.9-7.7-0.1-6.1
			C3401.3-560.6,3401.7-562.5,3403.6-563.2L3403.6-563.2z M3412.5-598.7c-0.4-0.2-16.6-1-16.6-1l0.8-39.5c8.2-19,39.2-10.1,34.3-6.1
			C3416.3-635.6,3414-617.8,3412.5-598.7z M3442.2-614.9l-0.5-4.4c-1.3-2.7,32.9,13.2,33.3,13.5l1,4.7
			C3476.3-599.1,3454.3-609.5,3442.2-614.9z M3504.5-622.7c-2.6,19.7-2.4,39.5-16.9,46.4c10.9,10.6,20,2.4,33.7-4.4
			c0.4,0-0.5-42.2-0.7-42.1C3515.2-622.7,3509.9-622.5,3504.5-622.7z M3512.1-642c-2.7-0.4-9-7-7.7-8.9c0-1.5,7.8,4.2,8.6,5.7
			c-0.4-0.5-0.5-13.9-0.6-13.4c-0.3,0.2-2.4-1.3-1.8-4.1c-6,1.3-5.6-6.5-0.4-6.1c-0.7-7.1,7.9-4.5,5.6,0.3c7.4-1.4,6.1,6.9,0.5,5.6
			c0.5,3.2-0.8,4-2.6,4.7c0.1,1.3,0.6,10.1,0.6,10.1s5.4-8.4,5.8-7.7C3521.5-653.8,3519.3-639.9,3512.1-642L3512.1-642z
			 M3486.9-672.9c-2.5,8.5,4.3,18.2,10.6,18.2c1.3-0.2,3.7,0.5,2.9,1.2c-10,8.2-33.4,9.9-33.4,9.5c0.2,10-0.2,20.2-0.4,30.2
			l-4.3-2.6c-0.1-9.1-0.4-18.5-0.6-27.7c-15-2-28.4-6.8-39.1-17.2c7.1-5.3,15.5-8.6,23.6-11.9
			C3456.4-667.8,3470.6-664.7,3486.9-672.9z M3479.5-713.3c-0.5-0.2,1.6-1.8,1.6-1.8s17.4,0.2,26,0.1c-3.1,13-0.9,24.6,3.1,35.8
			c-1.1-0.3-8.2,0.3-10,1.1C3500-677.8,3479.7-713,3479.5-713.3z"/>
		<path id="path3050-3-4-7" fill="#D40000" d="M3438.7-507.8l-21-35.8l3.2-1.4l21.7,37.2L3438.7-507.8z M3401.3-555.6l3-3.1l3,3.1
			l-3.2,3L3401.3-555.6z M3468.8-575.7l-0.4-2.6c12.1,3,22,9.3,29.2,16.1l-1.7,1.3C3496.4-561.1,3478.6-574.5,3468.8-575.7z
			 M3433.9-578l3.5-0.7l-0.1,2.1l-3.4,0.7L3433.9-578z M3504.5-579.9l-2.1-1.7l1.5-1.8l2,1.6L3504.5-579.9z M3433.3-597.2
			c5.2-2.5,9.3-12.5,8.8-13.2l2.8,0.7l-6.6,27.4l-4.5,1C3433.8-586.6,3433.3-592,3433.3-597.2z M3467.6-581.7
			c-1.8-5.8-5.2-18.8-5.2-18.8c0.1,0.4,11.3,3.6,15.3,2.5c1.7,2.3,3.6,4.4,5.5,6.3C3479-587.7,3473.9-584.3,3467.6-581.7z
			 M3514.4-602.7l-2-1.7l1.8-2.2l2.2,1.7L3514.4-602.7z M3488.7-603.9c-1.6-2.9-1.7-6.2,1.3-9.4L3488.7-603.9z M3427.6-608.9
			c-0.1-2.9,0.3-5.8,1-8.5C3430.3-614.3,3430.3-611.1,3427.6-608.9z M3472.5-611.6c0,0,4.3-20.2,6.2-28.1l4.8-1.1l-0.2,16.3
			c-4.8,3.9-8.1,13.2-7.9,13.2L3472.5-611.6z M3403-615l-2.1-2l1.8-1.9l1.8,1.9L3403-615z M3440.4-622.9c-1.5-2.2-3.6-4.5-5.7-6.8
			c3.6-5,9.4-7.9,15.7-10.1l4.2,19C3449.8-622.2,3444.7-623.8,3440.4-622.9L3440.4-622.9z M3411.1-639.7l1.5-1.8l1.9,1.5l-1.5,2
			L3411.1-639.7z M3480.3-645.3l3-0.7l0.1,2.3l-3.6,0.7L3480.3-645.3z M3420.1-659.8l2.3-1.4c8,7.2,16.8,12.2,26.4,15l0.3,2.7
			C3438.2-646.9,3428.3-651.5,3420.1-659.8L3420.1-659.8z M3513.2-662.6l-3-2.9l2.7-3l3.2,2.7
			C3515.1-664.2,3513.2-662.6,3513.2-662.6z M3496.9-676.9l-22.1-38l3.2,0l21.8,36.6L3496.9-676.9z"/>
		<path id="path3048-5-8-9" d="M3474.6-715.5l-5.3,0l30,60.7c0,0-0.8,0.1-2.4-0.3c-7.2-1.9-11.6-9.6-10-17.1
			c0.2-0.6,0.2-1.1,0.2-1.1c-18.6,8.5-30.1,5.3-40.8,0l-4.6,1.8c0.3-2.8,3.7-13.2,8.8-18.1l0-5.3l-0.1-2.5l-0.4-4.5
			c-7.6,7.2-16.5,18.5-17.6,34.7c0,0-6.9,3.6-12.8,7.5c0.3,0,9.2,10.9,30.5,17.1l-0.9-3.5c3.2,0.9,7.7,1.6,12.2,2.2l0.6,27.5l5.1,3
			l0.2-30.4c0.2,0.1,8.1-0.3,12.4-1.3l-0.6,2.9l4.2-0.8v2.1l-4.6,1.1l-6.6,28.4l3.9,0.9c1.1-5.7,4-10.4,8.1-13.2l0-1.1
			c2.6-1.9,8.1-3.4,8.2-3.4c1.9-9.2,6.2-15.6,10.9-21.7l-2.2-3l8.5-3.1l-11.8-20.2c4.5-3.1,13.5-2,13.5-2
			c-3.8-10.5-7.2-21.2-3.4-37.1l-32.7,0L3474.6-715.5z M3485.3-714.9c0,2.6-3.4,2.4-3.9,0L3485.3-714.9z M3506.3-715
			c-2.1,12.1-1.4,23.9,3.4,35.2c0,0-0.7,0-0.8,0c-0.1,0,0.1-0.6,0-0.8c-0.1-0.4-0.8-0.2-1.4,0.2c-0.3,0.2-0.5,0.4-0.7,0.5
			c-0.6,0.3-3.6,0.3-3.6,0.3c1-0.7,2.4-2.6,1.6-3.7c-0.2-0.2-0.3-0.1-0.5,0.2c-0.9,1.5-1.3,1.8-2.4,1.8c-1.8,0-3.1-1.1-3-2.8
			c0.1-1.7,2.6-2.5,2.2-0.9c-0.1,1.4,1.3,1.7,1.6,0.3c0.1-0.5,0-0.3,0.1-0.9c2.8-1.5,1.3-4.6-1.4-3.9c-0.6,0.2-0.7,0.2-1.1,0
			c-0.8-0.4-1.5-0.3-1.8,0.3c-0.3,0.5,0.1,0.9,0.7,0.9c0.6,0,0.7,0.3,0.7,0.7c0,0.9-1.5,1.3-2.5,0.8c-2.6-1.3-1.7-4.9,1.4-4.8
			c0.9,0,1.3,0.1,1.4-0.1c0.1-0.6-1.3-1.5-2.1-1.4c-0.7,0.1-1.1,0.3-0.7-0.6c0.2-0.9,0.2-1.4,0-2.1c-0.5-1-0.5-0.5-0.8,0.3
			c-1,1.7-2.5,2-3.8,1.1c-1.2-0.9-1.2-2.5,0-3.6c0.8-0.8,1.7-0.3,1.2,0.6c-0.2,0.4,0,0.8,0.3,0.9c0.7,0.2,1.2-0.2,1.2-1.1
			c0-0.5-0.1-0.6,0.7-1.1c2.2-1.3,0.6-4.8-2-3.7c-0.6,0.2-0.7,0.5-0.9,0.4c-1.1-1-2.6,0.3-1.7,0.9c0.4,0.2,0.9,0.3,1,0.3
			c0.2,0.1,0.1,0.4-0.2,0.8c-1,1.2-3.4,0.6-4-1.1c-0.7-2,1.4-4.2,3-3c0.5,0.4,0.9,0.4,0.9-0.1c0-0.8-1-1.7-2.3-1.6
			c-1.3,0.1-1.2,0.3-0.5-0.9c0.5-1.1,0.5-2.1,0-2.7c-0.4-0.5-0.7-0.6-0.7-0.1c0.3,1.6-1.5,3.1-3,2.4c-1.4-0.7-2.2-2.3-1.5-3.7
			c0.7-1.3,2.2-1.4,2,0c-0.1,0.9,0.5,1.4,1.2,0.8c0.2-0.2,0.3-0.4,0.3-0.9c0-0.6-0.2-0.8,0.2-1.2c1.1-0.1,1.1-2.4,1-2.5L3506.3-715
			L3506.3-715z M3487.1-714.9c0.7,0,1.2,0.2,1.2,0.9c0,0.7-0.5,1.2-1.2,1.2s-1.2-0.6-1.2-1.2
			C3485.9-714.6,3486.4-714.9,3487.1-714.9z M3475.1-714.8h2.7l21.6,36.3l-2.6,1.3L3475.1-714.8z M3479.6-713.5
			c1.3,0.8,2.5,1.4,4.2,1.5c-0.5,1-0.9,2.1-1,3.9L3479.6-713.5z M3484-706.2c1.3,0.5,2.5,1.2,4.7,0.5c-1.2,1-1.8,2.3-2.3,3.6
			L3484-706.2z M3495.2-701.8c0.6,0,1.1,0.5,1.1,1.1s-0.5,1.1-1.1,1.1c-0.6,0-1.1-0.5-1.1-1.1S3494.6-701.8,3495.2-701.8z
			 M3488.2-699c1,0.4,2,0.6,3.1,0.5c-0.6,0.8-0.7,1.9-0.8,3.3L3488.2-699z M3491.5-693.2c0.9,0.4,2,1.1,3.8,0.9
			c-1.2,2.1-1,2.7-1.1,3.6L3491.5-693.2z M3502.4-689c0.7,0,1.2,0.5,1.2,1.2c0,0.7-0.5,1.2-1.2,1.2s-1.2-0.5-1.2-1.2
			C3501.2-688.5,3501.7-689,3502.4-689z M3495.6-686.3c0.8,0.5,2.4,0.7,2.5,0.6c-0.1-0.1-0.5,1.6-0.5,2.6L3495.6-686.3z
			 M3499.4-680.1c1.2,0.7,2.4,0.6,3.2,0.7c-0.8,0.2-1.6,0.4-2.4,0.7L3499.4-680.1z M3513.1-673.4c-2.8,0.2-3.4,2.3-3.1,4.5
			c-2.1-0.3-4.5,1.7-3.9,4.2c0.6,2.4,2.8,2.4,4.3,2.3c-0.1,0.6-0.4,2.5,1.9,4.1l0.3,12.3c0,0-1-0.9-1.7-1.6c-2.9-2.9-7.3-5-7-3.4
			c0,0.2,0.1,0.9,0.2,1.4c0.5,2.8,4.2,5.8,6.7,7.3c0.9,0.5,1.5,1,1.5,1c-4.7,5.1-7.3,10.5-7.9,15.9c-0.6,5-1.1,9.5-1.5,14.1
			c-1.9,23-11.8,28.8-12.2,30l-0.2,3.1l-2.7-0.2l-3.2,2.8c10.4,5.4,16.4,11.9,16.3,12c8.3-5.4,15.4-11.5,22.1-17.8l-0.1-51.3
			c0,0-0.6,0.2-0.7,0.2c-0.5,0-0.6,0.2-0.8,1.2c-0.1,0.5-0.4,1-0.7,1.4c-0.5,0.7-0.3,0.3,0.3,0.6c1.3,0.5-0.4,3-2.3,3.3
			c-1.4,0.2-2.1,0.5-2.3,0.8c-2.9,2.5-5.7,2.9-7.9,2c-1.1-0.5-2.2-1.1-2.6-2.2c-0.9-2.5,1-6.1,2-8.2c2-3.8,5.3-6.7,5.3-6.7l-0.5-0.6
			c0,0,0.6,0,0.8,0c2.8-1,3-1.1,3.5-1.8c0.5-0.8,1.8-2.9,2.1-3.6c1.5-3.8,1.7-4.1,1.7-6.6c0-2-0.1-3.4-0.5-3.5
			c-2.2,1.7-4.5,5.8-5.8,8.1c-0.5-3.5-0.6-9.7-0.6-9.7c0.5-0.5,3.2-0.2,2.6-4.6c2.4,1.1,4.9-0.6,4.8-2.9c-0.2-3.6-2.9-3.5-5.1-3
			C3517.1-670.9,3515.1-673.5,3513.1-673.4L3513.1-673.4z M3513.1-673.1c2.9,0.1,3.5,3.3,1.7,5.2c0,0-1.2-0.9-1.8-1.4
			c-0.6,0.5-0.8,0.9-1.4,1.3c-0.8-0.6-1.2-1.6-1.2-2.5C3510.4-672,3511.9-673.1,3513.1-673.1L3513.1-673.1z M3446.3-673
			c11.8,6.7,26.6,7.1,40.2,0.3l-0.2,1.1l-1.5,0.8l0.8,1.6l0.5-0.2l0,1c-11.2,6.1-29.9,7.3-44.6-2.8l1.3-0.6c0,0,0.3,0.2,0.6,0.4
			c0.5,0.3,1.4,0.9,2,1.1l0.9-1.3c0,0-1.4-0.8-1.2-0.9L3446.3-673L3446.3-673z M3447.4-670.9l-0.7,1.5l1.7,0.9l0.6-1.6L3447.4-670.9
			z M3440.9-670.7c18.2,11.5,35.2,8.1,45.3,3.4l0.1,1.2c-13.1,5.6-30.4,7.1-46.8-4L3440.9-670.7z M3483.8-670l-1.6,0.7l0.6,1.5
			l1.7-0.7L3483.8-670z M3438.7-669.7c14.8,9.6,30.7,11.5,47.8,4.4l0.7,1.8c-16.7,6.7-34.2,6-50.3-5.5L3438.7-669.7z M3450.1-669.7
			l-0.7,1.6l1.8,0.7l0.5-1.6L3450.1-669.7z M3481.2-669l-1.6,0.5l0.5,1.5l1.7-0.6L3481.2-669z M3452.9-668.6l-0.4,1.6l1.9,0.5
			l0.3-1.6L3452.9-668.6z M3520.7-665.9c0.3,2.8-3.8,4.1-5.3,1.5l1.3-1.6l-1.2-1.1C3517.1-669.7,3520.4-668.5,3520.7-665.9
			L3520.7-665.9z M3436.5-668.5l4.4,3.1l-3.2,5l-4.8-3.2L3436.5-668.5z M3513-668.3l2.8,2.4l-2.6,3l-2.6-2.7L3513-668.3z
			 M3511.2-667.5l-1.6,1.8l1.7,1.8c-2,2.2-5,0.8-5-1.8C3506.4-667.7,3509.4-669.6,3511.2-667.5L3511.2-667.5z M3478.5-668.2
			l-1.7,0.5l0.4,1.5l1.7-0.5L3478.5-668.2z M3455.8-667.7l-0.3,1.6l1.9,0.4l0.3-1.6L3455.8-667.7z M3475.8-667.5l-1.8,0.4l0.3,1.6
			l1.8-0.4L3475.8-667.5z M3513.1-667.1l-1.5,1.5l1.5,1.5l1.5-1.5L3513.1-667.1z M3458.9-667l-0.2,1.6l2,0.3l0.2-1.6L3458.9-667z
			 M3472.6-666.8l-1.8,0.2l0.2,1.6l1.9-0.2L3472.6-666.8z M3461.8-666.6l0,1.7l1.8,0.1v-1.6L3461.8-666.6z M3469.7-666.5l-1.8,0.1
			l0,1.6l1.8-0.1L3469.7-666.5L3469.7-666.5z M3437.1-666.5c-1,0-1.9,0.9-1.9,1.9s0.8,1.9,1.9,1.9s1.9-0.9,1.9-1.9
			S3438.2-666.5,3437.1-666.5z M3466.7-666.4l-1.8,0l0,1.6l1.8,0L3466.7-666.4L3466.7-666.4z M3513.1-666.4l0.8,0.8l-0.8,0.8
			l-0.8-0.8L3513.1-666.4z M3437.1-665.8c0.7,0,1.2,0.6,1.2,1.3s-0.6,1.3-1.2,1.3s-1.2-0.6-1.2-1.3S3436.4-665.8,3437.1-665.8z
			 M3430.3-665.7l2.5,2.1c-0.8,1.5-3.3,4.8-3.3,4.8l-4.7-3.8l2.4-1.4c-0.1,0.3-0.2,0.5-0.2,0.9c0,1,0.8,1.9,1.9,1.9s1.9-0.8,1.9-1.9
			c0-1-0.8-1.8-1.7-1.9L3430.3-665.7z M3428.9-664.4c0.7,0,1.3,0.6,1.3,1.3s-0.6,1.3-1.3,1.3c-0.7,0-1.3-0.6-1.3-1.3
			S3428.2-664.4,3428.9-664.4z M3514.8-663.8c0,0,0.7,0.3,0.9,0.5c1.4,2.1-0.1,4.6-2.3,4.5c-2.7-0.1-3.4-3.4-1.5-4.8l1.5,1.4
			L3514.8-663.8z M3445.8-662.9l5.2,2l-2,5.7l-5.7-2.4L3445.8-662.9z M3424.3-662.3c21.3,19.4,51.6,20.7,73.7,7.9l1.3,0l0.7,0.7
			c-25.1,14.9-56.3,11.7-77.3-7.5L3424.3-662.3z M3483.1-661.2l1.7,5.7l-5.8,1.5l-1.3-5.7L3483.1-661.2z M3422.1-661
			c6.5,6.3,15.6,11.8,26.4,14.9l0.3,2.3c-11.4-3.5-20-8.1-28.4-16.1L3422.1-661z M3447.2-660.9c-1,0-1.9,0.8-1.9,1.9
			c0,1,0.8,1.9,1.9,1.9s1.9-0.8,1.9-1.9C3449.1-660,3448.2-660.9,3447.2-660.9z M3437.9-660.5l5.4,2.9l-2.7,5.4l-5.7-3.1
			L3437.9-660.5z M3447.2-660.3c0.7,0,1.3,0.6,1.3,1.3s-0.6,1.3-1.3,1.3c-0.7,0-1.3-0.6-1.3-1.3S3446.5-660.3,3447.2-660.3z
			 M3456.1-659.5l5.2,0.8l-0.2,5.8l-6-0.7C3455.2-655.7,3456.1-659.5,3456.1-659.5z M3481.1-659.3c-1,0-1.9,0.8-1.9,1.9
			s0.8,1.9,1.9,1.9s1.9-0.8,1.9-1.9S3482.2-659.3,3481.1-659.3z M3481.1-658.7c0.7,0,1.3,0.6,1.3,1.3s-0.6,1.3-1.3,1.3
			c-0.7,0-1.3-0.6-1.3-1.3S3480.4-658.7,3481.1-658.7z M3439-658.6c-1,0-1.9,0.8-1.9,1.9c0,1,0.8,1.9,1.9,1.9s1.9-0.8,1.9-1.9
			C3440.9-657.8,3440-658.6,3439-658.6z M3472.1-658.6l0.7,5.8l-5.7,0.3l-0.3-5.8L3472.1-658.6z M3512.7-658.1h0.8
			c0.1,5,0.5,10.8,1,15.1c0.1,0.6,0.1,0.8,0.1,0.9c-0.6,1-1.2-0.3-1.5-3.1c-0.1-0.8-0.2-1.9-0.3-2.7
			C3512.6-650.2,3512.7-658.1,3512.7-658.1L3512.7-658.1z M3417-658c-8.5,5.3-22.7,18.1-22.6,18.4l0.1,49.1l1.1,0.1l0.9-1.8
			c-1.4-0.4-1-3,1.7-3.6c0.5-0.1,1.9-0.6,2.2-0.8c2.1-1.6,5.4-2.5,7.7-1.9c3.4,0.9,4.1,3.4,2.5,7.8c-1.3,3.5-3.9,7.9-6.3,9.2
			c-0.2,0.1-0.6,0.3-0.6,0.3s0.6,0.5,0.8,0.6c6.6-3.9,10-17.7,9.8-26.4c0.3-8.8,1.8-17.7,5.3-24.2c5.9-10.7,13.6-15,13.6-15
			C3433.3-646.2,3422.8-652.6,3417-658z M3439-658c0.7,0,1.3,0.6,1.3,1.3s-0.6,1.3-1.3,1.3c-0.7,0-1.3-0.6-1.3-1.3
			S3438.3-658,3439-658z M3490.7-657.8l2,5.4l-5.6,2.3l-2-5.7L3490.7-657.8z M3458.4-657.8c-1,0-1.9,0.8-1.9,1.9
			c0,1,0.8,1.9,1.9,1.9s1.9-0.8,1.9-1.9C3460.3-657,3459.4-657.8,3458.4-657.8z M3469.8-657.3c-1,0-1.9,0.8-1.9,1.9
			c0,1,0.8,1.9,1.9,1.9s1.9-0.8,1.9-1.9C3471.7-656.5,3470.8-657.3,3469.8-657.3z M3458.4-657.2c0.7,0,1.3,0.6,1.3,1.3
			s-0.6,1.3-1.3,1.3s-1.3-0.6-1.3-1.3C3457.1-656.6,3457.7-657.2,3458.4-657.2z M3469.8-656.7c0.7,0,1.3,0.6,1.3,1.3
			s-0.6,1.3-1.3,1.3c-0.7,0-1.3-0.6-1.3-1.3S3469.1-656.7,3469.8-656.7z M3488.9-656.1c-1,0-1.9,0.8-1.9,1.9s0.8,1.9,1.9,1.9
			c1,0,1.9-0.8,1.9-1.9S3489.9-656.1,3488.9-656.1z M3488.8-655.5c0.7,0,1.3,0.6,1.3,1.3c0,0.7-0.6,1.3-1.3,1.3s-1.3-0.6-1.3-1.3
			S3488.1-655.5,3488.8-655.5z M3449.2-655.4l5.6,1.4l-1.3,5.9l-6.3-1.7L3449.2-655.4z M3520.1-655.5c0.9,2.9-0.8,6.6-0.9,6.8
			c-1,2.9-2.2,5.3-2.7,5.4c-0.4,0.1-0.5,0.1-0.5-0.3c0-0.5,1.3-4.3,2.2-6.7c0.2-0.6,0.8-2.4,0.8-2.7c0-0.4-0.4,0.3-0.9,1.4
			c-0.9,2.2-2.2,4.6-2.5,6.8c-0.2,1.8-0.5,1.5-0.8-0.6c-0.3-2.9,0.3-4.4,3.6-8.5C3519.2-654.8,3520-655.8,3520.1-655.5z M3478.9-654
			l1.6,5.8l-6.6,1.1l-1-5.9L3478.9-654z M3451.2-653.4c-1,0-1.9,0.8-1.9,1.9c0,1,0.8,1.9,1.9,1.9s1.9-0.8,1.9-1.9
			C3453.1-652.6,3452.3-653.4,3451.2-653.4z M3461.1-653l6,0.3l0.1,6l-6.5-0.3L3461.1-653z M3451.2-652.8c0.7,0,1.3,0.6,1.3,1.3
			c0,0.7-0.6,1.3-1.3,1.3s-1.3-0.6-1.3-1.3C3450-652.2,3450.5-652.8,3451.2-652.8z M3476.4-652.3c-1,0-1.9,0.8-1.9,1.9
			c0,1,0.8,1.9,1.9,1.9s1.9-0.8,1.9-1.9C3478.2-651.4,3477.4-652.3,3476.4-652.3z M3463.9-651.8c-1,0-1.9,0.8-1.9,1.9
			c0,1,0.8,1.9,1.9,1.9s1.9-0.8,1.9-1.9C3465.8-650.9,3465-651.8,3463.9-651.8z M3476.3-651.6c0.7,0,1.3,0.6,1.3,1.3
			s-0.6,1.3-1.3,1.3c-0.7,0-1.3-0.6-1.3-1.3S3475.7-651.6,3476.3-651.6z M3463.9-651.2c0.7,0,1.3,0.6,1.3,1.3c0,0.7-0.6,1.3-1.3,1.3
			s-1.3-0.6-1.3-1.3C3462.7-650.6,3463.2-651.2,3463.9-651.2z M3504.8-650.8c0.1,0,0.2,0,0.3,0c1.3,0,5.9,3.2,7,5.2
			c1,1.7,0.5,2.4-0.6,0.9c-1.5-1.7-4.3-4.2-4.7-4.2c-0.4,0,0.1,0.6,1.9,2.3c1.8,1.7,3.7,4,3.7,4.4c0,0.3-0.4,0.2-0.9-0.1
			c-1.1-0.7-2.1-1.4-2.6-1.9c-0.3-0.3-0.9-0.8-1.3-1.2c-1.7-1.5-3.5-4.8-3-5.5C3504.7-650.8,3504.7-650.8,3504.8-650.8L3504.8-650.8
			z M3421.2-650.3c1.2,0,2.5,0.7,2.5,2.1c0,1,0.1,1,1,1c0.8,0,3.2,0.3,3.2,0.3l0,2.7c0,0-1.1,0-2.5-0.1c-2.2-0.1-2.2-0.1-2.5,0.9
			c-0.1,0.4-0.3,0.6-0.7,0.9c-2,1.3-4-1.1-2.7-3.4c0.4-0.8,0.5-1.1,0.2-1.5C3419-648.8,3419.8-650.3,3421.2-650.3z M3421.7-649
			c-0.2,0-0.5,0.1-0.8,0.4c-0.3,0.3-0.3,1.3,0,1.8c0.3,0.5,0.3,0.7-0.1,1c-0.7,0.6-0.7,1.8,0,2.3c0.6,0.4,1.2-0.1,1.2-1
			c0-0.9,0.6-0.9,0.6-0.9l4.2,0.1l0-0.7l-3.1-0.2c-0.4,0-0.9,0-1.2-0.3c-0.3-0.2-0.7-0.7-0.4-1.2
			C3422.8-648.3,3422.3-649,3421.7-649L3421.7-649z M3412.5-647.4l2,3.4l2.3,0.1l0.2,2.1l2.8,1.8l-2.9,1.7l-0.1,2.1l-2.2,0.3l-2,2.6
			l-2-2.6l-2.2,0l0-2.1l-3-1.9l3.2-1.8l0-2.5l2.3-0.2L3412.5-647.4L3412.5-647.4z M3483.1-645.8l0.1,2.1l-3.3,0.6l0.4-2.1
			L3483.1-645.8z M3462.2-643.7l4.4,0.1l-0.3,29c0,0-0.9,0-1,0l0-1.1l-1.4,0l-1.4-0.9L3462.2-643.7z M3412.5-643l-2.6,3.3l3.1,2.8
			l2.8-3.2L3412.5-643z M3463.5-642.6v1.3h1.8v-1.3H3463.5z M3412.6-641.4l1.8,1.3l-1.4,1.8l-1.8-1.5L3412.6-641.4z M3483.2-640.7
			l-0.1,15.9c-6.1,4.8-7.9,13.2-7.9,13.2l-2.5-0.1l6.3-28L3483.2-640.7z M3450.4-640.3c-5.5,2.6-10.9,4.6-16.4,10.8
			c2.1,1.9,4.3,3.8,6.3,7.1c4.5-0.7,9.5,0.1,15,2.3L3450.4-640.3z M3463.5-639.9v1.4h1.8v-1.4H3463.5z M3402.2-637.9
			c0.1,0.4,0.2,0.9,0.2,0.9c4-0.3,3,4.3,0.4,4.5c-0.3,0,0.2,0.8,0.8,1.1c1.5,0.6,2.6,0.2,3.6-1.1c0.8-1,0.8-1.2,0.8-1.2l2.5,1.3
			c0,0,0.1,0-0.4,1.1c-0.8,2.1,0.4,4.6,1.3,2.8c0.5-1,1.9-1.6,2.8-1.1c1.1,0.5,1.5,2.5,0.7,3.8c-0.2,0.4-0.2,0.5-0.1,0.8
			c0.2,0.5,0.4,1.9,0.1,2.4c-0.3,0.6-0.6,0.7-1.3,0.2c-0.9-0.7-1.5-0.9-3.1-1.4c-2.8-0.5-3.4-1.5-4.5-3.9c-3.4,1-8.4-1.1-7.7-6.1
			c0.3-1.1,0.4-3.2-0.2-3.7c-1.1-0.9,0.1-2.1,1.8-2.3C3401.3-640,3402-638.7,3402.2-637.9L3402.2-637.9z M3449.9-639.4l4.4,18.5
			c-4.8-1.8-9.5-3.2-13.7-2.1c-1.9-3.1-3.5-4.6-5.7-6.6C3439-634.7,3444.3-637.5,3449.9-639.4L3449.9-639.4z M3400.3-638.5
			c-0.3,0-0.6,0.1-0.9,0.4c0,0,0.3,0.2,0.5,0.6c0.3,0.5,0.3,0.5,0,1.7c-1.3,4.8,1.8,8,6.3,6.6c1.1-0.3,1.1-0.3,1.4,1
			c0.5,2.2,2,3.3,5,3.7c0.2,0,0.5,0.1,0.7,0.2c1.3,0.9,0.8-0.3,0.4-0.7c-0.3-0.3-0.7-0.7-0.7-0.7s0.4-0.3,0.6-0.4
			c0.8-0.5,1.2-2.2,0.5-2.6c-0.6-0.3-1.7,0.2-1.7,0.8c0,1.2-1.5,1.3-2.8,0.3c-1.7-1.3-0.2-4.5-0.2-4.5l-1-0.4c0.1,0.1-2,3.2-4.6,2.1
			c-1.8-0.7-3.1-2.9-2.3-3.5c0.6-0.2,1.4,0.2,1.8-0.2c0.9-0.7,0.2-2-1.2-2c-0.3,0-0.9,0.1-0.9,0.1c0.1-0.6,0.2-1,0.1-1.6
			C3401.2-638,3400.8-638.5,3400.3-638.5L3400.3-638.5z M3463.5-637.1v1.1l1.8,0v-1.1L3463.5-637.1z M3463.5-634.8v1.2h1.8v-1.2
			H3463.5z M3463.5-632.2v1.2h1.8v-1.2H3463.5z M3463.5-629.9v1.3h1.8v-1.3H3463.5z M3463.5-627.5v1.2h1.8v-1.2H3463.5z
			 M3463.5-625.1v1.2h1.8v-1.2H3463.5z M3403.4-623.9l1.6,2.6l1.8,0.1l0.1,1.8l3.1,2.4l-2.7,2l-0.2,2l-2.2,0.1l-1.8,3l-2.2-2.6
			l-1.7-0.3l-0.2-2.4l-2.7-2l2.5-2l0.2-2.1l2.1,0.2L3403.4-623.9z M3505.7-622.7c0.2,0,0.4,0.1,0.5,0.2c0.7,0.3,0.9,0.4,2.6,0.5
			c2,0.1,2.7,0.3,3.6,0.9c0.6,0.4,0.6,0.4,1.3,0c2.8-1.8,5.9-0.2,6.2,3.3c0.1,0.9,0.1,1.3,0.5,2c0.2,0.5,0.5,0.9,0.3,1.3
			c-0.4,1-2.6,1.1-3.7-0.4c-0.2-0.2-0.4-0.3-0.7-0.3c-0.6,0.2-2.1-1-2-1c-0.1,0.8-0.2,1.5-0.3,2.6l-2.6,0c0,0-0.1-0.5-0.2-2.1
			c-0.1-1.9-0.6-2.5-1.2-1.4c-1,1.8-3.8,1-4-1.1c-0.1-0.7-0.1-0.8-0.5-1.1C3504.1-620.5,3504.5-622.7,3505.7-622.7L3505.7-622.7z
			 M3463.5-622.5v1.1h1.8v-1.1H3463.5z M3506-621.4c-0.5,0-0.2,1,0.6,1.4c0.5,0.3,0.5,0.3,0.4,1.1c-0.1,1.5,1.3,2.3,2,1
			c0.1-0.2,0.2-0.5,0.1-0.7c-0.3-1.1,2.1-0.8,2.7,0.3c0.1,0.3,0.3,1,0.4,1.7c0.1,0.7,0.1,1.4,0.1,1.4h0.8c0,0,0-0.5,0-0.9
			c0.2-1.9,1-3.1,2.1-3.1c0.5,0,0.5,0.1,0.2,0.7c-0.6,1.1,0,1.8,1.3,1.8c0.8,0,0.8,0,1.1,0.6c0.3,0.7,0.6,0.9,0.9,0.7
			c0.2-0.1,0.2,0-0.1-2.2c-0.4-3.4-2.4-4.3-5.1-2.4c-0.8,0.5-0.9,0.5-1.6-0.1c-1-1-1.6-1.2-3.6-1.3c-0.9,0-1.9-0.1-2.1-0.2
			C3506.2-621.4,3506.1-621.4,3506-621.4L3506-621.4z M3442.5-620.5c-0.4,0-0.9,0.1-1.4,0.1c0.5,2.6,0.7,5.2,0.9,7.8
			c2.3-0.4,5.2,0,9,1.8c2.4,1.1,5.3,3,8.3,5.1c3.3,2.3,7.1,3.7,10.4,4.4c4,0.9,7.2,0.8,7.1,0.6c-0.2,0-1.4-6.4-1.3-7.7
			c-5.5-0.5-10.8-2.6-14.9-5.3C3455.3-617.4,3449-620.6,3442.5-620.5z M3463.5-620.2v1.1h1.8v-1.1H3463.5z M3402.8-620l-2.9,3.1
			l3.2,3l2.7-3.1L3402.8-620z M3402.7-618.6l1.7,1.6l-1.3,1.7l-1.9-1.6L3402.7-618.6z M3444-618.4c0.4,0,0.8,0.3,2.1,1
			c1.1,0.8,1.9,1.2,1.6,0c0.2-0.3,1.4,0.8,2.9,1.5c1.7,1.4,1.7,1,1.9,0.4c0.2-0.5,0.5-0.2,1.9,1.1c1.8,1.7,1.6,1.7,2,1.3
			c0.4-0.8,0.5-0.8,2,0.9c1.5,1.7,1.8,2.1,2.2,1.3c0.5-0.4,0.8,0,2.8,1.9c1,1,1.2,0.9,1.4,0.2c0.2-0.7,0.3-0.5,2,0.8
			c2,1.6,2.2,1.7,2.3,1.2c0.1-0.9,0.7-0.6,2.8,0.9c1.2,0.9,1.7,1.1,2,0.9c0.3-0.5-0.7-1.4,1.3-0.5l0.5,2.9l-0.7-0.2
			c-0.4-0.1-1.3-0.4-1,0.5c0.2,0.5-0.3,0.5-1.8-0.5c-2.2-1.3-2.6-1.6-2.8-1.4c-0.3,1-0.3,1.1-1.7-0.1c-1.7-1.3-2.1-1.7-2.3-1.2
			c0,1-0.5,0.8-2.1-0.6c-1.4-1.2-1.7-1.8-2.3-0.9c-0.2,0.3-0.3,0.2-0.6,0.1c-0.8-0.6-2.4-2.3-2.8-2.8c-0.4-0.4-0.6-0.3-0.8,0.1
			c-0.3,0.3-0.3,0.2-1.2-0.6c-2.1-1.9-2.5-2.4-2.8-2.2c-0.2,0.5,0,1.1-1.6-0.2c-2-1.5-2.9-2.1-2.8-1.2c-0.3,0.4-0.1,0.5-2.1-0.6
			c-1.9-1.1-2.2-1.4-2.5-1c-0.2,0.6-0.8,0.4-0.8,0.3l-0.4-3l0.7,0C3443-618.1,3443.7-618.4,3444-618.4L3444-618.4z M3428.5-618.1
			c-0.2,0.5-1.2,3.1-1.2,9.8c0.1,0.2,2.6-2.4,2.8-4.8C3430.1-615.4,3428.5-618.1,3428.5-618.1z M3463.5-617.9v1.2h1.8v-1.2H3463.5z
			 M3428.6-617c2.4,3.8-0.2,7.3-0.9,7.5C3427.7-612.3,3428.1-614.9,3428.6-617z M3490.3-613.8c-3.9,2.5-3.2,9.1-1.3,10.8
			C3489.1-603,3490.3-610.2,3490.3-613.8z M3489.8-613l-1,8.5C3487.4-606,3487.1-610.5,3489.8-613z M3514.1-611.6l2,2.6l1.8,0.1
			l0.4,1.9l2.6,2.2l-2.7,1.8l-0.2,2.1l-2,0.2l-2,3.1l-1.9-3l-1.8-0.2l-0.1-2l-2.9-2.1l2.7-1.7l0.1-2.2l2.1,0L3514.1-611.6z
			 M3441.8-610.8c-1.3,6.2-4.4,10.5-8.8,13.3l0,0.6l-7.4,3c-1.6,7.6-4.5,15-10.6,21.9l1.7,3.5l-8.2,2.8l11.8,20.3
			c0.8,0-5.7,3.1-13.6,2.3c5,12.3,6,25,3.2,36.1l38.5-0.2l-29.4-58.2l-0.5-0.9c-0.4-0.8,15.7,2.3,12.2,17.3c0,0.3,0.1,0.4,0.3,0.2
			c3.1-2.7,23.9-10.2,40.4-0.3l4.9-2.1c-2.3,8.3-5,13.9-9.5,18.9l0.8,11.8c7.9-6.5,16.6-18.6,17.7-34.5c3.6-1.8,6.7-3.7,10-5.6
			l0.4,0.1l2.2-1.3c-6.9-7.6-21-14.9-30.1-16.8l0.5,2.6c-5-1.3-8.7-1.6-12.6-2.1l-0.6-27.3l-5-3l-0.2,30.2c-3.8,0-12.4,1.5-12.4,1.5
			l0.4-2.6l-4,0.8l-0.1-2.5l4.5-1.3l6.5-27.7L3441.8-610.8z M3442.4-610.1l2.1,0.4l-6.4,27.2c0,0-3.6,1-3.8,0.9
			c-0.3-5.1-0.4-15.5-0.4-15.5C3440.1-602.5,3441.1-606.3,3442.4-610.1z M3398.3-608.1c1,0,2,0.7,2.1,1.3c0.2,0.4,0.3,0.6,0.6,0.6
			c1.6,0.2,1.7,0.7,1.7,1.6c-0.2,1.8,1,0.3,1.3-1.5c0-0.2,0-1.6,0-1.6l2,0c0,0,0.1,1.4,0.1,1.7c0.2,1.4,0.8,2.5,1.2,1.8
			c1.4-2.5,4.6-1.2,4.1,1.2c-0.1,0.6-0.1,0.6,0.3,1c0.6,0.7,0.9,1.5,0.7,2.1c-0.2,0.6-0.7,0.7-1.6,0.4c-0.5-0.2-1-0.2-2.5-0.3
			c-2.1-0.1-2.2-0.1-3-0.9l-0.5-0.5l-0.9,0.5c-1.5,0.9-2.8,0.9-4.3,0.1c-1-0.5-1.6-1.8-1.7-3.7c0-1-0.3-1.8-1-2
			c-0.3-0.3,0-1,0.6-1.6C3397.7-608.1,3398-608.1,3398.3-608.1L3398.3-608.1z M3514-607.9l-2.7,3.4l3.2,2.9l3-3.6L3514-607.9z
			 M3450.8-607.4l3.8,2.2l0.5,27l-4.3-0.1L3450.8-607.4L3450.8-607.4z M3398.4-607c-0.3,0-0.1,0.5,0.1,1.2c0.2,0.6,0.2,1,0.2,1.5
			c-0.4,3,3,4.5,5.4,2.4c0.6-0.7,0.8-0.7,1.3,0.1c0.7,0.8,1.6,1.1,3.7,1c0.9-0.1,1.5,0.4,1.9,0.1c0.3-0.2,0-0.8-0.6-1.1
			c-0.3-0.2-0.4-0.2-0.3-0.9c0.2-1.7-1.3-2.2-2.3-0.7c-0.8,1.2-2.1,0.4-2.5-1.6c-0.2-1.5-0.4-1.5-0.6-0.2c-0.2,1.6-2.3,3.4-3.2,2.6
			c-0.2-0.2-0.2-0.2,0-1c0.3-1.1,0.1-1.5-1.1-1.7c-0.2,0-0.4-0.2-0.5-0.3C3399.4-606.7,3399.4-607,3398.4-607L3398.4-607z
			 M3514.2-606.4l1.7,1.5l-1.5,1.8l-1.8-1.4L3514.2-606.4z M3452-605.4v1.2v0h1.6v-1.3H3452z M3452-602.8v1.2v0.1h1.6v-1.3H3452z
			 M3461.7-601.3c1.8,6.8,3.6,13.5,5.5,20.3c1.7-0.7,11.7-5.1,16.4-10.8c-0.2,0-4.3-4-5.7-6.6
			C3473.2-597.7,3467.8-598.7,3461.7-601.3L3461.7-601.3z M3452-600.5v1.2v0h1.6v-1.3H3452z M3462.8-600.1c4.3,1.3,9.7,3.1,14.8,2.2
			c1.3,2.4,3.2,4.3,5.3,6.1c-3.8,4.2-9.3,7.4-15,9.8L3462.8-600.1z M3503.3-599.7c0.2,0,0.4,0.1,0.6,0.3c0.7,0.6,1.2,0.8,2.6,1
			c2.2,0.4,3.9,1.8,4.4,3.6c0.2,0.8,0.3,0.8,1.4,0.5c4.2-1.1,7.4,2.4,6.4,7.1c-0.3,1.6-0.5,1.8,0,2.5c1.1,1.2,1.3,1.2,0.1,2.2
			c-1.1,1-3.2,0.5-3.6-1.1c-0.4-0.9-0.4-0.9-1.1-1c-2.7-0.4-2.6-4.3,0-4.7c0.2,0,0.4,0,0.5,0c0.7-0.3-0.8-2.1-2.1-1.8
			c-1.6,0.3-2.3,1.3-2.9,2.9l-2.4-1.4c0.6-1.3,1.1-2.9,0.5-3.9c-0.4-0.9-1-0.9-1.1-0.1c-0.4,1.9-2.8,2.5-4.3,0.9
			c-0.9-0.9-1-1.8-0.3-3.1c0.4-0.8,0.4-0.9,0.2-1.2C3501.6-598.1,3502.4-599.7,3503.3-599.7L3503.3-599.7z M3452-598.1v1.3l1.6,0
			v-1.3H3452L3452-598.1z M3503.6-598c-0.5,0-0.5,0.5,0,1.1c0.4,0.4,0.5,0.6-0.1,1c-0.7,0.7-0.9,1.7-0.4,2.4
			c0.7,1.1,2.4,0.5,2.2-0.8c-0.1-0.9,0.6-1.4,1.8-1c1.7,0.5,2.5,2.4,1.8,4.3c-0.1,0.4-0.4,1.2-0.4,1.2l0.5,0.3c0,0,0.6-1,0.8-1.2
			c1.9-2.4,6.5-1.2,6,1.8c-0.1,0.9-0.1,1.1-1.1,0.8c-0.7-0.3-1.3,0.4-1.3,1.3c0,0.8,0.7,1.5,1.7,1.3c0.8-0.1,1-0.1,0.9,0.9
			c0.1,0.7,0.3,1.2,0.8,1.5c1.2,0.5,1.7-0.2,0.8-1.1c-0.6-0.6-0.5-1.5-0.2-2.3c0.4-1,0.2-3.3-0.4-4.5c-0.9-1.8-3.5-2.6-5.7-1.7
			c-1,0.5-1.1,0.7-1.2-0.3c-0.5-2.3-2.3-4.1-4.4-4.2C3505-597.4,3504.2-597.9,3503.6-598L3503.6-598z M3452-595.6v1.2h1.6v-1.2H3452
			z M3452-593.3v1.3h1.6v-1.3H3452z M3452-590.7v1.3c0,0,0.9,0,1.6,0v-1.3H3452z M3504.7-588.5l1.8,2.6l2,0.1l0.2,2.1l3,1.9
			l-2.6,1.6l0,2.1l-2.5,0.2l-2.2,2.9l-1.8-2.6l-1.8,0l-0.4-2.3l-3.3-1.7l3.4-1.9l-0.1-2.4l2.3,0L3504.7-588.5L3504.7-588.5z
			 M3452-588.2v1.4h1.6v-1.4H3452z M3452-585.7v1.3h1.6v-1.3H3452z M3503.8-584.7l-2.5,3.4l3.4,2.8l2.7-3.4L3503.8-584.7z
			 M3452-583.4v1.5h1.6v-1.5H3452z M3504-583.2l1.8,1.4l-1.3,1.6l-1.8-1.3L3504-583.2z M3452-580.6v1.2h1.6v-1.2H3452z M3404-580.5
			c-3.1,0-6.1,5.1-6.8,7.5c-0.8,3.1-1,8.7-0.2,8.8c2.8-2,4.1-5.4,6.2-8c0.3,3,0.3,8.7,0.3,8.7s-1.2,0.7-1.9,1.7
			c-0.5,0.9-0.6,1.9-0.2,2.9c-1.6-0.5-4.4,0.1-4.5,3c0.1,4.1,4.5,3.5,4.5,3.4c-0.1,0-0.9,4.3,3,4.8c1.4,0.2,3.9-0.9,3.1-4.8
			c2.5,0.4,4.6-1,4.6-3.3c0-1.6-1.2-3-3.3-3.1c-0.4,0-1.4,0.2-1.4,0.2c0-0.2,0.9-2.8-2-4.6l-0.4-11.8c0,0,1,1.1,1.4,1.5
			c1.9,1.8,3.1,2.7,5.3,3.8c2.1,1.1,1.9,0.9,1.5-1.3c-1-3.2-3.1-5.7-7.6-8.7C3405.1-580.3,3404.5-580.5,3404-580.5L3404-580.5z
			 M3404.3-580.2l0.6,16.6l-0.9,0l-0.8-16.6L3404.3-580.2z M3495.9-579.7c0.1,0,0.2,0,0.3,0c2,0.2,2.5,2.4,1.6,3.4
			c-0.4,0.4-0.5,0.5-0.3,0.7c0.9,1.1,0.4,2.8-0.5,3.1c-2.7,0.9-3.1-0.6-3.1-2.4l-4.2-0.2l0-2.5l4.6,0.1
			C3494-578.4,3494.6-579.6,3495.9-579.7L3495.9-579.7z M3402.3-579.7C3402.3-579.7,3402.4-579.7,3402.3-579.7c0.5,0,0,1.2-1.2,3
			c-0.8,1.2-2,3.3-2.3,4.2c-0.7,1.9-1.2,5.2-0.7,4.6c0.5-1.4,0.5-2,0.9-3c0.5-1.3,2.9-5.7,3.4-6.1c0.4-0.4,0.5-0.1,0.5,1.1
			c0,2.8-1.3,5.6-4.4,9c-0.5,0.6-1.2,1.2-1.2,1.2c-0.3,0-0.3-0.6-0.3-1.9c0-5.2,1.9-9.8,4.9-11.8
			C3402-579.6,3402.2-579.6,3402.3-579.7L3402.3-579.7z M3405.4-579.4c1.4,0.4,3.8,2.6,4.8,3.7c1.2,1.3,2.7,4.8,2.4,5.3
			c-0.1,0.2-0.3,0.2-1-0.2c-4.3-2.4-7.4-5.5-6.6-6.4c0.2-0.3,1.2,0.3,2.4,1.4c0.8,0.8,1.7,1.5,2.5,2.3c1.2,1.2,1.5,1.4,0.8,0
			c-0.7-1.2-2.5-3.2-4.8-4.9C3405.1-578.9,3404.9-579.4,3405.4-579.4L3405.4-579.4z M3496.1-578.7c-0.1,0-0.1,0-0.2,0
			c-0.8,0.4-0.5,1.5-0.6,2.3l-4.7-0.2l0,0.7l4.4,0.2c0.1,0.7-0.3,2.1,0.3,2.3c1.2,0.5,1.9-1.1,0.9-2c-0.4-0.3-0.8-0.5,0.3-0.9
			c0.7-0.6,0.8-1.7,0.2-2.2C3496.5-578.6,3496.3-578.7,3496.1-578.7L3496.1-578.7z M3437.2-578.5l-0.2,1.7l-2.7,0.7l-0.1-1.9
			L3437.2-578.5z M3469.1-577.9c10,2.7,21.1,8.9,28.3,15.8l-1.4,1c-7.5-7-17.4-12.2-26.4-14.9L3469.1-577.9z M3451.9-577.6
			c16.4,0,31.4,6.4,43.5,16.8l-2,1.3c-11-9.2-23.2-15.3-39.7-16c-10.7-0.5-23,2.3-35.1,9l-0.9-1.6
			C3429.5-574.7,3441-577.6,3451.9-577.6L3451.9-577.6z M3450.6-575.1l6.5,0.2l-0.4,6l-5.9-0.2L3450.6-575.1z M3443.6-574.7l0.9,5.8
			l-5.6,1.1l-1.6-5.8L3443.6-574.7z M3464.1-573.9l6.4,1.7l-2.1,5.9l-5.6-1.6L3464.1-573.9z M3453.8-573.9c-1,0-1.8,0.8-1.8,1.9
			s0.8,1.9,1.8,1.9c1,0,1.8-0.8,1.8-1.9S3454.8-573.9,3453.8-573.9z M3453.8-573.2c0.7,0,1.2,0.5,1.2,1.2s-0.6,1.2-1.2,1.2
			s-1.2-0.5-1.2-1.2S3453.1-573.2,3453.8-573.2z M3441-573.2c-1,0-1.8,0.8-1.8,1.9s0.8,1.9,1.8,1.9c1,0,1.8-0.8,1.8-1.9
			S3442.1-573.2,3441-573.2z M3441-572.6c0.7,0,1.2,0.5,1.2,1.2s-0.6,1.2-1.2,1.2c-0.7,0-1.2-0.5-1.2-1.2S3440.4-572.6,3441-572.6z
			 M3466.5-571.8c-1,0-1.8,0.8-1.8,1.9s0.8,1.9,1.8,1.9c1,0,1.8-0.8,1.8-1.9S3467.5-571.8,3466.5-571.8z M3430.7-571.6l1.9,5.7
			l-5.4,2.2l-2-5.6L3430.7-571.6z M3466.5-571.2c0.7,0,1.2,0.5,1.2,1.2c0,0.7-0.5,1.2-1.2,1.2s-1.2-0.5-1.2-1.2
			S3465.8-571.2,3466.5-571.2z M3477.1-569.8l5.8,3.1l-3,5.4l-5.4-2.8L3477.1-569.8z M3428.8-569.3c-1,0-1.8,0.8-1.8,1.9
			s0.8,1.9,1.8,1.9c1,0,1.8-0.8,1.8-1.9S3429.8-569.3,3428.8-569.3z M3450.6-569.1l0.3,5.7l-5.1,0.4l-0.9-5.7L3450.6-569.1z
			 M3456.7-568.8l5.8,0.8l-1.4,5.5l-5.3-0.9L3456.7-568.8z M3428.8-568.7c0.7,0,1.2,0.5,1.2,1.2s-0.6,1.2-1.2,1.2s-1.2-0.5-1.2-1.2
			S3428.1-568.7,3428.8-568.7z M3447.9-567.9c-1,0-1.8,0.8-1.8,1.9s0.8,1.9,1.8,1.9c1,0,1.8-0.8,1.8-1.9S3448.9-567.9,3447.9-567.9z
			 M3438.5-567.7l1.5,5.6l-5.6,1.6l-1.7-5.4L3438.5-567.7z M3459-567.6c-1,0-1.8,0.8-1.8,1.9s0.8,1.9,1.8,1.9c1,0,1.8-0.8,1.8-1.9
			S3460-567.6,3459-567.6z M3447.9-567.3c0.7,0,1.2,0.5,1.2,1.2s-0.6,1.2-1.2,1.2s-1.2-0.5-1.2-1.2S3447.2-567.3,3447.9-567.3z
			 M3459-567c0.7,0,1.2,0.5,1.2,1.2s-0.6,1.2-1.2,1.2s-1.2-0.5-1.2-1.2S3458.3-567,3459-567z M3478.7-567c-1,0-1.8,0.8-1.8,1.9
			s0.8,1.9,1.8,1.9c1,0,1.8-0.8,1.8-1.9S3479.7-567,3478.7-567z M3468.7-566.4l5.6,1.9l-2.2,5.3l-5.4-2.1L3468.7-566.4z
			 M3478.7-566.3c0.7,0,1.2,0.5,1.2,1.2s-0.6,1.2-1.2,1.2c-0.7,0-1.2-0.5-1.2-1.2S3478-566.3,3478.7-566.3z M3436.3-566.1
			c-1,0-1.8,0.8-1.8,1.9c0,1,0.8,1.9,1.8,1.9s1.8-0.8,1.8-1.9S3437.3-566.1,3436.3-566.1z M3436.3-565.5c0.7,0,1.2,0.5,1.2,1.2
			s-0.6,1.2-1.2,1.2s-1.2-0.5-1.2-1.2S3435.6-565.5,3436.3-565.5z M3470.5-564.4c-1,0-1.8,0.8-1.8,1.9s0.8,1.9,1.8,1.9
			c1,0,1.8-0.8,1.8-1.9S3471.5-564.4,3470.5-564.4z M3470.5-563.7c0.7,0,1.2,0.5,1.2,1.2s-0.6,1.2-1.2,1.2s-1.2-0.5-1.2-1.2
			S3469.8-563.7,3470.5-563.7z M3404.4-563.1c1.5,0.1,2.6,1.4,2.6,2.8c0.1,1.1-1.3,2.4-1.3,2.4l-1.6-1.5l-1.5,1.4
			c-0.3,0.1-1.4-1.9-1.1-2.9C3402.2-562.2,3403.1-563.2,3404.4-563.1z M3488.2-563.1l4.5,3.7c0,0-2,1.2-2.3,1.4
			c0-0.2,0.1-0.3,0.1-0.5c0-1-0.8-1.9-1.8-1.9c-1,0-1.8,0.8-1.8,1.9c0,0.9,0.6,1.6,1.4,1.8c-0.5,0.3-1.1,0.6-1.1,0.6l-2.4-2
			L3488.2-563.1z M3481.2-553.3l-2,0.8c-12.2-8-28.8-12.4-47.8-4.3l-0.7-1.6C3444.9-564.3,3462.7-566.1,3481.2-553.3z M3480.1-561.3
			l4.8,3l-3,4.7l-4.7-3L3480.1-561.3z M3478.6-552.2l-2,0.8c-14.8-9.6-30.6-9.1-44.8-3.3l-0.2-1.3
			C3448.3-563.4,3465-561.1,3478.6-552.2z M3488.6-559.7c0.7,0,1.2,0.5,1.2,1.2s-0.6,1.2-1.2,1.2s-1.2-0.5-1.2-1.2
			S3487.9-559.7,3488.6-559.7z M3402.3-557.5l-1.6,1.7l1.5,1.7c0,0-0.5,0.4-0.8,0.6c-2,1.1-4.1-0.6-4-2.5
			C3397.4-558.7,3400.6-560,3402.3-557.5z M3480.8-558.8c-1,0-1.8,0.8-1.8,1.9s0.8,1.9,1.8,1.9c1,0,1.8-0.8,1.8-1.9
			S3481.8-558.8,3480.8-558.8z M3408.9-558.7c1.5,0,2.6,1.1,2.8,2.5c0.1,1-0.4,2-1.6,2.7c-1.6,1-3.4-0.6-3.4-0.7l1.3-1.3l-1.6-1.6
			C3406.4-557.2,3407.5-558.7,3408.9-558.7z M3404.4-558.4l2.7,2.7l-2.9,2.7l-2.7-2.7L3404.4-558.4z M3476-551.2l-1.5,0.7l-2.1-1.3
			l-0.6,1.2l1.2,0.7l-1.2,0.5c-13.9-7.8-29.5-5.6-39.9-0.4c0,0,0.1-0.8,0.1-0.8l1.1-0.6l-0.4-1.4l-0.6,0.2l0-1.6
			C3446.8-560.7,3463.7-559.1,3476-551.2L3476-551.2z M3480.8-558.2c0.7,0,1.2,0.5,1.2,1.2s-0.6,1.2-1.2,1.2s-1.2-0.5-1.2-1.2
			S3480.1-558.2,3480.8-558.2z M3404.3-557.2l-1.4,1.5l1.4,1.5l1.4-1.5L3404.3-557.2z M3449.7-556.9l-1.9,0.1l0.1,1.6l1.9,0
			L3449.7-556.9z M3451-556.9l0,1.6l1.7,0l0-1.5L3451-556.9L3451-556.9z M3454-556.8l-0.1,1.6l1.7,0.1l0.1-1.5L3454-556.8z
			 M3446.6-556.6l-1.9,0.2l0.2,1.6l1.8-0.2L3446.6-556.6z M3457.2-556.6l-0.1,1.6l1.8,0.2l0.2-1.5L3457.2-556.6z M3404.3-556.6
			l0.8,0.9l-0.8,0.8l-0.9-0.9L3404.3-556.6z M3443.4-556.1l-1.9,0.3l0.2,1.6l1.8-0.4L3443.4-556.1z M3460.4-556.1l-0.3,1.5l1.7,0.4
			l0.3-1.5L3460.4-556.1z M3440.3-555.5l-1.6,0.4l0.3,1.6l1.7-0.4L3440.3-555.5z M3463.4-555.4l-0.3,1.5l1.8,0.5l0.4-1.5
			L3463.4-555.4z M3437.7-554.7l-1.6,0.6l0.4,1.5l1.7-0.6L3437.7-554.7z M3466.4-554.5l-0.5,1.5l1.5,0.6l0.7-1.3L3466.4-554.5z
			 M3435-553.6l-1.6,0.6l0.6,1.4l1.5-0.7L3435-553.6z M3402.7-553.6l1.6,1.6l1.9-1.7c1.6,1.5,1.6,4.9-1.3,5.5
			C3402.3-547.8,3400-551.6,3402.7-553.6L3402.7-553.6z M3469.3-553.3l-0.6,1.3l1.7,0.8l0.6-1.3L3469.3-553.3z M3420.7-544.7
			l21.5,36.8l-3.4-0.1l-20.8-35.5L3420.7-544.7z M3417.2-543.3l1.2,1.9c-2.3-1.9-5.7-0.3-5.6,2.1c0.1,1,1,1.7,1,0.7
			c-0.1-1.1,1.4-2,2.5-1.9c2,0,3.2,2.6,1.8,3.9c-0.9,0.8-2.1,0.8-1.7-0.3c0.1-0.4,0-0.5-0.2-0.7c-0.6-0.5-1.6,0.2-1.4,0.9
			c0.2,0.5,0.2,0.6-0.4,1c-2.3,1.6-0.7,4.8,2.1,3.3c0.6-0.2,0.8-0.2,1-0.1c1.1,0.4,1.9-0.6,0.8-1.1c-0.6-0.3-0.6-0.8,0-1.2
			c1.3-0.9,3.3,0.5,3.3,2.2c0,1.2-1.6,2.2-3.2,1.8c-0.9-0.2-1,0.4-0.2,1.1c1.6,1.3,4.1,0.2,4.8-2.1c0.2-0.7,0.2-0.9,0.2-0.9l2.2,3.6
			c0,0-0.7-0.3-1.1-0.5c-2.1-0.6-4.4,0.7-4.4,2.6c0,0.9,0.5,1.2,0.8,0.5c0.7-1.6,2.1-2.2,3.6-1.5c1.4,0.6,2,2,1.5,3.3
			c-0.6,1.3-2.4,1.7-2.2,0.5c0.1-0.6-0.3-0.9-0.9-0.9c-0.2,0-0.5,0.7-0.5,1.1c0.1,0.3,0,0.4-0.8,1c-1.9,1.5-0.4,4,1.9,3.2
			c0.4-0.1,0.6-0.1,0.9,0.1c0.9,0.4,1.8,0.2,1.8-0.5c0-0.5-0.2-0.6-0.7-0.6c-0.8,0-0.6-0.9,0.3-1.4c2.3-1.1,4.6,1.7,3.2,4
			c-0.6,1-1,1.1-3.1,0.8c-0.3,0-0.5,0.2-0.3,0.5c0.6,0.9,2.5,1.2,3.6,0.7c1.2-0.5,1.9-1.9,2-3.3l2.4,4.2c-1.9-2-5.1-1.2-5.6,1.6
			c0,0.7,0.6,1.1,0.9,0.5c1-2.5,4.7-1.8,4.7,1c0,0.4-0.1,0.7-0.4,1.1c-0.7,1.3-2.4,1.6-2.1,0.5c0.1-0.4-0.1-0.8-0.6-0.9
			c-0.5-0.1-0.8,0.3-0.8,1c0,0.5,0,0.7,0,0.7c-0.9,0.4-1.4,1.1-1.6,2.1l-16.8,0c2-11.7,1.5-22.4-2.3-32.4c-0.3-0.9-0.8-2.1-0.8-2.1
			l3,0.1c0.7,0.6,3.4,0.4,4.5-0.6L3417.2-543.3z M3420-538.7l1.7,3.1c-0.7-0.4-1.5-0.7-2.6-0.8C3419.8-537.2,3419.8-538,3420-538.7z
			 M3415.4-535.3c0.6,0,1.1,0.5,1.1,1.2s-0.5,1.2-1.1,1.2c-0.6,0-1.1-0.5-1.1-1.2S3414.8-535.3,3415.4-535.3z M3427.4-525.9l1.7,3
			c-0.8-0.3-1.5-0.7-2.8-0.7C3426.8-524.2,3427.2-525.1,3427.4-525.9z M3422.6-522.7c0.6,0,1.1,0.5,1.1,1.1s-0.5,1.1-1.1,1.1
			s-1.1-0.5-1.1-1.1S3422-522.7,3422.6-522.7z M3434.7-513.4l2.5,4.4c-1-0.6-2-1.3-3.3-1.1C3434.5-511.4,3434.8-512.2,3434.7-513.4z
			 M3431.4-507.9l-2.7,0C3429.3-510.2,3431.5-509.6,3431.4-507.9z M3434-509c0.9,0,1.7,0.4,2.2,1.1l-3.3,0
			C3432.8-507.8,3432.8-509,3434-509z"/>
		<path id="path163-0-2-5-8-7-5-8-8-7" fill="#D40000" d="M3417.6-671.3c0,0-3.7-6.1-8.7-13.3c-3.4-4.8-6-10-6.3-14.5
			c-0.3-5.1,2.4-10.3,7.3-10.5c4.9-0.2,6.9,3.9,7.7,7.4c0.8-3.5,2.8-7.7,7.7-7.4c4.9,0.2,7.6,5.4,7.3,10.5
			c-0.2,4.5-2.9,9.7-6.3,14.5C3421.3-677.4,3417.6-671.3,3417.6-671.3z"/>
		<path id="path163-0-2-5-8-7-7-8-4-8-6" fill="#D40000" d="M3500-551.4c0,0-3.7,6.1-8.7,13.3c-3.4,4.8-6,10-6.3,14.5
			c-0.3,5.1,2.4,10.3,7.3,10.5c4.9,0.2,6.9-3.9,7.7-7.4c0.8,3.5,2.8,7.7,7.7,7.4c4.9-0.2,7.6-5.4,7.3-10.5
			c-0.2-4.5-2.9-9.7-6.3-14.5C3503.7-545.3,3500-551.4,3500-551.4z"/>
	</g>
</g>
</svg>
