<?xml version="1.0" encoding="utf-8"?>
<!DOCTYPE svg PUBLIC "-//W3C//DTD SVG 1.1//EN" "http://www.w3.org/Graphics/SVG/1.1/DTD/svg11.dtd">
<svg version="1.1"
	 id="svg7143" xmlns:rdf="http://www.w3.org/1999/02/22-rdf-syntax-ns#" xmlns:dc="http://purl.org/dc/elements/1.1/" xmlns:cc="http://creativecommons.org/ns#" xmlns:svg="http://www.w3.org/2000/svg"
	 xmlns="http://www.w3.org/2000/svg" xmlns:xlink="http://www.w3.org/1999/xlink" x="0px" y="0px" width="178.6px" height="249.4px"
	 viewBox="0 0 178.6 249.4" enable-background="new 0 0 178.6 249.4" xml:space="preserve">
<g id="layer1" transform="translate(-8.4306448e-6,-740.55114)">
	<g id="g6503" transform="matrix(0.99999718,0,0,1.000002,-3369.5014,1123.8043)">
		<path id="rect7399-8-3" fill="#FBFBF6" stroke="#7F7F7F" stroke-width="0.4" d="M3378.4-382.9h160.8c4.7,0,8.5,3.8,8.5,8.5
			v231.6c0,4.7-3.8,8.5-8.5,8.5h-160.8c-4.7,0-8.5-3.8-8.5-8.5v-231.6C3369.9-379,3373.7-382.9,3378.4-382.9z"/>
		<path id="path7431-0-1" d="M3383.6-343c-3.4,4.4-7.1,6.9-7.2,10.3c0,1.1,0.6,3,2.7,3.3c1.4,0.2,3.2-0.8,3.3-2.7
			c0-0.4,0.5-0.4,0.5,0.2c-0.1,1.6-0.6,3.4-1.6,4.9c1.5,0,3,0,4.5,0c-0.9-1.5-1.5-3.3-1.6-4.9c0-0.5,0.5-0.6,0.5-0.2
			c0,2,1.9,3,3.3,2.7c2.1-0.4,2.8-2.2,2.7-3.3C3390.7-336.1,3387.1-338.6,3383.6-343z"/>
		<path id="path7435-3-6" d="M3534-174.1c-3.4-4.4-7.1-6.9-7.2-10.3c0-1.1,0.6-3,2.7-3.3c1.4-0.2,3.2,0.8,3.3,2.7
			c0,0.4,0.5,0.4,0.5-0.2c-0.1-1.6-0.6-3.4-1.6-4.9c1.5,0,3,0,4.5,0c-0.9,1.5-1.5,3.3-1.6,4.9c0,0.5,0.5,0.6,0.5,0.2
			c0-2,1.9-3,3.3-2.7c2.1,0.4,2.8,2.2,2.7,3.3C3541.1-180.9,3537.4-178.4,3534-174.1L3534-174.1z"/>
		<path id="path37-0-2-9" d="M3377.8-354.2h-2.2v-3h2.2c0,0,0-1.6,0.1-4.5c0.1-6.1,0.3-7,2-8.7c3.5-3.3,9.3-0.6,9.2,4.4
			c-0.1,7,0,13.7-0.2,14.6c-0.4,1.7-0.4,1.8-0.3,2.1c0.3,0.6,2.9,0.9,2.9,0.7v3c-2,0.2-2.8,0-4.4-1.2c-1,1-4,1.9-6.5,0.8
			C3378.8-346.9,3377.5-349.1,3377.8-354.2L3377.8-354.2L3377.8-354.2z M3385.3-349c-1.1-1.6-2.9-3.7-4.6-4.5
			c-0.1,1.8,0,3.3,0.7,4.1C3382.3-348,3383.9-347.7,3385.3-349L3385.3-349L3385.3-349z M3386.2-366.3c-0.8-2.3-2.9-3.1-4.4-1.6
			c-0.9,0.9-1.1,1.8-1.1,6.9c0,3.1,0,4.5,0,4.5c3,1,5.7,4.4,5.7,4.4l0.1-9.5C3386.4-363.2,3386.4-364.8,3386.2-366.3L3386.2-366.3
			L3386.2-366.3z"/>
		<path id="path37-0-5-5-3" d="M3539.8-162.8h2.2v3h-2.2c0,0,0,1.6-0.1,4.5c-0.1,6.1-0.3,7-2,8.7c-3.5,3.3-9.3,0.6-9.2-4.4
			c0.1-7,0-13.7,0.2-14.6c0.4-1.7,0.4-1.8,0.3-2.1c-0.3-0.6-2.9-0.9-2.9-0.7v-3c2-0.2,2.8,0,4.4,1.2c1-1,4-1.9,6.5-0.8
			C3538.7-170.2,3540.1-167.9,3539.8-162.8L3539.8-162.8L3539.8-162.8z M3532.3-168.1c1.1,1.6,2.9,3.7,4.6,4.5
			c0.1-1.8,0-3.3-0.7-4.1C3535.3-169,3533.7-169.3,3532.3-168.1L3532.3-168.1z M3531.4-150.8c0.8,2.3,2.9,3.1,4.4,1.6
			c0.9-0.9,1.1-1.8,1.1-6.9c0-3.1,0-4.5,0-4.5c-3-1-5.7-4.4-5.7-4.4l-0.1,9.5C3531.2-153.8,3531.2-152.3,3531.4-150.8L3531.4-150.8
			L3531.4-150.8z"/>
		<path id="path4075-4-3-9" fill="#E2CF00" d="M3451.2-154.7l18.7-34.2c0,0,4.5,1.8,9.7,3.1c-5.1,13.2,0,30.7,0,30.7
			S3451.2-154.7,3451.2-154.7z M3400-213c-1.1-14.5,0.6-26.8,1.3-40.1c0-0.2-6.1-4-6.1-4l14.4-8.1c1.4,0.7,2.3,0.6,2.6-0.8
			c-1.5-4.9-1.7-9.7,1.6-13.8c2.5-3,8.2-1.5,9.8-1.5c1.3,0,4.3-10.2-0.8-13.2c-1.1-0.6-1.6,6-2.4,8.7c-3.3-2-9.5-3.6-10.3-7
			c-0.4-1.9,5.6-5.6,4.4-7.7c-1.7-3.1-6.2-7.8-8.1-6.5c-1.8,1.6-6.1,5-6.1,7.3c1.3,4.1,4.8,4.4,6.6,8.3c0.4,0.8,3.8,4.4,3.8,4.4
			c-1.2,1.9,0.8,5.2,0.9,4.7l-15.7-6.9c0,0,3.6,27.1-0.2,31.1c-0.4,0.4,3.4-1.1,3.4-0.8c1.1,1.5,13.8,9.5,17.4,12.4
			c6.4-9,8.8-13,17.1-21c1.8-1.5,5.9-4.3,8.2-7.6c1.9-2.7,2.6-5.7,2.3-8c-0.4-3-0.7-5.1-2.6-7.5c-4.3-5.5-11.1-10.8-11-10.9l2.3-1.9
			c0,0,8.4,7,11.9,12.1c2.4,3.4,1.3,7.4,3.4,8.1c0.5,0.2,3.9-0.1,5,0.1c0.1,0,24.7,17.4,20.2,18.4c-6.2,1.4-16,0.5-16,0.5
			c-7-6.9-10.4-9.1-14.6-7c0,0-10.6,9.3-16.7,16.6c-3.5,4.1-9,12.8-9,12.8c-0.4-0.2-12.5-9.8-12-8.7c0,0,2.9,26.3,1.6,36
			c-0.9,8.2-2.1,17-2.6,24.5c1.7-0.4,4.3-0.9,4.7,1.8c0.4,3.6-4.2,2.8-4.3,2.4c0,0,2.6,5.5,2.6,5.5s-4,6.9-3.9,6.6
			c0.1-0.2-3.6-6.1-3.6-6.1s2.7-5,3.2-6c0.3-0.7-4.2,1.8-4.4-1.8c-0.2-3.8,4.7-2.9,4.4-2.4C3402.2-197.9,3400.8-206.2,3400-213
			L3400-213z M3460.1-194.9c0.1-0.1-10.6-4.3-20.5-3.9c-3.5-1.4-9.1-2.8-12.9-0.2c-4.2-2.9-7.9-6.1-11.6-9.2c1,0,5.5-25.9,7.5-34
			c-1.1-10.9,9.3-10.9,10.3-2.2c11.3,11.7,25.1,23.8,39.4,35.7C3469.9-204,3461.8-200.4,3460.1-194.9L3460.1-194.9z M3484.8-272.1
			c-12.9-13.2-39.8-36.7-39.8-36.7l12.6-12.3c6.6,2,13.4,3.6,21.1,3.7c0,0,8.4,3.8,12.9,0l11.6,9.2c0,0-4.8,25.5-7.7,34.4
			c0.1,3.5-1.3,7.8-4.7,8.4C3487.9-264.8,3485.6-269.1,3484.8-272.1L3484.8-272.1z M3510.8-302.6c1.3-8.3,1.6-14.3,2.6-24
			c-5.8,1.7-5.7-6.1,0-4.1l-2.6-5.8l3.9-6.6l3.6,6.2l-3.1,5.5c6.4,0.3,4.9,6.3-0.7,4.9c1,9.3,3.3,18.6,3.2,27.7
			c2,14.7-2.4,35.1-1.7,35.6l6.3,4.3l-1.1,31.9l-9.9-4.4l-2.9,2c0.9,1.9,2.2,3.7,2.6,5.7c0,0,6.8,5.6,5.9,7.4
			c0.4,0.3-4.9,7.3-6.4,7.1c-3-0.3-6.4-4.2-7.4-6.9c-0.8-2.7,6.1-5.4,5.2-7.5c-1.1-2.4-3.7-3.6-6.1-4.3c-3.2-1-4.7-3.5-4.9-3.5
			c0,0-1.3,10.2-2.5,9.4c-4.9-3.3-1.5-13.7-0.6-13.4c0,0,2.1,0.5,4.6,0.7c8.9,0.9,8.3-10,6.5-15.3c-0.6-2.1,2-1.4,3.1-1.7
			c4.3-1.3,11-5.7,11-5.7c-6.9-3.9-13-8.3-18.5-12.4c0,0-5.1,8.7-11.1,14.8c-4.4,4.4-5.1,5.9-12.5,11.6c-0.1,0.1-5.6,6.6-3,14.2
			c2.2,6.5,12.9,13.6,12.8,14l-2.1,2c0.1,0.1-15.1-9.4-14.7-19.7c0-0.4-6.9-0.5-6.9-0.5l-20-18.5l16.9-0.1l8.7,7.1l5.4,0.3
			c0.4,0.3,0.6-1.4,5.3-5c9.1-6.8,20.4-24.4,20.4-24.4s12,8.4,12,8.4C3511.6-278.1,3509.6-291.7,3510.8-302.6L3510.8-302.6z
			 M3467.3-362.4c0,0-12.4,23.4-19.2,34.4l-9.7-2.8c4-10.8,0.2-31.3-0.8-31.8L3467.3-362.4z"/>
		<path id="path4073-4-2-4" fill="#131F67" d="M3393.5-363.8v210.5h130.6v-210.5H3393.5z M3483.8-211.1c6.2-5.8,12.3-10.5,18-14
			c2.2-1.3,2.9-1.5,3.8-0.7c1.4,1.3,2.3,2.4,1.8,3.3c-0.1,0.2-0.4,0.5-0.4,0.5l-3.4-1.3l1.1,3.9c-3.1,1.3-3,4.6-0.1,6.4l-2,4.7
			l4.7-2.1c0.2,1,3.6,3.5,5.7,0l4.3,2.1l-1.5-5.3c1.4-1.3,2.2-3.5,0-5.5l1-4.1l-3.9,1.3c-1-1.3-1.5-1.2-1.8-1.6
			c-0.1-0.5-0.1-1.7-0.7-2.7c-0.5-0.9-1.1-1.8-1.7-2.5c-0.3-0.5-0.1-0.6,1.5-1.4c0.7-0.4,1.3-0.8,1.3-0.8s7.6,3.8,10.7,5.3v70.5
			h-41.6c-4.7-14.1-1.3-26.3-0.1-31.4c-2.2-0.2-13.5-3.9-13.8-5.1C3471.3-198.7,3477.3-205.2,3483.8-211.1L3483.8-211.1z
			 M3402.4-190.6c-5.5-1.8-5.5,4.8-2.7,5.3c0.7,0.1,1.5,0.2,2.6-0.1c0.3,0.1-3.3,5.5-3.3,5.5s2.8,5.2,4.2,7.4l4.3-7.6l-2.8-5.3
			c4.4,2.2,6.7-4.4,2.1-5.3c-1.1-0.2-2.3,0.4-2.3,0.4l2.4-22.9c2,1.3,5.5,4,5.5,4c0.8,12.6,0.2,23.1,7.2,41.5l0.1,12.7h-24.5v-66.6
			l4.5,3c0.1,0.4-0.7,0.1-0.3,4.8C3399.8-209.6,3401.1-202.3,3402.4-190.6L3402.4-190.6z M3489.1-361.8c0.2,0.3,0.2,0.7,0.3,1.2
			c1,3.3,4.4,7.2,7.1,8.2c0.9,0.4,1.3,0.9,0.8,1.5c-0.7,0.7-3.5-1.2-5.6-3.7c-1.9-2.2-3.2-4.1-3.5-5.5c-0.2-0.8-0.3-1.4-0.1-1.8
			C3488.4-362.3,3488.8-362.2,3489.1-361.8z M3492.4-362.2c0.4,0,0.8,0.4,1.1,1.2c0.7,1.8,1.8,3.2,3.5,4.4c0.5,0.3,0.6,0.8,0.4,1.1
			c-0.1,0.1-0.2,0.2-0.3,0.2c-1.3,0.4-4.8-3.7-5.1-6.2C3492-362.1,3492.2-362.2,3492.4-362.2L3492.4-362.2z M3496.8-362.1
			c0.7,0,1,1.5,0.6,2.2c-0.3,0.2-0.9-0.1-1.4-1.1C3495.6-361.8,3495.8-362.1,3496.8-362.1z M3494.4-362.1c0.2,0,0.5-0.1,0.7,0.1
			c0.3,1.5,1.4,2.6,2.3,3.5c0.2,0.3,0.2,0.9-0.1,1.1c-0.8,0.4-3.2-2.4-3.2-4C3494.1-361.9,3494.2-362.1,3494.4-362.1L3494.4-362.1z
			 M3491.4-361.1c0.8,2.8,2.9,5.1,4.7,6.2c1.3,0.8,1.8,1.3,1.2,1.7c-0.2,0.1-0.3,0.2-0.3,0.2c-3.1-1.2-6.9-5.6-7-8.8
			C3490.7-362.6,3491.2-361.7,3491.4-361.1z M3480.7-349c-1.6,0-3.6,0.4-5.2,1.1c-2.2,1-2.8,1.7-2.5,1.9c0.2,0.2,1.7-0.4,2.4-0.5
			c3.9-1,6.6-1.2,9.1-0.1c2,0.9,2,0.5,0.7-1C3484.3-348.6,3482.6-349,3480.7-349L3480.7-349z M3494.5-346.9c1.3,0,2.6,0.3,3.1,0.9
			c0.4,2-0.6,1.1-1.4,0.7c-1.1-0.5-2.4-1-3.6-0.8c-0.8,0.1-0.8,0.1-0.4-0.2C3492.8-346.7,3493.8-346.9,3494.5-346.9z M3479.2-346.1
			c-3.7,0.3-5,2.2-7.3,4.1c-1,0.7-0.8,1.3,0.4,1.1c1.5-0.2,2.1-0.2,4.1,0.5c2.2,0.8,3.8,1.1,5,0.6c2.3-0.9,2.1-0.7-1.2,2.4
			c-1.7,1.4-1,1.3,0.7,0.1c1.3-1,2.2-1.7,2.5-2.3c0.1-0.3,0.1-1.3,0.4-1.3c0.8,0,0.4-1-0.4-1.5c-0.5-0.4-0.4-0.7,0.3-1.4
			c1-1.1,0.7-1.5-0.4-0.9c-0.2,0.1-0.3-0.2-1-0.6C3481.2-345.9,3480.3-346.2,3479.2-346.1L3479.2-346.1z M3481.8-344.7
			c0.9,0.8,0.5,1-1.4,0.9c-1.6,0-3,0.2-5,0.8c-2.2,0.7-2.4,0.8-1-0.4C3476.1-344.9,3479.8-346.4,3481.8-344.7z M3493.4-345.4
			c0.9,0,1.6,0.1,2.3,0.5c1.9,1,2.3,1.9,0.2,1.2c-1.3-0.5-3-0.4-4.3-0.1c-1.2,0.3-1.5,0.5-1.3-0.2
			C3490.5-344.8,3491.9-345.4,3493.4-345.4z M3478.7-342.4c0.4,2.2,2.1,1.5,2.3,0.2l0.6,0c-0.3,1.8-2.7,3.3-3.6-0.2
			C3478.2-342.4,3479.1-342.3,3478.7-342.4L3478.7-342.4z M3492.1-342.3l0.5,0c0.3,1.7,1.9,2.3,2.6,0.1l0.5,0
			C3495.2-338.7,3491.5-340.4,3492.1-342.3z M3477.5-342.2c0.3,0.1,0.4,0.9,0.4,1.2c-0.1,0.5-1.6,0-1.9-0.5
			C3476.3-341.8,3477-342.3,3477.5-342.2z M3497.6-341.8v0.6c-0.7,0.2-1,0.5-1.6,0.4c0-0.4,0-0.9,0.3-1.4
			C3496.8-342.4,3497.3-342.1,3497.6-341.8L3497.6-341.8z M3482.7-341.1c-0.3,0.2-0.7,0.3-0.7,0.3c-0.1-0.6-0.2-1.3,0.6-1.3
			C3483-341.9,3483-341.3,3482.7-341.1z M3491.2-342.1c0.3,0,0.6,0.7,0.6,1c-0.1,0.6-1.6,0.4-1.6-0.2
			C3490.2-341.5,3490.8-342.1,3491.2-342.1z M3477.3-318.6c-1.2-0.6-10.1-6-12.3-15.6l-0.5,1c1,2.3,2.4,6,2.4,6
			c-0.1-0.3,0.4,2.5,1.3,7.3c-0.5,0-1-0.1-1.5-0.3c-1.2-4.4-1.5-7.8-2.4-12.1l-0.4,1.2c0,0,1.2,7.7,2.1,10.7c-0.5,0-1.4-0.2-1.4-0.2
			c-0.7-3.2-1.2-5.4-1.9-8.7l-0.6,0.8c0.9,2.7,1.2,5.1,1.6,7.6c-0.6-0.1-1.2-0.1-1.8-0.5c0,0-0.9-4.7-1-4.7
			c-0.3,0.3-0.5,0.8-0.5,0.8c0,0,0.8,2.6,0.7,3.7c-0.6-0.1-1.6-0.4-2.3-0.6c-0.4,0.2-0.6,0.6-0.8,1c0.3,1.5,20.7,4.7,19.5,3.5
			c0,0.1,9,4,14,0.7c0,0,8.7,6.5,12.2,9.1c0,0.3,1.2,1.7,2.4,2.5l3.5,2.7c1,0.8,1.4,0.2,1.6-1.3c0.2-1.6,1.4-12.7,1.6-15.1
			c1-8,1-7.9-0.2-7.5c-1.8,0.6-3.5-0.2-3.5-2.1c0-1.2,0.5-2.1,1.8-2.6c0.3-0.1,0.8-0.1,1.3-0.1c0.2,0,0.7,0.1,0.7,0.1
			c0.6,0-2.3-5.2-2.3-5.2s2.7-4.9,4-6.7l3.5,6.4l-2.9,5.7c5.6-0.4,5.1,6.7-0.4,4.3c0,0,0,2.1,0,2c0.1-0.6,0-1.1,0.2-1.2
			c5.3,2,6.4-5.8,0.7-5.4c0.9-1.7,2-3.4,3-5.2l-4.2-7.6l-4.7,7.8l2.4,4.9c-0.5-0.1-1-0.1-1.5,0c-3.5,0.7-2.7,6.3,1.2,5.6
			c0.5-0.1,1.1-0.4,1.1-0.4l-2.6,23c0,0-0.3,0.2-1.3-0.5c-1.2-0.9-3.7-2.7-3.8-2.9c0.9-14.7-2.8-30.2-7-39.8
			c-0.3-0.7-0.1-15.3-0.1-15.3h23.9v67.8c-1.2-0.8-2.7-1.8-4-2.7c-0.4-0.3-0.6-0.7-0.5-1.3c-0.4,0.9-0.2,1.3-0.2,1.3l5.2,4.2
			l-0.2,66.6c0,0-8.5-4.4-13.7-6.5c-2.3-1-2.5-0.7-2.5-0.7c0,0,1.7,3.7,1.2,4.4c1.1,1.1,3,3.3,3.1,5.5c1,0.9,1.3,1,2,2.2l3.1-1.1
			l-0.7,3.3c3.3,2.3,0.1,5.5-0.5,5.2c0,0,1.5,3.2,1.8,4.6c-0.5,0-3.2-1.5-3.9-1.8c-1.9,3.8-5.2,0.6-5.2,0.1l-3.6,1.6l1.3-4.1
			c-2.3-1.4-3.9-3.5-0.1-5.8l-0.9-3.2l3.1,1.2c0,0,0.6-0.9,1-1.6c-1.2-5-8.7-4.1-11.1-8.6c0,0-0.6,5.6-1.2,7.7c-0.2,5.4-4-0.1-4-5.8
			c0-1.3,1.6-5.6,2.2-5.8c0.6-0.1,6,2.5,9.6-0.1c1.7-1.7,4.5-6.6,1.8-14.2c-0.9-1.8,1.7-2,2.6-1.4c0,0,7.9-4.1,11.5-6.1
			c-6-3.3-18.4-12.1-18.4-12.5c-1.7,2.6-3.6,4.9-6.2,8.6c-4.3,5.1-7.7,10-13.2,14.1c-7.7,5.6-9.5,11.3-7.4,18
			c0.9,2.9,2.6,5.8,5.5,6.8c1.5,1.5,7.3,7.1,7.3,7.1c-9.8,9-16.5,16.3-21.3,24.5c4,2.1,13.6,5.1,13.6,5.1
			c-3.6,11.9-1.9,21.4,0.4,30.9c0,0-27.9,0-42.4-0.4c-0.1,0.1-1.7,0-1.7-0.1c-0.1-1.1,2.6-4,3.4-3.6c0.4-0.4,1.2-0.6,1.1-1.1
			c-2-0.2-5,3.2-5.1,4.7h-1.2c-0.2-0.2,2.2-5.8,7-6.3c0,0.2,0.6-0.4,0.1-0.7c-5.6,0.7-8.2,6.9-8.1,7h-0.9c1.9-6.2,6.9-8.1,9.8-8.4
			c0,0,0.9-0.3,0.7-0.9c-6.4,1.1-9.5,3.9-11.1,9.2h-1.1c0.8-5.4,6.4-10.2,12.7-10c0.2-0.1,0.4-0.3,0.3-0.9c-7,0.8-10.5,3.1-13.4,9.2
			c-2.6-6.7-9.7-9.9-9.8-9.9c0,0-0.2-1.9,0.2-1.8c6.1,2.2,8.4-3.1,8.2-6.2c-0.1-1.7,0-2.7-0.6-5.1c-0.5-2.2-0.9-3.7-0.8-4.6
			c0-0.9,0.3-1.1,1-1.5c1.3-0.6,2.1-2.7,1.8-3c-0.7,1.6-2.4,1.8-3.3,2.9c-0.7,0.9-0.4,2.2,0.8,7c0.7,2.9-0.1,1.6-1.8,0.7l-1.1-0.6
			c0.7,0.8,1.5,1.5,2.3,2.2c0.7,0.6,0.3,1-0.7,0.6c-1.4-0.7-4.1-0.4-5.1,0.5c-0.4,0.3-0.5,0.3-0.6,0c-0.5-7.4,0.3-12,2.8-17.6
			c1.6-3.8,3.9-6.6,7.1-6.8c3.2-0.3,7.7,0.9,11.9,3.7c4.9,3.3,9.6,8.4,10.1,14.5c0,0.1,0.4-0.5,0.5-0.8c0.2-0.7-0.6-2.9-1.9-5.5
			c-0.2-1.9-0.9-5.3-1.4-7.6c0.4-0.2,1.2-0.1,1.5,0.2c0.9,3.8,1.5,6.7,2.3,11.8c0,0.5,0.6-0.7,0.6-1.1c-0.1-0.8-2.2-10.7-2.2-10.4
			c0-0.3,2,0.1,1.7,0.4c0,0,1.5,8.3,1.6,8l0.5-0.7c0,0-1.4-6.1-1.3-7.2c0.1-0.2,1.2,0.2,1.6,0.4c0.4,0.6,0.7,2.8,0.9,4.2
			c0.5,0.4,0.6-0.7,0.6-1c-0.4-0.6-0.8-2.8-0.5-2.9c0.2-0.1,1.5,0.4,1.8,0.6c0.3,0.3,1.4-1.3,1.1-1.6c-6-2.3-13.6-3.7-19.4-3.8
			c-1.3,0-1.9-0.2-3.9-0.9c-5.2-1.9-9.5,0-10.1,0.6c-6.3-4.4-13.4-10.6-19.1-14.5c-0.3-0.2-0.9-0.3-1-0.3
			c-0.9,6.9-1.5,14.8-2.3,21.1c-0.3,2.5-0.3,2.7-0.2,2.8c0.1,0.1,0.3,0,0.4-0.1c1.9-0.7,3.5-0.2,4.4,1.4c0.4,2.4-1.6,4-3.9,2.8
			c-0.8-0.4-0.9-0.3-0.6,0.5c0.6,1.4,2.5,5.2,2.5,5.2c0,0-2.5,5.2-3.8,6.6c-1.2-2-2.8-4-3.5-6.2c1-1.9,2.8-4.4,3.4-6.3
			c-0.1-0.1-0.6,0-0.9,0.2c-3.2,1.5-3.7-1.4-3.7-2.4c0.1-2.1,1.9-2.6,4.6-1.6c-2.9-19.1-3.5-30-2.7-28.8c0,0-3.5-2.5-5.2-4.2
			l0.2-139.2h41.1c4.2,11.4,3.1,25,0.5,32.2c4.5,0.8,9,1.9,14.1,4.8c-8.7,12.7-22.2,26.5-36.9,35.3c-0.8,0.4-3.6-1.3-3.9-3
			c-0.1-0.4,0.1-1.2,0.6-1.2c1.1,0.4,2.1,0.8,3.2,1.3c0,0-1.5-3.7-0.8-4.3c0.5-0.3,0.8-0.6,1.1-0.9c1.1-1.4,1-2.9-0.1-4.1
			c-0.5-0.5-1-0.8-1.2-0.9c0,0,1-2.9,1.6-4.2l-4.1,1.4c-1.3-1.8-3.8-3.3-5.5-0.5c-0.3,0.7-0.3,0.6-2.8-0.5c-1.4-0.6-2.3-1-2.3-1
			c0.5,1.6,1.2,3.1,1.9,5c-2.8,1.8-2.2,4.8,0.2,5.7l-1.2,4.1c0,0,2.7-1,4.1-1.4c0,0,1.3,1.3,1.6,2.5c0.6,2.1,2.1,3.6,3,4.4
			c-1.5,1.1-2.3,1.5-4,2.3l6,2.4c-0.4-1.3-1.2-2.2-1.2-3.8c-0.1-1.4-0.1-1.4-1-2.3c-1.6-1.4-1.8-3.1-2.3-4.2
			c-0.7-0.4-1.2-1.1-1.6-1.9c-0.4-0.8-3,1.1-3.4,0.7c-0.5-0.5,0.8-3.1,0.7-3.4c-1-0.1-4-2.4-0.5-4.9l-1.1-4.2c0,0,2.7,1.2,3.9,1.8
			c0.9-4.2,4.9-2.2,5.6-0.4c0,0,3.2-1.1,3-0.2c-0.1,0.8-0.6,2.7-0.6,2.7c2.9,2.6,2.3,3.8-0.1,5.5c0,1.4,0.5,3.5,0.5,3.5
			s-1.6-0.7-2.7-1c-0.4,0.4-0.9,1.2-0.8,1.6c0.7,3.2,4.7,4.1,10.6,7.4c0.2-2.1,1.6-5,1.8-7.5c0.1-1.8,0.2-1.9,1.4-1.3
			c3.4,2.4,2.3,9.2,1.1,11.9c-0.7,1.6-0.8,1.5-2.3,1.1c-2-0.6-5.4-0.4-7.3,0.3c-2.6,1.1-3.9,7-3.9,8.8c0,1.7,0.1,3.4,1,5.5
			c0.4,1.3-0.3,2.4-1.5,2c-0.3-0.1-0.9-0.3-0.9-0.3l-11.4,5.9l2.1,1.3c0,0-1.6-0.9-0.6-1.5l9.8-5.1c1.8,0.7,1.6,0.9,2.8-0.4
			c0.7-0.7,1.1-0.7,2-0.7c5.8,0.6,8.3-0.3,9.3-2.7c0.1-0.4,0.1-0.4,0.7-0.6c1.1-0.4,1.6-1.2,1.7-2.2c0-0.6,0.3-0.7,0.8-1.2
			c0.9-0.8,1.1-1.9,0.5-2.9c-0.3-0.5-0.5-0.7-0.4-1.2c0.2-0.9-0.1-1.8-1-2.7c-1-1.1-1-0.9,0.9-2.6c3.5-3.4,6.7-6,10.1-9
			c2.4-2.1,2.1-1.9,3-1c3.4,3.5,4.7,9,3.2,13.9c-0.1,0.2-0.1,0.2,0.1,0c1-1.1,1-6.6,0.2-9c-1-3-2-4.5-5.3-7.5
			c-2.1-1.9-7.7-7.2-7.7-7.2c8.1-7.1,16.9-15.9,21.8-24c-2.5-2.7-14.2-5.2-14.2-5.2c1.5-3,4.3-16.7-0.6-31.8
			c14.5,0.7,29.1-0.4,43.6,0.6c0,0,0.2-0.1,0.3-0.1c0.4-0.1,0.6,0.2,0.5,0.6c-0.3,1.2-2,3.9-3.2,3.6c-0.5-0.2-0.4,0.8-0.6,1.2
			c1.9-0.2,4.1-2.6,4.6-5c0.3-0.5,0.5-0.6,0.8-0.5c0.3,0.1,0.3,0.4-0.1,1.6c-1.2,2.9-3.6,5.5-6.3,5.2l-0.4,1
			c3.7-0.1,6.6-3.6,7.5-6.2c0.6-1.6,0.6-1.8,1.2-1.6c0.5,0.5,0.2,1.1,0,1.7c-1.9,6-7,7.6-9.6,7.4c-0.3,0-0.4,0.3-0.3,0.7
			c5.5,0.4,9.9-4.4,10.5-8.5c0.3-1.1,0.8-1.5,1.1-1c0.2,0.5,0.1,0.9,0,1.4c-1.5,6.5-8.4,10.1-12.6,9.1c-0.2-0.2-0.5,0.7-0.1,1
			c8.5-0.3,11.1-4.7,13-8.6c2.3,3.5,4.2,7.1,9.7,9.2c0,0,0.5,1.2,0.1,1.5c-0.2,0.1-0.6,0.1-1.1,0c-6.7-1.1-9,5.2-6.1,14.6
			c0.8,2.6,0.4,2.2-1.2,3.8c-0.8,0.8-1.2,2.1-1,2.2c0.3-0.2,0.4-0.6,1.1-1.2c0.3-0.3,0.9-0.5,1.4-0.8c1.2-0.7,1.2-1.2,0.8-2.9
			c-0.3-1.3-1.2-5.1-1.2-5.5c0-0.7,0.2-0.7,1.1,0c1.3,1,2,0.9,0.5-0.3c-0.6-0.5-1-0.8-1.2-1.1c-0.2-0.4-0.1-0.6,0.4-0.4
			c2.3,0.7,4.3,0.7,6.6-0.7c0.3,6.2-0.6,15.6-5.8,22.4C3487.7-313.8,3480.1-317.2,3477.3-318.6L3477.3-318.6z M3483.4-332.9
			c-0.2,0-0.7,0.1-1.1,0.3c-1.5,0.9-1.2,4,0.5,4.4c0.7,0.2,1.3,0.3,2.4-0.3c0.7-0.3,1.6-0.6,1.9-0.5c0.6,0.2,0.7-0.3,0.8-0.8
			c0.3-1.2-1.8-1.3-3.4,0c-2,1.6-3.6-0.8-1.7-2.6C3483.6-332.7,3483.5-332.9,3483.4-332.9L3483.4-332.9z M3467.6-326.2l1.7,2
			l1.1,4.7c-0.7,0.1-1.4-0.3-1.4-0.3C3468.4-321.9,3467.9-324.1,3467.6-326.2z M3490.9-325.1C3490.8-325,3490.8-325,3490.9-325.1
			c-0.1,0-0.4,0.2-0.9,0.2c-0.3,0-0.6-0.2-0.9-0.1c-0.7,0-1.4,0.3-1.6,0.3c-0.2,0.1-0.5,0.1-0.7,0c-0.6-0.3-2.2-0.2-2.7,0.1
			c-0.6,0.2-1.2,0.3-1.7,0c-0.2-0.1-0.4-0.4-0.5-0.3c-0.1,0.1-0.4,1.4-0.5,1.9c0,0.2-0.1,0.5-0.1,0.5c0.1,0,0.4-0.2,0.8-0.4
			c0.8-0.4,1.6-0.4,3.2,0c1.9,0.5,2.6,0.3,3.7-0.2c0.9-0.5,1.4-0.6,2-0.4c0.1,0,0.5,0.2,0.6,0.2c0.1-0.1-0.2-0.7-0.4-1.2
			C3491-324.9,3491-325.1,3490.9-325.1L3490.9-325.1z M3470.6-322.9c1.7,1.6,1.5,1.4,2.6,2.2l-0.1,1.5c0,0-1.3,0-1.9-0.2
			C3471-320,3470.1-322.9,3470.6-322.9L3470.6-322.9z M3484.2-321.9c0.1,0.1,0.3,0.2,0.5,0.2c2.6,1-0.1,0.7-0.4,1.7
			c0,0.1,0.1,0.1,0.2,0c0.9-0.4,3.1-0.6,4.1-0.4c1.3,0.4,1.4,0.1,0.1-0.5c-0.9-0.4,0.2-0.6,0.6-0.9c0.8-0.5,0.2-0.7-0.7-0.2
			c-1,0.5-2.8,0.5-3.6,0c-0.4-0.2-0.7-0.3-0.9-0.4C3483.8-322.4,3484-322,3484.2-321.9z M3473.8-320.2l1.5,1.2l-1.6-0.2
			L3473.8-320.2z M3438.9-289.9c-0.3,0-0.6,0.3-0.6,0.6c0,0.3,0.3,0.6,0.6,0.6s0.6-0.3,0.6-0.6
			C3439.5-289.6,3439.3-289.9,3438.9-289.9z M3441-289.3l-7.1,3.4l1.9,0.6l0,1.9l1.7-0.5l0.7,1.8L3441-289.3z M3441.3-287.7
			c-0.3,0-0.6,0.3-0.6,0.6s0.3,0.6,0.6,0.6s0.6-0.3,0.6-0.6S3441.6-287.7,3441.3-287.7z M3432.4-284.3c-0.3,0-0.6,0.2-0.6,0.6
			c0,0.3,0.3,0.6,0.6,0.6s0.6-0.3,0.6-0.6C3432.9-284,3432.7-284.3,3432.4-284.3z M3434.5-283.2l-7.9,3.7l2.3,0.7l-0.6,2.4l1.9-0.8
			l1.1,1.6L3434.5-283.2z M3434.8-281.5c-0.3,0-0.6,0.3-0.6,0.6s0.3,0.6,0.6,0.6c0.3,0,0.6-0.3,0.6-0.6S3435.1-281.5,3434.8-281.5z
			 M3419-281.1c3,0,6.3,1.1,7.5,3.7c0.3,1.3-0.9,2-3.6,1.3c-4.4-1.2-5.2-1.4-4.5-0.6c0.1,0.1,0.3,0.3,1,0.6c1.7,0.6,4.9,1.2,5.8,1.1
			c1.2-0.2,2,0.4,1.7,1.4c-0.3,1.1-1.9,1.6-4.2,1.3c-2.4-0.3-3.7-0.6-4.5-0.9c-1-0.3-1.1-0.3-0.6,0.4c0.3,0.4,0.3,0.7,0.7,0.7
			c1.6-0.1,3.3,0.2,4.7,0.4c2.6,0.2,3,1,1.1,2.1c-0.9,0.5-3.6,0.4-5.2-0.2c-1.1-0.4-3.6-1-2.7-0.2c0.2,0.2,0.2,0.6,0.6,0.8
			c1.3,0.2,5.1,0.5,5.7,1c0.4,0.3-0.5,1.2-2.2,1.7c-2.7,0.5-6.7,0.3-7.7-0.4c-1.9-4-0.9-10.5,2.2-13
			C3415.6-280.7,3417.3-281.1,3419-281.1z M3436.5-279.1c-0.3,0-0.6,0.3-0.6,0.6s0.2,0.6,0.6,0.6c0.3,0,0.6-0.2,0.6-0.6
			S3436.8-279.1,3436.5-279.1z M3438.9-278.5l-8.2,4.1l2.1,0.6l-0.5,2.4l1.9-0.8l1.2,1.6L3438.9-278.5z M3438.9-276.5
			c-0.3,0-0.6,0.3-0.6,0.6s0.3,0.6,0.6,0.6s0.6-0.3,0.6-0.6S3439.2-276.5,3438.9-276.5z M3443.7-271.6c-3.6,3.5-7.7,6.3-11.5,9.8
			l0.8,0l2-1.8l57.3-0.2l-1.3,2l0.6,0.2c0,0,1.7-2.5,1.6-2.7c-12.6,0-22.3,0-36.1,0.1c-2.5-2.5-5.2-4.8-7.8-7.2L3443.7-271.6z
			 M3426.3-269.4c-0.3,0-0.6,0.3-0.6,0.6s0.3,0.6,0.6,0.6c0.3,0,0.6-0.3,0.6-0.6S3426.6-269.4,3426.3-269.4z M3501.1-268.9
			c5,3.7,10.8,8.2,15.7,10.9c2,0.8,1.8,1.1-0.2,2.1c-1.9,1.2-5.2,2.8-7.9,4.1c-1.2,0.4-1.7-0.1-2.5,0c-0.6,0.2-0.8,0.3-1.1,0.7
			c-0.6,0.8-0.4,0.8-3.6,0.6c-3.2-0.1-4.5-0.1-5.1,0.3c-0.7,0.3-1.8,1.5-1.8,1.9c0,0.5-0.4,1-1,1.2c-0.8,0.2-1.6,0.8-1.6,1.7
			c-0.2,0.7-0.6,1-1,1.4c-0.9,0.9-0.8,1.6-0.5,2.5c0.1,0.4,0.3,0.3,0.2,1.4c-0.2,2.6-0.4,2.4,2.3,4.3l-14,12.2
			c-0.3,0.3-0.4,0.2-0.7,0c-1.7-1.3-2.9-3.4-3.6-5.5c-2.4-6.5,0.5-11.9,4.4-15.2c1.3-1.1,3.1-2.5,3.6-2.8
			C3489.9-253.2,3496.1-261.9,3501.1-268.9z M3428.4-268.5l-8,3.8l2.6,0.4l-0.5,2.2l1.9-0.7l1,1.9L3428.4-268.5z M3428.8-266.7
			c-0.3,0-0.6,0.3-0.6,0.6c0,0.3,0.3,0.6,0.6,0.6s0.6-0.2,0.6-0.6C3429.4-266.4,3429.2-266.7,3428.8-266.7z M3502.1-264.2l-0.9-2.2
			c0,0-2.5,6.2-3.1,8.4c2.1-1.1,8.4-4.3,8.4-4.3l-2.7-0.5l0.3-2.4L3502.1-264.2z M3410.8-263.8c-0.3,0-0.6,0.3-0.6,0.6
			c0,0.3,0.3,0.6,0.6,0.6s0.6-0.3,0.6-0.6C3411.3-263.6,3411.1-263.8,3410.8-263.8z M3413.2-263.3c0,0-6,2.8-8.6,4l2.5,0.5l-0.4,2.4
			l2.3-0.9l0.9,2.4L3413.2-263.3z M3413.5-261.5c-0.3,0-0.6,0.3-0.6,0.6c0,0.3,0.3,0.6,0.6,0.6s0.6-0.2,0.6-0.6
			C3414.1-261.2,3413.9-261.5,3413.5-261.5z M3497.8-261.1c-0.3,0-0.6,0.2-0.6,0.6c0,0.3,0.3,0.6,0.6,0.6s0.6-0.3,0.6-0.6
			C3498.3-260.8,3498.1-261.1,3497.8-261.1z M3507.5-260.5l-2.8,7.9l7.7-3.9l-2.1-0.6l0-2l-1.7,0.5L3507.5-260.5z M3417-258.6
			c-0.3,0-0.6,0.3-0.6,0.6s0.3,0.6,0.6,0.6s0.6-0.3,0.6-0.6S3417.3-258.6,3417-258.6z M3500.8-258.5c-0.3,0-0.6,0.3-0.6,0.6
			s0.2,0.6,0.6,0.6c0.3,0,0.6-0.2,0.6-0.6S3501.1-258.5,3500.8-258.5z M3419.3-257.9l-8.1,4l2.5,0.6l-0.3,2.5l2-1.2l1.1,2.3
			L3419.3-257.9z M3419.8-256.2c-0.3,0-0.5,0.3-0.5,0.6c0,0.3,0.3,0.6,0.6,0.6s0.6-0.2,0.6-0.6
			C3420.4-256,3420.1-256.2,3419.8-256.2z M3504.2-255.7c-0.3,0-0.6,0.3-0.6,0.6s0.3,0.6,0.6,0.6s0.6-0.2,0.6-0.6
			S3504.5-255.7,3504.2-255.7z M3493-253.1l-0.8-2.1l-3,7.8l8.1-3.7l-2.6-0.6l0-2L3493-253.1z M3484.8-254.8c-0.1,0-0.2,0-0.2,0.1
			c0,0.2-2.1,2.2-2.1,2.2l-23.8,0.2c0,0,2,0.5,2,0.5c3.1,2.5,8,7,8,7l5.9-0.2c3.3-3.2,8.2-5.7,10.4-9.7
			C3485-254.8,3484.9-254.8,3484.8-254.8L3484.8-254.8z M3507.2-253.2c-0.3,0-0.6,0.3-0.6,0.6s0.3,0.6,0.6,0.6
			c0.3,0,0.6-0.2,0.6-0.6S3507.5-253.2,3507.2-253.2z M3488.8-250.5c-0.3,0-0.6,0.2-0.6,0.6s0.2,0.6,0.6,0.6s0.6-0.3,0.6-0.6
			S3489.1-250.5,3488.8-250.5z M3500.9-249.7c1.7,0,3.4,0.1,3.8,0.4c2.6,2.2,1.4,12.7-1.9,14c-3.7,0.8-6.2,1-9.4-1.1
			c-0.9-0.4-2.7-1.8-2.3-2.9c0.5-1.3,1.8-1.3,5.5-0.1c1.4,0.4,2.1,0.3,2.5,0.1c0.3-0.2-0.1-0.5-0.8-0.5c-0.3,0-1.5-0.3-2.5-0.6
			c-1.4-0.4-1.8-0.6-2.8-0.6c-1.5-0.1-2-0.2-2-1.1c0-1.8,2.5-2,7-1c0.5,0.1,1.5,0.3,1.8,0.3c0.2,0.1-0.3-0.6-0.4-1
			c-0.2-0.1-0.5-0.2-1.2-0.2c-2.9-0.3-5.3-0.5-5.4-0.9c-0.3-1.9,3.5-2.4,7.4-0.9c1,0.4,1,0.2,1-0.1c0-0.5-1.7-1.5-4.2-1.5
			c-2.4,0-2.1-1.2-0.1-2.1C3497.5-249.8,3499.2-249.7,3500.9-249.7L3500.9-249.7z M3491.6-247.7c-0.3,0-0.6,0.3-0.6,0.6
			s0.2,0.6,0.6,0.6s0.6-0.3,0.6-0.6S3491.9-247.7,3491.6-247.7z M3482.9-243.8l-0.5-2.1l-3.3,8.2l8.3-4.2l-2.7-0.5l0.2-1.7
			L3482.9-243.8z M3478.7-240.5c-0.3,0-0.6,0.3-0.6,0.6c0,0.3,0.3,0.6,0.6,0.6s0.6-0.3,0.6-0.6
			C3479.2-240.2,3479-240.5,3478.7-240.5z M3486.9-238.1l-0.7-2l-2.8,7.1l7.1-3.2l-2.1-0.6l0.3-2.2L3486.9-238.1z M3481.3-238.1
			c-0.3,0-0.6,0.3-0.6,0.6s0.3,0.6,0.6,0.6s0.6-0.3,0.6-0.6S3481.6-238.1,3481.3-238.1z M3483.1-235.4c-0.3,0-0.6,0.2-0.6,0.6
			s0.3,0.6,0.6,0.6s0.6-0.3,0.6-0.6S3483.4-235.4,3483.1-235.4z M3479.5-233.7l-2.4,6.8l6.6-3.2l-1.9-0.6c0,0,0.1-1.5-0.1-1.4
			c-0.1,0-1.4,0.4-1.4,0.4L3479.5-233.7z M3485.5-232.9c-0.3,0-0.6,0.2-0.6,0.6s0.3,0.6,0.6,0.6c0.3,0,0.6-0.3,0.6-0.6
			S3485.8-232.9,3485.5-232.9z M3476.6-229.7c-0.3,0-0.6,0.3-0.6,0.6s0.3,0.6,0.6,0.6c0.3,0,0.6-0.3,0.6-0.6
			S3477-229.7,3476.6-229.7z M3479.2-227.1c-0.3,0-0.6,0.2-0.6,0.6c0,0.3,0.3,0.6,0.6,0.6c0.3,0,0.6-0.3,0.6-0.6
			C3479.8-226.8,3479.5-227.1,3479.2-227.1z M3444.2-195.9c-0.3,0-1.1-0.7-1.2-1c0.5-0.1,0.9,0,1.2,0.2
			C3444.3-196.6,3444.4-196.1,3444.2-195.9z M3446.6-196.4c-0.1,0.8,0.4,2.3,0.3,2.7c-0.3,0.1-1.6-1.3-1.9-1.6c-0.1-0.5,0-1.1,0-1.3
			C3445.4-196.8,3446.2-196.8,3446.6-196.4L3446.6-196.4z M3448.9-196c0.3,1.8,1.1,4.8,1,5.8c-0.1-0.1-1.1-1.1-1.9-2.2
			c-0.3-0.6-0.7-2.9-0.6-3.9C3447.9-196.4,3448.6-196.3,3448.9-196z M3433-196.2c-0.8,0.4-1.7,0.7-2.9,0.7c-0.9,0-2.5-0.5-2.4-0.4
			c0.4,0.8,1.5,0.4,1.6,0.9c-0.3,0.5-1,0.4-1.4,0.9c-0.1,0.1,0.1,0.2,0.6,0.2c1.6-0.7,3.6-0.7,5.5-0.1c0.4,0.1,0.1-0.3,0-0.4
			c-0.2-0.2-0.6-0.4-1-0.4c-1.6-0.3-0.9-0.5,0.2-1C3434-196.1,3434.2-196.8,3433-196.2L3433-196.2z M3436.6-193.9
			c-0.2,0-0.8,0.3-1.4,0.5c-1,0.4-1.9,0.3-3.3-0.1c-1.2-0.3-1.6-0.2-2.8,0.4c-0.8,0.5-1.6,0.6-2.3,0.3c-0.8-0.5-0.8-0.3-0.4,0.8
			c0.1,0.3-0.1,1.1,0.3,1.3c0.3,0.2,0.6-0.3,0.8-0.4s1.5,0.5,2.2-0.1c1.3-0.5,1.7,0.3,2.6,0.2c1.4-0.5,2.3-1,3.6-0.1
			C3435.9-191.4,3436.2-193.4,3436.6-193.9C3436.6-193.9,3436.6-193.9,3436.6-193.9L3436.6-193.9z M3433.9-188.1
			c-1,0-1.6,0.7-2.9,0.5c-1.1-0.1-1.4,0.9-1,1.6c0.3,0.5,0.7,0.6,2.2-0.1c0.6-0.3,1.4-0.9,1.9-0.8c1.4,0.1,1.8,1.5,0.6,2.7
			c-0.6,0.3-0.6,0.7-0.4,0.7c0.5,0,1.4-0.5,1.6-1.2C3436.5-186.5,3435.5-188.1,3433.9-188.1L3433.9-188.1z M3438.6-179.8
			c-1.4,0.3-3.3,1.8-4,2.8c-0.6,1-1.2,2.1-0.8,2.6c0.4,0.4,0.9,0.9,0.9,1.1c0,0.2-0.3,0.4-0.5,0.7c-1.2,1.3-0.9,1.4,0.8,0.5
			c0.8-0.4,1.2-0.6,1.8-0.5c1.6,0.4,3.6,0.1,5-0.4c0.6-0.2,1.2-0.5,1.3-0.4c-2.5,2.7-5.6,2-6.7,1.9c-0.2,0-0.3,0-0.3,0
			c0,0.1,0.3,0.4,1,0.7c1.1,0.5,3.9,0,5.6-1.3c3.4-2.2,5.2-4.3,2.6-3.5c-1.2,0.4-1.7,0.3-3.2-0.3c-2.2-1-3.9-1.3-5.8-0.7
			c-2.3,0.8-0.5-1.1,2.1-2.8C3438.8-179.4,3438.9-179.8,3438.6-179.8z M3426-174.1l-0.8,0c-0.6-1.9-1.9-1.9-2.5,0l-0.7,0
			C3422.7-176.4,3425.1-176.9,3426-174.1z M3439.8-173.9l-0.6,0c-0.4-1.1-1.6-2.1-2.5-0.3l-0.4-0.1
			C3437.1-177.2,3440-175.6,3439.8-173.9z M3435.9-175.6c0.4,0,0.5,0.4,0,1.1c-0.3,0.5-0.6,0.4-1,0.1c-0.3-0.3-0.3-0.4,0-0.7
			C3435.4-175.5,3435.7-175.6,3435.9-175.6z M3440.2-175.6c0.2,0,0.5,0.1,0.8,0.2c0.9,0.3,1.1,0.5,0.7,0.9c-0.4,0.4-1,0.5-1.3,0.3
			c0-0.4-0.5-0.8-0.5-1.2C3439.9-175.5,3440.1-175.6,3440.2-175.6z M3426.3-175.6c0.6,0,1.4,0.3,1.4,0.7c-0.1,0.4-0.7,0.6-1.2,0.7
			c-0.3,0-0.3-0.1-0.4-0.3c-0.1-0.2-0.2-0.5-0.2-0.7C3425.8-175.6,3426-175.6,3426.3-175.6L3426.3-175.6z M3422.1-175.4
			c0,0-0.3,1-0.5,1.4c-1.3-0.1-1.2-0.6-0.6-1C3421.4-175.4,3421.7-175.4,3422.1-175.4z M3421.1-173c0.2,0,0.5,0.2,0.9,0.3
			c1.1,0.4,3,0.3,4.5,0c0.7-0.2,1-0.4,1.2-0.3c0.3,0.2,0,0.9-1,1.4c-1.3,0.5-3.4,0.8-4.9,0C3420.5-172.3,3420.4-173,3421.1-173
			L3421.1-173z M3420.8-171.5c1.2,0.8,2.4,1,3.9,0.9c2.2-0.1,2.6-0.4,0.8,0.6c-1.7,0.9-4.4,0.8-4.9-0.2
			C3420.2-170.8,3420.4-171.5,3420.8-171.5z M3431.6-170.2C3431.6-170.2,3431.6-170.2,3431.6-170.2c0.2,1.2,2.2,2.3,3.2,2.6
			c2.1,0.9,5.3,0,7.8-1.1c1.8-0.8,2.4-2,0.3-1.3c-3.5,1.1-7.8,1.2-10,0.3C3432.2-170,3431.7-170.2,3431.6-170.2L3431.6-170.2z
			 M3420.3-165.7c4.3,1,9.5,7.7,9.5,10.6h-1.4c-2.1-7.4-7.6-9-8.2-9.5C3420-165.5,3420.3-165.7,3420.3-165.7L3420.3-165.7z
			 M3420.2-163.8c5.1,2.3,7,6.3,7.7,8.7h-1.5c-1.1-3.3-3.1-5.7-6.2-7.2C3420-162.7,3420.2-163.8,3420.2-163.8L3420.2-163.8z
			 M3420.2-161.5c2.6,0.8,4.9,4.3,5.6,6.4l-1.3,0c-0.9-2.4-2.2-4-4.3-4.9C3420-160.4,3420.1-160.9,3420.2-161.5L3420.2-161.5z
			 M3420.1-159.1c1.2,0.2,3.3,2.2,3.6,4.1h-1.2c-0.4-1.3-1.7-2.4-2.4-2.9C3420.1-158.2,3420.1-159.1,3420.1-159.1L3420.1-159.1z
			 M3420.3-157.1c0.1-0.1,2,1.6,1.7,2h-1.7C3420.2-155.6,3420.2-157.1,3420.3-157.1L3420.3-157.1z"/>
		<path id="path4071-9-6-8" fill="#D40000" d="M3467.3-362.1c-3.1,6.1-19.2,33.5-19.4,34.4l4.1,1.8l20-36.1
			C3472-362,3467.9-362.1,3467.3-362.1z M3514.5-339.2l-1.7,2.5l1.4,2.8l1.7-2.7L3514.5-339.2z M3441.1-311.8c0,0-5.8,5.7-8,8.4
			c4.8,4.8,14.1,10.9,14.2,20.3l6.4,0l20.6,18.5c0,0,18.7,0.1,19,0.1c0.4-0.1,7-9.6,7-9.6l11.8,8.7c0,0-0.6-9.3-1-15
			c-0.1-3.8-0.3-6.2,2.5-7.9c-3.8-1.8-3.6-5.2-0.8-7.7c-0.9-1.3-2.3-1.5-2.5-6.1c-0.6-0.6-1.1-1-1.9-1.5l-0.8,0.7
			c-2.5,2.2-4.1,4.5-4.4,5.9c-0.5,2.8,2.3,4.7,3.9,2.7c0.5-0.6,0.9-0.4,0.9,0.3c0,1.5-1.9,2.4-3.5,1.6c-0.4-0.2-0.7-0.3-0.7-0.3
			c-0.1,0.1,1.6,4.1,2.1,5c0.7,1.5,1.1,3,1.2,4.6c0.1,1.7,0,1.9-0.8,4.8c-0.7,2.7-0.4,4.4,0.9,4.4c0.7,0,0.7,0.7,0,1
			c-1.6,0.6-2.6-0.6-2.6-3.1c0-1.5-0.1-1.6-0.8-1.2c-2.7,1.3-5.7-1-4.4-3.4c0.3-0.5,0.6-0.3,0.8,0.4c0.3,1.4,1,2,2.3,1.9
			c2.9,0,4.2-4.2,2.5-8.4c-0.3-0.8-0.5-0.8-1,0.3c-0.7,1.7-1.9,2.2-2.9,1.2c-0.3-0.3-0.5-0.9-0.3-0.9c0.1,0,0.4,0,0.7,0
			c1.7-0.1,2.3-1.7,1.5-4.2c-0.7-2.2-0.8-2.6-1-3.8c-0.3-1.9-0.1-3.3,0.8-5.1c0.2-0.3,1.2-1.4,2.4-2.7c1.3-1.3,2.4-2.3,2.4-2.3
			c-1.2-1-2.3-1.8-3.7-2.9c0,0-8.8,24.2-8.2,33.6c-1.1,12.4-10.2,9-10.9,0.4L3441.1-311.8z M3440.7-308.1c3,0,5,3.9,6.1,12.2
			c0.4,2.7,2,6.6,3.2,7.5c3,2.3,7.8,0.5,7.8-2.9c0-4.2-5.9-4.9-6-0.6c0,1-0.5,1.1-1,0.1c-0.4-0.8,0-2.4,0.8-3.2
			c0.5-0.5,0.5-0.6-0.5-1.2c-3.6-2-5.2-5-3.2-6.3c0.8-0.6,2,0.1,1.5,0.9c-0.8,1.2-0.8,1.4-0.1,2.3c0.8,1.1,1.7,1.7,3.9,2.3
			c1.9,0.5,2.2,0.7,3,1c2.5,1.1,3.7,3.7,2.8,6.1c-0.2,0.6-0.4,1.2-0.4,1.3c-0.1,0.3,0.1,0.3,1.8,0c2.8-0.4,5.9,0.6,7.5,2.4
			c0.8,1,1.5,3.1,1.5,4.9c0,0.3,0.1,1.1,0.2,1.7c0.1,0.6,0.3,1.6,0.4,2.3c0.7,6.1,5.8,9.3,8,5c1.4-2.7-1.8-5.5-3.5-2.9
			c-0.6,0.9-1.2,0.5-0.8-0.6c0.6-2,3.2-2.4,4.9-0.7c0.9,0.9,1.4,3,0.9,4.4c-0.2,0.7-0.2,0.7,0.3,0.6c1.2-0.4,3.2,0,3.9,0.8
			c1.7,1.8,1.4,4-0.7,4.7c-1,0.3-2,0-2.4-1.1c-0.2-0.8,0.4-1,0.8-0.3c0.8,1.3,2.5,0.2,2.1-1.3c-0.5-1.7-1.9-2.1-4.6-1.2
			c-4.3,1.5-5.7,1.4-7.8-0.7c-1.5-1.5-2-2.7-2.4-5.5c-0.4-3.1-0.5-3.2-1.2-2.5c-3.7,3.1-8.5-1.6-5.4-4.7c1-1,1.7-0.1,0.8,0.9
			c-1.3,1.6,0.4,3.7,2.4,3.2c3.7-0.9,3-6.4-1.1-7.7c-1.2-0.4-4.6-0.2-7.2,0.3c-7.3,1.6-10.5-1.5-12-11.6c-0.2-1.2-0.4-2-1.1-4.6
			c-0.8-3-3.6-4.6-5.1-3c-1.2,1.3-0.6,3.1,1.1,3.1c1.7,0,1.2,1.2-0.6,1.3c-3,0.3-3.6-4.8-0.7-6.3
			C3439.4-307.9,3440.1-308.1,3440.7-308.1z M3400.9-306.3l1,3.7l3.8,1.1l-1.2-3.4L3400.9-306.3z M3410.6-305.2l-1,3.3l2.8-1l1-3.1
			L3410.6-305.2z M3441.6-299.8c0.6,0,1.1,0.5,1.1,1.1c0,0.6-0.5,1.1-1.1,1.1c-0.6,0-1.1-0.5-1.1-1.1
			C3440.5-299.3,3441-299.8,3441.6-299.8z M3405.6-297.9l-3.3,1.1l-0.6,2.6l3-0.7L3405.6-297.9z M3412.4-296.8l-2.3-0.7l0.6,2.7
			l2.6,1.1L3412.4-296.8z M3517.5-297.3l-1.6,1.2c4.5,4-0.4,7.8-0.5,7.5c3.3,2.2,2.7,5.6,2.3,8.8c-0.8,5.6-1.1,10.9-1.9,16.7
			c0,0,4,2.7,6.6,3.8c0,0,0-33.8,0-33.8L3517.5-297.3z M3461.5-292.2c0.6,0,1.1,0.5,1.1,1.1c0,0.6-0.5,1.1-1.1,1.1
			c-0.6,0-1.1-0.5-1.1-1.1C3460.4-291.7,3460.9-292.2,3461.5-292.2z M3395.1-289.4l0.1,31.5l6.5-11.7l-4.5-5.2l3.9-4.1
			C3398.9-282.2,3397-285.8,3395.1-289.4z M3458.4-284.6c0.6,0,1.1,0.5,1.1,1.1c0,0.6-0.5,1.1-1.1,1.1c-0.6,0-1.1-0.5-1.1-1.1
			C3457.3-284.1,3457.8-284.6,3458.4-284.6z M3473.2-281.4c0.6,0,1.1,0.5,1.1,1.1c0,0.6-0.5,1.1-1.1,1.1s-1.1-0.5-1.1-1.1
			C3472.1-280.9,3472.6-281.4,3473.2-281.4z M3515.5-246.3l4.8,4.9l-3.8,4.7l5.9,10l-0.1-30.9L3515.5-246.3z M3395.1-256.6l0.2,33.9
			l5.1,3.7l1.3-1.2c-3.3-3.5-1.3-6.2,1.2-7.7c-4.4-1-3.1-6.9-2.8-9.6c-0.1-5,1.7-10.7,1.2-15.6L3395.1-256.6z M3424.5-251.9
			l-7.3,10.2c0,0-8-6.1-12.1-8.9c0.4,4.4,0.8,10,1.4,14.8c1.3,6.9-2.1,7.1-2.1,7.7c5.4,4.1,0.9,8,0.1,7.8c2.9,1.6,2.7,6.4,2.7,6.4
			l1.4,0.8c0,0,0.4-0.3,0.6-0.4c1.5-0.8,3.9-3.6,4.4-5.5c0.9-3.2-1.8-5.8-3.5-3.4c-0.8,1.2-1.5,0.4-0.8-1c0.6-1.2,2.3-1.9,3.4-1.3
			c0.6,0.3,0.5-0.5-0.5-3c-0.3-0.8-0.6-1.7-1.1-3.6c-0.5-1.8-0.3-3.9,0.5-6.1c1.1-3.2,0.7-5.1-1.1-5.3c-1-0.1-1.1-0.4-0.3-0.8
			c1.8-1,3.5,0.4,3.4,2.8c0,1.3,0,1.3,0.7,1c3.5-1.4,6.2,2.2,3.8,5c-0.7,0.8-1.2,0.3-0.7-0.8c0.8-1.8,0-3-1.7-3c-2.6,0-4,3.5-3,7.4
			c0.3,1.2,0.4,1.2,1.2,0.4c0.8-0.7,1.3-0.9,1.9-0.8c1.2,0.4,1.5,1.7,0.4,1.5c-2-0.3-2.5,1.8-1.4,5.5c1.5,4.9,0,8.9-4.4,11.8
			c-0.2,0.1-0.6,0.4-0.6,0.4c1.7,1.5,2.8,2.4,5,3.8l8-32.6c0,0-0.1-1.8-0.3-2.7c0-8.7,8.1-9.6,10.7-1.6c0.2,0.8,1.5,2.7,1.5,2.7
			l42.3,37.7c0,0,7.9-7.7,7.8-7.9c-6-6.1-14.1-10.4-14.4-20c-1.4,0-6.2,0-6.2,0l-20.6-18.9C3436.9-251.7,3431.2-252.1,3424.5-251.9
			L3424.5-251.9z M3436-251.2c1.1,0,2.3,0.6,2.3,1.5c0,0.8-0.5,1-1,0.3c-0.6-0.9-1.4-1-2.1-0.2c-2.1,2.2,1.1,4.2,4.8,3
			c2.3-0.7,3.4-0.9,4.2-0.7c3.5,0.7,5.2,3.1,5.5,7.7c0.2,2.3,0.1,2.3,1.2,1.4c2.5-2.3,6-1,6.5,2.3c0.2,1.4-1.3,3.2-2.7,3.2
			c-0.6,0-0.5-0.6,0.1-0.9c1.5-0.7,1.5-3,0.1-4c-1.9-1.2-4.4,0.7-4.4,3.3c0,3.2,2.4,4.6,7,4.3c0.7,0,2.4-0.1,3.8-0.2
			c2.2-0.1,4.6-0.5,6.9,1.2c2.4,1.9,3.9,5.6,4.6,11.1c1.1,6.7,1.9,8.5,4.1,8.6c1.3,0.1,2.4-1,2.4-2.4c0-0.9-1.2-1.7-2.2-1.4
			c-1.1,0.4-1.3-0.8-0.2-1.3c1.5-0.6,3.4,0.6,3.8,2.5c0.2,1.1-1,3.3-2.3,3.8c-3.5,1.4-5.9-1.5-6.7-7.9c-0.5-2.9-0.8-4.9-1.7-7.4
			c-1.7-4.6-4.4-6.5-7.4-5.2c-3.4,1.6-2.7,6.7,0.9,6.6c2,0.2,2.4-1.3,2.4-2.9c0-1.2,1.3-0.1,1.5,0.7c0.1,1-0.8,2.2-1.5,2.7
			c-1.2,0.8-0.8,0.8,0.5,1.1c3.4,0.6,5.9,5.1,3.9,6.6c-1,0.6-2.2-0.3-1.4-1.2c1.2-1.5-0.8-3.8-4.4-4.6c-4.7-1-6.5-4.5-4.8-8.1
			c0.6-1.2,0.6-1.2-1.7-1c-5,0.3-6.8-0.4-8.5-3.3c-0.5-0.9-0.7-2.1-0.8-4.4c-0.2-4.2-0.6-6.8-1.1-7.5c-2.6-3.6-8-2.5-7.3,1.5
			c0.4,2.1,2.5,2.8,4,1.2c1.1-1.2,1.6-0.1,0.5,1.1c-2.6,2.9-7.2-0.5-5.8-4.3c0.3-0.9,0.4-0.9-1.3-0.9c-3.7-0.1-5.5-3.3-3.1-5.6
			C3434.8-251,3435.4-251.2,3436-251.2L3436-251.2z M3445-237.5c0.6,0,1.1,0.5,1.1,1.1c0,0.6-0.5,1.1-1.1,1.1
			c-0.6,0-1.1-0.5-1.1-1.1C3443.9-237,3444.4-237.5,3445-237.5z M3460-233.6c0.6,0,1.1,0.5,1.1,1.1c0,0.6-0.5,1.1-1.1,1.1
			c-0.6,0-1.1-0.5-1.1-1.1C3458.9-233.1,3459.4-233.6,3460-233.6z M3456.8-226.5c0.6,0,1.1,0.5,1.1,1.1c0,0.6-0.5,1.1-1.1,1.1
			c-0.6,0-1.1-0.5-1.1-1.1C3455.7-226.1,3456.2-226.5,3456.8-226.5z M3504.4-222.3l0.7,3.2l2.5,0.7l-0.4-2.7L3504.4-222.3z
			 M3513-221.2l-0.1,1.9l2.2,0.3l0.8-3.3L3513-221.2z M3476-218.3c0.6,0,1.1,0.5,1.1,1.1c0,0.6-0.5,1.1-1.1,1.1s-1.1-0.5-1.1-1.1
			C3474.9-217.9,3475.4-218.3,3476-218.3z M3507.7-213.9l-2.6,0.7l-1.2,3.6l3.3-1.2L3507.7-213.9z M3512.8-213.6l0.3,2.7l3.2,1.4
			l-1.1-3.8L3512.8-213.6z M3465.6-190.8l-19.8,36l5.4-0.1l18.7-33.9L3465.6-190.8z M3403.2-182.1l-1.8,2.4l1.7,2.7l1.9-2.8
			L3403.2-182.1z"/>
		<path id="path4069-2-6-0" d="M3436.9-363c3.7,11.1,4,22.1,0.8,32.6c1.8,0.1,9.7,2.1,14,4.8c-0.8,2.1-13.1,17.2-21.5,24.1
			c2.4,2.4,5,4.7,7.7,7.3c4.2,4,5.6,6.7,5.9,11.8c0,2.5-0.9,5.5-2.5,7.7c-1.2,1.6-2.5,2.9-5,4.6c-2.3,1.6-5.7,4.9-10,9.8
			c-1.6,1.9-4.4,5.3-6.7,8.6c-0.9,1.2-3.4,4.9-3.4,4.9c-8.5-7-17.6-12.3-17.8-12.3c0,0,9.2-4.9,11.1-5.9c1.5,1,3.5,0.1,2.5-2
			c-1.9-4.8-0.6-9.7,1.7-13.1c0.5-0.8,1.9-1.3,4-1.5c0.9-0.1,1.9,0,2.9,0c0.4,0,1.3,0.1,1.8,0.4c1.7,1,2.1-0.3,3.2-4.4
			c1.1-4.1-0.7-9.3-3.1-9.3c-0.6,0-0.9,0.2-0.8,1.7c0.1,1.1-0.2,1.7-0.5,2.4c-0.6,1.5-0.9,3-1.1,5c0.4,0.1-2.3-2.7-6.5-3.7
			c-2.7-0.3-4.1-3.7-4-3.7c0,0,0.4-0.9,0.8-1.3c0.9,0.4,1.8,1,2.9,1.3c0,0-0.3-1.4-0.4-1.7c-0.5-1.9-0.5-2.2,0.3-2.6
			c1.8-1,2-2.7,0.6-4.3c-0.4-0.4-0.7-0.7-1.1-0.9l0.9-3.6c0,0-0.8,0.2-1.5,0.4c-1.9,0.6-1.8,0.6-2.6-0.3c-1.8-2-4.4-1.6-4.8,0.7
			c0,0.3-0.2,0.7-0.2,0.7l-4-2c0.1,0.9,1.2,4.2,1.2,4.2c-3.5,2.8-0.5,5.2,0.4,5.4c0,0-0.8,2.6-1.1,3.7l4-1.1
			c0.3,0.8,0.7,1.3,1.6,1.9c0.2,2.2,1.9,4.1,3.1,5.1c0,0,0.2,0.8,0.1,1.3c-0.3,1.3,1.1,3.4,1.3,3.5c-5.5-2.2-11.2-4.9-16.7-7.6
			l0.3,67.8c0,0,1.3,1.2,3.8,3c1.2,0.9,1.2,0.9,1,1.9c-0.3,1.3-0.3,2.3,0.9,11.1c0.6,4.6,1.3,9.4,1.8,13.8c0.2,1.6,0.3,2.6,0.3,2.6
			c-1.2-0.6-3-0.6-3.9,0.4c-1.6,1.8-0.3,4.7,2,4.6c0.5,0,0.9-0.2,1.3-0.5c0.3-0.2,0.6,0,0.6,0l-3.5,6.1l4,6.8l4-7.2l-2.9-5.7
			c0,0,0.3,0,0.7,0.2c0.4,0.2,0.9,0.3,1.3,0.4c2,0,2.4-0.9,2.7-2.6c0-2.2-1.7-3.1-4.1-2.3c-0.4,0.1-0.8,0.2-0.8,0.2l2.5-23.6l1.3,1
			l0.4-0.2l-1.2-1c0.2-3.8-1-5.1-2.3-6c4.5-2.6,2.5-6.6-0.4-7.9c0,0,1.9-1.1,2.3-2.3c0.3-1.1,0.2-2.8-0.2-5.8
			c-0.3-4.6-1.3-14.2-1.3-14.2c3.9,3,8,6.2,11.8,9.2l7.6-10.6l18.3,0.1c0,0,13.9,12.7,21,19.2l6.1,0.1c0,0,0.1,0.6,0.1,1.1
			c0.6,6.3,4.8,10.6,8.6,13.6c1.6,1.4,5.4,5.1,5.4,5.1l-7.1,7.2l-43.6-39.1c0,0-0.2-0.6-0.3-0.9c-1-4.1-3.7-5.9-6.2-5.6
			c-2.6,0.3-4.8,2.9-4.7,7.3c0,0.7,0.3,1.9,0.3,1.9l-8,33.3c0,0-3.2-2.4-4.9-3.6l-0.4,0.2l4.7,3.5l0.3-0.2l1.3,1l0.1,0.7
			c4.1,2.8,11,8,11,8c3.3-2.4,6.7-1.6,10.1-0.7c0,0,2.5,0.8,3.8,0.8c6.8,0.2,12.7,1.5,19,3.7l-22.9,40.7l43.6,0.1
			c-2.2-8.5-4.4-17.2-0.4-31.7c-4.3-0.9-13.9-4.7-13.9-4.7s0-0.2,0.4-0.7c1.8-2.5,6.2-9.4,10.4-13.4c0.5-0.4,7.8-7.5,7.9-7.7
			c0-0.1,0.2-0.6,0.5-0.8c0.7-0.5,2.5-2.1,2.5-2.1l-9.1-8c0,0-0.4,0-0.5-0.1c-1.3-0.7-3.6-4.7-4.1-7.4c-1.3-6.2,1.1-11,7.9-16
			c6.6-4.6,19.2-22.3,19.3-22.7c6.8,5.6,12.1,8.6,18.1,12.3c-3.6,2.1-6.5,3.5-9.1,4.8c-1.6,0.9-1.9,1.1-3.2,0.7
			c-1.6,0-2.1,0.6-1.7,2c2.4,3.8,1.4,12.5-1.9,14.2c-2.8,1.5-5.5,1.1-7.7,0.2c-1.7-0.6-1.7-0.6-2.5,1c-1.7,3.6-1.8,6.7-0.2,10.1
			c1.3,2.8,3.2,4.1,3.4,0.3c0.1-2.2,1.1-4.8,1.1-7.2c1.9,2.2,3.2,3.1,6.4,4c2.1,0.3,4.4,3,4.3,4.1c-0.6,0.6-0.8,1.4-0.9,1.3
			c-1-0.3-3.3-1.3-3.3-1.3l1,3.4c0,0-0.2,0.2-0.6,0.4c-2.1,1.1-2,4,0.2,5.2c0.5,0.2,0.5,0.4,0.3,1c-0.3,1.4-0.9,2.3-1.2,3.7
			c0,0,0.3,0,2.8-1.2l1-0.5l0.6,0.6c1.3,1.4,2.9,1.4,4.3,0l0.6-0.7l1.8,0.9c1.7,0.8,2.1,1,2.1,1s-1-3.7-1.1-4.2
			c-0.1-0.2-0.3-0.5-0.4-0.5c-0.2-0.1-0.2-0.1,0.4-0.6c1.6-1.3,1.8-3,0.4-4.4c-0.5-0.5-0.6-0.6-0.6-0.6l0.8-3.5l-3.4,1.1
			c-0.5-1.2-1.4-1.7-2-1.9c-0.1-1.6-0.3-3.2-2.9-5.6c0.9-0.8-0.2-2.8-1.1-4c1.5,0.5,5.3,2.1,5.3,2.1l0.6,0l1.8,0.9l0.2,0.3
			c0,0,5.7,2.7,8.3,3.9c0-0.1,0-2.9,0-33.8c0-18.4,0-33.6,0-33.7c0-0.1-0.7-0.6-1.3-1.1c-1.2-0.9-1.4-1.1-3-2.1
			c-1.2-0.8-1.1-0.8-0.9-1.7c0.3-1.1,0.3-2.6-0.1-5.3c-0.3-2-1.3-9.2-2-15c-0.5-4.1-0.6-5-0.7-5.6c-0.2-1.6,0-2.4,0-2.4
			c5.7,2.5,6.1-5.7,0.4-4.6c1.1-2.2,2-3.2,2.9-5.6c-1.2-2.6-3.8-6.9-3.8-6.9l-4.2,7.3l2.5,5c-2.8-0.5-4.3,1.5-3.8,3.4
			c0.6,1.6,2.1,2.1,3.5,1.4c1.1-0.4,1.1-0.5,0.1,7.5c-0.3,2.4-1.5,13.4-1.7,15c-0.1,1.1-0.2,1.4-0.6,1.2c-0.6-0.3-1-0.6-1.6-1
			l-0.3,0.3c0.5,0.4,1.2,1,1.8,1.6c-0.2,2.9-0.1,4.6,2.3,6c-4.4,2.8-1.8,7,0.8,7.6c-1.5,0.4-3.1,2.4-2.7,6.3l1.2,16.3l-11.9-8.9
			l-7,10l-18.4,0l-20.8-18.8c0,0-4.6-0.1-6.4-0.1c0.2-0.1-0.4-5.8-3.4-9.6c-3.3-3.9-10.7-10.3-10.7-10.3l7.8-8l43.9,39.6
			c0,0,0.2,1.1,0.3,1.6c1.5,6.3,8.6,6.6,10.1,0.3c0.2-1,0.5-3.4,0.4-3.7c0-0.1,0.2-1.1,0.5-2.3c2.4-9.3,4.4-17.3,6.7-26.2
			c0.3-1.2,0.7-2.6,0.8-3c0.4-1.8,0.3-1.8,2.2-0.4c1.2,0.9,1.6,1.2,1.6,1.2l0.4-0.4c-1.3-1-3.5-2.6-3.5-2.6l0-0.7
			c-7.1-5.1-8.6-6.5-12.8-9.8c-3.3,2.9-7.9,1.7-10.9,0.7c-0.8-0.3-2.6-0.8-2.6-0.8c-7.3,0-13.7-1.4-19.8-3.4l23.4-41.7l-9,0
			l-0.3,0.4h-4.7l0-0.4L3436.9-363z M3523.1-225.8C3523.1-225.8,3523.1-225.8,3523.1-225.8z M3463.6-362.1l3.2,0.1l-18.9,33.8
			l-2-0.8c0,0,0.2-0.1,0.2-1.5c0-1.5-0.3-2.2-1-3.1c-0.6-0.8-0.8-0.8,0.9-0.6c3.4,0.5,5.9-3.3,4.5-6.2c-0.5-1.1-0.5-1.2,0.9-1.3
			c3.8-0.4,5.3-5.3,2.6-7.7c-0.6-0.5-0.3-0.8,0.7-0.6c3.3,0.7,5.9-3,4.6-5.9c-0.4-0.8,0-0.9,0.6-1
			C3462.7-357.6,3463.7-359.9,3463.6-362.1z M3438.1-362.1l14.8,0c-2,3.1,1.5,4.9,2,4.6c-3.2,1.7-2.3,4.2-0.7,5.1
			c1.6,0.8,4,0.1,3.4-3.5l0.8-0.3c0.8,0.9,1.5,6.3-4.3,5.5c-1-0.1-1.6,0.8-0.7,1.4c4.6,5.4-2.6,7.7-2.9,6.8l0-0.9
			c2,0.4,4.5-2.2,2.3-4.4c-1.3-1.3-4.9-0.7-4.3,3.2c-2.1-3.2-4.5-2.2-5.1-0.5c-0.5,1.3,0.1,3.1,2.3,3.4c-2.4,2-1.2,4.2,0.4,4.7
			c1.8,0.5,3.7-0.2,3.2-3.5c0-0.3,0.7-0.2,0.7-0.2c1.9,4.7-2.6,6.4-5,5.5c-0.9-0.4-1.4,1-0.4,1.7c1.4,1.1,1,4.2,0.8,4.2
			c-2.7-1-6.5-1.8-6.4-1.7C3441.3-341.2,3441.2-351.5,3438.1-362.1L3438.1-362.1z M3461.7-362.1l1.3,0c0,1.9-0.8,4.3-4.1,4.6
			c0-0.5,0-1-0.2-1.5C3460-359.2,3461.6-358.9,3461.7-362.1L3461.7-362.1z M3467.5-362l4.3,0l-20.1,35.7l-3.2-1.7L3467.5-362z
			 M3457-359.2c0.8,0,1.4,0.6,1.4,1.4c0,0.8-0.6,1.4-1.4,1.4s-1.4-0.6-1.4-1.4C3455.6-358.6,3456.2-359.2,3457-359.2z M3448.4-343.7
			c0.7,0,1.3,0.6,1.3,1.3c0,0.7-0.6,1.3-1.3,1.3s-1.3-0.6-1.3-1.3C3447.2-343.1,3447.7-343.7,3448.4-343.7z M3514.5-342.6l3.4,5.9
			l-3.9,6.9l-3.2-6.6L3514.5-342.6z M3514.5-340.6l-2.4,4l2.2,4.1l2.5-3.9L3514.5-340.6z M3514.5-338.9l1.2,2.4l-1.5,2.4l-1.2-2.6
			L3514.5-338.9z M3511.2-330.9c0.3,0,0.5,0.1,0.8,0.2c2.3,1,1.6,4.5-0.9,4.2c-0.3,0-0.7-0.2-1.1-0.4
			C3508.4-328.3,3509.4-330.9,3511.2-330.9z M3516.8-330.8c2,0,3.2,2.8,1.1,4.1c-1,0.6-2.5,0.2-3.1-0.8c-0.5-0.9-0.3-2.3,0.9-3.1
			C3516-330.7,3516.4-330.8,3516.8-330.8z M3514-326.8c0.2,0,0.4,1,0.6,2.7c0.1,0.6,0.3,2.1,0.4,3.4c0.3,2.7,0.6,5.2,0.9,7.8
			c0.1,0.5,0.2,1.6,0.3,2.4c1.2,8.4,1.4,11.1,1.1,11.9c-0.7,2.5-4.2,2.7-5.6,1.2c-1.1-1.1-1.2-2.3-0.8-5.5c0.2-1.8,0.3-2.7,1.1-9.7
			c0.2-1.6,0.4-3.8,0.5-4.8c0.3-2.7,0.6-5.3,1-8C3513.8-326.4,3513.9-326.8,3514-326.8z M3457.9-320.6c0,0,11,3.6,19.3,3.5
			c1.2,0,1.4,0,3,0.5c0.9,0.3,2.3,0.7,3.2,0.9c2.6,0.5,4.8,0.4,6.8-0.5c0.3-0.1,0.8-0.5,1.2-0.4c0.3,0.1,0.7,0.7,0.7,0.7
			c-7.3,1.9-24.4,1.6-35.1-2.9L3457.9-320.6z M3514.3-319.4c0,0-0.1,0.1-0.1,0.2c-0.2,0.3,0,2.1,0.6,8.1c1.3,11.3,1.3,11.5-0.3,12.7
			c-0.8,0.6-0.9,0.8-0.5,1c0.3,0.2,0.2,0.2,0.8,0c1.3-0.4,1.8-1.4,1.8-3.5c0-1.6,0-1.8-0.5-5.7c-0.2-1.4-0.4-3.3-0.5-4.3
			C3514.7-318,3514.5-319.4,3514.3-319.4L3514.3-319.4z M3456.8-318.2c10.9,3.9,22.3,5,36.1,2.9c0,0,1.3,0.9,2,1.3l-0.5,0.1l0.2,1.9
			l2.3-0.4c0,0,1.3,1,2.2,1.6c-12.3,3.8-32.1,3.1-44.3-2.3c-0.5-0.3-0.7-0.5-0.7-0.5c0.3-0.6,0.6-1,0.9-1.4l2.2,0.6l0.6-2l-1.7-0.6
			L3456.8-318.2z M3459.7-315.8l-0.7,2l3.1,0.9l0.5-2.1L3459.7-315.8z M3464.4-314.5l-0.4,2.3l3.1,0.6l0.4-2.2L3464.4-314.5z
			 M3469.6-313.5l-0.2,2.2l3.3,0.4l0.2-2.2L3469.6-313.5z M3492.5-313.4l-2.8,0.3l0.2,1.9l2.9-0.3L3492.5-313.4z M3487.5-312.9
			l-2.8,0.2l0.1,2l2.8-0.2L3487.5-312.9z M3474.8-312.8v2.2l2.9,0.1l0-2.2L3474.8-312.8z M3482.7-312.5l-2.6,0l0,2.1l2.7,0
			L3482.7-312.5z M3452-312.2c0.3,0,0.9,0.6,1.2,1.3c0.5,1.4,0.3,3-0.5,3.5c-1.1,0.7-2.5-0.4-1.7-1.4c0.1-0.2,0.4-0.4,0.5-0.4
			c0.6-0.2,0.7-1.1,0.4-2.7C3451.9-312.1,3451.9-312.2,3452-312.2z M3456.3-311.6c11.8,3.9,25.2,5.2,39.1,2.3c0,0-6.6,26.8-6.7,26.8
			L3456.3-311.6z M3450.5-311.6c0.6,0,0.7,1.1,0.2,1.6c-0.7,0.7-2.1,0.1-1.8-0.8C3448.9-311,3450.1-311.6,3450.5-311.6z
			 M3453.9-310.9c0.1,0,0.4,0.2,0.8,0.8c1.3,1.8,1.4,3.8,0.2,4.7c-1.4,1.1-2.4-0.6-1.3-2c0.3-0.4,0.3-1.1,0.2-2.6
			C3453.7-310.7,3453.7-310.9,3453.9-310.9L3453.9-310.9z M3499.7-310.3c0.2,0,0.4,0.1,1,0.4c0.8,0.4,1.1,1,0.7,1.5
			c-0.6,0.7-2.2-0.7-1.9-1.7C3499.5-310.2,3499.6-310.3,3499.7-310.3L3499.7-310.3z M3498.4-309.4c0.2,0,0.6,0.4,0.9,1.2
			c0.3,0.5,0.4,0.7,0.8,0.8c1,0.4,1.2,1.4,0.3,1.7c-1,0.3-1.7-0.4-2.1-2.1C3498.1-308.8,3498.2-309.4,3498.4-309.4L3498.4-309.4z
			 M3456.1-308.6c0.1,0,0.4,0.3,0.9,1c1.3,2,0.9,5.7-0.8,6.6c-0.7,0.4-1.2,0.3-1.8-0.3c-0.9-0.9-0.6-1.5,0.6-2
			c1.1-0.4,1.4-1.6,1.1-3.9C3456-308.2,3456-308.6,3456.1-308.6z M3462.4-308c8.1,6.7,15.4,13.8,24.8,22.2
			c2.2-6.9,5.5-21.2,5.5-21.2C3492.3-306.7,3476.9-304.5,3462.4-308z M3492.7-307C3492.7-307,3492.7-307,3492.7-307L3492.7-307z
			 M3497.7-308c0.1,0,0.5,1,0.7,1.9c0.2,0.8,1,2.2,1.3,2.3c1.6,0.3,2.3,1.2,1.5,1.9c-0.6,0.6-1.8,0.3-2.4-0.6
			C3497.7-304.1,3496.9-308,3497.7-308L3497.7-308z M3407.6-307c1,0,1.9,0.6,2.1,1.9c0.3,1.5-0.5,2.5-1.2,2.3c-0.8-0.3-1-1.5-1-1.5
			s-0.2,1-0.5,1.5c-0.7,1-2.1-0.5-1.8-2C3405.4-306.3,3406.5-307.1,3407.6-307L3407.6-307z M3465.1-306.7c8.8,1.3,16.4,1.7,26.9,0.5
			l-4.9,19.3L3465.1-306.7z M3458.4-306.6c0.1,0,0.4,0.2,0.8,0.7c1.4,1.5,1.8,3.5,0.9,4.5c-0.5,0.6-0.9,0.7-1.5,0.3
			c-0.7-0.5-0.8-1.3-0.1-1.6c0.6-0.3,0.7-1,0.2-2.4C3458.3-306.2,3458.2-306.6,3458.4-306.6L3458.4-306.6z M3401.1-306.1l3.2,1.3
			l1.2,2.7l-3.2-0.8L3401.1-306.1z M3413.2-305.8l-1,2.7l-2.5,0.9l1-2.9L3413.2-305.8z M3497-305.2c0.1,0,0.3,0.3,0.5,1
			c0.5,1.8,0.8,2.2,1.2,2.4c0.8,0.4,0.8,1.3,0.1,1.7c-0.5,0.2-0.6,0.2-1-0.3c-0.5-0.7-0.9-2-1-3.2
			C3496.8-304.6,3496.9-305.2,3497-305.2z M3461.3-304c0.1,0,0.2,0.1,0.4,0.4c1.2,1.5,1.4,3.8,0.3,4.5c-1.1,0.7-2.6-0.7-1.7-1.5
			c0.1-0.1,0.3-0.2,0.4-0.3c0.3-0.2,0.3-0.3,0.3-1.6C3461.1-303.6,3461.1-304,3461.3-304z M3470.7-303.8l15.4,14l3.5-13.9
			C3483.6-303.1,3477.2-303.3,3470.7-303.8z M3432.9-303.1c4.9,5.1,11.2,9.3,12.7,14.4c2.7,7,0.7,15.2-5.6,19.9
			c-3.5,2.7-6.9,5.5-9.8,8.8c-4.7,5-7.8,10.5-10.9,14.4c-0.5,0.7-1.9,2.8-1.9,2.8s-0.7,0.8-3-1.1c-6.1-5.4-12.4-9.3-18.9-13.1
			l2.7-1.5c5.4,3.1,12.1,7.5,18.2,12.6c0,0,4.8-7,6.3-9.1c2.2-2.9,3.8-4.8,5.9-7c5.3-6.6,10.8-8.7,13-12c3.3-4.9,3.5-10.6,0.7-15.5
			c-2.7-4.7-8-7.9-11.4-11.8L3432.9-303.1z M3479.1-302.7h6c0,0-0.9,0.7-1.6,1.2c-0.4,0.3-0.9,0.2-1.9-0.1
			C3480.8-302.1,3479.1-302.7,3479.1-302.7L3479.1-302.7z M3486-302.7l1.4,0c-1,1.3-2.1,2.2-3.5,3.3c-0.2,0.1-0.3,0.1-0.7,0
			c-2.9-1-5.5-2.2-8.3-3.3l2.5,0c0,0,1.2,0.4,3,1.1c2.1,0.9,2.6,1.1,3.4,0.6C3484.5-301.5,3485.1-302.3,3486-302.7L3486-302.7z
			 M3488.8-302.7l-0.5,1.8c-0.8,1.1-2.5,2.3-4,3.5c-0.3,0.2-0.3,0.2-1.8-0.4c-5.3-2.1-7.9-3.4-7.9-3.4l-1.1-1c0,0,1.4,0.4,2.3,0.8
			c0.6,0.2,1.7,0.7,2.4,0.9c0.7,0.3,2.2,0.9,3.2,1.3c2.3,0.9,2.2,0.9,4.4-1C3488.2-302.4,3488.8-302.7,3488.8-302.7z M3407.8-302.6
			l2.3,2.7l-3.1,2.6l-2.3-2.8L3407.8-302.6z M3496.3-302.6c0.5,1,0.9,2.2,1.8,3c0.7,0.6,0.8,1.1,0.4,1.5c-1,0.6-1.2-0.4-1.5-1.1
			C3496.5-300.3,3495.8-301.9,3496.3-302.6z M3412-302.3c0.1,0,0.1,0,0.2,0c2.5,0,3.1,3.7,0.7,4.6c-0.8,0.3-1.8,0.2-2.3-0.3
			c-0.5-0.5-0.6-0.9-0.2-1.2c0.5-0.4,1.8-0.4,1.8-0.4s-1.2-0.4-1.7-0.7C3409.5-300.9,3410.3-302.2,3412-302.3L3412-302.3z
			 M3463.2-302.3c0.1,0,0.4,0.3,0.7,0.9c1.3,2.1,1.2,6-0.1,7c-0.7,0.5-1.5,0.4-2.1-0.2c-0.8-0.8-0.5-1.7,0.6-2.2
			c1.1-0.5,1.3-1.5,0.9-4.2C3463-301.8,3463-302.3,3463.2-302.3z M3402.8-302.2c0.7,0,1.5,0.3,1.8,0.9c0.3,0.4,0.1,0.8-0.4,1
			c-0.6,0.2-1.8,0.5-1.8,0.5s1.1,0.2,1.8,0.5c0.8,0.4,0.8,1.1-0.5,1.6c-2.4,1.1-4.6-2-2.7-3.7C3401.7-302,3402.3-302.2,3402.8-302.2
			z M3465.2-300.7C3465.2-300.7,3465.3-300.7,3465.2-300.7c0.3,0,0.7,0.3,1.1,0.9c1.4,1.9,1.7,4.7,0.5,5.3c-1.3,0.6-2.2-0.6-1.3-1.7
			c0.6-0.7,0.6-1.8-0.3-4C3465.1-300.6,3465.1-300.7,3465.2-300.7L3465.2-300.7z M3495.8-300.6c0.1,0,0.3,0.4,0.6,1.4
			c0.7,2,1.3,2.9,2.1,2.9c0.9,0,1.4,1.3,0.7,1.8c-1.4,1-3.3-1.5-3.5-4.6C3495.6-300.2,3495.7-300.6,3495.8-300.6L3495.8-300.6z
			 M3488.1-299.6l-0.4,1.6c0,0-1,1-1.7,1.6c-1.1,1-1.4,1.2-2.3,0.9c-1.4-0.5-2.7-0.9-4.1-1.3l-3.3-2.7l7.5,2.9c0,0,0.6,0.2,0.9,0
			C3485.6-297.7,3486.7-298.5,3488.1-299.6L3488.1-299.6z M3495.2-298.1c0.1,0,0.2,0.1,0.3,0.4c0.3,1.5,0.8,2.7,1.2,2.8
			c0.5,0.2,0.7,0.7,0.5,1.1c-0.6,1.3-2.3-1-2.3-3.3C3494.9-297.6,3495-298.1,3495.2-298.1z M3468.1-298c0.1,0,0.2,0.1,0.5,0.4
			c1,1,1.4,3.9,0.5,4.7c-1.2,1.2-2.5-0.6-1.3-1.8c0.3-0.3,0.3-0.4,0.2-1.8C3468-297.6,3468-298,3468.1-298z M3405.3-297.7l-0.8,2.7
			l-2.6,0.7l0.6-2.2L3405.3-297.7z M3408.4-297.4c0.2,0,0.4,0.1,0.7,0.2c1.1,0.8,1.1,2.1,0.6,3c-0.5,0.9-1.4,1.2-2.4,1.1
			c-1.2-0.1-2.1-1-2.1-2.3c0-0.6,0.3-1.4,0.7-1.7c0.3-0.2,0.6-0.1,0.8,0.3c0.2,0.4,0.7,1.4,0.7,1.4s0-1,0.2-1.5
			C3407.8-297.2,3408.1-297.4,3408.4-297.4L3408.4-297.4z M3410.4-297.2l1.9,0.6l0.7,2.6l-2.1-0.8L3410.4-297.2z M3517.4-296.7
			c0,0,0.5,0.2,3.1,2.3c0.6,0.5,1.7,1.5,1.7,1.5l-0.1,33.4l-6.1-3.8l0.3-2.9c0,0,0.8-8.8,1.5-13.5c0.4-5.2,1.4-6.6-2-8.8
			c3.7-2.3,2.7-6,0.3-7.5L3517.4-296.7z M3487.2-296.6l-0.3,1.5c-1.2,2.1-2.3,2-4.2,1l-2.2-1.9c1.4,0.3,2.2,0.8,3.6,1.2
			c0.7,0.2,1,0.1,1.5-0.4C3486.1-295.6,3486.5-296,3487.2-296.6L3487.2-296.6z M3470.6-295.8c0.8,0.8,1,1.6,0.9,3.7
			c-0.1,1.4-0.1,2.5-1.3,3.3c-0.6,0.4-1.6,0.4-2,0c-1.1-0.7-0.5-2.1,0.9-2.2c0.9,0,1.2-2.9,0.7-4.7c-0.1-0.3-0.1-0.5,0.1-0.5
			C3470.1-296.2,3470.3-296.1,3470.6-295.8L3470.6-295.8z M3494.4-295.9c0.2,0,0.5,0.4,0.7,1.2c0.3,1,0.6,1.6,1.2,1.9
			c0.7,0.4,1,1.1,0.5,1.5c-0.9,0.8-1.9-0.2-2.2-2.3C3494.5-293.9,3494.1-295.9,3494.4-295.9z M3514.4-295.5c2.1,0,3.3,1.5,3.3,3.3
			c0,1.3-0.7,2.6-2,3.1c-3.1,0.9-4.7-1.1-4.7-3.1C3511-293.9,3512.3-295.6,3514.4-295.5z M3472.4-294.4c1.8,1.8,1.8,5.5,0.1,5.5
			c-2.1-0.7-0.5-1.9-0.4-2.2c0.2-1.3-0.1-2.1-0.4-3.3C3471.5-295.1,3472.2-294.6,3472.4-294.4z M3514.5-294.6
			c-0.4,0-0.3,0.4,0.3,0.9c1.2,1.1,0.6,3-0.9,3c-0.7,0-0.9,0.5-0.3,0.7c2.4,1,4-2.7,1.9-4.2C3515.1-294.4,3514.8-294.6,3514.5-294.6
			z M3422.7-294.1c1.9,0.7,2.6,4.4,2.7,5.7c0.1,2.3-1,6-1.9,6.7c-2.4,1.9-3.6-4.9-1.5-9.2c0.2-0.4,0.4-0.8,0.3-1.7
			C3422.2-293.5,3422.4-294.1,3422.7-294.1L3422.7-294.1z M3486.6-293.7c0,0-0.2,1.1-0.5,1.7c-0.3,0.7-0.5,0.7-1.2,0.1
			c-0.4-0.3-1-1-1-1c0.6,0.1,1.1,0.4,1.7,0.2C3486-293,3486.5-293.5,3486.6-293.7z M3493.9-293.7c0.1,0,0.3,0.4,0.5,1.2
			c0.6,2.1,1.2,2.9,2,2.9c1.4,0,1.7,1.7,0.4,2.1c-0.5,0.2-0.6,0.2-1.3,0c-0.9-0.2-2.2-3.4-2-5
			C3493.7-293.3,3493.8-293.7,3493.9-293.7L3493.9-293.7z M3408.9-292.4c0.5,0,0.7,0.2,1,0.9c0.3,0.7,1.2,1.6,2,2
			c1.8,0.9,3.7,1.6,5.5,2.5c2.3,1.2,4.4,4.8,3,5.1c-0.5,0.1-1.1,0.1-1.6,0.1c-0.2-0.1-0.5-0.5-0.8-0.9c-1.1-1.7-3-3.4-6.1-4.2
			c-2.2-0.6-4.1-3.2-4.5-4.5c-0.1-0.3-0.1-0.6,0.2-0.7C3408.1-292.3,3408.6-292.4,3408.9-292.4L3408.9-292.4z M3474.4-292.2
			c0.1,0,0.2,0.1,0.5,0.3c1.3,1.4,1.4,3.9,0.3,4.6c-1.2,0.8-2.3-0.5-1.4-1.6c0.4-0.5,0.4-0.5,0.4-1.9
			C3474.2-291.8,3474.3-292.2,3474.4-292.2z M3493.1-290.6c0.2,0,0.4,0.4,0.7,1.3c0.4,1.2,0.5,1.3,0.9,1.5c0.8,0.4,0.9,1,0.3,1.6
			c-1,1.1-2.1-0.6-2.1-3.4C3492.9-290.3,3493-290.6,3493.1-290.6z M3476.3-290.4c0.1,0,0.4,0.2,0.6,0.5c1.6,1.9,1.3,6.2-0.5,6.9
			c-0.6,0.2-0.8,0.2-1.1,0.1c-1.3-0.6-1.1-2,0.5-2.8C3476.9-286.5,3476.1-290.4,3476.3-290.4z M3395.9-289l6.5,3.2
			c0,0,1.8,3.8,2.6,5.2c0.6,1,1.7,1.9,0.5,2.6c-2,1.3-3.1,2.1-3,2.9c0,0.7,0.8,1.3,2,2.7c1.6,1.9,1.6,1.5,0.1,4.3
			c-1.1,2-2.1,6.6-2.1,6.6l-6.6,3.4c2-4.7,4.2-8.7,6.8-11.5c-1.9-1.4-3.5-2.9-5.2-4.9c1.2-1.7,2.9-3,4.4-4.5
			C3398.9-282.5,3397-285.8,3395.9-289L3395.9-289z M3478-289C3478.1-289,3478.1-289,3478-289c0.3,0,0.9,0.7,1.5,1.8
			c0.7,1.4,0.8,3.2,0.1,3.8c-1.1,1.1-2.5-0.3-1.5-1.5c0.7-0.5,0.5-1.8,0-3.2C3477.9-288.7,3477.9-289,3478-289z M3395.2-288.4
			c1.7,3.6,3.6,6.5,5.5,9.3l-4.2,4.4c1.3,1.5,2.9,3.1,5.1,5c-2.7,3-4.5,7.3-6.3,11.3L3395.2-288.4z M3492.4-288.3
			c0.1,0,0.4,0.4,0.6,1.3c0.3,1.1,0.5,1.4,1.1,1.7c1,0.4,1,1.4,0,1.8c-0.4,0.1-1.1-0.2-1.3-0.7c-0.4-0.7-0.6-1.6-0.6-2.5
			C3492.1-287.8,3492.2-288.3,3492.4-288.3z M3515.8-287.6c1.6,0.4,2.2,2.1,1.9,5c-0.4,4-0.9,8.4-1.3,12.1c-0.5,4.2-0.8,6.9-0.8,6.9
			l-0.4-0.3c0,0,0.1-2.3,0.3-3.7c0.4-3.1,0.6-5.9,0.9-9c0.7-7,0.5-9.2-0.7-9.9c-1-0.5-1.4-0.2-0.7,0.5c1.4,1.1,1.3,1.5-0.1,18.7
			c-0.2,1.8-0.2,3-0.2,3l-1.9-1.2c0,0-0.1-1.5-0.3-3.7c-0.4-4.2-0.7-8.7-0.9-12.7c-0.3-4.3,0.5-5.8,3.2-5.9
			C3514.9-287.8,3515.4-287.7,3515.8-287.6L3515.8-287.6z M3481.5-285.1c0.2,0.6,1.1,4.8-1.2,3.6c-0.6-0.4-0.7-0.9-0.2-1.5
			c0.5-0.6,0.6-1.5,0.4-2.7c-0.2-0.8-0.4-1.4-0.4-1.4C3480.6-286.9,3481.5-285.3,3481.5-285.1L3481.5-285.1z M3411.1-286.4
			c2,0.4,4.2,1.6,5.6,3c0.9,0.9,0.8,1.7-0.5,1.8c-1.3,0.2-1.4,0.4-2-0.1c-0.3-0.2-0.8-0.8-1.5-0.9
			C3410.7-283,3409.7-286.7,3411.1-286.4z M3492-285.3c0.2,0.3,0.2,1,0.4,1.5c0.3,1.3,1.2,2.3,2,2.2c0.6-0.1,1.3,0.1,1.4,0.8
			c0.2,0.6-0.1,1.1-0.7,1.3c-0.7,0.3-1.5,0.1-2-0.4C3491.8-281.1,3491.1-284.9,3492-285.3L3492-285.3z M3482.3-285.3
			c0.7,0.3,1.6,2.6,1.7,4.4c0,1.3-0.2,3-1.3,3.6c-0.7,0.4-1.5,0.2-1.8-0.4c-0.4-0.8-0.1-1.6,0.7-1.9c1-0.5,1.3-2.5,0.7-4.5
			C3482.4-284.5,3481.9-285.4,3482.3-285.3L3482.3-285.3z M3405.8-284.3l5.3,2.7c-0.8,1.1-1.4,2-1.8,3.1
			C3407.6-280.4,3406.7-282.4,3405.8-284.3z M3484.3-283.4c0.1,0,0.4,0.3,0.7,0.5c1.3,1.3,1.9,3.6,1.1,4.5c-0.6,0.7-1.8,0.6-1.9-0.1
			c-0.1-0.4,0.3-1,0.5-1.3c0.2-0.5,0.3-1.8-0.1-2.8C3484.4-283,3484.2-283.4,3484.3-283.4z M3447.6-282.9l6,0.2l20,18.1l-1.9,0
			l-18.4-16.8l-5.7,0L3447.6-282.9z M3413.1-279.6c-2.3,3.6-2.9,8.2-1.5,12.3c1.1,2.9-1.3,3.1-2.2,1.2c-0.7-1.4-1.2-3.9-0.9-6.5
			c0.3-4.3,2.3-8.6,3.8-9.1C3413.9-282.3,3413.6-280.2,3413.1-279.6z M3495.2-270.9c-0.6,2.8-1.7,4.3-3.3,4.9
			c-6.5,2.4-9.4-10.8-3.3-14C3494.3-281.9,3496-274.6,3495.2-270.9z M3447.2-279.5l5.6,0.1c5.1,4.7,10.7,9.1,16.2,14.8h-2.7
			c0,0-0.8-0.7-1-0.9c-5-4.5-8.7-8.1-13.4-12.2l-5-0.1L3447.2-279.5z M3490.2-278.6c-3,0.1-3.3,4.3-3.2,5.8c0.2,2.3,1.1,5.6,4,5.3
			c2.1-0.2,3.1-2.7,2.9-5.7C3493.7-276,3492.6-278.6,3490.2-278.6z M3446.7-277.3l4.9,0.1c4.4,3.8,9,8,13.5,12.5h-2.2
			c0,0-0.6-0.5-0.7-0.7c-3.7-3.4-7.5-7.1-11.1-10.1l-5.1-0.2L3446.7-277.3z M3490.3-277.1c0.9,0.3,1,2.4,0.3,3.3
			c-0.5,0.6-1.7-0.5-1.8-2C3488.7-276.6,3489.5-277.4,3490.3-277.1z M3408.5-276.8c-0.4,1.4-0.7,2.9-0.8,4.6l-2.1-2.6L3408.5-276.8z
			 M3491.9-274.3c0.5,0,0.9,0.4,0.9,0.9c0,0.5-0.4,0.9-0.9,0.9c-0.5,0-0.9-0.4-0.9-0.9C3491-273.9,3491.4-274.3,3491.9-274.3z
			 M3450.3-273.8l9.9,9.3l-2.8,0l-8.1-7.4l-5.1-0.2l1-1.8L3450.3-273.8z M3488.7-273.7c0.5,0,0.9,0.4,0.9,0.9c0,0.5-0.4,0.9-0.9,0.9
			c-0.5,0-0.9-0.4-0.9-0.9C3487.7-273.3,3488.2-273.7,3488.7-273.7z M3500.4-273.6c5.6,4.3,13.4,10.1,21.6,14.7c0,0-1.3,1.1-2.6,1.4
			c-6.3-3.5-13.9-8.5-18.6-12.5c-4.4,6.5-12.9,18.4-20.4,23.8c-4.8,3.4-7.2,7.6-7.1,12.5c0,5.1,1.8,8.4,6.8,12.6
			c3.2,2.7,6.7,6.1,6.7,6.1l-1.8,1.6c-0.3,0-5.4-4.4-10.5-9.6c-2.8-2.8-4.1-9.1-3.6-12.5c0.7-4.6,2.2-7.9,6.5-11.4
			c1.7-1.3,3.3-2.3,4.8-3.8C3495.6-265.1,3500.4-273.6,3500.4-273.6L3500.4-273.6z M3491.4-271.3c0.5,1.1,0.8,2.4-0.8,2.5
			c-0.9,0.1-1.5-1.5-0.7-2.9C3490.5-272.8,3491.1-271.9,3491.4-271.3L3491.4-271.3z M3443.9-271.6l5.3,0.2c0,0,5.2,4.6,7.9,7.1h17.8
			c9.8,0,17.9,0,17.9,0.1c0.1,0.1-1.3,2-1.3,2l-58.8,0c0,0,3.6-3.2,4.9-4.1C3440-267.9,3442.1-269.4,3443.9-271.6z M3407.9-269.3
			c0.4,1.4,0.7,2.9,1.4,4.2l-4.1,2.2C3405.9-265.2,3406.7-267.2,3407.9-269.3z M3521.2-257.5c-0.8,2.2-2.9,6.7-5.5,10.2
			c-0.5,0.7-0.9,1.2-0.9,1.2l5,4.8l-4.3,4.6c2.4,2.5,4.5,6.4,5.6,9.5c-2-0.8-3.1-1.3-5.5-2.6c-0.7-1.7-1.4-3.6-2.2-5.1
			c-1.8-3.6-1.7-3.2-0.3-4.3c2.1-1.6,2.7-1.9,2.2-2.7c-0.4-0.5-2.9-3.5-3-3.6c-0.2-0.1-0.1-0.6,0.3-1.3c1.4-2.6,2.6-5.5,3.4-8
			L3521.2-257.5z M3522.2-257.3l0.1,30.3c-1.8-3.6-3.7-7.3-5.7-9.6c-0.1-0.2,4.5-4.7,4.5-4.7c-1.7-1.6-2.7-2.5-5-4.7
			C3518.3-249.4,3520.2-253.7,3522.2-257.3z M3395.3-256.3l5.7,3.3c-0.3,4.3-0.7,9.9-1.3,15.6c-0.5,4.4-0.7,6.5,0.1,7.7
			c0.7,0.9,2.5,1.9,2.5,1.9c-3,1.2-4.2,4.8-0.8,7.5c0,0-0.8,0.6-1.2,1l-4.7-3.5L3395.3-256.3z M3485.1-254.7c-1.4,1.6-3.7,4-5.4,5.1
			c-2.3,1.5-5.5,4.4-5.4,4.5c0,0-3.4,0-5.7-0.1l-7.9-7.1c0,0,0.3-0.1-10.5,0c-13.9,0.1-25.1,0-25.1,0l1.6-2.2L3485.1-254.7z
			 M3513.2-253.4c-0.8,2.5-2,4.8-3.5,7c-0.4-1.5-0.5-3.2-1.3-4.5L3513.2-253.4z M3401.8-252.6l0.7,0.5c0,0-0.4,5.2-0.5,6.8
			c-0.2,2.8-0.4,5.4-0.6,8.2c-0.5,5.7-0.4,6.6,0.7,7.4c0.9,0.6,1.4,0.4,0.7-0.5c-0.5-0.6-0.5-0.6-0.7-1.6c-0.1-0.7-0.1-1.7,0.1-4.3
			c0.9-15.1,1-15.6,1-15.6l1.7,1.1c-0.1,0.2,1.6,15.2,1.4,18.9c-0.2,4.4-6,3.4-6.3,0.2c-0.1-0.7,1-13,1-13L3401.8-252.6z
			 M3449.5-251.7l2.3,0.1l14.2,13l4.8,0.1l-0.4,1.6l-4.7,0L3449.5-251.7z M3458.2-251.7h2.2l8.1,7.4l5,0.1l-1,1.4l-5-0.1
			L3458.2-251.7z M3455.5-251.7l12,10.8l4.1,0.2l-0.6,1.5l-4.8-0.1l-13.5-12.4L3455.5-251.7z M3443.9-251.6h2.5l18.7,16.9l4.9,0.1
			l-0.1,1.5l-5.9,0L3443.9-251.6z M3506.9-251.1c1,0.2,1.5,1.2,2.2,4.8c0.8,4.2-0.9,10.9-3.2,12.2c-1.1,0.9-2.4-0.1-1.6-1.2
			c2.6-3.8,3-10.1,1.4-13.6C3505.3-250.2,3505.8-251.4,3506.9-251.1z M3427.5-250.5c6,0.1,7.5,12.4,1.6,14.1c-3.8,0.6-5.8-2.9-6.3-6
			C3422.1-246.3,3423.9-250.6,3427.5-250.5z M3424.2-243.1c0.4,2.5,1.9,5.3,4.1,5.1c2.9-0.3,3.3-4.2,3-6.2c-0.3-2.4-1.7-4.5-3.7-4.6
			C3424.5-249.1,3423.9-245,3424.2-243.1z M3427.4-247.9c0.8,0,1.4,1.1,1.2,2.5c-0.1,0.9-0.5,2-1.5,1.3c-0.5-0.4-0.9-1.7-0.8-2.6
			C3426.4-247.4,3426.7-247.9,3427.4-247.9z M3509.9-245.1l2.8,3.3l-3.2,2.2C3509.9-241.3,3510.1-243.1,3509.9-245.1z M3429.4-244.8
			c0.5,0,0.9,0.4,0.9,0.9c0,0.5-0.4,0.9-0.9,0.9s-0.9-0.4-0.9-0.9C3428.5-244.4,3428.9-244.8,3429.4-244.8z M3426.2-244.2
			c0.5,0,0.9,0.4,0.9,0.9c0,0.5-0.4,0.9-0.9,0.9s-0.9-0.4-0.9-0.9C3425.3-243.8,3425.7-244.2,3426.2-244.2z M3428-243
			c0.5,0.1,0.8,0.6,1,0.9c0.6,0.9,0.7,2.1,0.3,2.5c-0.9,1-2.3-0.1-2.1-1.7C3427.3-242.4,3427.6-243.2,3428-243L3428-243z
			 M3435.9-239.4c1.3,0,1.7,1.6,0.6,2.3c-0.7,0.5-0.9,2.1-0.4,4.3c0.4,1.6,0.2,1.9-0.8,0.4C3433.6-235,3434-239.4,3435.9-239.4
			L3435.9-239.4z M3432.8-238.6c1.2,0,1.5,0.8,0.8,1.5c-0.4,0.4-0.4,1.6,0.1,2.5c0.6,1.4,0.5,1.8-0.7,0.5
			C3431.4-235.8,3431.5-238.5,3432.8-238.6L3432.8-238.6z M3508.9-237.9c1.3,1.7,2.5,4,3.5,6.6l-5.7-2.6L3508.9-237.9z
			 M3426.1-230.9c-0.4-0.5-0.6-2-0.9-2.6c-0.3-0.8-0.5-1.2-0.9-1.2c-2.4,0.2-2.3-2.1-0.9-2.5
			C3426.2-238.2,3427.3-231.3,3426.1-230.9L3426.1-230.9z M3438-233.2c-0.4,1.2-0.1,1.9,0,3.2c0.1,0.6,0.1,0.7-0.4,0.3
			c-1.1-1-1.7-4.4-0.7-5C3438.3-235.6,3438.7-234.2,3438-233.2z M3494.8-234.8c0.6,0,1.2,0.4,1.5,1.2c0.4,1.1,0.4,4,0.2,5.5
			c-0.3,2.3-0.9,4.4-1.1,6c-0.8,1-2.8-2.4-3-5.1c-0.3-2.1,0.4-6.5,2-7.4C3494.5-234.8,3494.6-234.8,3494.8-234.8z M3502.4-234.5
			c0.5,0,0.4,0.1,0.8,0.5c0.6,0.6,0.8,0.7,1.6,1c1.6,0.5,3.4,2.8,2.7,3.5c-0.5,0.4-2-0.4-2.5-0.6c-0.5-0.2-1.2-0.4-1.5-0.5
			c-1.4-0.5-3.3-3-2.7-3.5C3501-234.3,3502-234.5,3502.4-234.5L3502.4-234.5z M3498.5-234.1c1,0,1.3,0.3,1.9,1.3
			c0.9,1.6,2.4,2.7,4.7,3.4c2.9,0.9,5.5,2.6,5.4,5.8c-0.7,0-1.4,0.1-2.1,0.3c-0.8-2.3-2.8-3.6-4.6-4c-4-0.9-7.8-5-6.7-6.6
			C3497.5-234.2,3498-234.1,3498.5-234.1L3498.5-234.1z M3429.1-233.9l34.7,30.3c-14.7-5.5-28.1-5.3-41.1-3.3L3429.1-233.9z
			 M3443.9-231.9c-0.1,0.9-1.4,1.1-1.6,1.4c-0.6,0.6-0.6,2.2-0.3,4.1c0.2,1.1-0.1,1.1-0.7,0.2c-1.1-1.6-1-4.3-0.3-6
			C3441.9-234.2,3444-233.2,3443.9-231.9L3443.9-231.9z M3424-233.3c1.3,0.1,1.7,2,1.8,3.2c0,1.7-0.5,1.6-0.7,0
			c-0.1-0.7-0.3-1-0.9-1.2C3422.8-231.7,3422.7-233.3,3424-233.3z M3440.1-231.5c-0.3,0.4-0.3,2.1,0,3.3c0.2,0.7-0.1,0.7-0.6,0.2
			c-1.4-1.7-1.6-4.6-0.2-5.1C3440.3-233.4,3440.6-232,3440.1-231.5z M3425.1-228.1c0,1.7-0.4,1.8-0.9,0.2c-0.1-0.4-0.4-0.8-0.5-0.9
			c-0.9-0.6-1.1-1.2-0.6-1.7C3424.5-231.5,3425.1-228.6,3425.1-228.1z M3430.2-229.6l-4.7,20.1c11.6-1,16.9-1.2,29.2,1.2
			L3430.2-229.6z M3444.2-229.3c0.7,0.2,1,1.1,0.1,2c-0.3,0.3-0.5,0.9-0.2,2.3c0.5,1.9-0.3,1.3-1.2-0.5
			C3442.3-226.7,3442.6-229.7,3444.2-229.3z M3422-229.2c1.3,0,2.4,2,2.4,4.3c0,1.8-0.2,1.7-0.9,0c-0.5-1.1-0.9-1.6-1.7-1.9
			C3420.3-227.4,3420.4-229.2,3422-229.2z M3430.5-228.6l21.8,19.1c-8.9-1.4-17.7-1.5-26.2-0.5L3430.5-228.6z M3448.7-227.9
			c1.7,0,2.4,2.1,0.3,2.9c-1.2,0.4-0.7,3-0.5,4.5c0.1,0.6-0.1,0.6-0.5,0.1C3446.7-222.4,3446-227.3,3448.7-227.9L3448.7-227.9z
			 M3446.4-225.5c-0.3,0.5-0.3,1-0.1,2c0.6,2,0.7,2.4-0.5,1.4c-1.2-1.3-1.8-3.9-0.7-4.6C3446.2-227.6,3447.2-226.7,3446.4-225.5
			L3446.4-225.5z M3403.3-227.1c2,0,3.5,1.3,3.4,3.1c-0.1,2-1.3,3.3-3.2,3.4c-2.1,0.1-3.3-1.5-3.4-3.3
			C3400.1-225.3,3401-227.1,3403.3-227.1L3403.3-227.1z M3403.3-226.3c-2.3,0-3.2,3.1-1.3,4.5c0.8,0.6,1.5,0.4,0.8-0.2
			c-1.3-1.2-0.8-3.2,0.9-3.6C3404.5-225.8,3404.2-226.3,3403.3-226.3L3403.3-226.3z M3431.5-225.8l-2.8,13.6
			c5.7-0.9,12.6-0.6,17.9-0.1L3431.5-225.8z M3422.1-225.2c1.4-0.1,1.8,2,1.8,2.9c0,1.1-0.1,1.6-0.3,1.1c-0.5-1.4-0.9-2.1-1.4-2.1
			c-0.3-0.1-0.5-0.2-0.7-0.4C3420.9-224.5,3421.4-225.2,3422.1-225.2z M3431.7-224.7l1.8,1.6c-1.2-0.5-2.2,0.8-2.2,0.8L3431.7-224.7
			z M3450.6-222.1c-0.5,0.7-0.5,2.1-0.1,3.7c0.1,0.5-0.3,0.1-0.7-0.4c-0.8-1-1.2-2.3-1.1-3.3
			C3448.9-224.6,3452.1-224.1,3450.6-222.1z M3421.6-223.3c1.2,0.1,1.6,2.6,1.6,3.4c0,0.8-0.2,1.3-0.4,0.8c-0.3-1-0.9-2.5-1.5-2.9
			C3420.4-222.6,3420.6-223.3,3421.6-223.3z M3512.6-220.6c0,0.9-0.3,1.8-0.9,2.1c-0.6,0.3-0.9-0.1-1.2-1.1c-0.2-0.7-0.3-1-0.3-1
			s-0.2,0.9-0.3,1.1c-0.4,1.3-1.8,1.3-2.4-0.1c-0.6-1.7,1.1-3.4,2.5-3.3C3511.5-222.9,3512.6-222,3512.6-220.6L3512.6-220.6z
			 M3433.2-222.4c0.4,0,2,0.7,2,0.7l1.6,1.4c0,0-1.5-0.6-2-0.8c-1.2-0.4-1.2-0.4-2.2,0.4c-1,0.9-1.9,1.5-1.9,1.5l0.3-1.8
			C3431-221.1,3432.5-222.4,3433.2-222.4L3433.2-222.4z M3422.6-217.9c0.2,1.9-0.3,2.1-0.8,0.3c-0.5-1.6-0.9-2.2-1.7-2.2
			c-1.4,0.2-1.9-1.9-0.6-2.3C3421.9-222.8,3422.5-218.7,3422.6-217.9z M3504.5-222.2l2.2,1l0.5,2.3l-2-0.5L3504.5-222.2z
			 M3455.1-222c2.1-0.6,2.4,2.1,0.8,2.5c-1,0.2-1,1.8-0.7,4c0.1,0.5,0.2,1.1,0.2,1.2c-0.2,0.4-0.7-0.2-1.3-1.7
			C3453-218.5,3453.3-221.5,3455.1-222L3455.1-222z M3515.8-222l-0.6,2.6l-1.9-0.1l-0.1-1.6L3515.8-222z M3452.9-220.3
			c-1,1.5-0.1,2.9,0.1,4c0,0.7-0.8,0-1.3-1c-1-2.1-1.1-3.7-0.2-4.4C3452.9-222.5,3453.5-221.1,3452.9-220.3z M3433.8-220.6
			c0.4,0,0.9,0.2,1.9,0.6c0.8,0.3,2.6,1,2.6,1l2.4,2.1c0,0-2.1-0.8-3.5-1.4c-3.3-1.4-2.8-1.4-5.4,0.5c-0.7,0.6-1.5,1.2-1.5,1.2
			l0.3-1.7c0,0,1-1,2.2-1.9C3433.2-220.5,3433.4-220.6,3433.8-220.6L3433.8-220.6z M3403.3-219.8c1.7,0,2.8,1.3,3.2,2.8
			c0.2,0.9,0,1.7,0,2.5c-1.2,8.9-1.7,17.2-2.7,25.4c-0.1,0.4-0.3,0.2-0.4-0.5c-1.2-7.5-2-15.7-3.1-23.1c-0.2-2.8-0.9-6.4,2.5-7.1
			C3402.9-219.8,3403.1-219.8,3403.3-219.8L3403.3-219.8z M3403.2-218.9c-0.7,0-1.6,0.5-1.9,1.2c-0.6,1.3-0.5,4.1,0.7,12.3
			c0.1,0.7,0.2,1.8,0.3,2.5c0.2,2.2,0.5,3.9,0.7,4.2c0.4,0.6,0.4,0,0.2-2.2c-0.1-1.1-0.3-2.7-0.4-3.7c-0.5-3.9-0.7-6.6-1-10.2
			c-0.2-1.7,0.5-3,1.8-3.4c0.7-0.2,0.7-0.5,0.1-0.7C3403.5-218.8,3403.4-218.9,3403.2-218.9z M3514.2-218.7c2.5,0,3.4,3.4,1,4.7
			c-0.9,0.5-2.4,0.2-2.8-0.5c-0.2-0.6,0-0.9,0.5-1.1c0.5-0.3,1.3-0.5,1.3-0.5s-1.3-0.3-1.7-0.9
			C3511.8-218.4,3513.2-218.7,3514.2-218.7L3514.2-218.7z M3422-215c0,0.6-0.4,0.4-0.4,0c-0.3-0.9-0.8-1.8-1.3-2.2
			c-0.6-0.5-0.7-1.1-0.3-1.4C3421.4-219.9,3422-215.4,3422-215L3422-215z M3505.2-218.8c0.6,0,1.5,0.2,2,0.7c0.7,0.7,0.7,1-0.5,1.4
			c-0.6,0.2-1,0.4-1,0.4s0.5,0.2,0.9,0.3c1.1,0.4,1.1,1,0,1.8c-1.4,1-3.7-0.3-3.6-2.2C3503.1-217.8,3504-218.7,3505.2-218.8
			L3505.2-218.8z M3510.3-218.8l2.2,2.5l-2.6,2.7l-2.5-2.7L3510.3-218.8z M3434.2-218.5C3434.2-218.5,3434.3-218.5,3434.2-218.5
			c0.8,0,1.9,0.5,4.6,1.6c1.5,0.6,3.2,1.3,3.2,1.3l2.4,2.2c0,0-3.3-1.1-4.5-1.6c-0.3-0.1-0.8-0.4-1.2-0.5c-0.4-0.2-1.5-0.6-2.4-0.9
			c-1.9-0.8-1.9-0.8-2.5-0.2c-0.3,0.2-0.9,0.7-1.5,1.1c-0.5,0.4-1.3,1-1.7,1.3c-0.5,0.4-1.1,0.9-1.1,0.9l0.4-2.1c0,0,0.4-0.3,1-0.8
			c0.5-0.4,1.4-1.1,1.9-1.5C3433.4-218.2,3433.7-218.5,3434.2-218.5z M3458.3-216.7c0.1,0.4,0,0.5-0.5,1c-0.6,0.6-0.7,1.7-0.3,3.1
			c0.1,0.4,0.3,0.8,0.2,0.9c-0.7,0.7-2.4-3.6-2-4.8C3456.3-218,3457.9-218.1,3458.3-216.7L3458.3-216.7z M3419.8-216.5
			c0.5,0,1,0.3,1.3,1.1c0.7,2,0.3,4.5-0.5,2.2c-0.2-0.5-0.5-1-0.8-1.3c-0.3-0.3-0.8-0.6-0.8-1
			C3419.1-216.2,3419.4-216.5,3419.8-216.5z M3434.8-216.5c0.3,0,0.7,0.2,1.4,0.4c0.6,0.3,2.4,0.9,3.4,1.3c1.6,0.6,3.2,1.4,3.2,1.4
			l-3.6-0.2c0,0-1.2-0.4-1.9-0.7c-2.6-1.1-2.5-1.1-3.8-0.1c-0.5,0.4-1.1,0.9-1.1,0.9l-1.8,0.1c0,0,0.9-0.9,2.1-1.8
			c0.4-0.3,1-0.7,1.2-1C3434.3-216.3,3434.5-216.5,3434.8-216.5L3434.8-216.5z M3462.8-215.7c1-0.2,1.5,0.8,1.5,1.4
			c-0.1,0.7-0.7,1.3-1.6,1.5c-0.2,0.7-0.8,2.4-0.4,4.9c0.3,1.2-0.2,1.2-0.7,0.1C3460.7-209.8,3459.6-215.1,3462.8-215.7
			L3462.8-215.7z M3460-213.8c-0.4,0.9-0.6,1.6-0.3,2.8c0.3,1.3,0.3,1.6-0.4,0.8c-1.4-1.9-1.6-4.8-0.3-5.2
			C3460.2-215.7,3460.4-214.3,3460-213.8z M3418.2-215.1c2.2,0.3,2.8,4.1,2.5,5.7c-0.6,1.9-0.5,0.6-0.7-0.2c-0.5-1.9-1.2-3-1.8-3.1
			C3416.3-213.1,3416.6-215.4,3418.2-215.1z M3434.9-214.4c0,0,0.1,0,0.1,0c0.7,0.1,2.6,0.7,1.8,0.9l-2.8,0
			C3433.4-213.5,3434.3-214.4,3434.9-214.4L3434.9-214.4z M3511.1-213.8c0.3,0,0.6,0.3,1.1,0.7c1,1,0.6,2.7-0.8,3.5
			c-2.1,1.3-4.6-1.1-3.4-3.3c0.6-1.2,1.4-1,2.1,0.7c0.1,0.2,0-0.2,0.2-0.7C3510.5-213.4,3510.8-213.8,3511.1-213.8z M3507.5-213.7
			l-0.6,2.6l-2.6,1.3l1-3.2L3507.5-213.7z M3512.9-213.2l2.1,0.2l1.2,3.4l-3-1.3L3512.9-213.2z M3463.9-211.3
			c1.5,0.1,1.7,1.5,0.8,2.1c-0.5,0.5-0.7,1.1-0.6,2.2c0,0.5,0.1,1.1,0.1,1.1c0,0.2-0.2,0.2-0.5-0.1
			C3462.2-207.7,3462.4-211.4,3463.9-211.3z M3418.3-210.8c1,0,2,2.7,1.5,3.8c-0.3,0.6-0.7,0.5-0.8-0.3c-0.1-0.5-0.4-1.2-1.2-1.4
			C3416.7-209,3417.1-210.8,3418.3-210.8z M3466.7-209.1c0.7,0.4,0.8,1.2,0.1,1.7c-0.5,0.4-0.6,0.7-0.7,1.7c0.2,2.3-1.1,0.8-1.2-1.2
			C3464.8-208.1,3465.4-209.8,3466.7-209.1z M3417.5-208.4c0.7,0,1.5,1.2,1.3,2c-0.1,0.6-0.4,0.5-0.8,0c-0.2-0.1-0.5-0.3-0.7-0.3
			C3416.3-207,3416.4-208.4,3417.5-208.4L3417.5-208.4z M3437-207.5c9.3,0,18.9,1.4,26.9,4.6l-0.7,1.2l-2.1-0.7l-0.7,1.9l1.7,0.7
			l-0.8,1.8c-9.5-3.1-19.7-5.4-36.6-2.9c-0.8-0.6-2.4-1.7-2.4-1.7l1.4-0.3l-0.2-1.9l-3.4,0.6l-1-1
			C3424.5-206.7,3430.6-207.4,3437-207.5L3437-207.5z M3468.1-207.1c0.9,0,1.4,1,0.8,1.4c-0.5,0.3-1.5,0.4-1.7,0.1
			C3466.8-206,3467.4-207.1,3468.1-207.1z M3435.7-205.9l0,2l2.8-0.1l0.1-1.9L3435.7-205.9z M3440.6-205.9l0,1.9l2.7,0.1l0.1-1.9
			L3440.6-205.9z M3433.5-205.7l-2.7,0.2l0.1,1.8l2.7-0.1L3433.5-205.7z M3445.7-205.4l-0.1,1.9l2.8,0.3l0.2-1.9L3445.7-205.4z
			 M3428.3-205.3l-2.8,0.4l0.2,1.8l2.7-0.3L3428.3-205.3z M3451.1-204.7l-0.3,1.9l2.6,0.4l0.3-1.8L3451.1-204.7z M3456.2-203.6
			l-0.3,2l2.6,0.6l0.4-1.8L3456.2-203.6z M3437.6-201.4c8.7,0,16.6,1.5,23.3,4c0,0-0.9,1.9-1.2,2.1c-4.8-1.9-13-3.7-18.5-3.8
			c-2-0.1-2.5-0.1-3.2-0.4c-4.2-1.4-7.9-2-11.3,0.1l-1.4-1C3429.6-201.1,3433.7-201.4,3437.6-201.4z M3400.9-190.2
			c2,0,2.9,3.1,0.8,4.4c-0.6,0.3-1.3,0.3-1.9,0c-1.7-0.8-1.8-3.4,0.2-4.2C3400.3-190.2,3400.6-190.2,3400.9-190.2L3400.9-190.2z
			 M3465.9-190.1c0.7,0.4,3.3,1.6,3.3,1.6l-18.5,33.5l-4.5,0L3465.9-190.1z M3406.3-190c1.1-0.1,1.9,0.8,2.2,1.6
			c0.4,1.1-0.3,3-2.3,2.9C3404-185.6,3403-189.7,3406.3-190z M3469.8-188.3c0.5,0.3,2.3,0.6,2.4,0.9c0.1,0.2-0.1,0.5-0.1,1
			c-0.1,1.1,0.2,2.2,0.8,3.2c1.1,1.5-0.1,0.8-1.1,0.8c-2.4-0.6-5.4,2.6-4.2,6c0.3,0.7,0.2,0.8-1.1,1.2c-2.9,0.9-4.1,4-2.8,6.7
			c0.7,1.4,0.7,1.4-0.5,1.5c-3.5,0.3-5.6,3.4-4.1,6.7c0.2,0.5,0.1,0.6-0.7,0.8c-2.4,0.4-3.5,2.5-3.8,4.7l-3.2,0L3469.8-188.3z
			 M3472.9-187.1l6.1,1.7c-2.5,8.7-2.9,18.8,0.2,30.4l-14.1,0c2-1.8,1.2-4.2-1.1-4.7c2.2-1.3,2.2-4.7-0.4-5.1
			c-2.3-0.4-3.5,1.9-2.5,4.1l-1,0.3c0,0-0.4-0.6-0.5-0.9c-0.9-2.6,1-5.1,4.1-5.1c1.9,0,2.3-0.5,1.3-1.7c-1.9-2.1-1.3-5.1,1.2-6.3
			c1.2-0.5,1.8-0.2,1.8-0.2l0.1,1.4c0,0-0.5,0-0.8,0.1c-2.8,0.4-2.3,4.9,0.6,4.8c1.5,0,2.7-1.2,2.7-2.9c0-0.5,0-1.2,0-1.2
			c1.4,2.4,3.9,2.6,4.9,0.6c1.2-2.3-1-3.8-3.2-3.6c0,0,0.5-0.3,0.8-0.5c2.4-1.2,1.6-4.7-1.1-4.7c-1.8,0-2.8,1.7-2.3,3.5
			c0.1,0.3,0.3,0.7,0.3,0.7l-1.1,0.3c0,0-0.2-0.2-0.4-0.4c-1.8-2.9,1.1-6,4.8-5.3c1.4,0.4,1.3-0.5,0.6-1.4
			C3472.9-184.3,3472.3-185.7,3472.9-187.1L3472.9-187.1z M3403.6-185.9l3.2,5.7l-3.6,6.6l-3.6-6.1L3403.6-185.9z M3403.3-182.9
			l-2.2,3.1l2.2,3.5l2.1-3.6L3403.3-182.9z M3403.2-181.7l1.5,2l-1.5,2.4l-1.4-2.3L3403.2-181.7z M3469.7-175.6
			c0.7,0,1.2,0.5,1.2,1.2s-0.6,1.2-1.2,1.2c-0.7,0-1.2-0.5-1.2-1.2S3469-175.6,3469.7-175.6z M3461-160.2c0.7,0,1.3,0.6,1.3,1.3
			s-0.6,1.3-1.3,1.3c-0.7,0-1.3-0.6-1.3-1.3S3460.3-160.2,3461-160.2z M3459.1-159.3c-0.1,0,0,1.2,0.3,1.6c-1.8,0.1-2.3,1.5-2.5,2.7
			l-1.6,0C3455.5-159,3459-159.1,3459.1-159.3L3459.1-159.3z"/>
		<path id="path153-6-3-1-9-55-1-6" d="M3417.6-356.8c-7.3,10.5-15.2,16.5-15.3,24.7c0,2.7,1.4,7.2,5.9,8c2.9,0.6,6.9-1.8,7-6.6
			c0-1,1-0.9,1,0.4c-0.1,3.8-1.3,8.2-3.3,11.8c3.2,0,6.4,0,9.6,0c-2-3.6-3.2-8-3.3-11.8c0-1.3,1-1.3,1-0.4c0.1,4.8,4.1,7.1,7,6.6
			c4.5-0.9,5.9-5.4,5.9-8C3432.8-340.3,3424.9-346.3,3417.6-356.8z"/>
		<path id="path153-6-3-1-8-6-8-8-0" d="M3500-160.3c-7.3-10.5-15.2-16.5-15.3-24.7c0-2.7,1.4-7.2,5.9-8c2.9-0.6,6.9,1.8,7,6.6
			c0,1,1,0.9,1-0.4c-0.1-3.8-1.3-8.2-3.3-11.8c3.2,0,6.4,0,9.6,0c-2,3.6-3.2,8-3.3,11.8c0,1.3,1,1.3,1,0.4c0.1-4.8,4.1-7.1,7-6.6
			c4.5,0.9,5.9,5.4,5.9,8C3515.2-176.8,3507.4-170.8,3500-160.3L3500-160.3z"/>
	</g>
</g>
</svg>
