<?xml version="1.0" encoding="utf-8"?>
<!DOCTYPE svg PUBLIC "-//W3C//DTD SVG 1.1//EN" "http://www.w3.org/Graphics/SVG/1.1/DTD/svg11.dtd">
<svg version="1.1"
	 id="svg5093" xmlns:rdf="http://www.w3.org/1999/02/22-rdf-syntax-ns#" xmlns:dc="http://purl.org/dc/elements/1.1/" xmlns:cc="http://creativecommons.org/ns#" xmlns:svg="http://www.w3.org/2000/svg"
	 xmlns="http://www.w3.org/2000/svg" xmlns:xlink="http://www.w3.org/1999/xlink" x="0px" y="0px" width="178.6px" height="249.4px"
	 viewBox="0 0 178.6 249.4" enable-background="new 0 0 178.6 249.4" xml:space="preserve">
<g id="layer1" transform="translate(-91.242961,-87.885249)">
	<g id="g4922" transform="matrix(0.99999718,0,0,1.000002,-3542.4828,1176.7553)">
		<path id="rect6355-6-85-3-64-3-5" fill="#FBFBF6" stroke="#7F7F7F" stroke-width="0.4" d="M3642.6-1088.5h160.8
			c4.7,0,8.5,3.8,8.5,8.5v231.6c0,4.7-3.8,8.5-8.5,8.5h-160.8c-4.7,0-8.5-3.8-8.5-8.5V-1080
			C3634.1-1084.7,3637.9-1088.5,3642.6-1088.5z"/>
		<path id="path147-6-9-8-7-0-5-6-9-6-3" d="M3798.2-879.7c3.1-0.1,4.5-3.7,2.2-6.6c-0.3-0.4-0.4-0.7,0.2-0.3
			c1.6,1.1,4.6,0.4,4.7-2.9c0.2-4.1-5.3-5.3-6.3-0.9c-0.1,0.5-0.4,0.4-0.3-0.2c0.1-1.8,0.6-3.4,1.4-5c-1.2,0-2.5,0-3.7,0
			c0.7,1.6,1.3,3.3,1.4,5c0.1,0.7-0.3,0.7-0.3,0.2c-1-4.4-6.5-3.2-6.3,0.9c0.2,3.3,3.1,4,4.7,2.9c0.6-0.4,0.6-0.2,0.2,0.3
			C3793.7-883.4,3795.1-879.7,3798.2-879.7C3798.2-879.7,3798.2-879.7,3798.2-879.7L3798.2-879.7z"/>
		<path id="path147-6-9-8-7-4-5-62-08-0-2" d="M3647.8-1048.6c-3.1,0.1-4.5,3.7-2.2,6.6c0.3,0.4,0.4,0.7-0.2,0.3
			c-1.6-1.1-4.6-0.4-4.7,2.9c-0.2,4.1,5.3,5.3,6.3,0.9c0.1-0.5,0.4-0.4,0.3,0.2c-0.1,1.8-0.6,3.4-1.4,5c1.2,0,2.5,0,3.7,0
			c-0.7-1.6-1.3-3.3-1.4-5c-0.1-0.7,0.3-0.7,0.3-0.2c1,4.4,6.5,3.2,6.3-0.9c-0.2-3.3-3.1-4-4.7-2.9c-0.6,0.4-0.6,0.2-0.2-0.3
			C3652.4-1044.9,3651-1048.5,3647.8-1048.6L3647.8-1048.6L3647.8-1048.6z"/>
		<path id="path39-7-2-1" d="M3648.5-1054h2.6l-3.9-9.7l-3,4.1l0,5.6h2.1v2.9h-7.3v-2.9h2.4v-20.9l-2.4,0v-2.5h7.5v2.6h-2.1l0,10.2
			l6.5-10.3h-2.3v-2.5h7.9v2.5h-2.1l-5.4,8.4l5.2,12.5h2.3l0,2.9h-8.2L3648.5-1054L3648.5-1054z"/>
		<path id="path39-3-8-1-1" d="M3797.6-874.3h-2.6l3.9,9.7l3-4.1l0-5.6h-2.1v-2.9h7.3v2.9h-2.4v20.9l2.4,0v2.5h-7.5v-2.6h2.1l0-10.2
			l-6.5,10.3h2.3v2.5h-7.9v-2.5h2.1l5.4-8.4l-5.2-12.5h-2.3l0-2.9h8.2L3797.6-874.3L3797.6-874.3z"/>
		<g id="g5429-3-1-8" transform="matrix(1.0146544,0,0,1.0241582,3367.1174,-1472.4599)">
			<g id="layer1-6-4-4-1">
				<g id="KC-7-1-9" transform="translate(-735.6996,-760.44497)">
					<g id="g4858-5-1-5-4" transform="translate(-1318.1979,540.76888)">
					</g>
					<g id="g3440-6-4-8" transform="matrix(0.15086704,-0.00311503,0.00311532,0.15083482,965.0168,1197.8387)">
						<g id="g3454-7-1-1" transform="translate(346.10401,401.33141)">
							<path id="path3450-5-0-3" fill="#E2CF00" d="M721-659.5l-426.9-6.7l52.1,103.8c111.1-7.7,208.2,3.2,309.4,8.6L721-659.5z
								 M422-304.4c-0.5,0.6-17.9,4.7-16.2,8.7C449.1-198,467.6-118.8,484.4-19c9.7-7.6,25.1-6.9,25.1-6.9
								c-6.9-37.1,39.8-40.7,39.3-2.1c8.9,2.3,18.1,2.5,26,11.7c5.9-108.6,47.2-220.3,99.2-297.2c-57.9,21.5-143.2,76.4-143.2,76.4
								S461.3-267.5,422-304.4L422-304.4z M770.7-285.6C692.8-214.7,658.7-14,664.1-11.1c-98.4-5.3-130.5,102.6-46.3,162.9
								c-3.6,11.3-12.1,20.3-18.8,30.2c8.7,5.2,18.3,6.5,27.9,7.8c7.1,8.8,14.1,18.9,22,19.9c8.7-5.2,15-13,22.3-19.7
								c9-2.1,17.9-4.4,26.4-8.1c-7.3-10.6-16-21.4-16-31.2C756.8,99.9,748.1,28.5,682-9.3c22.4-119.4,53.1-195.3,87.9-249
								L770.7-285.6z M242.7-203.9c-9.8,4.5-15.3,14.4-22.5,22.1c-9.7,0.2-19.1,3.3-28.3,7.3c0,0,21.5,31,20.1,32.6
								C139.2-96.4,138.3-27.7,206.3,19c9.7,98-76.6,251-80.7,246.5l-0.8,32c60.5-63.4,96.7-179.4,102-273.6
								c118.3-5.4,124.8-119.4,44.4-164C265-146,292.2-172,292.2-172c-6.6-6.8-18-7.8-27.9-8.8C258.2-188.4,252.9-196,242.7-203.9z
								 M740.5-114.7c15.9,37.5,77.9-6.5,88,13.5c8.4,11.4,27.1,12.9,26.4-6c-3.1-18.8-15.4-23.2-64.4-16
								c-18.6,2.7-26.2,4.4-25.9-4.1C752.2-143,740.8-122.2,740.5-114.7z M796.1-59.3c-13.7-0.3-17.1,53.2-17.3,69.3
								C737.9,71.8,859,67.2,808.1-2.1c2-8.9-6.2-23.6-5.8-30C798-32.8,796.6-57,796.1-59.3z M86.3,6.8c-1.6,16.2,9.3,65.6,13.7,64
								c16-24.6,14.6-46,13.5-70.4C151.9-69.9,25.2-43.4,86.3,6.8z M316.2,23c-7.7,104.5-35.4,206.5-95.3,294.3
								c50.5-22.3,99.6-51.3,147.1-76.1l108.3,70.2c6.4-2.6,10.8-3.9,15.1-8c-49-75-62.5-181.7-82.5-278.4
								c-8.5,5.8-24.3,8.4-24.3,8.4c-1.8,33.4-37.1,43.5-43.3-0.2L316.2,23z M49.8,99.1c-11.7,0.5-21.1,29.3,11.9,34.3
								c23.3,3.8,53.5-7.1,68.3-1.5c16.7,27.9,33.1-12.3,10.1-19.4c-24.6-7.6-75.5,9.9-80.8-6C56.5,101.1,53.1,99,49.8,99.1z
								 M239.4,556.2l-68.6,115.5l423.1,6.2l-53-112.6C541.9,564.1,355.7,583.5,239.4,556.2z"/>
							<path id="path3446-6-3-4" fill="#D40000" d="M352.6-551.1l8.1,15.4c99.4-14.3,177.5-15.2,279.6,6.7l9.7-15.6
								C556.7-563.4,461.5-572.4,352.6-551.1z M441.3-320.1l85.3,57.7c0,0,42-28.4,59.9-40.4l-10.4-16
								C538-238.8,475-303.9,451.7-342.4C451.7-342.4,444.8-327.8,441.3-320.1z M673-288.2c6,0,9.3,2.4,12.1,8.5
								c3.3,7,4.6,5.3,2.6-3.3c-3.2-13.6,11.4-22.1,24.8-12.8c9.7,6.7,8.9,22.5-1.9,25.2c-8.7,2.2-9,4.4-1.4,4.2
								c13.6-0.4,16.9,17.9,7,26.5c-11.3,10-25.4,2.5-26.4-10.4c-0.5-3.6-1.3-3.6-2.5-1.6c-3.6,5.8-4,13.5-3.5,20.5L664-244.2
								c7.2-3.4,11.6-5.4,16.9-10.7c0.7-0.7,1.2-1.2,1.2-1.5c0-0.6-2.2,0.1-6.3,0.5c-12.2,1-21.4-7.1-18.6-18.4
								C659.5-284,664.6-288.2,673-288.2L673-288.2z M577.8,25.6c22.4-24.6,49.9-40.1,87.6-37.1c7-104.8,45.2-197.2,105.2-280
								l-63.3-39.8l-26,15C620.4-229.6,577.6-119.5,577.8,25.6z M102.8-229.4c0,0-44,31.6-64.5,46.9l-5,289.2l5.6,2
								c0.4,0.6-0.4-4.3,2.2-6.5c2.1-1.8,5.5-3.8,7.5-4.5c5.6-1.9,5.9-5.6,0.8-8.9c-4-2.6-5.4-6.5-4.8-12.9c0.4-4.5,0.2-5.5-1.6-8.6
								c-2.3-3.9-2.4-8.7-0.3-13.7c1-2.3,0.9-2.9-0.7-6.1c-2-4-2.2-8.4-0.5-13c0.6-1.8,1.1-5.6,1.2-8.6c0-11.5,9.7-19,27.3-21
								C76.8,4.2,77,3.9,74-1.9c-17.1-32.8,23.2-48.9,26.1-43.7L102.8-229.4z M649.5-201.9c16.2,0.1,29.3,13.3,29.2,29.6
								c-0.1,16.2-13.3,29.3-29.6,29.2c-16.2-0.1-29.3-13.3-29.2-29.6C620.1-189,633.3-202,649.5-201.9z M649.7-196.7
								c-13-0.1-23.6,10.4-23.7,23.4c-0.1,13,10.4,23.6,23.4,23.7c13,0.1,23.6-10.4,23.7-23.4C673.2-186,662.7-196.6,649.7-196.7z
								 M650.1-189.2c8.8,0,15.9,7.2,15.9,16c-0.1,8.8-7.3,15.9-16.1,15.9c-8.8,0-15.9-7.3-15.8-16.1
								C634.2-182.2,641.3-189.3,650.1-189.2z M66.6-189.2c1.2,0,2.5,0.2,3.7,0.6c7.3,2.5,9.7,9,5.6,15c-3.2,4.7-2.9,5.2,2.6,3.2
								c4.3-1.5,6.5-1,9.8,2.5c9.9,10.2-5.5,26.8-15.2,16.4c-4.8-5.2-5.3-3.7-2.1,5.1c1,2.8,2.8,7.3,2.8,7.3l-14.5-0.5
								c0,0,2.4-5.8,3.5-8.5c2.6-6.5,2.8-7.5-2.6-3.5c-12,9.1-25.1-7.2-14-17.4c2.3-2.1,5.8-2.1,10.7-0.1c3.6,1.5,4,0.5,1.4-2.9
								C52.6-179.5,58.3-189.2,66.6-189.2z M367.7-157c-6.7,38.6-2.7,93.1-3.4,122.2c15.7,3.3,15.7,14.1,17.8,27.5
								c7.7-2.5,24.3,9.2,26.6,8.2C411.2-38.5,393.1-153,367.7-157z M628.6-112.8c22.4,2.3,17.7,19.5,10.9,26.4
								c-3.2,3.6-2.7,5.2,0.8,3.2c9.6-5.5,17-1.2,19.8,8.7c4.9,16.9-17.5,31-27.1,15.7c-3.2-5.2-5.3-4.1-4.6,1.3
								c0.4,5.2,5.2,16,5.2,16L611.8-44c0,0,6.9-11,8.2-14c2.6-6.2,1.3-7.9-3.5-2.9c-14,12.3-32.7-4.2-23.5-20.7
								c4.5-8.1,12.7-10.6,21.2-3.9c5.8,4,7.1,2.3,1.9-2.4C606.5-96.9,615.5-114.1,628.6-112.8L628.6-112.8z M66.1-110.7
								c0.3,0,0.5,0,0.8,0c1.9,0.1,3.8,0.6,5.8,1.8c5.4,3.2,6.8,9.3,3.2,14.5c-2,3-1.5,4.9,0.8,3c3.1-2.6,9.8-0.7,12.4,3.5
								c6.6,10.8-7,24.4-15.2,15.4c-3.6-4-5.1-4.2-4.7-1.6c1.1,4.8,4.1,13.1,4.1,13.1l-15.2,0c0,0,3.5-8.6,4.3-12.9
								c0.6-3.5-0.8-3-4.5,1c-3.6,3.9-6.8,4.3-11.3,1.2c-10.9-7.6-1.7-26.3,9.8-19.7c3.9,2.3,4.5,1,1.5-3.2
								C52.4-102.2,58.3-110.5,66.1-110.7L66.1-110.7z M856.3-101.1c-25.2,25-17.1,10.1-6.1,29.7c-0.2,12.8,7,23,0.7,43
								c-2,3.9-2.2,5.8-1.2,9.8C847.4,3.7,829.6,3,812.1,6.1C815,6,838.7,52,792.7,54.6l-3.3,185.1l73.2-51.7l5.7-289L856.3-101.1z
								 M313.3-14.5c-20.7,12.8-50.1,45.1-86.1,37.2c-6.8,115.4-46.5,204.1-102.2,279.8c18.4,11.4,38.7,25.1,57.6,34
								c16.3-8,25.5-11.3,41.6-24C291.3,213.4,314.2,104,313.3-14.5z M482.6,10.1c2.4,59.4,10.9,115.8,40.8,161.5l4.7-126
								c-10.9-2.9-19.8-10.2-22.6-30.4L482.6,10.1z M258.9,40.5l20.6,0.9c0,0-4.9,9.2-7,14.4c-2.6,6.3-1.5,7.6,3.3,3.3
								c6.2-5.6,16-6,21-0.7c13.3,13.9-1.4,35.9-17.3,25.8c-6.8-4.3-8-2.9-2.6,3.1c10.5,10.1-1,24.1-13.4,23.9
								c-9-0.2-14.7-7.5-15.2-15.5c-0.2-5,2.4-9.9,6.7-12.3c4.6-2.4,1.4-4.2-3.6-1.6c-16.2,8.3-26.4-14.1-14.1-26.4
								c7.1-7.1,14.5-6.3,21.4,0.8c4.8,4.9,6.6,4.5,5.3-1.2C262.8,48.5,258.9,40.5,258.9,40.5L258.9,40.5z M815,69.3l14.8,0.3
								c-1.5,3.6-3.5,7.3-4.7,10.9c-1.3,3.9-0.4,4.4,3.6,0.7c10.3-6.6,21,0.4,18.6,11.2c-1.7,7.4-8,11-15.2,7.6
								c-6.3-3-4.3-1.7-0.8,2.7c4.2,5.3,3,11.3-2.8,15.2c-10.2,6.9-23.3-5.2-16.4-15.3c4.1-6,2.2-5.4-1.4-2.5
								c-5.5,3.8-13.5-1.9-13.5-9.6c-0.4-11.1,10.9-17.1,18.7-9.1c3.7,3.2,4.6,2.9,3-1.8C817.4,76.2,817,72.7,815,69.3z
								 M814.1,150.1l15.5,0.1c0,0-0.2,1.2-2.7,5.6c-2.9,5.2-2.6,10.7,0.4,7c5.1-6.1,15.5-4.2,18.8,3.5c3.8,9-4.2,18.6-12.2,14.7
								c-5.2-2.5-5.6-2-2.2,3.1c3.3,5,1.7,11-3.9,14.4c-11,6.7-23.8-7.4-14.5-16.1c2.5-2.3,1.7-3.5-1.2-2
								c-12.1,6.3-20.7-10.1-10.1-19.4c4.5-4,7.9-3.6,15,1.6c2.2,1.6,2.7,0,1.1-4C815.5,151.9,814.1,150.1,814.1,150.1z
								 M239.2,147.9c17.2,0.1,31.1,14.2,31,31.4c-0.1,17.2-14.1,31.1-31.4,31c-17.2-0.1-31.1-14.2-31-31.4
								C207.9,161.7,222,147.8,239.2,147.9z M239.5,153.5c-14.2-0.1-25.7,11.3-25.8,25.5c-0.1,14.2,11.3,25.7,25.5,25.8
								c14.2,0.1,25.7-11.3,25.8-25.5C265,165.1,253.6,153.6,239.5,153.5z M239.6,163.3c8.7,0.1,15.7,7.2,15.7,15.9
								c-0.1,8.7-7.2,15.8-15.9,15.7c-8.7-0.1-15.7-7.2-15.7-15.9C223.7,170.3,230.8,163.3,239.6,163.3z M198.8,238.1l17.8,9.2
								c0,0-8.7,6.8-12.1,10.3c-4.4,4.5-4.2,6.7,1.7,4.6c11.2-4,22.3,2.5,22.3,14.1c0,15.5-18.5,22.5-27,10.6
								c-2.5-3.5-5.6-5-4.5-2.2c2.8,7,0.8,15.7-4.4,19.1c-4.2,2.8-11.8,3.5-15.6,1.4c-13-7.1-13.4-22.3-0.7-28
								c6.4-2.9,6.7-5.7,0.4-4.3c-13,3-20.2-12.9-10.7-23.4c10.1-11.2,26.3-8.5,27.7,8.4c0.3,3,2.4,0.9,3.4-3.7
								C198.3,250.9,198.8,238.1,198.8,238.1z M366.1,267c0,0-66.7,36.2-64.8,37.8c0.4,0.2,14.2,20.6,14.2,20.6
								c34.3-73.5,111.3-10.4,123.1,27.7c2.7,1.7,3.2,1.3,6.1,2.7c0.3-2.7,6.3-28.9,6.3-28.9L366.1,267z M252.4,538.6l-10.9,14.9
								c-3.7,1.5,163.8,33.4,297,7.2l-8.8-17.6C421.1,568.5,250.7,540.5,252.4,538.6z"/>
							<path id="path3444-9-5-7" fill="#131F67" d="M38.1-684.1L10,678.1l852.9,17.6L891-666.5L38.1-684.1z M293.6-668.3l428.2,7.2
								l-81.9,133.9c0.9-7.1-153.3-32.2-280.2-8.1L293.6-668.3z M49.9-670.2l232.9,4.8l75.6,142.2c0,0,4.4,8.9,1.5,18
								c-3.2,10-5.9,14.4-8.7,19.4c0.3-2.9-22.5-6.3-21,13.4c1,13.3,17.7,21.2,30.4,11.1c2-0.1,1.9,1.7,1.4,5
								c-1.3,7.6-9.9,31.5-15.5,33c-27.7-23.7-38.6,18.3-19.8,27.1c10.9,5.1,27.9,1.4,36.1-11.6c6.3-10,5.5-8.3,7.2,4
								c0.6,4.6,1.5,9.9,2,12.3c1.5,7.5-0.2,8.9-12.8,12c-10.2,3.7-20.4,5.7-30.9,7.7c-19.1,2.7-29.1,16.9-29.9,34.3
								c-0.2,3.8-0.1,5.5-0.9,6.6C216.5-302,131.1-261.1,40-190L49.9-670.2z M577.5-324.7c-2.9-5-12.1-31.1-14.6-41.9
								c-5.9-52.5-5.9-114.6-12.4-163.4l9.8,1.3c0,0,3.4,14.2,6.6,52.3c1.6,18.9,2.8,58.2,4.1,76.3c1.9,26.9,13.2,70,20.4,81
								c11.9,17.9,36.7,7,28.9-14.1c-4-11-20.6-9.5-18.5,1.8c0,2,1.6-1.4,4.1-3.5c7.2-2.6,15.1,5,10.7,13.9
								c-5.4,11.3-20.7,5.8-25.6-8.7c-5.7-17.3,15.1-29.8,30.3-19c16.9,12,16.3,41.7,2.3,50.8C600.2-290,584.8-307.3,577.5-324.7z
								 M634.5-301.7c-0.9-0.6,0.1-2.4,1.3-6.6c4.6-15.9,2.2-28.4-7.9-40.4c-5.6-6.7-7.8-7.9-4.7-9c6.4-2.4,20.4,8.2,24.1,18.3
								c3.6,10,4.4,20.3-1.3,31.4C642.2-305.7,636.3-301,634.5-301.7z M652.3-312c0-1.9,1.4-7.8,1.8-10.6
								c1.3-11.1-3.6-22.6-12.7-31.6c-7.6-7.6-8.3-8.4-1-8.4c18.9,0.1,30.4,30.9,21.3,45.8C659.4-314.5,652.4-309.7,652.3-312z
								 M668.5-322c6.1-26-18.7-43.9-19.3-43.1c1.4-5.8,11.3-2.3,14.7,0.1c12.6,8.8,19.4,31.3,11.3,43.9c-0.9,1.5-1.9,2.4-3.3,3.2
								c-2.7,1.6-4.2,2.9-4.8,1.7C666.8-317,668.3-320.8,668.5-322L668.5-322z M448.4-411.2c2.7-2.5,3.5-2.6,8.5-0.6
								c15.7,6.3,28.6-4.8,25.2-16.9c-1.3-4.4-7.1-9.2-10.8-9.6c-6-0.7-6.1,2.4,0.2,4.9c7.9,3.1,8.5,11.5,1.4,15.2
								c-8.3,5.4-21.4-8.9-31.3-8c-4.7,1.3-7.8,5.6-5.3,11.1C438.5-411.2,445.5-408.8,448.4-411.2z M430.9-413.3
								c-5.5-2.7-7.5-2.7-6.4-8.6c0.8-3.9,7-30.4,9.8-40.6c8.7-30.6,1.5-47.8-21.1-55.2c-15.3-5-28.6-2.9-44.5,5.1l-2.6-8.8
								c66.1-15.8,178.2-9.7,177.8-9.1c2,8.9,2.7,17.8,3.4,26.6c0,0-20.8-10.8-31.7-14.4c-16.8-5.5-43.6-0.4-48.5,9.2
								c-2.8,5.4-1.5,9.1,10,3.3c18.8-9.6,56.6-1.2,69.7,9.7c3,2.5,2.9,3,2.9,5.9c0,4.4,0.3,4.6-5.8,1.3
								c-31.6-17-58.8-15.6-68.7,5.6c-2.1-0.7-10.4-2.3-10.4-2.3l8.6,13.3l1.4,13.8c0,0,14.3,8.3,22.3,11.9c7.8,3.5,3.3-0.1-6.2-7.1
								c-7-5.1-1.3-6.6,3.3-4.6c9.6,2.4,23.6,5.5,40.1-4.5c5.1-3.1,16.6-0.1,16.8,1.4c0,0,1.3,12.1,2.3,37.2
								c0.5,11.9,1.6,27.4,2.3,33.8c2.1,19.3,2.8,20.4-7.1,11c-3.3-3.2-8.9-8.4-8.9-8.1c-1.4,5.9,13.3,16.7,16.7,20.4
								c5.2,5.6,9.1,19.6,7,20.4c-1.3,0.5-15.3-11.8-26.2-22.9c-4.1-4.1-10.2-9.7-10.4-9.5c-2.3,1.5,6.8,12.3,15.4,20.3
								c10,9.4,11.2,10.3,7.7,11.6c-6.4,2.4-12.1-0.9-27.2-14c-1.5-1.3-7.2-5.5-7.5-5.2c-1.4,1.8,12.5,15.6,15.7,16.8
								c6,2.3,7.6,8.1,2.8,10.3c-3.2,1.5-14.8-5.2-24.1-13.6c-1.7-1.5-6.3-4.1-6.6-3.8c-1.9,1.2,8.5,10.5,18.4,16.8
								c9.7,6.1,11.3,7.6,8.7,12.5c-2.5,5-23.9-7.2-34.4-19.5c-2.2-2.6-4-3.8-3.6-2.9c4.4,13.2,19.8,22.9,31.2,26.8
								c2,0.7,5,1.6,6.3,2.7c3.2,2.7,2.4,5.4-1.1,6.8c-12.4,3.2-31.5-12.1-45-28c-1.6-0.7-0.7,1.4-0.3,2.1
								c11.2,18.7,33.1,33.2,46.5,30.9c7.8-1.4,14.1,1.1,14.1,3.7c0,2.1-4.4,5.5-12.8,5.9c-19,1-48.3-20.4-65.1-47.3
								c-0.5-0.8-1.2-1.2-1.2-0.7c-0.6,5.6,9.9,19.6,18,27.6c24.1,23.9,47.2,32.3,65.6,19.5c10.4-7.7,20.6-24.8,5.5-31
								c-8-3.2-13.3,7.8-6.4,4.7c9.1-0.9,11.1,4,9.8,8.4c-2.5,7.7-10.2,8.8-16.4,5.4c-10.8-6.1-8-26.3,6.1-29.5
								c12.8-2.8,23.6,8.2,24.9,18.4c1.9,15.9-16.3,32.7-30.8,36.7c-49.2,13.6-86.1-55.3-86.3-56.8c-2.4-4.8-5.3-7.3-7.2-1.9
								c-2.2,7.9-13.7,31.1-19.6,30.8c2-8.2,10-21.9,8.4-34.1c-3.5,9.9-10.8,31.1-24.2,42.1c-3.5,3-13.6,6.5-6.5-1.4
								c8.6-11.5,19.8-27.3,17.9-42.4c-2.3,3.3-3.7,11.9-6.3,17.5c-6.6,14-20.8,30.5-30,33c-6.8,1.9-6.1-0.4,0.9-7.5
								c7.6-7.6,21.1-30.2,20.5-40.1c-0.3-4.4-14.4,37.4-39.4,48.4c-6.8,2.3-10.5-0.8-10.5-0.8c9.9-5.4,37.4-31.5,35.5-61.7
								c0,0-1.5,4.4-3.8,11.1c-9.7,28.6-29.8,47.2-45.1,48.4c-12.2,1-20.7-4.1-17.6-6.2c15.8,0.4,29-4.8,39.5-20
								c10.7-15.5,15-40.6,9.3-67.5c-5.2-24.2-5.9-45.9-7.4-69.1c17.2,6.3,34.6,10.6,51.7,4.3c-1.8,6.9-4.7,7.7-9.2,12.8
								c-3.3,3.7-2.2,4.7,10.6-4c3.7-2.5,5.1-4.6,5.7-3.9c1.1,1.1-0.8,8.2-4.7,22.3c-5.9,21.1-4.5,22.6,15.6,31
								c3.8,1.6,5.1,3.1,6.4,4.7c0.6,0.8,3.8,6.8,4.1,7.1c0.7,0.5,0.7-6.1,0.3-7.8c-1-4.5-3.3-7.9-5.4-9.2
								C440.3-411.1,434.5-411.5,430.9-413.3L430.9-413.3z M809-129.3l0.7-22l21,15.6l-0.4,7.2L809-129.3z M772.4-125.2l7.6-406.5
								c0,0,16.6-10.5,24.9-15.8c4.8,16.2,4,50.8,1.8,66.1c-3.4,10-5.8,54.5-2.6,77.3c2.5,18.2,1.4,48.1-1.7,62.3
								c-1.2,5.6-0.9,31.8,0.6,56.1c1.2,18.6,0.4,35.4-2.1,45c-1.9,7.6-1.9,34.8-0.1,45.3c2.6,15.4,2.1,64.8,0.7,67.5
								C798.1-123.9,770.6-123.9,772.4-125.2z M813.7-550c0,0,16.3,11.2,24.1,16.9l-0.3,17.5L814-531.7L813.7-550z M566.8-526.8
								l10.2,0.8c3.6,21.3,4.9,45.4,6,69.5c-0.3,37.2,3.5,76.5,11.7,102.4l-7.7,7.7c-12.2-29.7-12.2-76.2-14.4-107.8
								C572.1-489.4,567-526.5,566.8-526.8z M815.1-525.4l21.9,15.5l-0.2,19.1l-22.1-15.3L815.1-525.4z M581.5-525.1l8.9,1.2
								c2.2,25.2,6,42.3,7.1,70.1c1.3,35.9,6.9,65.4,10.2,93.4l-6.8,2.1c-4.5,2-11.3-31.2-13.2-98.3
								C587.1-476.9,584.1-499.8,581.5-525.1L581.5-525.1z M595-523.8l10.7,2.1c3.4,63.7,9.7,123.6,16.8,158l-9.3,0.4
								C602.6-412.4,603-469.1,595-523.8z M610.4-521.3l9.8,1.9c8.8,145.7,16.2,144,18.3,149.8l-10.7,4.1
								C617.2-407.5,616.1-466.5,610.4-521.3L610.4-521.3z M652.1-377.4c-1.8,4.9-5.8,4.3-10.1,4.7c-4.6-13.5-7.1-29.5-8.8-45.1
								c-3.8-34.4-4.7-66.5-8.7-100.5l11.7,1.4C635.8-516.6,642-397.4,652.1-377.4z M402.3-510.5c15.5,1.1,28.1,8.3,29.2,18.5
								c0.2,2.3-1.6,1.1-3.6-0.5c-13.1-10.5-28.2-14-46.6-7.8c-4,1.4-7.3,3.5-9.1,3.2c-1.6-1.1-2-3.5-0.8-5.6
								C375.8-509.7,394.6-511.1,402.3-510.5z M366-490.9c0,16-4.1,24.8-12.6,28.3c-10.2,4.3-23-5.6-16.5-16.2
								c4.9-8,13.1-5.4,14.5,3.2l13.5-28.4C364.9-504,366.1-494.9,366-490.9L366-490.9z M836.9-483.7l-0.5,16.5L813-483.6l1.9-15.8
								L836.9-483.7z M415-494.6c11.6,4.9,15.8,10.6,16.2,13.2c-0.7,1.9-1.9,0.6-10.3-4.2c-13-8.4-30.2-10-45.5-0.1
								c-3.8,0.7-4.1-1.5-0.3-5.5C386.8-500,402.7-499.7,415-494.6z M504-495.8c10.3-0.1,22.6,2.8,32.9,8.2
								c4.6,2.4,8.7,3.9,11.6,6.6c2.4,1.3,2.5,6.8,0.7,7.1c-1.6,0.2-4.1-1.1-7.9-3.8c-24.4-16.6-42.2-15-56.8-5.4
								c-0.8,0.5-3.3,1-4.2,0.9c-2.7-0.3-2.8-1.4-1.7-2.8C485.4-492.3,495.4-495.7,504-495.8L504-495.8z M812.9-477.9l23.5,17.2
								l-0.4,16.4l-25-18.2L812.9-477.9z M382.5-480.1l3.5,0.2c7.7,19.8,18.1,9.9,22.5,2.1l4.2,0.8
								C405.5-450.9,378.8-465.2,382.5-480.1z M376.5-477.6c3.9,0.6,3.7,5,4.9,8.3c2.6,7.3-7.7,1-9.5-0.8
								C368.9-473.4,373.3-477.4,376.5-477.6z M494.5-476c9.9,15.9,16.1,6.7,22.1,0l2.8,0.9c-1,11.2-20.1,22.8-28.6-0.8L494.5-476z
								 M526.1-473.5c1.1,0,3.3,0.9,5.3,1.7c5.6,2.4,5.2,4-1,6.7c-10,4.2-13.5,4.7-10.4-1.5C521.7-469.4,522.9-473.2,526.1-473.5z
								 M487-472c2.5,1.9,4.1,4,4.3,7.3c0.2,2.3-7.6-0.5-7.5-4.2C484.1-471.3,485.4-473.2,487-472z M418.1-472.5
								c5.1,2,4.4,4.4,0.8,6.6c-6.5,3.4-9.2,2.7-4.9-2.8C415.9-471.3,416.3-472.5,418.1-472.5z M810.9-456.1l25.4,18.7l-0.6,16.7
								l-25.4-18.1C809.3-446.1,810.5-450.8,810.9-456.1z M364.2-439.5c1.2,0.1,1.6,4.1,1.8,10c0.3,9.8-10,23.3-20.2,27.8
								c-12.3,5.4-25.2-2.8-22.8-14.6c2.2-10.8,17.7-11,18.1-0.9c-1.6,2.6,0.5,4.9,1.4,4.7c4-1,13.5-9.2,17.6-18.6
								c1.6-3.6,2.5-7.4,3.6-8.3C363.8-439.5,364-439.6,364.2-439.5z M809.7-433.4l25.4,19.4l-0.2,16.6l-25.2-18.1
								C808.8-423,809.4-428.3,809.7-433.4z M496.1-413.7c-2,3.2-0.5,9.1,3.6,4.2c10.5-11.7,25.1,3.5,16.9,12.9
								c-7.4,8.5-16.2,5.5-34.9-2c-13.6-5.5-15.8-3.8-19.2-0.1c-2.8,3.1-1.6,9.3,2,9.3c11,2.8,20.6,5.4,32,8
								c24.2,5.5,39.6-25.5,17.7-37.4C509-421.6,498-418.2,496.1-413.7z M389-412.3c-9.6,8.3-2.3,30.7,11.5,33
								c2.9,0.5,7.3,0.4,12.2-0.9c9.8-2.6,20.7-8.2,21.2-11.5c2.3-15.2-20.7-2-23.7-0.3c-7.3,4.2-14.8,3.5-18.5-1.8
								c-8.4-11.8,7.3-24.9,16.4-10.4c2.3,3.6,1.6-2.5-0.9-6.7C403.7-416.6,394.2-416.5,389-412.3z M810.9-408.4l23.9,17.6
								l-0.5,15.9l-23.2-17.4L810.9-408.4z M812.2-385l22.6,17l0.1,16.6l-23.8-16.4C811.7-373.7,812-379.3,812.2-385z M683.3-378.1
								c20.2,0.7,31,30.8,20.1,43c-3.2,3.6-5.8,4.6-7.2,3.2c-0.3-0.3,0.3-3.6,0.6-7.4c0.9-12-1.5-20.3-10.1-29.6
								C680.2-376,677.7-378.1,683.3-378.1z M434.6-378.5c-3.8,1.3-7.9,4-11,3.2c-3.1-0.7-4.6,0.8-5.8,3.2
								c-4.8,9.2-3.4,12.2,5.8,7.1c4.4-2.4,5.9-1.5,17.5,1c8.3,1.7,13.9,1.7,21.3,0c9.1-2.2,14.6-2.2,19.1,0.4
								c4.6,2.6,7.6,6.1,7.8,3.3c-0.4-3.3-3.2-11.8-3.8-14.6c-0.3-1.4-2.6-0.2-4.7-0.1c-7.5,0.4-16.4-6.6-22.3-3.1
								c-4.7,2.8-5.4,3.5-11.7-0.4C442.1-381.6,438.7-379.9,434.6-378.5z M677.7-371.4c13.4,11.7,16.7,21.9,15.2,30.2
								c-0.8,6-1.4,12.7-7.4,16.2c-1.1,0.5-2.7,0.8-4.3,1c5-17.1-0.2-32.6-19.1-49.4C667.9-376.1,673.6-375,677.7-371.4z
								 M369.4-377.8c0.6,0,1.3,0.1,1.9,0.4c2.4,0.8,2.6,7,0.7,9c-1.9,1.9-3.4,0.3-5.4-4.7C365-375.9,366.7-377.9,369.4-377.8z
								 M356.6-373.2c5,0,6.8,4.6,7.6,8.3c0.7,3.1-0.4,12.4-3,9.1c-0.6-2-3.2-8.4-5.3-10.1C351.1-369.7,351.7-373.2,356.6-373.2z
								 M342.5-368.9c0.7,0,1.7,0.1,2.8,0.3c7.8,1.5,13.5,14,11.5,21c-4.3,7.5-5.7,2.4-6.9-4.5c-1-2.9-4.1-7.4-6-9.7
								C339.9-366.8,339.3-368.9,342.5-368.9z M811.1-362.9l23.4,17.5l-0.3,18.2l-24.5-17.2C810.3-350.7,810.8-356.8,811.1-362.9
								L811.1-362.9z M327-365.5c11.6,0,21.3,14,17.3,26.9c-4.8,13.5-27.4,10.1-23.3-3.3c1.2-3.9,5.4-6.6,9.3-4.1
								c5.7,3.6,5.1-2.1,1.5-4.2c-5.6-3.3-13.3-1.5-15.2,4.8c-6.5,22,21.9,30.2,37.8,7.6c5.8-8.3,12.2-17.1,15.7-20.8
								c3.1-3.4,3.8-3,3.2,1.4c-2.4,20.6-17.3,46-44.2,44c-26.1-3-33.7-31-13.6-47.9C319.3-363.8,323-365.5,327-365.5z M465.6-361.5
								c-9.7,4.4-18.4,6-27.7,1.7c-6.9-3.2-6.9,0.1-3.9,2.9c8.6,7.6,24.6,4.6,31.5,0.5C467.7-357.7,468.6-361.6,465.6-361.5z
								 M834.1-320.9l-0.3,16.6l-26.1-18.3c-0.3-4,0.2-10,1.2-16.2L834.1-320.9z M808.4-315.9l24.9,17.1l0.3,16.4l-24.2-15.7
								L808.4-315.9z M809.7-292.9l23.8,17.2l0,17.9L809.9-274L809.7-292.9z M221.7-286.2l-15.7,44.3l9.6,0.8l6.3,11.9l6.9-11.9
								l10.2-0.6L221.7-286.2z M810.2-268.1l22.9,16.4l0,16.6l-23.8-17.2L810.2-268.1z M808.8-247.9l23.5,17.7l0.1,17.6l-26.6-18.5
								L808.8-247.9z M276-248.9l-15.6,47.4l8.3-0.9l7.4,12.9l8-11.3l7.4,0.6L276-248.9z M166-247.6l-14.9,47.1l9.3,0.2l7.6,12.1
								l7.1-11.4l10.6-0.1L166-247.6z M805.3-225.7l27.5,20.2l-0.2,18.7l-26.7-18.7L805.3-225.7z M832-180.8l0,16.3l-23.2-17.2
								l-2.2-18.2L832-180.8z M333.2-188.3l-18.1,47.8l11.4,0.3l6.7,11.7l5.8-11.5l9.2,0.3L333.2-188.3z M810.2-173.6l21.5,15.4
								l-0.5,16.8L810-156.3L810.2-173.6z M392.8,12.9L380.6,0.7c-0.1-1,10.3-5.8,16.6-2.5c8.3,4.4,12.3,19.6,2.7,27.3
								c-7.6,6.2-18.9,0.7-19.1-0.1L392.8,12.9z M382.1-7.1c0.6-18.4-9-23.4-17-27.3c0,0,1.1-117,1.3-120.4c0,0.5-1.8-12.7-2-13.5
								l0,0c0,0-1.9-0.6-1.9-0.5c0.1,11.9-1.6,133.4-1.8,134.2c-15.1,1.4-19.5,11.5-21.1,25.2c-11.7-1.1-19.5,5.8-19.7,7
								c-4.2-6-0.8-14.7-4.1-21c-11.1,36.1,8.6,58.3,26.3,56.6c2.1,35,40.4,42.1,40-0.3C428.6,31,413.7-12.1,382.1-7.1z
								 M166.7-158.4l-17.8,46.9l11.8-1.1l4.1,8.8c19.3-16.3,28.3,9.6,19.1-12.6L166.7-158.4z M804.9-61.2c2.2-0.1,5,1.9,5.5,4.6
								c0.2,8-10.4,6-10.7,0.9C799.6-59.2,802.9-61,804.9-61.2z M810.9-9.2c4.7-3.7,12-1.4,12,4.3c0,5.1-5.8,6.6-10.3,3.7
								C809.1-3.4,808.9-7.4,810.9-9.2z M811.2,4.9c25.3,2.5,44.5-14.4,36.7-26.9c7-8.4,1.5-13.4,3.5-18.3
								c5.5-5.4,1.2-17.3-0.1-17.4c-0.8-15.9-5.3-18.1-12.1-26.7c-2-2.5,4.9-4.8,7.6-8.9c-8.1,2-12.4-2.2-16.7-7.7
								c-46.9,1.2-89.1,3.6-88.8,67.2c-7.3,26.8,3.6,51.1,36.5,44.4c7.3-6.3,2.8-15.6,2-20.1c-2.5-12.3,0.9-20.2,1.9-26
								c3.2-17.7,16.5-33.9,17.4-6.1c2.4-3.5,1.3-4,5.1-5.4c9.1-3.1,8.9,6,6.9,9.7c-1.2,1.9-3,1.7-4.8,1.4c-2.6-0.4-6-1.4-6-2.4
								c-0.8,2.9,4.6,8.4,4,11.1c-0.8,2.6-1.2,2.3,1.2,0.7c11.4-7.8,18.1,10.3,1.9,7.9C815.2-14,803.1-1.7,811.2,4.9z M796.5-92.5
								c8.9-0.3,11-0.3,10.5,4.4c1.5,8.6,3.6,12.7,14.8,12c11.3-1.2,14.9-1.9,3.4,4.7c-5.8,2.4-7.7,2.9-14.5,2.1
								c-6.9-0.8-6.3-1.4-10.3,0.8c-2.2,1.3-4.7,2.8-6.4,3.1c-2.6,0.4-7.3,1.3-7.3,1.3c-2.9,13.3-7.1,20-12.8,26.2
								c-8,8.7-12,10.2-2.4,9.8c3.5,0.3,1.7-1.5,3,12.9c0.4,5.1,1.3,10.9,2,12.9c2.4,6.6,2.6,9.9-6.9,10.2
								c-23.7,1.3-28.8-21.9-25.4-33.6c0.3-1.9,1.5-8,1.9-12.8c0.2-2.7-0.3-4.9-0.2-7.6c1-22,6.3-27.7,26.1-41.6
								C778.1-91.9,788.7-92.6,796.5-92.5z M817.3-90.9c10.9,0,21.4,5.5,16.1,8.8c-3.5,2.1-15.7,1-19.1-1.5
								C810-86.9,811.7-90.9,817.3-90.9z M328.9-82.3l-4.5,7.6c1.7,16.8,1.8,25.6-4.6,43l8.7,11.9l7.3-12l11.1,0.4L328.9-82.3z
								 M840.7-75.3c7.1,1.6,7.2,8,5.3,12c-4.1,8.7-30.7,12.4-30.7,12.4c-0.1-3.8,0.5-7.4-2.2-11.7c0,0,17.8-4.3,21.6-7.6
								C837.2-72.4,838.8-75.2,840.7-75.3z M845.5-55.2c2.6,0.1,3.9,2,4.5,5.8c0.3,2-0.5,3.8-2.2,5.9c-6.9,7.2-25.9,11.9-32.7,9.9
								c-0.5-0.6,0.9-8.3,1.4-11.7C825.7-45,841.1-52.7,845.5-55.2z M574.9-15.8C566.1-29,546-27.5,548.2-26.5
								c0.4-11.2-1.2-26.6-18.1-28.5c-17.1-1.6-26.3,20.7-20,30.4c-10.5-4.6-26.5,6.1-26.5,7.1c-1.3,0-14.1,31.7,22.5,34.1
								c3,15.2,8.6,22.6,20.1,29l-2.2,123.2l4,5.7l3-129.1c18.7-0.4,21.5-21.8,20.2-26.8c8.3,0.5,15.9-1,22.4-5.7l1.8,21.1
								c0,0,4.5-7.3,3.7-11.3c-5.7-121.1,40.8-251.1,100-334.7c3.1-3.5,4.2-7.7,5.7-7.7c14.2-7.3,23.1-12.2,23.1-12.2
								c22.9,11.6,63.5,39.2,63.5,39.2l-2.9,172.4c-0.6-1.7,77-7.1,75.8-5c0,0-6.7-2.8-6.7-7.3l6.3-403.4l-33.4-22.8
								c0,0-28.2,17.6-36.2,23.7l-4,237.5l-59.3-36.4c0,0,1.1-8.4,1.3-11.1c-0.3-32.4-16-43.6-46.5-34.6c-4.1,1.2-6.9,2.3-8.9,0.6
								c-12-37.5-15.7-135.6-15.7-135.6l88.4-143l145,2.2l-8.9,553.3l-0.7,290.1L789.6,240l2.8-185.8c0,0-10.5-5.3-13.3-5.7
								c-1-0.1-2.4,2.2-0.6,3.4c2.7,1.8,9.3,4.4,9.3,4.4l-2.2,184.1c0,0-29.2,18.8-42.2,26.6c-24.3,12.7-48.2,24.7-73.3,35.2
								c-24.7,10-79.1,31.3-79.1,31.3c-4.4-15.6-49.9-52.6-102.4-28.2c-4.8,1.7-10.7,3.1-14.8,5.8c-19.9,3.2-26.9,24.3-30.3,44.8
								c-0.1,0.8,1.6,0.7,1.6,0.7c0.2,0.3,5.1-19.7,7-23.4c4-8,8.9-12.8,11.5-13.5c1.2-0.2,2.1,1.6,0.5,4.5
								c-3.2,5.6-6,17.6-6.9,23.1c-0.8,5-1,9-0.1,9.2c0.2,0.2,4.9-15.1,7-20.5c5.5-14,8.9-19.8,14-22.7c5.2-3,6.4-2.5,5.3,0.7
								c-8,14.8-11.3,26-13.2,41.9c-0.3,3.2,1.3,3.3,2.7-1.9c4.5-16.6,10.8-39.1,24.5-45.5c5.9-2.5,8.4-2.3,7.8-0.5
								c-16.6,20.1-21.1,42.7-21.1,50.1c0,2.4,1,2,3.2-3.3c5.9-20,14.4-37,24.2-45.2c3.8-3.2,8.3-4,12.1-4.4
								c11.5-1.2,11.8,3.1,1.7,8.7c-11.5,6.4-25.1,30.1-26.9,48.1c-0.6,6.2,1.6,6.9,3.3-1.3c7.5-35.7,38.7-58.8,63.1-47.3
								c11,5.2,12.8,12.1,3.3,8.8c-19.4-6.6-41.4,6.8-50.7,25.9c-8.4,17.3-8.5,26.5-3.3,50c3.4,21.7,10.4,49.4,7.5,70.5
								c-2.8,4.1-11.1-1.9-21.1-3.4c-6-1.3-13.4-1.7-19.7,0.6c-5.5,2-8.7,2.5-9.6-0.5c-0.3-1,4.4-5.5,6.4-8.1c3.3-4,1.5-4.7-3.2-0.4
								c-2.3,2.1-7.2,7.2-8.5,7.4c-2.9,0.5-3-2.7-0.4-11c8.9-32.1,6.7-32.7-7.2-39.5c-13.8-5.6-9.4-8.2-15.4-13.6
								c-4.4,3.3,5.3,19.1,16.6,22.7c9.2,3,8,7.7,3.7,20.4c-4.5,17.8-12,41.3-8.3,57.3c7.9,33.5,41.7,33.5,67.9,20.6l3,8.6
								c-22.1,8.4-137.8,13.6-176.6,8.3c-2.8-10.6-3-13.3-4-25.7c0,0,23.8,11.4,35.8,13.5c14.9,2.7,38,3.3,44.2-10.4
								c1.9-4,0.1-7.5-5.1-5.2c-9.6,4.1-25.9,7-39,5.9c-11-0.9-26.6-5.7-33.3-9.9c-3.2-2-5.8-5.9-3.2-10.6c2.2-0.5,5.1,2.1,6.9,3
								c19.7,10.4,30.5,12.6,43.6,9c9.9-2.7,23.4-13.1,20.2-16.1c-3.3,1.1-14.6,10.1-22.2,12c-15.7,3.8-32.3-2.9-48.3-13.7
								c-4.9-4.5-2.6-7.6,3.5-4c24.1,12.8,34.1,21.1,57.7,4.4c5.3-3.8,8.2-3.2,11.2-0.8c11.9,11.1,12,5,3.3-6.4
								c-2-2.6-3.7-6.2-4.8-10.1c-0.8-2.8-1-5.7-2.5-7.6c-2.7-3.2-7.6-4.8-13.2-7.5c-8.1-3.8-10.8-2.1-4.9,1
								c10.4,5.4,15.5,11,2.4,7.7c-11.8-5.6-31.7-3-43.1,4.6c-8.9,4.1-12.9,8.6-14.8-1.1c-3.9-20.4,0.9-47.9-4.2-83.5
								c-1-6.8-2.3-11.1-0.8-12c1.8-1.1,6.3,3.3,11.7,11.3c2.5,3.6,7.4,10.7,7.4,9.2c0.3-7.5-11-21.8-20.6-27.6
								c-5.2-3.2-8.5-17.3-2.5-14.1c4.6,2.4,28.5,24.3,33,32c2.1,3.6,3.9,1.4,1.7-2.8c-1.3-2.5-6.9-10-12.3-15.5
								c-9.7-9.8-10.8-9.4-8.9-11.3c3.8-3.8,11.7,1.4,25.8,14.6c3.6,4.7,8.3,9,7.8,6.7c1.5-3.6-12.5-19.2-20.8-23.5
								c-1.6-1-1.8-2.1-1.6-4c1-7.2,17.2,3.8,30.5,16.5c5,4.8,1-4.1-4.8-10.2c-4.6-4.8-11.9-10.8-17-12.9c-5-2.2-5.2-6.6-1.2-8.4
								c13.7-0.3,27.5,14,35.7,25.1c2.3,3.1,4.3,5.4,2-0.3c-7.4-17.3-23.4-27.4-34.6-29.5c-9.1-1.8-8.7-10-0.2-8.9
								c9.4,1.2,24.6,10,37.4,23.5c3.7,3.9,9.9,12.7,8.7,7.6c0-1.4-3.9-6.9-8.4-12.2c-10.5-10.8-22.7-20.5-35.8-23.6
								c-6.1-1.9-24.5,1.3-24.5-1.9c0-2.3,2-3.7,7.9-5.5c22.8-7.1,55.5,13,72.9,43.3c1.3,2.2,3.7,3.1,3.8,2.6
								c-8.2-24.6-34.9-47.3-56.4-51.5c-14.6-2.7-29.5,0.8-36.8,10.5c-8.2,11-5.4,25.9,6.6,25c6.3-0.4,5.8-4,5.7-4.1
								c-0.4-0.4-4.1,1.2-6.3,0.7c-8.1-1.8-7-16.5,4.9-14.8c13.7,2,15.1,23.6-0.2,27.8c-14.2,3.9-19.3-2.7-23-10.4
								c-5.4-11.3,1-29.3,11.1-36c28.3-18.8,63.3-1.8,82.9,17.8c9.7,9.7,16.7,21.2,20.9,33.5c1.1,2.9,3.6,2.6,2.5-0.3
								c-26.6-72.3-110.4-82.4-123.8-27c-19.7-32.3-37.4-34.9-64.9-21.5c-28,10.9-41.9,20-67.8,31.5l-57.6-32.5
								c-2.2-57.9,0.9-115.9,2.3-173.8c0.2-1.3-12.6,0.7-34,3.6c-56.8,10.1-51.3-20.1-58.7-21.8c-3.9-0.9-3.7,0.8-2.6-106
								c0.3-31,0.8-85.6,1.1-121.2c0.3-35.6,0.8-65.3,1.1-65.9c0.3-0.6,3.6-3.3,7.3-5.8c14-9.5,21.9-15.2,52.5-37.7
								c6.9-5.1,8.7-5.9,8.7-5.9c2.1,64.2-2.4,131.5-1.8,186.7l2.6,0.1l2.8-185.2c-5.2-1.5,120.5-71.6,189.1-93.8
								c1.3-0.4,4.4,1.1,4.4,1.1c38.1,48.7,141.2,36.3,150.7-21.8c16.3,35.9,89.7,106.5,125.6,24c0,0,11.9,24.2,22.5,26
								c23.8,3.7,26.6-0.1,79.7-24.5C616.7-228.6,581.6-132.7,574.9-15.8L574.9-15.8z M543.4-39.2c1.2,4.1,1.6,9.3,0.4,13.4
								c-1.6,3.2-3.9,3.1-3.9,3.1l-11.4-10.2l-11.6,10.3c0,0-6.8-7.2-2.8-16.8C521.6-52.9,538.2-50.1,543.4-39.2z M844.4-34.6
								c7.5-0.3,3.4,8.2-7.7,13.8c-7,3.5-12.8,4.4-15.2,3c-1.3-4.1-0.1-7.7,0.8-9.3C827-29.4,840-33.4,844.4-34.6L844.4-34.6z
								 M362.7-28.3c8.3,0,15.3,6,15.4,16.5c0,4.3-2.3,8.4-2.3,8.4l-13.6-10.5L351.4-2.9c-1.8,0.6-8.1-7.6-3.5-16.3
								C351.3-25.5,357-28.3,362.7-28.3z M562.6-19.4c11.5,5.5,13.2,21.8,1.8,27.9c-5.4,2.9-13.9,4.4-17.8-1.8l11.7-12.2l-12.9-11.3
								C544.9-17.4,555.5-22.8,562.6-19.4z M842-17.9c2,0,2.5,0.8,3,2.7c1.5,5.3-2.7,10.6-9.9,12.2c-6.7,1.4-6,2.2-9.1-3.8
								c-2.4-4.7-3-4.5,0.9-5.9C831.5-14.1,836.6-15.8,842-17.9z M510.9-16.8c0,0-8.4,8.2-12.1,11.7l12.2,13.2
								c0.6,1.6-14.5,8-22.1-2.3c-5-6.7-1.8-19.3,5.5-23.4C501.7-21.9,512.3-18,510.9-16.8z M528.7-17.9c7.3,0,13.2,6,13.2,13.4
								c0,7.3-6,13.3-13.4,13.2c-7.3,0-13.3-6-13.2-13.4C515.4-12,521.4-17.9,528.7-17.9z M346.7,0.7L334.5,13l12.6,14.3
								c0,0-10.2,1.5-13.8,0.7c-17.5-3.6-15.3-24.2-1.7-29.3C337.4-3.3,341.6-2.5,346.7,0.7z M112.8,0.1c0,0,1.8,26.5,3.8,35.5
								c-1.6,10.3-8.4,17.1-11.6,27.7c-1.7,4.7-7.8,10.9-8.9,4.2c-4.2-8.3,0.2-18.3-3.3-24.2c-2.6-5.6-1.1-8.6-2.2-14.3
								c-3.3-4.8-4.8-6.9-4.2-11.1C86.1-0.8,81.3,2.8,73,4.1C40.8,6.2,40.4,24.8,41.9,48.3c-5,21.9,3.5,16.9,3.1,20.9
								c-0.6,6.3,0.3,15.1,2.1,16.1c11.2,13.4,11.6,22.5,26.5,20.6c25.2,2.5,65.4-0.4,74.7-31C154.8,31.5,157.3-9.7,112.8,0.1z
								 M363.9,1.1c7.1,0,12.8,5.8,12.7,12.9c0,7.1-5.8,12.8-12.9,12.8c-7.1,0-12.8-5.8-12.7-12.9C351,6.7,356.8,1,363.9,1.1z
								 M123.8,2.8c4.8,0,10.4,1.2,14.9,5.7c9.7,9.7,10,18.3,4.8,54.8c-1.5,10.3-5.3,18.8-10.1,22.5c-9.8,7.3-21.7,12.5-31.5,14.7
								c-5.2,1.2-9.6,1.1-13.1,1c-3.8-0.1-5.9-1.9-6.1-5c1-8.5-7.7-9.5-12.7-9.1c-9,0.2-9.9,1.1-4.2-3.1c6.5-4.8,21.2-4.6,24-1.6
								c5.9-5.6,11.9-6.2,19.2-6.9c-1.1-1.6-3.5-8.1-1.7-12.1c3.9-6.6,10.6-18.2,17.4-22.5c6.8-8.5,1.1-4.7-3-4.7
								c-2.3,0-2.1-0.7-2.5-2.3c-1.5-6.8-3.6-19.5-3.5-27C115.6,3.4,119,2.8,123.8,2.8z M81.3,11.3c2.5,2.4,2.4,5.6-0.3,7.9
								c-3.2,2.7-9.3,1-9.4-4.1C72.2,9.9,78.2,8.6,81.3,11.3z M528.4,38.9c-10.8,0.3-19.4-11.4-15.1-22.8c2.3-3.1,3.2-2.6,3.2-2.6
								l12,11.2l12-12.1C550,24.5,541.4,38.3,528.4,38.9z M68.2,11.5c-0.9,3.3,0.1,6.7,0.2,8.3c-2.2,1.5-11.3,3.9-16.2,6.2
								c-3.4,1.1-5.8-2.1-5.3-5c1.4-5.4,9.4-8.8,15.2-10.3C64,10.4,66.9,10.3,68.2,11.5z M69.9,27.1c3.3-0.3,2.2,6.8,0.9,10.4
								c-1.3,2.6-4.9,2.4-8.1,2.5c-5.7,0.2-13.1,6.7-16.2,5.5c-1-0.5-1.7-3.2-1.8-5C45.5,31.1,61.4,27.9,69.9,27.1L69.9,27.1z
								 M87,37.3c-1.1,1.6-4.7,2.3-7.6,1.4c-4.8-1.4-5.4-8.3-1.1-10.6C85.8,25.8,90.1,32.9,87,37.3z M562.8,31.4l-6.7,9.8l-9.9-0.4
								l15,49.5l7.8-19.1c1.2-8.8,2.5-17.6,3.6-26.5L562.8,31.4z M351.7,31.2l12.5,10.6l11.1-10.9c7.7,18.2-1.8,26.3-11.7,25.9
								C352.6,56.3,341.2,45.7,351.7,31.2z M72.7,44.1c4-0.7,2.1,10.2,1.5,10.4c-2.6,0.9-13.7,2.1-18.4,5.9
								c-10.1,7.6-14.2,2.7-9.4-6.5C50.9,48.7,67,44.1,72.7,44.1z M85.3,44.9c4.4-0.3,7.4,4.6,4.6,9.2c-3.7,3.3-10.1,0.7-10-4.1
								C80,47,82.6,45,85.3,44.9z M78.3,72.3c0.6,2.5-0.3,1.7-5,3c-2.6,0.7-6.6,2.3-10.9,4.4c-6.2,3-8,4.6-10.1,4.2
								c-1.7-0.4-3.7-1.2-4.2-3c-2-7.1,3.9-14.1,17.3-18.7c2.8-1,7.8-1.7,9.5-1.8C79.3,60.5,74.3,67.3,78.3,72.3z M86.3,61.9
								c6.4,0,7.5,8.6,2.6,10C77.6,74.6,78.8,61.8,86.3,61.9z M77.8,93.3c1.8,1.8,2,4.6-0.1,6.1c-3.8,1.8-18-0.1-18-4.1
								c0-2.6,4.8-3.4,9.2-3.4C73.3,91.8,76.3,91.8,77.8,93.3z M722.5,111l-12.1,15.5l15,39.9l15.4-47.6l-11.4,4.3L722.5,111z
								 M55.8,137.8c0.2,121.8-6,400.9-6,400.9L84,563l37-25.5c1.4-87.8,2.3-148.4,3.7-229.8l52.9,30.5c0,0,1.6,2.4,1.1,13.4
								c-4.3,30.3,24.6,50.6,44.3,39c7.6-3,8.2-3.5,9.7-1.1c4.2,6.6,8.6,34.7,9.1,52.5c0.7,26.9,6.6,81.8,8.3,82.2l-90,144.9
								l-137.7-2.8l11.3-547C40.5,127.7,44.1,133.3,55.8,137.8z M560.9,136.5l-6.7,9.8l-7.9-0.2l12.8,51.3l17.8-49.5l-9.2-1.3
								L560.9,136.5z M116.9,534c0,0-17.2,11.8-22.7,15.2c-2.9,1-4.2,1.2-4.9-1.6c-0.8-3.4,0.7-9.7,2.1-20.1c1.3-9.6,1.3-10.2,0-24
								c-1.4-14.4-1.6-15,0.2-34c2-21.1,2.7-41.7,1.3-54.5c-1.3-12.1-0.8-39.8,0.8-55.1c1.9-18.8,1.7-35.4-0.5-49.2
								c-3.9-24.5-4.5-32.9,0.5-51.2c1.9-6.8,2.8-10.5,2.7-22c-0.1-12.8-0.3-17-4.3-45.4c-2.3-16.4-2.5-18.6,0.5-44.4
								c0.6-5.2,0.8-8.7,2.9-10.3c2.4-1.9,26.5-2.8,26.5-2.8L116.9,534z M61.5,138.4l26.3,0.3c-2.2,8.2-2.8,14.5-3.1,20.4l-23-15.8
								L61.5,138.4z M61.7,148.9l22.8,15.6c-0.1,6.4-0.7,12.4,0.1,18.8l-23.1-16L61.7,148.9z M61.2,172.9l24.4,17.4
								c0.8,6.6,2.7,13.3,3.4,19.3L61.3,190L61.2,172.9z M861.6,196.1l-8.8,487.3l-246.4-5.1l-75-151.7c0,0,1.1-13.8,3.2-20.8
								c2.5-8.5,3.2-10.3,6.5-10.6c8.7,4.7,18.6-1.1,21.7-7.7c3.8-8.1-3.3-20.7-14.7-23.6c-5-1.3-10.6,0.9-16.3,5
								c-3.3,2.6-4,2.9-4.6,0.6c-1.3-5.3,3.7-19.6,12.3-31.8c4.8-6.8,6.1-8.7,7.6-6.1c5.9,10.7,19.1,8.8,24.2,2.9
								c6.2-7.1,5.3-23.6-8.3-28.3c-26.5-9.1-39.3,17.5-39,17.4l-5-32.3c32.3-7.2,50.9-9.6,61.3-19.2c8.2-7.5,12.3-20.7,11.6-32.5
								c0,0,90.1-34.4,132.3-56.1C796.8,246.3,861.6,196.1,861.6,196.1z M725.5,196.8l-6.8,11.5l-9.4-0.2l17.9,49.5l15.5-50.9
								l-9.1,0.6L725.5,196.8z M61.9,197.2l28,20.1c0.5,6.4,1.2,12,0.2,19.2l-29.4-20.4L61.9,197.2z M615.4,202.6l-7.3,9.2l-8.1-1
								l14.9,48.9c5.1-13.9,9.9-32.9,15-46.9l-7.6,0.2L615.4,202.6z M60.9,222.2l29,20c0,6,0.2,11.7-2,15.9l-27.3-18.3L60.9,222.2z
								 M669.7,237.6l-7.4,13.6l-9.5-1.5l16,46.9l19.5-45.8l-11.5,0.4L669.7,237.6z M60.5,244.8L85.5,264c0.4,0.3-1.6,8.5-1.3,13.2
								l-23.9-15.4L60.5,244.8z M60.7,268l23.4,16.8c-0.1,6.2,0.2,12,1.1,17.3l-25.4-17.3L60.7,268z M59.8,291.5l27,20.1l1.1,15.7
								l-28.7-18.9L59.8,291.5z M285.5,302.7c26.1,10.4,49.8,60.9,47.7,125.7c-1.5,45,10.8,109.5,10.6,108.8c0,0-7.7,0.9-9.8-0.9
								c-9.2-33.2-11.8-68.2-12.8-97.1c-0.8-24-1.7-47.6-3.1-53.2c-3.9-19.5-8.1-42.1-20.2-57.1c-9.4-11.3-20.4-13.5-27.2-1.1
								c-5.6,10.1,5.4,27.2,14.9,21.8c2.3-1.2,3.7-3.4,0.7-3.4c-9.8,1.2-16.1-12.4-9.8-18.7c11.1-11.1,29.6,14.5,20.5,28.3
								c-4,5.9-14.2,6.8-22.3,4.4c-17.9-9.1-22-30.7-15.7-44.7C263.9,304.9,274.2,298.7,285.5,302.7z M253.5,308.5
								c2.1,0.1,0.6,4.1-1.5,10.2c-5,14.7,3.3,37.7,15.3,42.6c3.6,2.5,3.4,3.5,0.9,4.8c-8,4.3-22.1-9.3-25.5-24.2
								c-2.5-10.8-1.6-23.4,3.7-28.7c2.9-2.9,5.2-4.4,6.7-4.6C253.2,308.5,253.3,308.5,253.5,308.5z M59,313.2l28.9,19.8
								c1.2,6,0.5,12.4-0.5,18.8l-28.9-21L59,313.2z M235.8,316.6c2.2,0,1.3,3.6,0.5,10.2c-1.7,15.4,2.8,26.6,13.5,36.2
								c4.5,4,5.7,5.3,3.7,7.3c-2.9,2.9-10.8-1.2-17-7.9c-11.3-12.3-14.6-35-5.5-43.1C233.1,317.5,234.7,316.6,235.8,316.6
								L235.8,316.6z M561.6,326c12.5-0.2,23,4.8,23.8,20.2c1.2,22.4-19.9,34.3-34.2,21.1c-12.8-13.2,0.9-33.1,15.8-23.3
								c7.5,5-1.8,15.7-7.8,9.9c-2.7-2.6-4-1-2.1,1.9c5.8,9,17.6,1.9,17-6c-1.3-15.4-20.2-15.6-27.5-9.7c-9.9,8-18.7,20-25.3,28.7
								c-5.4,7.6-6.5,7.3-5.5-2.1C518.3,341.6,542,326.3,561.6,326z M220.6,323.8c2,0,1.1,2.8,1.1,10.2c0.4,18.9,8.1,30.9,18.1,37.7
								c3.3,3.8-1.1,6.4-7.4,4.4c-14.4-4.8-28.6-36.3-16-49.5C218.2,324.8,219.5,323.9,220.6,323.8z M206.3,329.8
								c2-0.1,0.8,4.1,0.8,12c0.1,16.6,5,24.7,17.2,35.1c4,3.4,4.5,3,2.8,4.8c-4.3,4.8-18.5-2.4-24.4-12.5c-7-12-7.7-29.9-0.8-36.5
								C203.8,330.8,205.3,329.8,206.3,329.8z M192.1,337.5c1.7,0,0.7,3,0.8,10.2c0.3,17.4,4.1,26.1,14.9,34.4
								c6.8,5.2,8.5,3.7,6.4,5.7c-3.8,3.4-13.9,0.2-21.4-6.4c-11.2-9.9-13.9-33.7-4.5-41.7C190,338.2,191.2,337.4,192.1,337.5z
								 M59,337.2l27.7,20.1l-1.1,16.5L58,354.2L59,337.2z M550.6,378.2c-11.4-2.6-15.6-10.9-14-20.3c0.5-3.1,2.4-4.9,4.3-0.7
								c1.5,6.5,5.7,15.6,11.6,17.5C554.8,375.5,552.7,378.7,550.6,378.2z M304.5,353.7c12.2,32.8,11.3,68.4,12.7,102
								c1.9,44.7,9.2,74.9,11.7,80.1c0,0-12.6-0.1-13.2-2c0,0-10.7-59.5-8.3-88.7c0.8-32.8-5-61.7-8.6-74.7
								C294.9,358.8,294.6,366.4,304.5,353.7z M58.4,361.3l26.7,18.3c-0.5,6.1-0.7,12.1-0.7,18.2l-26.2-19.3L58.4,361.3z
								 M422.6,367.3c0,1,3.9,1.9,10,0.5c6.8-1.5,13.6-1.1,18.7,0.5c5.5,1.6,6.2-0.1,1.2-2.4c-2.4-1.1-6.3-3.6-12.1-3.6
								C434.6,362.3,422.6,365.2,422.6,367.3z M532.3,368.9c0.6,1.2,2.6,4,4.4,6.2c3.4,4.1,4.4,4.2,2.8,5.8c-3.7,3.7-11.3-1.9-12-9
								C526.9,366.7,529.5,363.5,532.3,368.9z M289.8,365.3c12.3,18.3,13.3,60.6,12.9,90.7c-0.3,27.1,7.8,76.8,8.5,76.6
								c-2.6,1.5-6.1,0.9-9.4-0.5c-3.2-4.3-4.9-16.2-8-48.5c-0.8-8.3-2.2-34.8-2.2-56c0-18.8-9.6-59.6-9.6-59.6
								S286.1,365.3,289.8,365.3z M275.6,369.5c11,26,12.3,51.5,12.2,82.5c-0.1,29.3,5.7,63.8,7.8,79c-3.9,0.3-8,0.6-9.6-1.2
								c-1-1.4-1.8-3.7-2.2-6.6c-4.7-25.5-5.4-53.1-6.4-76.4c-1.5-36.2-1.9-45.2-6.7-63.3c-2.7-10.3-3.7-10.1-1.5-12
								C270.9,370.1,274.1,369.4,275.6,369.5L275.6,369.5z M405.1,378.1c0.1,12,1.7,7.1,6,5.3c3.2-0.2,5.8,1.6,11.6,3.9
								c7.5,2.9,6.8,3.8,12.1,1.4c3.3-1.5,5.9-2,7.5-0.7c6.1,5.2,14.1,2.5,18.7-1.5c3.5-1.8,7.4-0.7,10.3-0.3
								c4.3,0.5,3.2-2.3,3.9-7.7c0.6-4.8-1.3-5.3-6.3-3.7c-5.1,1.6-10.2,1.7-14.6,0.2c-11.2-3.7-19.5-1.6-25.1-0.8
								c-13.3,1.8-13.9,0.5-16.9-1.5c-2.2-1.5-5.8-4.1-7.1-4.1C403.9,368.5,404.2,372.9,405.1,378.1L405.1,378.1z M522.5,375
								c1.3-0.6,1.8,1.1,3.5,3.4c2.8,3.9,3.7,5.7,1.2,6c-6.5,0.8-8.1,0.1-7.8-3.9C519.6,377.3,520.4,376,522.5,375z M261.9,375.3
								c9.3,9.8,10.6,63.7,11.5,75.3c2.1,62.9,7.9,72.1,4.8,76.7c-3.6-0.1-4.9,1.2-7.2-2c-7.7-23.2-6.7-46.8-7.5-70.9
								c-1.2-31.8-4-49.1-8.2-65c-2.8-10.5-2.7-10.7,2.7-13.5C258.9,375.5,261,375.3,261.9,375.3z M248.9,382.6
								c3.2,7.7,9.2,42.5,9.5,72.5c0.2,23.8,5,70.4,6,70.7c-3.5,0.2-7.6-0.5-9.2-3.2c-9.5-46.1-5.2-90.4-16.3-136.8
								C239.6,383.6,243.5,380,248.9,382.6z M58.3,384.3L86,405.1l0.2,17.2L58,401.3L58.3,384.3z M475.8,390.8
								c-16,5.8-20.2,10.8-17.8,15.3c2,3.8,8.4,2.6,25.4-4.1c12.7-5,16.6-2.6,19,5.4c-0.4,11.7-11.8,12.9-18.2,11.1
								c-2.8-0.2-2.4,0.1,0.5,3.8c12.9,10.5,29.3-9.2,21.6-22.1C500.3,388.5,489.6,385,475.8,390.8z M376.1,393.5
								c-13.3,10-9,28.6,1.8,31.6c3,1.6,7.5,1,9.3-0.2c1.7-1,1.7-2.8-1.7-3.4c-10.1-1.9-15.7-9.4-10.6-16.8c4.9-7.2,13.6-5.6,30.4,2
								c14.5,6.6,20.9,4.8,22.8-2.7c0.8-3.3,0-6.5-7-6.9C401.7,395.9,389,383.8,376.1,393.5z M550.6,425.4
								c-0.8-5.3-9.5-0.1-15.5,9.3c-5.8,9.2-6.4,10.5-7.4,0.8c-1.4-14.4,13.7-25.3,23-25.5c11.2-1.1,18.5,5.4,18.6,12.6
								C569.7,436.8,552.7,436.6,550.6,425.4L550.6,425.4z M57.2,406.8l29.3,21c0,0,0.8,11,0,16.8l-29.5-19.7L57.2,406.8z
								 M414.2,421c-13.1,8.5-5.8,24.7,3.2,26.7c9.5,2.1,10.3-4.5,0.9-6.7c-5-2.1-6.2-6.9-4.2-10.6c4.7-7.3,12.9-2.3,17.8,0.1
								c10.7,5.4,16.2,7.4,19.7,3.9c6.2-6.2,1-17.5-7.1-13.7c-2.2,1-3.8,2-8.4,0.8C429.1,419.7,420.8,418,414.2,421z M57,431.1
								l28.8,20.6l-1.3,17.7l-27-20.7L57,431.1z M57.1,455.4l27.1,20.2c-0.6,7.5-0.4,10.5-0.2,15.2l-27.5-18.5L57.1,455.4z
								 M543.6,469.2c22,2.6,14.2,27.8-1.1,20.6c-4-3.2-5.3-2.9-10.1,8.1c-6.1,14.1-7.5,12.9-6.4-3.5
								C526.9,478.4,534.5,469.2,543.6,469.2z M369.7,469.5c0.5,0,0.9,0.1,1.2,0.3c1.5,1.7-3.2,8.2-7,12c-2.8,1.8-9.5-3.3-7.8-5.7
								C358,473.9,366.1,469.8,369.7,469.5z M398.8,483.2l-4,0.5c-5.7-13.4-18.1-10.6-22.2,1.6l-5.4-0.7
								C373.1,469.6,392.8,460.7,398.8,483.2z M509.9,488.5l-6.7,0.3c-5.7-14.5-14.1-16.8-21.6-2.8l-5.1-1.6
								C485.7,466.4,500.6,465.2,509.9,488.5z M476.8,471.4c3.4-0.1,2.9,1.4-0.7,6.2c-3.2,4.2-3.9,4.8-7,2.4
								C464.1,476.1,472.7,471.6,476.8,471.4z M508.5,472.5c0.7,0.1,1.4,0.1,2.3,0.4c6.8,1.8,9.9,5.2,6.5,9.3
								c-2.2,2.6-4.2,3.5-5.6,1.8C507.1,476.1,504.6,472.2,508.5,472.5z M404.4,474.8c0.7,2.9-1.6,4.8-4.1,2.4c-1-1-1.9-2.6-1.7-3.9
								C400.2,472,404,473.3,404.4,474.8L404.4,474.8z M56.3,477.4l27.9,20.9c0.8,7.2,0.9,12.6,0.7,17.5L56.2,496L56.3,477.4z
								 M468.6,492.1c16.1,11.5,35.2,11.7,47.3,2.2c2.7-2.1,5.1-2.2,5.1-0.1c-1.9,7.8-22.9,17.4-39,11.4c-8.9-3.3-16.1-6.6-21.8-15
								C456.8,485.1,463.9,488.8,468.6,492.1z M461.6,497.4c23.4,21,42.5,15.7,57,5.7c2.1-0.5,2.1,1.4,2.5,5
								c0.5,4.6-3.3,6.7-13.7,9.6c-20.1,5.6-43.3-1.5-47.3-14.9C459.7,500.1,458.8,496.7,461.6,497.4L461.6,497.4z M55.7,501.4
								L84,521.6l-1.2,15l-27.6-19.5L55.7,501.4z M55.7,524.4l26.7,18.9l-0.3,12.4l-25.9-19.3L55.7,524.4z M252.3,534.3
								c115,28.5,197.1,17.8,277.7,5.3l68.3,141.1l-428.9-8.3C198.3,627.6,222.6,578.5,252.3,534.3z"/>
							<path id="path3442-2-7-0" d="M288-673c11.9,21.5,21.2,43.6,31.9,65.6l1.8,1.2l2.6,5.1l0.2,2.5l6.4,10.7l-0.1,2.3l26.9,52.6
								c23.3-8.1,213.2-19.7,282.9,7.1l10.6-17.1l2.4,0l18.7-31.3l-0.2-2.7l6.2-6.8l0.9-3.1l20.5-30.7l0.2-5l25.7-41L288-673z
								 M717.2-658.2c0,0-13.5,24.7-20.4,34.6c-5.3-4.4-21.1-1.8-20.5,14.8c-25.4-10.2-32.2,20.2-12.5,27.4
								c-10.3,8.6-19.8-1.6-27.4-8.5c-7.6,1.7-23.3,6.9-31.8-9.5c0,0,3.7,2.1,7.3,4.3c20.8,6.8,23.1-21.4,7.6-26.3
								c-1.9-0.6-5.6-0.8-5.6-0.8c5.7-21.6-27.7-29.9-28.9-3.8c0,0-4-0.7-7-0.2c-17.9,2.9-14.3,29.2,3.9,28.3
								c2.5-0.1,4.7,0.4,4.7,0.4c-0.4,4.2-22.6,11.8-38.1-3c-7.6,5.6-19.7,12.5-34.9-2.1c10.2-0.2,20.1-2.9,20.2-14.5
								c0.1-7.5-6.6-14.4-16.3-15c-0.4-8.4-6.5-16.6-14.6-17.4c-10,0.4-15.2,8.3-15.4,16.8c-8.5,0.7-16.5,8-14.9,16.6
								c2.2,11.7,11.2,13.3,21.5,11.3c-12.9,19.8-33,8.9-39.1,2.4c-7.6,6.8-20.8,16-36.5,2.7c8.6-1.3,18.1-6.1,16.8-18
								c-1.1-9.4-11.5-12.4-16.1-12c0.1-6.2-4.4-16.5-15.4-15.7c-12.1,0.9-11.7,16.2-11.5,16.3c-9.9-1-17.4,10.5-14.7,18.1
								c3.3,9.2,10.4,12.2,23.8,10c-15.8,14.2-25.6,8.4-34,5.2c-7.7,7.7-17.7,10-27.8,2.9c22.9,1.6,20.1-39.1-7.4-24.9
								c-18.9-23.2-18.7-13-35.4-46.9L717.2-658.2z M502.5-622.6c1.1,0,2.3,0.2,3.4,0.8c3.6,1.9,4.2,5.1,1.9,9.8
								c-0.8,1.6-2,3.5-1.8,5.3c24.3,47.1,80.5,27.5,86.2,5.9c0.4-1.4-0.2-2.9-0.9-4.4c-2.1-3.6-1.7-6.5,1.1-8.9
								c6-5.1,14.4,1.2,10.8,8.2c-0.9,1.8-1.9,3.8-1.3,6.3c13.6,32.8,42.1,35.8,66.2,23.4c-11.4,19.5-54.4,30.7-71.3-17.2
								c-29.4,38.1-74.8,36.4-94.5-7.7c-19.5,44.3-75.4,44.2-95,6.7c-19.4,42.1-62.2,31.5-73.8,4.7c39.3,29.7,66.2,0.1,71.2-12.7
								c0,0-0.9-1.5-2.1-2.8c-5-5.1-4.7-11,0.6-13.2c6.8-2.9,13.1,3.8,9.4,10.1c-1,1.8-1.9,2.1-1.3,3.7c11.8,29.2,72.8,38.9,86-1.5
								c0.5-2.3,0.3-4.5-0.7-6.2C493.8-617.1,497.6-622.5,502.5-622.6z M323.6-609.9c9.6,0.7,6.8,9,4.8,9.6L323.6-609.9z
								 M681.7-597.3c0.1,0.2-6.2,10.6-6.2,10.6C672.4-591.9,673.4-598.2,681.7-597.3z M648-544.5c0,0-6.4,13.5-8.5,14.6
								c-113.7-31.6-273.6-9.5-277.6-6.7l-6.8-13.4C455.7-568,555.5-561.6,648-544.5z M450.8-346c-11.9,42.3-38.7,46.1-71.1,50.6
								c-40.1,5.6-65.8-9.5-77.5-32c0,0-57.6,20.4-78.7,32.5c42.9,20.8,99.3,65.9,130.8,116.5c11.3,15.5,10.8,12,10.1,45.4
								c-1.5,72.4-1.9,99.4-1.9,99.4c17.8,3,18.6,15.4,17.3,29.2c14.5-6,28.1,2,27.8,15.5c-0.6,24.9-25,17.6-30,14.8
								c7.5,22.1-2,31-11.6,31.9c-11.8,1.1-25.1-4.8-20.7-29.9c-12.9,4.7-29-4.7-30.9-19.8l-0.1-25.6c32.9-59-5.9-108.3-42.9-125
								c0,0,11-21.6,24.8-27.5c1.4-0.4-8-14.8-24.3-12c-7.5,0-5.7,0-12.6-9.3c-13.6-18.4-20.1-19.8-34.1-0.7
								c-6.2,8.4-7.6,8.6-14.7,8.6c-7.8,0-19.8,5.3-22.5,10.3c-0.6,1.1,2.4,2.4,6.4,7.2c5.7,6.9,14.5,16.5,12.9,26
								c-31,11.9-83.2,65.8-31,137.2L137.5-3l3.3-250.4L113.5-239l-2.9,196.2l-7.6-2.7c1.9-62.6,2.2-125.1,1.6-187.7l-72.2,50.4
								l-2.9,294.2l7.5,1.8c4.8,40.2,84.7,13.8,89.3,17.4l-2.4,163.4l-3.6,8l62.4,35.8l58.5-28.9c0,0,7.8-1.2,10.8-2.7
								c24.3-12.2,42.1-8.9,54.8,9.9c7.8,11.6,9.2,13.3,9.2,13.3c5.6-32.9,35.1-44.5,63.3-35.3c20.8,6.8,48.9,28.2,57.1,53.8
								c0,0,1.5,3.9,3,5.6l1.2,0.5c-0.1-0.7-1.3-3.9-1.8-5.4c-27.9-67.9-110.3-80-124.2-25.2l-11.4-16.6l62.3-36.4l82.9,57.1
								c0,0-4.3,19.4-5,27.8l1.4,0.7c0.8-10.2,4.1-21.7,9.1-30.2c2.1-3.5,4.4-6.4,7.1-8.5c5.1-2.8,9.7-2.4,14.9-7.1l-12.1-9.4
								l0.3-29.5l23.9,35.1c7.8-1.6,38.2-10,55.9,0.3c2,0.7,28.4-6.3,44,30.7l79.4-31.1c0,0,5.1-2.7,5.1-3.5
								c-77.9-30.6-155.1-134.9-147.5-136.4c0,0,0-10.5,1.1-36.4c1.2-28.8,1.5-58.2,2.6-87.1c-26.6-9.1-19.5-30.5-19.5-30.5
								c-16.1,3.2-18.6,0-22.6-2.9l-2.2-27.3c9.8-8,15.6-8.6,27.5-5.8c0,0-5.5-12-0.1-21.6c4.6-7.6,16.5-12.2,25.8-6.6
								c12,8.5,7.8,25.8,6,28.2c12.8-5.4,28.1,1.2,31.6,13.8c2.7-36.9,6.7-78.2,14.8-110.3c14.9-57.9,38.5-118.4,67.5-165.7
								c4.8-7.9,10.8-15.8,15.7-23.2c4.5-6.6,6.7-10.9,6.7-10.9s-6.1,3.2-12.5,4.8c-9.2,2.3-16.1,4.5-17.2,5.5
								c-6.8,5.5-15.6,9.5-22.9,12.4c-25.4,9.3-42.1-5.7-52.1-28.3c-6.4,28.3-32.9,51.8-71,36.1c-21.5-12-28.1-19.5-47.8-49.9
								C455.1-342.4,450.8-346,450.8-346L450.8-346z M451.5-341.3c13.8,28.7,34.8,49.2,55.5,57.7c37,13,62.1-10.4,69.5-32.2
								l6.9,12.3l-57.3,38.9l-84.1-55.9C443.6-321.7,451.6-340.7,451.5-341.3L451.5-341.3z M707.8-334.1l-25.6,14.4
								c0,0-17.4,26.8-23.2,36.9c-30.6,51.5-53.9,107.7-66.6,163.8c-5.1,20.5-10.8,58-12.9,76.1c-3.2,28.8-3.3,40.6-3.1,67.1
								l1.9,2.2c0,0-3.2,5.4-5.5,9.9c-6.3,12.3-7.9,19.3-7.8,33.8c0.2,33.2,19.7,65.5,48,79c1.6,0.8,3.7,1.8,3.7,1.8
								s-5.2,13.1-14.2,22.3c-6,6.1-7.3,6.4-5.3,9.5c2.8,4.3,12.1,8.2,23.8,8.3c4.1,0,4.1,0,11.6,8.5c14.6,16.5,19.1,16.3,33-1.8
								c4.1-5.4,6.5-6.6,12.4-6.7c8.7,0,24.6-6.7,24.6-10c-10.6-4.9-22.4-29.6-20.5-29.8c59-29.7,72.7-93.4,31-141.4l40.7,0.2
								L750,265.2c8.1-5.1,26.3-16.1,26.3-16.1l3.5-198.7c2.8,0.6,5.6,2.7,11,3.7l-2.3,189.2c0,0,53.1-35.8,78.3-54.5l4.5-289.5
								l-6-0.1l-5,289.4l-70.1,49l3.3-179.8c0,0,5.5-0.7,7.5-0.9c20.3-2.4,30.2-28,17.1-45.1c-4.6-6.1-1.3-5.6,8.9-7.3
								c18-1.2,28.2-14.6,23.2-24.4c-2.2-4.2,0.8-3.7,2.7-7.6c1.3-3.1,1.2-6.9,0.7-10c-0.6-4,1.1-5.7,2.1-8.3
								c1.7-4,0.2-8.5-2.3-12.3c-2.7-4-1.9-8.3-1.8-10.9c0-5.9-2.1-6.8-8.2-12.6c-4.6-4.4-0.8-5.3,6.2-8.7c11-5.4,12.2-25.2-2.2-34
								c-7.7-4.7-21.8-4.6-52.4-0.4c-11.6,1.6-25.3,2.5-25.3,2.5s2.2-113.2,2.6-171.6L707.8-334.1z M707.7-330.1
								c0,0,61.3,37.6,60.8,38.6C747.1-263.4,667-151.3,663.6-13.7c-56.8-8.3-81.1,35.7-83.9,35.5c-4-168.5,66.8-287.5,102.8-337.9
								L707.7-330.1z M668.1-308.7l-0.3,4.1l-12.7,18.1l0.1-18.4L668.1-308.7z M649-302.7l-0.2,29.6l-25.6,18.7l-0.8-30.9L649-302.7
								z M415.4-300.8l12.8,9.2l-1.1,29.4l-18.8-35.9L415.4-300.8z M769.5-283.6l-0.3,21.2c-51.1,69-78.8,148.5-88.9,249.7
								l-12.1-0.6C673.5-114,709.3-205.2,769.5-283.6z M433.1-288.3l30.2,20.7l-2,33.5l-27.4-18.4l-2.5-6.9L433.1-288.3z
								 M618.6-283.1l-0.8,31.1l-24,17.1l-0.5-30.9L618.6-283.1z M331.6-280.9c3.5,0.1,6.3,2.7,6.8,7.6c2.2,20.7,18,15.1,21.7,21.4
								c1.4,2.2-2,3.9-12.8,2.8c-19.7-1.9-33.8-18.2-23.5-28.5C326.4-279.9,329.2-280.9,331.6-280.9z M467.9-264.7l25.8,17.2
								l-0.8,34.4l-25.3-16.2L467.9-264.7z M587.3-262.1l1.4,30.5l-29,18.5l-0.4-30.2L587.3-262.1z M641.8-260.9l-17.2,34.7
								l-97.4,67.1l-78.5-53.2l-14.1-34.1l91.6,62.5L641.8-260.9z M382.8-252.3c25.5,0.2,44.5,27.7,50.7,51.5
								c4.5,15.8,5.2,21.4,5.2,46.3c0,25.4,0.7,29.8,5.4,33.4c2.9,2.3,3.7,1.7,4.2-2.8c1-9.9,12.8-3.6,12.8,6.9
								c0,11.7-12.9,15.1-22.2,6c-5-4.9-5-4.8-6.8,4.5c-1.2,6.3-9.3,45.4,9.2,55.6c3.5,0.4,4.4-2.4,1.9-5.7
								c-5.1-6.7,5.5-14.1,14-9.7c10.2,5.3,8.8,21.9-2.3,27.6c-12.7,6.5-28.9-1.5-36.2-18c-5.3-12.1-5-28.7,1.2-53.2
								c2.8-11.3,4.1-18.5,4.9-27.2c0.3-2.9,0.7-6,0.9-6.9c0.7-2.6-0.6-2.8-5.2-0.6c-12.5,6-25.8,1.3-28.9-10.2
								c-3.7-13.7,11.8-27.4,20.9-18.6c3.5,3.3,3,6.6-1.3,8.6c-7.4,3.5-5.1,13.1,2.7,11.3c25.9-7.2,3.9-80-25.1-85.6
								c-19.1-3.7-34.6,17.8-21,29.8c5.3,4.7,10.9,2.3,9.9-4.2c-1.5-9.1,10.5-7.8,14.7,1.5c6.9,15.2-12,27.1-29.2,18.4
								C332.3-212.7,354.5-252.3,382.8-252.3z M498.2-244.2l25.4,17.8l-0.5,33.6l-25.2-15.7L498.2-244.2z M554.8-240.1l-0.5,30.8
								l-25.2,17.5l0.7-32.8L554.8-240.1z M621.2-218.5l-13.4,35.1l-81.2,53.1l-65.2-42.8l-10.7-33l76.8,52L621.2-218.5z
								 M101.4-226.7l-3.7,179c-26,0.6-41.4,25.9-22.5,50.6c0,0-3.4,0.4-7.4,0.8c-17.6,2-29.6,11.1-27.5,22.4
								c0.6,3.5-0.1,6.9-1.2,8.6c-1.7,4.6-1.3,8.2,0.7,12.2c1.6,3.2,1.3,4.4,0.3,6.7c-2.1,5-1.7,8.8,0.6,12.7c2.8,2.9,2,5.2,1.5,9.7
								c-0.6,6.4,0.5,9,4.5,11.6c5.1,3.3,7,8.6,1.1,8.1c-2.9-0.3-13.5,9.5-13.5,9.5l5-287.3L101.4-226.7z M241.6-200.8
								c4.6,0.1,9.3,6,16,16c4,7.1,4.1,6.2,13.6,6c9.7,0.9,15.5,3.6,18,6.6c0.9,1.1-1.6,1.4-7.9,7.5c-6.5,6.3-7.4,8.9-11.8,16
								c-1.6,2.6-4.9,2.8-6.4,0.3c-1.2-1.9,2.1-8.1,8.3-15.4c8.7-8,6.9-8.9-5.5-7.9c-8.7,0.7-9.6,0.3-12.8-5.1
								c-9.4-19.8-14.7-19.2-24.5,0.1c-2.7,5.4-1.7,5.1-12.8,4c-8.8-0.9-11,1.3-6.1,6c7.6,6.5,10.3,21.5,9.9,21.4l-6,0.4
								c0,0-1.8-3.4-2.5-5.6c-1.5-4.3-5.7-10.9-10.4-16.1c-6.5-7.4-2.8-11.2,12.2-12.6c8.3-0.7,8.5-0.8,12.5-6.4
								C232.3-195.1,237-200.9,241.6-200.8z M604.5-175.5l-9.3,30.4L526-98.6l-54.8-38.2l-6.8-28.9l63,41.8L604.5-175.5z
								 M368.5-156.2c0,0,19,38.9,25.6,64c5.8,21.8,13.2,84.8,10.8,88.6c-4.7-6.8-20.8-5.6-21-5.5c1.5-7.3-4.1-22.3-17.8-25.5
								L368.5-156.2z M593-137.5l-7.4,29.9l-59,40.9l-47.3-33.8l-5.7-29.2l52.4,36.6L593-137.5z M254.7-142.8l7.5,2.8l0.3,54.3
								l58,10.9l1.1,9.3l-67.2-12.3C254.3-100.9,254.7-142.8,254.7-142.8z M225.2-141.7l0.3,63.2c-0.6-0.2-48.7,5.6-67.1,10l1.3-8.6
								c0,0,33.4-6.6,57.6-8.8c0.4-17.7,0.6-36.2,0.9-54.2L225.2-141.7z M766.4-118.9c0,0,7.9,0.9,24.9-1.7
								c43.8-6.7,55.6-3.4,60.9,10.2c5.7,21-17.2,21-21,7.7c-2.4-8.6-11.8-7-43.3-0.2c-26.9,5.8-43.8,0.4-43.1-14.8
								C745.4-133.4,763.2-134.4,766.4-118.9z M407.6-137.8c5.4,0,9.8,4.4,9.7,9.9c0,5.4-4.5,9.8-9.9,9.7c-5.4,0-9.8-4.4-9.7-9.8
								C397.8-133.4,402.2-137.8,407.6-137.8z M265.7-139l6.9,2.2c0,0,0.2,41.2,0.4,41.3c14.8,3.6,45.8,10.1,45.8,10.1l1.5,8.2
								c-13-3.3-54.4-11-54.4-11C264.9-106.1,265.7-139,265.7-139z M215.3-139.3c0,0-0.7,32.9-1.6,50.5c0.2-0.2-35.4,4.9-53.5,8.3
								l1.5-6.6c14.3-2.9,29.9-5.8,45.7-8.8c0-12.9,0.6-41.3,0.6-41.3L215.3-139.3z M240.5-131.7c4.3,0,7.9,3.6,7.8,7.9
								c0,4.3-3.6,7.8-7.9,7.8c-4.3,0-7.8-3.5-7.8-7.9C232.7-128.2,236.2-131.7,240.5-131.7z M831.2-98.9c4.7,7.3,8.7,7.1,13.5,6.5
								c-1.2,0.3-6.9,3.5-6.6,4.6c0.2,0.6-2.6,9.5,1.3,10c14.5,1.7,6.8,16.6,8.5,19c3.8,4.5,6.6,7.4,3.8,13c-2.5,4.9-5.9,4.7-3.3,9
								c5.6,8.8-2.4,10.4-1.8,16.4c0.4,3.6,1.6,8.5,0.2,11.2C842.6-1,828.5,3.5,812.9,3.8c-2.2,0.1-0.5-3.5-1.5-5.9
								c-3.8-2.5-1.6-6.6-0.3-9.2c1.3-3.5,1.4-3.5-1-5.4c-6.6-4.3-6.2-6.2-5.6-9.1c1.6-8.8,0.3-9.7-2.3-11
								c-3.4-1.7-2.8-5.5-1.2-10.2c1.1-3.3,0.4-4.1-1.2-7.1c-0.9-1.8-1.2-2.7-1.2-3.9c0.6-4.6-3.5-4.6-9.3-0.3
								c-5,8.3-6.9,19.2-10.1,26c-2.5,5.3-2.9,10.8-0.4,23.1c5,18.9,0.9,21.9-20.1,17.5C743,4.1,738.7-13,743.5-33.6
								c0.8-3.3,0.7-6.6,0.4-9.2c-1.4-14.3,2.5-27.9,12.7-37.1c16.9-15.3,25.2-17.5,59.5-14.6c13.4,1.2,14.4,2.1,14.4,2.1
								S830.7-98.9,831.2-98.9z M583.6-99.7l-4.6,29l-32.7,22.1c-14.9-12.3-26.8-8.6-37.7,4.1c-8.4-4.5-25.1-16.5-25.1-16.5
								l-3.6-33.1l46.2,33.5L583.6-99.7z M240.6-99.9c4.3,0,7.8,3.6,7.8,7.9c0,4.3-3.5,7.8-7.9,7.8c-4.3,0-7.9-3.6-7.8-7.9
								C232.7-96.4,236.2-99.9,240.6-99.9z M577.4-63.2l-2.4,28l-11.6,8.4l-11.5-1.4l-2.4-17.4L577.4-63.2z M239.8-69.9
								c4.3,0,7.9,3.6,7.8,7.9c0,4.3-3.6,7.8-7.9,7.8c-4.3,0-7.8-3.5-7.8-7.9C231.9-66.4,235.4-70,239.8-69.9z M271.4-68.4
								c4.3,0,7.8,3.5,7.8,7.9c0,4.3-3.5,7.8-7.9,7.8s-7.8-3.6-7.8-7.9C263.5-65,267-68.4,271.4-68.4z M208.5-68.2
								c4.3,0,7.8,3.6,7.8,7.9c0,4.3-3.5,7.8-7.9,7.8c-4.3,0-7.9-3.6-7.8-7.9C200.6-64.7,204.1-68.2,208.5-68.2z M792.7-54.9
								c2.2-0.1,5.4,3.2,3.7,8.1c-2.2,5.6-0.8,7.5,2.7,12.1c2.9,3.9,2.4,4.4,1.9,6.9c-1,16.1,9.5,9.4,4.8,21c-1,2.5,0.2,6.2,0.6,9.2
								c-1-2.8-20.1-2.9-21.8-0.1c-2.7-0.5-5.8-18.5-3-20.8c0.4,0,2.3,3.1,3.3,4.9c2.5,4.4,3,4.3,2.3-0.8
								C784.4-34.5,786.7-54.9,792.7-54.9z M303-63.6c4.3,0,7.8,3.6,7.8,7.9c0,4.3-3.6,7.8-7.9,7.8c-4.3,0-7.8-3.5-7.8-7.9
								C295.1-60.1,298.7-63.6,303-63.6z M175.7-64.8c4.3,0,7.8,3.6,7.8,7.9c0,4.3-3.5,7.8-7.9,7.8c-4.3,0-7.9-3.6-7.8-7.9
								C167.8-61.3,171.4-64.8,175.7-64.8z M483.8-56.1L507-40.4c0.3,4.8-0.5,11.7,1.1,14.1c-15.3-1.7-23.3,6.8-23.3,6.8L483.8-56.1
								z M315.6-35.2l-2,8.3c-46.1-12.9-98-14.6-147.8-2.5l-3.7-8.8C212.5-52.3,265.7-51.8,315.6-35.2z M96-40.2
								c6.8,0,13.6,2.7,18.4,8.2c8.9,10.4,4.1,29.3-8.9,35.1C85.9,11.7,66.2-8,74.8-27.7C78.4-35.9,87.3-40.2,96-40.2z M574-27.9
								l-0.5,8.3l-5.8-5L574-27.9z M451.1-30.1c8.5,0.1,15.4,7,15.3,15.5c-0.1,8.5-7,15.4-15.5,15.3c-8.5,0-15.4-7-15.3-15.5
								C435.6-23.3,442.5-30.1,451.1-30.1z M96.3-36.9c-2.1,0-5.5,0.8-7.1,2.2c-4.2,3.7-0.1,3.9,5.3,5c9.6,2,12.1,10.3,11,19.3
								c-1,8.1,1.8,8.1,4,5.1C118.8-17.5,111.6-35.6,96.3-36.9z M543.7-23.6c-0.2,0.1-0.4,0.2-0.4,0.2
								C543.4-23.2,543.6-23.3,543.7-23.6z M238.9-25c11.5,0,12.4,19,1.7,40c-3.2,6.3-4.7,5.5-7.9-4.2C224.9-13.1,227-25,238.9-25z
								 M265.6-23.9c2.2-0.1,4.4,0.8,6.1,2.9c6.1,7.2,1.1,18.6-15.8,35.8c-4.1,4.2-6.2,5.8-7.7,5.8c-4.1,0-4.1-0.7,0.9-15.9
								c2.2-6.7,4.4-14.1,4.9-16.4C255.5-19,260.7-23.8,265.6-23.9z M223.5-7.8c1,5.3,2.8,12.6,4,16.3c1.2,3.7,2,7.2,1.7,7.8
								c-1.1,2.8-8.4-1.2-13.5-7.4c-10.3-12.5-14.3-23.3-12-29c3.3-4.5,11.6-6.4,15.3-2.3C222.8-18.1,223.2-9.2,223.5-7.8z
								 M296.7-18.5c11,6.8-2.1,21.6-27.4,33.5c-10.8,5.1-10,2.7-1.7-7.6c3.2-4,7.5-10.4,9.6-14.4C281.9-15.8,286.6-24.6,296.7-18.5
								z M185.3-20.8c3.5,0,7.1,3.9,13.6,13.8c2.9,4.4,7.6,10.7,10.5,13.9c2.9,3.3,5.2,6.5,5,7.2c-1.3,6.8-35.7-15.5-38-24.7
								C175.7-16.1,180.2-21,185.3-20.8z M683.3,9.3c6,13,6.4,21.1,1.1,23.9c-7.5,4-16.8-2.5-16.8-11.7c0-3.1-3-13.9-5.7-21
								c-2.3-5.8-2.5-9.4-0.6-9.6C669-7.8,680.2,3.2,683.3,9.3z M641.8-1.4c-2.6,7.3-5.4,18.8-5.4,22.2c0,1.3-0.9,4-1.9,6
								c-6.6,13-21.5,2-15.7-11.6c5.3-12.3,18.3-24.9,23.3-25.2C645.6-10.3,642.2-2.4,641.8-1.4z M652.1-8.2
								c2.5-0.2,4.5,5.3,7.6,14.7c4.1,12.6,3.8,22.4-1.1,26.4c-10.3,8.7-20.7-4.5-16.3-20.6C645.9-0.7,649.3-8,652.1-8.2z M311.7-13
								c8.8,186.2-89.5,327.3-96.3,331l-32.8,17.1l-56.2-32.2c60.6-79.6,97.7-171.5,102.6-279.1C283.4,30.3,312.3-12.8,311.7-13z
								 M624.1-5.9c4-1,1.2,2.4-2.9,8c-4.3,6-10.1,22.4-14.5,24.9c-9.8,4.5-20.6-4.7-14.6-12.3C597.7,7.7,613.9-3.4,624.1-5.9z
								 M681.9-3.5c1.5,0,4.4,1.1,8.5,3.2c20,10.3,29.8,23.6,21,29.6c-6.2,4.3-12.6,0.7-18.4-10.9c-2-4-5.6-9.9-8.1-13.1
								C680.4-0.6,679.4-3.5,681.9-3.5z M795.6,5.5c13,0.1,23.5,10.7,23.4,23.7c-0.1,13-10.7,23.5-23.7,23.4
								c-13-0.1-23.5-10.7-23.4-23.7C772,15.9,782.6,5.4,795.6,5.5z M788.3,11.5c-15.5,6.5-11.3,30.6,1.8,34.4
								c5.5,1.7,12.4-0.5,9.6-3.2c-17.3-5.8-17.2-18.7-9.9-27.9C791,13.1,789.5,11,788.3,11.5z M149.9,31.4
								c-0.9,13.6,1.7,29.4-5.1,44c-10.3,22.5-42.1,32.2-58.9,29.8c-3.5-1.5-7.5-3-11-1.6c-2.1,0.8-4.7,0.7-6.9-0.4
								c-2.1-1-4.2,0.2-6.3-0.6c-2.4-1.7-6.3-5.5-5.8-8.3c0.8-3.9,0.6-6.8-4-8.2c-6.3-1.9-7.6-5.4-5.5-15.5c0.4-2.2,1-3.2-0.4-4.1
								c-4.6-3.2-6.3-9.1-3.1-15.2c2.1-3.5,3.7-6,0.1-8.8c-1.4-3.3-1.1-4.5,2.1-8.6c3.4-3.9,3.9-4.3,1.9-7.7
								c-4.6-7.6,0.9-13.1,7.3-16.1c8.6-3.3,16.1-5,25.1-5.8c3.3,0.3,3.1,3.2,5.1,6.1c2.9,4.7-1.5,11.3,0.9,13.7
								c3.5,1.7,5,4.9,4.6,7.7c-0.3,6.4,0.1,8.6,1.8,11.3c1.9,3,2.5,8.5,0.6,12.1c-1.7,3.3-1.5,3,0.6,5c2,2,2.9,11.6,2.1,11.4
								l8.8-0.6c-0.9,1,3.7-18,14-32.5c-0.3-11.5-4.5-22.2-3.8-37.4C135.9-6.2,151.1,12.5,149.9,31.4L149.9,31.4z M486.4,12.4
								c3.1,2.5,18.5,7.2,19.1,6.7c-0.6,7.4,3.6,21.9,19.6,27.1c-0.2,20.7-2.4,116.3-2.4,116.3C501,124.2,488.1,75.2,486.4,12.4
								L486.4,12.4z M109.9,8c0,0,0.8,2.8,1.5,8.1c1.2,10.9-0.4,12.4-3.1,4.9c-3.2-8.8-3.5-2-0.1,18c0.8,4.8,0.8,6-0.5,9.2
								c-0.8,2-2.2,6.7-3.3,10.4c-3.3,10.9-5.1,14-8.1,5.2c-1.5-4.5-2.8-5.2-1.6-8.6c1.5-4.3,1.2-7.6-1.5-11.9
								c-0.5-0.7-1.5-2.3-1.5-6.8c1.1-10.1-3.4-10.3-4.2-12.9c0.2-3.9-1.4-13.6,1.3-13.2c2.2,0.3,10.3,0.6,14.2-0.7
								C104.6,9.1,109.9,8,109.9,8L109.9,8z M445.4,16.2c8.4,0,15.1,6.9,15,15.2c-0.1,8.4-6.9,15.1-15.2,15
								c-8.4-0.1-15.1-6.9-15.1-15.2C430.2,22.9,437,16.1,445.4,16.2z M211.5,20.6l11.4,2.4c2.5,0.9-2.6,159-96.7,271.3l-0.3-26.5
								C170.9,205.5,203.9,128.6,211.5,20.6z M405.9,27.9l1.3,37.8c-6.3-5.6-22.5-16.3-22.4-16.5l0.4-14
								C385.2,35.3,399.2,36.7,405.9,27.9L405.9,27.9z M317.5,26.6c2.7,1.2,5.1,3.9,7.4,5.9l-7.6,4.9L317.5,26.6z M580.2,33.9
								c49.2,15.7,98,16.3,146.4,6.6l3.1,9.3C677.2,62.9,625.2,61,573.8,43.5L580.2,33.9z M340.2,36.1l2.3,16.4l-28.3,17.5l1.9-24.7
								l14.8-9.1L340.2,36.1z M587.4,54.7c4.5,0,8.2,3.7,8.1,8.2c0,4.5-3.7,8.2-8.2,8.1c-4.5,0-8.1-3.7-8.1-8.2
								C579.2,58.4,582.8,54.7,587.4,54.7z M714.6,58c4.5,0,8.2,3.7,8.1,8.2c0,4.5-3.7,8.2-8.2,8.1c-4.5,0-8.1-3.7-8.1-8.2
								C706.4,61.7,710.1,58,714.6,58z M475.7,78.6c3.4,13,2,42.1-3.1,61.8c-1.5,5.9-2.8,27-2.8,27c-0.9,1.1,28.5-23.4,37.2,9.7
								c3,11.4-10.2,21.8-18.9,18.5c-1.7-0.6-1.1-6.2,0.6-9.5c5-9.7-8.6-15.1-16.6-6.6c-18.5,19.7-0.9,71,27.3,76.6
								c23.5,4.6,42.9-18.5,27.4-32.8c-6.8-6.3-17.9,1.9-13.1,9.8c5.2,8.4-4.8,11.5-12.1,3.7c-12.8-13.7,2.3-33.6,21.9-28.6
								c31.4,7.8,23.9,57-9.2,59.1c-25.3,1.6-42.1-9.8-52.4-29.5c-9.7-19-10.1-34-4.8-66.8c3.1-19.5,1.2-36-4.2-36
								c-3,0-5.3,1.4-5.9,4.9c-1.1,7.1-2,8.5-6.4,5.8c-5.6-3.4-8.6-14.1,0.9-21.1c9.7-7.2,21.8,4.6,21.3,6.6
								c0.2-0.4,1.2-2.2,2.7-10.6c4.7-27.2-3.9-56.2-15.5-51.8c-2.5,1-2.3,2.1,1,4c7.5,4.4,0.6,15.3-9,14
								c-13.5-1.9-16.2-20.8-4.1-29C457,48,472,64.2,475.7,78.6z M383.6,53.9c0,0,23.8,15.2,25,19c0.8,2.4,1.3,23.5,1.3,23.5
								l-41.2-27l-60.6,35.8c1.1-8.1,5.9-28.9,5.9-28.9l32.3-19.5C346.3,58,367.9,72.8,383.6,53.9z M682.6,61.5
								c4.5,0,8.2,3.7,8.1,8.2c0,4.5-3.7,8.2-8.2,8.1c-4.5,0-8.2-3.7-8.1-8.2C674.4,65.1,678,61.5,682.6,61.5z M618.8,60.3
								c4.5,0,8.2,3.7,8.2,8.2c0,4.5-3.8,8.2-8.3,8.2c-4.5,0-8.1-3.7-8.1-8.2S614.3,60.3,618.8,60.3z M650.8,62.8
								c4.5,0,8.2,3.7,8.2,8.2c0,4.5-3.7,8.2-8.2,8.1c-4.5,0-8.2-3.7-8.1-8.2C642.6,66.4,646.3,62.8,650.8,62.8z M570.4,72.8
								c21.6,5,43.2,10,64,12.7l-0.5,63.8l-6.1-0.5l0.3-57c-20-1.9-38.9-6.6-56.6-11.5L570.4,72.8z M731.5,78.2l-1.3,7.5
								c0,0-37.6,5.7-57.3,7.8c-0.6,12.8-1.4,55.8-1.4,55.8l-7.5,1.2l1.3-65C687.6,83.5,709.9,81.5,731.5,78.2z M368.5,74.3
								l43.6,30.1l4.6,31.1l-50.8-35.3c0,0-47.3,30.5-65,41.7l5.9-29.1L368.5,74.3z M572.2,84.2c17.7,4.1,35.4,8.4,53.1,10.3
								l-0.3,51.4l-8.1-2.3l0.2-41.7c-13.9-1.5-28.1-4.5-42.3-7.8L572.2,84.2z M729.5,89l-1.6,6.9c0,0-28.5,3.7-43.3,6
								c-1.3,0.3-1.8,45.2-1.8,45.2l-7,0.9l0.3-52.4L729.5,89z M649.6,93.1c4.5,0,8.1,3.7,8.1,8.2c0,4.5-3.7,8.2-8.2,8.1
								c-4.5,0-8.2-3.7-8.1-8.2C641.4,96.7,645.1,93.1,649.6,93.1z M367.2,105.8l51.5,36.3c0,0,5.7,18.5,6.8,28.7l-59.3-40
								l-76.2,48.3l9.3-30.6L367.2,105.8z M50.8,100.3c3.1,0.1,6.1,2.2,7.7,7c2.1,6.7,6.3,8.8,17.4,8.8c21.9-0.7,45-10.5,65.4-2.4
								c9.9,3.9,13.2,18.8,4.7,22.4c-9.2,4-13,1.3-16-5.9c-2.9-3.1-6.5-2.7-26.1,0.3c-8.7,1.2-18.8,2.3-27.4,2.8
								c-21.9,1.3-33.8-5.8-36.2-18.8C38.7,106.2,45.6,100.2,50.8,100.3z M648.5,124.6c4.5,0,8.2,3.7,8.1,8.2c0,4.5-3.7,8.2-8.2,8.2
								c-4.5,0-8.2-3.7-8.1-8.2C640.3,128.2,644,124.6,648.5,124.6z M488.4,131.3c5.9,0,10.6,4.8,10.6,10.7
								c0,5.9-4.8,10.6-10.7,10.6c-5.9,0-10.6-4.8-10.6-10.7C477.8,136,482.5,131.3,488.4,131.3z M366.6,136.2
								c0,0,42.4,29.6,62,43.3l10.3,31.8l-72.2-49.1L276,218.6l11.4-32.3L366.6,136.2z M676.6,152.5c3.7,10.6,10.6,18.7,17.9,27
								c0,0-4.3,7.8-19.2,7c-8.1-0.4-8.6,0.8-11.5,6.3c-4.7,6.9-8.5,11.4-11.5,13.6c-5.3,3.9-14.9-2.3-22.7-14.6
								c-2.8-4.5-4-5.6-12.9-5.6c-13.6,0-18.4-3.9-11.2-9.8c6.3-7.4,10.9-15.5,16.5-23.2l6.1,0.8c0.2,0.9-5.1,15.9-12.2,21.9
								c-3.6,4,1.3,5.5,10.1,3.9c5.6-1.5,7-0.9,10.9,7.7c8.2,16.3,12.7,15.6,23.1-0.5c3.7-7.2,3.6-8,13.2-5.7
								c10.4,1.3,13.6,0,9.4-3.7c-8.5-7.5-12.9-25-12.9-25L676.6,152.5z M366.4,167.7c0,0,76.6,52.5,76.5,51.4l14.8,37l-89.9-62.5
								l-112.9,70.2l17.4-36L366.4,167.7z M368.7,201.2l26.7,18.4l-0.7,32.1l-27.3-19.2L368.7,201.2z M361.7,202l-0.2,31.7l-24.6,14
								l-0.7-29.7L361.7,202z M330.5,221.8l-0.3,1.2l0.6,0.3l0.2,0l0.3,28.5l-28.3,18.8l0.8-32.2L330.5,221.8z M402,223.6l25.1,17.5
								l0.4,34l-27.3-18.7L402,223.6z M433,244.9l25.2,18.3l0.2,33.9L432.7,279L433,244.9z M297.8,242.3l-0.8,31.3l-25.8,17.2
								l-0.5-32L297.8,242.3z M565.8,288.3c-5.2,5.2-7,4.5-11.1-4.3c-4.3-9.1-10.9-13.5-20.7-13.5c-12.3,0-4.1-7.9,9-8.6
								C565.5,261.3,576.6,276.7,565.8,288.3z M264.9,263.7l0,31.4l-25.6,12.6l-0.5-14.9l13.5-22.5L264.9,263.7z M231.5,305l0.8,5.7
								l-4.7,1.7L231.5,305z M531.1,537.7c-106.9,20.6-208.8,10.4-281.7-4.6l-34.6,56.5l-2.3-0.1l-8.9,14.6l0.9,1.7
								c0,0-28.9,52.8-41,69.4c136.8,1.5,437,7,437,7L583,645l1-1l-17.3-38.8l-5.7-6.8c0,0-3.4-7-6-14.5
								c-2.3-6.9-12.5-25.9-12.5-25.9l-1.5,0.1L531.1,537.7z M253.1,540c1.4,1.1,135.8,29.4,276.1,6.1l7.4,13
								c-123,25.6-299.5-4.9-292.4-7.4L253.1,540z M254.9,565.2c12.3-0.2,24.7,6.7,32.9,17.9c2.6,3.6,6.8,14,6.8,14s6.1-9.7,12-14.4
								c8.9-7.2,20.4-13.2,36.8-12.2c15.1,0.9,31.6,9.4,46.2,33.4c4.1-13.6,54.8-59,94.5-0.2c5-15.3,27.6-45.6,62.6-23.4
								c2.3,5.2,4.7,11,4.7,11c-20.6-15.1-55.4-6-64,16.8c-0.8,2.8,0.1,4.2,1.1,7c10.5,15.7-17.6,14.7-9,2.4
								c1.6-2.8,1.8-5.1-0.6-8.9c-6.4-10-26-22.7-40.5-22.7c-16.8,0-35.7,10.8-42.1,20.8c-2.4,3.7-3,7.4-1,10.7
								c1.4,3.3,0.8,6.1-1.7,8c-5.9,4.6-13-1-10.1-8c1.9-3.1,1.7-6.8-1.9-12.2c-7.3-10.7-24.6-22.2-39.9-22.2
								c-21.9,0.1-44.3,15.4-43.2,28.4c0.5,5.7-1.1,7.8-5.7,7.1c-5.6-0.9-6.2-6.3-2.1-10.5c0.6-1.4,1.7-4.7-0.1-7.3
								c-22.5-31.7-57.2-23.3-65.3-16.5C233.2,571.1,244,565.4,254.9,565.2z M233.9,586.5c8.7,0.2,17.9,7,20.7,12.2
								c2.2-2.2,22-11.1,31.2,2.4c-24.9-2.4-25.8,24.1-7.4,27c-8.9,25.4,28.7,27.7,26.9,3.7c28.1,4.7,25.4-31.1-1.2-27.8
								c14.1-9.8,23.5-6.4,40,5.6c5.8-7.2,28.8-13.6,34.2-0.7c-26.2-2.2-22.4,28.3-2.8,29c-6.3,20.9,32.1,29.5,26.8-2.1
								c24.4,2.2,21.6-30.9-1.9-28.7c1.9-6,25.7-8.1,36,3.6c9.8-8.6,20.6-14.4,39.7-1.4c-26.2-4.9-27.2,29.2-2.8,27.7
								c-2.7,22.5,31.8,23.6,26.5-2.6c26.4-6.6,12.5-35-6.9-27.6c8.8-10,23.3-4.9,29-2.7c18.3-20.1,33.5-2.7,33.5-2.7
								c-31.1-3.9-25.2,40.6,5.5,25.1c-0.2,9.1,3.5,17.1,15.9,18.7l14.1,30.8l-417.1-5.9l23.8-40c2.3,0.8,15.6,2.3,18.8-13.3
								c27.2,9.3,29.7-22.6,9.4-28.1C228.2,587.1,231,586.4,233.9,586.5L233.9,586.5z M217.4,597.7c2.6,4.4,0.3,7.2-4.4,7.3
								C213,605,216.1,600.6,217.4,597.7z M560.4,610.5l2.6,5.7C560.1,614.9,559.8,613.7,560.4,610.5z"/>
						</g>
					</g>
				</g>
			</g>
			<g id="printing-marks-4-9-1-6">
			</g>
		</g>
		<path id="path147-0-8-1-3-6-2-4-7" d="M3764.3-865.9c7.8-0.2,11.3-9,5.5-15.8c-0.8-1-0.9-1.6,0.6-0.6c3.9,2.6,11.4,0.9,11.8-7.1
			c0.5-9.8-13.2-12.7-15.8-2.2c-0.1,1.1-1,1.1-0.8-0.5c0.2-4.2,1.6-8.2,3.4-12.1c-3.1,0-6.5,0-9.3,0c1.8,3.9,3.1,7.8,3.4,12.1
			c0.2,1.6-0.7,1.6-0.8,0.5c-2.6-10.4-16.3-7.6-15.8,2.2c0.4,8,7.9,9.7,11.8,7.1c1.5-1,1.5-0.4,0.6,0.6
			C3752.9-874.9,3756.4-866.1,3764.3-865.9C3764.2-865.9,3764.2-865.9,3764.3-865.9L3764.3-865.9z"/>
		<path id="path147-0-8-1-0-3-83-7-5-7" d="M3681.8-1062.4c7.8,0.2,11.3,9,5.5,15.8c-0.8,1-0.9,1.6,0.6,0.6
			c3.9-2.6,11.4-0.9,11.8,7.1c0.5,9.8-13.2,12.7-15.8,2.2c-0.1-1.1-1-1.1-0.8,0.5c0.2,4.2,1.6,8.2,3.4,12.1c-3.1,0-6.5,0-9.3,0
			c1.8-3.9,3.1-7.8,3.4-12.1c0.2-1.6-0.7-1.6-0.8-0.5c-2.6,10.4-16.3,7.6-15.8-2.2c0.4-8,7.9-9.7,11.8-7.1c1.5,1,1.5,0.4,0.6-0.6
			C3670.5-1053.4,3674-1062.2,3681.8-1062.4C3681.8-1062.4,3681.8-1062.4,3681.8-1062.4L3681.8-1062.4z"/>
	</g>
</g>
</svg>
