<?xml version="1.0" encoding="utf-8"?>
<!DOCTYPE svg PUBLIC "-//W3C//DTD SVG 1.1//EN" "http://www.w3.org/Graphics/SVG/1.1/DTD/svg11.dtd">
<svg version="1.1"
	 id="svg8193" xmlns:rdf="http://www.w3.org/1999/02/22-rdf-syntax-ns#" xmlns:dc="http://purl.org/dc/elements/1.1/" xmlns:cc="http://creativecommons.org/ns#" xmlns:svg="http://www.w3.org/2000/svg"
	 xmlns="http://www.w3.org/2000/svg" xmlns:xlink="http://www.w3.org/1999/xlink" x="0px" y="0px" width="178.6px" height="249.4px"
	 viewBox="0 0 178.6 249.4" enable-background="new 0 0 178.6 249.4" xml:space="preserve">
<g id="layer1" transform="translate(-1.889274e-5,-740.55055)">
	<g id="g7120" transform="matrix(0.99553491,0,0,0.99680337,-3617.0133,771.39682)">
		<path id="rect7234-2" fill="#FBFBF6" stroke="#7F7F7F" stroke-width="0.4" d="M3642.2-30.5h161.5c4.7,0,8.5,3.8,8.5,8.5v232.4
			c0,4.7-3.8,8.5-8.5,8.5h-161.5c-4.7,0-8.5-3.8-8.5-8.5V-22C3633.6-26.7,3637.5-30.5,3642.2-30.5z"/>
		<path id="path6351-0" fill="#131F67" d="M3657.6-11.1c0.1,63.5,0,141.4,0,210.5h130.6V-11.1H3657.6z M3695.9-9.9
			c22.5,0.6,45.2,0,67.9,0.1c0,0-8.2,14.5-10.8,19c-0.5,1-0.6,1.7-0.3,2.1c0.5,0.6,0.4,1.7-0.1,2.4c-0.2,0.3-0.3,0.4-0.3,0.6
			c0,0.2,0.1,0.3,0.2,0.6c0.4,1.4-0.6,2.3-1.7,2.8c-0.7,0.3-2.4,0.5-3.6,0.4c-7.5-0.4-22.3-6.8-28.4-7.3c-4.2-1.2-9.7-0.8-14.2-0.5
			c-0.8,0.1-0.7-1.9-0.7-1.9C3703.2,1.9,3698.6-3.8,3695.9-9.9z M3765-9.2h21.6v3.4l-9.1,9.2c-0.8,0.9-1.5,1.6-1.5,1.6l-0.1,8.3
			c-6.1-3.3-7.3-7.2-8.4-11.6c-10.2,7.6-10.7,24.2,0.5,32.7c0.1-3.7,2.9-11,7.9-11.5l0.1,28.9l-6.1-6l-13.3,0.2
			c2.2-3.6,2.2-6.4,0.8-9.8c-2.4-5.5-6.1-18-5.8-18c0,0,0.1-0.3,0.4-0.3c1.1-0.2,1.8-1.3,1.5-2.6c-0.1-0.4-0.1-0.3,0.2-0.9
			c1.1-1.9-0.2-3.9-0.2-3.9L3765-9.2z M3694.4-9.2l8,14.6c0,0-0.1,0.7-0.1,1.1c0.1,0.6,0.2,1.1,0.6,1.6c0.2,0.3,0.4,0.8,0.4,1.3
			c0.1,0.7,0.1,0.7,1.1,1.7c0.2,0.2,0.3,0.3,0.2,0.5c-0.3,0.9-0.1,2.7,0.5,4.8c0.9,2.7,1.1,2.7-0.5,6.3c-0.3,0.8-0.7,1.8-1.2,2.7
			c-2,4.1-2.3,5.2,1.1,7.4c1,0.6,1.2,1.2,1,2.4c-0.2,1-0.2,1.6,0.2,2.1c0.3,0.4,0.6,0.4,0.5,0.7c-0.1,0.2-0.3,1-0.2,1.7
			c0.2,1.8-1.9,4.5-3.8,5.5c-0.4,0.3-0.5-0.1-0.7-0.4c-2-3.5-6.9-2.1-7.2,2.1c-0.1,1.1-0.1,1.6-0.3,1.8c-0.1,0.1-0.4,0.2-0.4,0.2
			s-7.4,4.8-12.1,7.3c-0.3,0.2-0.6,0.4-0.8,0.5c-0.3,0.1-0.4,0-0.6-0.2c-1.7-3.3-0.8-7.2-0.6-8.6c0-0.5-0.5-0.6-1.1-0.6
			c-1.1,0-2.6,1.1-2.9,2.1c-0.3,0.9-0.5,1.4-0.7,1.4c-0.3,0-0.4-0.4-1-1.6c-1.3-2.6-1.5-2.9-2.8-4.4c-1-1.2-1.8-1.4-2.8-0.5
			c-0.7,0.6-0.7,0.1-1.2-0.2c-1-0.7-2.5-0.1-2.5,0.9c0,0.8,0,1.4-0.9,1.5c-0.9,0.1-1.3,1.2-1,2.9c0.1,0.9,0.2,1-0.1,1.3
			c-0.9,1.1-1,1.8-0.5,3.3c1.4,4.2,3.4,7,5.2,10.8c0,0-4.6,2.7-7.4,4.3V-9.2H3694.4z M3786.7-5l0.1,67.9l-10.2-10.1
			c0,0-0.2-13-0.2-18.3c0-5.3,0.1-10.6,0.1-11.6c0-1,0.1-5.2,0.1-9.5c0.1-9.1-0.8-7.9,0.9-9.7L3786.7-5z M3766.8,3.2l0.6,1.6
			c-4.3,2.5-9.5,16.2,0.1,26.3l-0.2,2.1C3757.2,24,3759,10.8,3766.8,3.2z M3767.5,5.1c1.5,3,3.1,5.7,5.4,7.4
			c-1.2,2.9-1.8,6.2,0.3,10.6c-1.5,0.8-3.5,2.9-5.6,7.3C3760.1,22.7,3761.8,11.5,3767.5,5.1z M3711.2,10.9c4.2,0,8.6,0.7,12.6,1.9
			c2.5,12.9,7,21.5,7,26.6c0,0-0.4-0.1-1.1-0.6c-1.8-1.3-4.2-0.6-5.5,1.1c-1.2,1.6,0,3.8-0.6,4.8c-1.2,1.7-4.2,5-4.7,4.9
			c-0.4-0.1-0.3-0.2,1-2.3c1.4-2.1,2.4-4,2-4.5c-0.2-0.2-0.3,0.2-1.3,2c-2.4,4.2-4.5,6.7-5.3,6.4c-0.4-0.2-0.2-0.5,1.6-2.8
			c2-2.6,2.5-4.3,2.3-5c-0.2-0.6-0.5,0.3-1.3,2c-0.9,1.7-2.5,3.6-3.8,5.5c-0.4,0.7-0.9,1.1-1.6,1.4c-0.5,0.2-1.3,0.6-1.7,0.5
			c-0.2,0-0.1-0.2,0.3-0.5c2.5-2.6,4.7-5.6,6-8.4c0.2-0.4-0.1-0.9-0.4-0.5c-1.9,3.4-4.5,7.6-7.4,9.4c-0.6,0.4-1.5,0.7-2.4,0.7
			c-1.4,0-0.9-0.4,0.4-1.2c2.8-1.8,6.6-6.9,7.2-8.7c0.1-0.4,0-0.7-0.3-0.6c-2.3,3.6-5.3,7.7-8.7,9.3c-1.9,0.9-4.2,1.1-5.4,0.5
			c-0.9-0.4-0.6-0.6,0.9-0.7c3.6-0.4,7.9-3.8,10-7.4c1.2-2,0.4-1.6-1,0.4c-2.4,3.3-7.2,6.5-10.2,6.2c-3-0.2-4.7-2.5-4.3-4.5
			c0.2-1.2,1.1-2.5,2.8-2.8c2.9-0.6,4.8,4,2.1,4.8c-0.9,0.3-1.2,0.1-0.9-0.3c2-0.9,1.1-3.2-0.6-3.5c-1-0.2-2.2,0.6-2.3,2.2
			c0,1.2,1,2.4,3,2.4c2.3,0,5.9-1.7,8.1-4.8c1.5-2.4,0.1-1.6-1,0c-1,1.4-4.3,3.4-4.6,3.3l0.1-1.6c0.1,0.3,5.1-3.2,4.8-5.7
			c-0.2-1.9,0.1-2.4,2-2.4c1.4,0,3.3,0.5,3.8,1.2c0.5,0.7,1.2,0.9,0.9-0.2c-0.4-1.8,0.1-2.1-1-1.8c-0.7,0.2-1.4-0.3-2.1-0.9
			c-0.8-0.6-1.8-0.8-3-0.8c-0.9,0-1.3,0-1.2-0.9c0.1-0.6,0.2-1.1,0-1.5c-0.3-0.6-1.4-1.3-2.7-2.2c-1.5-1.1-1.2-1.2,2-8.5
			c1.3-3.1,1.3-3.7,0.5-6c-1.3-3.6-1.5-5,0.9-5.6C3708.4,10.9,3709.8,10.9,3711.2,10.9L3711.2,10.9z M3724.6,13l1.2,0.4
			c0,0,3.8,13.2,6,19.6c0.7,2,1.2,4.6,1.3,7.1c-0.1,3.4-2,5.9-4.3,6.2c-1.7,0.2-3.5-0.7-4.3-2.5c-0.7-1.8-0.2-3.8,1.8-4.6
			c3.5-1.2,6,3.2,2.6,4.6c-1.8,0.7-3.4-0.6-2.6-2.1c0.6-1,2.1-0.9,2.5,0.1c0.3,1.1,0.8,0.6,0.6-0.2c-0.6-2.5-3.8-1.9-4.1,0.4
			c0,2.8,3.1,3.5,4.9,1.9c1.4-1.3,1.6-3.6,1.2-5.5c-0.5-4.1-2.8-9.5-4.5-15.6C3726.2,19.7,3725,16.1,3724.6,13L3724.6,13z
			 M3773.5,13.1l2.3,0.9l-0.1,7.6l-2,0.7C3771.2,18.4,3773.3,13.1,3773.5,13.1L3773.5,13.1z M3726.7,13.6l1.7,0.7
			c0.9,5.4,5.3,15.7,6.8,23.4c0.4,4.6,0.5,6-2.6,8.5v0h-1.7c0,0,0-0.1,0.7-0.7c4.1-3.1,1.6-9.8,0.1-15
			C3729.1,22.1,3726.7,13.6,3726.7,13.6z M3710.9,14.1c-0.2,0-0.4,0-0.7,0c-2.6,0.1-3,0.3-3,0.9c0,1.1,0.4,1.5,2.8,1.3
			c2.1-0.2,5,0.1,7.1,1c2.3,1,2.9,1.3,3.7,1.7c2.1,1.1,1.7,0-0.2-1.3C3716.8,15.1,3714.1,14.1,3710.9,14.1L3710.9,14.1z
			 M3729.3,14.5l1.6,0.6c0,0,0.4,1.2,0.6,2c1.5,6.9,5.7,14.6,6.2,22.7c0.1,2.6-0.3,5.1-2.3,6.3h-1.5c1.6-1.6,2.6-2,2.2-7.4
			C3735.5,31.7,3730.9,23.1,3729.3,14.5z M3732.1,15.6l1.5,0.5c1.7,9.3,10,23.2,4.7,29.9h-1.3c1.2-1.9,1.7-3.5,1.5-6
			C3738,31.6,3733.7,23.4,3732.1,15.6L3732.1,15.6z M3734.6,16.5l1.6,0.5c2.1,9.4,10.4,24.9,4.5,29.1l-1.2,0
			C3743.9,37.8,3737.2,29.2,3734.6,16.5L3734.6,16.5z M3737.3,17.4c0.5,0.3,1.2,0.4,1.7,0.6c1.7,7.1,4.7,14.1,6.1,20.8
			c0.5,3.6-0.3,6.4-2.6,7.4h-0.5c2-3.1,1.7-7,0.6-11.2C3741.1,29.2,3738.3,23,3737.3,17.4z M3712.5,17.5c-0.7,0-1.5,0.1-2.3,0.4
			c-0.8,0.3-0.7,1,0,0.8c0.3,0,0.7-0.1,1-0.2c1.9-0.3,4.2,0.4,7,2.1c0.7,0.4,1.4,0.8,1.6,1c0.5,0.4,1.1,0.4,0.9-0.1
			c-0.1-0.2-1.2-1-2.1-1.6C3716.6,18.6,3714.7,17.5,3712.5,17.5L3712.5,17.5z M3740,18.1l1.6,0.2c3,13.8,9.5,22.4,3.9,27.5h-1.4
			c1.5-1.6,2.2-4,1.7-7c-0.5-3-2-7.7-3.3-11.9C3741.1,22.2,3739.9,18.1,3740,18.1L3740,18.1z M3742.3,18.5l1.3,0.3
			c1.6,5.6,4.2,12.6,5.9,18.3c1,3.6,0.6,7.9-1.6,8.8l-1.1,0c1.9-2.5,2.1-5.1,1.3-8.5C3746.3,30.4,3743.6,24.3,3742.3,18.5z
			 M3750.6,18.5c1.4,5.8,4.6,14.7,5.8,17.7c1.6,3.1,1.1,7.8-1.3,9.6l-1.1,0c1.3-1.3,1.8-3.4,1.6-5.6c-0.6-6.2-5-14.8-6.6-21.5
			L3750.6,18.5z M3744.7,18.8l1.4,0.1c1.4,6.1,4.1,12,5.8,18.1c0.3,1.4,0.6,3,0.5,4.3c-0.2,2.6-1.3,4.6-2.2,4.6h-1
			c2-2.3,1.9-5.5,1-9C3748.9,31.3,3745.5,24.4,3744.7,18.8z M3708.6,18.8c-0.6,0-0.6,0.5,0.3,1.3c0.6,0.5,0.5,0.3,0.5,0.6
			c-0.1,1.3,0.1,2.6,0.6,1.2c0.1-0.4,0.4-0.8,0.6-0.7c0.4,0.1,0.2,0.9,0.4,1.3c0.3,0.7,0,0.8-0.8,0.6c-0.6-0.1-0.6,0.2-1,0.6
			c-0.6,0.7-0.5,1.1,0.4,0.9c0.2,0,0.3,0,0.4,0c0.3,0.1,0.6,0.3,1.3,0.8c0.9,0.7,2.2,1.7,3.1,1.8c1.4,0.2,1.1-0.4-0.1-0.9
			c-1-0.4-2.1-1.4-2.1-1.7c0-0.2,0.3-0.1,2-0.6c0.7-0.2,1.8-0.7,2.2-0.9c0.7-0.3,0.8-0.3,1.9-0.3c2,0.1,2.3,0,0.9-1
			c-2.8-2.1-6.5-3.4-8.4-2.6c-0.6,0.3-0.6,0.1-1-0.1C3709.3,19,3708.9,18.8,3708.6,18.8L3708.6,18.8z M3748.2,19
			c1.9,7.4,5.6,14.1,6.5,21.1c0.2,2-0.1,4-1.8,5.7l-1.1,0c-0.2,0,1.6-2.7,1.4-5c0-1.2-0.1-2.6-0.4-3.9c-2.2-6.3-4.3-11.9-6-17.9
			L3748.2,19z M3713.7,21.5c0.4,0.1,0.4,0.3,0.3,0.5c-0.2,0.4-0.6,1.2-0.6,1.2s-0.5,0.1-0.6,0c-0.2-0.3,0.4-1.5,0.8-1.7
			C3713.5,21.4,3713.6,21.4,3713.7,21.5L3713.7,21.5z M3714.9,21.7c0.1,0,0.1,0,0.2,0.1c0.5,0.2,1.4,0.6,1,0.9
			c-0.4,0.4-2.2,0.5-2.1,0.4l0.6-1.1C3714.7,21.8,3714.8,21.7,3714.9,21.7z M3709.6,28.2c0,0-0.1,0-0.1,0c-0.1,0.1,0.1,0.5,0.5,0.9
			c1.5,2.1-0.6,2.7-2.1,1.6c-1.4-1.1-3.6-1-3.3,0.2c0.1,0.4,0,0.6,0.8,0.6c0.7,0,0.9,0.1,1.5,0.5c2.4,1.7,5.6-0.6,4-3
			C3710.6,28.5,3709.9,28.2,3709.6,28.2L3709.6,28.2z M3715.6,31.4c-0.9,0-1.4,0.7-0.3,0.9c4,0.7,1.3,4.8-1.5,2.7
			c-2.5-2.3-5.9-2.3-5.9-0.6c0,0.4,0,0.4,0.6,0.5c1.4,0.3,3.5,0.9,4.3,1.3c0.5,0.2,1,0.5,1.1,0.5c1.7,0.6,3.8-0.2,4.2-1.6
			C3718.5,33.8,3718.2,31.4,3715.6,31.4L3715.6,31.4z M3666,44.7c0.5,0,1.1,0.5,1.5,1.2c0.9,1.6,2.1,4.2,2.8,5.7
			c0.2,0.4,0.2,0.7,0.2,0.9c0.1,0.9,0.3,1.2,0.8,0.8c0.5-0.4,1.2-1,0.4-1.1c-0.8-0.6-1.3-1.5-0.8-2.1c0.4-0.4,0.2-0.7-0.1-0.7
			c-1.1,0-2.8-3.4-2-4.2c1.1-1,2.3,0.2,4.8,5.3c1.1,2.2,1.2,4.7,0.2,3.5c-0.3-0.3-0.3-0.1-0.6,0.8c-0.3,0.7-0.5,1.1-1.6,2.1
			c-1.3,1.3-2.1,2.3-2.2,2.5c-0.1,0.4,0.7,0,1.3-0.7c1.3-1.2,1.3-1.6,1.3,0.1c0,1.5-0.1,1.8,0.2,1.8c0.4,0,0.6-1.2,0.8-2.6
			c0.2-1.3,0.9-1.9,2-2.6c0.3-0.2,0.3-0.3,0.3-0.9c-0.2-1.8,0.8-5.2,1.3-4.4c0.1,0.2,0.3,0.6,0.4,0.9c0.1,0.5,0.4,1,0.8,1.1
			c0.6,0.4,0.6,0.7,0.8,2.2c0.1,0.5,0.3,1.3,0.4,1.7c0.3,0.8,0.6,1.2,0.4,1.4c-0.1,0.1-0.3,0.3-0.3,0.3l-9.3,5.5c0,0-0.7,0.4-1,0.5
			c-0.7,0.3-1.2,0.1-1.5-0.5c-2-2.9-3.3-6.2-4.7-9.3c-0.8-1.8,0-3,1.1-1.5c0.4,0.6,0.2,0.9,0,2c0,0.2,0.1,0.1,0.5,0.2
			c0.5-0.1,0.8,0.4,0.8,1.3c-0.3,1.2,0.1,0.5,0.4,0.5c0.4,0,0.5,0.3,0.8,0.8c0.2,0.7,0.5,0.5,0.9,0c0.4-0.4,0.4-0.4-0.4-1.3
			c-1.3-1.4-3-4.5-3.5-6.4c-0.1-0.5-0.1-0.9,0-1.2c0.6-1.3,1.4-1.3,2.2,0.5c0.1,0.3,0.4,0.8,0.6,1.1c0.3,0.5,0.5,0.9,0.5,1.7
			c-0.3,0.6-0.3,0.7-0.1,0.8c0.6,0.2,1.5,1.2,1.6,2.1c0,0.9,0.2,1.4,0.9,0.9c0.8-0.6,0.5-0.9-0.3-1.7c-0.8-1-0.9-1.9-0.4-2.6
			c0.1-0.2,0-0.3-0.3-0.3c-1,0.1-1.9-1.1-1.2-2.1c0.3-0.6,0.3-0.7-0.2-0.7c-0.2,0-0.6,0-0.8-0.1c-0.3-0.5-0.9-1.3-0.9-1.9
			C3665.1,45,3665.5,44.7,3666,44.7L3666,44.7z M3724,44.7c1.6,1,3.2,2,5,2.5c-4.2,7.6-10.9,11.6-16.5,13.2c0.2,1,0.3,1.9,1.3,2.5
			c0-0.1-0.4-1.9-0.4-2.2c7.7-2,14.6-9.6,16.3-13.6l34.1-0.4c-25.2,24.4-26.3,58.6-5.7,87.4l-2.4,1.4c-15.9-23.9-15.7-46.9-11-62.4
			c3.4-10.9,9.4-19.3,14-24.1c0,0-18.5-0.3-27.7,0.1c-1.3,2.1-2.6,3.7-4.4,5.7c0,0,4.7-4.5,4.5-5.3c8.5,0,17.3-0.5,25.8,0.1
			c-10,12-14.9,24.3-15.7,36c0,1.5-0.1,0.7-0.6,1.2l-1.6,2.5l-1.3-2.5c-0.9-0.3-2.5,0.2-3.3-0.1c-3.5,15.7,0,34.7,4.6,47
			c0,0-1.2,0.7-2.6,0.5c-1.6-0.3-1.9,0.1-3.3,0.4c-1.6,0.3-2.1,0.3-2.4,0.7c-0.2,0.2-0.5,0.5-0.9,0.7c-3.8,1.4-8.2,6.6-8.2,6.5
			l-4.2-1.9c3.8-7.6,8.3-10.3,16.3-13.7l-0.7-3.4c-8.4,3.2-13.8,6.9-18,14.3c-5.1-0.1-25.9-0.2-25.9-0.2
			c8.5-9.7,15.2-24.3,15.9-35.7c0.2-2.2-0.1-1.2,0.8-1.8l1.5-1.8l1.2,1.8c0,0,0.9,1.1,1.4,0.2c1.5-15.9-0.1-34-7.7-46.7
			c1.4-0.1,2.7-0.1,4,0.6c3,6.8,4.7,15.2,5.5,21.5c1,8,0.8,16.9-0.2,24.6l0.5,0.1c1.5-9.9,1-20.4-0.4-29.6c-0.7-4.8-3-12.3-4.5-15.8
			c-0.4-1-0.8-1.2-0.4-1.3C3716.4,52.8,3720.7,49.7,3724,44.7L3724,44.7z M3698.3,45.6c0.7,0,1.3,0.6,1.3,1.3c0,0.7-0.6,1.3-1.3,1.3
			c-0.7,0-1.3-0.6-1.3-1.3C3697,46.1,3697.5,45.6,3698.3,45.6z M3768.1,46.2c-2.7,2.5-4.9,5-7.2,7.8c6.8,9.4,14.3,19.6,20.7,27.7
			c0,0,2.2-1.3,2.2-1.5c0-0.1-0.2-0.5-0.2-0.4c-0.1,0.2-1.8,1.2-1.8,1.2l-20.1-26.5c0,0,1.1-1.3,1.4-1.7c1.6-0.5,5.9-5.9,6.1-5.8
			c3.4,2.6,13.7,13.7,17.6,17.1l0.1,30.8c-0.4,1.2-11.4,6-19.1,23.7c-3.9,2.2-8.2,3.4-12.2,5.3c0,0,1,1.6,1.5,2.1
			c-0.6-1.3-0.7-1.6,0.7-2.1l28.9-11.9l-0.1,2.4c-2.9,2.3-22.1,16.2-28,19.5c-27.7-38.8-10-72,6.1-87.5L3768.1,46.2z M3678,48.3
			c0.8,0,0.6,1.8,0.3,2.4c-0.6,0.4-1.1,0-1.1-0.8c0-0.3,0-0.5-0.1-0.6C3676.6,49.1,3677.3,48.3,3678,48.3z M3694.9,49.4
			c0.6,0.5,0.9,1.1,1.1,1.8c-0.9-0.1-3.2-0.8-2.1-1.3L3694.9,49.4z M3690.7,51.7c20,30.3,19.1,62.6-3.2,87l28.2,0
			c3.6-7.1,9.6-11.5,17.2-14.1l0.7,2.2c-8.8,2.8-13.2,7.5-16.8,14.1h-33.6c12.9-14,18.8-25.8,19.8-41.7c0.9-15.2-3-29.1-14.6-45.8
			L3690.7,51.7z M3696.3,52.1l4.7,2.2l-0.7,4.9l-4.9-2.3L3696.3,52.1z M3687.8,53.4c25.2,38.3,14.4,65.2-5.7,87.6l-3.7,0.1l-8.6-8.1
			l0.2,49c0,0-8.4,8.3-9.4,9.3c-1,0.9-1.7-0.5-1.7-0.5l0-64.9l0.4-2.5l0.1-14l5.4-2.8l20.1,26.5c0,0-0.8,1.2-1.2,1.4
			c0.4,1,1.9-1.4,2-1.8c-7.3-9.1-20.9-26.9-20.9-26.9l-5.6,3c0,0,0.2-11.6,0.1-16.1c0.2-1.1,1-0.8,1.5-1.2
			c7.3-4.8,13.4-11.7,18.5-23.4c3.9-1.3,8-3.1,11.9-4.7l-5.7-8.5L3687.8,53.4z M3672.4,53.9c-0.2,0-0.8,0.2-1.5,0.9
			c-1.3,1.2-3.1,3.3-3.1,3.6c0.4,0.1,0.7-0.1,1-0.4c1.1-1.7,2.9-2.3,3.9-3.8C3672.8,54,3672.6,53.9,3672.4,53.9z M3685.1,55.7
			c0,0,3.9,5.7,4.9,7.2c-10.3,4.1-21.1,9.5-30.6,13v-2.3C3659.4,73.6,3677.3,60.1,3685.1,55.7z M3700.4,59.5l3.8,2l-1.1,4.4
			l-3.9-2.2L3700.4,59.5z M3703.6,66.7l3.2,2.3l-1.4,3.7l-3.2-2.2L3703.6,66.7z M3677.8,69.4c0,0-0.5,1.7-1.3,3.3
			c-3.9,6.8-7.7,12.9-15.7,18.2c-0.3-0.3-1.2-1.8-1.2-1.8l-0.1-2c4.2-3.4,7.8-5.9,13.4-15.8l1.6-0.7l1.4,0.6l0.9-1.7L3677.8,69.4z
			 M3694.2,69.5c-3.6,7.8-7.2,15.8-13,21.9l15.9,22.3C3702.3,97.9,3700.4,83.1,3694.2,69.5z M3674.2,71.2l-0.8,1.3l1.3,0.8l0.8-1.3
			L3674.2,71.2z M3672.1,71.3c-2.9,6.5-7.2,11.5-12.9,15l-0.2-9.5L3672.1,71.3z M3673.1,73.2l-0.8,1.3l1.3,0.8l0.8-1.3L3673.1,73.2z
			 M3705.6,73.5l2.9,2.7l-1.7,3l-2.9-2.4L3705.6,73.5z M3749.5,74.9C3749.5,74.9,3749.5,74.9,3749.5,74.9c-5,15.8-3.5,30.8,3.4,43.9
			c3.4-8.5,6.2-14.2,12.8-23.2C3761.6,90.2,3749.9,74.7,3749.5,74.9L3749.5,74.9z M3671.9,75.1l-0.8,1.3l1.3,0.8l0.8-1.3
			L3671.9,75.1z M3693.9,76.9c4.5,10.9,4.1,20.8,1.7,29.3l-11.3-14.4C3688.5,86.6,3691.2,81.7,3693.9,76.9z M3670.8,77l-0.9,1.3
			l1.3,0.9l0.9-1.3L3670.8,77z M3669.5,78.8l-0.9,1.2l1.2,0.9l0.9-1.2L3669.5,78.8z M3706.9,80.1l2.6,2.5l-1.6,3.2l-2.6-2.4
			L3706.9,80.1z M3668,80.7l-1,1.2l1.2,1l1-1.2L3668,80.7z M3750.9,81l11.4,14.8c-3.8,4.6-7,10-9.8,15.8
			C3749.3,101.6,3747.8,91.8,3750.9,81z M3666.4,82.5l-1.1,1.1l1.1,1.1l1.1-1.1L3666.4,82.5z M3693.1,84l-5.2,7.6l6,7.7
			C3694.6,95.2,3694.7,90.3,3693.1,84z M3664.7,84.3l-1.1,1l1,1.1l1.1-1L3664.7,84.3z M3663.1,85.7l-1.2,1l1,1.2l1.2-1L3663.1,85.7z
			 M3707.8,86.5l2.1,2.5l-2.2,2.6l-2-2.3L3707.8,86.5z M3735.1,87l1.5,0.1c-2.4,23.7,2.3,35.8,6.5,46.2c0,0,0,0.4-0.2,0.5
			c-0.7,0.2-2.1,0.5-3.2-0.5C3734.1,118.8,3732.9,101,3735.1,87z M3661.1,87.3l-1.2,0.9l0.9,1.2l1.2-0.9L3661.1,87.3z M3752.6,88.1
			c-0.4,0-0.7,9.8,0.7,14.5l5.3-7.2L3752.6,88.1z M3739,89.7l1.8,2.4l-1.9,2.6l-1.9-2.4L3739,89.7z M3659.7,90.4
			c0.1,0,0.2,0.2,0.5,0.4c0.3,0.3,0.2,0.3-0.1,0.5c-0.5,0.4-0.6,0.3-0.6-0.3C3659.6,90.6,3659.6,90.4,3659.7,90.4L3659.7,90.4z
			 M3707.9,92.2l1.9,2.8l-2.2,2.8l-1.8-2.9L3707.9,92.2z M3738.9,95.7l2,2.5l-1.8,2.8l-2.2-2.6L3738.9,95.7z M3786.3,96.3l0.2,2.9
			l-0.7-1.1l-1.3,1l0.9,1.2l1.1-0.9l0.1,1.2c-7.2,5.2-10.3,11.3-13.3,15.8l-1.3,0.6l-1.5-0.5l-0.7,1.3l-1.3,0.3
			c0,0,2.5-5.5,6.9-11.2C3779.4,101.9,3786.3,96.2,3786.3,96.3L3786.3,96.3z M3787.2,100.8l0.1,10.3l-12.9,5
			C3777.6,110.3,3781.6,105,3787.2,100.8z M3783.9,99.5l-1.2,1l1,1.2l1.2-1L3783.9,99.5z M3782.1,101.1l-1.1,1l1.1,1.1l1.1-1
			L3782.1,101.1z M3739,101.7l2.4,2.6l-1.8,3.1l-2.5-2.4L3739,101.7z M3780.3,102.8l-1.1,1.1l1.2,1.1l1.1-1.1L3780.3,102.8z
			 M3778.6,104.5l-1,1.1l1.2,1.1l1-1.1L3778.6,104.5z M3776.9,106.4l-1,1.2l1.3,1l1-1.2L3776.9,106.4z M3739.8,108.3l3,2l-1.5,3.6
			l-3-2.3L3739.8,108.3z M3775.5,108.3l-0.9,1.2l1.4,0.9l0.9-1.3L3775.5,108.3z M3774.1,110.3l-0.8,1.3l1.4,0.9l0.8-1.3
			L3774.1,110.3z M3772.9,112.2l-0.8,1.3l1.4,0.8l0.8-1.3L3772.9,112.2z M3771.7,114.2l-0.8,1.3l1.6,0.7l0.6-1.3L3771.7,114.2z
			 M3741.5,115l3.1,2.1l-1.4,3.8l-3.3-2.3L3741.5,115z M3786.6,118.8v78.6h-34c0,0-1.6-2.8-5-9.4c-1.4-2.8-2.6-4-2.7-6.2
			c0.1-1.3-0.5-2.8-1.5-3.3c-0.4-0.2-0.9,0-0.7-0.5c0.2-0.6-0.5-1.5-0.6-1.7c-0.2-0.4-0.1-0.4-0.1-1.7c0-1.3-0.1-1.8-0.4-2.8
			c-0.7-2.4-0.8-3.6-0.4-4.9c1-3.2,2.1-5.6,3.4-8.6c0.8-1.7,0.7-2.4-1.8-3.7c-1.8-0.9-2.1-0.9-1.8-2.3c0.1-0.6,0.2-1.1,0.1-1.4
			c-0.1-0.2-0.4-0.5-0.6-0.6c-0.2-0.2-0.2-0.6,0.1-0.9c0.2-0.3,0.2-0.7,0-1.5c-0.5-1.5,0.6-3.6,2.8-5c0.9-0.6,0.9-0.5,1.9,0.5
			c2.9,3,7.1,1.1,7.1-3.1c0-1.3-0.4-1.3,0.8-1.9c4.3-2.7,13-7.7,12.9-7.5c0.6,1.2,0.8,2.2,1.1,3.4c0.3,1.1,0.3,1.2,0.2,3.3
			c-0.1,1.9-0.2,2.3,0.3,2.5c2.5,0.3,3.1-0.6,3.6-2.3c0.2-0.7,0.6-0.6,0.9-0.3c1,1.8,2.2,3.6,3,4.8c1,1.6,2.7,2.4,3.5,1.6
			c0.2-0.6,0.3-0.6,1.4-0.4c1.3,0.3,2.1-0.5,2.2-1.4c0.1-0.4-0.2-0.4,0.5-0.8c1.8-1.3,1.1-3.2,0.8-4.2c0,0.1,0.8-0.5,0.8-1.5
			c0.1-5.3-4.5-13-4.4-12.8L3786.6,118.8z M3743.4,121.9l3.6,1.8l-0.9,4.4l-3.7-1.7L3743.4,121.9z M3778.8,123.5
			c2.1,2.4,3.6,6.5,4.4,9.2c0.4,1.3,0.4,2.8,0.1,3c-0.3,0.2-0.5,0-0.4-0.8c0.1-0.7,0.1-1.2-0.2-1.2c-0.8,0.2-0.8-1-0.8-1.3
			c0.1-0.2,0.2-0.3,0.2-0.4c0.2-0.5-0.3-0.4-0.9-0.4c-0.5,0-0.6-0.3-0.6-0.7c0-0.5-0.7-0.4-1.1,0c-0.3,0.4-0.3,0.8,0.2,1.1
			c0.7,0.4,1.3,1.4,2.9,5c0.9,2.1,0.6,3.5-0.4,3.5c-0.8,0-1.6-2.1-2.4-3.6c-0.2-0.4,0.3-0.8,0.4-1.1c0.4-0.6,0.4-0.7-0.3-0.7
			c-0.6,0-0.8,0-1.2-0.7c-0.1-0.3-0.2-0.7-0.2-0.9c0.3-0.8-0.3-1-0.9-0.7c-0.8,0.3-0.7,1,0.4,2.1c0.7,1.2,0.5,1.1-0.2,2
			c-0.1,0.3-0.1,0.5,0.3,0.5c0.9-0.3,1.9,1.3,1.6,1.9c-0.3,0.2-1,1.1-0.3,0.9c1.5-0.4,2.4,1.8,1.5,2.5c-1.3,0.6-1.6,0.4-3.6-3.5
			c-0.6-1.2-1.4-2.6-1.4-2.7c-0.1-0.1-0.1-0.5-0.1-0.8c0.1-0.7-0.2-0.9-0.8-0.6c-0.5,0.1-0.9,0.5-0.3,0.9c0.7,1.2,0.9,1.4,0.6,1.7
			c-0.9,0.7-0.5,0.7,0.5,0.9c0.5,0.1,0.7,0.4,0.8,0.7c0.5,1.1,1.4,2.7,1.5,3c0.3,0.8-0.2,1.2-1,1.2c-0.8,0-1.1-0.6-1.5-1.1
			c-1.4-1.9-2.4-3.8-3.8-6l0.2-2c0,0,0.4,0.1,0.6,0c0.4-0.2,0.6-0.8,0.9-1.7c0.4-0.7,2.5-2.4,3.4-3.3c0.2-0.1,0.3-0.3,0.3-0.4
			c0-0.3-0.9-0.1-1.6,0.6c-0.9,0.8-1.3,0.5-1.3-0.5c-0.1-1.3-0.9-0.6-0.9,0.6c-0.1,1-0.4,1.6-1.1,2.1c-1.3,1-1.1,0.8-1,2.2
			c0.1,2.5-0.9,4.6-1.5,3.2c-0.2-0.5-0.5-1-1.1-1.1c-0.4,0-0.6-0.4-0.8-1.4c-0.3-1.6-0.8-2.6-1.2-4.1L3778.8,123.5z M3746.5,128.9
			l4.2,1.7l-0.8,4.4l-4.2-1.6L3746.5,128.9z M3778.5,129.3C3778.5,129.3,3778.5,129.3,3778.5,129.3c-1.3,0.9-2.4,1.9-3.7,2.7
			c-0.5,0.3-1,1-1.1,1.2c0,0.2,0.6,0.2,1.1-0.1c0.5-0.2,3.6-3.1,3.6-3.4C3778.7,129.6,3778.7,129.3,3778.5,129.3L3778.5,129.3z
			 M3740,134.7c1,0,0.4,0.3-1.8,1.8c-2.1,1.5-5.6,6.1-6,7.9c-0.2,0.8,0.3,0.8,0.9-0.2c2.6-5,7.4-9.5,11.9-9.3
			c2.2,0.1,3.4,0.7,1.6,0.9c-4.9,0.6-8.6,3.4-11.9,9.1c0,0.1,0.3,0.1,0.6-0.1c3-3.6,6.3-8.5,12.2-8.1c4.2,0.3,5.4,5.3,1.9,7
			c-3.1,1.5-5.9-2.2-3.3-4.3c0.8-0.7,1.3-0.4,0.5,0.3c-1.7,1.5,0.4,4.3,2.4,3.3c1.3-0.5,1.8-2.3,0.7-3.7c-2.5-3-7.8-0.7-11.5,4.2
			c-0.4,0.5-0.7,1.6-0.4,1.5c0.6-0.2,0.9-0.7,1.3-1.2c1.3-1.8,2.3-2.8,4.1-3.8c1.4-0.8,1.5-0.6,1,0.7c-0.2,0.6-0.4,0.7-0.9,1.1
			c-2.3,1.5-3.7,3.6-3.7,4.9c0,1,0.7,2.2-0.1,2.5c-1.3,0.6-4.8,0.1-5.8-1.1c-0.7-0.9-0.9-0.4-0.4,1.1c0.3,0.9,0.3,1.5,0.8,1.4
			c0.6-0.3,1.1-0.3,2.3,0.4c0.6,0.3,1.7,0.6,2.3,0.8c1.2,0.3,1.4,0.2,1.4,0.7c0,0.2,0,0.6,0,0.9c-0.2,1.6,1.1,2.1,2.9,3.1
			c1,0.6,0.6,1.2-0.6,4.2c-0.6,1.3-1.2,3.2-1.9,4.5c-0.7,1.5-0.8,3.2-0.3,5.1c0.9,3.6,1.5,5.4-0.1,5.7c-3.9,0.6-12.6,0.6-17.4-1.3
			c-1.2-9.2-7.6-22.7-6.8-26.2c1.6,2.5,8.5,1.8,6.5-5.1c0,0,0.6-0.8,1.7-2c2.9-3,3.6-3.4,2.2-0.8c-1.1,2-2.4,4.6-2.4,5.1
			c0,0.4,0.3,0.5,0.5,0.2c0.2-0.2,0.4-0.8,0.6-1.3c1.7-4.1,4.7-7.7,6.7-8.6c0.5-0.2,0.5,0,0.1,0.5c-2.4,3-4.2,5.8-5.5,9.4
			c-0.1,0.4,0.5,0.5,0.6,0.2c2.2-4.7,2.9-5.8,5.7-9.1c1.1-1.3,2.1-2,2.9-1.9c0.7,0.1,0.5,0.2-0.2,0.9c-0.5,0.5-1.2,1.3-2.4,2.8
			c-2.1,2.6-4.2,6.9-3.4,6.7c0.1,0.4,0.8-0.8,1.3-1.9c1.5-2.6,3.1-5.9,6.7-8.2C3738.4,134.9,3739.2,134.7,3740,134.7L3740,134.7z
			 M3670.3,135.5l6.4,6.4l12.9-0.2c-2.1,3.3-1,8.5,0.2,11.5c2.3,5.9,5.7,15.7,5.4,15.8c0,0-1.9,0.5-2,1.7c-0.3,1.8,0.5,1.6-0.6,3.2
			c-0.2,0.4-0.1,1,0.2,1.6c0.2,0.4,0.3,1,0,1.5l-11.4,20.4h-21.8v-4l11-11l-0.1-8.1c5.9,1.8,7.9,7.9,8.4,12.4
			c10.7-9.8,10.4-24.5,0.3-33.7c-2,9.8-9,11.8-8.8,11.6L3670.3,135.5z M3750.5,136.7c0.7,0.1,1.6,0.2,2.3,0.5
			c-0.4,0.3-0.7,0.6-1,0.9C3751.4,137.4,3751,137.1,3750.5,136.7z M3768.4,136.7c0.6,0,1.3,1.7,0.9,2.1c-0.2,0.2-1,0.3-1.2,0.1
			C3767.7,138.7,3767.9,136.7,3768.4,136.7z M3748.1,139.7c0.7,0,1.3,0.6,1.3,1.3s-0.6,1.3-1.3,1.3c-0.7,0-1.3-0.6-1.3-1.3
			S3747.3,139.7,3748.1,139.7z M3691.3,141.6l1,0c-1.8,2.4-2,4.4-1.4,7.3c0.7,3.3,6,15.8,6.4,19.2c0,0.2,0,0.6,0,0.6l-1.3,0.1
			c0,0-0.1-0.4-0.1-0.5c-1.8-6.2-3.7-11-4.9-14.6C3689.7,149.9,3687.7,144.1,3691.3,141.6L3691.3,141.6z M3698.4,141.6
			C3698.4,141.6,3698.4,141.6,3698.4,141.6l1,0c0,0-1.4,2.9-1.5,4.7c-0.1,2,0.4,4.2,1,6.3c1.6,4.7,3.8,9.9,5.1,15.7
			c0,0.1,0.2,0.6,0.2,0.6l-1.4-0.2c0,0-0.1-0.6-0.2-0.7c-0.9-5.2-3.6-10.5-5.2-15.6c-0.8-2.3-1.4-5.2-1.1-7.3
			C3696.6,143.7,3698.1,141.7,3698.4,141.6L3698.4,141.6z M3709.6,141.6c-1,1.5-1.9,3.4-1.9,5c-0.1,2.8,0.8,5.2,1.6,7.6
			c2.5,7.6,3.7,11.6,4.9,17.7l-1.3-0.6c0,0-0.1-0.3-0.1-0.4c-0.7-3.8-0.8-3.5-4.9-16.4c-1-3.1-1.9-5.8-1.7-8.4
			c0-1.5,1.3-4.4,2.7-4.6L3709.6,141.6z M3711.2,141.6h1.2c0,0-0.7,0.7-0.9,1c-2.2,3-1.5,6.2-0.5,10.1c1.5,5.3,4.2,11.2,5.6,19.3
			c0,0.1,0,0.9,0,0.9l-1.5-0.6c-1.3-7.4-4.6-15.1-6.2-21.8c-0.9-3.9-0.7-6.4,1.5-8.5C3711.1,141.7,3711.2,141.6,3711.2,141.6z
			 M3696.1,141.7h0.9c0,0-1.5,2.6-1.5,4.1c-0.3,2.7,0.7,5.7,1.8,8.8c1.7,4.8,4,10.6,4.7,13.6c0,0.1,0.1,0.7,0.1,0.7l-1.6-0.1
			c0,0-0.1-0.7-0.2-1.1c-1.9-6.6-3.7-10.8-5.8-16.8c-0.3-0.9-0.8-4.5-0.2-6.8C3694.8,142.2,3696.1,141.7,3696.1,141.7L3696.1,141.7z
			 M3693.7,141.7l1,0c0,0-0.1,0.3-0.5,0.9c-1.8,3.3-1,6.3,0.1,9.7c1.5,4.5,3.9,10,5.3,15.2c0.1,0.3,0.2,1.2,0.2,1.2l-1.4,0
			c0,0-0.3-1.1-0.3-1.2c-0.8-4.8-5.2-12.8-6.3-19C3691.1,145.3,3691.6,143.3,3693.7,141.7z M3707,141.7c0,0-1.6,2.7-1.7,4.3
			c-0.3,3,0.7,5.5,1.7,8.9c1.9,5.8,4.5,12.7,4.7,15.8c0,0.1,0,0.5,0,0.5l-1.6-0.6c0,0-0.1-0.3-0.1-0.4c-1.4-5.7-3.1-11.3-5.3-17.7
			c-0.6-2.1-1.3-4.3-1.2-6.1c0.3-2.5,0.7-3.1,2.2-4.6L3707,141.7z M3714.2,141.7l1.3,0c0,0-0.4,0.2-1.3,1.2
			c-5.2,4.7,3.2,18.1,5.1,30.3c0,0.1,0.1,0.6,0.1,0.6l-1.4-0.5c-0.1-0.6-0.2-1.3-0.4-2c-1.6-6.2-3.6-12.6-5.6-18.4
			c-1.1-4.2-1.5-8,0.5-10C3713,142.1,3714.2,141.7,3714.2,141.7z M3700.7,141.7l1.4,0c-1,1.3-1.6,3.2-1.6,5
			c-0.1,2.1,0.5,4.1,1.2,6.2c1.4,4.4,3.4,9.1,4.8,15.1c0.1,0.4,0.1,0.6,0.2,0.8c0.1,0.3,0.2,0.7,0.2,0.7l-1.5-0.3
			c0,0-0.2-0.4-0.3-0.6c-0.1-0.3-0.3-0.7-0.4-1.2c-0.7-3.1-3.3-10.1-4.9-15C3698.5,149.4,3698.1,144,3700.7,141.7L3700.7,141.7z
			 M3718.1,141.7c1.8-0.1,3.4,1.5,3.8,2.9c0.4,1.5-0.1,3.2-1.8,4.1c-2.7,1.4-5.6-2.3-3.5-4.3c1.6-1.5,4-0.4,3.5,1.5
			c-0.3,1.3-2.2,1.3-2.6,0.1c-0.1-0.4-0.3-0.9-0.5-0.6c-1,2.3,2.3,3.4,3.7,1.3c0.8-1.7-0.7-4-3-3.6c-3.1,0.6-3.5,4.6-2.2,9.3
			c1.8,7.4,6.2,17.3,6.2,21.9c0,0.1,0,0.2,0,0.2l-1.4-0.4c0,0,0-0.1,0-0.1c-0.8-6.4-5.5-16.9-6.9-25c-0.6-3.7,0.8-6.4,4.1-7.1
			C3717.7,141.8,3717.9,141.8,3718.1,141.7z M3704.5,141.8c-1,1.3-1.6,3.3-1.6,4.6c0,2,0.7,4,1.3,6.2c1.5,5.3,5.1,15,5,16.8
			c0,0.2,0.1,0.8,0.1,0.8l-1.4-0.4c0,0-0.1-0.1-0.2-0.3c-0.5-1.8-2.6-9.5-5.1-16.2c-0.9-2.7-1.4-4.8-1.3-6.6c0.2-2.5,0.9-3.5,2-4.8
			L3704.5,141.8z M3730.6,150.5c-3.6,0.2-3.2,4.6-1,5.3c0.8,0.2,1.3,0,1.4-0.1c0.1-0.2,0-0.5-0.5-0.6c-1.5-0.5-2-2.3-0.7-3
			c0.7-0.4,1.9-0.1,3.3,0.9c2.5,1.9,5.7,2,5.3,0.1c-0.1-0.5-0.3-0.5-2.2-0.8c-1.5-0.2-2.2-0.7-2.9-1
			C3732.3,150.7,3731.4,150.5,3730.6,150.5z M3679.6,154.6c9.2,9,7.8,23.2,0,30.3c-0.2-0.6-0.5-2-0.5-1.9c5.9-6.2,8.7-16.3,0.1-26.7
			C3679.2,156.3,3679.4,155.5,3679.6,154.6L3679.6,154.6z M3737.3,154.8c-0.1,0-0.2,0-0.2,0c-2.4,0.7-2.9,3-1.3,4
			c0.9,0.6,1.7,0.2,0.5-0.5c-1-0.6-0.5-2.2,0.7-2.2c0.5,0,0.9,0.2,2.3,1.3c1.1,0.8,2.2,0.9,2.4-0.2c0.1-0.7-0.1-1-0.8-0.8
			c-0.3,0.1-0.5-0.1-0.9-0.4C3739,155.3,3737.9,154.8,3737.3,154.8L3737.3,154.8z M3678.7,156.6c8.3,9.7,5.6,19.8,0,25.7
			c-1.5-4.6-5.3-7.4-5.3-7.4c1.4-3.2,2.3-6.5-0.4-10.7C3675.5,162,3677.5,159.5,3678.7,156.6z M3732.6,160.1c-0.4,0-0.3,0.4,0.7,1
			c2.2,1.5,2.4,1.8,0.3,1.7c-0.5,0-1.4,0.4-1.9,0.5c-2.8,0.9-2.9,0.9-4.2,0.5c-0.4-0.1-0.9-0.3-1.1-0.1c-0.3,0.3-0.6,0.5-0.3,0.9
			c0.3,0.3,0.8,0.5,1.4,0.9c3.2,1.9,3.5,2.3,7.3,2.4c0.4,0,0.7-0.2,0.9-0.2c0.6,0,0.9,0.1,1.6,0.7c1.1,1,1.2,0.3,0.5-1.1
			c-0.4-0.7-0.7-0.9-0.5-1.4c0.4-1.3-0.2-1.5-0.9-0.4c-0.6,0.9-0.6,0.8-1.1-0.3c-0.7-1.4-0.4-2,0.7-1.1c0.8,0.7,1,0.2,1.3-0.4
			c0.4-0.7,0.3-1.4-0.4-1.3c-0.4,0-0.8-0.2-1.1-0.5C3735,161.2,3733.8,160.3,3732.6,160.1z M3733.5,163.9c0.1,0,0.1,0,0.2,0.1
			c0,0.5-0.3,1.4-0.6,1.9c-0.1,0.2-0.2,0.2-0.4,0.3c-0.7,0.1-0.7-0.1-0.6-0.5C3732.3,165.1,3732.5,164.2,3733.5,163.9
			C3733.4,163.9,3733.5,163.9,3733.5,163.9L3733.5,163.9z M3731.8,164.2c0.3,0,0.3,0.1,0.2,0.3c-0.2,0.4-0.5,0.8-0.8,1.1
			c-0.5,0.3-1.4-0.7-1-1c0.5-0.2,0.9-0.4,1.5-0.5C3731.7,164.2,3731.8,164.2,3731.8,164.2L3731.8,164.2z M3672.4,164.9
			c0.1,0,0.3,0,0.4,0.1c2,2.7,1.9,6.9,0.3,9.2c-0.1,0.2-0.2,0.2-0.4,0.1c-0.7-0.4-1.5-0.5-2.2-0.8v-8
			C3671.2,165.4,3671.7,164.9,3672.4,164.9L3672.4,164.9z M3725.3,165.5c-0.2,0-0.2,0.1,0,0.3c2.9,2.1,7,4.6,10.7,3.6
			c0.3-0.1,0.6-0.3,0.6-0.6c0-0.2-0.4-0.4-0.8-0.3c-0.9,0.2-2.5,0.3-3.2,0.1c-2.6-0.4-4.8-2.1-6.8-3
			C3725.6,165.6,3725.4,165.5,3725.3,165.5L3725.3,165.5z M3724.4,167.6c-0.1,0-0.1,0.1,0,0.4c0.4,1.2,4.6,4.1,7.8,5.1
			c2.8,0.8,6.8,0,6.6-1.3c-0.1-0.7-0.6-0.9-2.4-0.6c-3.9,0.8-7.8-0.9-10.6-2.7C3725,167.9,3724.6,167.6,3724.4,167.6z M3698.6,169.3
			c1.7,0,3.4,0.1,5.3,0.4c3.6,0.6,7.8,1.7,11.3,3.4c6,2.3,13.5,4,19.9,3.8c1.6,0,4.4-0.1,4.9-0.3c1.4-0.3,1.8,0,2.2,1.8
			c0.1,0.4,0.2,0.5,0.7,0.8c0.8,0.5,0.6,1,0.5,2.2c-0.1,1,0.5,1.5,2.8,5.8c2.6,4.9,5.2,10.5,5.2,10.5c-23,0-45-0.9-68.6-0.1
			c2.1-5.1,7.9-14.2,11.5-21.5c-0.9-2.3,0.2-2.6-0.2-3.2c-0.7-1.3-0.2-3,1.3-3.4C3696.5,169.4,3697.5,169.3,3698.6,169.3z"/>
		<path id="path6353-8" fill="#E2CF00" d="M3683.1,197.7c0,0,7.6-15.4,10.7-19.9c4.6-5.8,25.2,2.5,35.5,4.6
			c4.2,0.8,13.9,0.4,13.9,0.4l8.1,14.7L3683.1,197.7z M3667.4,180.3l-0.3-47.8l2.4,1.5l0.5,48l-10.2,9.8l-0.1-2.9L3667.4,180.3z
			 M3673.6,174.8c2.4-4.9-0.3-10.9-0.3-10.9c1.4,0.3,5.3-7.2,5.7-6.9c6,7.4,7.1,18.5-0.3,25.3
			C3676.8,177.5,3673.6,174.8,3673.6,174.8L3673.6,174.8z M3678.1,141c4.6-4.7,8.2-8.4,11.8-13.6c0.3-0.4-19.3-25.5-19-25.9
			c3-3.4,7.1-5.8,10.2-9.9c0,0,16.1,21.2,16.4,21c1.6-6.6,2.8-12.6,2.5-19.5c-1-17.7-8.5-28.5-8.6-28.3
			c-2.5,16.3-27.5,40.9-32.5,39.2l0-11.4c0.3,0.6,15.8-10.1,19.9-24.1c0.3-1,12.4-4.9,12.3-5c-0.5-1.3-5.8-8.8-5.8-8.8s2.1-1,2.4-1
			c6.8,8.6,12,19.8,13.8,30.5c2.1,11.6,3.5,33.3-19.5,57L3678.1,141z M3747.1,111.1c-3.6-11.3-3.5-22.9-1.8-31
			c2.5-14.7,11.8-25.3,19.2-33.3l3.2,0c0,0-3.9,4-5.3,5.5c-2.4,2.8-5.9,8.6-5.9,8.6l19.2,25.3l11-2.4c0,0-0.3,11.3,0,11.3
			c-8.5,7.1-14.6,13.5-19,23.8c-2.7,1-11.6,4.9-11.6,4.9c-4.2-1,12.6-27.6,9.4-28.1c-1.3-1.1-16-21-16.2-20.9
			c-6.7,20.8-0.2,42.6,11.7,57.8c-1.3,0.9-2.6,1.6-2.5,1.4C3753.5,126.8,3749,118.3,3747.1,111.1L3747.1,111.1z M3712,100.7
			c0.8,1.2,4.2-25.4-4.8-46.6c0.9-0.7,8.3-2.1,8.3-2.1l2,6.4l-5.1,2.2l0.9,3c3.9-1.9,12.4-4.7,17.7-13.5c0,0,25.4-0.2,26-0.2
			c0.5,0-5.2,5.5-10.6,16.7c-2.5,5.1-4.4,11.7-4.9,19.4c-0.1,1.5-5.8-7.2-5.8-7.2c1.4-7.4,5.3-14.6,9.1-21.8c0,0-5.8-0.3-9.9-0.2
			c-6.4,7-10.3,10.7-19.9,14c3.5,11.3,24.9,16.7,20.1,15.6c-1-0.2-2.2,10.3-1.2,22.3c0.2,9.5,5.3,25.4,5.5,25.3c0,0-3.4,0.8-3.7,0.2
			c0.6-0.1-5.1,1.3-5.1,1.3l-2-5.9l5.4-2.5l-0.9-3.3c0,0-12,3.7-17.9,14.2l-26.3,0c10.1-11.1,14.3-22,16.5-36.5
			C3707.6,101.8,3712,100.7,3712,100.7L3712,100.7z M3776.6,5.2c3.3-2.8,9.9-10,9.9-10l0.1,3.7l-7.5,7.9l0.1,48.6l-2.5-2.5
			L3776.6,5.2z M3773.1,23c-1.4,0.6-4.1,3.8-5.3,7.4c-8.7-7.8-5.1-22.2-0.4-25.2c1.4,3.1,5.4,7.3,5.3,7.2
			C3771.8,15.7,3771.1,19.1,3773.1,23z M3696-9.6l67.2,0.1c-3.8,7.6-7.4,13.7-11.4,21.2c-2.1,2.6-48-8.3-48.3-7.2L3696-9.6z"/>
		<path id="path6355-9" fill="#D40000" d="M3659.6,188l-0.4-63.8l7.6,7.5l0.5,49L3659.6,188z M3694.7,175.7
			c-1.6,0.2-0.7-1.2-0.4-2.6c0.2-0.8-0.6-1.5-0.6-1.8c0-1.4,1.1-2,5.7-1.9c11,0.8,16.7,4.3,23,6c6.1,1.6,12.1,1.5,18.7,1.4
			c0.5,0.3,2.3,4.9,1.9,5.4C3728,185.1,3708.8,173.9,3694.7,175.7L3694.7,175.7z M3721.9,142.6c-1.6-1.2-3.1-1.4-4.6-1.6
			c2.6-4.6,5.7-8.8,11-11.4l2.4,6.1C3727.7,137.3,3724.7,139.2,3721.9,142.6L3721.9,142.6z M3690.1,126.9c0,0-2.3,3.7-4.4,5.5
			c-6.3-8.6-20.5-26.8-20.5-26.8l-6,3.1c0,0,0-3.5,0.1-3.8c16.3-8.4,27.4-24.4,32.3-39.3c0,0,2.6,2.7,2.3,3.8
			c-4.4,11.8-11.9,23.6-23,32.4L3690.1,126.9z M3710.4,109.5l20.5,0l0.9,7.2c-7.9,2.7-14.4,8.1-20.4,14.3l-9.7-0.2
			C3704.8,123.8,3709.3,116.7,3710.4,109.5z M3786.4,79.2c0.7,2,0,4.2,0.3,4.1c-24.6,12.2-31.6,39.1-31.6,39.1s-2.3-3.7-2.2-4.3
			c12.7-28.5,21.3-29.3,22.9-32.4l-19.4-25.2l4.4-6l20.8,27.2C3783.5,80.8,3784.7,80,3786.4,79.2z M3774.3,116.1
			c4.2-7.5,8.5-11.9,12.8-14.9l-0.2,10L3774.3,116.1z M3659.3,86.5l0.1-9.7l12.7-5.5C3668.5,79,3663.8,83.1,3659.3,86.5z
			 M3715.7,77.8L3715,71c7.7-3.4,14.5-7.9,20-14.1c5.9-0.3,9.9,0.1,9.9,0c0,0-5.6,8.3-9.3,21.3L3715.7,77.8z M3779.5,6.4l7-7.1
			l0.2,63.6l-7-6.9L3779.5,6.4z M3717.9,58.1l-2.2-6.3c3.5-1.3,6.1-4.2,8.6-7c1.7,1.5,3.8,2,4.6,2.3
			C3729.9,47.3,3721.8,57.1,3717.9,58.1z M3704.8,10.4c0,0-0.9-0.5-0.8-1.2c0.3-0.9-0.9-3-0.9-3c14.9-4.5,36.6,8.3,49.5,5.6
			c-0.1,0.9,0,2-0.3,2.8c0.4,1.8,0.7,1.9-1.1,3c-9.1,2.6-18.6-2.9-27.4-5.5C3716.5,9.7,3710.7,10.3,3704.8,10.4L3704.8,10.4z"/>
		<path id="path6357-5" fill="#100F08" d="M3695.2-10.5l2.7,5.2l-0.5,0.3c0.7,1.2,1.4,2.6,2.1,3.9l0.5-0.1c0.9,1.7,1.3,2.4,2.4,4.4
			l-0.5,0c0.3,0.9,1,1.5,1,2.2c0,0.8-0.2,1.6,0.3,2.2c0.6,0.6,0.7,0.8,0.5,1.2c-0.3,1,0.6,2.1,1.5,2c6.5-0.9,13.2-0.1,19.8,1.9
			c4.8,1.5,9,3.2,13,4.4c1.3,0.4,3.8,1,6,1.1c6.1,0.4,9.5-0.8,8.5-3.4c-0.1-0.2-0.3-0.4-0.3-0.5c0-0.2,0-0.4,0.3-0.7
			c1-1,0.4-1.8-0.2-2.9c0,0,7.8-14.1,11.8-21.1L3695.2-10.5z M3763.1-9.2l-5.7,9.9c-3.1-0.6-3.8,2-3.8,2.4c-4-1-3.4,4.2-1.4,4.5
			c0.1,0.8-3.3,1.7-5.1-0.1c2.7,0.4,3.7-3.3,0.4-4.1c4.4-3.3-3.9-8.3-4-1.4c-3.9-0.7-3.4,4.5-0.9,4.9c-1.3,1.4-5,1.4-6.9-1.5
			c3.3,1.7,5.1-2.7,1.7-4c4.2-3.7-4.1-7.2-3.9-1.1c-3.1-1.9-5.3,2.9-1.1,3.6c-0.2,0.9-5.7,0.9-7.1-1.4c3.9,0.9,4.1-3.9,0.6-4.3
			c3.4-4.4-5.3-6.6-3.8-0.6c-3.4-1.3-4.7,2.9-1.4,4.2c0.2,0.7-5.3,1.2-7.3-1.2c4.2-0.6,2.8-4.8,0-4.4c0,0,0-0.1,0.2-0.5
			c1.3-4.1-5.7-4.5-4.7-0.1c0.2,0.4,0.3,0.9,0.3,0.9c-1.9-0.4-3.1,0.4-3,2.2c0.5,2.4,1.7,2.2,3.4,1.7c0.7,0.7-3.9,3.1-6.8,1
			c3.5-1,1.7-5.2-1.2-4.6c-0.1-1.3-1.6-3.2-3.4-2.3l-2-3.9L3763.1-9.2z M3768.8,46l-4.1,0.1c-2.9,3-23.9,22.4-20.4,51.8
			c1.5,12.6,5,23.5,14.3,36.3l2.5-1.5l0.4,0.3l25.9-15l0-4.5l-30,12.7c-0.6-0.6-0.9-1.3-1.4-2.1l12-5.1c0,0,0.3-0.7,0.4-1.1
			c4-10.1,12-17.4,19-23c0-9.9-0.1-30.7-0.1-30.7L3769.2,46c-2.3,2.1-4.4,4.3-6.4,6.7l20.8,27.5l-1.8,1.2l-20.6-27.4
			C3763.6,51.1,3766.2,48.6,3768.8,46L3768.8,46z M3787.3,63.8c0,0-0.1-47.2-0.2-70l0,0L3776.3,5l0,47.9L3787.3,63.8z M3786.4-1.7
			l-7.6,7.9l0.1,48.6l-2-1.9V5.6l9.5-10L3786.4-1.7z M3712.2-2.8c0.2,0.4,0.1,1-0.2,1.4c-1.6,1.9,3.3,5.3,6.9,4.7
			c2.7-0.4,5-2.1,4-3.3c-0.8-1-0.3-2,0.7-2c1,0,1.8,0.8,0.9,1.9c-1.9,2.4,1,5.3,5.5,5.3c3.2,0,4.2-0.7,4-3c-0.1-1.1,0.1-1.3,0.9-1.5
			c1.2-0.3,1.8,1.1,0.8,2.1c-2.1,2.2,0.3,5.5,4.2,5.7c1.4,0.1,1.7,0,3.4-0.9c1.3-0.7,1.7-1.8,1.1-2.6c-0.8-1.1,0.3-2.4,1.5-1.8
			c0.9,0.4,1.3,1.1,0.3,2.2c-1.3,1.5-0.7,2.8,1.8,3.6c1.9,0.7,3.3,0.6,4.2-0.3c0.3-0.3,0.9-0.8,0.9-0.6c-0.6,1.1-1.1,2-1.1,2
			c-4,1.8-7.2-1.6-7.1-1.7c-4.2,2.4-7.9,1.9-11-2.2c-0.8,0.5-6.6,1.5-10.8-3.1c-4.2,2.1-8.2,1.2-11.7-1.1c-2.6,2.5-5.3,2.8-8.1,1.7
			l-0.8-1.7c0.2-0.1,1.1,1.7,5.6,0.9c1.5-0.3,4-2.8,2.6-4c-0.7-0.9-0.7-1.4-0.1-1.9C3710.9-3.7,3711.9-3.4,3712.2-2.8z M3701.4-0.6
			c0.2,0.5,0.3,1.3,0,0.8c-0.1-0.3-0.9-1.4-0.9-1.4C3700.9-1.3,3701.2-0.9,3701.4-0.6L3701.4-0.6z M3786.4-0.2l0,62.8l-6.5-6.5
			l-0.3-49.2L3786.4-0.2z M3711.3,2.8l2,1.3l-3.7,0L3711.3,2.8z M3722.7,3.9l1.7,1.7l-3.6-0.8L3722.7,3.9z M3754.9,4.8l-0.8,1.6
			C3753.7,5.8,3753.5,4.8,3754.9,4.8z M3767.8,30.9c1.3-2.9,3-6.7,5.9-7.9c-2.1-4.2-1.8-8.4-0.3-10.7c-2.1-2-4.3-4.4-5.7-7.8
			C3761,10.5,3759.9,22.7,3767.8,30.9z M3767.6,5.6l0.5,1.1c-6,7.4-4.1,17.1,0.2,22.2l-0.6,1.3C3762.4,24.7,3760,12.8,3767.6,5.6z
			 M3731.8,9.8c6.9,2,12.5,5.2,20.5,2.4l0,1.6c-5.1,3.3-15.3-0.2-22.2-2.7c-11.1-4.1-19.7-3.9-25.8-3.4c-0.5-0.1-1-1.5-0.1-1.5
			C3715.8,6,3713.9,4.5,3731.8,9.8z M3733.4,7l2.3,2.4c-1.7-0.5-3.4-1.1-4.9-1.9L3733.4,7z M3768.2,7.6l0.4,0.6
			c0.2,0.3-1.3,0.4-1,0.1L3768.2,7.6z M3729,12.1c8.3,3.1,17.4,6.3,23.4,3.5c0,0,0,1.2-0.6,1.5c0,0-0.6,0.5-2.7,0.8
			c-9.7,0.8-16-3.2-23.8-5.6c-3-0.9-7.7-2-12.6-2.2c-2.9-0.1-7.4,0.3-7.4,0.3c-1-0.1-1-0.7-1-1.2C3712.7,8,3720.4,8.8,3729,12.1z
			 M3769.1,9.1c0.1,0,0.2,0,0.3,0l0.8,1.1l-1,1.6c0,0-0.9-0.8-1.3-1.6C3767.7,9.6,3768.3,9.1,3769.1,9.1z M3744.7,9.4l2.6,2
			c-2,0.1-4.2,0.2-6.4-0.7L3744.7,9.4z M3766.9,10.4c0.2,0,0.4,0.2,0.7,0.7c0.5,0.8,0.4,1-0.5,1.3c-1.2,0.4-1.3,0.3-0.9-0.8
			C3766.4,10.8,3766.6,10.4,3766.9,10.4z M3770.9,10.9l1.8,1.5c-1,2.6-1.6,5.8,0.3,10.5c-0.2,0-1.5,1.3-1.9,1.5
			C3770,23.9,3767.5,14.7,3770.9,10.9z M3768.9,12.9l-0.5,2.8c0,0.2-2-1.3-1.8-2.1C3767,12.6,3768.1,12.8,3768.9,12.9z M3765.7,13.9
			c0.2,0,0.6,0.6,1,1.3c0.4,0.6,0.3,0.8-0.5,1.5c-1.1,1.2-1.4,0.8-1.1-1.2C3765.2,14.5,3765.4,13.9,3765.7,13.9L3765.7,13.9z
			 M3768,16.4c0.2,0,0.3,0,0.4,0.1l0.1,2.8c0,0.2-2.1-0.1-2.4-1.2C3765.8,17.5,3767.2,16.4,3768,16.4L3768,16.4z M3765.2,18.8
			c0.2,0,0.6,0.3,1.1,0.6c0.8,0.5,0.8,0.7,0.1,1.6c-0.8,1-1.2,0.9-1.3-0.9C3765,19.3,3765,18.8,3765.2,18.8z M3768.4,19.8
			c0.1,0,0.1,0,0.2,0.1c0.4,0.3,1,3.1,0.7,3.4c-0.4,0.4-2.2-0.1-2.6-0.8C3766.3,21.9,3767.7,19.8,3768.4,19.8z M3766.1,23.1
			c0.2,0,0.6,0.1,1.2,0.4c0.3,0.2,0.9,0.5,1.1,0.8c0.2,0.5-0.1,1.2-0.6,1.8c-0.3,0.4-0.6,0.1-1.2-1.2
			C3766,23.8,3765.7,23.1,3766.1,23.1z M3769.8,24.3c0,0,0.1,0,0.1,0c0.6,0.3,0.5,1.4-0.2,2.2c-0.9,0.9-1.7,0.2-1-0.9
			C3769.1,24.8,3769.5,24.3,3769.8,24.3L3769.8,24.3z M3718.1,50.1c-0.5,0-1.4,0.5-1.8,1c-0.5,0.6-0.9,0.5-1.4,0.5
			c-0.6,0-1.6,0.1-2.8,0.7c-0.7,0.3-1,0.4-2.1,0.5c-0.7,0-1.4,0.1-1.5,0.2c-0.2,0.1-0.6,0.3-1.1,0.4c-0.9,0.3-0.6,0.5-0.1,1.7
			c2.7,6.9,4.6,15,5.3,21.6c0.8,7.5,0.5,16.7-0.5,23.7c-2.6,0-4.2-0.1-6.9-0.1c-1.8,15.1-6.9,27.1-16.9,37.9l27.1,0.1
			c3.1-8.3,17.3-14.7,17.7-14.2l0.7,3c0,0-10.2,1.5-17,14.5c0.7-0.4,3.3-0.1,4.9,1.6c3.4-4.3,8.9-7.1,8.9-7l0.2-0.5
			c0,0,1-0.3,1.9-0.5c0.3-0.1,0.9-0.2,1.3-0.3c0.6-0.2,0.9-0.4,1.8-0.4c1.9,0.2,3.9-0.4,3.8-0.4c-5.7-15.9-7.1-30.3-4.9-47
			c2.1,0,6.8,0.1,6.8,0.1c0.5-4.7,1.1-9.4,2.5-13.8c1.8-5.7,4.1-11,7.6-15.8c2-3,3.8-5.2,5.9-8l-26.5,0.1
			c-3.5,5.9-10.3,10.9-15.7,12.9c-1.8,0.7-2.1,0.6-2.4-0.3c-0.5-1.6-0.5-1.5,0.9-1.9c0.5-0.1,2-1,4.4-2.1c5.1-2.6,8.6-7.4,10.7-10.6
			c0.8-1.3,0.3-1-1.1-1c-1.3-0.1-1.9-0.5-3-1.6c-0.4-0.4-0.6-0.7-0.8-0.7C3722.6,46.3,3720.1,49.2,3718.1,50.1L3718.1,50.1z
			 M3724.3,45c1.2,1.3,2.6,2,4.5,2.3c-3,4.7-6.6,8.4-10.8,10.6l-2.1-6C3721.1,49.5,3722.5,47,3724.3,45z M3767.5,46.9
			c-28,26.1-26.4,58.9-6.8,85.6l-2.1,1.2c-18.4-24.8-21.8-61.6,6.4-86.9L3767.5,46.9z M3749.9,50.1l6.9,0l-4.7,6.1l-6.3,0
			L3749.9,50.1z M3748.8,50.2l-3.8,6.1l-10.3,0.1c-6.2,7.6-12.8,11.4-19.5,13.9l-1.3-6.5c0,0,10.7-2.6,17.6-13.7L3748.8,50.2z
			 M3738.3,50.7l-2.4,2.7l2.5,2.5l2.3-2.6L3738.3,50.7z M3743.7,50.6l-2.4,2.5l1.9,2.5l2.5-2.5L3743.7,50.6z M3731.8,51.1l-0.4,4
			l3.1,1l0.5-3.4L3731.8,51.1z M3750.7,51.2l-2.3,3.6l3.4,0.1l2.4-3.5L3750.7,51.2z M3715.2,52.1l2.2,6.1l-1.9,0.9l-2-6.4
			L3715.2,52.1z M3712.6,53.1l2.3,6.4l-1.9,0.6l-2.1-6.6L3712.6,53.1z M3715.3,78.2c0.3,8.8,0.4,14.2-1.1,21.9c-0.1,0.4-1.7,0-1.7,0
			c0.2,0.1,0.9-8.8,0.8-14.3c-0.1-10.6-1.9-21.1-6-31.5c0.8-0.5,2.7-0.7,2.7-0.7C3712.7,61.5,3715,70.1,3715.3,78.2z M3687.8,53.7
			c9,12.1,15.5,28.4,14.4,44.6c-1,18.8-8.1,29.6-20.6,42.6l-3.2,0.1c14.7-14.2,21.2-26.3,21.8-42.4c0.6-18.4-5-30.7-14.4-43.8
			L3687.8,53.7z M3658.8,70.3l0,4.4l30.8-13.3l-4.4-6.6L3658.8,70.3z M3731.1,55.9l-3.4,0.2l0.1,3.4l3.5-0.1L3731.1,55.9z
			 M3761,55.2l20,26.3l-4.9,3.7l-19-24.7L3761,55.2z M3745.3,57l6,0.1L3749,61l-5.8,0L3745.3,57z M3744.2,57.1
			c-2.7,5.1-6.5,11-8.7,20.5l-19.7,0c0-2.2-0.3-4.3-0.6-6.5c8.5-3.1,15-7.8,19.9-14L3744.2,57.1z M3747.9,57.4l-2.6,1.5l1.6,1.8
			l2.8-1.1L3747.9,57.4z M3724.4,59.3l-0.8,3.4l3.2,1.2l0.6-4L3724.4,59.3z M3742.8,61.8l5.7,0l-2.4,4.8l-5.7-0.1L3742.8,61.8z
			 M3756.4,61.2l18.9,24.6l-1.8,1.4l-18.5-24.1L3756.4,61.2z M3745,62.2l-2.6,2.2l1.9,2.3l2.4-1.9C3746.8,64.7,3745,62.2,3745,62.2z
			 M3719.9,62.4l-0.8,3.3l3.3,0.9l0.6-3.5L3719.9,62.4z M3715.3,64.5l-0.7,3.2l3.1,0.8l0.7-3.1L3715.3,64.5z M3689.5,64.2
			c0.2,0-0.5,3.8-1.5,4.5c-0.5,0.3-0.7,0.3-1.1-0.2c-0.3-0.3-1.6-2.4-1.6-2.4l1.1-0.6c1.3,2.2,1.3,1.1,1.9-0.7L3689.5,64.2z
			 M3684.3,66.4c0.4,0,1,0.5,1.6,1.6c0.9,1.5,0.8,1.6-0.6,2.1c-2.6,0.7-3.5,0.9-2.7-0.9C3683.4,67.4,3683.8,66.4,3684.3,66.4z
			 M3692,66.1l1.8,3c-7.1,18.1-18.5,31.1-34.2,39l0-3C3678.1,94.5,3685.6,82,3692,66.1z M3740.1,67.4l5.6,0.1l-1.5,4.3l-5.9,0
			L3740.1,67.4z M3682.6,67.3c-4.5,10.9-10.7,20.3-23.1,28.3l0-2.9c13.9-8.4,19.9-24.2,19.9-24.2L3682.6,67.3z M3753,67.2
			c3.3,0.1,6.8,3.7,6.4,6.7c-0.2,2.1,0.2,3.7,0.7,2.8c1.3-1.9,5-0.6,4.9,1.6c0,1.2-0.8,1.4-1.3,0.3c-0.7-1.6-2.6-1.7-2.9,0
			c-0.3,1.6,1.1,2.8,4.7,4.1c4.2,1,6.7,4.8,5.2,6.9c-0.5,0.6-0.8,0.7-0.9,0.4c0-0.1-0.1-0.5-0.2-1c-0.5-2.3-1.6-3.2-2.9-2.5
			c-0.7,0.4-0.6,0.9-0.2,1.6c0.5,0.9,0.2,1.3-0.7,0.8c-1.5-0.7-1.9-2.5-0.5-3.3c1.7-0.7,1.1-0.8-1-1.5c-4.6-1.6-6.5-4.4-6.7-9.9
			c0.1-2.5-0.3-3.4-1.4-3.7c-1.1-0.3-2.3,1.1-1.5,1.8c0.4,0.4,0.8,0.7,0.5,1c-0.7,0.7-2.5-0.4-2.5-1.6c0-0.8,0.3-0.9,1.5-1.9
			c0.3-0.3,0-0.7-0.4-0.7C3751.9,69.7,3752,67.3,3753,67.2z M3742.7,67.9l-2.8,1.6l1.4,2l3.1-1.5L3742.7,67.9z M3688.5,69.5
			c0.3,0,0.6,0.3,0.6,0.6c0,0.3-0.3,0.6-0.6,0.6c-0.3,0-0.6-0.3-0.6-0.6C3688,69.7,3688.2,69.5,3688.5,69.5z M3694.2,69.7
			c5.9,12.9,7.3,27.6,3.2,42.4l-15.9-20.7C3687.7,84.4,3691.7,76.5,3694.2,69.7L3694.2,69.7z M3672.8,70.7l-14.2,6l-0.1,10.7
			C3666.5,81.9,3669.8,76.3,3672.8,70.7z M3686.4,70.6c1.4,0,0.7,3.7-1.1,5c-0.7,0.5-1.1,0.5-1.3-0.6c-0.1-0.5-0.7-1.7-1.4-2.6
			c-0.8-1.1-0.8-1.1,0.4-1.2C3684.3,71.3,3685.4,70.7,3686.4,70.6L3686.4,70.6z M3685,72.2c-1,0-1.3,0.5-0.7,1.1
			c0.5,0.6,0.9,0.4,1.3-0.4C3685.8,72.4,3685.6,72.2,3685,72.2z M3659.5,86l0-9.1l12.1-5.1C3669.2,77.1,3664.7,82.4,3659.5,86z
			 M3767,93.3l-1.6,1.6l-15.6-20.5l1-2.6L3767,93.3z M3681.4,72.6c0.5,0,1.7,1.8,2,3.1c0.2,1,0,1.2-1.8,1.5c-0.8,0.2-2.8,0-2.6-0.5
			C3679.2,75.9,3681.2,72.6,3681.4,72.6L3681.4,72.6z M3738,72.8l5.7,0.1l-1.3,4.7l-6-0.1L3738,72.8z M3740.5,73.1l-2.7,1.8l2.1,2.1
			l2.8-1.7L3740.5,73.1z M3749.4,75.1l15.8,20.6c-4.7,6-9.4,13-12.5,22.1C3747.1,104.6,3745,91.8,3749.4,75.1z M3685.3,76.9
			c0.3,0,0.6,0.3,0.6,0.6c0,0.3-0.3,0.6-0.6,0.6s-0.6-0.3-0.6-0.6C3684.7,77.1,3684.9,76.9,3685.3,76.9z M3683.4,77.7
			c1,0.1,0.1,3.2-1.4,4.4c-1.2,0.9-1.7,0.5-1.9-1.2c-0.1-0.6-0.7-1.6-1.3-2.4c-0.6-0.9-0.4-1,1.2-0.7
			C3681.1,78,3682.4,77.7,3683.4,77.7z M3736.3,78.4l6,0l-0.9,7.1L3736.3,78.4z M3678,78.8c0.9,0.9,2.1,4,1.5,4.2
			c-0.7,0.3-3.9-0.1-4.3-0.5c-0.2-0.3-0.2-0.3,0.3-1c0.3-0.4,0.8-1.2,1.2-1.7C3677.1,79.4,3677.5,78.3,3678,78.8z M3681.3,78.9
			c-0.9,0-1,0.2-0.5,1.1c0.4,0.8,0.6,0.9,1.2,0.3C3682.9,79.6,3682.5,78.8,3681.3,78.9z M3786.3,79.5l0.2,3.5
			c-23,11.5-31.6,38.5-31.7,38.5l-1.7-3.1C3763.6,92.3,3777.7,84.7,3786.3,79.5L3786.3,79.5z M3678,83.7c1.4,0,1.8-0.1,1.8,0.4
			c0,1.4-1.3,3.3-2.8,4.1c-1,0.5-1.1,0.5-1.2-0.7c-0.1-1-0.4-2.2-0.9-3.2c-0.2-0.4-0.7-1.2,0-1C3675.6,83.5,3677.1,83.7,3678,83.7
			L3678,83.7z M3681.1,83.3c0.3,0,0.6,0.3,0.6,0.6s-0.3,0.6-0.6,0.6s-0.6-0.3-0.6-0.6S3680.7,83.3,3681.1,83.3z M3673.7,84.1
			c0.2,0,0.5,0.5,0.8,1.3c0.6,1.6,0.8,2.5,0.6,2.9c-0.3,0.6-4.1,0.2-4.7-0.5C3670.3,88,3673.2,84.5,3673.7,84.1L3673.7,84.1z
			 M3676.5,84.6c-0.5,0-0.3,0.4,0.1,1.3c0.3,0.7,0.7,0.8,1.1,0.3c0.6-0.6,0.7-1.1,0.3-1.4C3677.4,84.6,3677,84.6,3676.5,84.6z
			 M3786.4,88.1l0,1.2c-0.9-0.3-1.4-0.6-2.5-1c-0.6-0.2-1-0.4-0.4-1c0.9-1,1.8-1.7,2.8-2.3l0,1.3C3784.7,87,3784.9,87.7,3786.4,88.1
			L3786.4,88.1z M3720,86.9h6.3v4.2h5l-0.4,4.8h-4.6v4.2h-6.3v-4.2h-4.5l0.4-4.8h4.2L3720,86.9z M3734.3,86.9
			c-3.2,16-0.3,33,4.7,46.9l-2.5,0.3c-3.9-11.1-6.9-26.9-3.8-47.1C3732.7,86.9,3733.8,86.9,3734.3,86.9L3734.3,86.9z M3781.5,87.2
			c0.3,0,0.6,0.3,0.6,0.6c0,0.3-0.3,0.6-0.6,0.6s-0.6-0.3-0.6-0.6C3780.9,87.5,3781.1,87.2,3781.5,87.2z M3669.8,88.6
			c0.2,0,0.9,0.3,1.4,0.4c0.9,0.2,1.5,0.3,2.3,0.4c1.6,0,1.8,0,1.1,1.3c-0.5,0.9-1.6,2.2-2.4,2.6c-1.1,0.6-1.5,0.5-1.4-0.6
			c0-0.7-0.3-2-0.7-2.9C3669.8,89.1,3669.4,88.6,3669.8,88.6z M3676.5,89.1c0.3,0,0.6,0.3,0.6,0.6c0,0.3-0.3,0.6-0.6,0.6
			s-0.6-0.3-0.6-0.6C3675.9,89.4,3676.1,89.1,3676.5,89.1z M3783.3,89c0.4,0,1.2,0.3,1.9,0.6c1.9,0.9,1.8,1.1-0.7,2.9
			c-1.8,1.4-2.3,1.5-2.3-0.6C3782.1,90,3782.3,89,3783.3,89L3783.3,89z M3668.8,89.6c0.7,0,1.6,3.9,0.9,4.2c-1,0.5-4.2-0.5-4.2-1.4
			C3665.5,92.1,3668.5,89.6,3668.8,89.6L3668.8,89.6z M3781.1,89.4c0.4,0,0.5,0.3,0.5,1.6c0,0.7,0.1,1.7,0.1,2.2
			c0.1,1,0,1.1-0.8,0.6c-0.5-0.3-1.6-0.8-2.7-0.9c-0.9-0.1-1-0.5-0.7-1.1C3778.3,90.5,3779.7,89.5,3781.1,89.4z M3671.6,90
			c-0.6,0-0.5,0.3-0.1,1.3c0.3,0.7,0.8,0.8,1.3,0.2c0.7-0.8,0.6-1.2-0.5-1.4C3672.1,90,3671.7,90,3671.6,90z M3780.2,90.9
			c-0.3,0-0.6,0.2-0.8,0.4c-0.6,0.4-0.8,0.7,0,1c0.8,0.3,1.2,0.4,1.1-0.3C3780.5,91.5,3780.5,90.9,3780.2,90.9L3780.2,90.9z
			 M3720.6,91.4v4.2h5.1v-4.2H3720.6z M3775.7,91.8c0.3,0,0.6,0.3,0.6,0.6s-0.3,0.6-0.6,0.6s-0.6-0.3-0.6-0.6
			S3775.4,91.8,3775.7,91.8z M3681.1,92.4L3697,113l-1.1,2.7L3679.5,94L3681.1,92.4z M3786.5,92.3l0,2.7
			c-1.8,1.3-13.2,9.7-19.2,23.7l-3.1,1.3C3768.7,108,3778,97.6,3786.5,92.3L3786.5,92.3z M3665.2,93.5c1,0.3,2,1,3,1.2
			c1.1,0.1,1.5,0.1,1.2,0.7c-0.7,1.3-2,2.7-3.3,3.1c-1,0.3-1.4,0.2-1.3-0.4c0.3-1.1,0.3-2.1,0.3-3.1
			C3665.3,94.3,3664.8,93.5,3665.2,93.5L3665.2,93.5z M3664,93.7c0.7,0.6,0.5,4.2-0.2,4.9c-0.4,0.4-1.5,0-3.2-0.9
			c-1.1-0.6-1.3-1-0.8-1.4C3660.8,95.8,3663.5,93.6,3664,93.7z M3777.9,93.8c0.3,0,0.8,0.1,1.3,0.2c2,0.4,2.4,0.9,0.7,2.3
			c-0.6,0.5-1.3,1.1-1.5,1.4c-0.9,1.1-1.5,0.3-1.7-1.7C3776.6,94.4,3776.8,93.6,3777.9,93.8L3777.9,93.8z M3775.4,94
			c0.3,0,0.5,0.2,0.5,0.6c0,0.5,0.4,2.7,0.6,3.4c0.4,1,0.1,1.3-0.8,0.8c-0.6-0.3-2.3-0.6-3.2-0.5c-1,0.1-1-0.2-0.7-1.1
			C3772.4,95.6,3774.5,94,3775.4,94L3775.4,94z M3666.2,94.7c-0.4,0-0.4,0.5-0.1,1.7c0.1,0.4,0.4,0.4,1-0.1c0.7-0.5,0.7-0.8-0.1-1.3
			C3666.6,94.8,3666.4,94.7,3666.2,94.7z M3670.7,94.8c0.3,0,0.6,0.3,0.6,0.6c0,0.3-0.3,0.6-0.6,0.6c-0.3,0-0.6-0.3-0.6-0.6
			C3670.2,95.1,3670.4,94.8,3670.7,94.8z M3773.5,97.1c0.3,0.3,1.3,0.3,1.5,0.1c0.3-0.3,0.1-1.4-0.1-1.6
			C3774.4,95.4,3773.2,96.7,3773.5,97.1z M3677.9,99.3c0.3,1.7,2.7,1.6,2.4-0.2c-0.2-1-0.2-1,0.3-1c2.4,0.1,2,3.9-0.8,3.6
			c-0.6,0.1-0.7,0.3-0.2,0.5c0.5,0.2,2.3,0.7,2.6,0.7c3,0,7.4,4.6,7.2,8.8c-0.1,2.7,0.8,4.6,1.8,4.9c0.7,0.2,1.8-0.5,1.7-1.3
			c-0.1-1.1,0.8-0.8,1.3,0c0.8,1.1-0.2,2.8-2.2,2.6c-0.8,0.2,0.6,0.7,1.7,1c1,0.1,0.1,1.2,0,1.5c-0.5,0.6-2.3,0.1-3.7-1
			c-1.7-1.4-2.4-3.2-2.6-6.9c-0.1-2.3-0.3-2.8-1-1.9c-1.2,2.2-4.1,1.1-4.5-1.2c-0.2-1.2,0.9-2.1,1.2-1c0.9,2.3,3.1,1.7,2.8-0.5
			c-0.2-1.5-1.7-2.3-4.6-3.1c-3.5-1-4.6-2.2-5.3-5.1c-0.3-1.3-0.3-2,0.4-2.6c0.3-0.3,0.8-0.7,0.8-0.7S3677.7,98.4,3677.9,99.3
			L3677.9,99.3z M3770,97.5c0.3,0,0.6,0.3,0.6,0.6c0,0.3-0.3,0.6-0.6,0.6s-0.6-0.3-0.6-0.6C3769.4,97.7,3769.6,97.5,3770,97.5z
			 M3659.4,98c1,0.4,1.9,0.9,3,1.3c0.7,0.2,0.5,0.8-0.2,1.6c-0.8,1-1.6,1.4-2.7,2l0-1.6c1.4-0.5,2.2-1.6-0.1-2L3659.4,98z
			 M3772.7,98.9c0.4,0,1,0,1.6,0.2c1.7,0.3,1.9,0.5,0.9,1.7c-0.4,0.4-0.9,1.1-1.2,1.5c-1,1.4-1.5,0.9-2-0.9
			C3771.4,99.5,3771.3,98.8,3772.7,98.9z M3664.7,99.6c0.3,0,0.6,0.3,0.6,0.6s-0.3,0.6-0.6,0.6s-0.6-0.3-0.6-0.6
			S3664.4,99.6,3664.7,99.6z M3771,100.9c0.2,0.6,0.4,1.3,0.6,1.9c0.9,2,0.3,1.2-1.3,1.1c-1.1-0.1-2.8,0.1-3.3-0.2
			c-0.2-0.2,0-0.9,0.3-1.6c0.5-1,1.4-1.9,2.1-2.3C3771.1,98.9,3770.7,99.9,3771,100.9z M3673.4,100.2l18.2,24.2l-1.4,2l-18.7-24.9
			L3673.4,100.2z M3787.5,100.2c-9.5,6.9-13.1,15.2-13.8,16.3l13.9-5.4L3787.5,100.2z M3769.4,101c-0.5,0.1-1.3,1.1-0.9,1.5
			c0.2,0.2,1,0.2,1.3,0.1C3770.4,102.4,3770,101,3769.4,101z M3689.6,127.2l-3.9,4.9l-20.2-26.3l5.1-3.7L3689.6,127.2z
			 M3786.5,101.7l0.1,9l-11.9,5C3778.8,108.9,3782.7,104.8,3786.5,101.7z M3705.3,102.4l4.8,6.2l-5.8-0.1L3705.3,102.4z
			 M3765.5,102.9c0.3,0,0.6,0.3,0.6,0.6c0,0.3-0.3,0.6-0.6,0.6c-0.3,0-0.6-0.3-0.6-0.6C3764.9,103.2,3765.1,102.9,3765.5,102.9z
			 M3768.9,104.4c2.2,0,2.9,0.1,2.3,1.2c-0.8,1-1.3,2-2.3,3c-0.5,0.5-1.2-0.6-1.8-2.4c-0.4-1.4-0.2-1.8,0.6-1.8
			C3768.7,104.4,3768.8,104.4,3768.9,104.4z M3766.4,106.4c0.2,0.6,0.6,1.5,0.9,2.1c0.3,0.6,0.7,1.2,0.7,1.3
			c-0.1,0.3-0.3,0.3-0.9,0.1c-1.2-0.6-4.2,0-4.2-0.2c-0.4-0.6,0.2-2.3,1.4-3.5c0.6-0.6,1.1-0.9,1.5-0.9
			C3766.1,105.2,3766.2,105.6,3766.4,106.4L3766.4,106.4z M3664.9,105.9l20.6,26.9l-1.4,1.7l-20.8-27.4c0,0-3.3,1.6-4.2,2.2
			l0.1,13.9l-0.6,0l0.1,70.4l11.5-11.5l-0.1-47.7c2.4,2.3,4.5,4.8,7.3,7l4.8,0c12.5-12.7,19.3-23.6,20.8-43.2
			c1-13.1-3.3-29.5-14.8-45.4l-2.8,1.7l5.5,8.4l-11.7,5.2c-4.7,9.9-10.2,19-20.3,24.2l-0.1,12.8l-0.2,0.3l0.1,4L3664.9,105.9z
			 M3765.4,106.8c-0.5,0-1.4,1.2-1,1.6c0.5,0.2,1.2,0.2,1.5-0.2C3766.1,107.9,3766,107.1,3765.4,106.8z M3704.1,109.6l6,0l-1.6,5.2
			l-5.9-0.1L3704.1,109.6z M3761.4,109.6c0.3,0,0.6,0.3,0.6,0.6s-0.3,0.6-0.6,0.6s-0.6-0.3-0.6-0.6S3761.1,109.6,3761.4,109.6z
			 M3730.7,109.7l0.8,6.8c-6.6,2.4-13.7,6.5-19.9,14c-1.1-0.1-9.5,0.1-9.5,0.1c0.2,0,7.8-14.5,8.7-20.8L3730.7,109.7z M3706.7,110.4
			l-2.8,1.9l2.2,2.3l2.9-2L3706.7,110.4z M3764.4,110.4c0.6,0,1.4,0.1,2,0.2c1,0.2,1.2,0.2,0.8,1.1c-0.5,1.1-1.5,3.2-1.8,3.3
			c-0.9,0.6-3-3.6-2.3-4.3C3763.3,110.5,3763.7,110.4,3764.4,110.4z M3761.7,111.7c0.3,0,0.6,0.5,0.7,1c0.1,0.5,1.1,1.9,1.7,2.6
			c0.7,0.8,0.7,0.9-0.4,1c-1.3,0.1-2.5,0.4-3.2,0.6c-1.1,0.4-1.3,0.3-1.1-1C3759.6,113.9,3760.9,111.8,3761.7,111.7L3761.7,111.7z
			 M3760.8,115.8c0.1,0.4,1.9-0.3,2-0.8c0-0.2-0.7-1.4-1.1-1.4C3760.9,113.7,3760.6,115.2,3760.8,115.8z M3702.5,115.5l5.7,0.1
			l-1.9,4.7l-5.6,0L3702.5,115.5z M3705,116.1l-2.7,1.7l2.1,2.1l2.6-1.8L3705,116.1z M3763.1,117c0.5,0,1,0,1.1,0.2
			c0.3,0.5-0.9,3.3-0.9,3.3l-2,0.8c-0.4-0.9-1.2-1.8-1.4-2.8c-0.1-0.4,0.1-0.6,0.6-0.8C3761.2,117.3,3762.3,117,3763.1,117
			L3763.1,117z M3757.7,117.2c0.3,0,0.6,0.3,0.6,0.6c0,0.3-0.3,0.6-0.6,0.6c-0.3,0-0.6-0.3-0.6-0.6
			C3757.1,117.5,3757.4,117.2,3757.7,117.2z M3731.7,117.3c0,0,1.2,7,1.3,6.2c-9.5,3.6-15.1,8.9-17.7,14.1l-17.9,0l4-6.2l10.6-0.1
			C3717,125.1,3723.3,120.2,3731.7,117.3z M3729.4,118.9l-0.9,2.8l2.7,1.7l1-3L3729.4,118.9z M3758.6,119c0.2,0,0.4,0.4,0.9,1.2
			c0.3,0.6,0.8,1.5,0.8,1.5l-0.8,0.3c-0.6-2.2-1.2-1.4-1.3,0.6l-1.1,0.4c0,0,0.1-1.9,0.7-3C3758.2,119.4,3758.4,119,3758.6,119
			L3758.6,119z M3700.4,120.9l5.5,0.1l-2.3,4.8l-5.6-0.2L3700.4,120.9z M3724.6,121.3l-0.4,3.6l3,0.6l0.4-3.4L3724.6,121.3z
			 M3702.8,121.4l-2.7,1.8l1.8,2.4l2.6-1.8L3702.8,121.4z M3720.3,124.5l-0.6,3.3l2.8,0.6l0.6-3.3L3720.3,124.5z M3659.5,124.7l7,7
			l0.4,48.7l-7,7L3659.5,124.7z M3697.6,126.5c0,0,5.6,0.2,5.6,0.2l-2.2,4.1l-1.9-0.1l2.5-1.7l-1.6-2.1l-2.6,1.7l1.4,2.1l-3.8-0.1
			L3697.6,126.5z M3733.7,127.7l1.9,6.3l-2.3,0.4l-1.7-5.9C3732.3,128.1,3733,127.9,3733.7,127.7L3733.7,127.7z M3715.7,128.1l0,3.8
			l3.1,0.3l0.1-3.6L3715.7,128.1z M3730.9,128.7l1.7,6l-1.4,0.4l-2.1-5.7C3729.7,129.1,3730.3,128.8,3730.9,128.7z M3728.2,129.9
			l2.2,5.9c-3.1,1.3-6.3,4-8.7,6.6c-1.8-1.3-2.8-1.5-3.9-1.8C3720.9,135,3724.5,132,3728.2,129.9L3728.2,129.9z M3694.5,131.4
			l5.9,0.2l-4.1,6.1l-6.6,0L3694.5,131.4z M3712,131.6l-0.4,3.6l3.1,1.9l0.5-3.7L3712,131.6z M3708.2,132.1l-2.2,2.4l2.4,2.7
			l2.2-2.8L3708.2,132.1z M3703.2,132.3l-2.7,2.4l2.1,2.8l2.4-2.8L3703.2,132.3z M3669.4,134.5l0.3,47.5l-9.8,9.5l-0.1-2.6l7.8-8.1
			c0-16.1,0-32.2-0.1-48.2L3669.4,134.5z M3695.3,133l-2.7,3.7l3.2,0l2.3-3.6L3695.3,133z M3678.7,156c-1.1,3.8-6,8-6,7.9
			c2.4,3.5,2.3,8.5,0.2,10.9c0-0.1,3.9,3.2,4.4,4.9c0.3,0.7,0.4,1.5,0.8,2.2c0.1,0.2,0.4,0.6,0.4,0.6
			C3688.1,172.8,3683.6,161.5,3678.7,156z M3678.9,157c9.2,11.5,3.1,22-0.1,25l-0.6-1c6.8-8,3.9-17.8,0-22.5L3678.9,157z
			 M3677.9,159.2c0.1,0.2,0.4,0.7,0.2,0.7l-0.5-0.1L3677.9,159.2z M3677.8,160.5c0.2,0,0.4,0.1,0.5,0.2c0.2,0.3-0.8,3-1.4,2.3
			c-0.2-0.3-0.4-0.7-0.5-1c-0.2-0.4-0.1-0.6,0.4-1.1C3677.1,160.7,3677.5,160.5,3677.8,160.5L3677.8,160.5z M3679.1,161.2
			c0.5,0,1.1,1.5,1.2,2.6c0,0.1-1.6-0.2-2-0.7C3678.4,162.6,3678.8,161.5,3679.1,161.2z M3675.5,162.5c2.8,5.6,2.6,10,0.2,14
			l-1.9-1.6c1.3-3.1,1.9-6.3-0.2-10.5L3675.5,162.5z M3677.4,163.9c0.2,0,0.8,0.1,1.3,0.2c1.9,0.6,1.9,1.8,0.1,2.7
			c-0.7,0.4-1,0.2-1.4-1.7C3677.2,164.2,3677.1,163.9,3677.4,163.9L3677.4,163.9z M3681,166c0.4,0,0.5,0.7,0.6,1.9
			c0,1.1-0.2,1.2-1.1,0.4c-1-0.9-1.1-1.1-0.2-1.8C3680.5,166.3,3680.8,166,3681,166L3681,166z M3678.5,167.8c0.2,0,0.7,0.3,1.2,0.7
			c1.3,1,1,1.6-0.5,2.1c-1,0.3-1,0.4-0.9-1.4C3678.3,168.4,3678.2,167.9,3678.5,167.8z M3695.3,169.4c-1.5,0.4-2.2,1.8-1.7,3
			c0.2,0.6,0.6,0.6,0.2,0.9c-0.5,0.5-0.7,1.8-0.2,2.2c0.6,0.3,0.8-0.3,0.1,0.9l-11.7,21.6l70.1-0.1l-8.4-15.9c0,0,0.7-2.6-0.7-2.9
			c-0.4-0.1-0.7-0.5-0.8-0.9c0.1-1.1-0.4-1.6-0.8-2.1c-6.7,0.9-12.4,0.5-17.2-0.6c-6.9-1.6-11.8-4.3-15-5.1
			C3704.8,169.3,3699.4,168.8,3695.3,169.4L3695.3,169.4z M3699,169.6c5.4,0,11.5,1.6,15.8,3.5c4.4,1.8,9.1,3.2,13.8,3.9
			c3.9,0.5,7.8,0.2,11.5-0.1c0.4-0.1,0.8,0,1.1,0.3c0.8,0.9,0.2,1.4-1.7,1.6c-3.1,0.3-7,0.1-10.4-0.4c-5.4-0.6-11.1-2.3-16.1-4.3
			c-6.2-2.3-11.9-3.1-16.3-2.4c-2.5,0.4-2.8,0.4-2.8-0.2C3694,170.2,3695.1,169.6,3699,169.6L3699,169.6z M3681.3,173.3
			c-0.2,0.6-1.9-1.3-1.9-1.8c0-0.2,1.4-1.1,1.9-1.5c0.3-0.2,0.2-0.1,0.2,0.1C3681.6,170.9,3681.5,172.7,3681.3,173.3z M3678.7,172
			c0.8,0.1,2.1,2.2,0.9,2.5c-1,0.3-1.9,0.5-2-0.2C3678.1,172.7,3678.3,172.1,3678.7,172C3678.6,172,3678.6,172,3678.7,172
			L3678.7,172z M3724,179.2c5,0.9,11.5,1.4,15.8,1c2.4-0.2,3-0.2,2.9,0.9c0,0.6,0.1,0.6-3.1,0.6c-2.6,0.2-5-0.1-7.5-0.2
			c-5.3-0.3-10-1.2-14.4-2.7c-4.9-1.3-9.1-3.7-13.9-4.2c-4.4-0.4-8.3,0.3-9.2,0.8c-0.3,0-0.4-0.4-0.4-0.8c0-0.4,0.2-0.7,0.5-0.9
			C3707.2,170.5,3713.9,177.3,3724,179.2z M3680.3,175c0.4,0,0.3,0.6-0.4,2c-0.6,1.1-0.8,1.1-1.1,0c-0.4-1.2-0.3-1.4,0.4-1.5
			C3679.6,175.3,3679.9,175.1,3680.3,175z M3677.4,175.6c0.5,0,1.2,2.2,0.8,2.7c-0.3,0.3-1.3,0.1-1.6-0.3
			C3676.1,177.4,3676.7,175.6,3677.4,175.6z M3699.4,176.2c2,0,3.9,0.2,5.7,0.5c-1,0.4-2.1,0.7-3.1,1.4
			C3701.2,177.5,3700.4,176.8,3699.4,176.2z M3701.9,179c6.9-3.9,9.8,1.5,10.8,2.3c6-1.3,7.2-0.7,10.6,3c6-3,9-0.4,11.5,1.2
			c3-2.8,6.7-2.9,8.7-1.5c0.4,0.6,0.9,1.4,0.9,1.6c0,0.2-0.2,0-0.9-0.5c-3.5-2.6-9.4,0.6-7.9,4c0.4,0.9,0.4,1.3-0.3,1.7
			c-0.9,0.6-2-0.4-1.4-1.4c1-1.7,0.3-3.2-2.3-4.5c-3.6-1.9-9.5,0.2-8.2,3c0.8,0.9,0.1,1.5-1,1.5c-1.2,0-1.5-0.8-0.8-1.6
			c0.9-1.1,0.7-2.1-0.4-3.4c-3.2-4.6-9.7-2.8-8.9,1.3c0.4,1-0.7,1.4-1.8,1c-0.7-0.3-0.6-1.4,0.2-1.8c0.9-0.1,1-1.4,0.9-2.2
			c-0.2-1.2-1.9-2.4-3.7-3.1c-1.3-0.5-2.5-0.6-3.4-0.5c-2,0.2-3.1,1.5-2.8,3.6c0.2,1.2-0.1,2.4-1.5,1.8c-0.8-0.4-0.6-1.2,0.2-2
			c2.7-2.7-2.8-6-6.1-3.7c-0.6,0.5-1,0.5-1,0.5C3695.4,173.8,3702,178.7,3701.9,179z M3711,178.3l4.2,1.6c-1,0.2-1.6,0.5-2.3,0.7
			L3711,178.3z M3700.1,180c-3.8-0.7-4.1,3.6-1.5,4.3c-3.4,4.8,5.6,6.6,3.9,0.7c4.6,0.8,3.7-4.4,0.3-4.4c0.8-2,7.1-0.5,6.8,1
			c-4.2,0.5-2.5,4.3-0.7,4.3c-4.4,4.2,4.4,8.1,4.2,1.8c3.6,0.8,4-4,0.6-4.3c1.3-1.8,5.7-0.7,7,1.4c-3.5,0.5-3.3,3.6-0.5,4.1
			c-3.5,4.5,5.1,6.2,4.2,0.9c3.1,1.1,4.8-3.1,0.8-4.3c4.1-2.5,8.6,1.2,8.1,1.3c-4.7-0.3-3.8,4.4-0.4,4.2c-2.2,4.9,6.4,5.2,4.2,0.1
			c3.8,0.1,3.5-4.4-0.2-4.7c2.3-1.7,4.9-1.8,6.6-0.3c-3.5,0.9-2.1,5,1.5,3.9c0.3,3.4,3.1,2.7,3.2,2.6l2.5,4.7l-67.2,0.1l5.7-10.7
			c3.4,0.2,3.3-3.1,3.1-3.2c2.3,1.6,4.7-2.4,1.4-3.6C3696.4,177.1,3700.4,179.8,3700.1,180L3700.1,180z M3678.2,179.7
			c-0.1,0.1-0.2,0.2-0.4,0C3677.2,179,3678.8,178.9,3678.2,179.7z M3692.1,181.4c0.3,0.2,0.1,0.9-0.1,1.1c-0.6,0.7-0.8,0.6-0.3-0.5
			C3691.9,181.7,3692,181.4,3692.1,181.4L3692.1,181.4z M3721.6,181.7l3.5,0.8l-1.7,0.9C3722.8,182.9,3722.2,182.3,3721.6,181.7z
			 M3732.5,183.2l3.8,0.2c-0.5,0.3-1,0.7-1.6,1.3C3734.2,184.2,3733.3,183.7,3732.5,183.2z M3745.2,187.1c0.2,0.4,1.1,2,1,2
			C3744.9,189.3,3744.6,187.5,3745.2,187.1z"/>
		<path id="path12536" fill="#D40000" d="M3681.7,34c-4.1-6.9-8.5-13.5-14-19.2c5.5-5.7,9.8-12.3,14-19.2c4.1,6.9,8.5,13.5,14,19.2
			C3690.2,20.5,3685.8,27.2,3681.7,34z"/>
		<path id="path12538" fill="#D40000" d="M3647.7,25.4c-1.7-2.9-3.5-5.6-5.8-8c2.3-2.4,4.1-5.1,5.8-8c1.7,2.9,3.5,5.6,5.8,8
			C3651.3,19.8,3649.5,22.6,3647.7,25.4z"/>
		<path id="path12540" fill="#D40000" d="M3764.2,154.4c-4.1,6.9-8.5,13.5-14,19.2c5.5,5.7,9.8,12.3,14,19.2
			c4.1-6.9,8.5-13.5,14-19.2C3772.7,167.9,3768.3,161.2,3764.2,154.4z"/>
		<path id="path12542" fill="#D40000" d="M3798.1,162.9c-1.7,2.9-3.5,5.6-5.8,8c2.3,2.4,4.1,5.1,5.8,8c1.7-2.9,3.5-5.6,5.8-8
			C3801.7,168.6,3799.8,165.8,3798.1,162.9z"/>
		<path id="path12544" fill="#D40000" d="M3648.4,4h2.7l-3.9-9.7l-3,4.1l0,5.6h2.1v2.9h-7.4V4h2.4v-21l-2.4,0v-2.5h7.5v2.6h-2.1
			l0,10.2l6.5-10.3h-2.3v-2.5h8v2.5h-2.1l-5.4,8.4l5.3,12.5h2.3l0,2.9h-8.2L3648.4,4L3648.4,4z"/>
		<path id="path12546" fill="#D40000" d="M3797.5,184.3h-2.7l3.9,9.7l3-4.1l0-5.6h-2.1v-2.9h7.4v2.9h-2.4v21l2.4,0v2.5h-7.5v-2.6
			h2.1l0-10.2l-6.5,10.3h2.3v2.5h-8v-2.5h2.1l5.4-8.4l-5.3-12.5h-2.3l0-2.9h8.2L3797.5,184.3L3797.5,184.3z"/>
	</g>
</g>
</svg>
