<?xml version="1.0" encoding="utf-8"?>
<!DOCTYPE svg PUBLIC "-//W3C//DTD SVG 1.1//EN" "http://www.w3.org/Graphics/SVG/1.1/DTD/svg11.dtd">
<svg version="1.1"
	 id="svg6215" xmlns:rdf="http://www.w3.org/1999/02/22-rdf-syntax-ns#" xmlns:dc="http://purl.org/dc/elements/1.1/" xmlns:cc="http://creativecommons.org/ns#" xmlns:svg="http://www.w3.org/2000/svg"
	 xmlns="http://www.w3.org/2000/svg" xmlns:xlink="http://www.w3.org/1999/xlink" x="0px" y="0px" width="178.6px" height="249.4px"
	 viewBox="0 0 178.6 249.4" enable-background="new 0 0 178.6 249.4" xml:space="preserve">
<g id="layer1" transform="translate(-242.67156,-353.59953)">
	<g id="g6155" transform="matrix(0.99999718,0,0,1.000002,-3391.0542,1089.6612)">
		<path id="rect6355-6-85-90-3-5" fill="#FBFBF6" stroke="#7F7F7F" stroke-width="0.4" d="M3642.6-735.7h160.8
			c4.7,0,8.5,3.8,8.5,8.5v231.6c0,4.7-3.8,8.5-8.5,8.5h-160.8c-4.7,0-8.5-3.8-8.5-8.5v-231.6
			C3634.1-731.9,3637.9-735.7,3642.6-735.7z"/>
		<path id="path163-0-2-7-7-1-8-7-00-1-2" fill="#D40000" d="M3647.8-679.9c0,0-1.8-2.5-4.2-5.5c-1.6-2-2.9-4.2-3-6
			c-0.1-2.1,1.2-4.3,3.5-4.4c2.3-0.1,3.3,1.6,3.7,3.1c0.4-1.4,1.3-3.2,3.7-3.1c2.3,0.1,3.6,2.2,3.5,4.4c-0.1,1.9-1.4,4-3,6
			C3649.6-682.4,3647.8-679.9,3647.8-679.9z"/>
		<path id="path163-0-2-7-7-1-8-1-9-4-6-8" fill="#D40000" d="M3798.2-542.8c0,0-1.8,2.5-4.2,5.5c-1.6,2-2.9,4.2-3,6
			c-0.1,2.1,1.2,4.3,3.5,4.4c2.3,0.1,3.3-1.6,3.7-3.1c0.4,1.4,1.3,3.2,3.7,3.1c2.3-0.1,3.6-2.2,3.5-4.4c-0.1-1.9-1.4-4-3-6
			C3800-540.3,3798.2-542.8,3798.2-542.8L3798.2-542.8z"/>
		<path id="path39-51-8-0-0" fill="#D40000" d="M3649.8-700.2h2.6l-3.9-9.7l-3,4.1l0,5.6h2.1v2.9h-7.3v-2.9h2.4v-20.9l-2.4,0v-2.5
			h7.5v2.6h-2.1l0,10.2l6.5-10.3h-2.3v-2.5h7.9v2.5h-2.1l-5.4,8.4l5.2,12.5h2.3l0,2.9h-8.2L3649.8-700.2L3649.8-700.2z"/>
		<path id="path39-3-9-6-0-8" fill="#D40000" d="M3797.6-521.5h-2.6l3.9,9.7l3-4.1l0-5.6h-2.1v-2.9h7.3v2.9h-2.4v20.9l2.4,0v2.5
			h-7.5v-2.6h2.1l0-10.2l-6.5,10.3h2.3v2.5h-7.9v-2.5h2.1l5.4-8.4l-5.2-12.5h-2.3l0-2.9h8.2L3797.6-521.5L3797.6-521.5z"/>
		<path id="path3876-2-1-7" fill="#E2CF00" d="M3698.7-524.7c14,1.6,28.3,2,43,0.9c3.8,5.3,11.4,16.1,11.4,16.1l-69.3,0.6
			L3698.7-524.7z M3680.7-521c1.9-3.8,2.2-7.4,1.9-12.7c-0.3-4,2.2-7.2,4.8-6c2,0.9,1.1,4.7-1,3.9c-0.8-0.3-1.5,0-1.4,1.8
			c0.2,4.5,1.4,9.5,0.3,13.8C3684.6-516,3679-517.9,3680.7-521z M3663.3-526.9c-2.2-3.3,1.7-6.4,4.2-4.9c1.2,0.5,1,1.7-0.5,1.1
			c-2-0.9-4.3,2.3-2.5,3.5c0.8,0.6,1.1,0.5,0.5-0.2c-1.7-1.9,2.6-2.8,2.5-1.5c-0.3,1.6-0.3,2.2-0.5,2.5
			C3666.2-525,3664.5-525.7,3663.3-526.9z M3669.4-540.8c-2.4-3,0.3-5.3,0.3-5.2c0.7-0.8-5.6-12.7-4.8-12.8c8-0.9,16.1-0.2,24.1,0
			c0,0-4.3,7.8-6,11.6c-0.7,1.5,0.9,3.4,0.3,4.5c-2.1,2.3-0.8,4.8-2.1,4.9c-3.3-0.6-6.8-1-11.1,0
			C3669.8-537.8,3669.8-539.8,3669.4-540.8z M3704-623.5c4,20.8-1.9,42.8-15.6,57.3c-1.9-1.9-3.4-5.4-5.3-7.7
			c-5.3-1.6-9.2,0.3-12.9,2.2c-3.3-1.9-7.1-3.1-10.7-3l-0.1-3.2c3.7-0.1,7.6,0.3,10.9,2.3l5.2-2.1l-16.1-16.8l0.2-2.9l19.5,19.8
			l2.5,0.1C3676-592.4,3680.8-615.9,3704-623.5z M3731.2-597.5l2.8,13.6c0,0-15.8,15.8-24.1,23.9l-6.9-0.6
			c3.5-5.2,5.4-10.5,7.7-15.7L3731.2-597.5z M3787.2-578.9c-6.6,7.5-14.5,12.2-23.3,17.5c-3.5-4-7.8-8.3-10.2-12.2
			c7.7-4.1,15-7.3,22.5-14.6c-0.4,0.5-9.6,3.6-9.5,3.2c-0.3,1.5-0.1,2.5-1.6,2.9c-1.8-2.5-3.5-4.5-6.2-5.6c-1.2,0.1-2.7-0.7-2.7-0.7
			c0.8-0.2,0.4-9.7,0-9.8c0.9-0.3,1.7-0.9,2.9,0.4c0.5,0.4,5.8-5,7.6-6.8c7.1-0.6,13.3,0.1,20.2-0.1
			C3786.7-596.2,3787.2-587.4,3787.2-578.9L3787.2-578.9z M3742.4-600.4c-0.2-0.4-2-14.4-0.3-23.2c4.6-14.8,3.5-19,15.5-33.6
			c0.8-0.8,3.5,1.7,5.6,6.1c6,3.8,13.7-1.1,13.7-1.1s3,2.5,9.7,3.8l-0.1,2.6c0,0.8-7.6-0.8-9.2-2.4c0,0-5.7,1.9-5.7,2.2
			c0,1.5,15.1,15.5,15.1,15.5l-0.1,3.3c0.1,0-20.6-21.7-20.9-19.4C3771.5-621,3761.5-608.1,3742.4-600.4z M3717.4-604.9l-0.3-13.5
			l12.7,0.2l0.5,13.6L3717.4-604.9z M3659.3-619.4c0.3-0.5-0.5-25.1-0.4-25.1c8.1-8.1,16-12.7,23.9-17.6c3.6,3.6,6.6,6.6,9.3,11
			l-10.9,6.8c0.4,1.7-0.7,2.3,6.4,8.7c0.1-0.4,2.4-1.8,2.8,0.2c-1,4.1,0.4,7.7,0.6,9.9c-1,1.3-3.1-0.1-3.1-0.1
			c-1.4-1.5-6.8,5.8-8.4,6.6C3672.7-619.4,3658.9-618.9,3659.3-619.4L3659.3-619.4z M3735.7-663.3c0,0.1,7,0,6.9,0.2
			c-1.3,3.1-4.1,9.4-7,16.2c-2.4,4-19.7,20.7-19.7,20.7c-0.8-4.8-2-9.6-3.3-14.3L3735.7-663.3z M3765.7-686.5
			c2.5,1.1,9.5,0.5,10.6,0c1.4,1,0.5,2.3,0.4,3c1.5,1.9,2.3,2.5,0.6,5.6c-0.4,0,5.1,12.5,5.3,12.5c0,0-5.8-2.8-7.9-4.7l-4,5.4
			l-4.7-6.1c0,0.5-9,6.6-9.1,6.3c-0.3-0.3,8.2-9.5,6.5-14.9c-0.4-1.3,0.5-2.6,1.2-3.8C3765.1-684,3764.5-685.5,3765.7-686.5z
			 M3761.1-687.7c0.4-0.4-2.2-11.8,0.6-16.3c1.2-1.7,3.3-1.7,4.2-0.4c0.7,1.9-1.3,4.5-1.7,5.8c-1.3,3.6,0.6,8.3-0.3,11.7
			C3760.9-679.5,3755.9-687.6,3761.1-687.7L3761.1-687.7z M3780-692.7c-1.5,0.1-0.5-4.5-0.2-5.8c0-0.3,2.7-0.9,3.7,0.9
			C3785.1-694.9,3783.2-691.6,3780-692.7L3780-692.7z M3762.1-715.5l-14.1,17.4c-14.3-1.7-28.6-2.7-43.2-0.5l-11.8-16.6
			L3762.1-715.5z"/>
		<path id="path3874-3-1-4" fill="#131F67" d="M3788.3-716.6h-130.6v210.5h130.6V-716.6z M3762-715.5l-15.7,19.5l-0.4,0.1
			c1,3.1,2.5,6.9,4,9.9c2.3,4.7,8,13.4,4.4,20.4c-0.3,0.6-0.7,0.9-1.1,0.9c-0.6,0-0.6-0.4-0.2-1.1c0.8-1.5,1.3-5.2,1-7.1
			c-0.2-1.2-0.9-3.1-2.2-6c-5.9-11.1-7.8-17-7.5-17c-0.1,0-0.2-0.1-0.4-0.2l-0.6-0.2c2.1,7,5.4,12.9,8.1,18.4
			c2.2,5.1,2.4,7,1.3,10.7c-0.4,1.4-1.2,2.3-2,2.3c-0.6,0-0.6-0.1-0.2-0.8c2.1-3.8,1.6-7.9-1-12.7c-3.8-7.9-6-12.9-7.4-18
			c0,0-0.7-0.2-0.9-0.3c1.1,5.3,4.2,11.4,7.1,17.7c2.4,4.8,3.1,8.3,2.2,11.1c-0.3,1.2-1.2,3-2.3,3c-0.4,0-0.5-0.2-0.1-0.9
			c1.8-3.1,2.1-5.9-1.1-12.4c-2.9-6-5.9-12.6-6.9-18.4c-0.1-0.5-1.3-1-1.1-0.3c1.6,6.9,4.7,13.9,8,20.8c1.9,4.3,2.1,7,0.7,9.4
			c-0.8,1.3-1,1.6-1.6,1.6c-0.7,0-0.7,0-0.3-0.8c1.7-3.6,1.4-6.7-0.8-11.9c-3.1-7.1-5.7-13-6.8-19.2c-0.2-0.1-1.3-0.5-1.1-0.2
			c1.6,6,3.5,11.5,6.1,17.1c0.9,1.9,2.3,5.7,2.8,7.6c0.9,3.6-1.1,8.5-3.7,8.8c-1,0.1-0.9-0.4,0.2-1.4c1.9-1.8,2.2-4.6,1.6-7.8
			c-0.5-2.5-1.3-5.2-2.4-7.9c-2.3-5.5-4.8-11.3-5.6-16.4c0-0.5-1-0.5-0.7,0c0.6,3.6,1.9,7.7,3.4,11.5c1.6,4.2,4,8.8,4.8,13.9
			c0.6,4.2-1.9,8.1-5.1,8.3c-3.8,0.3-4.5-3.5-3.6-5.2c1.5-2.6,5.8-1.1,4.5,1.6c-0.7,1.6-3,1.1-2.9-0.6c0-0.2,0.2-0.6,0.2-0.6
			c-0.1,0-0.4,0.3-0.5,0.4c-0.8,1.4,1.5,3.2,3.1,2.1c5.3-2.9,1.7-11.8-0.6-17.3c-2.2-5.1-3.9-9.6-4.6-14.3c-0.2-0.1-1.1-0.4-1-0.2
			c0.6,2.5,0.9,4.6,1.6,6.7c1,3.3,2.8,7,4.3,10.7c1.3,3.6,2.7,6.7,2.1,10.5c-0.1,0.4-0.2,0.8-0.4,1c-0.2,0.3-0.4,0.2-0.5-0.8
			c0-0.1-0.2-0.3-0.2-0.5c0.1-1.4,0-2.8-0.3-4.2c-0.3-1.1-0.9-2.3-2.2-4.5c-0.5-0.8-1.8-3.3-1.3-1.6c0.3,1,1.1,3.1,2.1,4.7
			c0.6,1,1.2,3.6,1,4.1c-0.2,0.5-0.6,0.5-0.8,0.4c-0.2-0.2-0.2-0.9-0.2-1.3c-0.2-1.8-2-4.9-3.3-6.2c-0.9-1,2.1,4.4,2.4,5.8
			c0.1,0.6,0.3,1.1,0.1,1.4c-0.1,0.2-0.4,0.2-0.7,0.1c-0.3-0.1-0.2-0.2-0.5-1.2c-0.5-1.6-1-2.4-2.2-3.8c-0.4-0.5-0.7,0.1,0,0.9
			c0.9,1.4,1.6,2.4,1.8,4.2c-0.6,0.8-0.9,0.7-2.1-1.5c-0.8-1.4-1.3-1.8-1.5-1.8c-0.5,0,0,0.7,1.5,3.1c0.8,1.3,0.8,2.1-0.1,2.1
			c-0.3,0-2-1.9-2.4-2.7c-0.3-0.7-0.8-1.2-0.8-0.4c0,0.3,1,2.1,1.8,2.9c1.1,1.3,1.5,1.6,1.6,2.2c0.1,0.3,0.2,0.8,0.3,1.1
			c0.3,1,0.1,1.2-0.4,0.7c-0.3-0.7-0.5-0.8-1.2-1.3c-0.6-0.5-1.5-1.6-2-2.5c-0.2-0.3-0.4-0.7-0.6-1c-0.5-1-1.3-1.1-0.7-0.1
			c0.2,0.5,0.7,1.3,1.1,1.9c0.7,1,0.6,1.6-0.3,1.5c-0.4,0-1.4-1.3-2-2.4c-0.4-0.7-1.1-1.2-1-0.5c0,0.2,0.5,1.4,1.3,2.3
			c0.8,1,0.9,1.6,0.1,1.6c-0.5,0-1-0.5-1.7-1.6c-0.6-1-1.1-1.4-1.2-1.2c-0.2,0.1,0.9,2.1,1.9,3.2c0.9,1,0.2,1.6-0.8,0.7
			c-0.6-0.5-1.7-2-2-2.7c-0.6-1.3-0.9-0.9-0.6,0.1c0.4,1.1,1,2.3,1.8,3.1c0.4,0.4,1.2,0.7,1.6,1.1c1.1,1,1.9,1.9,1.8,2.1
			c-3.2,0.2-5.9-3.3-6.6-5.4c-0.5-1.4-1.1-1.6-0.5,0.4c1.6,4.9,6.5,7.4,9.9,5.2c2.1-1.3,0.2-4.8-1.4-3.6c-0.5,0.3-0.5,1.2,0.1,0.7
			c1.1-0.9,2.2,1.3,1,1.9c-1.7,0.9-3.5-0.8-2.4-2.9c1.1-2.1,5.6-0.9,4.7,2.5c-0.5,1.6-2.9,3.5-4.9,3.5c-3.7,0.1-6.3-2.8-7.7-5.7
			c-0.2-0.4-0.5-1.1-0.8-1.7c-0.2-0.5-0.4-0.9-0.4-0.9c0.4,3.5,3.7,7.8,6.6,8.5c4.9,1.2,6.2-1.8,9.4-4.8c0,0,2.3,0.3,2.4,0.3
			c0.2-0.1,4.5-0.3,4.7-0.2c-17.4,32-16.1,69.9-1.1,98.7c1,2.1,1.2,1.7-0.5,1.3c-1.7-0.4-3.2,0.2-4.6-0.1c-2.8-0.6-3.5,1.4-5.6,2.4
			c-2.7,1-2.1,3-2.8,4.8c-0.2,0.3-0.4,0.5-0.2,0.5c0.2-0.1,0.8-0.6,0.8-1.1c0.1-1.2,0.5-2.2,1-2.7c0.5-0.5,0.8-0.7,0.9-0.5
			c0.1,0.2,0,0.7-0.2,1.2c-0.7,1.3,0.2,5.5,0.3,2.5c0-2.4,1.5-5.1,3.5-6.2c1.6-0.8,2.1-0.7,0.8,0.5c-1.5,1.6-2.5,3.5-2.6,5.8
			c0,1,0.4,1.8,0.5,0.9c-0.1-4.4,4.3-9.3,9-6.9c0.2,0.2,0.4,0.5,0.4,0.7c-4.5-0.8-8.5,1.7-7.9,7.7c0,0,0.4-1.2,0.6-2.3
			c0.7-3.6,4.8-5.2,7.6-4.2c0.5,0.2,1,1,0.9,1.1c-3.5-1.1-7.3,2.2-7.5,5.8c-0.1,1.2,0,2.2,0.5,0.1c2.3-8,9.2-4.4,8.3-3.7
			c-5.4-0.6-7.3,3-7.2,7.2c0.1,0.4,0.3,0.5,0.4,0.9c0.7,1.6,1,3,1.1,5.9c-0.1,0.7,0.6,5.5-0.1,5.3c-2-0.7-3.4-1.6-6.8-0.1
			c-0.3,0-0.4-0.2-0.3-0.4c0.1-0.4,0.7-1.1,1.6-2.1c2.1-2.2,0.9-1.6-0.8-0.1c-1.1,1-0.9,0.3,0.2-3.1c0.4-1.4,0.2-1.6-1.7-2.5
			c-1.9-1-3.2-1.1-1.6-0.1c0.6,0.4,1.3,0.8,2,1.1c0.8,0.5,0.7,0.6,0.1,2.7c-1.2,3.9-1.6,5.3-1.5,7.9c0.2,6.4,6.1,5.7,9.6,4.3
			l0.1,4.2l12.9,18.3c0,0-44.9,0-69,0.4c1.4-3.3,15.9-17.5,16.8-20c0.1,0-1.6-5.2-2.5-7.4c-4.2-10.6-9.7-15.1-6.5-22.1
			c0.7-1.4,0.8-1.9,1.3-1.8c0.7,0,0.9,0.5,0.1,1.8c-3.4,5.8,3.9,15.9,6.4,22.3c0.4,1,2.1,5.8,2.3,7.5c0,0.5,1.2,0.7,0.9,0.1
			c-0.9-3.3-2.1-6.9-2.6-8.1c-2-4.7-4-8-5.9-12.6c-1.1-2.9-1.6-6.3,0-9.3c0.6-1.1,0.8-1.7,1.2-1.8c0.3,0,0.5,0.1,0.6,0.4
			c0,0.3-0.2,0.8-0.6,1.6c-2.9,5,2.2,13,4.8,18.7c1.7,3.7,3.1,7.7,3.7,11.2c0,0.2,0.3,0.9,1,0.5c-1.1-6.6-4.3-13-7.2-19.2
			c-2.4-4.8-3.3-9-0.1-13c0.3-0.3,0.9-0.2,0.9,0.2c0,0.3-0.2,0.8-0.7,1.9c-2.8,6,1.6,10.9,3.6,16.7c2,4.8,3.9,8.8,4.6,14
			c0.6,0.2,0.9,0.5,0.9-0.2c-1.5-7.2-4.7-13.7-7.4-20c-1.3-2.7-1.7-4-1.8-5.8c-0.1-2.5,1.1-5.7,2.2-6.5c0.3-0.2,0.5-0.3,0.7-0.1
			c0.4,0.2,0.3,0.3-0.4,1.7c-1.4,2.6-1.5,5.6-0.2,8.7c2.2,4.8,4,8.7,5.4,12.2c1.4,3.8,2.2,7.2,2.6,10.2c0,0,1,0.4,0.8-0.2
			c-0.6-4.2-2-8.6-3.5-12.3c-1.4-3.5-3.2-6.9-4.6-10.3c-1.7-4.2-0.3-8.7,3.2-11l1.6,0c-0.1,0-3.7,1.4-3.9,6.7
			c-0.2,5,2.2,8.1,3.8,12.3c2.1,5.1,3.9,9.6,4.3,15c0.2,0.2,1.1,0.2,1,0.2c-0.4-3.7-1.5-7.2-3-11.4c-1.6-4.6-3.2-6.6-4.7-11.4
			c-1-3.2-0.9-7.6,1.4-9.6c3.4-3.4,8.1-1,6.9,2.9c-0.9,2.8-4.7,2.2-4.6-0.4c0-1.7,2-2.1,2.7-0.9c0.2,0.2,0.3,1.3,0.3,1.4
			s0.3-0.8,0.3-1c0-1.4-1.8-2.5-3.2-1.8c-1.9,1-3.1,3.2-3,6.1c0.1,3.1,0.7,5.2,3.2,10.1c3,5.7,3.9,11.9,4.6,16.1
			c0.3-0.1,0.6,0,0.7,0c-0.4-5.7-2.3-11.5-4.6-16.4c-2.8-5.9-3.6-9.5-2.6-12.1c0.1-0.4,0.3-0.7,0.4-0.7c0.3,0,0.4,0.5,0.7,1.5
			c0.1,0.3,0,0.8-0.1,1.2c-0.2,2.4,1.4,7.4,3,9.7c0.5,0.6,1,0.6,0.5-0.5c-1.6-2.9-2.6-5.6-2.7-9.1c0-1,1.2-0.6,1.2-0.1
			c0.1,1.7,0.3,3.7,1.1,5.1c1.6,2.8,2.5,2.9,0.9-0.2c-0.4-0.7-1.4-3.8-1-4.9c0.2-0.2,0.5-0.3,0.7,0c0.5,1.7,1.1,3.5,2.3,4.8
			c0.6,0.7,0.7,0.4,0.4-0.5c-0.5-1-2.2-4.4-1.4-5.1c0.2-0.2,0.1-0.1,0.8,1c0.9,1.5,1.4,2.1,1.9,2.6c0.6,0.6,0.7,0.2,0.1-0.9
			c-1.2-2.1-2-3.8-1.5-4.3c0.4-0.4,0.5-0.2,1.5,1.5c0.4,0.8,1.1,1.9,1.3,2.1c0.2,0.3,0.4,0.3,0.4,0.1c-0.2-2-2-4.4-2.7-4.8
			c-0.1-0.2-0.1-1.8-0.1-1.8c2.6,1.4,2.7,2.9,4.4,5.2c0.2,0.2,0.4,0,0.4-0.4c-0.1-0.4-1.1-2.4-1.7-3.3c-0.5-0.7-0.5-1.1-0.1-1.3
			c0.7-0.3,1.7,0.7,2.7,2.6c0.5,0.9,1.1,1.4,1.1,0.9c0-0.2-0.9-2.5-1.5-3.1c-1-1.1-0.5-1.8,0.7-0.8c0.5,0.4,1.3,0.8,2,2.4
			c0.4,1,0.8,1.1,0.8,0.3c0-0.9-1.4-2.9-2.4-3.5c-0.7-0.4-1.2-0.9-1-1.3c0.6-1,3.3,1.5,4.2,3.8c0.3,0.7,0.7,1,0.8,0.7
			c0.2-0.2-0.3-1.8-0.9-2.6c-0.9-1.7-3-3.4-4.3-3.2c-0.2,0-0.9-1.4-0.9-1.4c3.2-0.5,6.3,3.4,6.9,4.8c1.1,2.8,1.6,2.4,0.7,0
			c-1.8-4.7-7.4-7.4-10.5-5.1c-1.8,1.3-0.7,4.4,1.1,3.9c0.7-0.3,1.4-1,0.2-0.8c-1.4,0.1-1.9-2-0.4-2.5c2.3-0.7,2.9,3,1,3.9
			c-1.9,0.8-3.9-0.4-3.7-2.6c0.3-4.1,5.3-5.3,10.2-2c1.4,0.9,3.1,3.9,3.6,5.9c0.2,0.6,0.8,0.9,0.9,0.8c0.2-0.2-1.4-3.5-1.9-4.4
			c-2.1-4.9-9.8-5.2-9.8-4.9c0,0-3,1.9-5.7,5.1l-6.9-0.6c17.5-28.4,18.9-70.3,0.9-99.9c0.2,0.2,3.5,1,4.6,0.1c0.8-0.4,1.1-0.5,2-0.2
			c1,0.4,2.1,0,3.2-1c0.8-0.8,0.9-1,1.4-0.9c1.6,0.2,2.7-0.7,3-3.1c0.1-0.9,0.2-1.9,0.1-1.7c-0.1,0.1-0.3,0.9-0.4,1.4
			c-0.3,1.4-0.6,1.9-1.1,2.3c-0.9,0.7-1.4,0.3-1-0.8c0.3-0.7,0.6-2.6,0.2-3.4c-0.1-0.2-0.1,0.4-0.2,0.9c-0.9,3.6-1.9,5.5-3.7,5.9
			c-0.8,0.2-1.2,0.1-0.9-0.4c3-3.3,2.8-6.9,2.6-6.6c-0.6,2.1-1.8,5.2-3.8,6.5c-1.7,1.1-4.2,1.2-5.6,0.3c-0.8-0.5,0.4-0.7,2.2-0.7
			c3,0,5.8-4.1,5.3-7.5c-0.1-0.6-0.3,0-0.5,1.1c-1.1,3.7-3,6.3-7.3,5.5c-0.3-0.1-0.6-0.3-0.7-0.4c-0.7-0.5-0.4-0.8,1-0.6
			c3.1,0.4,5.9-2.6,5.8-6.1c0-1.7-0.3-1.7-0.5-0.4c-0.4,1.8-1.8,7.3-6.8,5.5c-0.9-0.5-1.4-1.1-1.1-1.2c3,0.6,5.7-0.1,6.7-4
			c0.5-1.7,0.3-3.3-0.1-4.7c-0.1-0.9-0.5-1.7-0.6-2.6c-0.3-2.6-0.7-5.4-0.6-8.2c0.2-0.2,0.3-0.2,1.1,0.4c1.7,1.1,2.9,0.9,4.6,0.2
			c2.2-0.8,2-0.7-0.3,2c-0.5,0.5-1,1.2-1,1.3c-0.6,1.1,0.5,0.3,1.3-0.7c1.1-1.4,1.4-1.8,1.6-1.8c0.1,1.6-0.5,3.4-0.8,4.7
			c-0.4,1.4-0.4,1.7,0.5,2.1c0.4,0.2,1.1,0.5,1.5,0.7c1.9,0.9,1.7,0.2,0.2-0.7c-2-1.1-2-1.1-1.5-3c0.7-2.2,1-4.2,1.4-6.4
			c0.9-5.5-3.2-8.5-8.6-6.6c-0.3,0.2-0.7-2.9-0.6-3.7c0-0.3-0.8-0.2-1.5-1.1c0.2-0.2-8-10.6-11.8-16.9
			C3717-715.1,3740.4-715.6,3762-715.5L3762-715.5z M3744.3-696C3744.4-695.9,3744.4-695.9,3744.3-696
			C3744.4-696,3744.4-696,3744.3-696z M3762.9-715h23.6v50.3l-2.3,0c0,0-3.8-6.7-4.9-9.8c-0.3-0.8-0.7-1.9-0.9-2.3
			c-0.4-1-0.7-1.1-0.1-1.7c1-1.2,0.8-3.6-0.2-4.7c-0.3-0.4-0.5-0.2-0.5-1.2c0-0.8,0.1-1.3-0.1-1.7c-0.3-0.7-0.6-0.7-0.1-1.5
			c0.5-0.8,1.2-2,1.5-3c0.5-1.6,0.1-1.9,1.2-1.5c2.6,0.8,4.8-1,4.7-3.7c-0.1-2.2-2.1-4.2-4.5-3.6c-0.6,0.1-0.7,0.1-1.5-0.4
			c-0.2-0.2-0.6-0.5-0.9-0.6c-0.4-0.2-0.7-0.1-0.9-0.4c-0.3-0.6-1.3-1.4-2.5-1.4c-0.7,0-1.7-0.2-2-0.4c-0.4-0.2-1.6,0-3.1-0.3
			c-0.7-0.1-1.2,0.2-1.5,0.2c-0.9,0-0.6-0.1-0.7-0.8c-1.2-3.7-4.6-3.3-6.1-0.5c-0.6,1.1-1,2.7-1.2,4.4l-9.2-0.1L3762.9-715z
			 M3691.8-714.9c3.4,4.4,6.7,9.4,10.2,13.9c4.3,5.5,4.4,6.1,3.3,11.6c-0.6,3.1-0.9,3.8-2.2,3.6c-1.2-0.2-2.2,0.7-2.4,2
			c-0.3,2.3,1.9,3.7,4.1,2.6c1.2-0.6,1.2-0.7,0.8,1.3c-0.6,2.9-1.7,5.3-2.4,5.3c-1.8-4-6.3-1.1-4.8,3c-0.5,0.7,0.1,1.6,0.4,2.4
			c0,0,0,0.1-2.6,0.9c-12.6,3.8-28,13.6-36.5,22.9v-69.2L3691.8-714.9z M3764.1-705.5c0.5,0,1,0.2,1.5,0.5c1.1,1,0.8,2.4-0.7,5
			c-1.6,3.7-1.2,6.5-0.8,10.4c0,2.2-0.8,4.4-1.9,5.3c-1.9,1.5-4.3-0.5-3.3-2.5c0.5-1,1.6-0.4,1.9-1.4c0.4-3.5-0.5-7.1-0.6-10.5
			c0-1.5,0.5-3.5,1.2-4.9C3762-704.8,3763.1-705.4,3764.1-705.5L3764.1-705.5z M3767.1-699.5c-0.4,0.4-1.2,0.4-1.2-0.1
			c0-0.5,0.4-2,0.6-2.2C3768.1-702.1,3767.6-699.9,3767.1-699.5z M3769.5-701.9c1.3-0.1,2.2,3.3,1,5.3c-0.2,0-1.8,0-1.8,0.1
			c0-0.4,0.1-1.1,0.2-1.7c0.1-0.6,0.2-1,0-1.6C3768.5-701.5,3768.2-701.7,3769.5-701.9L3769.5-701.9z M3772-701.9c0,0,0.1,0,0.2,0
			c1.3,0,2.1,2.6,1.7,5.4c-0.1,0.4-0.1,0.8-0.2,0.9c-0.6-0.2-2.1,0.4-2.1,0.4c-0.1-0.1-0.1-1,0.1-1.7c0.4-1.3,0.5-2.2,0-3.6
			C3771.3-701.6,3771.3-701.8,3772-701.9z M3775.3-701.1c1.5,0.2,1.5,4.3,1,5.6c-0.1,0.2-0.7,0.1-0.9,0.2c-1.2,0.4-1,0.5-0.8-1.4
			c0.1-1.4,0.1-2.4-0.1-3.6c-0.1-0.5-0.1-0.8,0.2-0.9C3774.9-701.2,3775.1-701.2,3775.3-701.1L3775.3-701.1z M3768-699.5
			c0.6,0.8,0.1,2.7-0.3,3.3c-0.5,0.8-0.7,0.8-0.4,1.2c0.1,0.1,0.4,0.9,0.2,1.2c-0.3,0.6,0.4,0.7,1.1,1c1,0.6,1.6,1.6,2.3,3.4
			c0.3,0.6,0.8,0.4,0.6-0.3c-0.2-0.6-0.3-1.5-0.5-2.1c-0.2-0.6,0-0.9,0.7-0.7c1,0.3,0.9,0,1.3-0.1c0.8-0.5,1.4,0.2,0.9,0.6
			c-0.3,0.2-0.9,0.3-1.6,0.5c-0.6,0.2-0.4,0.7,0.1,0.7c0.5,0,2.1-0.4,3.1-0.7c2.9-0.9,3-1.3,2.7,0.3c-0.4,2.2-1.5,3.8-3.5,4.4
			c-1.7,0.5-5.6,0.4-7.4-0.2c-1.7-0.8-1.8-1.3-2.3-2.8c-0.7-2-1.1-5.4-0.3-7.4c0.7-1.7,0.6-1.5,1.3-1.4c0.6,0.2,1.4,0,1.6-0.4
			C3767.7-699.2,3767.9-699.5,3768-699.5L3768-699.5z M3779-698.3c0.2,0.9,0.2,1.8-0.1,2.5c-0.2,0.3-1.2,0.3-1.6,0.3
			c-0.2,0.1-0.2-3,0-3.4C3777.9-699.7,3778.7-699,3779-698.3L3779-698.3z M3749.9-698.8l2.8,0v0.7l-3.4,0L3749.9-698.8z
			 M3759.8-698.7v0.9l-4.3,0v5.7l4.8,0l0,1.2l-6.4,0l0-7.8L3759.8-698.7L3759.8-698.7z M3781.6-698.9c4.4,1,2.4,5.9,0.8,6.2
			c-2.1,0.4-3.8,0.1-3.2-1.7c0.6-1.2,0.2-2.8,0.3-3.9C3779.9-698.7,3780.9-699,3781.6-698.9z M3748.5-697.2l4.2,0v0.9l-4.8,0
			L3748.5-697.2z M3757.9-696.3c0.7,0,1.2,0.6,1.2,1.2c0,0.7-0.5,1.2-1.2,1.2s-1.2-0.6-1.2-1.2
			C3756.7-695.7,3757.2-696.3,3757.9-696.3z M3769.8-695.8c0.8,0.1,0.9,1.3,0.5,1.7c-0.4,0.4-1.2,0.2-1.4-0.4
			C3768.7-695.1,3769.2-695.8,3769.8-695.8z M3747.3-695.3l5.4,0v0.8l-5.5,0l-0.1-0.5L3747.3-695.3z M3777.7-695
			c0.7,0,1.2,0.6,0.7,1.2C3777.8-693,3776.3-694.2,3777.7-695z M3720.1-693.3c-1.2,1-0.2,2.1,1.4,1.1c3.5-2.1,8.6-0.4,11.9,1.3
			c0.7,0.3,0.7-0.5,0.1-1C3730.4-694.6,3723.9-696.2,3720.1-693.3L3720.1-693.3z M3772.5-694.7c0.8,0,0.8,1.1,0.3,1.5
			c-0.5,0.2-0.6,0.2-1,0C3771.3-693.4,3771.7-694.7,3772.5-694.7L3772.5-694.7z M3775.5-694.7c1,0,0.9,2.1-0.6,1.4
			C3774.3-694,3774.7-694.7,3775.5-694.7z M3747.6-693.7l5.3,0v0.9l-4.9-0.1L3747.6-693.7z M3713.6-691.6c1.4,1.2,1,1.2-1.4,0.4
			c-1.6-0.4-3.1-0.1-4.1,0.3c-1.2,0.5-1.4,0.3-0.9-0.5C3708.6-693,3712.3-692.6,3713.6-691.6z M3720.5-689.7
			c-0.1,0.4-0.6-0.3-1.3-0.2c-1,0.2-0.7,0.2,0.3,1.4c1,1.2,1.3,1.4,1.3,1.9c-0.1,0.7,0.1,1,0.7,0.9c0.3,0,0.7,0.3,1.2,0.8
			c1.6,1.5,2.5,2.3,3,2.5c2.2,1,1.2-0.1-0.2-1.1c-2.3-1.6-3.1-2.7-1.5-2.1c1.8,0.6,4.5,0.3,5.9-0.6c0.7-0.4,1.1-1,2.1-0.7
			c1.3,0.4,1.8-0.4,1.5-0.8c-0.6-0.4-2-0.9-3.3-1.8c-2.8-1.4-5.8-1.4-7.7-0.2c-1.2,0.7-1.6,0.2-0.4-0.5c4.6-2.5,8.2-0.1,11.1,1.7
			c0.5,0.3,0.9,0.3,0.9,0.1c-0.1-0.7-1.4-1.2-1.9-1.5C3728-692.5,3723.7-693.3,3720.5-689.7L3720.5-689.7z M3748.3-691.9l4.6,0v0.9
			l-4.2,0L3748.3-691.9z M3711.1-690.7c1.3,0,4,1.1,4,2.1c-0.1,0.4-0.7,0-1.3-0.3c-1.2-0.7-2.9-0.9-4.6-0.6
			c-1.3,0.2-1.7,0.5-1.9,0.3C3706.8-690.3,3709.9-690.7,3711.1-690.7z M3760.5-690.1l0,1.6c-2.5,0.2-3,3-1.4,4.5
			c1.3,1.3,3.5,0.8,4.5-1c0.2-0.3,0.2-0.5,0.3-0.4c0.1,0.1,0.1,0.4,0.2,0.7c0.2,0.9-0.1,1.1-0.6,1.8c-0.9,1.2-1,2.7-0.5,3.8
			c0.2,0.3,0.5,0.7,0.4,0.9c0.3,0-2.8,8.9-7.4,13.4c-0.8,0.5-1.3-0.1-0.9-0.9c3.7-8.6-3.4-16.7-6.2-24.4L3760.5-690.1L3760.5-690.1z
			 M3727.4-688.6l0.7,0.1c-0.5,4-4.3,3.3-4.5,0.1l0.5,0C3724.8-685.4,3727.4-686.7,3727.4-688.6L3727.4-688.6z M3705.9-688.5
			c0,0,0.3,0.4,0.3,0.7c0,0.9,0,2.3,0,2.7c-0.2,3.8-5,4.5-4.6,1.3c0.3-1.4,2-1.5,2.4-0.3c0.6,1.6,0.7-0.4,0.7-1
			C3705.1-686.1,3705.5-687.3,3705.9-688.5L3705.9-688.5z M3728.9-688.2c0.2,0,0.5,0.2,0.8,0.5c0.3,0.3,0.2,0.5-0.5,0.9
			c-0.8,0.4-1.2,0.4-0.9-0.5C3728.5-687.8,3728.7-688.2,3728.9-688.2z M3764.8-688c0.1,0,0.4,0.1,0.3,0.6c-0.1,0.7-0.7,1.1-0.9,0.9
			C3764.3-686.9,3764.4-687.9,3764.8-688z M3723.2-686.7c-0.1,0.3-0.3,0.2-0.7-0.2c-0.5-0.4-0.4-0.7,0-0.9
			C3723.3-688.2,3723.3-686.9,3723.2-686.7L3723.2-686.7z M3708.7-687.7c0.8,2.6,2.4,2.2,3.2,0.1l0.7,0c-0.2,3.3-4.3,3.2-4.3,0.1
			L3708.7-687.7z M3707.3-687.4c0.2,0,0.1,0.8,0.1,0.8s-0.7-0.4-0.3-0.7C3707.1-687.4,3707.2-687.4,3707.3-687.4z M3713.3-687.2
			c0.1,0,0.2,0.1,0.4,0.2c0.4,0.3,0.3,0.4-0.1,0.8c-0.7,0.6-1,0.3-0.6-0.5C3713.1-687,3713.2-687.2,3713.3-687.2z M3765.9-686.6
			c0.3,0,0.7,0.1,1.6,0.4c2.4,0.7,5.7,0.6,8.5-0.1c0.9-0.2,1.5,1.3,1.1,2.4c-0.2,0.5-0.2,0.6,0.5,1.2c0.9,1,1,2.5,0.4,3.9
			c-0.5,1-0.5,0.9,0.1,2.7c1.3,3.8,3.1,7.3,5.1,10.8l-2.6-1c0,0-11.9,10.3-20.2,10.7l3,4.8c4.8,1.9,9.3,1.4,13.7-1.3
			c-0.1,0.4,5.3,3.1,9.7,3.4l0,3.2c-3.3-0.4-6.6-0.5-9.7-2.4c0,0-2.8,1.2-5.6,2.1l15.8,16.6l0,2.8c0,0-6.7-6.4-13.7-13.6l0.1,35.4
			l13.7,0.3c-0.4,9.2-0.3,15.1-0.2,25.6c-6.5,6.7-15.3,13.4-23.5,17.5c-3.9-3.8-7.1-7.9-9.9-12.3c-0.1-0.1,0.3-0.3,0.2-0.4
			c-0.1-0.1-0.6-0.2-0.7-0.3c-1.7-2.6-5.7-9.7-5-9.9c1.2,0.1,6.8-0.6,8-4c0-0.2-0.1-0.8,0-1.5c0.4-1.9,0.6-4.7-0.1-6.5
			c-1.2-3.2,2.4-2.2,2.5-2v-12.2c-4.7,3.8-9.5,7.6-15.8,9.2c-3.9-20.1,2.3-45.2,20.1-62.1l-1-0.1c-18.3,19.2-23.1,40.3-19.9,62.5
			c0,0,0.1,0.7,0.1,0.9c0,0.6-0.1,0.8-0.6,1.2c-0.5,0.3-0.9,0.6-0.8,1c0.1,0.7-0.6,0.7-1.5,0.7c-0.4-0.4-1,0.1-1.3,0.3
			c-0.5,0.1-0.7-1.8-1.3-0.4c-0.2,0.9-0.6,0.9-1.6,0.5c-0.6-0.2-0.6,0.1,0,0.8c0.8,0.9,1.5,2.2,1.4,2.6c-0.3,0.9-0.2,1.8,1.1,2.3
			c-0.1,0-0.8,2.7,1.2,2.7c0.6,0,2.2,0.3,2.2,0.3c0.1,0.5-0.1,0.8-0.3,1l-1.3-0.7l-0.4,1.6l-1.8-0.1l4.4,5.5l0.5-4.3l5.1,0.7
			c0.8,2.2,6,14.1,15.8,23c-0.1,0.3-6.8,3.1-6.8,3.1l-1.1-3.3l-0.8,1.2l-1.5-0.4l-0.2,1.4l-1.3,0.4l2.4,1.6l-6.1,1.8
			c-17.2-28.1-24.9-66.8-3.5-108.1l5.4,0.1l-1.1,1.8l1.5-0.2l0.4,1.3l1.1-0.5l1.1,1.4l1.3-3.9c0,0,3.8,0.1,4.3,0
			c0.4,0,8.1-6.6,7.9-6.9c-0.1-0.2-8.4,6-8.7,5.7c0,0-0.8,0.2-0.2-0.6c1.2-1.4,2-2.5,3.2-4.5c1.9-2.7,2.8-6,3.3-8.2
			c0-0.2,0-0.5-0.1-0.8c-0.7-1.5-0.6-2.5,0.8-4.2c0.5-0.6,0.5-0.8,0.4-1.2c-0.3-0.9,0-1.6,0.6-2.2
			C3765.5-686.5,3765.7-686.6,3765.9-686.6L3765.9-686.6z M3720.4-680.6c3.4,1.4,0.7,4.5-1.8,1.8c-1.3-1.4-2.4-1.3-3.1-0.3
			c-0.3,0.5,0.1,1.3,0.6,1c0.4-0.2,0.8-0.5,1.4,0c4.3,4,7.4-1.6,3.7-3C3720.6-681.3,3720-680.8,3720.4-680.6L3720.4-680.6z
			 M3706.5-680.8c0,0,0.1,0,0.1,0c0.2,0.1,0.2,1.5,0,2.1c-0.5,3-2.7,10-7,6.6c-1.7-1.4-0.2-4.8,1.9-3.6c1.6,0.9,0.5,3.1-1.2,1.8
			c-0.8-0.6-0.6,0.6,0.1,1c1.2,0.6,3.4-0.5,4.4-2.4c0.4-0.8,0.8-2.2,1.2-4.2C3706.3-680.4,3706.3-680.8,3706.5-680.8L3706.5-680.8z
			 M3706.8-675.6c0.4,2.2-1.3,6-3.6,6.6c-1.8,0.4-4-0.7-3.8-1.8c0-0.3,0.2,0.1,1.8,0.4c2.3,0.4,3.7-0.9,5-3.7
			C3706.6-675.1,3706.8-675.5,3706.8-675.6L3706.8-675.6z M3712.4-674.5c0,0.2-0.1,0.9-0.2,1.3c-0.2,1-0.4,1.4,0.7,0.9
			c0.7-0.3,1.8-0.7,2.9-0.1c1.2,0.7,2.4,0.6,3.8-0.1c1.2-0.4,1.8-0.4,2.5,0c1.3,0.7,0.8,0.3,0.7-1.6c-0.1-1.3-0.5-1.1-0.9-0.6
			c-0.3,0.3-0.9,0.4-1.6,0c-0.8-0.4-1.9-0.2-2.3,0.1c-0.4,0.3-0.9,0.4-1.7-0.2c-0.5-0.3-0.8-0.2-1.4,0.1c-1,0.4-1.4,0.2-1.9-0.2
			C3712.7-675.2,3712.4-675,3712.4-674.5L3712.4-674.5z M3707.6-673c0.1,0,0.1,0.5,0.1,1.5c-0.4,3.7-3.3,5.8-6.7,4
			c-1.5-0.9-1.3-1.5,0.2-0.9c2.3,0.9,4.7-0.3,5.8-3.4C3707.2-672.6,3707.4-673,3707.6-673z M3715.8-670.3c1.7,0.7,3.5,0.5,4-0.1
			c0.5-0.7-0.3-0.6-0.7-0.5c-1.5,0.4-2.5,0.2-3.1,0C3714.3-671.6,3714.4-670.9,3715.8-670.3z M3698.3-668.2c2.2,2.7,2.5,3.2,4.3,6.3
			c13.7,23.6,18.1,53.4,9.1,80.5c-2.5,7.5-6,15.1-9.9,21.2l-4.7,0.1l1.6-1.9l-2.2,0.2l-0.1-1.2l-1.7,0.5l-0.8-1.9l-1.5,4.3l-8.7,0
			c20.4-20.1,24.4-44.4,20.6-64c0,0,1.7-1.1,1.9-1.7c0.1-0.2,0.2-0.8,0.3-0.9c0.8-0.5,1.3-1,1.6-0.9c0.2,0.1,0.3,0.2,0.5,0.4
			c0.7,1.1,0.9,1.2,1.3,0.2c0.3-0.8,0.2-1.1,1.1-0.9c0.5,0.3,1.3,0.3,1.2,0.2c0-0.1-0.8-1-1.2-1.5c-0.9-1.2-1.1-1.4-1-2
			c0.1-0.8-0.5-1.7-0.9-1.9c0.1-2.2-0.7-2.4-3.1-2.9c0-0.4,0.1-0.7,0.2-1l1.4,1.1l0.5-2.1l1.9,0.1l-5.5-5.4c0,1.5,0.1,3,0,4.5
			c-2.6-0.1-5.1-1-5.1-0.8c-3.8-9-9.5-16.6-15.5-22.5l6-2.9l1.7,3.3l0.4-1.9l1.5,0.3l0.3-1.2l1.7-0.2l-1.8-1.8L3698.3-668.2z
			 M3734.3-664.3c0.2,0.3,0.4,0.3,0.7,0.6l-0.6,0.4C3734.5-663.7,3734.4-663.9,3734.3-664.3L3734.3-664.3z M3694.1-663.2
			c-0.5,0-0.9,0.4-0.9,0.9s0.4,0.9,0.9,0.9s0.9-0.4,0.9-0.9S3694.6-663.2,3694.1-663.2z M3699.2-663.1c-0.5,0-0.9,0.4-0.9,0.9
			c0,0.5,0.4,0.9,0.9,0.9s0.9-0.4,0.9-0.9C3700.1-662.6,3699.7-663.1,3699.2-663.1z M3682.9-662.4c3,2.5,5.7,5.8,9.1,11l-0.1,0.7
			l1,0.4c0,0,5.6,7.4,5.3,10.7c-1.9,0.4-3.6-0.1-7.1,3.1c-1.6-0.9-2.6-0.6-4.2-0.1c0,0,0,0.7,0.6,1c1.1-1.3,2.3-0.7,3-0.4
			c-0.2,0.1-0.8,7.5,0.3,9c0.9,2.5-1.4,2-3,1.4l0.5,11.7c5.3-6.1,16.4-10.2,15.6-9.8c5.6,30-7.7,50.1-21.6,64.7l7.3,0
			c0,0-6.3,10.3-6.8,13.1c0.4,0.9,1.3,2.9-0.3,4.3c-0.6,0.6-0.6,3.5-0.6,3.5c-3.8,0.1-7.2-1.2-11.6,0.4c-0.5,0.2-0.6-2.4-0.6-2.9
			c-2.5-2.2-0.2-6.1,0.1-5.8c-2-6-6-13.1-6-13.1s-2.4-0.1-3.9-0.2c-0.3-0.3-0.5-7.2-0.2-7.4c10.9,0.9,28.1-0.1,28.1-0.1l-4.6-6.5
			c-5.7-2.2-13.4,1.6-13.1,1.8c0,0-6.2-3.5-10.5-3l0.1-3.4c3.8,0,7.4,0.7,10.5,2.6l5.3-2l-16.1-17.2l0.2-2.8
			c5.3,4.9,13.9,14.5,13.9,14.5l0-36l-13.9,0l-0.4-7.3l-0.4-0.6l-0.2-5.2l0.4-0.5l-0.1-2.2l-0.1-0.3l-0.2-5.3l0.3-0.4l0-3.4
			C3665.6-651.2,3682.9-662.4,3682.9-662.4L3682.9-662.4z M3694.7-661.3l1.6,7.2l1.1-1.4l1.7,0.5l0.1-1.7l1.5-0.5L3694.7-661.3z
			 M3749.8-660.2c-0.5,0-0.9,0.4-0.9,0.9c0,0.5,0.4,0.9,0.9,0.9c0.5,0,0.9-0.4,0.9-0.9C3750.7-659.7,3750.3-660.2,3749.8-660.2z
			 M3745.4-659.6c-0.5,0-0.9,0.4-0.9,0.9c0,0.5,0.4,0.9,0.9,0.9s0.9-0.4,0.9-0.9C3746.4-659.1,3746-659.6,3745.4-659.6z M3692-658.7
			c-0.5,0-0.9,0.4-0.9,0.9c0,0.5,0.4,0.9,0.9,0.9c0.5,0,0.9-0.4,0.9-0.9C3693-658.3,3692.6-658.7,3692-658.7z M3748.8-658.2
			l-6.5,6.2l1.8-0.1l0.3,1.8l1.6-0.8l1.3,1.2L3748.8-658.2z M3751.5-656.1c-0.5,0-0.9,0.4-0.9,0.9c0,0.5,0.4,0.9,0.9,0.9
			s0.9-0.4,0.9-0.9C3752.5-655.7,3752.1-656.1,3751.5-656.1z M3700-654.9c-0.5,0-0.9,0.4-0.9,0.9c0,0.5,0.4,0.9,0.9,0.9
			s0.9-0.4,0.9-0.9C3700.9-654.4,3700.5-654.9,3700-654.9z M3704-654.1c-0.5,0-0.9,0.4-0.9,0.9s0.4,0.9,0.9,0.9s0.9-0.4,0.9-0.9
			S3704.5-654.1,3704-654.1z M3700.4-652.7c0.2,2.5,0.5,5.5,0.5,8.1l1.2-1.2l1.4,0.6l0.5-1.6l1.5-0.1L3700.4-652.7z M3740.3-650.6
			c-0.5,0-0.9,0.4-0.9,0.9c0,0.5,0.4,0.9,0.9,0.9s0.9-0.4,0.9-0.9C3741.2-650.1,3740.8-650.6,3740.3-650.6z M3697.7-650.4
			c-0.5,0-0.9,0.4-0.9,0.9c0,0.5,0.4,0.9,0.9,0.9s0.9-0.4,0.9-0.9C3698.6-650,3698.2-650.4,3697.7-650.4z M3744-650.2
			c-0.5,0-0.9,0.4-0.9,0.9s0.5,0.9,0.9,0.9s0.9-0.4,0.9-0.9S3744.5-650.2,3744-650.2z M3743.4-648.1l-5.4,5.6l1.8,0.2l0.6,1.6l1.1-1
			l1.4,1L3743.4-648.1z M3746.4-646.9c-0.5,0-0.9,0.4-0.9,0.9c0,0.5,0.4,0.9,0.9,0.9c0.5,0,0.9-0.4,0.9-0.9
			C3747.3-646.5,3746.9-646.9,3746.4-646.9z M3704-645.2c-0.5,0-0.9,0.4-0.9,0.9c0,0.5,0.4,0.9,0.9,0.9s0.9-0.5,0.9-0.9
			C3704.9-644.7,3704.5-645.2,3704-645.2z M3681-644.4l-1.4,1.1c1.1,0.4,1.7,1.4,1.7,1.4C3681.4-641.9,3681.3-642.5,3681-644.4
			L3681-644.4z M3708.4-643.8c-0.5,0-0.9,0.4-0.9,0.9s0.4,0.9,0.9,0.9s0.9-0.4,0.9-0.9S3708.9-643.8,3708.4-643.8z M3701.7-642.4
			c-0.5,0-0.9,0.4-0.9,0.9s0.4,0.9,0.9,0.9s0.9-0.4,0.9-0.9S3702.3-642.4,3701.7-642.4z M3740.2-640.5c-0.5,0-0.9,0.4-0.9,0.9
			c0,0.5,0.4,0.9,0.9,0.9s0.9-0.4,0.9-0.9C3741.1-640.1,3740.7-640.5,3740.2-640.5z M3736.5-639.1c-0.5,0-0.9,0.4-0.9,0.9
			c0,0.5,0.4,0.9,0.9,0.9s0.9-0.4,0.9-0.9C3737.5-638.7,3737.1-639.1,3736.5-639.1z M3774.1-638.9l1.9,2.1v31.2l-1.9,0L3774.1-638.9
			z M3698.7-638.7c1.6,0,3.3,0.2,3.9,1.2c0.9,1.1-1,0.7-2.5,0.9c-1.4,0.2-0.6,0.5,1.4,0.6c2.8,0.2,3.9,0.2,4.3,0.9
			c0.2,0.6,0.1,1,0.1,1.7l-3.2-0.2c-1.6,0-2.6,0-3.1,0.1c-0.4,0.1-0.3,0.4-0.1,0.6c0.1,0.1,1.3,0.1,2.8,0.1c4,0.1,4.9,0.2,5.1,1.5
			c0.2,1.2-0.7,1-4.8,0.6c-1.8-0.2-2.8,0.3-3.1,0.4c-0.4,0.2,1.3,0.4,1.9,0.3c0.4-0.1,3,0.2,3.9,0.4c0.8,0.1,0.1,0.1-0.3,0.6
			c-0.3,0.4-0.2,0.9-0.6,1.1c-0.5,0.3-1.6,0.3-3.4,0.3c-2.1,0-3.1,0.5-0.2,0.7c1.9,0.1,2,0.1,2.1,0.6c0.4,1.4-0.5,1.6-2.4,1.9
			c-0.9,0.2-2.3,0.1-3.3,0c-4.1-0.3-5.5-1.3-6-3.1c-2-6.8,0.5-10.9,6.4-11.2C3698-638.7,3698.4-638.7,3698.7-638.7L3698.7-638.7z
			 M3739.7-638.4l-4.6,6.8l1.8-0.7l0.8,1.8l1.4-1l1.4,0.9L3739.7-638.4z M3705.4-637.5c0.2,0.3,0.1,0.5-0.3,0.7
			c-0.3,0.2-0.9,0-1.3-0.1c-0.5-0.2-0.5-1.1-0.1-1.2C3704.4-638.2,3705.1-638,3705.4-637.5z M3672.3-637.9l-2.1,2.3
			c0,0,1.9-0.7,3-1.1L3672.3-637.9z M3742.6-636.8c-0.5,0-0.9,0.4-0.9,0.9s0.4,0.9,0.9,0.9s0.9-0.4,0.9-0.9
			S3743.1-636.8,3742.6-636.8z M3776.7-636c0,0,2.3,2.3,3.3,3.3l-0.9,0l0,1.8l2.8,0l1.5,1.5l-4.2,0v1.9l5.2,0l0-0.8l2.1,1.9
			l0.2,20.9l-9.9,0C3776.7-615.8,3776.7-625.7,3776.7-636L3776.7-636z M3708.4-633.8c-0.1,0.5-0.5,0.5-1,0.2
			c-0.8-0.3-0.7-1.2-0.1-1.3C3708.5-635,3708.7-634.5,3708.4-633.8L3708.4-633.8z M3711.6-633.4c-0.5,0-0.9,0.4-0.9,0.9
			c0,0.5,0.4,0.9,0.9,0.9c0.5,0,0.9-0.4,0.9-0.9C3712.5-632.9,3712.1-633.4,3711.6-633.4z M3708.3-632.6c0.4,0,0.7,0.2,0.9,0.4
			c0.5,0.5,0.3,1-0.2,1.3c-0.6,0.3-1.1-0.1-1.3-0.9C3707.6-632.3,3707.9-632.6,3708.3-632.6z M3737.5-630.2c-0.5,0-0.9,0.4-0.9,1
			c0,0.5,0.4,0.9,0.9,0.9s0.9-0.4,0.9-0.9S3738-630.2,3737.5-630.2z M3706.7-629c0.8,0,1,0.9,0.6,1.3c-0.6,0.6-1.5,0.3-1.7-0.2
			C3705.7-628.6,3706.2-629,3706.7-629z M3734.2-628.6c-0.5,0-0.9,0.4-0.9,0.9s0.4,0.9,0.9,0.9s0.9-0.4,0.9-0.9
			S3734.7-628.6,3734.2-628.6z M3737.5-628l-4.2,7.1l1.7-0.7l1,1.4l1.1-0.9l1.6,0.8L3737.5-628z M3704.8-626.8c0.7,0,1,0.6,0.4,1.1
			c-0.4,0.4-0.8,0.4-1.2,0C3703.3-626.1,3703.8-626.8,3704.8-626.8z M3740.4-626.7c-0.5,0-0.9,0.4-0.9,0.9s0.4,0.9,0.9,0.9
			s0.9-0.4,0.9-0.9S3740.9-626.7,3740.4-626.7z M3710.1-626c-0.5,0-0.9,0.4-0.9,0.9c0,0.5,0.4,0.9,0.9,0.9s0.9-0.4,0.9-0.9
			C3711-625.6,3710.6-626,3710.1-626L3710.1-626z M3779.1-625.8v2l5.3,0v-2L3779.1-625.8z M3710.1-624l-2,7.5l1.7-1l1,1.1l1-1.2
			l1.8,0.5L3710.1-624z M3713.7-623.2c-0.5,0-0.9,0.4-0.9,0.9c0,0.5,0.4,0.9,0.9,0.9s0.9-0.4,0.9-0.9
			C3714.7-622.8,3714.2-623.2,3713.7-623.2z M3707.2-622.8c-0.5,0-0.9,0.4-0.9,0.9c0,0.5,0.4,0.9,0.9,0.9c0.5,0,0.9-0.4,0.9-0.9
			C3708.1-622.4,3707.7-622.8,3707.2-622.8z M3779.1-622.2v1.8h5.3v-1.8L3779.1-622.2z M3735.9-619.9c-0.5,0-0.9,0.4-0.9,0.9
			c0,0.5,0.4,0.9,0.9,0.9c0.5,0,0.9-0.4,0.9-0.9C3736.8-619.4,3736.4-619.9,3735.9-619.9z M3779.1-618.8v1.9h5.3v-1.9H3779.1z
			 M3670.8-618.6l1.8,0l0,33.8l-1.8-1.9L3670.8-618.6z M3670.1-618.5l-0.1,30.9l-3.5-3.7l0.9,0v-2.1l-3,0l-1.3-1.3l4.3,0v-2.1
			l-5.1,0v1.3l-2.5-2.7l0-20.2L3670.1-618.5z M3736-617.6l-2.8,7.4l1.8-1l0.9,0.9l0.9-0.9l1.6,0.8L3736-617.6z M3662.3-617.2l0,2
			h5.2v-2H3662.3z M3739.2-616.8c-0.5,0-0.9,0.4-0.9,0.9s0.4,0.9,0.9,0.9s0.9-0.4,0.9-0.9S3739.7-616.8,3739.2-616.8z M3732.9-616.7
			c-0.5,0-0.9,0.4-0.9,0.9c0,0.5,0.4,0.9,0.9,0.9s0.9-0.4,0.9-0.9C3733.8-616.3,3733.4-616.7,3732.9-616.7z M3711-616.4
			c-0.5,0-0.9,0.4-0.9,0.9c0,0.5,0.4,0.9,0.9,0.9c0.5,0,0.9-0.4,0.9-0.9C3711.9-616,3711.5-616.4,3711-616.4z M3779.1-615.6v2.1h5.3
			v-2.1H3779.1z M3710.8-614.5l-0.8,1.2l-1.8-0.6l2.4,7.5l3.1-7.8l-1.8,1L3710.8-614.5z M3662.3-613.9v2h5.1v-2H3662.3z
			 M3779.1-612.1v2.1h5.2v-2.1H3779.1L3779.1-612.1z M3662.3-610.4v2h5.1v-2H3662.3z M3736-610c-0.5,0-0.9,0.4-0.9,0.9
			s0.4,0.9,0.9,0.9s0.9-0.4,0.9-0.9S3736.5-610,3736-610z M3707.9-609.1c-0.5,0-0.9,0.4-0.9,0.9s0.4,0.9,0.9,0.9s0.9-0.4,0.9-0.9
			S3708.4-609.1,3707.9-609.1z M3713.9-608.9c-0.5,0-0.9,0.4-0.9,1c0,0.5,0.4,0.9,0.9,0.9s0.9-0.4,0.9-0.9
			C3714.8-608.4,3714.4-608.9,3713.9-608.9z M3779.1-608.7v1.9h5.2v-1.9H3779.1L3779.1-608.7z M3736-607.9l-1.1,1.2l-1.6-0.5
			l3.6,6.9l1.8-7.4l-1.6,1L3736-607.9z M3662.3-607.2v2.2h5.1v-2.2H3662.3z M3710.9-606.2c-0.5,0-0.9,0.4-0.9,0.9s0.4,0.9,0.9,0.9
			s0.9-0.4,0.9-0.9S3711.4-606.2,3710.9-606.2z M3710.8-604.2c-0.4,0.3-0.6,0.8-1,1l-1.7-0.7l1,9.4l4.7-8.8l-2.2,0.4L3710.8-604.2z
			 M3662.3-603.9v2.3h5.1v-2.3H3662.3z M3739.6-602.8c-0.5,0-0.9,0.4-0.9,0.9s0.4,0.9,0.9,0.9s0.9-0.4,0.9-0.9
			S3740.1-602.8,3739.6-602.8z M3733.6-602.7c-0.5,0-0.9,0.4-0.9,0.9s0.4,0.9,0.9,0.9s0.9-0.4,0.9-0.9S3734.1-602.7,3733.6-602.7z
			 M3662.3-600.5v2.3h5.1v-2.3H3662.3z M3736.9-600c-0.5,0-0.9,0.4-0.9,0.9s0.4,0.9,0.9,0.9s0.9-0.4,0.9-0.9S3737.5-600,3736.9-600z
			 M3750.2-599.9c5,0.2,5.7,1.8,5.8,7.4c0,4.5-1.3,6.3-4.5,7.1c-1.2,0.3-5.6,0-6.8-0.4c0-0.4-0.6-1.3-0.8-2c0.3-0.1,1.3,0.1,3.2,0.2
			c1.5,0.1,1.9-0.1,1.5-0.4c-2.9-0.7-4.9-0.5-7.7-1c0-0.8-0.7-1.8-0.7-1.8c0.2-0.1,4.3,0.4,6.5,0.3c1,0,0.4-0.5,0-0.6
			c-2.6-0.4-4.2-0.3-6.9-0.7c0.1-0.7-0.3-1.3-0.7-1.9c0,0,1.4,0,4.2,0c1.5,0,2.8,0.1,3.4,0.1c1.1,0,1-0.5,0-0.6
			c-1.2-0.1-5.7-0.2-5.7-0.2c0.3-0.2,0.8-2.2,0.6-2.2c0,0,1.2,0,1.9,0c3.6-0.1,4.3-0.1,4.3-0.2c0.5-0.4-0.8-0.6-2.2-0.6
			c-0.6,0-1.4,0.1-1.4-0.2c0-0.3,0-0.9-0.3-1.5C3746.1-599.8,3748.1-600,3750.2-599.9L3750.2-599.9z M3707-598.7
			c-0.5,0-0.9,0.4-0.9,0.9s0.4,0.9,0.9,0.9s0.9-0.4,0.9-0.9S3707.5-598.7,3707-598.7z M3742.7-598.6c0.6,0,0.8,1.1,0.2,1.3
			c-0.9,0.3-1.4,0.1-1.3-0.5C3741.6-598,3742.3-598.6,3742.7-598.6z M3713.1-597.6c-0.5,0-0.9,0.4-0.9,0.9s0.4,1,0.9,1
			s0.9-0.4,0.9-1S3713.6-597.6,3713.1-597.6z M3739.7-596.5c2.1,0,1,2.9-0.6,1.8C3738.3-595.2,3738.9-596.5,3739.7-596.5z
			 M3706.2-594.2c0,0-0.1,0-0.1,0.1l0.5,8.9l5.1-8.3l-2,0.8l-0.9-1.3l-1.1,0.9C3707.3-592.8,3706.5-594.1,3706.2-594.2L3706.2-594.2
			z M3737.8-593.3c0.9,0.1,1.6,1.1,0.9,1.6C3737.2-591,3736.4-593.2,3737.8-593.3z M3735.5-591.3c-0.5,0-0.9,0.4-0.9,0.9
			s0.4,1,0.9,1s0.9-0.4,0.9-1S3736-591.3,3735.5-591.3z M3739.1-590.5c0.8,0,1.2,1.2,0.4,1.6c-0.2,0.1-0.7,0.1-0.9,0
			C3737.6-589.7,3738.1-590.4,3739.1-590.5z M3704-589c-0.5,0-0.9,0.4-0.9,0.9s0.4,0.9,0.9,0.9s0.9-0.4,0.9-0.9S3704.6-589,3704-589
			z M3775.5-587.9l-3.5,1.2v1.7C3773.5-585.5,3774.4-586.7,3775.5-587.9L3775.5-587.9z M3743-587c0.6,0.3,0.8,1.1,0.2,1.4
			c-0.4,0.2-1.5,0.2-1.8-0.2C3740.8-587,3742.3-587.3,3743-587L3743-587z M3710.3-586.7c-0.5,0-0.9,0.4-0.9,0.9s0.4,0.9,0.9,0.9
			s0.9-0.4,0.9-0.9S3710.8-586.7,3710.3-586.7z M3706.5-585.1c-0.5,0-0.8,0.4-0.8,0.8c0,0.5,0.4,0.8,0.8,0.8c0.5,0,0.8-0.4,0.8-0.8
			C3707.3-584.7,3707-585.1,3706.5-585.1z M3745.4-583.7c-0.5,0-0.9,0.4-0.9,0.9s0.4,1,0.9,1s0.9-0.4,0.9-1
			S3745.9-583.7,3745.4-583.7z M3703.5-583.6l0,8.4l5.5-6.9l-1.9,0.4l-0.8-1.7l-1.2,0.8L3703.5-583.6z M3738.5-581.7
			c-0.5,0-0.9,0.4-0.9,0.9s0.4,0.9,0.9,0.9s0.9-0.4,0.9-0.9S3739-581.7,3738.5-581.7z M3766.1-581.7l-0.9,1.6l2.6-1.4L3766.1-581.7z
			 M3742.2-580.5c-0.5,0-0.9,0.4-0.9,1c0,0.5,0.4,0.9,0.9,0.9s0.9-0.4,0.9-0.9C3743.1-580.1,3742.7-580.5,3742.2-580.5z
			 M3745.4-579.5l-1.1,1.6l-1.5-0.5l-0.4,1.5l-1.8-0.1l5.7,5.1L3745.4-579.5z M3700.6-578.9c-0.5,0-0.9,0.4-0.9,0.9s0.4,1,0.9,1
			s0.9-0.4,0.9-1S3701.1-578.9,3700.6-578.9z M3786.6-576.6v69h-32l-13.4-18.9c-0.3-3-0.1-6.2,1.1-10.2c1.3,0.9,4.2,0.4,4.1-3.2
			c-0.1-2.3-3.6-3.5-5.4-1.8c0.1-2.3,1-5.7,2.3-6.7c0.9,0.8,1.1,2.1,3.1,1.7c1.4-0.2,2.6-1.9,2-3.8c-0.2-0.5-0.2-1.1-0.2-1.5
			c0-0.4,0-1.1,0-1.5c-0.1-0.5-0.1-1.1-0.1-1.1C3762.9-557.9,3775.9-567.1,3786.6-576.6L3786.6-576.6z M3707.1-576.3
			c-0.5,0-0.9,0.4-0.9,0.9s0.4,1,0.9,1s0.9-0.4,0.9-1S3707.6-576.3,3707.1-576.3z M3702.7-575.4c-0.5,0-0.9,0.4-0.9,0.9
			s0.4,0.9,0.9,0.9s0.9-0.4,0.9-0.9S3703.2-575.4,3702.7-575.4z M3749-574.9c-0.5,0-0.9,0.4-0.9,0.9s0.4,0.9,0.9,0.9
			s0.9-0.4,0.9-0.9S3749.5-574.9,3749-574.9z M3699.4-573.9l-1.5,8.8l6.4-6.6l-1.7,0l-0.3-1.5l-1.6,0.5L3699.4-573.9z M3742.7-572
			c-0.5,0-0.9,0.4-0.9,0.9s0.4,0.9,0.9,0.9s0.9-0.4,0.9-0.9S3743.2-572,3742.7-572z M3746.8-571c-0.5,0-0.9,0.4-0.9,0.9
			s0.4,0.9,0.9,0.9s0.9-0.4,0.9-0.9S3747.3-571,3746.8-571z M3695.4-569.8c-0.5,0-0.9,0.4-0.9,0.9s0.4,0.9,0.9,0.9s0.9-0.4,0.9-0.9
			S3695.9-569.8,3695.4-569.8z M3750.5-569.1l-1.5,1.2l-1.4-0.9l-0.3,1.9l-1.2,0.6l5,3.6L3750.5-569.1z M3754.2-566.6
			c-0.5,0-0.9,0.4-0.9,0.9s0.4,1,0.9,1s0.9-0.4,0.9-1S3754.7-566.6,3754.2-566.6z M3701.3-566.3c-0.5,0-0.9,0.4-0.9,0.9
			c0,0.5,0.4,1,0.9,1s0.9-0.4,0.9-1S3701.8-566.3,3701.3-566.3z M3697.2-565c-0.5,0-0.9,0.4-0.9,0.9s0.4,0.9,0.9,0.9
			s0.9-0.4,0.9-0.9S3697.7-565,3697.2-565z M3751.8-562.5c-0.5,0-0.9,0.4-0.9,0.9s0.4,0.9,0.9,0.9s0.9-0.4,0.9-0.9
			S3752.3-562.5,3751.8-562.5z M3747.9-561.7c-0.5,0-0.9,0.4-0.9,0.9c0,0.5,0.4,1,0.9,1s0.9-0.4,0.9-1
			C3748.8-561.2,3748.4-561.7,3747.9-561.7z M3711.7-560.3C3711.7-560.3,3711.7-560.3,3711.7-560.3c0.1,0.1,0.4,1,0.2,1.4
			c-0.1-0.1-0.8-0.7-0.6-0.9C3711.3-559.9,3711.6-560.3,3711.7-560.3L3711.7-560.3z M3690.5-558.8c0,0,0.9,0,1.1,0.1
			c0,0.2-0.2,0.7-0.5,1.3c-1.2,2.9-1.4,6.1-0.2,9.2c1.9,4.2,7.4,14.2,7,15.1l-12.1,0.1l0.1-1.9c3.4-0.1,3.9-2.3,3.1-4
			c-0.6-1.2-2.2-1.9-3.8-1.3c-2.2,0.9-2.3,2-3.1,3.7l-0.3-0.4c0.7-0.9,0.9-1.7,0.8-2.7c-0.1-1-0.1-0.7,0.2-1.2
			c1.9-2.1,0.7-4.8,0.7-4.8C3683.3-547.3,3689.2-557.9,3690.5-558.8L3690.5-558.8z M3662.7-558.6c3.5,2.8,6.4,12.2,6.3,12.3
			c-0.2-0.1-2.8,3,0,6c0,0-0.2,1.8,0.4,2.7c-1.2,2.6-1.5,2.8-1.6,5c0,0-0.2,0-1.4,0c-5.7,0-6,7.4-0.3,7.8c0.8,0.1,1.1-0.1,1.5,0.3
			c0.5,0.6,0.9,1.2,1.7,0.9c0.2,0,0.5,0.2,0.8,0.5c0.5,0.8,1.3,1.3,2.5,1.1c0.4,0,0.8,0.2,1.3,0.3c0.5,0.4,1.4,0.7,2,0.4
			c0.2-0.1,0.6-0.1,0.9,0c0.8,0.4,1.7,0.1,2-0.1c0.8-0.4,0.9,0.2,0.9,0.8c-0.4,1.4,0.5,2.6,1.8,3.2c2.7,0.9,4.1-0.9,4.7-4.3
			c0.1-0.7,0.3-1.6,0.3-1.6l9.2,0.2l-13.2,15.5h-23v-51C3660.6-558.6,3661.7-558.6,3662.7-558.6L3662.7-558.6z M3745.4-555.8
			c1.7,0.7,1.8,1.9,0.1,1.3c-2.7-0.8-5.6,0.8-6.2,3.2c-0.1,0.4-0.2,0.8-0.3,0.9c-0.4,0.5-0.4,0-0.2-1.3c0.2-2.6,2-4.5,4.4-4.5
			C3743.9-556.2,3744.7-556,3745.4-555.8L3745.4-555.8z M3744.6-554c0.7,0,1.4,0.2,2,0.7c0.6,0.7,0.4,1.2,0,1.1
			c-2.3-1-5.2,0.2-6.3,3.1c-0.7,1.8-0.8,0.8-0.5-0.6C3740.3-552.1,3742.2-553.9,3744.6-554L3744.6-554z M3728.8-553.3
			c-1,0-1.9,0.2-2.4,0.7c-0.9,0.9-0.2,0.9,1.5,0.3c0.8-0.3,2.3-0.2,3.3,0.2c0.8,0.3,1.1,0.4,1.1,0.2
			C3732.2-552.7,3730.4-553.3,3728.8-553.3L3728.8-553.3z M3747.3-550.3c0.4,1,0.1,2.7-1.3,2.9c-1.7,0.2-2.6-2.7,0.5-2.2
			c-0.4-1.2-1.8-0.8-2.5-0.6c-1.4,0.6-2.4,2-3.3,4.6c-0.3,0.8-0.4,1.2-0.5,1.1c-0.2-0.1-0.2-1.3,0.1-2.8c0.7-2.6,2.4-4.2,4.1-4.2
			C3745.6-551.7,3746.9-551.2,3747.3-550.3z M3722.6-551.5c-0.2,0,0.1,0.6,0.5,1.4c0.2,0.5,0.4,1.1,0.4,1.2c0,0.5,0.3,0.6,0.9,0.3
			c0.6-0.3,0.7-0.6,1.5-0.2c0.8,0.4,1.6,0.7,2.3,0.3c0.4-0.2,0.6-0.2,1.4,0c0.9,0.2,1,0.3,1.7,0c0.9-0.4,1.9-0.1,2.1,0.1
			c0.2,0.2,0.1-0.1,0.6-1.2c0.2-0.5,0.5-1.1,0.4-1.3c-0.1-0.2-0.9,0-1.8,0.3c-0.5,0.1-0.9,0.1-1.8-0.2c-1.9-0.5-3-0.4-4.2,0.2
			C3726-550.3,3724.4-550.8,3722.6-551.5C3722.7-551.5,3722.7-551.5,3722.6-551.5L3722.6-551.5z M3726.3-546.4c-0.8,0-1.6,0.5-2,1.3
			c-0.4,1,0.3,2.9,1.3,3c0.9,0.1,0.9-0.4,0.4-0.6c-0.7-0.2-1.6-1.3-1-2.2c0.4-0.6,1.5-0.6,2.3,0.1c1.6,1.5,3.4,1.6,3.7,0.3
			c0.1-0.5-0.3-1.2-0.9-1c-0.5,0.1-1.6,0.2-2.5-0.4C3727.2-546.2,3726.8-546.4,3726.3-546.4L3726.3-546.4z M3743-541.5
			c4-0.2,2.3,5.3,0,3.9c-0.8-0.5-0.5-2.4,1.7-2.4c-2.2-1.7-3.6,0.4-3.1,2.7c-0.5,0.8-0.6,2.2-0.9,3c-0.5,0.9-0.9-1.5-0.4-3.9
			C3740.7-540.4,3741.6-541.4,3743-541.5L3743-541.5z M3720.2-541.3c-0.8,0,0,0.9,0.2,1c2.5,2,3.7,3.2,1.7,2.6
			c-3.3-0.8-4.1,0.1-6.6,1.3c-0.5,0.2-0.6,0.1-1.1-0.1c-2.2-0.7-2,0.7,0.3,2c3.5,1.9,6.3,2.3,9,0.9c1.7-0.9,1.8-0.3,0.2,0.7
			c-2.8,1.6-5.7,1.4-10.1-1.4c-1.4-0.9-1.6-0.3-0.2,0.7c3.4,2.1,7.9,3.9,11.6,0.9c0.7-0.7,0.9-1,1.4-0.7c1.5,0.7,1-0.6,0-1.8
			c-0.4-0.4-0.6-0.8-0.6-1.1c0.1-1.1-0.5-1.1-1-1c-0.6,0-0.6-0.2-1.3-1.1C3722.4-539.7,3721-541.1,3720.2-541.3L3720.2-541.3z
			 M3686.7-535.7c-1.4,0.1-1.7,0.2-1.4,3.1c0.1,0.5,0.3,2.2,0.4,2.8c0.8,7.6,0.2,11-1.9,11.9c-0.8,0.3-1.5,0.2-2,0
			c-1.3-0.5-1.9-2.2-0.9-4.1c0.3-0.5,0.6-1.3,0.7-1.8c0.1-0.5,0.4-1.5,0.6-2.3c0.5-1.9,0.8-4.8,0.5-7.6c-0.2-1.9-0.2-2,0.3-3.3
			c1-1.9,1.7-2.8,3.8-2.9C3689.1-539.6,3689.7-535.9,3686.7-535.7L3686.7-535.7z M3737.9-535.8l-0.7,0c-0.8-2.7-2.4-1.8-2.7,0.1
			l-0.6,0C3734.1-539.3,3738.5-538.3,3737.9-535.8L3737.9-535.8z M3676.6-537.8c4.5,0.4,5.3,1.6,5.6,7c0,2.6-0.1,4.2-0.5,4.8
			c-0.7,0.3-1.3-0.3-2.3,0.3c-0.5,0.3-0.4,0.4-0.6,0c-0.2-0.3,0-1.7,0.4-2.8c0.3-1.1-0.2-1.7-1.7-3c-0.4-0.4-0.7-0.9-1.1-1.6
			c-0.8-2.1-1.2-1.2-0.5,0.6c0.3,0.8,0.4,1.2-0.6,0.8c-0.6-0.2-1.1,0-1.5,0.3c-1.2,0.3-2.3-0.4-1.2-0.8c0.6-0.2,1.8-0.6,2.2-0.6
			c0.3,0,0.4-0.1,0.4-0.2c0-0.5-2.4-0.5-4.2,0.2c-2.2,1-2.3,0.8-2.1-0.8C3669.4-537.6,3673.1-538.1,3676.6-537.8L3676.6-537.8z
			 M3720.2-537.5c1.1-0.1,2.2,1.3,2,2.4l-0.5,0c-0.3-2.1-2.2-2.2-2.8,0.2l-0.8,0C3718.6-536.7,3719.4-537.4,3720.2-537.5z
			 M3733.4-537.4c0.5,0.3,0.1,1-0.3,1.2c-0.2,0-0.8-0.4-0.6-0.6C3732.7-537.2,3733.1-537.3,3733.4-537.4L3733.4-537.4z
			 M3738.5-537.1c0.3,0,0.7,0.2,0.8,0.6c0,0.6-0.5,0.5-0.6,0.4C3738.4-536.3,3738.3-537,3738.5-537.1L3738.5-537.1z M3722.9-536.6
			c0.8,0.1,1.1,1.2,0.2,1.2C3722.7-535.2,3722.7-536.3,3722.9-536.6z M3717.9-536.4c0.1,0-0.1,0.9-0.3,1c-0.4,0.3-0.9,0-0.9-0.3
			C3716.7-536.4,3717.5-536.4,3717.9-536.4L3717.9-536.4z M3732.4-534.3c1.6,0.6,3.7,1.2,5.6,0.5c0.7-0.3,1.3-0.6,1.3-0.3
			c0,0.3-0.6,0.8-1.6,1.1c-2.1,0.6-3.6,0.4-5.1-0.7C3732.3-534,3732.1-534.3,3732.4-534.3L3732.4-534.3z M3731.8-533.4
			c2.6,1.5,4.9,1.7,7,0.6c0.8-0.3,0.9,0,0.9,0.5C3735.9-528.9,3731.1-532.4,3731.8-533.4z M3668.4-531.1c-0.6,1.3-1,4.5-2,5.5
			C3659.3-526,3663.9-535.5,3668.4-531.1z M3712.6-532.1c-0.4,0.2,0,1.2,0.6,1.5c5.5,2.4,8.2,2.7,11.3,1.6c1.3-0.5,2-1.5,2-2
			c0.1-0.6-0.8-0.7-2.2,0c-4.4,1.8-7.2,0.4-10.8-1C3713.3-532.2,3713-532.3,3712.6-532.1z M3691.7-532.1l0,8.1l-5.2-0.1l0.1-1.2
			l3.9,0.1l-0.1-5.8l-4.5,0l0-1.1L3691.7-532.1L3691.7-532.1z M3692.9-532.1l5.2,0l0.3,0.8h-5.4V-532.1L3692.9-532.1z M3672-529.5
			c-0.3,0.3-0.9,0.4-1.2,0.1c-0.5-0.6,0-1.6,0.9-1.6C3672.6-530.9,3672.7-530.1,3672-529.5L3672-529.5z M3674.4-530.8
			c0.8,0,1,0.7,0.4,1.3c-0.4,0.4-0.6,0.4-1,0.1C3673.4-529.7,3673.7-530.8,3674.4-530.8z M3669.3-530.6c0.2,0,0.4,0,0.5,0.2
			c0.5,1-1.1,1.7-1.4,0.9C3668.2-530,3668.8-530.6,3669.3-530.6z M3698.6-530.5l0.3,1l-6,0v-1L3698.6-530.5z M3677.2-530.2
			c0.9,0.1,0.8,1,0.3,1.4c-0.7,0.7-1.4,0.5-1.2-0.4C3676.5-529.8,3676.8-530.2,3677.2-530.2z M3672.4-527.2
			c-0.3,1.1,0.4,3.4,0.2,3.7c-0.4,0.5-1.1,0.3-1.4,0.1c-1.1-0.7-1.1-4.8-0.1-5.1c0.7,0.3,1.1-0.3,1.4-0.4S3672.6-528.4,3672.4-527.2
			L3672.4-527.2z M3688.2-528.9c0.6,0,1.1,0.5,1.1,1.1c0,0.6-0.5,1.1-1.1,1.1s-1.1-0.5-1.1-1.1
			C3687.2-528.4,3687.6-528.9,3688.2-528.9z M3692.9-528.8h6.1c0.4,0.5,0.3,0.9,0.2,1.2l-6.3,0V-528.8L3692.9-528.8z M3675-528.6
			c0.3,0,0.4,0.6,0.2,1.3c-0.3,1.2-0.3,3-0.1,3.7c0.2,0.5,0.3,0.9,0.2,1c-0.3,0.5-1.3,0.2-1.7-0.5c-1-1.9-0.8-5.4,0.4-5.1
			C3674.5-528.1,3674.7-528.4,3675-528.6z M3669.6-528.2c-0.3,0.5-0.1,3.2-0.1,3.4c0,0.3-0.8,0.1-1.2-0.1c-1-0.5-0.8-1.7-0.6-2.8
			c0.2-0.8,0.7-0.9,1.3-0.9C3669.4-528.6,3669.9-528.5,3669.6-528.2L3669.6-528.2z M3677.9-528c0.3,0,0.4,0.2,0.3,1.2
			c-0.1,0.8-0.1,1.4,0,2.2c0.3,1.6,0.3,2-0.1,2.3c-0.5,0.4-1.1,0.3-1.6-0.2c-1-0.8-1-4.7-0.3-5
			C3677.1-527.3,3677.5-527.9,3677.9-528z M3699-526.8l-0.9,1.2h-5.2v-1.2L3699-526.8L3699-526.8z M3680.5-525.2
			c0.8,0,0.7,1.5,0.2,2.4c-0.4,0.6-0.6,0.6-1.2,0.1C3678.9-523.3,3679.6-525.2,3680.5-525.2z M3697.5-524.8l-0.7,0.7l-3.8,0v-0.7
			L3697.5-524.8L3697.5-524.8z"/>
		<path id="path3872-3-7-5" fill="#D40000" d="M3671.9-553.9l-6.3-5c7.5-0.2,15.1,0,22.6,0.1l-7.5,5.4c-1.5-1.7-2.4-4-4.6-5.1
			C3674.4-557.8,3673.3-555.4,3671.9-553.9z M3727.1-555.7c-0.2-0.1-0.3-0.4-0.4-1.2c-1.9-8.9-11.1-8.3-11.1-8
			c-0.1-0.4,11.5-10.9,18.3-19.2c2.1,6.3,8.3,20.8,8,20.8c0,0-1.8,0-6.5-0.1c-4.2,1.9-7.2,3.8-7.1,6.6c0,1-0.3,1.4-0.6,1.3
			C3727.6-555.6,3727.4-555.7,3727.1-555.7z M3748.2-584.3c6-0.1,7.1-3.1,7.8-3.4c3.9-0.7,6.4,1.9,8.1,4.7c2.2,1.3,1.9,0.1,2.4-2
			l5.5-1.6l0,1.8c-1.7,0.9-4.2,3.3-4.2,3.3l-1.7-0.1l-1,1.3c-3.8,2.1-7.6,4.6-11.6,6.2C3753.6-574.1,3748.7-580.5,3748.2-584.3
			L3748.2-584.3z M3673.3-583.7l-0.1-35.2c2.5-0.2,7.1-0.2,7.1-0.2c1.9-3.4,4.5-5,7.2-7c0.4,4.3,0.5,8.5,0.4,12.8
			c-7.1,8.8-11.1,19.7-6.7,35.9l-2.6-0.3L3673.3-583.7z M3712.7-581.8c2-7.3,3.6-14.8,4.3-22.5l13.6-0.2l0.3,4.7L3712.7-581.8z
			 M3758.8-597.8l-0.3-13.2c9.9-12,10.5-22.5,6.8-35.7c3.3,0.8,4.9,3.3,8.1,6.9v34.3c-2.2,0.3-7.5,0.6-7.5,0.6
			C3765.8-603.1,3761.2-599.3,3758.8-597.8L3758.8-597.8z M3717-618.5l-0.6-5.8l17.6-17.1c-1.5,7.4-3.2,15-3.7,22.9L3717-618.5z
			 M3687.7-636.6c-1.3,0.8-5.9-4.1-6.6-7.3c1.2-1.6,11.4-6.7,11.4-6.7s6,7.8,5.7,11c-2.6,0.7-4.9,0.9-7,3.1
			C3690.1-636.4,3689.7-637.7,3687.7-636.6z M3679.7-643.2c1.4,0.2,0.5,2.2,0.3,3.6l-7.5,2.3
			C3675.1-639.6,3676.9-641.5,3679.7-643.2L3679.7-643.2z M3704.1-660.4c1.5,0,3.1,0.6,4.3,0.1c0.4-0.2,1.3-0.4,2.3-0.3
			c2.2,0.7,3-1.8,4.5-1.8c1.8,0,2.9-1.3,2.9-3.9c0-1.1,0.1-1.3,0.3-1.4c0.6-0.3,1.3,0.1,1.4,0.8c1.3,4.8,4.7,9.2,9.9,8.8
			c-4.2,4.3-17,17.7-17,17.7C3710.4-647.4,3707.4-654.1,3704.1-660.4L3704.1-660.4z M3758.5-664.5l7.7-5.7l4.6,5.7l4-5.4
			c2.3,1.7,7.7,5.5,7.7,5.5S3766.5-664.2,3758.5-664.5z"/>
		<path id="path3870-4-7-1" d="M3762.8-715.9l-70.8,0.5l13.8,18.6c14.6-3,27.3-1.1,40.5,1.3L3762.8-715.9z M3761-715l-4.7,5.9
			c-1.3-1.2-4.2-0.8-3.8,1.9c-3.6-1.9-4.4,3.3-1.3,3.1c-0.4,1-3.5,1.3-4.4-0.6c-3.2,1.8-4.1,0.1-5-1.1c4,2.8,6-2.9,1.6-3.3
			c1.7-3.6-4.5-5.2-4.1-0.5c-4.1-0.9-3.2,4.9-0.1,3.7c-2,3-5.2,1-5.8,0.4c-1.7,1.3-4.8,1.3-5.7-0.7c4.6,0.9,4.1-5.2,0-3.8
			c2.2-4.7-5-4.1-3.3-0.2c-4.1-0.2-3.2,5,0.4,4.1c-3.2,3.1-5.6,0.2-6.1,0.1c-1.9,2.1-5.2,1-5.7-0.3c3.3,1.3,4.3-4.3,0.2-3.9
			c1.1-3.6-4.9-4-3.6,0.1c-3.3-0.7-3.4,4.5,0.2,3.7c0.2,1.5-2.6,2.8-4.4,1.4c-1.3,0.7-2.7,1.8-4.4,0.2c2.6-0.4,3-4.8-1.2-3.9
			c0.2-2.7-1.3-2.9-3.2-2.2l-3-4.2L3761-715z M3712.2-708.4c-0.2,0.5-0.6,0.8-0.5,1.2c0.1,0.3,0.4,0.8,0.8,1.3
			c3.5,4.7,10.7,4.5,12.9-0.3c0.4-0.9,0.4-1.1-0.2-1.9c-0.6-0.9,0.1-1.9,0.9-1.8c1.2,0.1,1.4,1.2,0.8,1.9c-1.2,1.6,2.1,5.1,5.5,5.7
			c4.3,0.7,8.4-2.4,7.8-5.1c0-0.2-0.1-0.3-0.1-0.5c-0.5-2.3,3.1-1.2,1.8,0.3c-0.5,0.5-0.7,0.7-0.7,1.3c1,4.9,6.9,5.4,9.7,3.9
			c-3.6,5.9-9.3,1.4-10.3-2.8c-5,7.4-11.1,5.8-14.4-0.6c0.4,0.4-6.6,11.6-14.6,0.1c-3.4,9.3-9.5,3-9.1,2.6c2.8,1.6,8,1,8.5-3.9
			c0.1-0.6-0.4-0.6-0.7-1.1C3708.9-710.6,3713.2-710.6,3712.2-708.4L3712.2-708.4z M3698.9-707.7c0.6,0.1,0.7,0.3,0.6,1
			L3698.9-707.7z M3753.8-706l-0.9,1.2C3752.7-705.4,3752.7-705.9,3753.8-706z M3763.9-705.6c-2.2,0.1-3.9,3.2-3.8,7.3
			c0.1,2,0.4,7,0.5,7.8c0.2,1,0,2.5-0.4,2.6c-1,0.4-1.3,0.6-1.6,1.1c-0.7,1.2-0.1,2.6,1.3,3.2c1,0.4,2.3-0.2,3.1-1.5
			c0.5-0.7,0.6-1,1-2.9c0.2-0.8,0.2-2.2,0-3.5c-0.5-2.9-0.1-6.5,0.9-8.2c1.8-3.1,1.7-5.1-0.1-5.7
			C3764.5-705.6,3764.2-705.6,3763.9-705.6L3763.9-705.6z M3763.8-705.1c2.6,0,2.5,2.6,1.1,3.4c-0.6,0.2-1.2,0.3-1.9-0.1
			c-0.8-0.4-0.7,0.1,0.1,0.6c0.9,0.7,1.3,0.6,0.8,2.2c-0.5,1.5-0.7,4.7-0.5,6.5c0.7,5,0.1,7.4-2,8.3c-1,0.4-2.1-0.2-2.4-1
			c-0.4-1.3,0.3-2.4,2.3-2.1c0,0,0.1-0.4-0.4-4.7c-0.7-6-0.4-10.2,0.7-11.7C3762.3-704.5,3763-705.2,3763.8-705.1z M3781.2-699
			c-0.6,0-1.2,0.2-1.9,0.5c0,0-0.1,2.7-0.1,3.1c-0.4,2.3-0.3,2.6,0.7,2.9c2.5,0.8,4.6-0.9,4.5-3.6C3784.3-697.5,3783-699,3781.2-699
			z M3781.5-698.6c1.4,0,2.7,1.6,2.5,3.2c-0.1,1.9-1.8,2.9-3.4,2.5c-0.5-0.1-0.9-0.2-1.1-0.5c-0.3-0.5,0.2-0.7,1.2-0.7
			c1.2,0,1.4-0.2,1.8-0.8c0.8-1.3-0.2-3-1.5-2.6c-0.4,0.1-0.5,0.3,0,0.4c1.5,0.7,1,1.7,0.4,2.1c-0.6,0.5-1.7-0.2-1.8-0.6l0.1-2.5
			C3779.8-698.1,3780.3-698.6,3781.5-698.6L3781.5-698.6z M3765.8-686.9c0,0-0.6,0.3-0.9,0.5c-0.6,0.6-0.7,1.4-0.4,2.3
			c0.1,0.4,0.1,0.4-0.4,1.1c-1.3,1.8-1.5,2.6-0.8,4.2c0.3,0.7,0.3,0.7,0,1.7c-1.3,4.1-3.7,8.7-6.4,11.9c-0.4,0.5-0.6,1-0.6,1
			s0.6,0,1-0.2c2.7-1.4,5.6-4.1,8.3-5.8c-4.2,3.5-8.8,6.6-8.8,6.6l5.8,0.3c-1.4,1.5-26.8,23.3-20,62.3c7.9-2,11.6-5.3,15.8-9.1
			c0,3.1,0.1,11.6,0.1,11.6c0.1-0.1-3.7-1.4-2.8,1.7c0.5,1.7,0.8,6-0.1,8.5c0,0.1,0.4,0.3,0.4,0.4c0,0.1-0.6,0.1-0.6,0.1
			c-1.4,2.7-5.1,3.3-7,3.2c-0.7-0.1-0.4,0.9-0.3,1.2c0.3,1.4,1.9,4.4,4.9,9.2l0.8,0.1l-0.5,0.4c0.3,0.6,1.3,1.9,1.3,1.9l0,0.4
			c0,0,1.6,2.3,2.5,3.4c0.1,0.1,0.2-0.1,0.3,0c0.5,0.6,1.1,1.3,1.6,1.8c0,0-0.1,0.2,0,0.3c0.9,1,2.8,3.1,2.8,3.1l0.4-0.1l1.4,1.6
			c11.9-5.5,24.3-17.6,24.2-17.6l0.1-26.1l-14.1,0l-0.1-34.6l14.1,14.1l-0.1-4c-3.2-3.1-16-16.2-16-16.2c1.9-0.3,3.7-0.9,5.4-1.8
			c3.1,1.7,6.3,2.7,10.1,2.2l0-3.8c-4.3,0-6.9-1.4-8.8-3.2l-2.6-0.1c-4.9,3.7-8.3,2-12,1.3l-2.5-3.7l26.1-0.1l-0.2-9l-4,0.1
			l-2.6-1.9l3,1.3c0,0,0-0.5-0.6-1.4c-1.6-2.7-3.7-6.6-4.9-10c-0.6-1.7-0.6-1.7-0.1-2.7c0.7-1.4,0.5-3.1-0.4-4.1
			c-0.6-0.7-0.6-0.8-0.4-1.3c0.8-2-1.2-2.7-1.2-2.6C3771.6-685.1,3765.7-686.9,3765.8-686.9L3765.8-686.9z M3776-686.2
			c0.9,0,1,0.4,1,1c-0.1,1.2-1.6,1.6-2.3,1.8c-3.4,0.8-9.2,0.3-9.6-1.3c-0.3-1.2,0.4-1.8,2.8-1.2
			C3771.7-685,3774.1-685.9,3776-686.2z M3765.2-682.8c0.3,0,0.8,0.4,0.9,0.9c0.1,0.5-0.4,2-0.8,2.3c-1.1,0.8-2-0.5-1.3-1.9
			C3764.3-682.3,3764.7-682.8,3765.2-682.8z M3776.6-682.7c0.2,0,0.4,0,0.6,0.2c0.8,0.6,0.9,2.7,0.1,3c-0.8,0.3-1.6-0.5-1.5-1.9
			C3775.9-682.2,3776.2-682.7,3776.6-682.7z M3774-682.2c0.2,0,0.4,0,0.5,0.1c0.7,0.3,1,2.5,0.3,3.2c-0.5,0.5-1.7,0.5-2-0.6
			C3772.4-680.9,3773-682.2,3774-682.2L3774-682.2z M3768-682.2c1,0,1.3,2.3,0.3,3.3c-0.8,0.8-2.1,0-1.7-1.6
			C3766.7-681.3,3767.2-682.1,3768-682.2z M3770.9-681.8c1.5,0.3,1.4,4-0.6,3.6C3769.2-679,3769.2-681.7,3770.9-681.8z
			 M3764.3-677.8l2.1,0.2c-0.1,0-3.4,7.2-6.4,9.1C3761.7-671.3,3763.2-674.6,3764.3-677.8z M3777.1-677.7c1.2,3.4,2.5,6.8,4.2,10.2
			c-2.6-2.5-4.9-6.4-7-10.1L3777.1-677.7z M3767.1-677.4l1.4,0c0.5,2.2,1.3,3.6,2.2,4.8c0.8-1.4,1.4-3,1.9-4.6l1.1,0
			c0.4,0.3-1.3,6.8-3,7.6C3768.9-671.1,3767.3-675.2,3767.1-677.4z M3766.5-675.9c-0.1,0.2,2.2,5.8,4.1,7.6c1.8-1.8,3-4.2,3.8-7.1
			l6.1,8.6l-5.9-4.1c-1.2,2-2.4,3.9-3.9,5.5c-1.6-1.8-3-3.9-4.5-5.9c-2.3,1.7-3.9,3.5-6.8,5.2C3759.3-666,3765.1-672.4,3766.5-675.9
			z M3765.9-669.7l4.1,5.1l-11-0.2L3765.9-669.7z M3774.9-669.6l6.9,4.8l-10.3,0.1L3774.9-669.6z M3719.6-667.3c0,0,0.1,0.3,0.1,0.5
			c1.2,5.1,4.6,9.3,9.7,8.8l-16.8,17c0,0-2.8-9.5-8.4-19.3c0,0,1,0.2,1.8,0.4c0.8,0.1,1.3,0.1,1.9-0.1c0.4-0.1,0.8-0.3,1.1-0.4
			c0.6-0.1,1.5,0.1,1.9,0.3c1.2,0.2,1.9-0.4,3.4-1.7c0.4-0.3,0.5-0.3,1-0.3c1.8,0,3-1.6,2.8-4l-0.1-1.1l-0.2,1.2
			c-0.4,2.3-0.7,3.3-3,3.4c-0.5,0-0.7,0.4-1.6,1.1c-1.2,1-2.1,1.1-2.9,0.7c-0.9-0.4-1-0.2-1.8,0.2c-0.9,0.5-2.3,0.4-3.5,0
			c-1.7-0.5-1.5-0.3-1.5-0.3c10,18,13.5,35.3,13.3,50.7c-0.3,21.9-7.9,39.5-14.5,50.2c0,0,1.1-0.1,2.1-0.3c0.5-0.1,0.9,0,1.3,0.2
			c0.5,0.2,0.8,0.2,1.2,0.1c0.3,0,1.2,0,1.7,0.1c1.2,0.2,1.3,0,2.6-1.3c3.8-3.7,3.5-3.6,6.3-3.5c4.1,0.1,7.4,2.9,8.8,7.4
			c0.2,0.6,0.4,1.4,0.4,1.4l-0.3-1.2c-1.2-6-6.3-8.2-10.5-8.1l17.8-18.1c-0.1,0,4.1,13.8,7.8,19.9c0,0-1.1-0.5-3.2-0.2
			c-1.1,0.1-2.4,0-3.1-0.1c-0.9,0-1.5,0.2-2.6,1.2c-0.5,0.4-0.9,0.8-1.8,1.2c-2.2,0.9-3,1.9-3,4.3c0,0.4-0.1,1-0.1,1.2
			c0,0.1,0,0.2,0,0.2c0,0,0.1-0.1,0.1-0.2c0.1-0.2,0.3-0.6,0.5-1.6c0.3-1.8,0.7-2.4,2.4-3.2c0.5-0.2,1.6-0.9,2-1.3
			c1.6-1.3,2.1-1.5,3.3-1.2c0.7,0.2,1.3,0.3,2.3,0.1c1.1-0.1,1.2-0.2,2.4,0.1c0.8,0.2,1.9,0.4,1.9,0.4c-17.3-35.2-16.7-67.8,0.3-101
			c0,0-5,0.1-5.3,0.2c-0.1,0-0.7,0-1.4-0.1c-1.4-0.3-1.1-0.1-4.3,3.2c-4,4.1-10.4,0.8-12.3-6c-0.1-0.4-0.2-0.6-0.3-0.8
			C3719.8-667.1,3719.6-667.3,3719.6-667.3L3719.6-667.3z M3736-663.2c0.7,0.1,1.3,0.3,1.2,1l-23.8,23.6l-0.4-1.5L3736-663.2z
			 M3741-663.1c-0.3,0.6-1.1,1.3-1.4,1.9l1.3,1.6l-0.7,1.3l-2-1.7l-3.8,3.8l3.2,3.6l-3,3.1l-1-1.1l1.6-1.7l-2.5-2.3l-4.3,4.3
			l3.5,3.6l-2.6,2.5l-1-1l1.4-1.5l-2.3-2.4l-4,4.2l3.2,3.6l-2.5,2.5l-1.1-1.1l1.2-1.3l-2.3-2.4l-4.1,4.1l3.3,3.7l-2.4,2.2l-0.9-0.9
			l1.2-1.3l-2.2-2.4l-2.5,2.3l-0.4-1.6l25.2-25.4L3741-663.1z M3742.4-662.7l-1.1,2.2l-0.8-0.9l1.1-1.1L3742.4-662.7z M3683-662.6
			c-0.7,0.2-15.6,8.6-24.2,17.9l0,3.5l-0.3,0.4l0.2,5.4l0.2,0.3l0.1,2.2l-0.3,0.6v6l0.5,0.1l0.1,7.4l14,0l0,35.1
			c0,0-8.2-9.2-14.2-14.6l0,4.1l15.7,16.5c-1.1,0.2-2.5,0.4-4.6,1.6c-5.1-3.2-11-2.2-11-2.2l0,4.2c3.7-0.4,7.1,0.2,11.1,2.8
			c3.2-2.2,7.1-3.6,13-1.8c1.3,2.1,2.6,4.2,3.8,5.6l-27.8,0.2l0,8.5c1.2,0,4.3,0,4.3,0c1.6,3.1,4.6,7.3,5.9,12.7
			c-1.8,2.1-1.6,3.9,0.1,6c0,1-0.3,2,0.8,3.1c3.5-1.8,7.5-1,10.5-0.1c1,0.3,1.4-0.9,1.4-2.3c-0.1-0.8-0.1-1.2,0.5-1.8
			c1.5-1.3,0.6-4.1,0.3-4.1c-0.1-2.4,7.5-14.4,7.5-14.2l-1.5,0.6l-6.5,0c17-16.6,24.1-35.6,22.6-57.1c-0.3-5.4-1.2-7.9-1.2-7.9
			c-6,2.7-10.9,4.7-15.7,9.9l-0.3-11.2c0.3,0.5,2,1,2.8,0.3c0.5-0.4,0.6-0.7,0.1-2.1c-0.7-2-0.9-6.2-0.4-7.6c0.1-0.2,0.1-0.6,0.2-1
			c0.1-0.6-0.1-0.6-0.1-0.6c0.1,0,0.7,0.1,0.8,0c2-1.8,4.2-3,6.9-3.1l0.1-1.3c-2-5.1-3.7-7.1-5.5-10c0,0-0.5-0.2-0.8-0.1l0.4-0.4
			C3690-655.3,3686.4-659,3683-662.6C3683-662.6,3683-662.6,3683-662.6L3683-662.6z M3682.9-661.9l1.8,1.7
			c-8.6,4.2-17,10.3-25.4,18.6l0.1-3.1C3668.9-653.6,3676-657.9,3682.9-661.9L3682.9-661.9z M3738-658.8l1.1,1.1l-1.5,1.8l1,1
			l-0.5,1.3l-2.5-2.6L3738-658.8z M3684.4-658.7c0.6,0,1,0.5,1,1c0,0.6-0.5,1-1,1c-0.6,0-1-0.5-1-1
			C3683.4-658.2,3683.9-658.7,3684.4-658.7z M3757.9-657.2c17.5,19.8,8.5,48.5-14.8,55.4l-0.3-1.6c23.6-8.1,29.1-35,13.8-51.9
			L3757.9-657.2z M3687.5-657.1l1.1,1.3c-10,4.8-19.7,12.1-29.1,22.5l-0.1-2.6C3668.2-645.3,3677.7-652.2,3687.5-657.1L3687.5-657.1
			z M3681-656.7c0.6,0,1,0.5,1,1c0,0.6-0.5,1-1,1c-0.6,0-1-0.5-1-1C3680-656.2,3680.5-656.7,3681-656.7z M3677.9-654.8
			c0.6,0,1,0.5,1,1s-0.5,1-1,1c-0.6,0-1-0.5-1-1S3677.4-654.8,3677.9-654.8z M3688.3-654.1c0.6,0,1,0.5,1,1c0,0.6-0.5,1-1,1
			c-0.6,0-1-0.5-1-1C3687.3-653.6,3687.7-654.1,3688.3-654.1z M3732.7-653.4l1,1.1l-1.6,1.7l2.3,2.4l2.2-2.2l-1.1,3.2l-19.6,19.9
			l-0.4-2.1l1.5-1.6l-2.4-2.4l-0.4-1.6l2.3-2.2l1,1l-1.4,1.6l2.2,2.2l4-3.7l-3.3-3.7l2.7-2.7l0.9,0.9l-1.3,1.4l2.3,2.5l4.1-4
			l-3.3-3.6l2.7-2.7l1,1l-1.4,1.7l2.3,2.3l4-4l-3.3-3.5L3732.7-653.4z M3674.9-652.7c0.6,0,1,0.5,1,1s-0.5,1-1,1c-0.6,0-1-0.5-1-1
			S3674.3-652.7,3674.9-652.7z M3691-652.5l0.8,1.3c-11.9,6.1-20.1,12.2-32.2,26.2v-1.8C3668.9-638.4,3678.7-645.9,3691-652.5
			L3691-652.5z M3685-652.3c0.6,0,1,0.5,1,1s-0.5,1-1,1s-1-0.5-1-1S3684.5-652.3,3685-652.3z M3776.9-651.9c2.1,1.9,6.5,3.8,9.3,3.6
			l0.1,2.3c-4.9,0.5-9.3-2.7-9.3-2.7c-3.8,2.4-7.7,2.7-11.7,1.6l-1.6-3.4C3769.7-647.7,3775.4-650.4,3776.9-651.9L3776.9-651.9z
			 M3753.2-651.3c0.2,0.4,1,0.9,1,0.9c4.6-1.2,6,3.6,3.9,6.4l0.6,2c0.8,0.2,1.5,0.4,2.1,0.9c1.1,0.8,1.7,2.2,1.6,3.6
			c0.2,1.6-2.1,3-2.3,2.9l0,2.2c0.6,0.5,1.4,1.1,1.9,1.8c1.1,1.9,0.7,3.8-1,5c-1,0.7-2.1,0.8-2.2,0.7l-1.1,2.5
			c0.9,0.5,1.2,1.5,1.3,2.1c0.3,1.4-0.7,3.3-1.9,3.9c-1.6,0.9-3.7,0.1-3.7,0.1l-1.5,1.5c0.4,1.3,0.5,2.1,0.3,2.9
			c-0.5,1.9-2.5,2.7-4.1,2.5c-1.3-0.1-2.2-1-2.2-1l-1.7,0.7c0,0,0,2.2-0.8,2.8c-0.3,0.3-1.2,0.9-1.2,0.9l-0.2-1.5
			c0.7-0.5,1.1-1.7,0.9-2.5l3.6-1.8c0,0.1,1,1.1,1.7,1.2c1.4,0.3,2.8-0.8,2.8-2.1c0-0.8-0.4-1.3-0.5-1.9l3.1-3.2
			c1.3,0.4,2.2,0.5,2.7,0.2c1.1-0.6,1.4-1.9,1.2-2.7c-0.2-0.9-1.1-1.5-1.1-1.6l1.7-4.4c0.8,0,1.3-0.1,1.9-0.5
			c1.3-0.8,1.1-2.5,0.6-3.3c-0.7-1-1.6-1.1-1.7-1.1l0.1-4.6c0,0,1.7-0.8,1.9-1.9c0.3-1.5-0.3-2.5-2.2-2.9c-1-0.2-1,0-1,0l-1.4-4.1
			c2.3-1.4,1.6-3.6,0.4-4.4c-1.2-0.8-2.9-0.1-2.9-0.1s-0.8-0.8-1.4-1.4L3753.2-651.3z M3692.4-650.5c1.5,2,4,6.1,5.4,9.8
			c0.1,0.2,0,1,0,1c-4,0.4-5.4,2-6.9,3.1c-1.1-0.6-1.6-1.3-3.6,0c0,0.1-5.1-3.1-6.1-7.5C3684.9-646.4,3688.4-648.6,3692.4-650.5z
			 M3671.9-650.4c0.6,0,1,0.5,1,1c0,0.6-0.5,1-1,1c-0.6,0-1-0.5-1-1C3670.9-650,3671.3-650.4,3671.9-650.4z M3681.6-650.2
			c0.6,0,1,0.5,1,1c0,0.6-0.5,1-1,1c-0.6,0-1-0.5-1-1C3680.6-649.8,3681-650.2,3681.6-650.2z M3751.6-648.9
			c1.8,2.4,4.4,6.8,5.1,10.8c0.9,5.5,0.3,11.4-2.2,15.4c-4.5,8.7-12.4,10.5-12.4,10.9l-0.1-1.8c0.1,0.4,6-2.1,10.1-7.9
			c2.5-3.9,3.9-9.5,3.4-13.8c-0.3-6.3-4.7-12-4.7-12.1L3751.6-648.9z M3668.7-648.1c0.6,0,1,0.5,1,1c0,0.6-0.5,1-1,1
			c-0.6,0-1-0.5-1-1C3667.7-647.6,3668.1-648.1,3668.7-648.1z M3678.4-648.1c0.6,0,1,0.5,1,1s-0.5,1-1,1c-0.6,0-1-0.5-1-1
			S3677.8-648.1,3678.4-648.1z M3765.7-646.3c2.3,0.2,5,4.4,7.6,6.8l0,34.1l-7.5,0.2c-1,2.4-3.3,4.8-6.9,7.1V-611
			C3771.3-624.4,3767.9-639.2,3765.7-646.3L3765.7-646.3z M3665.9-645.9c0.6,0,1,0.5,1,1c0,0.6-0.5,1-1,1c-0.6,0-1-0.5-1-1
			C3664.9-645.5,3665.3-645.9,3665.9-645.9z M3675.2-645.8c0.6,0,1,0.5,1,1s-0.5,1-1,1c-0.6,0-1-0.5-1-1S3674.7-645.8,3675.2-645.8z
			 M3771-645.7l15.4,15.8l-0.1,2.3l-17.4-17.9L3771-645.7z M3680.9-644.2l0.4,2c-0.5-0.8-0.5-1.1-1.4-1.2L3680.9-644.2z
			 M3672.5-643.6c0.6,0,1,0.5,1,1c0,0.6-0.5,1-1,1c-0.6,0-1-0.5-1-1C3671.5-643.1,3672-643.6,3672.5-643.6z M3663.3-643.3
			c0.6,0,1,0.5,1,1s-0.5,1-1,1s-1-0.5-1-1S3662.7-643.3,3663.3-643.3z M3750.1-643.3l3,2.2l-1,3.9l-3.1-2.8L3750.1-643.3z
			 M3679.7-643l0.5,0.3l-0.6,2.7l-7,2.6C3674.9-639.4,3677.2-641.5,3679.7-643L3679.7-643z M3680.9-641.7c0.5,2,1.6,5,2.9,7.5
			c-0.9,0.5-4.1,2.3-4.1,3.2c0.5,1.6,3.9,3,3.9,3c-1.3,2.1-2.5,4.6-3.5,7.5c-0.6-1-0.7-5,0.6-6.6c-1.2-0.5-2.9-1.6-4.2-2.8
			c0.8-3,4.4-4.8,4.5-4.8C3680.8-634.6,3679.8-641,3680.9-641.7z M3669.5-641.2c0.6,0,1,0.5,1,1c0,0.6-0.5,1-1,1c-0.6,0-1-0.5-1-1
			C3668.5-640.8,3668.9-641.2,3669.5-641.2z M3747.6-641.2c4.6,8.6,1.8,16.1-5.4,21.4l0.2-2c5-3.7,8.3-11,4.6-17.9L3747.6-641.2z
			 M3660.8-640.9c0.6,0,1,0.5,1,1s-0.5,1-1,1c-0.6,0-1-0.5-1-1S3660.3-640.9,3660.8-640.9z M3733.7-640.9
			c-3.3,12.6-3.3,18.4-3.6,21.9l-13,0.1l-0.5-4.6L3733.7-640.9z M3681.8-640.5c0,0,2.8,2.7,5.3,5l-0.3,0.6l-2.5,0.3
			C3682.5-638.4,3681.8-640.5,3681.8-640.5z M3679.5-639.1L3679.5-639.1l0.2,1.9c-0.8,0-10,3.8-17,10c1-1.9,2.8-3.7,4.5-5.2
			C3670.9-636,3679.5-639.1,3679.5-639.1L3679.5-639.1z M3666.6-638.7c0.6,0,1,0.5,1,1c0,0.6-0.5,1-1,1c-0.6,0-1-0.5-1-1
			C3665.5-638.2,3666-638.7,3666.6-638.7z M3672.3-637.5l0.5,0.5l-2.4,1.3L3672.3-637.5z M3689.2-637c0,0,0.1,0,0.1,0
			c0.4,0,0.5,0.2,0.7,0.4c-0.5-0.1-0.9-0.2-1.4-0.1C3688.7-636.8,3688.9-636.9,3689.2-637L3689.2-637z M3679.9-636.6l0.2,1.4
			c-5.2,3-11.5,5.9-20.6,14.6v-2.9C3665.3-628.8,3671.9-633.3,3679.9-636.6L3679.9-636.6z M3687-636.4c0.3,0.1,0.6,0.1,0.9,0
			c0,0-0.2,0.4-0.4,0.4C3687.2-636,3687-636.4,3687-636.4L3687-636.4z M3689.2-636.3c0.7,0,1.1,0.6,1,1.4c-0.5,2.7-0.5,5.4,0.1,7.3
			c0.4,1.5,0.5,2,0.2,2.2c-3.1,2.2-4.8-7.6-2.2-10.4C3688.5-636.2,3688.9-636.3,3689.2-636.3L3689.2-636.3z M3663.9-636
			c0.6,0,1,0.5,1,1c0,0.6-0.5,1-1,1s-1-0.5-1-1C3662.9-635.5,3663.4-636,3663.9-636z M3752.8-635.8l1.9,3.3l-2.7,3l-1.6-3.5
			L3752.8-635.8z M3686.6-634l-0.1,1.1c-1.4,0.4-2.6,1-3.6,1.9c-0.2,0.2,3.2,1.7,3.6,1.4l0,1.2c0,0.4-5.6-1.4-6-2.7
			C3681.1-632,3684.6-634.1,3686.6-634L3686.6-634z M3661.2-633.4c0.6,0,1,0.5,1,1s-0.5,1-1,1s-1-0.5-1-1S3660.7-633.4,3661.2-633.4
			z M3676.4-632.2c-0.4,0.8-1,1.8-1.1,2.9c-3.8,2.4-7.7,4.6-12.5,10l-2.6,0l-0.1-0.7C3665.4-625.1,3671.1-629.5,3676.4-632.2
			L3676.4-632.2z M3686.3-631.9l0,1.4c-0.9,0-1.4-0.3-2-0.6C3684.8-631.4,3685.3-631.8,3686.3-631.9L3686.3-631.9z M3715.1-631.7
			l0.7,0.8l-0.4,0.4L3715.1-631.7z M3676.3-628.8l1.4,0.9c-3.6,1.9-7.5,4.8-10.8,8.5h-2.8C3667.7-623.2,3671.5-626.7,3676.3-628.8z
			 M3751.9-627.7l0.3,3.9l-3.6,2l0.1-4.1L3751.9-627.7z M3684.2-627.7l2.4,0.3l0.3,1c-2.1,1.3-3.8,2.9-5.5,4.5
			C3682-624,3683.1-626,3684.2-627.7L3684.2-627.7z M3678.4-627.3l1,0.5l-0.4,1.8c-3,1.4-5.4,3.2-7.9,5.6h-2.9
			C3670.7-622.1,3674.9-625.5,3678.4-627.3L3678.4-627.3z M3687.5-625.6C3687.5-625.6,3687.5-625.6,3687.5-625.6l0.4,11.9
			c-10.6,12.6-10,24.7-6.9,35.7l-2-0.1c-2.3-3-5.5-6-5.5-6l0-34.7l7.3,0C3682.5-622.7,3687.2-625.6,3687.5-625.6L3687.5-625.6z
			 M3678.9-623.9l0.1,1.6c-1.5,0.9-2.8,1.9-3.9,3h-2.7C3674.2-621.1,3676.1-622.9,3678.9-623.9z M3703.7-623.1l0.4,1.9
			c-24.5,9-29,35.2-14.5,53.2l-1,1.1C3672-585.1,3679.3-614.7,3703.7-623.1z M3679-621.3c0,0,0.1,1.4,0.2,1.9h-2.7
			C3677.1-620.1,3677.6-620.8,3679-621.3z M3748.1-620.7l-1.6,3.7l-4.2,0.1l1.9-3.7L3748.1-620.7z M3721.4-618.1h3.8v3.7h-3.8
			V-618.1z M3704.7-617.7l0.1,1.6c-1.7,0.9-1.3,2.3-1.7,2.3c-1,0.3-3.8,1.8-3.8,1.8c-1-0.9-2.3-0.7-2.9-0.2c-0.9,0.6-1,1.9-0.8,3
			l-2.9,3.5c-1.4-0.6-2.8-0.6-3.5,0.4c-0.8,1.1-0.5,2.4,0.8,3.9l-1.6,4.2c-0.2-0.2-2.9,0.5-2.9,2.2c0,1.7,2.2,2.8,2.2,3l-0.1,4.6
			c-0.1-0.2-2.3,0.7-2,2.9c0.3,2,3,1.8,3,1.9l1.5,4.4c-0.1-0.1-2,1.8-0.8,3.5c1,1.5,3.8,0.5,3.8,0.4l0.8,1.1l-0.9,1
			c0,0-0.4-0.5-0.6-0.4c-1.6,0.3-3.5-0.1-4.4-1.4c-1.2-1.9,0.1-4.8,0.6-4.8l-1-2.5c-1.9,0-3.4-1.7-3.5-3.1c-0.2-2.9,2.2-4.2,2.2-4.2
			l0.1-2.7c-0.1,0.2-2.4-1.4-2.3-3.2c0-1.3,1.1-2.9,2.5-3.5c0.4-0.2,1-0.5,1-0.5l0.9-2.2c0,0-1.3-1.9-1-3.8c0.6-2.9,4.4-2.7,5-2.4
			l1.7-2.2c-0.9-2,0.6-4.4,2.6-4.7c0.9-0.1,3.3,0.4,3.3,0.4l2.2-1.2C3702.2-616.2,3703.5-617,3704.7-617.7L3704.7-617.7z
			 M3717.4-613.7h3.3v3.7h-3.3V-613.7z M3726.2-613.7h3.7v3.7h-3.7V-613.7z M3705-612.7l0,1.4c-21.3,10.5-12.6,32.1-9.5,34.7
			l-0.7,1.5C3691-577.4,3681.4-602.4,3705-612.7L3705-612.7z M3721.4-608.9h4l0,3.8h-4L3721.4-608.9z M3704.1-607.1l-1.3,3.5
			l-3.9,0.3l1.4-3.5L3704.1-607.1z M3783.9-604.5l2.7,0c-5,5.9-10.4,10-15.7,12.2c0,0,0-0.5,0.1-0.9c0.1-0.3-0.1-1.2-0.1-1.2
			C3776.8-597.4,3780.9-600.8,3783.9-604.5L3783.9-604.5z M3770.2-604.5c-0.7,0.8-1.5,1.6-2.4,2.1l-0.4-2.2
			C3768.2-604.5,3770.2-604.5,3770.2-604.5z M3774.9-604.5c0.3,0.7-7,4.7-7,4.3l0-1.3l3.9-3L3774.9-604.5z M3776.5-604.5
			L3776.5-604.5l2.1,0c-1.9,3-11.6,8.3-11.2,7.6l0.4-2.2C3770.9-600.5,3773.7-602.4,3776.5-604.5L3776.5-604.5z M3779.9-604.5l2.7,0
			c-4.1,5.2-8.2,7.1-12.1,9.4c-0.2,0-0.1-0.1-0.9-0.1l-1.4-1.1C3768.5-596.1,3777.4-601.3,3779.9-604.5z M3704.5-604.3l-0.1,1.6
			c-5.7,5-8,11.3-5,18.6l-0.7,1.6C3695.5-590.4,3696.4-598,3704.5-604.3L3704.5-604.3z M3730.3-604.1l0.3,4.3l-17.6,17.4
			c2.7-9.7,3.4-15.6,4.1-21.7L3730.3-604.1z M3786.7-603.1l0,2.4c-6.9,7.8-14,11.3-20,12.7l-0.1-0.9l2.8-1.8
			C3778.4-594.7,3782.4-598.7,3786.7-603.1L3786.7-603.1z M3765.7-603c0.1,1.7-1.4,4.9-3.1,6.8l-2.9,0l-0.3-1.3
			C3761.7-598.9,3764-600.7,3765.7-603L3765.7-603z M3766.5-602.5c1.1,1.8-0.5,6.3-0.6,6.1c-0.1,0.3,9.2,2.3-0.4,7
			c0.2,1.4,1.1,4.3,0.4,6.2c-0.2-0.7-1.9-5.4-3.2-6.6c3-0.9,5.2-2.7,4.9-3.3c-0.5-0.9-1.8-1.9-4.1-2.7
			C3765.5-598.6,3766.1-600.7,3766.5-602.5L3766.5-602.5z M3697.8-601.7l0.3,3.6l-3.4,2.1l-0.3-3.9L3697.8-601.7z M3757.3-598.3
			c0.3,0,0.5,0.1,0.6,0.2c1.7,0.7,1.8,9.1,0.3,9.9c-1.1,0.7-1.9-0.4-1.9-0.6c0.7-3.8,0.3-6.2,0-8.9
			C3756.3-598.1,3756.8-598.3,3757.3-598.3L3757.3-598.3z M3786.7-598.2v3c-9.9,10.5-20.6,18.7-31.6,23.3l-1-1.7
			C3767.5-579.8,3778.6-588.7,3786.7-598.2z M3785-597.9c-4.6,6.5-10.2,10.7-17.9,12.7l-0.1-1.8
			C3776.5-589.3,3785.2-597.9,3785-597.9z M3659.8-596.9c6,6.2,12.1,12.4,18.2,18.8l-2.4,0.1l-15.9-16.7L3659.8-596.9z
			 M3731.1-596.6l0.2,1.5l-1.7,1.9l2.8,3l0.1,0.7l-2.4,2.5l-1.1-1.1l1.3-1.5l-2.2-2.4l-4.1,4l3.4,3.7l-2.6,2.5l-1-1.1l1.3-1.5
			l-2.3-2.4l-4.2,4.2l3.2,3.6l-2.1,2.4l-1-1.1l1.1-1.3l-2.3-2.4l-4,3.9l3.3,3.7l-2.7,2.7l-1-1l1.5-1.7l-2.5-2.4l-2,1.9
			c0,0,0.8-1.9,0.9-2.2c0.2-0.5,0.8-0.8,5-5C3721-586.3,3726.1-591,3731.1-596.6L3731.1-596.6z M3759.9-595.5c1.5,0,4,0.4,5.2,1
			c2.2,1.2,1.5,2.1,0.1,2.9c-1.7,0.8-3.2,1.3-5.1,1.3l0.1-1c1.1-0.3,2.3-0.6,3.3-1.1c0.7-0.4,0.9-0.7,0.9-0.7s-0.7-0.7-1.8-1.1
			c-0.8-0.3-1.9-0.3-2.5-0.4L3759.9-595.5z M3694.3-594.2l1.8,2.8l-2.2,3.7l-2.1-3.2L3694.3-594.2z M3731.5-593.9
			c0.1,0.5,0.7,2.6,0.4,2.2l-1.2-1.4L3731.5-593.9z M3760-593.7c1,0.1,2.1,0.1,2.8,0.5c-0.9,0.7-1.8,0.8-2.8,1L3760-593.7z
			 M3785.6-592.3c0.6,0,1.1,0.5,1.1,1.1s-0.5,1.1-1.1,1.1c-0.6,0-1.1-0.5-1.1-1.1C3784.4-591.7,3784.9-592.3,3785.6-592.3z
			 M3728-590.3l1,0.9l-1.2,1.5l2.2,2.4l2.8-2.6l0.4,1.7l-25.9,25.8l-1.4-0.1l1.6-2l-1.9-1.9l0.8-1.4l2.2,2l4-3.9l-3.3-3.5l2.8-2.9
			l1.1,0.9l-1.6,1.8l2.3,2.4l4.2-4.2l-3.3-3.7l2.6-2.6l1,0.9l-1.2,1.3l2.4,2.5l3.6-3.8l-3.2-3.6l2.9-2.8l0.9,0.9l-1.3,1.5l2.4,2.5
			l3.9-4.1l-3.2-3.5L3728-590.3z M3783-589.6c0.6,0,1.1,0.5,1.1,1.1s-0.5,1.1-1.1,1.1c-0.6,0-1.1-0.5-1.1-1.1
			S3782.3-589.6,3783-589.6z M3761.9-589.6c1.8,2.1,2.8,4.4,3,6.9c-1.4-2.2-3.2-4.1-5.5-5.7l0.4-1L3761.9-589.6z M3786.7-589.4v2.5
			c-7.8,9-17.3,15.8-27.1,20.5l-1.7-2C3769.5-573.6,3777.9-580.1,3786.7-589.4z M3775.2-587.6l-3.2,2.5v-1.1L3775.2-587.6
			L3775.2-587.6z M3758.8-587.4c2.7,1.3,5,3.6,6.3,7c-3.7,2.4-7.7,4.3-11.6,6.2c-1.9-3-3.7-5.9-5.2-9.8c6,0,7.6-3.3,7.6-3.4
			C3757.4-586.9,3757.7-586.9,3758.8-587.4L3758.8-587.4z M3780.2-587c0.6,0,1.1,0.4,1.1,1.1c0,0.6-0.5,1.1-1.1,1.1
			c-0.6,0-1.1-0.5-1.1-1.1C3779.3-586.6,3779.8-587,3780.2-587z M3772-586.2l0,1.1c-1.5,1.4-4.5,3.5-4.5,3.5l-1.2-0.1l0.4-3.1
			C3768.6-585.1,3770.4-585.7,3772-586.2L3772-586.2z M3694.2-586.1l2.9,2.4l-0.9,3.8l-2.9-2.2L3694.2-586.1z M3733.4-585.4l0.3,1.1
			l-24,24l-1.4-0.2L3733.4-585.4z M3777.6-584.4c0.6,0,1.1,0.5,1.1,1.1s-0.5,1.1-1.1,1.1c-0.6,0-1.1-0.5-1.1-1.1
			S3777-584.4,3777.6-584.4z M3786.4-584.4c0.1,0,0.3,0,0.3,0.1v2.1c-0.1,0-0.2,0.1-0.4,0.1c-0.6,0-1-0.5-1-1.1
			S3785.8-584.4,3786.4-584.4z M3783.7-581.9c0.6,0,1.1,0.5,1.1,1.1s-0.5,1.1-1.1,1.1c-0.6,0-1.1-0.5-1.1-1.1
			S3783.1-581.9,3783.7-581.9z M3774.4-581.9c0.6,0,1.1,0.5,1.1,1.1s-0.5,1.1-1.1,1.1c-0.6,0-1.1-0.5-1.1-1.1
			S3773.8-581.9,3774.4-581.9z M3766.3-581.6l1.1,0l-2.1,1.3C3765.7-580.7,3766.1-581.1,3766.3-581.6L3766.3-581.6z M3786.7-581
			l0,2.3c-5.5,5.6-12.4,11.3-23,16.9l-1.3-1.4C3771-567.4,3779.1-573.2,3786.7-581L3786.7-581z M3771.2-579.8c0.6,0,1.1,0.5,1.1,1.1
			s-0.5,1.1-1.1,1.1c-0.6,0-1.1-0.5-1.1-1.1S3770.6-579.8,3771.2-579.8z M3781.1-579.7c0.6,0,1.1,0.5,1.1,1.1c0,0.6-0.5,1.1-1.1,1.1
			c-0.6,0-1.1-0.5-1.1-1.1S3780.5-579.7,3781.1-579.7z M3670.1-575.1c3.8-2.2,6.8-2.5,11.2-1.8l1.3,2.6c-4.2-0.8-8.7-0.7-12.5,2.3
			c-3.9-2.5-6.9-3.3-10.2-2.8l-0.1-2.7C3664.1-578.3,3667.8-576.8,3670.1-575.1z M3768.1-577.6c0.6,0,1.1,0.5,1.1,1.1
			c0,0.6-0.5,1.1-1.1,1.1c-0.6,0-1.1-0.5-1.1-1.1C3767-577.1,3767.5-577.6,3768.1-577.6z M3778.3-577.1c0.6,0,1.1,0.5,1.1,1.1
			s-0.5,1.1-1.1,1.1s-1.1-0.5-1.1-1.1S3777.7-577.1,3778.3-577.1z M3764.8-575.5c0.6,0,1.1,0.5,1.1,1.1s-0.5,1.1-1.1,1.1
			c-0.6,0-1.1-0.5-1.1-1.1S3764.1-575.5,3764.8-575.5z M3775.1-574.8c0.6,0,1.1,0.5,1.1,1.1c0,0.6-0.5,1.1-1.1,1.1
			c-0.6,0-1.1-0.5-1.1-1.1C3774-574.3,3774.5-574.8,3775.1-574.8z M3761.3-573.5c0.6,0,1.1,0.5,1.1,1.1s-0.5,1.1-1.1,1.1
			c-0.6,0-1.1-0.5-1.1-1.1S3760.7-573.5,3761.3-573.5z M3772.2-572.5c0.6,0,1.1,0.5,1.1,1.1s-0.5,1.1-1.1,1.1
			c-0.6,0-1.1-0.5-1.1-1.1S3771.5-572.5,3772.2-572.5z M3758-571.7c0.6,0,1.1,0.5,1.1,1.1s-0.5,1.1-1.1,1.1c-0.6,0-1.1-0.5-1.1-1.1
			S3757.4-571.7,3758-571.7z M3708.7-570.7l2.8,2.6l-2.9,2.9l-1-1l1.6-1.7l-1.1-1.5L3708.7-570.7z M3769.1-570.4
			c0.6,0,1.1,0.5,1.1,1.1s-0.5,1.1-1.1,1.1c-0.6,0-1.1-0.5-1.1-1.1S3768.5-570.4,3769.1-570.4z M3765.9-568.5c0.6,0,1.1,0.5,1.1,1.1
			c0,0.6-0.5,1.1-1.1,1.1s-1.1-0.5-1.1-1.1C3764.8-568,3765.3-568.5,3765.9-568.5z M3762.4-566.6c0.6,0,1.1,0.5,1.1,1.1
			s-0.5,1.1-1.1,1.1c-0.6,0-1.1-0.5-1.1-1.1S3761.8-566.6,3762.4-566.6z M3705.1-563.4l0.9,0.7l-1.4,1.7l-1.1,0L3705.1-563.4z
			 M3687.6-558.7c-3.2,1.6-4.7,2.6-6.9,4.5l-3.2-4.4L3687.6-558.7z M3666.1-558.7l8.4,0.1l-2.8,4
			C3669.8-556.5,3668-557.9,3666.1-558.7z M3676.1-558.3c0.9,0.3,3.3,3.7,4.4,5.6c2.4-1.9,4.7-4.1,7.3-5.3c-3,3.3-5.7,6.6-7.6,9.9
			c-0.5-1.5-2-5.7-3.9-7.5c-3,2.8-4.2,6.3-4.2,6.3c-1.6-2.8-3.5-5.6-5.8-8.2c-0.4-0.5,2.7,1.4,5.8,4.5
			C3673-555.1,3675.3-558.2,3676.1-558.3z M3666-556.1c1.4,1.2,5.4,6.3,5.8,9.4l-1.9,0.1C3668.9-549.8,3667.2-552.9,3666-556.1
			L3666-556.1z M3686.9-555.6c-1.4,3-3.2,6-4.5,9.3l-1.9-0.1C3682.6-550.9,3683.4-551.7,3686.9-555.6z M3676.2-554.2
			C3676.3-554.2,3676.3-554.2,3676.2-554.2c1.8,2.5,2.6,4.8,3.2,7.7l-1.4-0.1c0,0-1-2.9-1.6-3.9c-0.4-0.6-0.8-0.5-1.1,0
			c-0.7,1.2-0.9,2.5-1.3,3.8l-1.6-0.1C3672.2-549,3675.7-554.2,3676.2-554.2z M3676-545.8c0.6,0,1.3,0.7,1.3,1.9
			c0,0.6-0.4,1.9-0.9,1.9c-0.9,0.5-1.9-1-1.7-2.3C3675-545.3,3675.4-545.8,3676-545.8z M3672.9-545.6c1.3,0.1,1.5,3,1,3.6
			c-0.6,0.6-2.1,0.2-2.3-0.9C3671.1-544.2,3672-545.6,3672.9-545.6z M3679.1-545.6c1.4,0.2,1,3.4,0.3,3.8c-1.1,0.6-1.9-0.4-1.6-1.9
			C3678.2-544.9,3678.6-545.6,3679.1-545.6z M3682.3-545.1c1.6,0.2,0.7,3,0,3.5c-1,0.8-2-0.4-1.5-1.8
			C3681.2-544.4,3681.8-545.1,3682.3-545.1L3682.3-545.1z M3669.6-545c1.1,0.2,1.8,2.8,1.1,3.6c-0.4,0.4-1.4-0.2-1.9-0.9
			C3668.3-543.2,3668.8-545,3669.6-545z M3681.8-539.3c0.1,1.4-0.9,1.4-3.9,0.7c-1.5-0.3-4.1-0.1-5.5,0.1c-2.3,0.4-2.6,0.3-2.6-0.7
			c0-1.1,1.3-1.7,4.2-1.8C3676.2-541,3681.5-541,3681.8-539.3z M3686.4-540.1c-3.5,0.3-4.5,4.8-4.1,6.5c0.3,2.8,0.2,5.7-0.3,7.6
			c-0.4,1.4-0.7,2.8-1.3,4.1c-0.9,1.9-0.7,3.3,0.7,4c1.1,0.6,2.5,0.4,3.4-0.5c1.6-1.7,1.8-5.4,0.8-13.6c-0.3-2.9-0.2-3.5,1.2-3.3
			C3689.7-535.5,3689.6-540.1,3686.4-540.1L3686.4-540.1z M3686-536.3c-0.8-0.3-1.3,0.4-1.2,2.2c0,0.8,0.2,1.7,0.3,2.4
			c1.1,7.9,0.7,13.3-1.7,13.5c-2.1,0.3-3.5-1.2-2.5-2.8c0.6-0.9,1.1-1,2.2-0.6c1.5,1,1.2-0.4-0.2-1.5c-0.9-0.6-1-0.6-0.5-2.6
			c0.6-2.7,0.9-4.6,0.6-8c-0.3-2.4,0.5-5.6,3.5-5.8C3689.5-539.6,3688.6-535.2,3686-536.3L3686-536.3z M3664.3-525.8
			c1,0.5,2,0.4,2.9,0c0.4-1.7,0.4-3.1,1.5-5.4c-1.9-1.9-5-1.1-5.9,0.8C3662-528.4,3662.8-526.6,3664.3-525.8L3664.3-525.8z
			 M3667.3-531.7c1.1,0.2,1,1.4-0.1,1.1c-2.5-1.2-4.6,2.4-2.6,3.8c1,0.6,1.5,0.3,0.5-0.6c-0.4-0.5-0.3-0.7-0.1-1.2
			c0.5-1,2.5-0.8,2.3-0.1c-0.4,2.3-0.7,3-1.4,3C3662-525.5,3661.3-533,3667.3-531.7L3667.3-531.7z M3700.7-527.6
			c0,0-11.7,13.5-17.4,20.3l70.8-0.3l-13.5-18.9C3729.1-523.7,3715.5-524.5,3700.7-527.6z M3700.4-523.3c1.8,0,3.8,1.3,5.5,5.7
			c0.1,0,7.8-11.8,14.4,0.5c1.1-2.8,7.4-10,14.6-0.7c2.6-6.2,8.5-4.1,9.1-1.9c-0.1-0.5-5.7-1.8-8.1,2.3c-0.4,0.9-0.5,1.7,0,2.2
			c1.2,1.2-0.1,2.8-1.5,1.9c-0.5-0.4-0.6-1.1-0.2-1.7c1.2-0.9-1.3-3.7-3.3-4.8c-2.8-1.4-6.7-0.8-8.5,1.2c-1,1.1-1.6,2-1.8,2.8
			c-0.1,0.4,0,0.5,0.2,0.8c0.8,1,0.3,2.3-0.8,2.2c-1.4-0.2-1.2-1.6-0.3-2.3c0.3-0.1,0.2-0.3,0.1-0.6c-2.6-7.5-12.4-6.1-13.4-0.9
			c0,0.2-0.1,0.4-0.1,0.6c0.1,0.5,0.4,0.9,0.3,1.3c-0.4,1.6-2.4,1.1-2.5-0.2c0-0.6,0.6-0.8,0.9-1.3c0.2-0.3,0.3-0.8,0.1-1.1
			c-2.6-5.6-7.2-4.4-9.4-3.2C3695.7-520.6,3697.8-523.3,3700.4-523.3L3700.4-523.3z M3697.5-520c1,0,1.8,0.4,2.7,1.4
			c2.8-1.5,4.7,1.1,4.4,1.3c-3.9-2.6-5.2,3.4-1.3,3.2c-1.7,3.6,4.4,5.1,3.7,0.5c3.7,1.3,4.4-3.9,0.6-3.8c1.2-2.2,4.4-1.6,5.8-0.2
			c1.6-2,5.5-0.1,5.9,1.6c-4.4-2.3-4.8,4.7-0.6,3.2c-1.2,4.4,5.5,3.8,3.6,0c4.2,1.4,3.6-4.9-0.5-3.7c-0.2-0.3,3.2-4,5.8-0.6
			c0.3-0.6,4.3-2.6,6.5,0.5c-4.7-1.6-3.8,4.8-0.4,3.5c-0.9,4.3,5.2,3.6,3.6-0.1c4.7,1.2,2.6-6.1-0.7-3.4c0.5-2.9,4.5-1.7,4.5-1.3
			c0,0,2.1-2.3,4.5-0.6c-3.7,0.3-2.4,5.4,1,3.9c0,1.7,1.4,2.8,3.3,2.3l3,4.2l-67.8,0.4l5.4-6.6c1.8,1.5,3.7,0.8,3.9-1.6
			c3.9,2.5,5-3.4,1.3-3.6C3696.1-519.7,3696.8-520,3697.5-520L3697.5-520z M3693.7-518.1c0.2,0.2-0.1,1-0.6,0.7L3693.7-518.1z
			 M3746.5-516.4c0.2,0.3,0.3,0.5,0.5,0.8C3747.2-515.4,3746-515.8,3746.5-516.4z"/>
		<path id="path163-0-2-5-8-7-5-6-5-5" fill="#D40000" d="M3681.8-671.3c0,0-3.7-6.1-8.7-13.3c-3.4-4.8-6-10-6.3-14.5
			c-0.3-5.1,2.4-10.3,7.3-10.5c4.9-0.2,6.9,3.9,7.7,7.4c0.8-3.5,2.8-7.7,7.7-7.4c4.9,0.2,7.6,5.4,7.3,10.5
			c-0.2,4.5-2.9,9.7-6.3,14.5C3685.5-677.4,3681.8-671.3,3681.8-671.3L3681.8-671.3z"/>
		<path id="path163-0-2-5-8-7-7-8-9-1-8" fill="#D40000" d="M3764.3-551.4c0,0-3.7,6.1-8.7,13.3c-3.4,4.8-6,10-6.3,14.5
			c-0.3,5.1,2.4,10.3,7.3,10.5c4.9,0.2,6.9-3.9,7.7-7.4c0.8,3.5,2.8,7.7,7.7,7.4c4.9-0.2,7.6-5.4,7.3-10.5
			c-0.2-4.5-2.9-9.7-6.3-14.5C3768-545.3,3764.3-551.4,3764.3-551.4L3764.3-551.4z"/>
	</g>
</g>
</svg>
