<?xml version="1.0" encoding="utf-8"?>
<!DOCTYPE svg PUBLIC "-//W3C//DTD SVG 1.1//EN" "http://www.w3.org/Graphics/SVG/1.1/DTD/svg11.dtd">
<svg version="1.1"
	 id="svg7218" xmlns:rdf="http://www.w3.org/1999/02/22-rdf-syntax-ns#" xmlns:dc="http://purl.org/dc/elements/1.1/" xmlns:cc="http://creativecommons.org/ns#" xmlns:svg="http://www.w3.org/2000/svg"
	 xmlns="http://www.w3.org/2000/svg" xmlns:xlink="http://www.w3.org/1999/xlink" x="0px" y="0px" width="178.6px" height="249.4px"
	 viewBox="0 0 178.6 249.4" enable-background="new 0 0 178.6 249.4" xml:space="preserve">
<g id="layer1" transform="translate(3.9027881e-5,-740.55114)">
	<g id="g6583" transform="matrix(0.99999718,0,0,1.000002,-3633.7258,1123.8043)">
		<path id="rect7467-2-2" fill="#FBFBF6" stroke="#7F7F7F" stroke-width="0.4" d="M3642.6-382.9h160.8c4.7,0,8.5,3.8,8.5,8.5
			v231.6c0,4.7-3.8,8.5-8.5,8.5h-160.8c-4.7,0-8.5-3.8-8.5-8.5v-231.6C3634.1-379,3637.9-382.9,3642.6-382.9z"/>
		<path id="path7499-2-5" d="M3647.8-343c-3.4,4.4-7.1,6.9-7.2,10.3c0,1.1,0.6,3,2.7,3.3c1.4,0.2,3.2-0.8,3.3-2.7
			c0-0.4,0.5-0.4,0.5,0.2c-0.1,1.6-0.6,3.4-1.6,4.9c1.5,0,3,0,4.5,0c-0.9-1.5-1.5-3.3-1.6-4.9c0-0.5,0.5-0.6,0.5-0.2
			c0,2,1.9,3,3.3,2.7c2.1-0.4,2.8-2.2,2.7-3.3C3655-336.1,3651.3-338.6,3647.8-343L3647.8-343z"/>
		<path id="path7503-7-0" d="M3798.2-174.1c-3.4-4.4-7.1-6.9-7.2-10.3c0-1.1,0.6-3,2.7-3.3c1.4-0.2,3.2,0.8,3.3,2.7
			c0,0.4,0.5,0.4,0.5-0.2c-0.1-1.6-0.6-3.4-1.6-4.9c1.5,0,3,0,4.5,0c-0.9,1.5-1.5,3.3-1.6,4.9c0,0.5,0.5,0.6,0.5,0.2
			c0-2,1.9-3,3.3-2.7c2.1,0.4,2.8,2.2,2.7,3.3C3805.3-180.9,3801.6-178.4,3798.2-174.1L3798.2-174.1z"/>
		<path id="path39-5-1-0" d="M3648.5-348.4h2.6l-3.9-9.7l-3,4.1l0,5.6h2.1v2.9h-7.3v-2.9h2.4v-20.9l-2.4,0v-2.5h7.5v2.6h-2.1l0,10.2
			l6.5-10.3h-2.3v-2.5h7.9v2.5h-2.1l-5.4,8.4l5.2,12.5h2.3l0,2.9h-8.2L3648.5-348.4L3648.5-348.4z"/>
		<path id="path39-5-7-0-0" d="M3797.6-168.7h-2.6l3.9,9.7l3-4.1l0-5.6h-2.1v-2.9h7.3v2.9h-2.4v20.9l2.4,0v2.5h-7.5v-2.6h2.1l0-10.2
			l-6.5,10.3h2.3v2.5h-7.9v-2.5h2.1l5.4-8.4l-5.2-12.5h-2.3l0-2.9h8.2L3797.6-168.7L3797.6-168.7z"/>
		<path id="path4096-2-4-0" fill="#131F67" d="M3657.7-363.8h130.6v210.5h-130.6V-363.8z M3750.4-154.6
			c-4.9-8.9-12.5-23.3-12.8-23.4c-2.8,1.5-31.8,5.4-45.7,1.6c-4.8,7.2-9.4,14.3-13.6,21.5L3750.4-154.6z M3706-181.1
			c-0.7,0-1.5,0.5-1.4,0.1c0.1-0.2,0.3-2.5,0.4-3.3c0.2-0.4,0.5,0.6,0.5,1.5c0,0.5,0.2,0.1,1.9,0.2c1.8,0.1,3.2,0.4,3.8,0.6
			c2.1,0.5,6.2,0.1,7.9-1.1c0.9-0.7,1.3,0.1,0.3,0.8c-4.4,3.4-7.9,2.1-11.7,1.5C3707.1-181,3706.6-181.1,3706-181.1z M3707.8-184.3
			c-0.3-0.2-0.5-0.2-0.8,0c-1.4,0.6-1-0.3,0-1.2c0.4-0.4,0.4-0.6,0.1-1.1c-0.2-0.2-0.5-0.2-0.4-0.6c0.3-1.4,2.3-3.6,4.5-4.6
			c0.9-0.4,1.1,0-0.1,0.7c-1.8,1.1-2.4,2-1.4,1.6c2-0.7,3.8-0.2,6.4,1.1c0.7,0.4,1.1,0.4,1.7,0.4c0.5-0.4,0.9,0.1,1.2,0.3
			c0.2,0.1,0.2,0.2,0.4,0.2c1.5-0.3,0.6,0.6-1.4,2C3714.4-182.9,3710.6-181.7,3707.8-184.3L3707.8-184.3z M3713.3-183.7
			c1.5-0.4,3.2-1.4,4.3-2.3c1.3-1.2,0.6-1-0.9-0.3c-2.2,1.1-3.7,1.4-6.2,1.3c-2.1,0-2-0.1-2.1,0.1
			C3708.1-183.9,3711-183,3713.3-183.7z M3709.3-187.2c0.1-0.4,0.2-0.9,0.1-1.1c-0.2-0.3-0.6-0.1-1.1,0.6c-0.3,0.4-0.3,0.5,0,0.8
			c0.2,0.1,0.3,0.2,0.4,0.2C3709.1-186.5,3709.2-186.9,3709.3-187.2L3709.3-187.2z M3710.2-186.7c0.6-2.2,2.1-2.1,3.1-0.1l0.7,0
			c-1.5-4-4.3-2-4.4,0C3709.9-186.6,3710.2-186.7,3710.2-186.7z M3715.5-187c0.7-0.4,0.6-0.6-0.3-1.1c-0.6-0.3-0.9-0.4-1-0.2
			c0,0.4,0,1.1,0.3,1.4C3714.7-186.7,3715.1-186.8,3715.5-187z M3706.1-193.2c-0.1-0.2-0.1-0.6,0.4-0.8c2.9-1.3,0.8-4.2-1.4-2
			c-0.7,0.6-1.8,0.9-2.6,0.5c-0.8-0.3-0.8-1.3,0.2-1.5c0.3-0.1,1.2-0.2,1.5-0.5c3.9-2.1,5.9,2.4,3.2,3.9
			C3706.8-193.2,3706.2-193,3706.1-193.2z M3695.3-197.3c-1.6-0.7-1.8-3.2-0.3-4.2c0.9-0.6,1.9-0.8,4.5,0.5c1.8,0.9,2.9-0.1,2.8,1
			c0,0.6-0.1,1.3-1.1,1.4c-1.7,0.3-2.9-2.1-5.1-1.9c-1.6,0.2-1.4,2.1-0.2,2.5C3697.3-197.5,3696.4-196.9,3695.3-197.3L3695.3-197.3z
			 M3724.1-197c-0.3,0.1-0.4-0.5-0.3-0.8c0.8-1.9,1.5-3.3,2.2-5.1c0.6-1.4,0.9-2,1.2-2c0.3,0,0.4,0.2-0.1,1.1
			C3726.5-202.1,3724.1-196.8,3724.1-197z M3711.2-197.4c-0.7-0.5-0.6-1.2,0.2-0.7c1,0.7,2.7-0.6,2.3-1.8c-0.4-1.5-2.4-1.9-4-0.5
			c-2.6,2.1-5.5,2.2-5.5,0.6c0-0.5-0.1-0.6,1-0.7c1.3-0.1,2.7-0.7,3.4-1.1c3.2-1.9,6.6-0.6,5.9,2.6
			C3714.2-197.5,3712.4-196.7,3711.2-197.4z M3699.6-202.2c-0.3,0-0.7,0.3-0.9,0.2c-0.3-0.2-0.2-0.8-0.4-1.4c-0.4-1.1,0-0.8,0.7-0.5
			c0.9,0.4,1.8,0.3,2.6,0c0.8-0.3,1.9-0.2,3.5,0c1.4,0.2,2.1,0.1,3.4-0.2c1.3-0.4,1-0.3,0.8,0.6c-0.1,0.5-0.3,1.3-0.5,1.4
			c-0.9-0.5-1.6-0.3-2.2,0c-1,0.4-1.7,0.5-2.5,0.3c-0.8-0.4-1.2-0.4-1.8,0C3701-201.3,3700.5-202.2,3699.6-202.2L3699.6-202.2z
			 M3719.5-204.5c0.2-0.3,0.5-0.8,0.7-1.3c2.1-4.1,2.2-5.3,0.7-6.6c-2-1.9-3.6-1.1-5.5,2.7c-0.5,0.9-0.7,1.6-0.9,1.9
			c-0.2,0.3-0.5,0.1-0.6-0.1c-0.2-0.2,1.9-4.2,2.7-5c2.1-2.3,6.1-0.5,5.9,2.6c-0.1,1.5-0.4,2.4-1.8,5.2c-0.3,0.7-0.7,1.3-0.8,1.6
			C3719.2-203.1,3719.3-204.2,3719.5-204.5L3719.5-204.5z M3700-204.7c0.3-1.5,5-2.1,6.2-0.2c0.1,0.2,0,0.2-0.5,0
			c-2.4-0.8-2.9-0.7-5.1,0.2C3700.3-204.6,3700.1-204.5,3700-204.7L3700-204.7z M3717.9-204.9c0-0.1,0.2-0.7,0.4-1.2
			c1.6-3.1,2-3.8,1.5-4.4c-0.9-1.1-2.2-0.1-3.3,3.1c-0.4,1.2-0.7,1-0.9,0.8c-0.4-0.4,1.4-4.1,2.2-4.7c1.9-1.2,3.5,0.2,2.6,2.7
			c-0.7,1.1-1.2,2.9-1.8,3.8C3718.3-204.5,3717.9-204.6,3717.9-204.9L3717.9-204.9z M3710.9-210c-0.1-0.2,0.1-0.4,0.8-1.8
			c0.9-2,1.2-2.7,0.8-3.9c-0.7-2-3.2-2.5-4.7-1.2c-0.5,0.4-0.8,1-1.1,1.5c-0.6,1.2-1,2.8-1.3,3.2c-0.3,0.3-0.7,0.3-0.7-0.2
			c0.4-1.1,0.5-1.9,1.4-3.5c2.1-4.7,8.3-2.5,6.9,2.4c-0.5,1.8-1.2,3.1-1.5,3.6C3711.3-209.5,3710.9-209.7,3710.9-210z M3709.5-210.8
			c0-0.2,0.2-0.6,0.5-1.2c1-2.6,1.1-3.4-0.5-3.4c-0.9,0.1-1,0.5-1.8,2.5c-0.3,0.7-0.4,1.1-0.6,1.3c-0.2,0.2-0.5,0.1-0.6,0
			c-0.3-0.3,1.1-3.7,1.9-4.3c1.7-1.5,4,0.6,2.9,2.6c-0.5,1.3-0.9,2.3-1.2,2.7C3709.8-210.3,3709.5-210.4,3709.5-210.8z
			 M3672.6-241.1l-5.3-0.4c0.9,5.7,1,11.9,0,16.3c-0.8,3.8-0.8,6.6-0.6,9.8c0.3,3.8,1.9,7,2.3,11.1c0.3,2.9-0.4,6-0.9,8.9
			c-1,4.9-0.8,5.4-0.6,11.1c0.1,5.3-0.4,5.1-0.7,4.8c0,0-0.1-1-0.1-2.1c0-1.1-0.1-3.8-0.1-5.7c-0.1-3.8,0.3-7.1,0.6-8.5
			c0.6-2.8,1.3-5.7,0.9-8.8c-0.9-3.9-2.1-7.8-2.5-11.6c-0.5-4.6,0.8-9.3,1.2-12.7c0.4-3.3,0-8.9-0.9-11.2c-0.1-0.8-0.8-1.8-0.8-1.8
			c-0.8-0.1-1.6-0.2-2.7-0.2c-0.1,22.3,0,44.7,0,67l4.9,4.6l5-4.8L3672.6-241.1z M3673-215.4c0,0,7.5,4.3,15.7,8.6
			c-0.8-4.9,1.7-5.6,4-6.2c-0.6-9.4,8-7.5,9.3,0.7l0.8,0c1.5-4.1,3-6.9,6.3-7.6c2.6-0.5,5.2,1.1,5.9,5.1c-0.1-0.3,8.7-5.2,8.9,5.2
			c4-2.5,6.9-0.3,8,2.8c1.7-2.6,5.9-2.7,7.3-2.9c0.5-0.5,1.3-0.9,2.8-0.8c1.3-0.1,3-1,3.9,0.1c1.4,0.2,2.4,0,3.6,0.9
			c0.9,0.7,2,2.3,3.5,1.2c2.9-1.4,6.2-2.1,8.9-3.8c0,0-0.7-0.9-0.5-0.8c0.1,0,0.4,0.5,0.9,0.7c0.2,0.1,1.8-0.9,1.8-0.9
			c-10.9-12.7-19.9-37.4-14-60.3c0.2-0.4-0.5-0.5-0.8-0.7c0.1-0.2,1.7,0.1,1,1.5c-0.7,4.4-1.5,9.1-1.6,12.8c0,0.4,0,0.8,0,0.8
			c24.5,11.4,21.5,36,15.2,44.6l1,1.3c0.4,0.3,19.3-10.8,18.7-11.2l3.6-1.8l-0.6-48.3l-14.1-1.1c0,0,0.2-0.4,0.3-0.5
			c0.1-3-0.1-7.3,0-11c0.1-10.4,0.2-14,0-14.3c-4.4-2.9-10.8-7.1-16.3-9.1c0.2,0.1-0.1,4.3-0.3,4.6c-5.1,1.6-2.7,3.7-4.6,6
			c-1.3,1.4-4.2,1.7-5.7,0c-1.7-1.7-2.5-5.5-2.5-5.5c-2.7,2.9-2.1,6.4-5.8,7.7c-5.8,2.9-7.7-5.8-7.3-5.6c-2.2,2.2-8.5,3.9-9.2-5.2
			c-2.8,2.6-6,1.3-7.3-1.9c-1.7,0.1-3.6,1.4-5.4,2.1c-1.6,0.7-3.7,1.1-5.2,1.1c-1.9,0.2-3.5,0.2-5.2-0.3c-0.8,0.3-2.6-0.5-3.2-1.7
			c-0.9-1-1.6-1.1-2.4-0.9c-2.8,1.5-5.8,1.8-9.1,3.4c-0.2,0.1,0.3,0.4,0.1,0.4c-0.1,0-1.7,0.8-1.7,0.8
			c16.7,22.1,17.6,44.4,14.1,60.2c-0.1,0.5-0.2,0.9,0.1,1.4c-0.5-0.1-0.5,0.1-0.6-0.3l1.7-13.3c0.1-1.6,0.2-1.5-1.2-2.1
			c-1.3-0.6-2.5-1.1-3.6-1.7c-4.1-3-8.7-6.8-10.9-11.4c-6.4-10-4.3-22,0.5-31.5l-1.2-1.2c-14,7.1-22.3,14.7-22.3,14.7l0.1,47.4
			l14.4,1.7L3673-215.4z M3666-247.1c-0.5-0.5-1.6-0.6-2.1-0.2c-0.1,0.1-0.4,0.6-0.4,0.6c-0.7-0.2-1.1-0.3-1.2-0.9l0.7-1.1
			c0.5-0.8,1.3-1.1,2.7-1.4c0.5-0.1,1.2-0.2,1.4-0.3c1-0.4,1.3-1.4,0.3-1c-0.7,0.2-1.8,0.1-1.9-0.5c-0.1-0.6-0.6-0.8-1.1-0.7
			c-1,0.2-1.9,0.7-2.7,1.3c-0.4,0.2-1.1,0.8-1.1,0.8c-0.1,0.2-0.5-1.1-0.1-1.5c0.5,0.1,0.9,0.1,1.4-0.1c1.2-0.5,2.3-1.1,3.5-1.5
			c0.8-0.3,0.8-0.3,0.6-0.8c-0.1-0.2-0.2-0.9-0.1-1.2c0.1-0.4,0.1-0.6-0.1-0.7c-0.5-0.4-1.8,0-3.7,0.9c-0.6,0.3-0.9,0.4-1.3,0.7
			c0.2-0.6,0.1-0.7,0.1-1.3c0.7,0.1,1.4-0.2,2-0.5c0.5-0.3,1-0.5,2.4-0.7c0.4,0,0.2-1.4-0.2-1.8c-0.4-0.4-1.2-0.4-2.2-0.1
			c-0.9,0.2-2,0.4-2.6,1.4c-0.8,0.7,0-1.2,1.4-2c0.6,0,2-0.3,2.3-0.4c0.5-0.1,0.6-1.4-0.2-2c-0.5-0.4,1.8-0.5,1.8-0.3
			c0,0.1-0.1,0.6,0.1,0.8c1,0.3,1,1.1,1.1,1.5c1.1,1.9,1.7,0.7,2.5,0.1c-0.2,4.1,1.3,4.6,1.5,4.8c-2,3.7-0.5,3.8,1.4,4.6
			c0,0-0.7,0.3-1.2,0.3c-0.7,0-2.1,0.8-2.8,1.3c-0.3,0.3-0.3,0-1.7,0c-1.3,0-1.4,0.1-2,0.3c-1.1,0.5-1.1,1,0,0.8
			c1.2-0.2,2.4,0.5,2.5,1.5c0.1,0.2,0,0.5,0,0.5c-0.2,0-0.8,0-0.8-0.1C3666.2-246.3,3666.2-246.8,3666-247.1L3666-247.1z
			 M3667.8-252.1c0.3-0.2,0.4-0.8,0.1-1c-0.3-0.2-1.3-0.1-1.7,0.2C3665.5-252.4,3666.8-251.5,3667.8-252.1L3667.8-252.1z
			 M3668.5-254.6c0.4-0.3,0.5-1.1,0.1-1.5c-0.6-0.7-2.1-0.3-2.2,0.6C3666.3-254.4,3667.6-253.9,3668.5-254.6z M3668-258
			c0.1-0.8-0.7-1.3-1.5-1c-0.9,0.5-0.4,1.5,0.8,1.4C3667.9-257.5,3667.9-257.5,3668-258z M3665.2-261.3c-0.4,0.2-0.5,0.7,0,1.1
			C3666.8-259.4,3666.3-261.8,3665.2-261.3z M3778.7-256.4c-0.7-2.6-2.7,0-2.7,0c-0.1-2.7,0.4-3.9-1.6-4.8c2-3.1,1.6-3.5-0.5-4.7
			c0.2,0,2.9-0.6,3.3-2.1c0.1,0.1,4.2,1.1,4.7-1.2c-1.2,0.6-3.6,0.6-3.7-1.8c0.2-0.1,0.8,0,0.8,0.1c-0.3,1.5,2.5,1.9,2.9,0.7
			c0,0,0.9,0.6,1.3,0.7c0,0-1.3,1.9-2.5,2.1c-2.2,0.7-2.9,0.9-2.9,1.3c0,0.2,0.4,0.2,1,0.3c1.3,0.1,1.3,0.4,1.5,0.8
			c0.2,0.4,0.3,0.5,0.8,0.4c1.5-0.5,2.3-0.8,3.4-1.9c0.1,0,0.3,1.1,0.4,1.2c0-0.2-1.1,0.1-2.8,1.1c-1.4,0.8-1.9,0.9-2.1,1.1
			c-0.1,0.2,0.2,0.7,0.2,1.2c0,0.5-0.3,0.7-0.1,0.8c0.3,0.2,0.7,0.1,1.2,0c1.2-0.3,2.1-0.8,3.1-1.4c-0.2,0.4,0.2,1.5,0.2,1.5
			s-0.5-0.4-1-0.2c-0.8,0.4-2.2,0.9-2.6,1c-0.4,0.1-0.5,0.1-0.6,0.2c-0.2,0.1-0.1,0.5-0.1,1c0,0.4-0.1,0.7,0.1,0.8
			c0.5,0.2,1.5,0.1,2.5-0.2c0.4-0.2,1.4-0.7,1.4-0.7l-0.3,1.5c-0.4-0.4-1.5-0.1-2.3,0.2c-0.4,0.1-0.5,0.4-0.6,0.7
			c-0.2,0.6,0.2,1,0.6,1.1c0.3,0.1,0.7,0.1,0.7,0.1c-1.9,0.7-1.6,1-2.7,0.5C3779.4-255.2,3778.9-255.7,3778.7-256.4L3778.7-256.4z
			 M3780.8-256.4c-0.3-0.4-0.9-0.6-1.2-0.4c-0.3,0.2-0.2,0.5-0.1,0.7C3779.7-255.4,3781.4-255.7,3780.8-256.4z M3779.6-258.3
			c0.5-0.6,0-1.4-0.9-1.4c-0.6,0-0.9,0.4-0.9,0.8C3777.9-258,3779.3-257.8,3779.6-258.3L3779.6-258.3z M3778.7-260.6
			c0.8-0.2,1.1-1.1,0.5-1.6c-0.4-0.4-1.7-0.5-2.1-0.1C3776.3-261.3,3777.3-260.2,3778.7-260.6L3778.7-260.6z M3779.4-263.6
			c0.5-0.3,0.6-0.7,0.2-1.2c-0.8-0.7-2.2-0.1-1.7,0.8C3778-263.4,3778.8-263.3,3779.4-263.6L3779.4-263.6z M3678.1-286.4
			c0.7-0.3,1.3-0.9,2.1-1.3c0.5-0.3,0.4-0.2-0.3-0.6c-0.5-0.2-1.6-1.3-1.7-1.1C3678-288.9,3678-286.4,3678.1-286.4z M3696.9-259.9
			c0-0.5,0.1-1.3,0.1-1.9c0.1-1.1-0.1-0.8-0.7-0.4c-0.4,0.3-1.1,0.7-1.4,0.8c-1.1,0.5-0.9,0.6,0.6,1.3
			C3696.8-259.5,3696.9-259.5,3696.9-259.9L3696.9-259.9z M3695.5-262.5c1-0.6,1.4-1,1.4-1.7c0-0.8-0.1-1.1-0.8-0.6
			c-2.5,2-5.1-1.9-2.8-4.1c0.5-0.4,1.1-1.1,1.1-1.3c0-1.3-1.4,0-2.5,1.7c-1.3,1.6-2.1,3.5-0.9,5.4
			C3691.8-261.6,3693.8-261.4,3695.5-262.5L3695.5-262.5z M3689.8-265c0-0.6,0.1-1.3,0.2-1.5c0.3-0.7,0.3-0.8-1-0.2
			c-0.5,0.2-1.1,0.3-1.3,0.3c-1,0-0.8,0.3,0.7,1.6C3689.9-263.6,3689.9-263.5,3689.8-265L3689.8-265z M3693.3-271
			c0.2-0.4-0.2-0.5-0.5-0.5c0,0-0.6,0.4-1.2,0.9c-1.9,1.5-3.4,1.7-4.3,0.5c-1-1.2-0.6-2.6,1.6-4.2c1-0.7,1.2-0.8,0.7-1.1
			c-0.4-0.2-0.4-0.2-1.8,0.7c-2.8,1.9-3.6,3.2-3.3,5.1c0.1,0.8,0.5,1.2,0.9,1.5C3688.1-265.6,3691.8-268.8,3693.3-271z
			 M3696.1-269.9l-0.2-2.6c-2.8-2.5-5.5-6.6-6.4-10.1c-0.9-3.1-0.2-9.5,0-9l-1.5-2.9c-1.3,3.1-1.9,7.8-0.5,12.6
			C3688.7-277.9,3691.2-272.9,3696.1-269.9L3696.1-269.9z M3684.2-271.4c0.9-1.7,0.9-1.5-0.8-1.6c-2,0-1.8-0.3-0.6,1.4
			C3683.7-270.1,3683.5-270,3684.2-271.4z M3685.4-273.8c1.1-0.4,0.9-0.3,2.4-1.3c1.7-1.1,1.8-1.8,0.1-0.9c-2.2,1.1-4.2,0.8-4.9-0.6
			c-0.7-1.3,0.7-2.9,2.9-3.6c0.8-0.2,1.2-0.4,1.2-0.7c0-1-3.8,0.3-5.4,1.9C3678.6-276,3681.3-272.4,3685.4-273.8L3685.4-273.8z
			 M3680.5-278.4c0.1-0.2,0.4-0.5,0.6-0.9c1.1-1.3,0.2-0.9-0.8-1.2c-0.5-0.2-1-0.4-1.3-0.3c-0.6,0.1,0.2,1.2,0.4,1.9
			C3679.9-277.4,3679.9-277.4,3680.5-278.4z M3684.6-281.3c1.9-0.2,2.1-0.4,2.1-0.8c0-0.4-0.2-0.3-1.2-0.2c-2.6,0.4-4.2-0.3-4.6-1.7
			c-0.4-1.4,1.4-2.8,3.7-2.7c1.2,0,2.1-0.4,1.3-0.8c-0.4-0.2-3.8-0.2-4.6,0.1c-2.3,0.7-3.2,1.9-3,3.7c0.3,2.2,1.5,2.8,4.4,2.7
			C3683.2-281,3683.9-281.2,3684.6-281.3z M3686.1-288.4c0-0.3-0.5-0.4-2.4-0.7c-2.4-0.4-3.5-2.6-2-4c0.6-0.5,1.9-0.7,2.6-0.6
			c1.6,0.3,2.6,0.6,2.6,0.1c0-0.5-0.5-0.5-3.4-1.2c-4.5-1-7,3.5-3.4,5.7C3681.4-288.2,3686.1-287.7,3686.1-288.4z M3687.2-294.8
			c0-0.2-0.1-0.3-0.5-0.4c-0.5-0.2-0.8-0.2-2-1c-1.5-1-1.9-3-0.9-4.1c1-1-0.8-2.2-2.2-1.1c-1.4,1.2-1.3,3.1,0.3,4.6
			C3683.5-295.4,3687.2-294,3687.2-294.8z M3679.9-295.1c1.6-0.7,2.7-0.3,1.5-1.3c-0.7-0.6-1.2-2.4-1.7-0.9
			c-0.4,0.9-0.6,2.5-0.6,2.7C3679.1-294.5,3679.1-294.7,3679.9-295.1z M3735.4-298.9c-1.8-0.4-3-2.5-2.6-4.5c0.3-1.1,1.3-3.8,1.5-4
			c0.8-0.6,0.7,0.2,0,1.7c-0.7,1.5-1.2,2.7-1,3.6c0.3,1.3,0.8,2.2,2.1,2.5c0.9,0.2,1.8-0.2,2.4-0.6c0.8-0.5,1.5-2,2.4-3.9
			c0.3-0.5,0.7-2.2,1.1-1.2c0.2,0.5-1.6,4.1-2.3,5C3738-299.2,3736.6-298.6,3735.4-298.9z M3746.1-300.1c0.9,0.8,2.3,1.3,3.3,1
			c2.4-0.8,3.4-3.1,2.5-6.7c-0.5-2-0.8-3.3-1.2-3.5c-0.2-0.1-0.4,0.1-0.6,0.4c-0.2,0.2,0.1,0.6,0.4,1.6c1.1,4,0.8,5.8-0.5,6.6
			c-2,1.1-3.7-0.2-4.3-3c-0.1-0.4-0.4-1.3-0.4-1.3c-0.2-0.4-1.4-0.3-0.9,1C3744.5-303.1,3745.5-300.7,3746.1-300.1z M3756.2-310.6
			c0-1.4-3-7.5-3.2-6.9c0,0,0,1.4,0.1,2c0,0.2,0.2,0.4,0.3,0.6c2.6,4.6,2.2,7.8-0.1,8.5c-0.8,0.3-0.9,0.7-0.6,1
			c0.7,0.7,2.4-0.7,2.7-1.3C3756.4-307.7,3756.3-309.9,3756.2-310.6z M3713.4-311.6c1-1.1,3.1-4.8,3.7-6.8c2-5.8,4.1-12.5,4.7-18.8
			c0.1-0.8,0.1-2,0.1-2.1c-0.2-0.2-1.2-0.1-1.5,0.1c-0.2,0.2-0.1,0.7-0.1,1.3c-0.9,7-2.6,13.3-5,19.8c-1.1,2.8-2.1,4.7-3.4,6.6
			c-0.2,0.3-0.5,0.7-0.6,0.9c-0.3,0.5-0.1,0.8,0.3,0.6C3712.3-310.3,3712.9-311.1,3713.4-311.6L3713.4-311.6z M3710.1-309.9
			c3.1-4.3,5.3-9.4,7-15.4c1.1-3.9,2-7.9,2.6-11.9c0.1-0.9,0.2-1.4,0-1.7c-0.4-0.1-1.2,0-1.5,0.2c-0.2,0.3-0.1,0.8-0.2,1.9
			c-0.4,3-1,6-2,9.9c-2.6,8.7-5,13.6-8.2,17.9c-0.3,0.4-0.5,0.6-0.5,0.7c0,0.2,0.3,0.2,0.8-0.1
			C3708.9-308.9,3709.6-309.3,3710.1-309.9z M3705.4-307.6c1.5-0.9,4.2-4.6,6-8.6c2.1-4.8,3.9-10.1,5-14.8c0.5-2,1.2-7.1,1.1-7.5
			c-0.1-0.4-1.6-0.1-1.4,0.2c0,0-1.5,8.2-3,12.7c-2.9,8.4-5.4,14-8.2,16.8c-0.4,0.4-1.1,1.1-1.1,1.1s0,0.3,0.2,0.4
			C3704.7-307.3,3705.1-307.5,3705.4-307.6L3705.4-307.6z M3703.1-308c3.4-1.9,7.4-10.8,10.6-22.1c0.6-1.9,1.6-8.3,1.6-8.3
			s-1.4,0.1-1.6,0.3c-0.3,0.4-0.2,1.4-0.6,3.7c-1.5,7.1-3.7,13.6-7,20c-1.4,2.8-3.8,5.5-5.3,6.3c-0.8,0.4-1.1,0.9-0.5,0.9
			c1,0,1.1,0.3,1.9-0.2L3703.1-308z M3749.6-208.1c-2.5,0-4.7,2.5-6.6,5.5c-4.1,6.3-6.9,16.9-7.5,22.6l1.5-0.3
			c-0.2,0.1,2.9-15,7.6-21.4c2.6-4.1,2.5-4.1,3.9-4.5c1.8-0.5,3.3,1.5,2.4,2.7c-0.3,0.4-0.7,0.1-0.6-0.5c0.3-1.8-2.3-2.2-3.1-0.4
			c-0.9,2.1,1.4,3.9,3.7,3.1c2-0.7,2.8-3.5,1.4-5.6C3751.6-207.6,3750.6-208.2,3749.6-208.1z M3736.2-208.4c-3,3.9-4.6,7.8-6.4,13.2
			c-1.9,5.4-3.2,10.7-3.8,16.8l1.6-0.2c-0.1-3.9,4.2-22.5,10.1-29.4c0.3-0.4,0.6-0.8,0.6-0.9C3738-209.9,3736.6-208.7,3736.2-208.4z
			 M3743-209.8c-4,3.3-7.1,10.4-9.2,17c-2.2,7.1-3.3,13.6-3.1,13.6l1.6-0.2c-0.1-0.4,4.4-25.5,12.8-30.1c0.7-0.4,0.9-0.7,0.3-0.9
			C3744.4-210.5,3743.6-210.2,3743-209.8z M3747.4-209.8c-8.6,1.1-14.3,27.8-14.5,30c0,0,0,0.2,0,0.2l1.7-0.4c0,0,0-0.1,0-0.1
			c1.2-6.8,2.3-11.6,5-17.8c2.1-4.6,5-10.4,9.3-11c0.4,0,0.7,0.1,0.6-0.3C3749.3-209.7,3748-209.8,3747.4-209.8L3747.4-209.8z
			 M3696-218.2c-3.1,0.8-3.2,4.6-1.1,9.4c0.2,0.4,0.1,0.6,0.3,0.7c0.4,0.3,0.6-0.1,0.7-0.4c0.1-0.4-0.1-1-0.5-1.9
			c-1.3-3.3-1-5.3,0.3-6.1c3.3-1.7,4.1,1.8,4.6,3.4c0.1,0.4,0.2,0.9,0.4,1c0.7,0.1,1-0.1,1-0.1c0,0-0.9-3-1.4-4.1
			C3699.4-218.2,3697.3-218.6,3696-218.2L3696-218.2z M3673.4-214.6l0,39.7l-6,5.7c-2.6-2.2-5.9-5.7-5.9-5.7l0.1-67.1l-1.9-0.2
			c-0.5,28.8,0,58.3,0,87.2h17.5l14.6-23c0,0,0.2-0.3,0.2-0.4c0.2-0.4,0.2-1.1,0.1-3.6c0-1,0.1-1.8-0.1-2c-0.1-0.2-0.5-0.1-0.8,0.1
			c-0.3,0.1-0.5,0.1-0.3-0.3c0.1-0.2,0.4-0.6,0.6-1.1c0.8-1.4,1-1.8,0.7-3.3c-0.1-0.4-0.4-0.7-0.7-1.1c-2.5-3.7-3.5-9.1-2.2-13.1
			c0.4-1.8,0.2-2.1-0.6-3.5L3673.4-214.6z M3750.6-257.3c-1.6-0.8-1.6-0.8-1.6,0.8c0,1.2,0,1.5,0.5,1.3c0.6-0.3,1.4-0.6,2-0.9
			C3752.6-256.5,3751.2-257,3750.6-257.3z M3757-253.2c-1.2-1-0.8-0.9-1.1,1.4c-0.2,1.4-0.5,1.4,0.9,0.9c0.8-0.3,2.4-0.1,1.7-1
			C3758.4-251.9,3757.2-253,3757-253.2z M3706.9-218.5c-1.9,1.2-3.9,6.8-3.9,6.8c-6.7,0.8-9.5,7.4-9.8,13c-0.2,4.4-0.5,9.5-0.1,9.9
			c4.4-2,6.1,0.3,6.5-0.3c0.2-0.3-1-1.2-2.4-2c-0.3-0.2-0.9-0.5-1.1-0.7c-0.5-0.4,1.1-0.1,2.1,0.6c1.3,0.9,1.5,0.7,0.9-1.9
			c-0.6-2.8-0.7-3.1,1.4-4.3c0.9-0.4,1.3-0.8,2-1.5c0.5-0.6,0.6-0.7,0.4,0.1c-0.3,1.4-1.6,2-2.7,2.6c-0.6,0.3-0.8,0.9-0.8,1.4
			c0,0.5,0.6,3.2,0.8,4.1c0.2,0.8,0.3,1.7,0.5,2.5c0.5,2.2,0.5,2.6,0.3,4.2c-0.1,0.9-0.2,1.5-0.2,2c0,0.5,0.1,1.2,0.1,1.2
			c0,0-1.2-1.2-3.8-0.2c-1.9,0.7-3.4,0-4.4-0.6c-0.2,0.9-0.2,1.8-0.2,2.8c10.9,2,20.1,1.7,28,0.9c0.2-2.3,1.2-9.7,3.3-16.4
			c0.9-2.8,1.8-5.7,2.9-7.7c0.7-1.3,1.5-2.2,1.8-2.4c0.1-0.1,0.1-0.1,0.1-0.1v-0.2c0-0.4-0.1-1.1-0.5-1.4c-0.9-0.7-2.3,0.2-2.8,1.8
			c-0.4,1-2.3,5.2-2.4,5.1c-0.1-0.1-0.4-0.1-0.3-0.4c0.7-1.7,1.7-3.5,2.3-5c0.8-2.2,2.5-3.4,3.7-2c0.4,0.5,0.6,0.9,0.8,1.1
			c0.1,0.1,0.3,0,0.5-0.2c0.5-0.7-0.6-2.4-1.8-2.7c-1.7-0.5-3,0.8-4.9,4.8c-1.1,2.3-1.3,2.9-1.5,2.8c0,0-0.3,0-0.2-0.4
			c0.2-1,1.7-3.8,2.8-5.6c1.6-2.7,4.5-2.9,5.8-0.6c0.2,0.3,0.2,0.7,0.4,1c0.4,0.5,1,0.4,1.2-0.4c-0.2-0.5-1.2-2.5-1.9-2.8
			c-1.7-1.1-3.7-0.9-5.4,0.6c-0.4,0.3-0.8,1-1.9,3.3c-1.7,3.7-1.7,3.7-2.1,3.1c0.7-1.8,2.4-4.7,3.1-6.5c0.1-0.3,0.2-0.6,0.2-0.8
			c0-1.3,0.2-3.6-2.6-5.2c-2.3-1.3-5.4,0.1-6.4,2.6c-0.8,1.9-1.4,3.2-1.8,3.5c-0.6,0.4-0.5-0.1-0.4-0.3c0.8-1.7,1.9-3.5,2.1-5.2
			C3714.7-219.1,3710-220.9,3706.9-218.5L3706.9-218.5z M3682.6-306.5c3.7-1.7,6.2-2.6,9.9-3.7c0.5-0.2,0.6-0.3,0-1.3
			c-2.4-4.7,4.1-8.5,6.4-3.9c0.3,0.6,0.4,1,0.7,0.7c0.5-0.7,1.2-1.7,1.9-2.9c2.5-3.9,3.6-8.3,4.9-12.3c0.6-2.3,1.3-4.7,1.5-7.2
			c-4.9-8.7-13.6-24.6-13.6-24.6h-34.7v69.7C3669.3-300.2,3675.9-303.2,3682.6-306.5z M3721.6-309c0.4-0.4,0.8-1.2,2.3-4.3
			c0.3-0.6,0.7-1.4,0.9-1.8c0.2-0.7,1.1-1.2,0.7,0.1c-0.1,0.3-0.3,0.7-0.5,1.2c-0.5,0.9-1,2-1.3,2.7c-1.9,3.9-1.8,6.2,0.3,7.9
			c1.6,1.6,5,1.7,6.8-0.8c0.3-0.4,0.5-0.9,0.6-1.1c0.8-1.9,1.4-2.9,1.5-3.1c0.8-1,0.9,0.2-0.3,2.2c-1.4,2.2-1.4,4.7-0.2,6.4
			c1.8,2.5,5.1,2.6,7.2,0.6l0,0c1.1-1.3,1.9-2.9,2.6-5c0.2-0.5,0.3-0.8,0.4-1.1c0.2-0.4,0.4-0.6,1.1-0.7c4.4-0.9,8.2-5.5,8.7-10.5
			c0.1-0.7,0.3-1.9,0.3-2.6c0.1-1.4,0.1-8.8,0-9.3c-0.1-0.2-0.2-0.4-0.5-0.4c-0.2,0-0.5,0.1-1,0.2c-1.5,0.5-2.1,0.7-3.6,0.2
			c-0.5-0.2-0.8-0.2-1-0.2c-0.6,0.1,0.2,1,2,1.9c0.8,0.4,1.4,1,0.8,1c-0.2,0-2.4-1.2-2.7-1.3c-1-0.6-0.7,0.2-0.2,2.2
			c0.7,2.7,0.3,3.5-1.9,4.6c-0.4,0.2-0.9,0.6-1.2,0.9c-1.1,1.7-0.8,0.4-0.3-0.5c1-1,0.4-1.4-1.6-0.7c-2.3,0.8-3.3,0.2-4-1.1
			c-0.7-1.5,0.6-3.3,1.8-3.3c0.4,0,0.3,0.1-0.2,0.5c-0.7,0.5-1,0.9-1,1.7c-0.1,1.6,1,2.2,2.5,1.2c0.7-0.5,1.3-0.8,1.9-1
			c0.6-0.1,1.4,0.1,1.4,0.5c0,0.2,0,0.6,0,0.7c0.1,0.5,0.9-0.2,1.3-0.5c1.2-0.9,1.1-1.1,0.8-2.5c-0.5-2-0.8-3.8-1.3-5.9
			c-0.3-1.1-0.3-2.3-0.1-3.4c0.1-0.5,0.3-1.7,0.3-2.4c0-0.8,0-1.9,0-1.9c1.2,0.9,1.6,1.1,2.8,0.6c1.8-0.7,2.9-0.7,4.3,0.1
			c0.5,0.3,1,0.5,1,0.5l0.1-2.3c0,0-1.4-0.3-3.9-0.6c-7.6-1-23.2-1.2-23.8-0.3c-0.1,0.2-0.3,1.9-0.7,4.2c-0.9,4.8-2,9.5-3.3,14.1
			c-0.3,0.9-0.6,1.3-0.4,1.4c0.1,0,0.3-0.4,0.5-0.5c0.7-0.9,0.2,1.2-0.9,3.7c-0.1,0.2-0.2,0.5-0.2,0.5c0,0.1-0.7,1.9-1.2,2.9
			c-0.3,0.6-0.6,0.8-0.5,0.4c0.3-1.4,1.2-3.3,1.4-4.5c-0.8,1.1-1.9,3-2.8,4.2c-0.2,0.3,0,0.4,0.1,0.8c0.5,1.4,1.8,1.5,2.5,0.3
			c0.4-0.7,1.7-3.4,2.1-4.6c0.5-1.2,0.8-1.8,0.9-1.9c0.3-0.2,0.4,0.5-0.2,1.7c-1.6,3.5-2.3,5.4-3.1,6.1c-0.6,0.6-1.7,0.5-2.3-0.5
			c-1-1.7-1.9-1.1-0.9,0.6c1,1.8,3.1,1.9,4.3,0.3c0.4-0.5,2.1-3.9,2.7-5.3c0.3-0.8,0.6-1.4,0.8-1.4c0.6-0.2-0.1,1.5-1.8,5.1
			c-0.6,1.4-1.4,2.8-2.6,3.2c-2.9,0.6-3.3-0.9-4.3-2.7c-0.5-0.4-0.9,0.3-0.8,1c0.3,1.3,0.9,1.8,1.8,2.4
			C3718.1-306.9,3720.6-307.7,3721.6-309L3721.6-309z M3734.6-301.6c-0.3-0.6-0.2-1.2-0.1-1.8c0.3-1.3,0.8-2.5,1.4-3.6
			c1-0.5,0.2,1.4,0.1,1.6c-1.2,2.4-1.3,3.4-0.2,3.7c0.9,0.2,1.4-0.3,2.3-2.5c0.4-1.1,0.6-1.6,0.8-1.7c0.3-0.1,0.5,0,0.5,0.3
			c-0.6,1.4-1,2.9-2,4.1C3736.5-300.6,3735.1-300.6,3734.6-301.6L3734.6-301.6z M3725.9-303.5c-0.4-0.1-1.1-0.6-1.6-1
			c-1.6-1.5-1.4-3.6,0.7-7.5c0.2-0.3,0.7-1.5,0.9-1.9c0.3-0.7,0.7-0.4,0.7,0c0,0.1-0.5,1.2-1,2.2c-2.2,4.4-2.2,6.2,0,7.3
			c2.1,1,3.1,0.4,4.8-2.9c1-2.5,1.5-2.6,1.4-1.6c0,0.4-1.2,2.8-2,3.9C3728.7-303.4,3727.8-303.1,3725.9-303.5z M3726.1-305.6
			c-0.8-0.5-1.2-1.8-0.7-2.9c0.4-0.9,1.6-4.2,2.1-4.4c0.9,0,0.4,0.7-0.7,2.8c-1.3,2.7-1.2,3.5-0.2,3.9c0.9,0.4,1.3-0.4,2.7-3.6
			c0.2-0.5,0.5-1,0.7-0.9c0.2,0,0.6,0.1-0.1,1.6c-0.2,0.3-0.5,1.1-0.8,1.7C3728.2-305.5,3727.1-305,3726.1-305.6L3726.1-305.6z
			 M3741.1-311.4c-0.4-0.2-2.1-0.9-1.8-1.4c0-0.1,0.1,0,0.2,0c1.6,1.1,3.5,1.3,5.6-0.1c0.3-0.3,0.6-0.1,0.4,0.3
			C3744.8-311.5,3742.1-310.9,3741.1-311.4z M3736.1-313.2c0-0.1,0.2-0.5,0.3-0.9c0.2-0.7,0.1-1.2,0.3-1.2c0.7,0.4,2,0.4,2.6,0
			c0.7-0.4,2.1-0.6,2.6-0.2c0.7,0.5,1.1,0.3,1.6-0.1c0.6-0.5,0.6-0.3,1.6,0.1c0.8,0.3,1.1,0.5,1.4,0.4c0.1,0,0.4-0.3,0.5-0.3
			c0.2,0,0.3,0.8,0.5,1.6c0.2,0.7,0.1,0.9-0.5,0.5c-0.5-0.3-1.8-0.5-3.3,0c-1,0.3-1.3,0.2-2.1,0.1c-1.9-0.3-3.3-0.6-4.7,0.3
			C3736.1-312.7,3735.8-312.5,3736.1-313.2z M3731.3-316.8c-0.9-1.9,1.2-4.4,3.1-3.5c0.6,0.3,1.2,1.4,0.3,0.9
			c-4.3-0.9-3.2,5.5,1.4,2.1c3.1-2,5.2-2.4,5.4-0.4c-0.1,0.7-0.7,0.6-1.2,0.7c-1.3,0.2-1.7,0.4-3.2,1
			C3734.8-315.3,3732.6-314.7,3731.3-316.8z M3748-315.9c-1-0.3-2-0.7-3-0.9c-1.1-0.2-1.6-0.8-1.4-1.5c0.2-0.8,1.3-0.9,2.9,0.1
			c1.8,1.1,3.1,1.4,3.8,1c1.3-0.8,0.6-2.2-0.7-2.6c-1-0.3-0.3-0.6,0.8-0.3c1.7,0.6,1.7,3.6,0,4.3
			C3749.8-315.7,3748.8-315.7,3748-315.9z M3733.5-325.9c1.2-0.8,2.4-1.4,2.8-1.9c0.2-0.2,0.8-1,0.4-0.8c-2.5,1.5-5.4,0.3-7.4-0.8
			c-1-0.5-0.8-0.3-1.5-0.2c-0.5,0-0.9,0.1-1-0.2c0-0.2-0.3-0.1-0.5-0.1c-0.8-0.1-0.3-1.1,1.3-2.2c1.9-1.3,3.6-2.2,5.2-2.6
			c1.7-0.4,3.5-0.2,4.7,1.1c0.5,0.5,0.4,0.8,0.9,0.5c1-0.7,1,0.2,0.2,1c-0.6,0.6-0.4,0.7,0.4,1.3c0.3,0.3,0.1,0.5-0.1,0.9
			c-0.1,0.2,0,0.5-0.1,0.7c-0.2,0.8-3.8,3.6-5.1,4.1C3732.6-325,3733.1-325.7,3733.5-325.9L3733.5-325.9z M3736-331.1l-0.6,0
			c-0.7,2.1-2,2.8-3,0.3l-0.5,0C3731.9-328.6,3735.5-327.3,3736-331.1z M3732-329.1c-0.2-0.4-0.5-1.4-0.8-1.4
			c-0.7,0-1.7,0.1-1.5,0.5C3730.1-329.3,3732.3-328.7,3732-329.1z M3736.9-329.5c0.7-0.4,0.8-0.7,0.4-1.1c-0.5-0.6-0.8-0.3-1,0.6
			C3736.1-329.2,3736.2-329.1,3736.9-329.5z M3728-331c4.4-2,6-2.3,7.8-1.8c0.4,0.1,0.8,0.3,1,0.3c0.8-0.1,0.3-1-1.2-1.6
			c-1.7-0.6-2.8-0.3-6.2,1.4C3727.5-331.5,3725.9-330,3728-331L3728-331z M3740.7-333.4c-0.1-0.1-0.3-0.9-0.4-1.2s-0.1-0.6-0.2-0.6
			c-2,0.3-3.8-0.1-4.3-0.2c-3.1-0.7-6-0.6-8.2,0.3c-0.5,0.2-1.2,0.6-1.3,0.6c-0.2,0.2-0.4,0-0.4-0.2c0-0.2,1.4-1.3,2.2-1.8
			c2.6-1.3,5.4-1.5,8.4-0.7c2,0.8,3.2,0.6,4.5,0.1c0.6-0.3,0.2,0.4,0,1.3c-0.1,0.6,0,1.2,0,1.5C3741-333.4,3740.9-333,3740.7-333.4
			L3740.7-333.4z M3786.4-155.1v-69.9c-17.4,12.1-25,14.5-33.2,17.5c2.7,5.6-3.3,10.5-6.8,4.7c-3.6,4-8.5,18.2-8.6,22.9
			c0,0,9.5,16.5,14.1,24.8H3786.4z M3723-178c0.3-3.5,1.1-9.5,3.4-16.4c1-2.9,2.1-6.2,3.8-9.2c0.7-1,0.7-1.4,0-1.1
			c-0.4,0.2-2.5,2.5-2.7,3.1c-3.1,6.6-4.5,14.6-5.7,20.6c-0.3,1.4-0.3,3.1-0.3,3.1L3723-178z M3725.3-178.3
			c0.7-8.5,3.9-20.1,8.5-27.6c0.4-0.7,1-1.3,1-1.6c-0.1-0.7-1.9,0.5-3.3,2.7c-1.6,3.1-3.1,6.5-4.3,10.1c-1.7,5.2-2.9,10-3.4,16.5
			L3725.3-178.3z M3729.8-179c0.5-4.9,2-9.4,3.3-14c1.6-5.5,3.6-9.6,6-13.3c0.8-1.2,1.7-2.3,2.6-3.4c0.1-0.1,0.2-0.4,0.2-0.5
			c-0.6-0.1-1,0.1-1.4,0.3c-0.6,0.3-1.4,1.2-1.9,1.8c-3.4,4.4-5.3,9.6-7,14.8c-1.6,5-2.8,9.8-3.1,14.4L3729.8-179z M3698.9-182.7
			c0.7-0.1,1.1,0.1,1.3-0.1c0.2-0.2,0.1-0.7,0.2-1.3c0.1-1.4,0-1.3-0.8-0.4c-1.4,1.4-3.9,2-5.4,1.1c-0.8-0.4-1.3-0.7-1.4-0.4
			c-0.1,0.4,0,0.8,0.4,1C3695-182,3696.8-182.6,3698.9-182.7z M3697.3-183.8c1-0.3,1.9-0.8,2.5-1.6c0.5-0.8,0.5-0.9,0.1-0.7
			c-2,1-3.2,1.5-5,1.2c-2.4-0.4-2.5-0.1-0.9,0.9C3695.1-183.4,3695.9-183.3,3697.3-183.8z M3693.8-186.8c0.4-0.3,0.5-1.4,0.2-1.4
			c-0.3-0.1-0.7,0.5-0.8,0.9C3693-186.7,3693.5-186.6,3693.8-186.8L3693.8-186.8z M3697.5-186.9l0.6-0.1c-0.3-2.8-3.3-2.9-3.9,0.3
			l0.5,0.1C3695.3-189.1,3697.2-189,3697.5-186.9L3697.5-186.9z M3699.5-187.3c0.9-0.5,0.6-1.2-0.6-1.4c-0.8-0.2-0.8,0.5-0.3,1.4
			C3698.7-186.9,3698.8-186.9,3699.5-187.3L3699.5-187.3z M3692.4-190.7c0-0.3-0.1-0.8-0.3-1.1c-1.1-2.2-1.6-4.8-1.5-8
			c0.1-2.3,0.1-3-0.4-3c-0.7,0.3-1.1,4.6-0.2,8.2C3690.6-192.1,3692.5-189,3692.4-190.7z M3692.4-194.2c-0.1-1.2,0.2-3.9,0.1-4.5
			c-0.2-0.8-0.6-1.5-0.9-1.7c-0.4-0.3-0.5,0.3-0.4,1.7C3691.5-195.2,3692.1-192.7,3692.4-194.2L3692.4-194.2z M3692.7-200.3
			c0.3-0.5,0.2-1-0.4-2.1c-2.3-4.5-2.6-7.5-0.2-8.6c0.3-0.1,0.4-0.1,0.6-0.2c0.7-0.4,0.5-1.2-0.7-0.9c-3.1,0.9-3.7,3.8-1.1,9.2
			C3692.3-200.3,3692.5-200,3692.7-200.3L3692.7-200.3z M3693.3-202.9c0-0.2,0.1-0.9,0.2-1.1c0-0.1-0.3-0.6-0.6-1.4
			c-0.9-2.2-0.9-3.2,0.1-3.8c0.3-0.2,0.6-0.2,0.7-0.4c0.1-0.3,0.1-0.9-0.1-1c-1.4,0-2,0.8-2.2,1.6c-0.4,1.2,0,3,1.1,5.1
			C3692.8-203.2,3693.1-202,3693.3-202.9L3693.3-202.9z M3694.3-205.8c0.7-1.5,0-3.4-1-2.7c-0.6,0.4-0.7,0.9-0.3,2.1
			C3693.6-204.9,3693.8-204.8,3694.3-205.8z M3696.9-209.7c0.3-0.3,0-0.7-0.5-2.3c-0.5-1.4-0.2-2.4,0.6-2.6c1.3-0.3,1.7,1.8,2,2.6
			c0.1,0.7,0.6,0.9,1,0.4c0.1-0.1,0.1-0.2,0-1c-0.8-3.2-1.9-4.2-3.6-3.4c-1.6,0.7-1.4,2.4-0.2,5.9c0.2,0.5,0.3,0.8,0.4,0.9
			C3696.5-209.3,3696.7-209.6,3696.9-209.7z M3698.3-210.8c0.4-0.4,0.4-0.2-0.1-1.5c-0.5-1.5-0.7-1.8-1.3-1.3
			c-0.3,0.3-0.2,0.7,0.2,1.9C3697.6-210.3,3697.7-210.2,3698.3-210.8L3698.3-210.8z M3764-216.1c2.5-1.7,1.5-4.9-1.8-6
			c-0.4-0.1-0.8-0.3-1-0.4c-1.5-0.7-2.7-1-2.7-0.4c0,0.3,0.5,0.5,1.9,1.2c2.1,1.1,2.6,2.3,1.6,3.8
			C3761.3-216.7,3762.7-215.4,3764-216.1z M3766.3-219.9c0.2-0.9,0.5-1.7,0.7-2.2c0.2-0.8-0.1-0.6-0.6-0.5c-1.4,0.7-2.4,0.3-1.7,1.3
			C3765.4-219.9,3766-218.9,3766.3-219.9z M3766.1-223c1.7-1,2.1-3.7,0.5-5c-0.4-0.3-1-0.7-1.8-1c-1.6-0.5-4-0.7-4.8-0.5
			c-0.2,0.2-0.2,0.6,0,0.7c0.2,0.1,0.7,0.1,1.3,0.2c2.4,0.2,3.6,1,3.5,2.7c-0.1,1.8-1.5,2.4-4,1.9c-1.4-0.3-2-0.2-1.4,0.2
			c0.6,0.4,2,0.9,3.4,1.2C3763.8-222.5,3765.1-222.4,3766.1-223L3766.1-223z M3757.9-223.4c1.9-4.4,3-15.9-8.1-24.2l0.4,2.3
			c6.5,5.8,8.1,13.1,6.7,19.8L3757.9-223.4z M3767.7-231.3c-0.7,0.5-1.3,0.9-2.2,1.3c-0.5,0.2-0.5,0.3,0.2,0.7
			c0.3,0.2,0.9,0.5,1.1,0.8c0.4,0.4,0.8,0.6,1,0.4C3767.9-228.7,3768.1-230.9,3767.7-231.3z M3764.5-230.5c2.2-0.7,3.4-1.8,3.2-3.6
			c-0.4-2.7-2.6-3.2-6.7-2.2c-2,0.5-2.2,1.4-0.3,1c2.4-0.6,4.3,0.3,4,2.1c-0.1,1.5-1.4,2.4-3.5,2.4c-1.1,0-1.5,0.1-1.3,0.5
			C3759.9-230,3763.5-230.2,3764.5-230.5z M3760.8-236.8c3.7-1.3,5.4-3.2,4.5-5.4c-1-2.6-4.2-2.6-7.4-0.2c-1.5,1.1-1.3,1.5,0.2,1
			c1.9-0.9,3.1-1,3.9-0.3c1.4,1.3,0.5,3.4-1.7,4.2c-1,0.4-1.4,0.7-1.4,1C3758.9-236.1,3759.1-236.2,3760.8-236.8L3760.8-236.8z
			 M3766.9-236.8c0.1-0.8-0.8-3.4-1.1-2.8c-0.1,0.2-0.4,0.9-0.9,1.3c-1.3,1.1-1,0.7,0.2,1.1C3765.9-237.1,3766.8-236.6,3766.9-236.8
			z M3757.3-242.5c3.7-2.2,5.1-5.2,3.2-7.3c-1.7-1.8-4.6-0.8-7.2,2.6c-1.2,1.5-0.3,1.3,1.3-0.1c1.9-1.7,4.3-0.9,4.3,1.2
			c0,0.9-1.3,2.4-2.5,3.1c-0.4,0.2-0.4,0.6-0.3,0.8C3756.2-241.9,3756.5-242.1,3757.3-242.5z M3763.7-244.8c-0.2-0.6-1.6-3.1-1.9-3
			c-0.3,0.6-0.3,1.5-0.7,2.2c-0.5,1-0.5,0.9,1.2,0.9C3763.6-244.7,3763.7-244.6,3763.7-244.8z M3752.9-247.6
			c3.1-3.3,3.4-7.1,0.5-7.9c-1.6-0.5-4.2,0.7-4.2,1.9c0,0.8,0.1,0.9,0.8,0.6c2.7-1,4.9,1.6,2.4,4.7c-0.6,0.9-0.7,1.1-0.5,1.3
			C3752-246.8,3752.2-246.9,3752.9-247.6z M3786.4-275.4v-86.4h-18.2l-14.5,22.9l0,5.6c0,0.2,0.3,0.3,0.5,0.1c0.8-0.6,0.5,0-0.4,1.5
			c-1,1.5-0.7,2.7,0.4,4.2c2.2,3.3,3.4,9.4,2.4,12.6c-0.4,1.2-0.4,1.7-0.2,2.4c0.3,0.8,0.4,1.2,1.2,1.7c0.7,0.5,6.2,2.6,15,8.4
			l0-40.5l5.6-5.4l5.9,5.7l0.2,66.8C3784.2-275,3786.4-274.3,3786.4-275.4L3786.4-275.4z M3783.2-342.3l-4.9-4.6l-4.9,4.6
			c0,21.8,0.1,66.4,0.1,66.4l4.8,0.4c0,0,0.4-1-0.1-3.7c-0.7-4-0.6-8.8,0.5-16.1c0.7-4.5,0-8.4-1-12.5c-0.9-2.7-0.9-5.3-0.8-7.7
			c0.3-3.9,1.4-6.9,1.5-12.5c0.1-3.2-0.1-6.3,0-10.3c0-0.5,0.3-0.5,0.3,0.1c0.1,3.6,0.3,7,0.3,10.5c-0.1,4.5-1.2,9.2-1.3,13.4
			c-0.1,2.9-0.1,3.9,1.1,7.4c1.9,5.5,0.6,14,0.6,14.1c-0.8,5.4-1.4,12.4,1.3,17.6l2.6,0.2L3783.2-342.3z M3749.2-301.3
			c1.5-0.7,1.7-1.9,1-4.7c-0.1-0.5-0.3-1.1-0.4-1.4c-0.2-0.7-0.5-0.8-0.9-0.2c-0.3,0.3,0,0.4,0.4,2c0.6,2.4,0.2,3.2-0.6,3.2
			c-0.8,0-1.4-0.7-1.6-2.2c-0.1-0.5-0.2-0.9-0.3-1.1c-0.2-0.4-0.5-0.3-0.7,0.1c-0.3,0.5,0.2,2.6,0.9,3.6
			C3747.7-301,3748.2-300.8,3749.2-301.3z M3748.8-303.4c0.3-0.6-0.1-2-0.3-3c-0.2-0.5-0.4-0.7-0.7-0.6c-0.5,0.1-0.5,0.7-0.3,1.6
			C3747.9-303.4,3748.1-303.2,3748.8-303.4z M3753.2-306.8c1.7-1,1.8-2.6,0.7-5.6c-0.5-1.2-1-2.1-1.3-2.1c-0.1,0.8-0.2,1.2-0.1,1.5
			c0.1,0.3,0.3,0.7,0.5,1.1c0.9,2.2,0.7,3.5-0.2,4.2C3751.9-307.1,3752.5-306.6,3753.2-306.8z M3698.7-308c3.9-0.8,7.4-7.2,9.7-12.8
			c2-5.7,4.2-11.9,4.5-17.1c0,0-1.5,0.1-1.7,0.4c-0.2,0.3-0.2,1-0.4,1.9c-1,4.8-1.8,8.4-3.6,12.9c-1.2,3.1-2.6,6.7-5.9,11.4
			c-1.1,1.3-2.4,2.2-3.9,2.4c-0.4,0.1-1.1,0-1.2,0.1c-0.3,0.2,0,0.7,0.7,0.9C3697.6-307.8,3698.3-307.9,3698.7-308z M3752.6-308.7
			c0.6-0.6,0.7-1.4,0-3c-0.2-0.4-0.3-0.7-0.5-0.6c-0.5,0.1-1,1.4-0.7,2.4C3751.8-308.6,3752-308.2,3752.6-308.7L3752.6-308.7z
			 M3697.4-309.7c1.1-0.2,2.6-1.1,3.6-2.5c2.2-2.8,3.6-6.1,4.7-8.6c0.9-2,2.5-6.4,2.9-8c0.9-3.4,1.4-5.5,1.8-7.9
			c0-0.2,0.1-0.6,0-0.7c-0.5-0.1-1.4,0-1.8,0.3c-0.5,3.9-1.8,7.7-2.8,10.9c-1.6,5.5-6.1,14.2-8.5,14.6c-1.3,0.2-2.8-0.9-2.6-2.1
			c0.1-0.7,0.2-1,0.6-1.2c0.9-0.3,1.3,0.3,0.4,0.7c-1.1,0.9,0.9,2.4,2.1,1.4c2-1.7-1-5-3.4-3.5c-2.7,1.7-2,4.6-0.3,6
			C3695.1-309.7,3696.1-309.6,3697.4-309.7z M3716.5-313.7c1.7-1.7,2.9-4,3.8-6.8c2-6.3,3.6-13.5,4.2-19.1c0,0-1.4-0.1-1.7,0.2
			c-0.2,0.2,0,0.4-0.6,4.5c-1,6-2.5,12-4.7,17.1c-0.9,2.1-1.1,2.3-1.8,3.4C3714.9-312.7,3715.2-312.4,3716.5-313.7L3716.5-313.7z
			 M3753.5-326.7c-0.2-0.1-0.1,0-0.2,0c-0.2,0.2-0.1,1,0.4,2.2c1.4,2.2,1.5,6.5,1.4,8.1c0,0.5-0.1,0.8,0.1,1.2
			c0.1,0.4,0.4,0.9,0.8,0.1c0.4-3.2,0.1-6.5-1.1-9.2C3754.5-325.3,3754.1-326.2,3753.5-326.7L3753.5-326.7z M3754.6-317.4
			c0.2-0.9-0.2-4.2-0.7-5.4c-0.2-0.5-0.6-0.5-0.6,0c0,1.2-0.1,3.4,0,4.1C3753.9-317.3,3754.3-316.4,3754.6-317.4L3754.6-317.4z
			 M3751.5-331.1h-0.6c0,2.2-1.9,2.8-2.7,0.2l-0.6,0.1C3748.4-327,3751.9-328.7,3751.5-331.1L3751.5-331.1z M3747.6-329.4
			c-0.3-1-0.2-1.3-1-0.9c-0.6,0.3-1,0.7-0.1,1.1C3747.2-328.8,3747.8-328.8,3747.6-329.4L3747.6-329.4z M3752.5-330
			c0.3-0.5,0.2-1-0.2-1c-0.3,0-0.4,0.2-0.5,0.8C3751.7-329.3,3752.1-329.1,3752.5-330L3752.5-330z M3752.8-333.7
			c0.2-0.1,0.2-0.4,0.1-0.9c-1.1-1.5-3.7-1-4.6-0.7c-1.1,0.4-1.4,0.2-2.1-0.1c-0.6-0.1-0.7,0-0.8,0.3c-0.1,0.3-0.2,0.8-0.2,1.6
			c0,0.7,0,1.1,0.2,0.8c1-0.9,2.1-2,3.7-2C3751.1-334.7,3752.8-333.6,3752.8-333.7z M3745.6-331.6c0,0.3,0.3,0.1,0.9-0.3
			c2.4-1.4,3.7-1.2,5.7-0.5c0.4,0.1,0.7-0.3,0.2-0.7C3750.1-335.2,3747.2-333.9,3745.6-331.6z M3754.1-340.8l12.8-21.2l-71-0.1
			l12.1,22.6C3717.7-341.8,3733.9-344.7,3754.1-340.8z"/>
		<path id="path4098-7-2-7" fill="#E2CF00" d="M3691.1-174.5c1.5-2.3,9,1.8,9.4,3.4c4.4-3.5,9.8-3.8,14.1,0.6
			c4.4-4.9,9.2-4.5,14.1-1.7c-0.6-1.1,6.3-6,10.5-2.9l11.3,20.2l-72.2,0.2C3682.4-161.1,3686.2-168.8,3691.1-174.5z M3659.6-280.1
			c-0.4-1.1-2-12.3,2-12.6c6.5,2.9,14.8,13.3,18.6,19.6c4.8,7.9,9.6,26,6.9,25.2c-0.4-0.1,8.2,8.6,8.8,9.4c1,1.4-14.5,27.3-17,26.4
			c-0.8-0.3-5.9-3.4-5.9-3.4l0.1-8.7l0.1-17.5l-14.2-1.2l0.5-3.8c4.8,0.4,9.6,1.3,14,0.3c2.9-5.3,1.8-13.3-1.7-16.5
			c-1.8-1.1-3.6-0.8-5.4-0.5C3658.9-264.7,3662.9-277.6,3659.6-280.1z M3786.4-274.3l0,3.2c-5,1.1-13.8-3.2-16.5,3.7
			c0.3,7.4,2,10.7,3.1,13c0.9,2,6.9-0.3,9.1,1.7c6.1,7.6,4.7,17.7,4.7,26.9l-2.7,1.4c-18.4-10.9-32.5-44.9-34.5-54.6
			c-0.1-6.2,16.9-26.2,16.9-26.2c0,0,6.2,3.8,6.2,3.8c0.1,0.1-0.1,26.2-0.1,26.1C3777.6-275.1,3782.3-274.6,3786.4-274.3z
			 M3749.9-298.2c-21.5,37.8-12.7,65.8,3.1,89.9c0,0-1.4,0.3-1.5,0.2c-3.5-3.1-5.9-2.6-7.6-2.6c-3.4-0.1-4.3,1-6.3,1.2
			c-5,0.5-4.5,0.6-8.7-1c-5.3-4.4-12.4-7.7-18-9.5c-4.5,0.4-11.4,2.6-14,0.8c18.2-33.8,15.4-55.4-3.4-90.8c1.6,0.5,1.8,1.9,3,2.3
			c3.9,1.5,9.2,0.9,12.4-0.5c5.1-2.3,10.5,3.9,26.1,10.8c1.3,0.7,2.9-0.4,4.3-0.7c2.9-0.6,5.3-1.8,7.5-1.1
			C3747.3-298.8,3749.9-298.2,3749.9-298.2L3749.9-298.2z M3706.6-342.4c-0.9-1.7-10.4-19.9-10.4-19.9l70.3,0.4l-10.6,17.5
			c-1,0.9-6,3.6-11-2.4c-0.1,0.9-7.5,6.2-13.9-0.2c-3.8,3.5-7.7,5.5-14.2,1.6C3716.8-344.3,3711.8-339.4,3706.6-342.4z"/>
		<path id="path4094-0-9-9" fill="#D40000" d="M3714.3-171c-6.8-6.4-13.9-0.6-13.7-0.3c-2.7-2.8-5.3-5-8.9-3.9c0,0,0-1,0-1
			c10.6,2,26.8,2.5,45.8-1.5l1,2.1c-5.1-1.8-7.7,0.6-10,3.5C3720.4-177.2,3718.4-172.7,3714.3-171z M3730.2-245.9l4.8-0.1
			c0.9,14.2,12.6,35.8,12.9,35.8c-0.8-1.1-8.6-0.2-8.5-0.1C3735.2-221.7,3730.5-233.1,3730.2-245.9z M3702.1-212.3
			c0,0-1.6-4.1-2.5-5.8c5.1-8.7,9.2-17.8,11.3-27.8l3.4,0C3713.4-232,3702.4-210.9,3702.1-212.3z M3764.1-214.2
			c7.6-13.8,6.3-33.8-15.3-44.8c0,0,0.6-14.6,2.2-14.6c0.4,0.1,9.8-0.1,9.8-0.1c2.5-6.1,6.4-13.5,12-18.4l0.1,16.3
			c-4.1,0.4-6.6,1.7-7.8,5l-5.7,1.3c0.4,16.4,6.5,31.6,24.7,45.2c-4.3,3.8-19.2,11.4-19.1,11.3L3764.1-214.2z M3673.2-224.5l0.2-17
			c2.8-0.6,4.9,0.2,7.2-4.8c0,0,3.8,1.8,5.1,2.5C3682.1-237.3,3679-230.4,3673.2-224.5z M3709.3-254.6l0.2-8.6l8.1,0.2
			c-0.7,2.9-0.9,5.9,0,8.8L3709.3-254.6z M3727.9-254.7c0.6-2.8,1-5.7-0.2-8.7l8.8,0.2l-0.2,8.6L3727.9-254.7z M3711.1-271.6
			c-1.5-16.9-13-36.1-13.1-35.7c1.4,0.2,3.7,0.9,5.1,0.3c1.6,0.3,3,0.1,3-0.1c0.1-0.6,10.7,24.6,9.3,35.5
			C3715.2-271.2,3711.5-271.2,3711.1-271.6z M3731.5-271.4c1.2-7.8,4.4-22.1,12-33.7c0.9,2.1,1.6,4.2,2.8,6.1
			c-5.7,8.4-9.2,18-11.4,27.7L3731.5-271.4z M3678.9-275.6c-3.5-7.1-17.9-18.4-17.1-17.2c6-5.4,12.6-8.8,19.2-12.3
			c0,0,1.2,1.1,1,1.4c-4.1,6.5-6.1,20.2-2.1,28.1c3.8,8.4,10.5,13.4,17.4,17.3c-0.5,5.3-0.8,9.1-2.1,14.3c0,0-4.3-2.3-7.9-3.8
			C3686.8-257.7,3684.8-266.6,3678.9-275.6L3678.9-275.6z M3717-345.5c5.1,3.1,9.6,2.8,14-1.4c5.5,5.1,11.5,2.7,14,0.4
			c2.3,2.7,5.4,4.1,9.8,3.3l-1.1,2.3c0.3-1.2-30.7-3.3-45.8,1c0,0-0.9-1.8-0.8-1.8C3708.6-341.8,3713-340.2,3717-345.5z"/>
		<path id="path4092-7-7-9" d="M3695.2-362.8l12.5,23.6c0,0,0.4-0.1,0.6-0.1c17.4-3.4,31.1-3.9,45.9-1.3l13.1-21.9
			C3743.4-362.9,3695.2-362.8,3695.2-362.8z M3696.6-361.8l69.7,0.1l-3.9,6.5c-2.3-0.7-3.7,0.4-4,2.6c0,0-0.3-0.1-0.8-0.2
			c-3.4-0.4-3.9,4.2-0.7,4.7c0.8,0.1,1,0,1,0c-2.9,2.4-4.5,0.8-5.8,0c0,0.3-2.6,2.2-4.9-0.1c3.4,0.3,3.9-3.1,2.3-4.4
			c-0.3-0.3-0.7-0.6-0.7-0.6c0.8-0.7,1-1.6,0.5-2.7c-1-2.2-4.3-2-4.8,0.3c-0.2,0.9-0.2,1.1-0.2,1.1c-2.6,0.2-3.2,2.7-2.3,4.1
			c0.5,0.8,1.6,1,2.7,0.9c-1.4,2-4.6,1.3-6-0.3c-2.3,2.7-4.9,2.4-6.1,0.9c0.9,0,1.5,0,2.3-0.8c1.4-1.3,0.7-3.6-1.2-4.2
			c-0.4-0.1-0.6-0.1-0.7-0.2c0,0,0.1-0.1,0.1-0.8c0.5-4-5.4-3.6-4.8,0.3c0.1,0.5,0.2,0.7,0.2,0.7s-0.6,0-1,0.1
			c-3.3,1.5-1,5.7,1.5,4.6c0.2-0.1,0.9-0.4,1-0.4c-3.1,3.9-5.8,1.1-6.5,0.7c-2.1,3.2-5.8,1-5.9,0.8c0.2,0.1,0.9-0.1,1.6-0.4
			c2.1-1.1,1.5-3.9-0.1-4.5c-0.5-0.2-1.1-0.2-1.8-0.1c0,0,0.1-0.7,0-1c-1-3.8-5.7-1.9-4.6,1.3c0.1,0.3,0.4,0.6,0.4,0.6
			s-0.6,0.4-0.9,0.7c-2.2,2,0,5.4,2.7,4c0.3-0.2,0.7-0.6,0.8-0.5c-1.2,2.3-3.1,3.1-5.8,1.2c-1.6,2.6-4.3,1.5-5.1,0.2
			c2.5,0.2,4.1-4.6-0.7-4.8c-0.4-1.3-0.4-3.3-3.4-3L3696.6-361.8z M3730.6-353.5c0.6,0,1,0.5,1,1c0,0.6-0.4,1-1,1c-0.6,0-1-0.5-1-1
			C3729.6-353,3730.1-353.5,3730.6-353.5z M3746.2-353.4c0.6,0,1.1,0.5,1.1,1.1c0,0.6-0.5,1.1-1.1,1.1c-0.6,0-1.1-0.5-1.1-1.1
			C3745.2-352.9,3745.6-353.4,3746.2-353.4z M3715.7-352.2c0.6,0,1,0.5,1,1s-0.5,1-1,1s-1-0.5-1-1S3715.1-352.2,3715.7-352.2z
			 M3759.4-350.9l-0.9,1.6C3757.6-350.2,3758.2-351.3,3759.4-350.9z M3703.5-348.7l-0.9-1.6C3704.2-350.3,3703.7-349.1,3703.5-348.7
			z M3730.5-349.6c6,6.9,11.3,4.9,14.9,0.3c1.5,3.9,4.9,6.6,10.6,4c-0.3,0.6-1.2,1.7-1.2,1.7c-5.1,1.4-7.6-1-9.6-3.3
			c-5.2,4.4-10.1,3.3-14.1-0.5c-3.4,4.4-9,5.3-14.2,1.7c-2.4,3.5-5.7,4.9-10,3.2c0,0-0.9-1.4-1-1.5c0.6,0.5,8.4,3.8,10.4-4.1
			C3719-343.6,3728-343.3,3730.5-349.6L3730.5-349.6z M3731.1-346.8c6.7,6.4,13.8,0.9,14,0.5c0.1,0.4,3.9,5,9.5,3.2l-0.9,1.6
			c-10.4-1.8-20-2.9-42,0.3c0,0,3.5-1,5.3-3.9C3718-344.4,3725.6-340.1,3731.1-346.8z M3707.5-341.5c0,0,2.9,0.3,3.2,0.4
			c0.3,0.2-2.5,1-2.5,0.9L3707.5-341.5z M3713.5-311.2c-0.2,0-0.4,0.2-0.8,0.6c-0.8,0.8-1,0.9-1.7,1c-0.6,0.1-1.8,0.8-2.6,1.5
			c-0.2,0.2-0.6,0.3-1,0.4c-0.4,0.1-0.9,0.2-1.2,0.2s-0.6,0.1-0.7,0.2c-0.4,0.2-1,0.3-1.7,0.1c-0.7-0.2-0.8-0.2-1.6,0.1
			c-1.1,0.3-1.8,0.3-2.4,0c-0.5-0.3-1.4-0.5-2-0.3c-0.8,0.3-2.9-1-2.9-1.8c0-0.2-1.2-1.1-1.5-1.1c-1.1-0.2-10.4,3.6-10.4,3.8
			c11.5,14.3,21.1,36.2,13.9,62.9l-1.3-0.6c1.1-4.9,1.5-9.7,1.8-14.7c-21.6-9.4-23.4-31.3-15-45.1l-1.4-1.5
			c-5.1,2.7-10.2,4.3-22.8,14.9l0,17.2c0,15.5,0,30.7,0,30.7c4.5,0.5,9.5,0.9,14.5,1.4c0,0-0.1,15.4-0.2,21.4
			c-0.1,5.1,0.1,4.8,0.1,4.8l16.3,8.7c-1.1-4.6,1.7-6.4,4.1-6.2c-1-4.4,1.6-6.4,4.5-5.9c2,0.4,2.7,1.5,3.9,5.2
			c0.2,0.6,0.4,1.4,0.4,1.4l1.1,0c1.4-3.1,2.4-7.1,5.8-7.6c4.4-0.7,6,2.4,6,5.4c4.3-3.8,9.4-0.9,9.1,4.8c2.1-1.4,5.8-2.7,8.1,2.7
			c0.9-0.2,1.3-1.2,2.5-1.5c0.5-0.1,1.5-0.7,1.5-0.7l0-0.2c0,0,1-0.3,2.2-0.5c1.1,0.4,0.8,0.4,1.4-0.3c0.7-0.3,1.7-0.6,2.5-0.5
			c0.9,0.1,1.2,0.1,1.8-0.1c0.8-0.3,1.5-0.4,2,0.1c0.3,0.4,0.8,0.2,1.3,0.2c1,0,2.4,0.4,2.9,1.3c0.6,0.7,2,1.3,2,1.3l1.1-0.3
			l0.1-0.4l9.2-3.6c-18.8-20.8-18.3-48.5-13.9-62.5l1.7,0.8c-0.9,4.1-1.9,8.4-1.8,14.6c17,7.6,25.4,27.4,15.1,44.7l1.1,1.4
			c4.3-1.8,15-7.9,18.8-11.2l0.8,0.1c0,0,2.3-1.5,3.2-2.3l0.1-45.8l-0.8,0.2l-0.1-2.7l-14-1.1c0.2-0.1,0.3-0.2,0.4-0.5l-0.1-25.3
			c-0.5-0.8-12.2-7.7-16.6-9.4c-0.2,0-0.1,0.3,0,1c0.2,2.5-1.4,4.7-3.4,4.7c-0.7,0-0.8,0.3-0.8,1.7c0,2-0.7,3.4-2.8,4.2
			c-2.5,0.9-4.2-0.4-5.6-5.6c-0.4-1.4-1.1-1-1.8,0.8c-0.3,0.9-1.4,3.2-2.1,4.4c-0.5,0.9-1.3,1.3-2.4,1.8c-0.9,0.4-2.7,0.4-3.8-0.2
			c-1.9-1-2.7-2.2-3.2-5.1c-0.1-0.4-0.3-0.4-0.9,0.1c-3.4,2.6-8.2-0.1-8.1-4.6c0-1.3,0-1.4-0.8-0.7c-2.3,1.9-5.4,0.9-6.7-2.1
			C3713.9-310.9,3713.7-311.2,3713.5-311.2L3713.5-311.2z M3694-309.6c0.2,0,1,1,1,1c0.7,0.8,1.6,1.2,2.6,1.7
			c0.1-0.1,11.2,15,13.1,35.9l5.2,0c-1-20.3-6.5-30-9-36.3l1.9-0.6c4.2,8.1,9.3,24.5,9.1,38.8h-8.6c-1.2-14.4-6.7-28.4-14.5-39
			C3694.2-308.9,3693.8-309.4,3694-309.6C3693.9-309.6,3693.9-309.6,3694-309.6z M3690.7-307.5l0.9,2.8c0,0,0.1-0.6,0.4-0.9
			c1.7-1.5,3.3,0.5,2.5,3.2c-0.2,0.8-0.5,2.5-0.5,2.5s-1.7-0.9-2.6-1.2c-2.4-1-3.1-3-1.3-3.2c0.3,0,0.9-0.1,0.9-0.1
			c-0.8-0.6-2.4-2-2.4-2L3690.7-307.5z M3698.6-307.2c0.7,0.4,2.6,0.9,3.6,0.4c0.9-0.3,1.5-0.1,2.4-0.1c0.5,0,1.5-0.2,1.5-0.2
			c5.1,10.8,8.6,23.6,9.1,35.3l-4,0c-1.5-12.4-6.3-25.1-12.3-34.4C3698.7-306.5,3698.3-307.1,3698.6-307.2L3698.6-307.2z
			 M3715.3-307c1.5,0,3.2,1.6,4,4.1c0.5,1.4,0.7,1.3,1.3,1.1c1.7-0.6,3.5,1.3,1.2,1.6c-2.2,0.4-1,4.8-1.1,5.1
			c-0.9,0.2-2.6-3.6-2.5-4.7c0.1-2.7-2.4-5-4-3.8c-0.7,0.5-0.7,0.9-0.9,0.7c-0.7-0.6-0.8-2.3,0-3.2
			C3713.9-306.7,3714.6-307,3715.3-307z M3761.2-306c0,0,0.1,3.6,0,4.4c-0.3,2.4-3.3,2.6-3.5,0.7c-0.5,0.8-0.8,1.7-1,2.6l-2.2-1.5
			c0.8-0.6,1.6-1.1,2.2-1.9c-1.6,0.1-2.5-1.3-1.4-2.5C3756.4-305.7,3759.7-305.8,3761.2-306L3761.2-306z M3680.9-304.9l1,1.1
			c-8.6,15.4-5.6,35.1,15.2,45.4c-0.1,4.7-0.7,9.5-1.9,13.9l-7.7-3.8c0.1-17.4-9.7-34-25.3-44.9
			C3667.9-297.7,3674.2-301.7,3680.9-304.9z M3743.6-304.8c0.4,2,2.3,5.7,2.4,5.5c0-0.1-7.9,10.2-11.4,27.6l-2.9,0
			C3733.6-283.2,3737.5-294.1,3743.6-304.8L3743.6-304.8z M3768-304.3l1.6,1c-8.2,6.9-13.6,15.7-17.6,25.2l-2.1-1
			C3756.1-292.9,3762.1-299,3768-304.3z M3770.2-302.7c0.4,0,0.9,0.6,1.7,1c0.8,0.4,0.6,0.7-0.9,1.8c-1.7,1.3-1.9,1.3-1.9-0.6
			C3769.2-301.8,3769.5-302.7,3770.2-302.7C3770.1-302.7,3770.1-302.8,3770.2-302.7L3770.2-302.7z M3768.3-300.8
			c0.1,0,0.2,0,0.2,0.1c0.1,0.5,0.1,1.7-0.1,2.8c-0.2,0.7-2.4,2.6-3.2,3.4c-0.3,0.2-0.5,0.1-0.5-0.2c0-0.6,0.1-1.4,0.1-2.2
			c0-0.2,0-0.5,0.2-0.7C3766.1-298.9,3767.7-300.8,3768.3-300.8L3768.3-300.8z M3772.4-300.2
			C3772.4-300.2,3772.4-300.2,3772.4-300.2c0.2,0.1,0.2,2.7,0.1,2.9c-0.6,0.2-2.4-0.1-2.8-0.3C3769.5-297.9,3772-300.2,3772.4-300.2
			L3772.4-300.2z M3695.6-299.3l0.6,2.5c0,0,0.2-0.3,0.2-0.4c1.2-1.8,2.6-0.8,2.6,1.8c0,0.8-0.7,4-0.7,4s-4.5-2.2-4.8-3.1
			c-0.3-0.9,0.1-1.8,1-1.8c0.3,0,0.6-0.1,1,0l-1.9-2L3695.6-299.3z M3746.6-299l2,0.8c-4.2,6.9-8.6,13.8-11.7,29.4h-8.5
			c1.2-9.5,3.6-18.9,7.9-28.1c0,0,1.7-0.5,2.6-0.8c0,0-7,16.2-7.8,26.6l4.1,0.1C3737.4-281.2,3741.4-291.7,3746.6-299z
			 M3730.6-298.8c1.1,0,2,0.8,1.9,2.2c0,1.3-0.1,1.5-1.1,1c-1.2-0.7-2.2-0.7-3.2,0.1c-0.6,0.4-1.2,0.8-1.2,0.8s0.5-2.3,1.3-3
			C3729.1-298.4,3729.9-298.7,3730.6-298.8z M3726.2-295.4c-0.1,0.8-0.3,1.1-0.5,1.8c0,0,0.7-0.3,1-0.4c1.5-0.7,3.1,0.6,3.1,2.1
			c0.1,1-1,2.3-2.4,2.3c-0.5,0-0.9-0.1-1.4-0.5c0.3,1.9,0.4,2.8-1,3.7c-1.1,0.8-3.5-0.1-3.4-2.2l0.1-1.3l-1.2,0.2
			c-3.2,0.1-3.3-3.9-0.7-4.5c1-0.2,2.2,0.6,2.2,0.6c-0.5-1-0.5-2.7,0.2-3.5C3723.8-299,3726.4-297.3,3726.2-295.4z M3754.3-297.9
			c0.2,1.5,0.8,3.1,0.6,4.5c-0.3,1.8-1.8,2.8-2.9,1.7c-0.1-0.1-0.4-0.4-0.4-0.4c-0.5,0.7-0.9,2.6-0.9,2.6l-2.1-1.3
			c0,0,1.4-1,1.8-1.6c0.1-0.2,0.2-0.5,0.2-0.5c-1.2,0.4-2.1-0.8-1.8-1.9C3749.4-296.5,3752.6-297.1,3754.3-297.9L3754.3-297.9z
			 M3768.9-296.8c0.8,0,2,0.2,2.9,0.3c0.7,0.1,0.3,0.5-1.3,2.2c-1.5,1.5-1.5,1.3-2.6,1.3c-2.7,0-3.2,0-1.6-1.7
			c0.8-0.9,1.6-1.7,2.1-2C3768.6-296.8,3768.7-296.8,3768.9-296.8L3768.9-296.8z M3764-296.5C3764-296.5,3764.1-296.5,3764-296.5
			c0.3,0.2,0.2,1,0.2,2.1c0,1.2,0,1.2-0.5,1.9c-0.6,0.8-1.2,1.6-1.8,2.4c-0.6,0.6-0.6,0.6-0.9-1c-0.3-1.5-0.1-1.9,1.7-4.1
			C3763.3-296,3763.8-296.5,3764-296.5z M3772.5-295.6l0,3c-5.6,5.5-9.4,11.8-12,18.6l-2-0.8C3761.9-283.5,3767-290.4,3772.5-295.6
			L3772.5-295.6z M3723.9-293.8c-0.9,0-1.7,0.8-1.7,1.7c0,0.9,0.8,1.7,1.7,1.7c0.9,0,1.7-0.8,1.7-1.7
			C3725.6-293.1,3724.8-293.8,3723.9-293.8z M3723.9-293.3c0.6,0,1.2,0.5,1.2,1.2c0,0.6-0.5,1.2-1.2,1.2s-1.2-0.5-1.2-1.2
			C3722.7-292.8,3723.2-293.3,3723.9-293.3z M3661.6-292.6c17.5,11.3,25.3,28.9,25.3,44l-1-0.4c-1-21.3-12.5-34.5-24.9-43
			L3661.6-292.6z M3765.1-292.4c0.4,0,0.9,0.1,1.7,0.2c1.4,0.1,1.6,0.2,0.6,1.3c-0.3,0.3-0.8,1-1.2,1.5s-0.8,1-1,1.1
			c-0.3,0.1-2.8,0-3.6-0.1c-0.2,0,0.1-0.3,1.3-2.1c0.9-1.4,1-1.8,1.9-1.9C3765-292.4,3765.1-292.4,3765.1-292.4L3765.1-292.4z
			 M3772.4-291.8c0,0,0.3,9.7,0.1,15.9c-4-0.1-6.3,1.4-7.3,4.3l-4.2-2.1C3764.1-281.7,3768.2-287.2,3772.4-291.8z M3760.1-291.6
			c0.2,0,0.4,0.5,0.4,1.4c0.3,1.7,0.2,1.9-0.5,2.9c-0.3,0.5-0.8,1.3-1,1.7c-0.4,0.7-0.7,0.9-0.8,0.6c-0.5-1.8-0.7-2.9-0.5-3.3
			c0.3-0.6,1.8-2.7,2-3C3759.8-291.5,3760-291.6,3760.1-291.6L3760.1-291.6z M3660.3-291.4c14.1,8.8,24.4,23.8,24.8,42
			c0,0-3-1.4-4.8-2.5l-0.1-1.8l1,0l0.3,2l2.1-0.1l-0.6-5l-3.4,0.3l-0.7-2.8l1-0.2l0.6,1.8l2.2-0.6l-1.2-4.4l-3.4,0.9l-1.1-3l1.1-0.4
			l0.9,1.8l2.1-0.7l-1.9-4.4l-3.1,1.5l-1.6-2.9l1.2-0.7l1,1.7l1.9-1l-2.4-4.1l-2.9,1.7l-1.5-2.2l0.9-0.6l1,1.2l1.7-1.2l-2.6-3.5
			l-2.8,2.2l-2.1-2.4l1-0.8l1.4,1.3l1.6-1.4l-3.1-3.4l-2.7,2.5l-2-1.8l1-1.1l1.2,1l1.3-1.6l-3.3-2.8l-2.5,2.5l-2.4-1.6v-1.2
			c0.8,0.3,1.6,0.7,2.3,1.1l1.2-1.9l-3.6-2.4L3660.3-291.4z M3699.4-290.7l0.5,3.1c0.5-0.8,0.9-1.4,2-1.1c1.3,0.5,1.3,2.5,0.2,5.6
			c-0.2,0.6-0.5,1.1-0.5,1.1s-0.6-0.2-1-0.5c-0.8-0.6-2.2-1.2-2.8-2.3c-0.7-1.2-0.7-2.8,0.6-2.6c0.3,0,0.8,0.1,0.8,0.1l-2-2.6
			L3699.4-290.7z M3659.5-289.7l2.4,1.6l-0.5,0.9l-1.9-0.9V-289.7z M3720.6-289c0.7,1-1.8,3.9,1.5,5.1c0,0,0.1,0.7-0.6,1.1
			c-1.6,1.2-3.9-1-3.2-3.2C3718.7-287.4,3720-289,3720.6-289z M3727.3-288.9c0,0,1,0.7,1.2,0.9c1.8,1.8,1.8,4.3,0.2,5.1
			c-1.1,0.6-2.3,0.1-2.7-0.7c-0.2-0.4,0.1-0.8,0.5-0.8c0.8,0,1.4-1.5,1.1-3.1C3727.5-288.1,3727.3-288.9,3727.3-288.9z
			 M3748.6-288.3c0,0,0.2,2.1,0.5,3.1c0.9,2.7-0.3,4.3-2,3.4c-0.3-0.1-0.7-0.7-0.7-0.7l-0.2,3.1l-2.5-0.7c0.5-0.9,1.3-1.5,1.9-2.5
			c0,0-0.4,0-0.7,0c-1.5,0.1-2.1-1.6-0.5-3C3745.6-286.8,3748.6-288.3,3748.6-288.3L3748.6-288.3z M3761.8-287.6c0.3,0,0.7,0,1.2,0
			c1.6,0,2-0.2,1.3,0.8c-0.3,0.4-0.9,1.5-1.1,1.9c-0.4,0.8-0.5,1-1.2,1.1c-1,0.2-2.1,0.1-3.2,0.1c-0.2,0,0.3-0.8,0.5-1.4
			c0.7-1.3,1.1-2.2,1.7-2.4C3761.3-287.6,3761.5-287.6,3761.8-287.6z M3756.9-286.6c0.2,0,0.3,0.3,0.5,1.1c0.4,1.7,0.5,1.7-0.2,3.1
			c-0.3,0.7-0.9,1.9-1.2,2.4c-0.6,1.3-0.7,1.2-1.1,0.1c-0.8-2.2-0.8-1.9,0.4-4.4C3756.2-285.8,3756.6-286.6,3756.9-286.6z
			 M3664.6-286l2.3,1.8l-0.6,0.6l-1.3-0.9l-1.8,2l3,2.8l2.6-2.6l2.2,2.3l-0.7,0.6l-1.3-1.3l-1.9,1.7l2.9,3.5l2.9-2.2l1.8,2.4
			l-0.7,0.5l-1.2-1.2l-1.9,1.3l2.4,3.4l3-1.7l1.7,2.8l-0.9,0.5l-1-1.5l-2.1,1.2l2,3.9l3.2-1.4l1.3,3l-1,0.4l-0.8-1.8l-2.2,0.9
			l1.4,4.1l3.3-0.9l0.8,3.1l-1,0.3l-0.5-1.7l-2.1,0.5l0.9,4.1l3.3-0.2l0.4,3.3l-1,0l-0.3-2l-2.1,0c0,0.7,0.1,2.1,0.1,2.1l-1.3-0.6
			c-1.9-12.7-8.6-23.3-18.7-30.7l-0.1-1.5l2.5,1.6C3662-283.5,3664.2-285.5,3664.6-286z M3761.3-283.1c0.7,0,0.4,0.5-0.5,2.2
			c-1,1.8-1.1,1.9-2.9,2.3c-2.2,0.5-2.1,0.7-0.9-1.9c0.5-1,0.8-1.8,1.2-2.2c0.5-0.4,1.6-0.3,2.7-0.4
			C3761-283.1,3761.2-283.1,3761.3-283.1L3761.3-283.1z M3659.6-282.5c10.5,6.8,17.1,20.9,17.9,29.5c0,0-0.3-0.2-0.9-0.5
			c-0.8-0.4-1-0.6-1.2-1.8c-2.1-10.5-7.9-19.3-15.8-25.6L3659.6-282.5z M3753.9-280.8c0.4-0.1,1.2,3.1,1,3.8
			c-0.2,0.5-1.7-0.7-2.3-0.9C3752.3-278,3753.6-280.7,3753.9-280.8L3753.9-280.8z M3703.5-280.6l0,3.3c0,0,0.4-0.5,0.6-0.6
			c0.8-0.6,2,0.2,2,1.2c0.1,1.4-0.1,1.9-1.2,3.8c-0.3,0.6-0.8,1.3-0.8,1.3s-1.3-0.9-2.7-2.3c-1.5-1.5-1.2-3.5,0.1-3.5
			c0.4,0,0.7,0.1,1.1,0.2c-0.3-1-1.3-2.9-1.3-2.9L3703.5-280.6z M3744.3-278.1c0,0,0.7,0.9,1.5,3.3c0.7,2.3-0.4,4-2,3.1
			c-0.3-0.2-0.6-0.5-0.6-0.5c-0.1,1.1,0.1,3.1,0.1,3.1l-2.5-0.4c0,0,1.4-2.2,1.5-2.8c0,0-0.2,0.1-0.8,0.1c-2.5,0-2-3,0.9-4.7
			C3742.8-277.2,3744.3-278.1,3744.3-278.1L3744.3-278.1z M3758.9-278.1c0.5,0,0.3,0.5-0.3,1.8c-0.7,1.4-0.5,1.3-1.9,0.5
			c-2-1-1.9-1.1,0.6-1.8C3758.1-277.9,3758.6-278.1,3758.9-278.1z M3722.9-277.7c2,0,3.5,2,3.2,4.8c-0.5,4.8-0.2,4.5,0.3,5
			c0.9,0.9-0.3,1.4-1.5,0.6c-0.8-0.6-1-1.2-1-3.8c0-3.1-0.1-3.8-1.2-3.6c-0.7,0.2-0.9,0.7-0.8,2.8c0.1,2.9-0.1,3.6-1.2,4.6
			c-1.2,0.9-2.4,0.1-1.4-0.5c0.5-0.6,0.6-1.3,0.4-3C3719.5-272.4,3718.6-277.7,3722.9-277.7z M3772.8-275.3
			c3.8,0.1,13.5,0.9,13.5,0.9l0.1,2.9c-0.4,0.3-7.6-0.8-13-0.7c-1.2,0-2.1,0.6-3,0.1c0.9,0.4,0.8,4.7-3,3.7
			c-3.2-1.2-1.7-5.6,2.5-6.7C3770.9-275.2,3771.8-275.3,3772.8-275.3L3772.8-275.3z M3750.7-273.3l8.3,4.1
			c1.2,15.7,6.5,32.2,24.7,44.8c-3,2.1-10.4,7.4-18.8,11l-0.7-0.8c10.1-17.3,2.5-36.3-15.2-44.9
			C3749.1-263.9,3749.7-268.6,3750.7-273.3z M3779.8-270.7c1.6-0.1,2,0.1,2.1,0.8c0.1,0.7,0.6,0.8,1.2,0.6c1.5-0.5,2.3,2.1,1.1,3.2
			c-0.7,0.7-0.6,1,0,1c1.5,0,1.5,2-0.1,3.2c-0.6,0.5-0.6,0.7,0,1c1.1,0.6,0.9,1.7-0.5,2.6c-0.8,0.5-0.8,0.6-0.2,0.8
			c1.6,0.4,0,2.8-1.8,2.4c-0.7-0.2-1.4,0-2.1,0.4c-1.9,0.8-2.2,1-4.2,0.7c-1.8-0.3-2.6-0.9-3.1-2.5c-1-3.2-2.2-6.8-2.2-10.3
			c-0.2-2.2,3.4-4.1,5.1-4.2C3776.7-271.2,3778.3-270.7,3779.8-270.7L3779.8-270.7z M3666.8-270.6c1.9,0,3.4,1.6,3.4,3.5
			c0,1.9-1.5,3.5-3.4,3.5c-1.9,0-3.4-1.6-3.4-3.5C3663.3-269.1,3664.9-270.6,3666.8-270.6z M3705-269.6l-0.3,3c0,0,0.5-0.4,0.6-0.5
			c0.9-0.8,2.3,0.1,2,1.3c-0.1,1-1.9,4.1-2.6,4.8c0,0-2.8-3.1-3.1-3.7c-0.7-1.4,0.2-2.8,1.5-2.2c0.2,0.1,0.7,0.5,0.7,0.5l-0.9-2.9
			L3705-269.6z M3667-269.4c-1.2,0-2.4,0.8-2.2,1.8c0.1,0.4,0.8-0.2,1.4-0.6c0.5-0.3,1.1-0.4,1.6-0.1c0.5,0.2,0.7,0.6,1,1
			c0.2,0.3,0.5,0.5,0.7,0.4c0.1-0.2,0.1-0.4,0-0.5C3669.3-268.8,3668.1-269.4,3667-269.4L3667-269.4z M3759.6-268.9l1.2,0.6
			c1.7,22.2,12.7,35.2,24.4,42.9l-0.9,0.6C3770-234,3760.1-250.6,3759.6-268.9z M3761.5-268c0,0,3.1,1.6,4.7,2.3l0.1,2l-1.1,0
			l-0.4-1.9l-2.2,0.2l0.7,4.6l3.6-0.4l0.5,2.8l-1.2,0.3l-0.6-1.7l-2.1,0.5l1.3,4.5l3.3-1.1l1,2.9l-1.1,0.4l-0.7-1.7l-2.1,0.8
			l1.7,4.4l3.4-1.1l1.4,2.8l-1,0.5l-1-1.7l-2,1.1l2.4,4.1l3.1-1.6l1.4,2.2l-1.1,0.8l-1-1.3l-1.7,1.1l2.6,3.6l2.6-2l2,2.3l-0.9,0.8
			l-1.3-1.4l-1.6,1.4l3.1,3.5l2.7-2.4l1.9,1.8l-0.6,0.6l-1.3-0.8l-1.7,1.9l3.3,2.9l2.6-2.9l2.2,1.7v1.2l-2-1l-1.3,2l3.3,2.5l0,1
			C3767.4-237.1,3762.4-254.8,3761.5-268L3761.5-268z M3722.7-267.8c0.8,0,1.7,0.8,3.1,2.4c4,4.7,2.9,11.9-2.3,15.7
			c-0.8,0.5-1.1,0.5-2-0.3c-5.4-4.7-5.7-10.9-0.9-16.3C3721.4-267.3,3722-267.8,3722.7-267.8z M3741.8-267.1c1,1.5,2.2,3.1,2.4,4.9
			c-0.1,1.8-1.3,2.2-2.6,1.1c-0.2,1,0.4,2.8,0.4,2.8l-2.3-0.2c0,0,0.9-1.6,0.9-2.6c-1.6,1.1-2.8-0.3-2.6-1.5
			C3738.5-264.6,3740.1-265.9,3741.8-267.1L3741.8-267.1z M3722.7-265.9c-0.2,0-0.4,0.1-0.7,0.4c-1.4,1.1-2.5,2.5-3.1,4
			c-1.2,3.1-0.4,6.6,2.3,9.3c1.4,1.4,1.9,1.3,4-1.6c1.8-2.4,2.1-5.4,1-8.1c-0.5-1.3-1.5-2.6-2.6-3.5
			C3723.2-265.8,3723-266,3722.7-265.9L3722.7-265.9z M3766.8-265.4l1.8,0.9c2.3,15.1,9.6,24.3,17.8,30.7l0,1.4l-2.2-1.7l-2.6,2.8
			l-2.1-1.8l0.8-0.8l1.2,0.8l1.6-1.8l-3.1-2.8l-2.7,2.3l-2.2-2.3l0.7-0.6l1.5,1.4l1.7-1.5l-3-3.4l-2.7,2l-1.9-2.5l0.8-0.5l1,1.4
			l2.1-1.3l-2.2-3.4l-3.1,1.6l-1.6-2.9l0.9-0.4l1,1.6l1.9-0.9l-1.9-4l-3.2,1.1l-1.2-3.1l0.9-0.3l0.8,1.9l2.1-0.7l-1.5-4.3l-3.3,0.9
			l-0.8-3.2l1-0.2l0.5,1.7l2.3-0.5l-0.8-4.1l-3.4,0.4c-0.1-0.7-0.6-2.6-0.6-3.3l1-0.1l0.3,1.8l2.3-0.1L3766.8-265.4z M3722.9-265
			c1.2,0.2,2.7,2.6,3.1,3.4c0.6,1.7,0.7,3.7,0.1,5.3c-0.5,1.3-1.9,3.5-2.9,4.1c-0.7,0.4-1.4,0.1-2.4-1.4c-2.1-2.9-2.5-6.3-0.8-8.7
			C3721.2-264.1,3722.1-265,3722.9-265z M3769.2-264.3l0.9,0.4c1.1,8.8,6.2,20.8,16.3,28v1.1
			C3778.5-240.5,3771.3-250.3,3769.2-264.3L3769.2-264.3z M3722.7-263.7c-3.5,2.7-3,6.9-0.3,9.7
			C3725.3-255.9,3726.3-261.1,3722.7-263.7z M3669-263.5c2,0,3.2,0.7,3.8,2c0.9,2.2,1.1,2.6,1.3,3.7c0.1,0.6,0.3,1.6,0.4,2.2
			c1,5.9,0.3,8.1-3.3,9c-1.1,0.3-2.5,0.4-3.5,0.1c-0.3-0.1-1.3-0.1-2-0.1c-1.5-0.1-2-0.2-2.8-0.8c-0.3-0.2-0.5-0.4-0.9-0.5
			c-1.8-0.3-2.3-1.9-1-3.1c0.8-0.7,0.8-0.8,0.8-0.9c0-0.1-0.4-0.1-0.7-0.1c-1.8,0-1.8-1.9,0-3.2c0.8-0.6,1.2-1.2,0.7-1.1
			c-1.6,0.4-2.2-2-0.5-2.7c0.9-0.5,1.5-0.9,0.7-1c-0.7,0.1-1.3-0.5-1.1-1.1c0.3-0.8,1.8-1.5,2.6-1.2c0.7,0.2,1.3,0.4,1.7,0.1
			c1-0.7,1.5-1.1,2.3-1.2C3668-263.5,3668.6-263.5,3669-263.5L3669-263.5z M3728-263.1l8.2,0.2l-0.2,8.1l-7.7-0.1
			C3728.2-255,3729.9-258.6,3728-263.1z M3709.7-262.9l7.8,0.1c-1.3,3-0.8,6.2-0.3,7.9l-7.6-0.1L3709.7-262.9z M3722.8-262.9
			c2.1,1.2,2.7,5.7-0.2,8C3719.7-257.7,3720.3-261.2,3722.8-262.9z M3703.5-259.4l2.1,0.2l-0.7,3c0,0,0.3-0.4,0.4-0.4
			c2.7-1.3,2.9,1.6,0.1,4.2c-0.6,0.6-1.6,1.4-1.6,1.4s-0.8-1.2-1.4-2.2c-0.7-1.1-1.2-2.2-1-2.8c0.2-0.9,1.2-1.5,1.9-0.9
			c0.3,0.3,0.7,0.7,0.7,0.7L3703.5-259.4z M3740.9-257.1c0,0,0.9,0.9,1.4,1.5c1.8,2,2.2,4,1.2,4.5c-0.8,0.4-1.3,0.1-2-0.4
			c0.1,1.3,1.1,3.1,1.1,3.1l-2.8,0.4c0,0,0.7-2.5,0.6-3.5c0,0-0.6,0.4-0.8,0.5c-1.8,0.7-2.7-1.4-1.2-3.5
			C3739.8-256.1,3740.9-257.1,3740.9-257.1z M3778.6-253.3c1.9,0,3.4,1.5,3.4,3.4s-1.5,3.4-3.4,3.4s-3.4-1.5-3.4-3.4
			S3776.7-253.3,3778.6-253.3z M3780.2-251.8c-0.1,0-0.3,0.4-0.3,1.1c-0.2,1.5-1.4,2.1-2.8,1.4c-0.6-0.3-1-0.7-1-0.4
			c0,0.2,0.4,1.1,0.8,1.4c1.2,1.1,4,0.8,3.9-1.7C3780.8-251,3780.5-251.8,3780.2-251.8z M3719.4-250.5c0.4,0,0.8,0.1,1.1,0.4
			c0.9,0.6,1.1,1.4,1.1,4.5c0.1,2.7,0,2.8,0.4,3.1c1.1,0.8,1.7-0.4,1.4-3.1c-0.3-2.6,0.6-4.5,2.2-4.5c0.8,0,0.9,0.5,0.3,1
			c-0.6,0.6-0.8,1.4-0.6,2.9c0.5,3.9,0.1,5.8-1.6,6.6c-1.7,0.8-3.9-0.1-4.2-2.3c-0.2-1.4-0.2-3.1-0.1-4.7c0-1.7,0-1.9-0.6-2.8
			C3718.6-250.1,3718.9-250.5,3719.4-250.5L3719.4-250.5z M3676.9-249.2c0.9,0,1.9,0.5,2.5,1.8c1.4,2.9-1.6,5.3-4.4,5.5
			c-4.8,0.1-10.5-0.6-15.4-1.3l0.1-2.8c4.4,0.3,9.4,0.6,14.8,0.9C3673.9-247.7,3675.4-249.2,3676.9-249.2L3676.9-249.2z
			 M3702.3-248.7l2.7,0.6l-1.7,2.8c0.5-0.2,0.9-0.4,1.4-0.2c1.1,0.4,1.1,1.8,0.3,3.1c-0.6,1-2.4,2.1-3.6,2.8
			c-0.7-1.5-2.2-4.1-1.6-5.5c0.3-0.8,1.2-1.1,2-0.7c0.3,0.2,0.8,0.4,0.8,0.4L3702.3-248.7z M3708.6-248.6l8.2,0.1
			c-1.2,8.4-3.5,19.5-8.1,28.6l-1.9,0.5c4-9,6.7-17.5,8-27h-4.1c-2.4,10.2-5.8,19.6-11.2,27.8l-2.4-0.8
			C3702.8-228.5,3707.4-238.7,3708.6-248.6L3708.6-248.6z M3727.3-248.4h9.1c1.7,17,7.4,28.6,15.8,40.1c0,0-0.5,0.1-0.8,0
			c-0.9-1.1-1.7-1.8-3-2.1c-7.1-10.4-11.9-24.8-13-35.9h-5.4c0.6,13.9,4.4,25.3,9.5,36.4l-2.8,0.5
			C3732.6-219.4,3728.1-228,3727.3-248.4L3727.3-248.4z M3741.5-246.3c0.8,0.6,1.6,1.2,2.3,1.7c2.1,1.5,2,4.2,0,4.2
			c-0.2,0-0.7,0-0.7,0s0.8,1.8,1.3,2.7c-0.8,0.2-2.6,0.6-2.6,0.6s0.2-1.8,0.2-3.2c0,0-0.3,0.4-0.6,0.5c-1.3,0.6-2.4-0.6-2.3-2
			C3739.4-243.8,3741.5-246.3,3741.5-246.3L3741.5-246.3z M3680.5-246l4.5,2.3c-3.1,7-6.6,13.6-11.6,18.6l0.1-16.3
			C3676.3-241.5,3679.1-241.5,3680.5-246z M3711.2-245.7h2.8c-1.2,13-9.7,30.5-11.3,32.7l-0.5,0.4c0,0-1.1-4-2.4-5.4
			C3704.6-224.6,3709.6-237.2,3711.2-245.7z M3730.6-245.7h4.2c1.3,10.3,4.5,21.5,12.5,35.1c0,0-0.8,0.1-1.4-0.3
			c-1.4-0.9-2.3,0.3-3.1,0.2c-1.3-0.1-1.5-0.1-2.8,0.2C3733.3-224.7,3731.4-235.8,3730.6-245.7z M3685.6-243.4l1.5,0.7
			c-3.2,7.5-6.1,13.4-13.7,20.7l0-2.2C3678.7-229.4,3682.3-236.2,3685.6-243.4L3685.6-243.4z M3687.8-242.4c0.7,0.3,1.5,0.7,2.2,1.1
			c0.2,0.1,0.2,0.3,0.2,0.5c-0.3,0.7-1.5,1-2,1.2c-0.6,0.2-1.1,0.3-1.2,0.3c-0.6,0.2-0.4-0.5,0.3-1.9
			C3687.5-241.9,3687.6-242.4,3687.8-242.4z M3690.7-240.8c0.4,0,2.2,1,2.6,1.3c0.1,0.4-0.3,1.1-0.8,2.3c-0.9,1.9-1,2-1.3,0.4
			c0-0.3-0.3-1.2-0.5-1.8C3690.4-239.9,3690.4-240.7,3690.7-240.8z M3694-239.3c0,0,1,0.5,1.4,0.7c-4.7,14.1-17.1,25.8-17,25.6
			l-1.9-1.2C3684.7-221.7,3690.8-230.6,3694-239.3z M3689.1-239c0.5,0,0.1,0.6-0.6,1.9c-0.6,1.3-0.8,1.8-1.3,2
			c-0.8,0.3-1.9,0.3-2.9,0.5c-0.4,0.1-0.2-0.3,0.4-1.6c0.8-1.6,0.8-1.9,2-2.2C3687.4-238.6,3688.4-239.1,3689.1-239z M3690.7-236.2
			c0.5,1.8,0.5,2.1,0.1,2.7c-0.6,1.1-1.4,2.5-1.6,2.8c-0.5,0.9-0.7,0.7-1-1.5c-0.2-1.4-0.4-2-0.2-2.6c0.3-0.7,1.1-2.2,1.5-3.2
			C3690.2-239.9,3690.5-236.4,3690.7-236.2z M3699.3-237.8l2.5,0.8l-1.9,2.3c0,0,0.8-0.1,0.9-0.1c1.9,0.1,1.6,2.1,0.1,3.2
			c-0.6,0.6-3.7,2-3.7,2c-0.3-1.7-1-2.8-0.8-4.6c0.1-1,0.2-1.8,1.4-1.8c0.6,0,0.9,0.6,1.3,1.1L3699.3-237.8z M3743.7-235.7
			c0,0,1.5,0.8,2.8,1.8c1.8,1.4,2.1,3,0.3,3.6c-0.2,0.1-0.8,0-0.8,0c0.5,0.9,1.7,2.2,1.7,2.2c-0.6,0.4-1.4,0.7-2.3,1
			c0,0-0.2-2.2-0.4-3c0,0-0.2,0.5-0.5,0.7c-1.7,1.1-3.1-1-2.1-3.5C3742.9-234.4,3743.7-235.7,3743.7-235.7z M3724.8-235.3
			c4.3-0.1,1.8,7-0.4,6.5c0-0.1,1.8-4.2-0.7-4.9C3722.7-233.9,3723.6-235.3,3724.8-235.3L3724.8-235.3z M3717.8-234.8
			c1.3,0,2.3,0.9,1,1.5c-2,0.9-0.8,3.2-0.8,4.5c0,0.8-1.8-0.7-2.2-2.3C3715.4-233.1,3715.6-234.6,3717.8-234.8L3717.8-234.8z
			 M3686-234.1c0.3,0,0.5,0,0.6,0.1c0.1,0.3-0.5,1.4-1.3,2.7c-0.5,0.7-0.7,0.9-0.9,1.1c-0.7,0.4-1.6,0.3-2.4,0.3c-1.2,0-1,0,0.3-2.1
			c0.6-0.9,1-1.7,1.3-1.9C3683.6-233.8,3685.2-234.1,3686-234.1L3686-234.1z M3687.6-232.6c0,2.6,0.9,3.4,0.2,4.2
			c-0.8,1.3-1.8,2.6-2.1,3.1c-0.6,0.7-0.5,0.6-0.7-1.3c-0.1-1.4-0.2-2.3-0.1-2.8c0.5-1.3,1.1-1.9,1.8-3.2
			C3687.2-233.6,3687.6-233.5,3687.6-232.6L3687.6-232.6z M3721.5-231.3c1.2,0,2,1.4,2,2.6l-0.1,1.2c1.6-0.6,3.6,0,3.7,1.6
			c0.2,2.7-1.8,2.4-3.5,2.3c0.2,0.1,0.4,2.4-0.6,3.4c-1.6,1.8-4.5,0-3.7-2.6c0.2-0.5,0.2-0.9,0.2-0.9s-1,0.4-1.4,0.4
			c-3.2-0.1-2.9-4.7,0.3-4.1c0.6,0.1,1.1,0.3,1.1,0.3s-0.1-0.3-0.2-0.7C3718.8-229.7,3719.7-231.3,3721.5-231.3z M3784.7-230.5
			l1.7,1v1.9l-2.4-1.8L3784.7-230.5z M3682.6-229.2c0.7,0,1.2,0,1.1,0.2c0,0.3-1.5,2.4-2.3,3.4c-0.7,0.8-0.8,0.7-2.7,0.6
			c-0.7,0-1.2,0-1.2-0.2c0.8-1.1,2-2.5,2.8-3.7C3680.6-229.1,3681.7-229.2,3682.6-229.2z M3684.2-228.3c0.1,0,0.2,0.3,0.2,0.9
			c0,0.5,0.1,1.8,0.1,2.5c0.1,1.1,0.1,1.1-0.3,1.8c-0.6,0.6-1.2,1.5-1.9,2.2c-1.1,1.2-1,1.3-1-1.3c0-2.1-0.1-2.1,0.3-2.5
			c0.2-0.3,0.9-1.1,1.4-1.8C3683.7-227.7,3684-228.3,3684.2-228.3z M3694.7-227.9l2.3,1.2l-2.3,2.3c0,0,0.6,0,0.8,0
			c1.5,0.3,1.3,1.8-0.1,3c-0.9,0.6-4,1.7-4,1.7c-0.1-1.3-0.4-2.5-0.3-3.9c0-0.7,0.1-1.4,0.6-1.9c0.3-0.4,0.9-0.6,1.7-0.1
			c0.4,0.4,0.6,0.8,0.6,0.8L3694.7-227.9z M3721.5-227.1c-0.9,0-1.6,0.7-1.6,1.6s0.7,1.6,1.6,1.6c0.9,0,1.6-0.7,1.6-1.6
			S3722.4-227.1,3721.5-227.1z M3746.8-226.8c0,0,3,1.1,4.3,2.4c1.2,1.1,0.7,2.8-0.6,2.8c-0.1,0-0.6-0.1-0.6-0.1
			c0.4,0.6,1.8,2.2,1.8,2.2l-2.3,0.9c0,0-0.4-1.8-0.7-2.8c-0.8,1.9-2.8,0.7-2.9-0.5C3745.6-223.5,3746.3-225.1,3746.8-226.8
			L3746.8-226.8z M3721.5-226.6c0.6,0,1.1,0.5,1.1,1.1s-0.5,1.1-1.1,1.1s-1.1-0.5-1.1-1.1S3720.9-226.6,3721.5-226.6z M3677.7-224.3
			c0.8,0,1.8,0,2.2,0.1c0.3,0.3-0.4,1.1-1.7,2.5c-1.1,1.2-1.3,1-2.6,1c-2.2,0-2.3,0-1.3-1.1c1.1-1.3,1.8-2.1,2.3-2.4
			C3676.8-224.3,3677.2-224.3,3677.7-224.3L3677.7-224.3z M3680.4-223.2c0.2,0,0.2,0.6,0.1,1.9l-0.1,2.3l-1.7,1.7
			c-2,1.8-1.8,1.9-1.8,0.2c0-1.4,0-2.3,0.3-2.9c0.9-1.1,1.8-2,2.8-3C3680.2-223.1,3680.3-223.1,3680.4-223.2L3680.4-223.2z
			 M3724.7-222.6c0.5,0,1.7,2.1,2,3.9c0.7,4.1,3.1,6,4.8,4.4c0.7-1,0.8,0.1,0.7,0.6c-0.4,5.2-6.2,3-6.8-2.1c-2,1.3-3.9-1.4-2.7-1.3
			C3725.6-218.1,3724.8-220.7,3724.7-222.6L3724.7-222.6z M3718-222.5c0.3,1.8-2.9,4.9-4.7,2.7c-0.9-1.1-0.1-3.4,1.1-2
			C3715.6-220.8,3716.9-221.9,3718-222.5z M3674-220.1c0.7,0,1.6,0.1,2,0.1c0.6,0.1,0.2,0.3-1.1,1.5c-1.1,1-1.4,1.5-1.5,1
			c-0.1-0.7,0-1.5,0-2.5C3673.4-220,3673.7-220.1,3674-220.1z M3688.9-218.9l2,1.4l-1.9,1.8c1.7-0.1,1.9,1.6,1.2,2.5
			c-0.4,0.6-2.1,1.3-3.7,1.6c-1,0.2-1.8,0.3-1.8,0.3s0-0.8-0.1-2.1c-0.1-2.6,0.1-3.7,1.1-4.2c0.7-0.4,1.9,0.2,2.2,0.9
			c0.1,0.2,0.4,0.6,0.4,0.6L3688.9-218.9z M3676.3-218.7C3676.3-218.7,3676.3-218.7,3676.3-218.7c0.1,0.2-0.3,4.4-0.3,4.4l-2.8-1.6
			C3673.2-215.9,3676.1-218.7,3676.3-218.7L3676.3-218.7z M3751.2-218.2c2,1,3.5,0.8,4.9,2c1.2,0.6,0.8,2.3,0,2.7
			c-0.4,0.1-1,0.1-1,0.1c0.7,0.9,2.3,2,2.3,2l-2.5,1c0,0-0.3-1.7-0.7-2.6c-0.5,1.4-2,1.3-2.9,0.7c-0.6-0.5-0.9-2.1-0.6-3.5
			C3750.8-216.2,3751.2-218.2,3751.2-218.2L3751.2-218.2z M3738-178.5c-24.5,5.9-44.3,2.2-46.3,1.5l-1.6,2.3
			c-0.2,0.4-0.3,1.6-1.4,1.9l-1.6,2.4l0.3,0.3l-1.4,1.2l0.3,0.4l-1,1.5l-0.4,0l-2.4,3.6l0.4,0.4l-5.4,8.6l73.5,0
			C3746.8-162.3,3742.2-170.3,3738-178.5L3738-178.5z M3737.5-177.4l0.4,1.2c-1.2-0.2-2.6-0.2-4.1-0.3
			C3735.1-176.8,3736.4-177.1,3737.5-177.4z M3733.3-176.4c-2.3,1.1-3.7,2.4-4.8,3.8c-1.3-1-3-1.8-5.1-2.3L3733.3-176.4z
			 M3691.9-175.8l1,0.1c0,0-0.3,0.3-0.6,0.2C3692.2-175.5,3691.9-175.8,3691.9-175.8z M3738.8-175.2l0.7,1.3
			c-1.6-0.9-8.4-2.8-10.3,4c-2-2.8-10.4-6.8-14.7,1.8c-1.2-2.3-8.2-9-14.7-0.5c-2.5-5.3-4.6-5.7-9.3-5c3.3-3.2,7.9,0.1,9.9,2.9
			c5.5-4.6,10.2-3.2,14.2,0.5c5.2-5.7,10.4-4.4,14.1-1.5C3731.3-175.5,3733.8-176.6,3738.8-175.2L3738.8-175.2z M3696-175.1
			c3.3,0.4,6.6,0.7,9.9,0.8c-1.9,0.7-3.9,1.3-5.4,2.7C3699.3-173.2,3697.7-174.2,3696-175.1L3696-175.1z M3719.8-174.6
			c-1.8,0.9-3.7,2.1-5.3,3.5c-1.7-1.4-3.4-2.6-5.3-3.2C3712.6-174.1,3716.5-174.3,3719.8-174.6L3719.8-174.6z M3740.8-171.9
			c0,0-0.7,0.1-0.9,0.2c-2.9,0.8-2.3,4.9,0.7,4.9c0.3,0,1-0.1,1-0.1c-0.1,2.8,0.8,3.5,3.6,3.3l4.8,8.7l-71-0.3l4.5-7.3
			c2.3,0.3,3.7-1,3.2-3c0,0,1.4,0.4,1.8,0.4c2.6,0,3.2-4,0.8-4.7c-0.3-0.1-1-0.2-1-0.2c1.1-2.8,4.2-1.2,5.1,0c2-1.7,4.2-0.9,5.1,1.2
			c0,0-0.4-0.2-0.5-0.3c-2.3-1.7-4.5,1.8-2.2,3.5c0.2,0.2,0.7,0.3,0.7,0.3s-0.3,0.2-0.5,0.7c-1.2,2,0.7,4.5,3,3.8
			c1.8-0.7,1.8-2,1.8-3.5c0,0,0.6,0,1.2,0.1c2.1,0,2.7-2.7,1.4-4c-0.7-0.7-1.6-0.6-2.1-0.7c2.5-2.4,4.1-0.8,5.8,0.4
			c0.3,0,3-3.3,6.3-0.1c-1.6-0.4-3.2,0.6-3.2,2.3c0,1.1,0.8,2,2.4,2.1c-0.2,0.5-0.3,0.9-0.3,1.5c0,1.7,1.3,2.8,3,2.6
			c1.4-0.2,2.5-1.8,2-3.2c-0.2-0.6-0.5-0.8-0.5-0.8c3.8,0.5,3.8-4.4,0.8-4.7c-0.7-0.1-1.3,0.2-2,0.9c1.8-3.6,5-2.9,6.2-1.4
			c1.6-1.2,3.9-2.9,6.6,0.1c-0.4-0.1-1.1-0.1-1.6,0c-2.2,0.6-2.2,3.3-0.5,4.2c0.5,0.2,1.1,0.4,1.7,0.4c-0.6,2.3,2,4,3.8,2.9
			c1.3-0.8,1.6-2.7,0.2-4.4c2.4-0.1,2.6-3.1,1.2-4.1c-1.1-0.8-2.3-0.4-3.2,0.7c-0.3-0.9,2-3.8,5.3-1.7
			C3737.1-172.9,3738.8-173.4,3740.8-171.9L3740.8-171.9z M3741.9-169.6l0.9,1.7C3742.2-167.8,3741.3-168.5,3741.9-169.6z
			 M3729.9-167.8c0.6,0,1,0.5,1,1.1c0,0.6-0.5,1.1-1,1.1s-1-0.5-1-1.1C3728.9-167.4,3729.4-167.8,3729.9-167.8z M3686.8-167.8
			c0.1,0.6,0.2,1.1-0.8,1.2L3686.8-167.8z M3698.8-166.8c0.5,0,1,0.4,1,1s-0.4,1-1,1s-1-0.4-1-1S3698.3-166.8,3698.8-166.8z
			 M3714.8-166.5c0.6,0,1,0.5,1,1s-0.5,1-1,1s-1-0.5-1-1S3714.2-166.5,3714.8-166.5z"/>
		<path id="path153-6-3-1-9-0-4-7" d="M3681.8-356.8c-7.3,10.5-15.2,16.5-15.3,24.7c0,2.7,1.4,7.2,5.9,8c2.9,0.6,6.9-1.8,7-6.6
			c0-1,1-0.9,1,0.4c-0.1,3.8-1.3,8.2-3.3,11.8c3.2,0,6.4,0,9.6,0c-2-3.6-3.2-8-3.3-11.8c0-1.3,1-1.3,1-0.4c0.1,4.8,4.1,7.1,7,6.6
			c4.5-0.9,5.9-5.4,5.9-8C3697-340.3,3689.1-346.3,3681.8-356.8L3681.8-356.8z"/>
		<path id="path153-6-3-1-8-6-4-8-4" d="M3764.3-160.3c-7.3-10.5-15.2-16.5-15.3-24.7c0-2.7,1.4-7.2,5.9-8c2.9-0.6,6.9,1.8,7,6.6
			c0,1,1,0.9,1-0.4c-0.1-3.8-1.3-8.2-3.3-11.8c3.2,0,6.4,0,9.6,0c-2,3.6-3.2,8-3.3,11.8c0,1.3,1,1.3,1,0.4c0.1-4.8,4.1-7.1,7-6.6
			c4.5,0.9,5.9,5.4,5.9,8C3779.5-176.8,3771.6-170.8,3764.3-160.3L3764.3-160.3z"/>
	</g>
</g>
</svg>
