<?xml version="1.0" encoding="utf-8"?>
<!DOCTYPE svg PUBLIC "-//W3C//DTD SVG 1.1//EN" "http://www.w3.org/Graphics/SVG/1.1/DTD/svg11.dtd">
<svg version="1.1"
	 id="svg4138" xmlns:rdf="http://www.w3.org/1999/02/22-rdf-syntax-ns#" xmlns:dc="http://purl.org/dc/elements/1.1/" xmlns:cc="http://creativecommons.org/ns#" xmlns:svg="http://www.w3.org/2000/svg"
	 xmlns="http://www.w3.org/2000/svg" xmlns:xlink="http://www.w3.org/1999/xlink" x="0px" y="0px" width="178.6px" height="249.4px"
	 viewBox="0 0 178.6 249.4" enable-background="new 0 0 178.6 249.4" xml:space="preserve">
<g id="layer1" transform="translate(-51.242967,-110.74245)">
	<g id="g5120" transform="matrix(0.99999712,0,0,1.000002,-411.79075,1199.6125)">
		<path id="bounds" fill="#FBFBF6" stroke="#7F7F7F" stroke-width="0.4" d="M471.9-1088.5h160.8
			c4.7,0,8.5,3.8,8.5,8.5v231.6c0,4.7-3.8,8.5-8.5,8.5H471.9c-4.7,0-8.5-3.8-8.5-8.5V-1080C463.4-1084.7,467.2-1088.5,471.9-1088.5z
			"/>
		<path id="pip-large-1" d="M552.3-983c-7.8,0.2-11.3,9-5.5,15.8c0.8,1,0.9,1.6-0.6,0.6c-3.9-2.6-11.4-0.9-11.8,7.1
			c-0.5,9.8,13.3,12.7,15.8,2.2c0.1-1.1,1-1.1,0.8,0.5c-0.2,4.2-1.6,8.2-3.4,12.1c3.1,0,6.5,0,9.3,0c-1.8-3.9-3.1-7.8-3.4-12.1
			c-0.2-1.6,0.7-1.6,0.8-0.5c2.6,10.4,16.3,7.6,15.8-2.2c-0.4-8-7.9-9.7-11.8-7.1c-1.5,1-1.5,0.4-0.6-0.6
			C563.7-974,560.1-982.8,552.3-983C552.3-983,552.3-983,552.3-983L552.3-983z"/>
		<path id="pip-small-2" d="M627.5-879.7c3.1-0.1,4.5-3.7,2.2-6.6c-0.3-0.4-0.4-0.7,0.2-0.3c1.6,1.1,4.5,0.4,4.7-2.9
			c0.2-4.1-5.3-5.3-6.3-0.9c-0.1,0.5-0.4,0.4-0.3-0.2c0.1-1.8,0.6-3.4,1.4-5c-1.2,0-2.5,0-3.7,0c0.7,1.6,1.3,3.3,1.4,5
			c0.1,0.7-0.3,0.7-0.3,0.2c-1-4.4-6.5-3.2-6.3,0.9c0.2,3.3,3.1,4,4.7,2.9c0.6-0.4,0.6-0.2,0.2,0.3
			C623-883.4,624.4-879.7,627.5-879.7C627.5-879.7,627.5-879.7,627.5-879.7L627.5-879.7z"/>
		<path id="rank-1" d="M469.1-1051.1v-2.2h2.1l4.6-24.1h2.6l5,24.1h1.7v2.2h-5.9v-2.2h1.6l-0.6-3.7h-6l-0.5,3.7h1.6v2.2
			H469.1z M479.7-1059.7l-2.6-12.9l-2.4,12.9H479.7z"/>
		<path id="rank-2" d="M619.5-877.2v2.2h2.1l4.6,24.1h2.6l5-24.1h1.7v-2.2h-5.9v2.2h1.6l-0.6,3.7h-6l-0.5-3.7h1.6v-2.2
			H619.5L619.5-877.2z M630.1-868.6l-2.6,12.9l-2.4-12.9H630.1z"/>
		<path id="pip-small-1" d="M477.1-1048.6c-3.1,0.1-4.5,3.7-2.2,6.6c0.3,0.4,0.4,0.7-0.2,0.3
			c-1.6-1.1-4.6-0.4-4.7,2.9c-0.2,4.1,5.3,5.3,6.3,0.9c0.1-0.5,0.4-0.4,0.3,0.2c-0.1,1.8-0.6,3.4-1.4,5c1.2,0,2.5,0,3.7,0
			c-0.7-1.6-1.3-3.3-1.4-5c-0.1-0.7,0.3-0.7,0.3-0.2c1,4.4,6.5,3.2,6.3-0.9c-0.2-3.3-3.1-4-4.7-2.9c-0.6,0.4-0.6,0.2-0.2-0.3
			C481.7-1044.9,480.3-1048.5,477.1-1048.6C477.1-1048.6,477.1-1048.6,477.1-1048.6L477.1-1048.6z"/>
	</g>
</g>
</svg>
