<?xml version="1.0" encoding="utf-8"?>
<!DOCTYPE svg PUBLIC "-//W3C//DTD SVG 1.1//EN" "http://www.w3.org/Graphics/SVG/1.1/DTD/svg11.dtd">
<svg version="1.1"
	 id="svg5180" xmlns:rdf="http://www.w3.org/1999/02/22-rdf-syntax-ns#" xmlns:dc="http://purl.org/dc/elements/1.1/" xmlns:cc="http://creativecommons.org/ns#" xmlns:svg="http://www.w3.org/2000/svg"
	 xmlns="http://www.w3.org/2000/svg" xmlns:xlink="http://www.w3.org/1999/xlink" x="0px" y="0px" width="178.6px" height="249.4px"
	 viewBox="0 0 178.6 249.4" enable-background="new 0 0 178.6 249.4" xml:space="preserve">
<g id="layer1" transform="translate(-145.52868,-370.74236)">
	<g id="g11425-5-5" transform="matrix(0.99553774,0,0,0.99680134,-291.39844,1431.8377)">
		<g id="g9664-0-2" transform="translate(178.95278,-1434.2756)">
			<path id="rect9666-2-2" fill="#FBFBF6" stroke="#7F7F7F" stroke-width="0.4" d="M268.9,370.2h161.5c4.7,0,8.5,3.8,8.5,8.5
				v232.4c0,4.7-3.8,8.5-8.5,8.5H268.9c-4.7,0-8.5-3.8-8.5-8.5V378.7C260.3,374,264.2,370.2,268.9,370.2z"/>
		</g>
		<g id="g9684-3-0" transform="translate(439.38585,-1064)">
		</g>
		<g id="g9690-5-6" transform="translate(465.9774,-1083.9055)">
		</g>
		<path id="path9698-0-0" fill="#D40000" d="M453.1-1008.1c0,0-1.8-2.6-4.2-5.6c-1.6-2-2.9-4.2-3-6.1c-0.1-2.1,1.2-4.3,3.5-4.4
			c2.3-0.1,3.3,1.6,3.7,3.1c0.4-1.4,1.3-3.2,3.7-3.1c2.3,0.1,3.6,2.3,3.5,4.4c-0.1,1.9-1.4,4-3,6.1
			C454.8-1010.7,453.1-1008.1,453.1-1008.1z"/>
		<path id="path9700-3-2" fill="#D40000" d="M604.1-870.6c0,0-1.8,2.6-4.2,5.6c-1.6,2-2.9,4.2-3,6.1c-0.1,2.1,1.2,4.3,3.5,4.4
			c2.3,0.1,3.3-1.6,3.7-3.1c0.4,1.4,1.3,3.2,3.7,3.1c2.3-0.1,3.6-2.3,3.5-4.4c-0.1-1.9-1.4-4-3-6.1
			C605.9-868.1,604.1-870.6,604.1-870.6z"/>
		<path id="path9714-6-6" fill="#D40000" d="M528.6-920.2c0,0-3.7-6.1-8.8-13.3c-3.4-4.8-6.1-10-6.3-14.5
			c-0.3-5.1,2.4-10.3,7.4-10.5c4.9-0.2,6.9,4,7.7,7.4c0.8-3.5,2.8-7.7,7.7-7.4c4.9,0.2,7.6,5.4,7.4,10.5c-0.3,4.5-2.9,9.7-6.3,14.5
			C532.3-926.3,528.6-920.2,528.6-920.2z"/>
		<path id="path41-87-8-3-9" fill="#D40000" d="M445-1026.6v-2.3h2.2l4.6-24.1h2.6l5.1,24.1h1.7v2.3h-5.9v-2.3h1.6l-0.6-3.7h-6
			l-0.5,3.7h1.6v2.3H445z M455.7-1035.2l-2.6-12.9l-2.4,12.9H455.7z"/>
		<path id="path41-8-5-1-8-7" fill="#D40000" d="M596-852.1v2.3h2.2l4.6,24.1h2.6l5.1-24.1h1.7v-2.3h-5.9v2.3h1.6l-0.6,3.7h-6
			l-0.5-3.7h1.6v-2.3H596z M606.7-843.5l-2.6,12.9l-2.4-12.9H606.7z"/>
	</g>
</g>
</svg>
