<?xml version="1.0" encoding="utf-8"?>
<!DOCTYPE svg PUBLIC "-//W3C//DTD SVG 1.1//EN" "http://www.w3.org/Graphics/SVG/1.1/DTD/svg11.dtd">
<svg version="1.1"
	 id="svg6304" xmlns:rdf="http://www.w3.org/1999/02/22-rdf-syntax-ns#" xmlns:dc="http://purl.org/dc/elements/1.1/" xmlns:cc="http://creativecommons.org/ns#" xmlns:svg="http://www.w3.org/2000/svg"
	 xmlns="http://www.w3.org/2000/svg" xmlns:xlink="http://www.w3.org/1999/xlink" x="0px" y="0px" width="178.6px" height="249.4px"
	 viewBox="0 0 178.6 249.4" enable-background="new 0 0 178.6 249.4" xml:space="preserve">
<g id="layer1" transform="translate(-248.38583,-393.59955)">
	<g id="g8409-3-3" transform="matrix(0.99553774,0,0,0.99680134,-82.240184,863.99856)">
		<path id="rect6355-6-85-62-9-7" fill="#FBFBF6" stroke="#7F7F7F" stroke-width="0.4" d="M341.1-471.5h161.5
			c4.7,0,8.5,3.8,8.5,8.5v232.4c0,4.7-3.8,8.5-8.5,8.5H341.1c-4.7,0-8.5-3.8-8.5-8.5V-463C332.5-467.7,336.3-471.5,341.1-471.5z"/>
		<path id="path153-0-1-2-5-5-5-3-4" d="M346.3-431.5c-3.4,4.4-7.1,6.9-7.2,10.3c0,1.1,0.7,3,2.8,3.4c1.4,0.2,3.2-0.8,3.3-2.8
			c0-0.4,0.5-0.4,0.5,0.2c-0.1,1.6-0.6,3.4-1.6,4.9c1.5,0,3,0,4.5,0c-0.9-1.5-1.5-3.3-1.6-4.9c0-0.5,0.5-0.6,0.5-0.2
			c0,2,1.9,3,3.3,2.8c2.1-0.4,2.8-2.2,2.8-3.4C353.4-424.6,349.7-427.1,346.3-431.5z"/>
		<path id="path153-0-1-2-5-6-5-9-1-9" d="M497.3-262c-3.4-4.4-7.1-6.9-7.2-10.3c0-1.1,0.7-3,2.8-3.4c1.4-0.2,3.2,0.8,3.3,2.8
			c0,0.4,0.5,0.4,0.5-0.2c-0.1-1.6-0.6-3.4-1.6-4.9c1.5,0,3,0,4.5,0c-0.9,1.5-1.5,3.3-1.6,4.9c0,0.5,0.5,0.6,0.5,0.2
			c0-2,1.9-3,3.3-2.8c2.1,0.4,2.8,2.2,2.8,3.4C504.5-268.9,500.8-266.4,497.3-262z"/>
		<path id="path153-6-3-1-6-92-7-2-9-8" d="M421.8-366c-7.4,10.5-15.3,16.6-15.4,24.8c0,2.7,1.4,7.2,5.9,8c2.9,0.6,6.9-1.8,7-6.6
			c0-1,1-0.9,1,0.4c-0.1,3.8-1.3,8.2-3.4,11.8c3.2,0,6.4,0,9.7,0c-2-3.6-3.2-8-3.4-11.8c0-1.3,1-1.3,1-0.4c0.1,4.8,4.1,7.2,7,6.6
			c4.5-0.9,5.9-5.4,5.9-8C437.1-349.4,429.2-355.5,421.8-366z"/>
		<path id="path41-4-9-2" d="M338.2-434v-2.3h2.2l4.6-24.1h2.6l5.1,24.1h1.7v2.3h-5.9v-2.3h1.6l-0.6-3.7h-6l-0.5,3.7h1.6v2.3H338.2z
			 M348.9-442.6l-2.6-12.9l-2.4,12.9H348.9z"/>
		<path id="path41-4-2-4-0" d="M489.2-259.5v2.3h2.2l4.6,24.1h2.6l5.1-24.1h1.7v-2.3h-5.9v2.3h1.6l-0.6,3.7h-6l-0.5-3.7h1.6v-2.3
			H489.2L489.2-259.5z M499.9-250.9l-2.6,12.9l-2.4-12.9H499.9z"/>
	</g>
</g>
</svg>
