<?xml version="1.0" encoding="utf-8"?>
<!DOCTYPE svg PUBLIC "-//W3C//DTD SVG 1.1//EN" "http://www.w3.org/Graphics/SVG/1.1/DTD/svg11.dtd">
<svg version="1.1"
	 id="svg4200" xmlns:rdf="http://www.w3.org/1999/02/22-rdf-syntax-ns#" xmlns:dc="http://purl.org/dc/elements/1.1/" xmlns:cc="http://creativecommons.org/ns#" xmlns:svg="http://www.w3.org/2000/svg"
	 xmlns="http://www.w3.org/2000/svg" xmlns:xlink="http://www.w3.org/1999/xlink" x="0px" y="0px" width="178.6px" height="249.4px"
	 viewBox="0 0 178.6 249.4" enable-background="new 0 0 178.6 249.4" xml:space="preserve">
<g id="layer1" transform="translate(-263.38582,-376.4567)">
	<g id="g5421" transform="translate(-463.87469,1465.3249)">
		<g id="layer1-33-1-8-0-7" transform="matrix(0.99553774,0,0,0.99680134,468.48764,-1457.4607)">
			<path id="rect6355-6-85-4-0-5" fill="#FBFBF6" stroke="#7F7F7F" stroke-width="0.4" d="M268.9,370.2h161.5
				c4.7,0,8.5,3.8,8.5,8.5v232.4c0,4.7-3.8,8.5-8.5,8.5H268.9c-4.7,0-8.5-3.8-8.5-8.5V378.7C260.3,374,264.2,370.2,268.9,370.2z"/>
		</g>
		<path id="path147-0-8-1-6-7-2-1-6-3" d="M816.5-1062.1c-7.8,0.2-11.3,9-5.5,15.8c0.8,1,0.9,1.6-0.6,0.6
			c-3.9-2.6-11.4-0.9-11.8,7.1c-0.5,9.8,13.3,12.7,15.8,2.2c0.1-1.1,1-1.1,0.8,0.5c-0.2,4.2-1.6,8.2-3.4,12.1c3.1,0,6.5,0,9.3,0
			c-1.8-3.9-3.1-7.8-3.4-12.1c-0.2-1.6,0.7-1.6,0.8-0.5c2.6,10.4,16.3,7.6,15.8-2.2c-0.4-8-7.9-9.7-11.8-7.1c-1.5,1-1.5,0.4-0.6-0.6
			C827.9-1053.1,824.4-1061.9,816.5-1062.1C816.6-1062.1,816.6-1062.1,816.5-1062.1L816.5-1062.1z"/>
		<path id="path147-0-8-1-6-1-4-5-4-2" d="M816.5-865.6c-7.8-0.2-11.3-9-5.5-15.8c0.8-1,0.9-1.6-0.6-0.6c-3.9,2.6-11.4,0.9-11.8-7.1
			c-0.5-9.8,13.3-12.7,15.8-2.2c0.1,1.1,1,1.1,0.8-0.5c-0.2-4.2-1.6-8.2-3.4-12.1c3.1,0,6.5,0,9.3,0c-1.8,3.9-3.1,7.8-3.4,12.1
			c-0.2,1.6,0.7,1.6,0.8,0.5c2.6-10.4,16.3-7.6,15.8,2.2c-0.4,8-7.9,9.7-11.8,7.1c-1.5-1-1.5-0.4-0.6,0.6
			C827.9-874.5,824.4-865.7,816.5-865.6C816.6-865.6,816.6-865.6,816.5-865.6L816.5-865.6z"/>
		<path id="path147-6-9-8-7-0-5-4-9-1" d="M891.7-879.7c3.1-0.1,4.5-3.7,2.2-6.6c-0.3-0.4-0.4-0.7,0.2-0.3c1.6,1.1,4.6,0.4,4.7-2.9
			c0.2-4.1-5.3-5.3-6.3-0.9c-0.1,0.5-0.4,0.4-0.3-0.2c0.1-1.8,0.6-3.4,1.4-5c-1.2,0-2.5,0-3.7,0c0.7,1.6,1.3,3.3,1.4,5
			c0.1,0.7-0.3,0.7-0.3,0.2c-1-4.4-6.5-3.2-6.3,0.9c0.2,3.3,3.1,4,4.7,2.9c0.6-0.4,0.6-0.2,0.2,0.3
			C887.2-883.4,888.6-879.7,891.7-879.7C891.7-879.7,891.7-879.7,891.7-879.7L891.7-879.7z"/>
		<path id="path147-6-9-8-7-4-5-9-2-7" d="M741.4-1048.6c-3.1,0.1-4.5,3.7-2.2,6.6c0.3,0.4,0.4,0.7-0.2,0.3
			c-1.6-1.1-4.5-0.4-4.7,2.9c-0.2,4.1,5.3,5.3,6.3,0.9c0.1-0.5,0.4-0.4,0.3,0.2c-0.1,1.8-0.6,3.4-1.4,5c1.2,0,2.5,0,3.7,0
			c-0.7-1.6-1.3-3.3-1.4-5c-0.1-0.7,0.3-0.7,0.3-0.2c1,4.4,6.5,3.2,6.3-0.9c-0.2-3.3-3.1-4-4.7-2.9c-0.6,0.4-0.6,0.2-0.2-0.3
			C745.9-1044.9,744.5-1048.5,741.4-1048.6C741.4-1048.6,741.4-1048.6,741.4-1048.6L741.4-1048.6z"/>
		<path id="path15-9-1-0-1" d="M733.5-1051.2l0.1-1.6c0.4-5,1.5-6.7,7.6-11.9c3-2.5,3.9-3.8,4.1-5.2c0.4-3.4-2.6-4.5-4.6-4.5
			c-2.6,0-5.4,1.5-4.1,5.2l-2.9,0.9c-0.6-3.4,0-6.5,2.7-7.9c3.6-1.8,8.2-1.1,10.5,1.8c1.6,1.9,1.9,4.6,1.1,6.7
			c-2.4,5.4-10.7,7.7-11.4,13.9h9.2v-3.5h2.7v6.4L733.5-1051.2L733.5-1051.2z"/>
		<path id="path15-5-7-4-9-4" d="M899.2-877.1l-0.1,1.6c-0.4,5-1.5,6.7-7.6,11.9c-3,2.5-3.9,3.8-4.1,5.2c-0.4,3.4,2.6,4.5,4.6,4.5
			c2.6,0,5.4-1.5,4.1-5.2l2.9-0.9c0.6,3.4,0,6.5-2.7,7.9c-3.6,1.8-8.2,1.1-10.5-1.8c-1.6-1.9-1.9-4.6-1.1-6.7
			c2.4-5.4,10.7-7.7,11.4-13.9H887v3.5h-2.7v-6.4L899.2-877.1L899.2-877.1z"/>
	</g>
</g>
</svg>
