<?xml version="1.0" encoding="utf-8"?>
<!DOCTYPE svg PUBLIC "-//W3C//DTD SVG 1.1//EN" "http://www.w3.org/Graphics/SVG/1.1/DTD/svg11.dtd">
<svg version="1.1"
	 id="svg7349" xmlns:rdf="http://www.w3.org/1999/02/22-rdf-syntax-ns#" xmlns:dc="http://purl.org/dc/elements/1.1/" xmlns:cc="http://creativecommons.org/ns#" xmlns:svg="http://www.w3.org/2000/svg"
	 xmlns="http://www.w3.org/2000/svg" xmlns:xlink="http://www.w3.org/1999/xlink" x="0px" y="0px" width="178.6px" height="249.4px"
	 viewBox="0 0 178.6 249.4" enable-background="new 0 0 178.6 249.4" xml:space="preserve">
<g id="layer1" transform="translate(4.768187e-6,-740.55021)">
	<g id="g6716" transform="matrix(0.99553619,0,0,0.99680446,-723.5161,771.39653)">
		<path id="rect6486-8" fill="#FBFBF6" stroke="#7F7F7F" stroke-width="0.4" d="M735.7-30.5h161.5c4.7,0,8.5,3.8,8.5,8.5v232.4
			c0,4.7-3.8,8.5-8.5,8.5H735.7c-4.7,0-8.5-3.8-8.5-8.5V-22C727.2-26.7,731-30.5,735.7-30.5z"/>
		<path id="path6516-8" fill="#D40000" d="M816.5,34c-4.1-6.9-8.5-13.5-14-19.2c5.5-5.7,9.8-12.3,14-19.2c4.1,6.9,8.5,13.5,14,19.2
			C825,20.5,820.6,27.2,816.5,34z"/>
		<path id="path6518-2" fill="#D40000" d="M740.9,25.4c-1.7-2.9-3.5-5.6-5.8-8c2.3-2.4,4.1-5.1,5.8-8c1.7,2.9,3.5,5.6,5.8,8
			C744.5,19.8,742.7,22.6,740.9,25.4z"/>
		<path id="path6522-0" fill="#D40000" d="M892,178.9c-1.7-2.9-3.5-5.6-5.8-8c2.3-2.4,4.1-5.1,5.8-8c1.7,2.9,3.5,5.6,5.8,8
			C895.5,173.3,893.7,176.1,892,178.9z"/>
		<path id="path6538-6" fill="#D40000" d="M816.5,192.7c-4.1-6.9-8.5-13.5-14-19.2c5.5-5.7,9.8-12.3,14-19.2
			c4.1,6.9,8.5,13.5,14,19.2C825,179.2,820.6,185.9,816.5,192.7z"/>
		<path id="path15-34-1-4-2" fill="#D40000" d="M733.4,6.9l0.1-1.6c0.4-5,1.5-6.7,7.6-12c3-2.5,4-3.8,4.1-5.3
			c0.4-3.4-2.7-4.5-4.6-4.5c-2.6,0-5.5,1.5-4.1,5.2l-2.9,0.9c-0.6-3.4,0-6.6,2.7-8c3.6-1.8,8.2-1.1,10.5,1.8
			c1.6,1.9,1.9,4.6,1.1,6.7c-2.5,5.4-10.8,7.7-11.5,14h9.2V0.5h2.7v6.4L733.4,6.9L733.4,6.9z"/>
		<path id="path15-5-4-6-4" fill="#D40000" d="M899.5,181.5l-0.1,1.6c-0.4,5-1.5,6.7-7.6,12c-3,2.5-4,3.8-4.1,5.3
			c-0.4,3.4,2.7,4.5,4.6,4.5c2.6,0,5.5-1.5,4.1-5.2l2.9-0.9c0.6,3.4,0,6.6-2.7,8c-3.6,1.8-8.2,1.1-10.5-1.8
			c-1.6-1.9-1.9-4.6-1.1-6.7c2.5-5.4,10.8-7.7,11.5-14h-9.2v3.5h-2.7v-6.4L899.5,181.5L899.5,181.5z"/>
	</g>
</g>
</svg>
