<?xml version="1.0" encoding="utf-8"?>
<!DOCTYPE svg PUBLIC "-//W3C//DTD SVG 1.1//EN" "http://www.w3.org/Graphics/SVG/1.1/DTD/svg11.dtd">
<svg version="1.1"
	 id="svg4267" xmlns:rdf="http://www.w3.org/1999/02/22-rdf-syntax-ns#" xmlns:dc="http://purl.org/dc/elements/1.1/" xmlns:cc="http://creativecommons.org/ns#" xmlns:svg="http://www.w3.org/2000/svg"
	 xmlns="http://www.w3.org/2000/svg" xmlns:xlink="http://www.w3.org/1999/xlink" x="0px" y="0px" width="178.6px" height="249.4px"
	 viewBox="0 0 178.6 249.4" enable-background="new 0 0 178.6 249.4" xml:space="preserve">
<g id="layer1" transform="translate(-205.52868,-159.3138)">
	<g id="g5431" transform="translate(-785.95687,1248.182)">
		<g id="layer1-33-1-4-5-7" transform="matrix(0.99553774,0,0,0.99680134,732.71268,-1457.4607)">
			<path id="rect6355-6-85-2-7-5" fill="#FBFBF6" stroke="#7F7F7F" stroke-width="0.4" d="M268.9,370.2h161.5
				c4.7,0,8.5,3.8,8.5,8.5v232.4c0,4.7-3.8,8.5-8.5,8.5H268.9c-4.7,0-8.5-3.8-8.5-8.5V378.7C260.3,374,264.2,370.2,268.9,370.2z"/>
		</g>
		<path id="path147-0-8-1-6-7-2-5-9-2" d="M1080.8-1062.1c-7.8,0.2-11.3,9-5.5,15.8c0.8,1,0.9,1.6-0.6,0.6
			c-3.9-2.6-11.4-0.9-11.8,7.1c-0.5,9.8,13.3,12.7,15.8,2.2c0.1-1.1,1-1.1,0.8,0.5c-0.2,4.2-1.6,8.2-3.4,12.1c3.1,0,6.5,0,9.3,0
			c-1.8-3.9-3.1-7.8-3.4-12.1c-0.2-1.6,0.7-1.6,0.8-0.5c2.6,10.4,16.3,7.6,15.8-2.2c-0.4-8-7.9-9.7-11.8-7.1c-1.5,1-1.5,0.4-0.6-0.6
			C1092.1-1053.1,1088.6-1061.9,1080.8-1062.1C1080.8-1062.1,1080.8-1062.1,1080.8-1062.1L1080.8-1062.1z"/>
		<path id="path147-0-8-1-6-1-4-3-4-3" d="M1080.8-865.6c-7.8-0.2-11.3-9-5.5-15.8c0.8-1,0.9-1.6-0.6-0.6
			c-3.9,2.6-11.4,0.9-11.8-7.1c-0.5-9.8,13.3-12.7,15.8-2.2c0.1,1.1,1,1.1,0.8-0.5c-0.2-4.2-1.6-8.2-3.4-12.1c3.1,0,6.5,0,9.3,0
			c-1.8,3.9-3.1,7.8-3.4,12.1c-0.2,1.6,0.7,1.6,0.8,0.5c2.6-10.4,16.3-7.6,15.8,2.2c-0.4,8-7.9,9.7-11.8,7.1c-1.5-1-1.5-0.4-0.6,0.6
			C1092.1-874.5,1088.6-865.7,1080.8-865.6C1080.8-865.6,1080.8-865.6,1080.8-865.6L1080.8-865.6z"/>
		<path id="path147-0-8-1-6-1-1-0-4-8-8" d="M1080.8-983c-7.8,0.2-11.3,9-5.5,15.8c0.8,1,0.9,1.6-0.6,0.6
			c-3.9-2.6-11.4-0.9-11.8,7.1c-0.5,9.8,13.3,12.7,15.8,2.2c0.1-1.1,1-1.1,0.8,0.5c-0.2,4.2-1.6,8.2-3.4,12.1c3.1,0,6.5,0,9.3,0
			c-1.8-3.9-3.1-7.8-3.4-12.1c-0.2-1.6,0.7-1.6,0.8-0.5c2.6,10.4,16.3,7.6,15.8-2.2c-0.4-8-7.9-9.7-11.8-7.1c-1.5,1-1.5,0.4-0.6-0.6
			C1092.1-974,1088.6-982.8,1080.8-983C1080.8-983,1080.8-983,1080.8-983L1080.8-983z"/>
		<path id="path147-6-9-8-7-0-5-5-1-4" d="M1156-879.7c3.1-0.1,4.5-3.7,2.2-6.6c-0.3-0.4-0.4-0.7,0.2-0.3c1.6,1.1,4.6,0.4,4.7-2.9
			c0.2-4.1-5.3-5.3-6.3-0.9c-0.1,0.5-0.4,0.4-0.3-0.2c0.1-1.8,0.6-3.4,1.4-5c-1.2,0-2.5,0-3.7,0c0.7,1.6,1.3,3.3,1.4,5
			c0.1,0.7-0.3,0.7-0.3,0.2c-1-4.4-6.5-3.2-6.3,0.9c0.2,3.3,3.1,4,4.7,2.9c0.6-0.4,0.6-0.2,0.2,0.3
			C1151.4-883.4,1152.8-879.7,1156-879.7L1156-879.7L1156-879.7z"/>
		<path id="path147-6-9-8-7-4-5-8-2-3" d="M1005.6-1048.6c-3.1,0.1-4.5,3.7-2.2,6.6c0.3,0.4,0.4,0.7-0.2,0.3
			c-1.6-1.1-4.5-0.4-4.7,2.9c-0.2,4.1,5.3,5.3,6.3,0.9c0.1-0.5,0.4-0.4,0.3,0.2c-0.1,1.8-0.6,3.4-1.4,5c1.2,0,2.5,0,3.7,0
			c-0.7-1.6-1.3-3.3-1.4-5c-0.1-0.7,0.3-0.7,0.3-0.2c1,4.4,6.5,3.2,6.3-0.9c-0.2-3.3-3.1-4-4.7-2.9c-0.6,0.4-0.6,0.2-0.2-0.3
			C1010.1-1044.9,1008.7-1048.5,1005.6-1048.6L1005.6-1048.6L1005.6-1048.6z"/>
		<path id="path17-9-7-6-4" d="M997.1-1056.9l2-1.5c1.8,2.9,3.7,4.7,6.7,4.4c4.5-0.3,6.4-5,5.4-8.6c-0.9-3.2-4.6-4.8-7.6-3.1
			c-0.7,0.4-1.4,0.7-1.5,0.7c-0.3,0-1-1.4-0.9-1.8c2-2.9,6.8-8,6.8-8h-7.6v3.4h-2.9v-6.1h14.8v2.1c0,0-4,4.1-5.3,6.4
			c3.2,0.1,5.8,2.2,6.7,5.4c0.5,1.7,0.3,5.6-0.4,7.3c-1.2,2.8-4.4,5.1-7.4,5.2C1001-1050.8,998.4-1054.3,997.1-1056.9L997.1-1056.9
			L997.1-1056.9z"/>
		<path id="path17-5-0-1-5-7" d="M1164.5-871.4l-2,1.5c-1.8-2.9-3.7-4.7-6.7-4.4c-4.5,0.3-6.4,5-5.4,8.6c0.9,3.2,4.6,4.8,7.6,3.1
			c0.7-0.4,1.4-0.7,1.5-0.7c0.3,0,1,1.4,0.9,1.8c-2,2.9-6.8,8-6.8,8h7.6v-3.4h2.9v6.1h-14.8v-2.1c0,0,4-4.1,5.3-6.4
			c-3.2-0.1-5.8-2.2-6.7-5.4c-0.5-1.7-0.3-5.6,0.4-7.3c1.2-2.8,4.4-5.1,7.4-5.2C1160.5-877.5,1163.2-874,1164.5-871.4L1164.5-871.4z
			"/>
	</g>
</g>
</svg>
