<?xml version="1.0" encoding="utf-8"?>
<!DOCTYPE svg PUBLIC "-//W3C//DTD SVG 1.1//EN" "http://www.w3.org/Graphics/SVG/1.1/DTD/svg11.dtd">
<svg version="1.1"
	 id="svg7413" xmlns:rdf="http://www.w3.org/1999/02/22-rdf-syntax-ns#" xmlns:dc="http://purl.org/dc/elements/1.1/" xmlns:cc="http://creativecommons.org/ns#" xmlns:svg="http://www.w3.org/2000/svg"
	 xmlns="http://www.w3.org/2000/svg" xmlns:xlink="http://www.w3.org/1999/xlink" x="0px" y="0px" width="178.6px" height="249.4px"
	 viewBox="0 0 178.6 249.4" enable-background="new 0 0 178.6 249.4" xml:space="preserve">
<g id="layer1" transform="translate(-3.7936943e-6,-740.55055)">
	<g id="g6725" transform="matrix(0.99553491,0,0,0.99680337,-986.56047,771.39684)">
		<path id="rect6554-0" fill="#FBFBF6" stroke="#7F7F7F" stroke-width="0.4" d="M999.9-30.5h161.5c4.7,0,8.5,3.8,8.5,8.5v232.4
			c0,4.7-3.8,8.5-8.5,8.5H999.9c-4.7,0-8.5-3.8-8.5-8.5V-22C991.4-26.7,995.2-30.5,999.9-30.5z"/>
		<path id="path6584-3" fill="#D40000" d="M1080.7,34c-4.1-6.9-8.5-13.5-14-19.2c5.5-5.7,9.8-12.3,14-19.2c4.1,6.9,8.5,13.5,14,19.2
			C1089.2,20.5,1084.8,27.2,1080.7,34z"/>
		<path id="path6586-2" fill="#D40000" d="M1005.2,25.4c-1.7-2.9-3.5-5.6-5.8-8c2.3-2.4,4.1-5.1,5.8-8c1.7,2.9,3.5,5.6,5.8,8
			C1008.7,19.8,1006.9,22.6,1005.2,25.4z"/>
		<path id="path6590-7" fill="#D40000" d="M1156.2,178.9c-1.7-2.9-3.5-5.6-5.8-8c2.3-2.4,4.1-5.1,5.8-8c1.7,2.9,3.5,5.6,5.8,8
			C1159.7,173.3,1157.9,176.1,1156.2,178.9z"/>
		<path id="path6600-5" fill="#D40000" d="M1080.7,113.4c-4.1-6.9-8.5-13.5-14-19.2c5.5-5.7,9.8-12.3,14-19.2
			c4.1,6.9,8.5,13.5,14,19.2C1089.2,99.9,1084.8,106.5,1080.7,113.4z"/>
		<path id="path6606-3" fill="#D40000" d="M1080.7,192.7c-4.1-6.9-8.5-13.5-14-19.2c5.5-5.7,9.8-12.3,14-19.2
			c4.1,6.9,8.5,13.5,14,19.2C1089.2,179.2,1084.8,185.9,1080.7,192.7z"/>
		<path id="path17-2-9-4-8" fill="#D40000" d="M996.6,1.1l2-1.5c1.8,2.9,3.7,4.8,6.8,4.4c4.5-0.3,6.4-5.1,5.5-8.6
			c-0.9-3.2-4.7-4.8-7.6-3.1c-0.7,0.4-1.4,0.7-1.5,0.7c-0.3,0-1-1.4-0.9-1.8c2-2.9,6.9-8,6.9-8h-7.6v3.4h-2.9v-6.2h14.8v2.1
			c0,0-4,4.1-5.3,6.4c3.2,0.1,5.8,2.2,6.8,5.4c0.5,1.7,0.3,5.6-0.4,7.3c-1.2,2.8-4.5,5.1-7.4,5.2C1000.6,7.2,997.9,3.7,996.6,1.1
			L996.6,1.1L996.6,1.1z"/>
		<path id="path17-5-3-3-8" fill="#D40000" d="M1164.8,187.2l-2,1.5c-1.8-2.9-3.7-4.8-6.8-4.4c-4.5,0.3-6.4,5.1-5.5,8.6
			c0.9,3.2,4.7,4.8,7.6,3.1c0.7-0.4,1.4-0.7,1.5-0.7c0.3,0,1,1.4,0.9,1.8c-2,2.9-6.9,8-6.9,8h7.6v-3.4h2.9v6.2h-14.8v-2.1
			c0,0,4-4.1,5.3-6.4c-3.2-0.1-5.8-2.2-6.8-5.4c-0.5-1.7-0.3-5.6,0.4-7.3c1.2-2.8,4.5-5.1,7.4-5.2
			C1160.8,181.1,1163.4,184.6,1164.8,187.2L1164.8,187.2z"/>
	</g>
</g>
</svg>
