<?xml version="1.0" encoding="utf-8"?>
<!DOCTYPE svg PUBLIC "-//W3C//DTD SVG 1.1//EN" "http://www.w3.org/Graphics/SVG/1.1/DTD/svg11.dtd">
<svg version="1.1"
	 id="svg6429" xmlns:rdf="http://www.w3.org/1999/02/22-rdf-syntax-ns#" xmlns:dc="http://purl.org/dc/elements/1.1/" xmlns:cc="http://creativecommons.org/ns#" xmlns:svg="http://www.w3.org/2000/svg"
	 xmlns="http://www.w3.org/2000/svg" xmlns:xlink="http://www.w3.org/1999/xlink" x="0px" y="0px" width="178.6px" height="249.4px"
	 viewBox="0 0 178.6 249.4" enable-background="new 0 0 178.6 249.4" xml:space="preserve">
<g id="layer1" transform="translate(-216.95725,-336.45669)">
	<g id="g8426-7-4" transform="matrix(0.99553774,0,0,0.99680134,-760.97862,806.8557)">
		<path id="rect6784-5-9" fill="#FBFBF6" stroke="#7F7F7F" stroke-width="0.4" d="M991.3-471.5h161.5c4.7,0,8.5,3.8,8.5,8.5
			v232.4c0,4.7-3.8,8.5-8.5,8.5H991.3c-4.7,0-8.5-3.8-8.5-8.5V-463C982.7-467.7,986.5-471.5,991.3-471.5z"/>
		<path id="path6816-2-4" d="M996.5-431.5c-3.4,4.4-7.1,6.9-7.2,10.3c0,1.1,0.7,3,2.8,3.4c1.4,0.2,3.2-0.8,3.3-2.8
			c0-0.4,0.5-0.4,0.5,0.2c-0.1,1.6-0.6,3.4-1.6,4.9c1.5,0,3,0,4.5,0c-0.9-1.5-1.5-3.3-1.6-4.9c0-0.5,0.5-0.6,0.5-0.2
			c0,2,1.9,3,3.3,2.8c2.1-0.4,2.8-2.2,2.8-3.4C1003.6-424.6,999.9-427.1,996.5-431.5L996.5-431.5z"/>
		<path id="path6820-0-2" d="M1147.5-262c-3.4-4.4-7.1-6.9-7.2-10.3c0-1.1,0.7-3,2.8-3.4c1.4-0.2,3.2,0.8,3.3,2.8
			c0,0.4,0.5,0.4,0.5-0.2c-0.1-1.6-0.6-3.4-1.6-4.9c1.5,0,3,0,4.5,0c-0.9,1.5-1.5,3.3-1.6,4.9c0,0.5,0.5,0.6,0.5,0.2
			c0-2,1.9-3,3.3-2.8c2.1,0.4,2.8,2.2,2.8,3.4C1154.7-268.9,1151-266.4,1147.5-262L1147.5-262z"/>
		<path id="path6828-8-3" d="M1072-445.4c-7.4,10.5-15.3,16.6-15.4,24.8c0,2.7,1.4,7.2,5.9,8c2.9,0.6,6.9-1.8,7-6.6c0-1,1-0.9,1,0.4
			c-0.1,3.8-1.3,8.2-3.4,11.8c3.2,0,6.4,0,9.7,0c-2-3.6-3.2-8-3.4-11.8c0-1.3,1-1.3,1-0.4c0.1,4.8,4.1,7.2,7,6.6
			c4.5-0.9,5.9-5.4,5.9-8C1087.3-428.8,1079.4-434.8,1072-445.4L1072-445.4z"/>
		<path id="path6842-0-7" d="M1072-248.2c-7.4-10.5-15.3-16.6-15.4-24.8c0-2.7,1.4-7.2,5.9-8c2.9-0.6,6.9,1.8,7,6.6c0,1,1,0.9,1-0.4
			c-0.1-3.8-1.3-8.2-3.4-11.8c3.2,0,6.4,0,9.7,0c-2,3.6-3.2,8-3.4,11.8c0,1.3,1,1.3,1,0.4c0.1-4.8,4.1-7.2,7-6.6
			c4.5,0.9,5.9,5.4,5.9,8C1087.3-264.8,1079.4-258.7,1072-248.2L1072-248.2z"/>
		<path id="path6844-7-0" d="M1072-366c-7.4,10.5-15.3,16.6-15.4,24.8c0,2.7,1.4,7.2,5.9,8c2.9,0.6,6.9-1.8,7-6.6c0-1,1-0.9,1,0.4
			c-0.1,3.8-1.3,8.2-3.4,11.8c3.2,0,6.4,0,9.7,0c-2-3.6-3.2-8-3.4-11.8c0-1.3,1-1.3,1-0.4c0.1,4.8,4.1,7.2,7,6.6
			c4.5-0.9,5.9-5.4,5.9-8C1087.3-349.4,1079.4-355.5,1072-366L1072-366z"/>
		<path id="path17-9-11-4" d="M987.9-439.8l2-1.5c1.8,2.9,3.7,4.8,6.8,4.4c4.5-0.3,6.4-5.1,5.5-8.6c-0.9-3.2-4.7-4.8-7.6-3.1
			c-0.7,0.4-1.4,0.7-1.5,0.7c-0.3,0-1-1.4-0.9-1.8c2-2.9,6.9-8,6.9-8h-7.6v3.4h-2.9v-6.2h14.8v2.1c0,0-4,4.1-5.3,6.4
			c3.2,0.1,5.8,2.2,6.8,5.4c0.5,1.7,0.3,5.6-0.4,7.3c-1.2,2.8-4.5,5.1-7.4,5.2C991.9-433.7,989.2-437.2,987.9-439.8L987.9-439.8
			L987.9-439.8z"/>
		<path id="path17-9-1-0-8" d="M1156.1-253.7l-2,1.5c-1.8-2.9-3.7-4.8-6.8-4.4c-4.5,0.3-6.4,5.1-5.5,8.6c0.9,3.2,4.7,4.8,7.6,3.1
			c0.7-0.4,1.4-0.7,1.5-0.7c0.3,0,1,1.4,0.9,1.8c-2,2.9-6.9,8-6.9,8h7.6v-3.4h2.9v6.2h-14.8v-2.1c0,0,4-4.1,5.3-6.4
			c-3.2-0.1-5.8-2.2-6.8-5.4c-0.5-1.7-0.3-5.6,0.4-7.3c1.2-2.8,4.5-5.1,7.4-5.2C1152.1-259.8,1154.8-256.3,1156.1-253.7
			L1156.1-253.7z"/>
	</g>
</g>
</svg>
