<?xml version="1.0" encoding="utf-8"?>
<!DOCTYPE svg PUBLIC "-//W3C//DTD SVG 1.1//EN" "http://www.w3.org/Graphics/SVG/1.1/DTD/svg11.dtd">
<svg version="1.1"
	 id="svg4336" xmlns:rdf="http://www.w3.org/1999/02/22-rdf-syntax-ns#" xmlns:dc="http://purl.org/dc/elements/1.1/" xmlns:cc="http://creativecommons.org/ns#" xmlns:svg="http://www.w3.org/2000/svg"
	 xmlns="http://www.w3.org/2000/svg" xmlns:xlink="http://www.w3.org/1999/xlink" x="0px" y="0px" width="178.6px" height="249.4px"
	 viewBox="0 0 178.6 249.4" enable-background="new 0 0 178.6 249.4" xml:space="preserve">
<g id="layer1" transform="translate(-134.10011,-273.59955)">
	<g id="g5444" transform="matrix(0.99999718,0,0,1.000002,-1121.6066,1362.4696)">
		<path id="rect6355-6-85-3-72-9" fill="#FBFBF6" stroke="#7F7F7F" stroke-width="0.4" d="M1264.6-1088.5h160.8
			c4.7,0,8.5,3.8,8.5,8.5v231.6c0,4.7-3.8,8.5-8.5,8.5h-160.8c-4.7,0-8.5-3.8-8.5-8.5V-1080
			C1256.1-1084.7,1259.9-1088.5,1264.6-1088.5z"/>
		<path id="path147-0-8-1-6-13-2-06-7" d="M1386.2-1062.1c-7.8,0.2-11.3,9-5.5,15.8c0.8,1,0.9,1.6-0.6,0.6
			c-3.9-2.6-11.4-0.9-11.8,7.1c-0.5,9.8,13.2,12.7,15.8,2.2c0.1-1.1,1-1.1,0.8,0.5c-0.2,4.2-1.6,8.2-3.4,12.1c3.1,0,6.5,0,9.3,0
			c-1.8-3.9-3.1-7.8-3.4-12.1c-0.2-1.6,0.7-1.6,0.8-0.5c2.6,10.4,16.3,7.6,15.8-2.2c-0.4-8-7.9-9.7-11.8-7.1c-1.5,1-1.5,0.4-0.6-0.6
			C1397.6-1053.1,1394-1061.9,1386.2-1062.1C1386.2-1062.1,1386.2-1062.1,1386.2-1062.1L1386.2-1062.1z"/>
		<path id="path147-0-8-1-6-75-2-83-35-3" d="M1303.8-1062.1c-7.8,0.2-11.3,9-5.5,15.8c0.8,1,0.9,1.6-0.6,0.6
			c-3.9-2.6-11.4-0.9-11.8,7.1c-0.5,9.8,13.2,12.7,15.8,2.2c0.1-1.1,1-1.1,0.8,0.5c-0.2,4.2-1.6,8.2-3.4,12.1c3.1,0,6.5,0,9.3,0
			c-1.8-3.9-3.1-7.8-3.4-12.1c-0.2-1.6,0.7-1.6,0.8-0.5c2.6,10.4,16.3,7.6,15.8-2.2c-0.4-8-7.9-9.7-11.8-7.1c-1.5,1-1.5,0.4-0.6-0.6
			C1315.1-1053.1,1311.6-1061.9,1303.8-1062.1C1303.8-1062.1,1303.8-1062.1,1303.8-1062.1L1303.8-1062.1z"/>
		<path id="path147-0-8-1-6-7-5-5-7-77-6" d="M1386.2-865.6c-7.8-0.2-11.3-9-5.5-15.8c0.8-1,0.9-1.6-0.6-0.6
			c-3.9,2.6-11.4,0.9-11.8-7.1c-0.5-9.8,13.2-12.7,15.8-2.2c0.1,1.1,1,1.1,0.8-0.5c-0.2-4.2-1.6-8.2-3.4-12.1c3.1,0,6.5,0,9.3,0
			c-1.8,3.9-3.1,7.8-3.4,12.1c-0.2,1.6,0.7,1.6,0.8,0.5c2.6-10.4,16.3-7.6,15.8,2.2c-0.4,8-7.9,9.7-11.8,7.1c-1.5-1-1.5-0.4-0.6,0.6
			C1397.6-874.5,1394-865.7,1386.2-865.6C1386.2-865.6,1386.2-865.6,1386.2-865.6L1386.2-865.6z"/>
		<path id="path147-0-8-1-6-75-6-1-2-08-0" d="M1303.8-865.6c-7.8-0.2-11.3-9-5.5-15.8c0.8-1,0.9-1.6-0.6-0.6
			c-3.9,2.6-11.4,0.9-11.8-7.1c-0.5-9.8,13.2-12.7,15.8-2.2c0.1,1.1,1,1.1,0.8-0.5c-0.2-4.2-1.6-8.2-3.4-12.1c3.1,0,6.5,0,9.3,0
			c-1.8,3.9-3.1,7.8-3.4,12.1c-0.2,1.6,0.7,1.6,0.8,0.5c2.6-10.4,16.3-7.6,15.8,2.2c-0.4,8-7.9,9.7-11.8,7.1c-1.5-1-1.5-0.4-0.6,0.6
			C1315.1-874.5,1311.6-865.7,1303.8-865.6C1303.8-865.6,1303.8-865.6,1303.8-865.6L1303.8-865.6z"/>
		<path id="path147-6-9-8-7-0-5-6-17-9" d="M1420.2-879.7c3.1-0.1,4.5-3.7,2.2-6.6c-0.3-0.4-0.4-0.7,0.2-0.3
			c1.6,1.1,4.6,0.4,4.7-2.9c0.2-4.1-5.3-5.3-6.3-0.9c-0.1,0.5-0.4,0.4-0.3-0.2c0.1-1.8,0.6-3.4,1.4-5c-1.2,0-2.5,0-3.7,0
			c0.7,1.6,1.3,3.3,1.4,5c0.1,0.7-0.3,0.7-0.3,0.2c-1-4.4-6.5-3.2-6.3,0.9c0.2,3.3,3.1,4,4.7,2.9c0.6-0.4,0.6-0.2,0.2,0.3
			C1415.6-883.4,1417-879.7,1420.2-879.7C1420.2-879.7,1420.2-879.7,1420.2-879.7L1420.2-879.7z"/>
		<path id="path147-6-9-8-7-4-5-62-79-3" d="M1269.8-1048.6c-3.1,0.1-4.5,3.7-2.2,6.6c0.3,0.4,0.4,0.7-0.2,0.3
			c-1.6-1.1-4.6-0.4-4.7,2.9c-0.2,4.1,5.3,5.3,6.3,0.9c0.1-0.5,0.4-0.4,0.3,0.2c-0.1,1.8-0.6,3.4-1.4,5c1.2,0,2.5,0,3.7,0
			c-0.7-1.6-1.3-3.3-1.4-5c-0.1-0.7,0.3-0.7,0.3-0.2c1,4.4,6.5,3.2,6.3-0.9c-0.2-3.3-3.1-4-4.7-2.9c-0.6,0.4-0.6,0.2-0.2-0.3
			C1274.3-1044.9,1272.9-1048.5,1269.8-1048.6L1269.8-1048.6L1269.8-1048.6z"/>
		<path id="path19-0-7-3" d="M1270-1051.1v-2.3h2.1v-3.8h-10.5v-2.7l11.3-17.4l1.9,0v17.4h3.2v2.7h-3.2l-0.1,3.8h1.8v2.3
			L1270-1051.1L1270-1051.1z M1272.1-1071l-7.2,11.1h7.2V-1071z"/>
		<path id="path19-4-4-9-1" d="M1420-877.2v2.3h-2.1v3.8h10.5v2.7l-11.3,17.4l-1.9,0v-17.4h-3.2v-2.7h3.2l0.1-3.8h-1.8v-2.3
			L1420-877.2L1420-877.2z M1417.9-857.2l7.2-11.1h-7.2V-857.2z"/>
	</g>
</g>
</svg>
