<?xml version="1.0" encoding="utf-8"?>
<!DOCTYPE svg PUBLIC "-//W3C//DTD SVG 1.1//EN" "http://www.w3.org/Graphics/SVG/1.1/DTD/svg11.dtd">
<svg version="1.1"
	 id="svg7480" xmlns:rdf="http://www.w3.org/1999/02/22-rdf-syntax-ns#" xmlns:dc="http://purl.org/dc/elements/1.1/" xmlns:cc="http://creativecommons.org/ns#" xmlns:svg="http://www.w3.org/2000/svg"
	 xmlns="http://www.w3.org/2000/svg" xmlns:xlink="http://www.w3.org/1999/xlink" x="0px" y="0px" width="178.6px" height="249.4px"
	 viewBox="0 0 178.6 249.4" enable-background="new 0 0 178.6 249.4" xml:space="preserve">
<g id="layer1" transform="translate(3.8916607e-5,-740.55055)">
	<g id="g6735" transform="matrix(0.99553491,0,0,0.99680337,-1249.6057,771.39684)">
		<path id="rect6622-5" fill="#FBFBF6" stroke="#7F7F7F" stroke-width="0.4" d="M1264.2-30.5h161.5c4.7,0,8.5,3.8,8.5,8.5v232.4
			c0,4.7-3.8,8.5-8.5,8.5h-161.5c-4.7,0-8.5-3.8-8.5-8.5V-22C1255.6-26.7,1259.4-30.5,1264.2-30.5z"/>
		<path id="path6654-0" fill="#D40000" d="M1269.4,25.4c-1.7-2.9-3.5-5.6-5.8-8c2.3-2.4,4.1-5.1,5.8-8c1.7,2.9,3.5,5.6,5.8,8
			C1272.9,19.8,1271.1,22.6,1269.4,25.4z"/>
		<path id="path6656-6" fill="#D40000" d="M1386.3,34c-4.1-6.9-8.5-13.5-14-19.2c5.5-5.7,9.8-12.3,14-19.2c4.1,6.9,8.5,13.5,14,19.2
			C1394.8,20.5,1390.5,27.2,1386.3,34z"/>
		<path id="path6658-8" fill="#D40000" d="M1420.4,178.9c-1.7-2.9-3.5-5.6-5.8-8c2.3-2.4,4.1-5.1,5.8-8c1.7,2.9,3.5,5.6,5.8,8
			C1424,173.3,1422.1,176.1,1420.4,178.9z"/>
		<path id="path6660-7" fill="#D40000" d="M1303.5,34c-4.1-6.9-8.5-13.5-14-19.2c5.5-5.7,9.8-12.3,14-19.2c4.1,6.9,8.5,13.5,14,19.2
			C1312,20.5,1307.6,27.2,1303.5,34z"/>
		<path id="path6676-4" fill="#D40000" d="M1303.5,192.8c-4.1-6.9-8.5-13.5-14-19.2c5.5-5.7,9.8-12.3,14-19.2
			c4.1,6.9,8.5,13.5,14,19.2C1312,179.2,1307.6,185.9,1303.5,192.8z"/>
		<path id="path6678-8" fill="#D40000" d="M1386.3,192.8c-4.1-6.9-8.5-13.5-14-19.2c5.5-5.7,9.8-12.3,14-19.2
			c4.1,6.9,8.5,13.5,14,19.2C1394.8,179.2,1390.5,185.9,1386.3,192.8z"/>
		<path id="path19-3-1-9-0" fill="#D40000" d="M1269.6,6.9V4.6h2.1V0.7h-10.5V-2l11.4-17.5l1.9,0V-2h3.2v2.7h-3.2l-0.1,3.8h1.8v2.3
			L1269.6,6.9L1269.6,6.9z M1271.7-13.1L1264.4-2h7.2V-13.1z"/>
		<path id="path19-4-46-7-7" fill="#D40000" d="M1420.2,181.4v2.3h-2.1v3.8h10.5v2.7l-11.4,17.5l-1.9,0v-17.5h-3.2v-2.7h3.2l0.1-3.8
			h-1.8v-2.3L1420.2,181.4L1420.2,181.4z M1418.1,201.4l7.2-11.1h-7.2V201.4z"/>
	</g>
</g>
</svg>
