<?xml version="1.0" encoding="utf-8"?>
<!DOCTYPE svg PUBLIC "-//W3C//DTD SVG 1.1//EN" "http://www.w3.org/Graphics/SVG/1.1/DTD/svg11.dtd">
<svg version="1.1"
	 id="svg5399" xmlns:rdf="http://www.w3.org/1999/02/22-rdf-syntax-ns#" xmlns:dc="http://purl.org/dc/elements/1.1/" xmlns:cc="http://creativecommons.org/ns#" xmlns:svg="http://www.w3.org/2000/svg"
	 xmlns="http://www.w3.org/2000/svg" xmlns:xlink="http://www.w3.org/1999/xlink" x="0px" y="0px" width="178.6px" height="249.4px"
	 viewBox="0 0 178.6 249.4" enable-background="new 0 0 178.6 249.4" xml:space="preserve">
<g id="layer1" transform="translate(-474.10011,-39.313865)">
	<g id="g11338-3-7" transform="matrix(0.99553774,0,0,0.99680134,-816.53897,1100.4092)">
		<g id="g9868-8-1" transform="translate(1036.4913,-1434.2756)">
			<path id="rect9870-7-0" fill="#FBFBF6" stroke="#7F7F7F" stroke-width="0.4" d="M268.9,370.2h161.5c4.7,0,8.5,3.8,8.5,8.5
				v232.4c0,4.7-3.8,8.5-8.5,8.5H268.9c-4.7,0-8.5-3.8-8.5-8.5V378.7C260.3,374,264.2,370.2,268.9,370.2z"/>
		</g>
		<g id="g9888-2-1" transform="translate(1296.9243,-1064)">
		</g>
		<g id="g9894-0-0" transform="translate(1323.5159,-1083.9055)">
		</g>
		<path id="path9902-6-7" fill="#D40000" d="M1310.6-1008.1c0,0-1.8-2.6-4.2-5.6c-1.6-2-2.9-4.2-3-6.1c-0.1-2.1,1.2-4.3,3.5-4.4
			c2.3-0.1,3.3,1.6,3.7,3.1c0.4-1.4,1.3-3.2,3.7-3.1c2.3,0.1,3.6,2.3,3.5,4.4c-0.1,1.9-1.4,4-3,6.1
			C1312.4-1010.7,1310.6-1008.1,1310.6-1008.1z"/>
		<path id="path9904-6-0" fill="#D40000" d="M1461.6-870.6c0,0-1.8,2.6-4.2,5.6c-1.6,2-2.9,4.2-3,6.1c-0.1,2.1,1.2,4.3,3.5,4.4
			c2.3,0.1,3.3-1.6,3.7-3.1c0.4,1.4,1.3,3.2,3.7,3.1c2.3-0.1,3.6-2.3,3.5-4.4c-0.1-1.9-1.4-4-3-6.1
			C1463.4-868.1,1461.6-870.6,1461.6-870.6z"/>
		<path id="path9910-2-6" fill="#D40000" d="M1344.7-999.5c0,0-3.7-6.1-8.8-13.3c-3.4-4.8-6.1-10-6.3-14.5
			c-0.3-5.1,2.4-10.3,7.4-10.5c4.9-0.2,6.9,4,7.7,7.4c0.8-3.5,2.8-7.7,7.7-7.4c4.9,0.2,7.6,5.4,7.4,10.5c-0.3,4.5-2.9,9.7-6.3,14.5
			C1348.4-1005.7,1344.7-999.5,1344.7-999.5z"/>
		<path id="path9916-8-0" fill="#D40000" d="M1427.5-999.5c0,0-3.7-6.1-8.8-13.3c-3.4-4.8-6.1-10-6.3-14.5
			c-0.3-5.1,2.4-10.3,7.4-10.5c4.9-0.2,6.9,4,7.7,7.4c0.8-3.5,2.8-7.7,7.7-7.4c4.9,0.2,7.6,5.4,7.4,10.5c-0.3,4.5-2.9,9.7-6.3,14.5
			C1431.3-1005.7,1427.5-999.5,1427.5-999.5z"/>
		<path id="path9930-7-9" fill="#D40000" d="M1427.5-879.2c0,0-3.7,6.1-8.8,13.3c-3.4,4.8-6.1,10-6.3,14.5
			c-0.3,5.1,2.4,10.3,7.4,10.5c4.9,0.2,6.9-4,7.7-7.4c0.8,3.5,2.8,7.7,7.7,7.4c4.9-0.2,7.6-5.4,7.4-10.5c-0.3-4.5-2.9-9.7-6.3-14.5
			C1431.3-873.1,1427.5-879.2,1427.5-879.2z"/>
		<path id="path9932-9-8" fill="#D40000" d="M1344.7-879.2c0,0-3.7,6.1-8.8,13.3c-3.4,4.8-6.1,10-6.3,14.5
			c-0.3,5.1,2.4,10.3,7.4,10.5c4.9,0.2,6.9-4,7.7-7.4c0.8,3.5,2.8,7.7,7.7,7.4c4.9-0.2,7.6-5.4,7.4-10.5c-0.3-4.5-2.9-9.7-6.3-14.5
			C1348.4-873.1,1344.7-879.2,1344.7-879.2z"/>
		<path id="path19-3-8-2-9" fill="#D40000" d="M1310.8-1026.6v-2.3h2.1v-3.8h-10.5v-2.7l11.4-17.5l1.9,0v17.5h3.2v2.7h-3.2l-0.1,3.8
			h1.8v2.3L1310.8-1026.6L1310.8-1026.6z M1312.9-1046.6l-7.2,11.1h7.2V-1046.6z"/>
		<path id="path19-4-46-0-1-9" fill="#D40000" d="M1461.4-852.1v2.3h-2.1v3.8h10.5v2.7l-11.4,17.5l-1.9,0v-17.5h-3.2v-2.7h3.2
			l0.1-3.8h-1.8v-2.3L1461.4-852.1L1461.4-852.1z M1459.3-832.1l7.2-11.1h-7.2V-832.1z"/>
	</g>
</g>
</svg>
