<?xml version="1.0" encoding="utf-8"?>
<!DOCTYPE svg PUBLIC "-//W3C//DTD SVG 1.1//EN" "http://www.w3.org/Graphics/SVG/1.1/DTD/svg11.dtd">
<svg version="1.1"
	 id="svg6497" xmlns:rdf="http://www.w3.org/1999/02/22-rdf-syntax-ns#" xmlns:dc="http://purl.org/dc/elements/1.1/" xmlns:cc="http://creativecommons.org/ns#" xmlns:svg="http://www.w3.org/2000/svg"
	 xmlns="http://www.w3.org/2000/svg" xmlns:xlink="http://www.w3.org/1999/xlink" x="0px" y="0px" width="178.6px" height="249.4px"
	 viewBox="0 0 178.6 249.4" enable-background="new 0 0 178.6 249.4" xml:space="preserve">
<g id="layer1" transform="translate(-248.38582,-373.59955)">
	<g id="g8436-8-0" transform="matrix(0.99553774,0,0,0.99680134,-1053.205,843.99856)">
		<g id="g8473-4-9">
			<path id="rect6852-0-4" fill="#FBFBF6" stroke="#7F7F7F" stroke-width="0.4" d="M1316.4-471.5h161.5c4.7,0,8.5,3.8,8.5,8.5
				v232.4c0,4.7-3.8,8.5-8.5,8.5h-161.5c-4.7,0-8.5-3.8-8.5-8.5V-463C1307.8-467.7,1311.6-471.5,1316.4-471.5z"/>
			<path id="path6882-1-0" d="M1355.7-445.4c-7.4,10.5-15.3,16.6-15.4,24.8c0,2.7,1.4,7.2,5.9,8c2.9,0.6,6.9-1.8,7-6.6
				c0-1,1-0.9,1,0.4c-0.1,3.8-1.3,8.2-3.4,11.8c3.2,0,6.4,0,9.7,0c-2-3.6-3.2-8-3.4-11.8c0-1.3,1-1.3,1-0.4c0.1,4.8,4.1,7.2,7,6.6
				c4.5-0.9,5.9-5.4,5.9-8C1371-428.8,1363.1-434.8,1355.7-445.4z"/>
			<path id="path6884-6-5" d="M1321.6-431.5c-3.4,4.4-7.1,6.9-7.2,10.3c0,1.1,0.7,3,2.8,3.4c1.4,0.2,3.2-0.8,3.3-2.8
				c0-0.4,0.5-0.4,0.5,0.2c-0.1,1.6-0.6,3.4-1.6,4.9c1.5,0,3,0,4.5,0c-0.9-1.5-1.5-3.3-1.6-4.9c0-0.5,0.5-0.6,0.5-0.2
				c0,2,1.9,3,3.3,2.8c2.1-0.4,2.8-2.2,2.8-3.4C1328.7-424.6,1325-427.1,1321.6-431.5L1321.6-431.5z"/>
			<path id="path6888-1-5" d="M1472.6-262c-3.4-4.4-7.1-6.9-7.2-10.3c0-1.1,0.7-3,2.8-3.4c1.4-0.2,3.2,0.8,3.3,2.8
				c0,0.4,0.5,0.4,0.5-0.2c-0.1-1.6-0.6-3.4-1.6-4.9c1.5,0,3,0,4.5,0c-0.9,1.5-1.5,3.3-1.6,4.9c0,0.5,0.5,0.6,0.5,0.2
				c0-2,1.9-3,3.3-2.8c2.1,0.4,2.8,2.2,2.8,3.4C1479.8-268.9,1476.1-266.4,1472.6-262z"/>
			<path id="path6890-4-9" d="M1438.5-445.4c-7.4,10.5-15.3,16.6-15.4,24.8c0,2.7,1.4,7.2,5.9,8c2.9,0.6,6.9-1.8,7-6.6
				c0-1,1-0.9,1,0.4c-0.1,3.8-1.3,8.2-3.4,11.8c3.2,0,6.4,0,9.7,0c-2-3.6-3.2-8-3.4-11.8c0-1.3,1-1.3,1-0.4c0.1,4.8,4.1,7.2,7,6.6
				c4.5-0.9,5.9-5.4,5.9-8C1453.8-428.8,1445.9-434.8,1438.5-445.4z"/>
			<path id="path6902-7-5" d="M1355.7-248.2c-7.4-10.5-15.3-16.6-15.4-24.8c0-2.7,1.4-7.2,5.9-8c2.9-0.6,6.9,1.8,7,6.6
				c0,1,1,0.9,1-0.4c-0.1-3.8-1.3-8.2-3.4-11.8c3.2,0,6.4,0,9.7,0c-2,3.6-3.2,8-3.4,11.8c0,1.3,1,1.3,1,0.4c0.1-4.8,4.1-7.2,7-6.6
				c4.5,0.9,5.9,5.4,5.9,8C1371-264.8,1363.1-258.7,1355.7-248.2z"/>
			<path id="path6904-9-7" d="M1438.5-248.2c-7.4-10.5-15.3-16.6-15.4-24.8c0-2.7,1.4-7.2,5.9-8c2.9-0.6,6.9,1.8,7,6.6
				c0,1,1,0.9,1-0.4c-0.1-3.8-1.3-8.2-3.4-11.8c3.2,0,6.4,0,9.7,0c-2,3.6-3.2,8-3.4,11.8c0,1.3,1,1.3,1,0.4c0.1-4.8,4.1-7.2,7-6.6
				c4.5,0.9,5.9,5.4,5.9,8C1453.8-264.8,1445.9-258.7,1438.5-248.2z"/>
			<path id="path19-08-0-9" d="M1321.8-434v-2.3h2.1v-3.8h-10.5v-2.7l11.4-17.5l1.9,0v17.5h3.2v2.7h-3.2l-0.1,3.8h1.8v2.3
				L1321.8-434L1321.8-434z M1323.9-454l-7.2,11.1h7.2V-454z"/>
			<path id="path19-08-1-1-4" d="M1472.4-259.5v2.3h-2.1v3.8h10.5v2.7l-11.4,17.5l-1.9,0v-17.5h-3.2v-2.7h3.2l0.1-3.8h-1.8v-2.3
				L1472.4-259.5L1472.4-259.5z M1470.3-239.5l7.2-11.1h-7.2V-239.5z"/>
		</g>
	</g>
</g>
</svg>
