<?xml version="1.0" encoding="utf-8"?>
<!DOCTYPE svg PUBLIC "-//W3C//DTD SVG 1.1//EN" "http://www.w3.org/Graphics/SVG/1.1/DTD/svg11.dtd">
<svg version="1.1"
	 id="svg7550" xmlns:rdf="http://www.w3.org/1999/02/22-rdf-syntax-ns#" xmlns:dc="http://purl.org/dc/elements/1.1/" xmlns:cc="http://creativecommons.org/ns#" xmlns:svg="http://www.w3.org/2000/svg"
	 xmlns="http://www.w3.org/2000/svg" xmlns:xlink="http://www.w3.org/1999/xlink" x="0px" y="0px" width="178.6px" height="249.4px"
	 viewBox="0 0 178.6 249.4" enable-background="new 0 0 178.6 249.4" xml:space="preserve">
<g id="layer1" transform="translate(8.5763936e-6,-740.55055)">
	<g id="g6746" transform="matrix(0.99553491,0,0,0.99680337,-1512.6511,771.39684)">
		<path id="rect6690-8" fill="#FBFBF6" stroke="#7F7F7F" stroke-width="0.4" d="M1528.4-30.5h161.5c4.7,0,8.5,3.8,8.5,8.5v232.4
			c0,4.7-3.8,8.5-8.5,8.5h-161.5c-4.7,0-8.5-3.8-8.5-8.5V-22C1519.8-26.7,1523.7-30.5,1528.4-30.5z"/>
		<path id="path6722-9" fill="#D40000" d="M1533.6,25.4c-1.7-2.9-3.5-5.6-5.8-8c2.3-2.4,4.1-5.1,5.8-8c1.7,2.9,3.5,5.6,5.8,8
			C1537.2,19.8,1535.3,22.6,1533.6,25.4z"/>
		<path id="path6724-6" fill="#D40000" d="M1650.5,34c-4.1-6.9-8.5-13.5-14-19.2c5.5-5.7,9.8-12.3,14-19.2c4.1,6.9,8.5,13.5,14,19.2
			C1659.1,20.5,1654.7,27.2,1650.5,34z"/>
		<path id="path6726-3" fill="#D40000" d="M1684.6,178.9c-1.7-2.9-3.5-5.6-5.8-8c2.3-2.4,4.1-5.1,5.8-8c1.7,2.9,3.5,5.6,5.8,8
			C1688.2,173.3,1686.4,176.1,1684.6,178.9z"/>
		<path id="path6728-7" fill="#D40000" d="M1567.7,34c-4.1-6.9-8.5-13.5-14-19.2c5.5-5.7,9.8-12.3,14-19.2c4.1,6.9,8.5,13.5,14,19.2
			C1576.2,20.5,1571.9,27.2,1567.7,34z"/>
		<path id="path6736-0" fill="#D40000" d="M1609.1,113.4c-4.1-6.9-8.5-13.5-14-19.2c5.5-5.7,9.8-12.3,14-19.2
			c4.1,6.9,8.5,13.5,14,19.2C1617.6,99.9,1613.3,106.5,1609.1,113.4z"/>
		<path id="path6744-9" fill="#D40000" d="M1567.7,192.8c-4.1-6.9-8.5-13.5-14-19.2c5.5-5.7,9.8-12.3,14-19.2
			c4.1,6.9,8.5,13.5,14,19.2C1576.2,179.2,1571.9,185.9,1567.7,192.8z"/>
		<path id="path6746-2" fill="#D40000" d="M1650.5,192.8c-4.1-6.9-8.5-13.5-14-19.2c5.5-5.7,9.8-12.3,14-19.2
			c4.1,6.9,8.5,13.5,14,19.2C1659.1,179.2,1654.7,185.9,1650.5,192.8z"/>
		<path id="path21-9-8-2-7" fill="#D40000" d="M1525.3,0.1l2.6,0c0.5,1.6,1.6,3.2,3.1,3.7c4.2,1,6.9-1.4,7.8-4.1
			c1.1-3.3,0-8-2.9-9.7c-2.4-1.4-5.9-0.2-7.6,2.7l-1.8-1.1l1-11h11.8v2.6h-9.6l-0.2,4.6c2.1-1.5,5.2-1.5,7.3-0.4
			c3.9,1.9,5.7,6.2,5,11.3c-1.1,5.1-3.4,7.9-8.6,8.3C1527.3,7,1525.3,2.9,1525.3,0.1L1525.3,0.1L1525.3,0.1z"/>
		<path id="path21-3-0-8-6" fill="#D40000" d="M1693,188.3l-2.6,0c-0.5-1.6-1.6-3.2-3.1-3.7c-4.2-1-6.9,1.4-7.8,4.1
			c-1.1,3.3,0,8,2.9,9.7c2.4,1.4,5.9,0.2,7.6-2.7l1.8,1.1l-1,11H1679v-2.6h9.6l0.2-4.6c-2.1,1.5-5.2,1.5-7.3,0.4
			c-3.9-1.9-5.7-6.2-5-11.3c1.1-5.1,3.4-7.9,8.6-8.3C1690.9,181.4,1693,185.5,1693,188.3L1693,188.3L1693,188.3z"/>
	</g>
</g>
</svg>
