<?xml version="1.0" encoding="utf-8"?>
<!DOCTYPE svg PUBLIC "-//W3C//DTD SVG 1.1//EN" "http://www.w3.org/Graphics/SVG/1.1/DTD/svg11.dtd">
<svg version="1.1"
	 id="svg6570" xmlns:rdf="http://www.w3.org/1999/02/22-rdf-syntax-ns#" xmlns:dc="http://purl.org/dc/elements/1.1/" xmlns:cc="http://creativecommons.org/ns#" xmlns:svg="http://www.w3.org/2000/svg"
	 xmlns="http://www.w3.org/2000/svg" xmlns:xlink="http://www.w3.org/1999/xlink" x="0px" y="0px" width="178.6px" height="249.4px"
	 viewBox="0 0 178.6 249.4" enable-background="new 0 0 178.6 249.4" xml:space="preserve">
<g id="layer1" transform="translate(-216.95721,-362.17098)">
	<g id="g8447-5-9" transform="matrix(0.99553774,0,0,0.99680134,-1408.2886,832.56995)">
		<g id="g8459-0-4" transform="matrix(-1,0,0,-1,3489.2901,-631.00533)">
			<path id="rect6920-5-5" fill="#FBFBF6" stroke="#7F7F7F" stroke-width="0.4" d="M1686.3-408.9h161.5c4.7,0,8.5,3.8,8.5,8.5
				V-168c0,4.7-3.8,8.5-8.5,8.5h-161.5c-4.7,0-8.5-3.8-8.5-8.5v-232.4C1677.8-405.1,1681.6-408.9,1686.3-408.9z"/>
			<path id="path6950-9-9" d="M1725.7-382.8c-7.4,10.5-15.3,16.6-15.4,24.8c0,2.7,1.4,7.2,5.9,8c2.9,0.6,6.9-1.8,7-6.6
				c0-1,1-0.9,1,0.4c-0.1,3.8-1.3,8.2-3.4,11.8c3.2,0,6.4,0,9.7,0c-2-3.6-3.2-8-3.4-11.8c0-1.3,1-1.3,1-0.4c0.1,4.8,4.1,7.2,7,6.6
				c4.5-0.9,5.9-5.4,5.9-8C1740.9-366.2,1733-372.3,1725.7-382.8L1725.7-382.8z"/>
			<path id="path6952-6-0" d="M1691.6-369c-3.4,4.4-7.1,6.9-7.2,10.3c0,1.1,0.7,3,2.8,3.4c1.4,0.2,3.2-0.8,3.3-2.8
				c0-0.4,0.5-0.4,0.5,0.2c-0.1,1.6-0.6,3.4-1.6,4.9c1.5,0,3,0,4.5,0c-0.9-1.5-1.5-3.3-1.6-4.9c0-0.5,0.5-0.6,0.5-0.2
				c0,2,1.9,3,3.3,2.8c2.1-0.4,2.8-2.2,2.8-3.4C1698.7-362.1,1695-364.6,1691.6-369z"/>
			<path id="path6956-5-0" d="M1842.6-199.5c-3.4-4.4-7.1-6.9-7.2-10.3c0-1.1,0.7-3,2.8-3.4c1.4-0.2,3.2,0.8,3.3,2.8
				c0,0.4,0.5,0.4,0.5-0.2c-0.1-1.6-0.6-3.4-1.6-4.9c1.5,0,3,0,4.5,0c-0.9,1.5-1.5,3.3-1.6,4.9c0,0.5,0.5,0.6,0.5,0.2
				c0-2,1.9-3,3.3-2.8c2.1,0.4,2.8,2.2,2.8,3.4C1849.7-206.4,1846-203.9,1842.6-199.5L1842.6-199.5z"/>
			<path id="path6958-4-1" d="M1808.5-382.8c-7.4,10.5-15.3,16.6-15.4,24.8c0,2.7,1.4,7.2,5.9,8c2.9,0.6,6.9-1.8,7-6.6
				c0-1,1-0.9,1,0.4c-0.1,3.8-1.3,8.2-3.4,11.8c3.2,0,6.4,0,9.7,0c-2-3.6-3.2-8-3.4-11.8c0-1.3,1-1.3,1-0.4c0.1,4.8,4.1,7.2,7,6.6
				c4.5-0.9,5.9-5.4,5.9-8C1823.8-366.2,1815.9-372.3,1808.5-382.8L1808.5-382.8z"/>
			<path id="path6970-5-5" d="M1725.7-185.7c-7.4-10.5-15.3-16.6-15.4-24.8c0-2.7,1.4-7.2,5.9-8c2.9-0.6,6.9,1.8,7,6.6
				c0,1,1,0.9,1-0.4c-0.1-3.8-1.3-8.2-3.4-11.8c3.2,0,6.4,0,9.7,0c-2,3.6-3.2,8-3.4,11.8c0,1.3,1,1.3,1,0.4c0.1-4.8,4.1-7.2,7-6.6
				c4.5,0.9,5.9,5.4,5.9,8C1740.9-202.2,1733-196.2,1725.7-185.7L1725.7-185.7z"/>
			<path id="path6972-5-8" d="M1808.5-185.7c-7.4-10.5-15.3-16.6-15.4-24.8c0-2.7,1.4-7.2,5.9-8c2.9-0.6,6.9,1.8,7,6.6
				c0,1,1,0.9,1-0.4c-0.1-3.8-1.3-8.2-3.4-11.8c3.2,0,6.4,0,9.7,0c-2,3.6-3.2,8-3.4,11.8c0,1.3,1,1.3,1,0.4c0.1-4.8,4.1-7.2,7-6.6
				c4.5,0.9,5.9,5.4,5.9,8C1823.8-202.2,1815.9-196.2,1808.5-185.7L1808.5-185.7z"/>
			<path id="path6980-6-3" d="M1767.1-303.4c-7.4,10.5-15.3,16.6-15.4,24.8c0,2.7,1.4,7.2,5.9,8c2.9,0.6,6.9-1.8,7-6.6
				c0-1,1-0.9,1,0.4c-0.1,3.8-1.3,8.2-3.4,11.8c3.2,0,6.4,0,9.7,0c-2-3.6-3.2-8-3.4-11.8c0-1.3,1-1.3,1-0.4c0.1,4.8,4.1,7.2,7,6.6
				c4.5-0.9,5.9-5.4,5.9-8C1782.3-286.8,1774.4-292.9,1767.1-303.4L1767.1-303.4z"/>
			<path id="path21-4-5-5" d="M1683.2-378.3l2.6,0c0.5,1.6,1.6,3.2,3.1,3.7c4.2,1,6.9-1.4,7.8-4.1c1.1-3.3,0-8-2.9-9.7
				c-2.4-1.4-5.9-0.2-7.6,2.7l-1.8-1.1l1-11h11.8v2.6h-9.6l-0.2,4.6c2.1-1.5,5.2-1.5,7.3-0.4c3.9,1.9,5.7,6.2,5,11.3
				c-1.1,5.1-3.4,7.9-8.6,8.3C1685.3-371.4,1683.2-375.5,1683.2-378.3L1683.2-378.3L1683.2-378.3z"/>
			<path id="path21-4-9-2-8" d="M1850.9-190.1l-2.6,0c-0.5-1.6-1.6-3.2-3.1-3.7c-4.2-1-6.9,1.4-7.8,4.1c-1.1,3.3,0,8,2.9,9.7
				c2.4,1.4,5.9,0.2,7.6-2.7l1.8,1.1l-1,11H1837v-2.6h9.6l0.2-4.6c-2.1,1.5-5.2,1.5-7.3,0.4c-3.9-1.9-5.7-6.2-5-11.3
				c1.1-5.1,3.4-7.9,8.6-8.3C1848.9-197,1850.9-192.9,1850.9-190.1L1850.9-190.1L1850.9-190.1z"/>
		</g>
	</g>
</g>
</svg>
