<?xml version="1.0" encoding="utf-8"?>
<!DOCTYPE svg PUBLIC "-//W3C//DTD SVG 1.1//EN" "http://www.w3.org/Graphics/SVG/1.1/DTD/svg11.dtd">
<svg version="1.1"
	 id="svg4482" xmlns:rdf="http://www.w3.org/1999/02/22-rdf-syntax-ns#" xmlns:dc="http://purl.org/dc/elements/1.1/" xmlns:cc="http://creativecommons.org/ns#" xmlns:svg="http://www.w3.org/2000/svg"
	 xmlns="http://www.w3.org/2000/svg" xmlns:xlink="http://www.w3.org/1999/xlink" x="0px" y="0px" width="178.6px" height="249.4px"
	 viewBox="0 0 178.6 249.4" enable-background="new 0 0 178.6 249.4" xml:space="preserve">
<g id="layer1" transform="translate(-194.10012,-350.74243)">
	<g id="g5468" transform="matrix(0.99999718,0,0,1.000002,-1590.0553,1439.6126)">
		<path id="rect6355-6-85-3-2-3-6" fill="#FBFBF6" stroke="#7F7F7F" stroke-width="0.4" d="M1793.1-1088.5h160.8
			c4.7,0,8.5,3.8,8.5,8.5v231.6c0,4.7-3.8,8.5-8.5,8.5h-160.8c-4.7,0-8.5-3.8-8.5-8.5V-1080
			C1784.6-1084.7,1788.4-1088.5,1793.1-1088.5z"/>
		<path id="path147-0-8-1-6-13-2-5-7-1" d="M1914.7-1062.1c-7.8,0.2-11.3,9-5.5,15.8c0.8,1,0.9,1.6-0.6,0.6
			c-3.9-2.6-11.4-0.9-11.8,7.1c-0.5,9.8,13.2,12.7,15.8,2.2c0.1-1.1,1-1.1,0.8,0.5c-0.2,4.2-1.6,8.2-3.4,12.1c3.1,0,6.5,0,9.3,0
			c-1.8-3.9-3.1-7.8-3.4-12.1c-0.2-1.6,0.7-1.6,0.8-0.5c2.6,10.4,16.3,7.6,15.8-2.2c-0.4-8-7.9-9.7-11.8-7.1c-1.5,1-1.5,0.4-0.6-0.6
			C1926-1053.1,1922.5-1061.9,1914.7-1062.1C1914.7-1062.1,1914.7-1062.1,1914.7-1062.1L1914.7-1062.1z"/>
		<path id="path147-0-8-1-6-75-2-83-8-8-7" d="M1832.2-1062.1c-7.8,0.2-11.3,9-5.5,15.8c0.8,1,0.9,1.6-0.6,0.6
			c-3.9-2.6-11.4-0.9-11.8,7.1c-0.5,9.8,13.2,12.7,15.8,2.2c0.1-1.1,1-1.1,0.8,0.5c-0.2,4.2-1.6,8.2-3.4,12.1c3.1,0,6.5,0,9.3,0
			c-1.8-3.9-3.1-7.8-3.4-12.1c-0.2-1.6,0.7-1.6,0.8-0.5c2.6,10.4,16.3,7.6,15.8-2.2c-0.4-8-7.9-9.7-11.8-7.1c-1.5,1-1.5,0.4-0.6-0.6
			C1843.5-1053.1,1840-1061.9,1832.2-1062.1C1832.2-1062.1,1832.2-1062.1,1832.2-1062.1L1832.2-1062.1z"/>
		<path id="path147-0-8-1-6-7-5-5-7-8-7-8" d="M1914.7-865.6c-7.8-0.2-11.3-9-5.5-15.8c0.8-1,0.9-1.6-0.6-0.6
			c-3.9,2.6-11.4,0.9-11.8-7.1c-0.5-9.8,13.2-12.7,15.8-2.2c0.1,1.1,1,1.1,0.8-0.5c-0.2-4.2-1.6-8.2-3.4-12.1c3.1,0,6.5,0,9.3,0
			c-1.8,3.9-3.1,7.8-3.4,12.1c-0.2,1.6,0.7,1.6,0.8,0.5c2.6-10.4,16.3-7.6,15.8,2.2c-0.4,8-7.9,9.7-11.8,7.1c-1.5-1-1.5-0.4-0.6,0.6
			C1926-874.5,1922.5-865.7,1914.7-865.6C1914.7-865.6,1914.7-865.6,1914.7-865.6L1914.7-865.6z"/>
		<path id="path147-0-8-1-6-75-6-1-2-0-6-8" d="M1832.2-865.6c-7.8-0.2-11.3-9-5.5-15.8c0.8-1,0.9-1.6-0.6-0.6
			c-3.9,2.6-11.4,0.9-11.8-7.1c-0.5-9.8,13.2-12.7,15.8-2.2c0.1,1.1,1,1.1,0.8-0.5c-0.2-4.2-1.6-8.2-3.4-12.1c3.1,0,6.5,0,9.3,0
			c-1.8,3.9-3.1,7.8-3.4,12.1c-0.2,1.6,0.7,1.6,0.8,0.5c2.6-10.4,16.3-7.6,15.8,2.2c-0.4,8-7.9,9.7-11.8,7.1c-1.5-1-1.5-0.4-0.6,0.6
			C1843.5-874.5,1840-865.7,1832.2-865.6C1832.2-865.6,1832.2-865.6,1832.2-865.6L1832.2-865.6z"/>
		<path id="path147-0-8-1-6-7-5-7-3-0-9-6-4" d="M1914.7-983c-7.8,0.2-11.3,9-5.5,15.8c0.8,1,0.9,1.6-0.6,0.6
			c-3.9-2.6-11.4-0.9-11.8,7.1c-0.5,9.8,13.2,12.7,15.8,2.2c0.1-1.1,1-1.1,0.8,0.5c-0.2,4.2-1.6,8.2-3.4,12.1c3.1,0,6.5,0,9.3,0
			c-1.8-3.9-3.1-7.8-3.4-12.1c-0.2-1.6,0.7-1.6,0.8-0.5c2.6,10.4,16.3,7.6,15.8-2.2c-0.4-8-7.9-9.7-11.8-7.1c-1.5,1-1.5,0.4-0.6-0.6
			C1926-974,1922.5-982.8,1914.7-983C1914.7-983,1914.7-983,1914.7-983L1914.7-983z"/>
		<path id="path147-0-8-1-6-75-6-6-5-3-0-0-2" d="M1832.2-983c-7.8,0.2-11.3,9-5.5,15.8c0.8,1,0.9,1.6-0.6,0.6
			c-3.9-2.6-11.4-0.9-11.8,7.1c-0.5,9.8,13.2,12.7,15.8,2.2c0.1-1.1,1-1.1,0.8,0.5c-0.2,4.2-1.6,8.2-3.4,12.1c3.1,0,6.5,0,9.3,0
			c-1.8-3.9-3.1-7.8-3.4-12.1c-0.2-1.6,0.7-1.6,0.8-0.5c2.6,10.4,16.3,7.6,15.8-2.2c-0.4-8-7.9-9.7-11.8-7.1c-1.5,1-1.5,0.4-0.6-0.6
			C1843.5-974,1840-982.8,1832.2-983C1832.2-983,1832.2-983,1832.2-983L1832.2-983z"/>
		<path id="path147-6-9-8-7-0-5-6-4-2-8" d="M1948.6-879.7c3.1-0.1,4.5-3.7,2.2-6.6c-0.3-0.4-0.4-0.7,0.2-0.3
			c1.6,1.1,4.6,0.4,4.7-2.9c0.2-4.1-5.3-5.3-6.3-0.9c-0.1,0.5-0.4,0.4-0.3-0.2c0.1-1.8,0.6-3.4,1.4-5c-1.2,0-2.5,0-3.7,0
			c0.7,1.6,1.3,3.3,1.4,5c0.1,0.7-0.3,0.7-0.3,0.2c-1-4.4-6.5-3.2-6.3,0.9c0.2,3.3,3.1,4,4.7,2.9c0.6-0.4,0.6-0.2,0.2,0.3
			C1944.1-883.4,1945.5-879.7,1948.6-879.7C1948.6-879.7,1948.6-879.7,1948.6-879.7L1948.6-879.7z"/>
		<path id="path147-6-9-8-7-4-5-62-0-2-9" d="M1798.3-1048.6c-3.1,0.1-4.5,3.7-2.2,6.6c0.3,0.4,0.4,0.7-0.2,0.3
			c-1.6-1.1-4.6-0.4-4.7,2.9c-0.2,4.1,5.3,5.3,6.3,0.9c0.1-0.5,0.4-0.4,0.3,0.2c-0.1,1.8-0.6,3.4-1.4,5c1.2,0,2.5,0,3.7,0
			c-0.7-1.6-1.3-3.3-1.4-5c-0.1-0.7,0.3-0.7,0.3-0.2c1,4.4,6.5,3.2,6.3-0.9c-0.2-3.3-3.1-4-4.7-2.9c-0.6,0.4-0.6,0.2-0.2-0.3
			C1802.8-1044.9,1801.4-1048.5,1798.3-1048.6C1798.3-1048.6,1798.3-1048.6,1798.3-1048.6L1798.3-1048.6z"/>
		<path id="path23-8-1-4" d="M1790.5-1059.2c-0.3-2.2-0.3-7.9-0.1-9.6c0.8-5.2,2.8-7.6,6.1-8.3c3.2-0.8,7.7,0.1,8.7,4.4l-2.7,0.1
			c-1.5-2.9-5.1-2.1-7.2-0.9c-1.7,1-2.4,5.3-2.1,5.5c0,0,3.1-2.3,5.6-2.2c5.3,0.6,7.5,5.1,7.3,9.5c-0.2,5.2-1.8,9.4-7.4,9.6
			C1793.5-1051.3,1791.1-1054.2,1790.5-1059.2L1790.5-1059.2L1790.5-1059.2z M1803.7-1060.6c0-3.6-1.6-6.3-4.7-6.6
			c-3.1-0.3-6.2,2.7-6,6.4c0.2,3.7,1.6,6.8,5.4,6.8C1802.4-1054,1803.6-1058,1803.7-1060.6L1803.7-1060.6L1803.7-1060.6z"/>
		<path id="path23-6-8-9-6" d="M1956.3-869.1c0.3,2.2,0.3,7.9,0.1,9.6c-0.8,5.2-2.8,7.6-6.1,8.3c-3.2,0.8-7.7-0.1-8.7-4.4l2.7-0.1
			c1.5,2.9,5.1,2.1,7.2,0.9c1.7-1,2.4-5.3,2.1-5.5c0,0-3.1,2.3-5.6,2.2c-5.3-0.5-7.5-5.1-7.3-9.5c0.2-5.2,1.8-9.4,7.4-9.6
			C1953.4-877,1955.8-874.1,1956.3-869.1L1956.3-869.1L1956.3-869.1z M1943.2-867.7c0,3.6,1.6,6.3,4.7,6.6c3.1,0.3,6.2-2.7,6-6.4
			c-0.2-3.7-1.6-6.8-5.4-6.8C1944.5-874.3,1943.3-870.3,1943.2-867.7L1943.2-867.7L1943.2-867.7z"/>
	</g>
</g>
</svg>
