<?xml version="1.0" encoding="utf-8"?>
<!DOCTYPE svg PUBLIC "-//W3C//DTD SVG 1.1//EN" "http://www.w3.org/Graphics/SVG/1.1/DTD/svg11.dtd">
<svg version="1.1"
	 id="svg7623" xmlns:rdf="http://www.w3.org/1999/02/22-rdf-syntax-ns#" xmlns:dc="http://purl.org/dc/elements/1.1/" xmlns:cc="http://creativecommons.org/ns#" xmlns:svg="http://www.w3.org/2000/svg"
	 xmlns="http://www.w3.org/2000/svg" xmlns:xlink="http://www.w3.org/1999/xlink" x="0px" y="0px" width="178.6px" height="249.4px"
	 viewBox="0 0 178.6 249.4" enable-background="new 0 0 178.6 249.4" xml:space="preserve">
<g id="layer1" transform="translate(2.1286695e-5,-740.55055)">
	<g id="g6758" transform="matrix(0.99553491,0,0,0.99680337,-1775.6963,771.39684)">
		<path id="rect6758-6" fill="#FBFBF6" stroke="#7F7F7F" stroke-width="0.4" d="M1792.6-30.5h161.5c4.7,0,8.5,3.8,8.5,8.5v232.4
			c0,4.7-3.8,8.5-8.5,8.5h-161.5c-4.7,0-8.5-3.8-8.5-8.5V-22C1784.1-26.7,1787.9-30.5,1792.6-30.5z"/>
		<path id="path6790-5" fill="#D40000" d="M1797.8,25.4c-1.7-2.9-3.5-5.6-5.8-8c2.3-2.4,4.1-5.1,5.8-8c1.7,2.9,3.5,5.6,5.8,8
			C1801.4,19.8,1799.6,22.6,1797.8,25.4z"/>
		<path id="path6792-5" fill="#D40000" d="M1914.8,34c-4.1-6.9-8.5-13.5-14-19.2c5.5-5.7,9.8-12.3,14-19.2c4.1,6.9,8.5,13.5,14,19.2
			C1923.3,20.5,1918.9,27.2,1914.8,34z"/>
		<path id="path6794-1" fill="#D40000" d="M1948.9,178.9c-1.7-2.9-3.5-5.6-5.8-8c2.3-2.4,4.1-5.1,5.8-8c1.7,2.9,3.5,5.6,5.8,8
			C1952.4,173.3,1950.6,176.1,1948.9,178.9z"/>
		<path id="path6796-2" fill="#D40000" d="M1831.9,34c-4.1-6.9-8.5-13.5-14-19.2c5.5-5.7,9.8-12.3,14-19.2c4.1,6.9,8.5,13.5,14,19.2
			C1840.5,20.5,1836.1,27.2,1831.9,34z"/>
		<path id="path6806-6" fill="#D40000" d="M1831.9,113.4c-4.1-6.9-8.5-13.5-14-19.2c5.5-5.7,9.8-12.3,14-19.2
			c4.1,6.9,8.5,13.5,14,19.2C1840.5,99.8,1836.1,106.5,1831.9,113.4z"/>
		<path id="path6808-6" fill="#D40000" d="M1914.8,113.4c-4.1-6.9-8.5-13.5-14-19.2c5.5-5.7,9.8-12.3,14-19.2
			c4.1,6.9,8.5,13.5,14,19.2C1923.3,99.9,1918.9,106.5,1914.8,113.4z"/>
		<path id="path6812-0" fill="#D40000" d="M1831.9,192.8c-4.1-6.9-8.5-13.5-14-19.2c5.5-5.7,9.8-12.3,14-19.2
			c4.1,6.9,8.5,13.5,14,19.2C1840.5,179.2,1836.1,185.9,1831.9,192.8z"/>
		<path id="path6814-4" fill="#D40000" d="M1914.8,192.8c-4.1-6.9-8.5-13.5-14-19.2c5.5-5.7,9.8-12.3,14-19.2
			c4.1,6.9,8.5,13.5,14,19.2C1923.3,179.2,1918.9,185.9,1914.8,192.8z"/>
		<path id="path23-5-3-5-5" fill="#D40000" d="M1790.1-1.2c-0.3-2.2-0.3-8-0.1-9.7c0.8-5.2,2.8-7.6,6.1-8.4c3.2-0.8,7.8,0.1,8.8,4.4
			l-2.7,0.1c-1.5-2.9-5.2-2.2-7.2-0.9c-1.7,1-2.4,5.3-2.1,5.5c0,0,3.1-2.3,5.6-2.2c5.3,0.6,7.5,5.1,7.3,9.5
			c-0.2,5.2-1.8,9.4-7.4,9.7C1793,6.7,1790.6,3.8,1790.1-1.2L1790.1-1.2L1790.1-1.2z M1803.3-2.6c0-3.6-1.6-6.3-4.7-6.6
			c-3.1-0.3-6.2,2.7-6,6.4c0.2,3.7,1.7,6.8,5.4,6.8C1802,4,1803.2,0,1803.3-2.6L1803.3-2.6z"/>
		<path id="path23-6-5-6-6" fill="#D40000" d="M1956.6,189.6c0.3,2.2,0.3,8,0.1,9.7c-0.8,5.2-2.8,7.6-6.1,8.4
			c-3.2,0.8-7.8-0.1-8.8-4.4l2.7-0.1c1.5,2.9,5.2,2.2,7.2,0.9c1.7-1,2.4-5.3,2.1-5.5c0,0-3.1,2.3-5.6,2.2c-5.3-0.6-7.5-5.1-7.3-9.5
			c0.2-5.2,1.8-9.4,7.4-9.7C1953.7,181.6,1956.1,184.6,1956.6,189.6L1956.6,189.6L1956.6,189.6z M1943.5,190.9
			c0,3.6,1.6,6.3,4.7,6.6c3.1,0.3,6.2-2.7,6-6.4c-0.2-3.7-1.7-6.8-5.4-6.8C1944.7,184.3,1943.5,188.4,1943.5,190.9L1943.5,190.9z"/>
	</g>
</g>
</svg>
