<?xml version="1.0" encoding="utf-8"?>
<!DOCTYPE svg PUBLIC "-//W3C//DTD SVG 1.1//EN" "http://www.w3.org/Graphics/SVG/1.1/DTD/svg11.dtd">
<svg version="1.1"
	 id="svg5560" xmlns:rdf="http://www.w3.org/1999/02/22-rdf-syntax-ns#" xmlns:dc="http://purl.org/dc/elements/1.1/" xmlns:cc="http://creativecommons.org/ns#" xmlns:svg="http://www.w3.org/2000/svg"
	 xmlns="http://www.w3.org/2000/svg" xmlns:xlink="http://www.w3.org/1999/xlink" x="0px" y="0px" width="178.6px" height="249.4px"
	 viewBox="0 0 178.6 249.4" enable-background="new 0 0 178.6 249.4" xml:space="preserve">
<g id="layer1" transform="translate(8.7570598,-96.456665)">
	<g id="g11270-7-7" transform="matrix(0.99553774,0,0,0.99680134,-1868.5374,1157.552)">
		<g id="g10004-9-9" transform="translate(1608.1836,-1434.2756)">
			<path id="rect10006-6-1" fill="#FBFBF6" stroke="#7F7F7F" stroke-width="0.4" d="M268.9,370.2h161.5c4.7,0,8.5,3.8,8.5,8.5
				v232.4c0,4.7-3.8,8.5-8.5,8.5H268.9c-4.7,0-8.5-3.8-8.5-8.5V378.7C260.3,374,264.2,370.2,268.9,370.2z"/>
		</g>
		<g id="g10024-8-8" transform="translate(1868.6166,-1064)">
		</g>
		<g id="g10030-0-6" transform="translate(1895.2082,-1083.9055)">
		</g>
		<path id="path10038-5-0" fill="#D40000" d="M1882.3-1008.1c0,0-1.8-2.6-4.2-5.6c-1.6-2-2.9-4.2-3-6.1c-0.1-2.1,1.2-4.3,3.5-4.4
			c2.3-0.1,3.3,1.6,3.7,3.1c0.4-1.4,1.3-3.2,3.7-3.1c2.3,0.1,3.6,2.3,3.5,4.4c-0.1,1.9-1.4,4-3,6.1
			C1884.1-1010.7,1882.3-1008.1,1882.3-1008.1z"/>
		<path id="path10040-7-6" fill="#D40000" d="M2033.3-870.6c0,0-1.8,2.6-4.2,5.6c-1.6,2-2.9,4.2-3,6.1c-0.1,2.1,1.2,4.3,3.5,4.4
			c2.3,0.1,3.3-1.6,3.7-3.1c0.4,1.4,1.3,3.2,3.7,3.1c2.3-0.1,3.6-2.3,3.5-4.4c-0.1-1.9-1.4-4-3-6.1
			C2035.1-868.1,2033.3-870.6,2033.3-870.6z"/>
		<path id="path10046-1-1" fill="#D40000" d="M1916.4-999.5c0,0-3.7-6.1-8.8-13.3c-3.4-4.8-6.1-10-6.3-14.5
			c-0.3-5.1,2.4-10.3,7.4-10.5c4.9-0.2,6.9,4,7.7,7.4c0.8-3.5,2.8-7.7,7.7-7.4c4.9,0.2,7.6,5.4,7.4,10.5c-0.3,4.5-2.9,9.7-6.3,14.5
			C1920.1-1005.7,1916.4-999.5,1916.4-999.5z"/>
		<path id="path10048-2-0" fill="#D40000" d="M1999.2-920.2c0,0-3.7-6.1-8.8-13.3c-3.4-4.8-6.1-10-6.3-14.5
			c-0.3-5.1,2.4-10.3,7.4-10.5c4.9-0.2,6.9,4,7.7,7.4c0.8-3.5,2.8-7.7,7.7-7.4c4.9,0.2,7.6,5.4,7.4,10.5c-0.3,4.5-2.9,9.7-6.3,14.5
			C2003-926.3,1999.2-920.2,1999.2-920.2z"/>
		<path id="path10052-3-1" fill="#D40000" d="M1999.2-999.5c0,0-3.7-6.1-8.8-13.3c-3.4-4.8-6.1-10-6.3-14.5
			c-0.3-5.1,2.4-10.3,7.4-10.5c4.9-0.2,6.9,4,7.7,7.4c0.8-3.5,2.8-7.7,7.7-7.4c4.9,0.2,7.6,5.4,7.4,10.5c-0.3,4.5-2.9,9.7-6.3,14.5
			C2003-1005.7,1999.2-999.5,1999.2-999.5z"/>
		<path id="path10056-4-2" fill="#D40000" d="M1916.4-920.2c0,0-3.7-6.1-8.8-13.3c-3.4-4.8-6.1-10-6.3-14.5
			c-0.3-5.1,2.4-10.3,7.4-10.5c4.9-0.2,6.9,4,7.7,7.4c0.8-3.5,2.8-7.7,7.7-7.4c4.9,0.2,7.6,5.4,7.4,10.5c-0.3,4.5-2.9,9.7-6.3,14.5
			C1920.1-926.3,1916.4-920.2,1916.4-920.2z"/>
		<path id="path10066-9-2" fill="#D40000" d="M1999.2-879.2c0,0-3.7,6.1-8.8,13.3c-3.4,4.8-6.1,10-6.3,14.5
			c-0.3,5.1,2.4,10.3,7.4,10.5c4.9,0.2,6.9-4,7.7-7.4c0.8,3.5,2.8,7.7,7.7,7.4c4.9-0.2,7.6-5.4,7.4-10.5c-0.3-4.5-2.9-9.7-6.3-14.5
			C2003-873.1,1999.2-879.2,1999.2-879.2z"/>
		<path id="path10068-1-2" fill="#D40000" d="M1916.4-879.2c0,0-3.7,6.1-8.8,13.3c-3.4,4.8-6.1,10-6.3,14.5
			c-0.3,5.1,2.4,10.3,7.4,10.5c4.9,0.2,6.9-4,7.7-7.4c0.8,3.5,2.8,7.7,7.7,7.4c4.9-0.2,7.6-5.4,7.4-10.5c-0.3-4.5-2.9-9.7-6.3-14.5
			C1920.1-873.1,1916.4-879.2,1916.4-879.2z"/>
		<path id="path23-5-2-7-3" fill="#D40000" d="M1874.5-1034.8c-0.3-2.2-0.3-8-0.1-9.7c0.8-5.2,2.8-7.6,6.1-8.4
			c3.2-0.8,7.8,0.1,8.8,4.4l-2.7,0.1c-1.5-2.9-5.2-2.2-7.2-0.9c-1.7,1-2.4,5.3-2.1,5.5c0,0,3.1-2.3,5.6-2.2c5.3,0.6,7.5,5.1,7.3,9.5
			c-0.2,5.2-1.8,9.4-7.4,9.7C1877.5-1026.8,1875.1-1029.7,1874.5-1034.8L1874.5-1034.8L1874.5-1034.8z M1887.7-1036.1
			c0-3.6-1.6-6.3-4.7-6.6c-3.1-0.3-6.2,2.7-6,6.4c0.2,3.7,1.7,6.8,5.4,6.8C1886.4-1029.5,1887.7-1033.6,1887.7-1036.1L1887.7-1036.1
			L1887.7-1036.1z"/>
		<path id="path23-6-5-1-7-1" fill="#D40000" d="M2041.1-844c0.3,2.2,0.3,8,0.1,9.7c-0.8,5.2-2.8,7.6-6.1,8.4
			c-3.2,0.8-7.8-0.1-8.8-4.4l2.7-0.1c1.5,2.9,5.2,2.2,7.2,0.9c1.7-1,2.4-5.3,2.1-5.5c0,0-3.1,2.3-5.6,2.2c-5.3-0.6-7.5-5.1-7.3-9.5
			c0.2-5.2,1.8-9.4,7.4-9.7C2038.1-851.9,2040.6-849,2041.1-844L2041.1-844L2041.1-844z M2027.9-842.6c0,3.6,1.6,6.3,4.7,6.6
			c3.1,0.3,6.2-2.7,6-6.4c-0.2-3.7-1.7-6.8-5.4-6.8C2029.2-849.2,2027.9-845.2,2027.9-842.6L2027.9-842.6L2027.9-842.6z"/>
	</g>
</g>
</svg>
