<?xml version="1.0" encoding="utf-8"?>
<!DOCTYPE svg PUBLIC "-//W3C//DTD SVG 1.1//EN" "http://www.w3.org/Graphics/SVG/1.1/DTD/svg11.dtd">
<svg version="1.1"
	 id="svg6645" xmlns:rdf="http://www.w3.org/1999/02/22-rdf-syntax-ns#" xmlns:dc="http://purl.org/dc/elements/1.1/" xmlns:cc="http://creativecommons.org/ns#" xmlns:svg="http://www.w3.org/2000/svg"
	 xmlns="http://www.w3.org/2000/svg" xmlns:xlink="http://www.w3.org/1999/xlink" x="0px" y="0px" width="178.6px" height="249.4px"
	 viewBox="0 0 178.6 249.4" enable-background="new 0 0 178.6 249.4" xml:space="preserve">
<g id="layer1" transform="translate(-294.10013,-345.02812)">
	<g id="g8484-9-4" transform="matrix(0.99553774,0,0,0.99680134,-1654.8007,815.42713)">
		<path id="rect6988-1-0" fill="#FBFBF6" stroke="#7F7F7F" stroke-width="0.4" d="M1966.6-471.5h161.5c4.7,0,8.5,3.8,8.5,8.5
			v232.4c0,4.7-3.8,8.5-8.5,8.5h-161.5c-4.7,0-8.5-3.8-8.5-8.5V-463C1958-467.7,1961.9-471.5,1966.6-471.5z"/>
		<path id="path7018-7-4" d="M2005.9-445.4c-7.4,10.5-15.3,16.6-15.4,24.8c0,2.7,1.4,7.2,5.9,8c2.9,0.6,6.9-1.8,7-6.6
			c0-1,1-0.9,1,0.4c-0.1,3.8-1.3,8.2-3.4,11.8c3.2,0,6.4,0,9.7,0c-2-3.6-3.2-8-3.4-11.8c0-1.3,1-1.3,1-0.4c0.1,4.8,4.1,7.2,7,6.6
			c4.5-0.9,5.9-5.4,5.9-8C2021.2-428.8,2013.3-434.8,2005.9-445.4z"/>
		<path id="path7020-0-8" d="M1971.8-431.5c-3.4,4.4-7.1,6.9-7.2,10.3c0,1.1,0.7,3,2.8,3.4c1.4,0.2,3.2-0.8,3.3-2.8
			c0-0.4,0.5-0.4,0.5,0.2c-0.1,1.6-0.6,3.4-1.6,4.9c1.5,0,3,0,4.5,0c-0.9-1.5-1.5-3.3-1.6-4.9c0-0.5,0.5-0.6,0.5-0.2
			c0,2,1.9,3,3.3,2.8c2.1-0.4,2.8-2.2,2.8-3.4C1978.9-424.6,1975.3-427.1,1971.8-431.5L1971.8-431.5z"/>
		<path id="path7024-7-1" d="M2122.8-262c-3.4-4.4-7.1-6.9-7.2-10.3c0-1.1,0.7-3,2.8-3.4c1.4-0.2,3.2,0.8,3.3,2.8
			c0,0.4,0.5,0.4,0.5-0.2c-0.1-1.6-0.6-3.4-1.6-4.9c1.5,0,3,0,4.5,0c-0.9,1.5-1.5,3.3-1.6,4.9c0,0.5,0.5,0.6,0.5,0.2
			c0-2,1.9-3,3.3-2.8c2.1,0.4,2.8,2.2,2.8,3.4C2130-268.9,2126.3-266.4,2122.8-262L2122.8-262z"/>
		<path id="path7026-2-6" d="M2088.7-445.4c-7.4,10.5-15.3,16.6-15.4,24.8c0,2.7,1.4,7.2,5.9,8c2.9,0.6,6.9-1.8,7-6.6
			c0-1,1-0.9,1,0.4c-0.1,3.8-1.3,8.2-3.4,11.8c3.2,0,6.4,0,9.7,0c-2-3.6-3.2-8-3.4-11.8c0-1.3,1-1.3,1-0.4c0.1,4.8,4.1,7.2,7,6.6
			c4.5-0.9,5.9-5.4,5.9-8C2104-428.8,2096.1-434.8,2088.7-445.4z"/>
		<path id="path7036-9-6" d="M2005.9-366c-7.4,10.5-15.3,16.6-15.4,24.8c0,2.7,1.4,7.2,5.9,8c2.9,0.6,6.9-1.8,7-6.6c0-1,1-0.9,1,0.4
			c-0.1,3.8-1.3,8.2-3.4,11.8c3.2,0,6.4,0,9.7,0c-2-3.6-3.2-8-3.4-11.8c0-1.3,1-1.3,1-0.4c0.1,4.8,4.1,7.2,7,6.6
			c4.5-0.9,5.9-5.4,5.9-8C2021.2-349.4,2013.3-355.5,2005.9-366z"/>
		<path id="path7038-9-6" d="M2005.9-248.2c-7.4-10.5-15.3-16.6-15.4-24.8c0-2.7,1.4-7.2,5.9-8c2.9-0.6,6.9,1.8,7,6.6
			c0,1,1,0.9,1-0.4c-0.1-3.8-1.3-8.2-3.4-11.8c3.2,0,6.4,0,9.7,0c-2,3.6-3.2,8-3.4,11.8c0,1.3,1,1.3,1,0.4c0.1-4.8,4.1-7.2,7-6.6
			c4.5,0.9,5.9,5.4,5.9,8C2021.2-264.8,2013.3-258.7,2005.9-248.2z"/>
		<path id="path7040-0-9" d="M2088.7-248.2c-7.4-10.5-15.3-16.6-15.4-24.8c0-2.7,1.4-7.2,5.9-8c2.9-0.6,6.9,1.8,7,6.6
			c0,1,1,0.9,1-0.4c-0.1-3.8-1.3-8.2-3.4-11.8c3.2,0,6.4,0,9.7,0c-2,3.6-3.2,8-3.4,11.8c0,1.3,1,1.3,1,0.4c0.1-4.8,4.1-7.2,7-6.6
			c4.5,0.9,5.9,5.4,5.9,8C2104-264.8,2096.1-258.7,2088.7-248.2z"/>
		<path id="path7050-2-9" d="M2088.7-366c-7.4,10.5-15.3,16.6-15.4,24.8c0,2.7,1.4,7.2,5.9,8c2.9,0.6,6.9-1.8,7-6.6c0-1,1-0.9,1,0.4
			c-0.1,3.8-1.3,8.2-3.4,11.8c3.2,0,6.4,0,9.7,0c-2-3.6-3.2-8-3.4-11.8c0-1.3,1-1.3,1-0.4c0.1,4.8,4.1,7.2,7,6.6
			c4.5-0.9,5.9-5.4,5.9-8C2104-349.4,2096.1-355.5,2088.7-366z"/>
		<path id="path23-1-9-8" d="M1964.1-442.2c-0.3-2.2-0.3-8-0.1-9.7c0.8-5.2,2.8-7.6,6.1-8.4c3.2-0.8,7.8,0.1,8.8,4.4l-2.7,0.1
			c-1.5-2.9-5.2-2.2-7.2-0.9c-1.7,1-2.4,5.3-2.1,5.5c0,0,3.1-2.3,5.6-2.2c5.3,0.6,7.5,5.1,7.3,9.5c-0.2,5.2-1.8,9.4-7.4,9.7
			C1967-434.2,1964.6-437.2,1964.1-442.2L1964.1-442.2L1964.1-442.2z M1977.2-443.5c0-3.6-1.6-6.3-4.7-6.6c-3.1-0.3-6.2,2.7-6,6.4
			c0.2,3.7,1.7,6.8,5.4,6.8C1975.9-437,1977.2-441,1977.2-443.5L1977.2-443.5z"/>
		<path id="path23-1-5-6-4" d="M2130.6-251.4c0.3,2.2,0.3,8,0.1,9.7c-0.8,5.2-2.8,7.6-6.1,8.4c-3.2,0.8-7.8-0.1-8.8-4.4l2.7-0.1
			c1.5,2.9,5.2,2.2,7.2,0.9c1.7-1,2.4-5.3,2.1-5.5c0,0-3.1,2.3-5.6,2.2c-5.3-0.6-7.5-5.1-7.3-9.5c0.2-5.2,1.8-9.4,7.4-9.7
			C2127.6-259.3,2130.1-256.4,2130.6-251.4L2130.6-251.4L2130.6-251.4z M2117.4-250c0,3.6,1.6,6.3,4.7,6.6c3.1,0.3,6.2-2.7,6-6.4
			c-0.2-3.7-1.7-6.8-5.4-6.8C2118.7-256.6,2117.4-252.6,2117.4-250L2117.4-250z"/>
	</g>
</g>
</svg>
