<?xml version="1.0" encoding="utf-8"?>
<!DOCTYPE svg PUBLIC "-//W3C//DTD SVG 1.1//EN" "http://www.w3.org/Graphics/SVG/1.1/DTD/svg11.dtd">
<svg version="1.1"
	 id="svg4558" xmlns:rdf="http://www.w3.org/1999/02/22-rdf-syntax-ns#" xmlns:dc="http://purl.org/dc/elements/1.1/" xmlns:cc="http://creativecommons.org/ns#" xmlns:svg="http://www.w3.org/2000/svg"
	 xmlns="http://www.w3.org/2000/svg" xmlns:xlink="http://www.w3.org/1999/xlink" x="0px" y="0px" width="178.6px" height="249.4px"
	 viewBox="0 0 178.6 249.4" enable-background="new 0 0 178.6 249.4" xml:space="preserve">
<g id="layer1" transform="translate(-436.95729,-259.31383)">
	<g id="g5481" transform="matrix(0.99999718,0,0,1.000002,-1611.4226,1348.184)">
		<path id="rect6355-6-85-3-1-8-1" fill="#FBFBF6" stroke="#7F7F7F" stroke-width="0.4" d="M2057.3-1088.5h160.8
			c4.7,0,8.5,3.8,8.5,8.5v231.6c0,4.7-3.8,8.5-8.5,8.5h-160.8c-4.7,0-8.5-3.8-8.5-8.5V-1080
			C2048.8-1084.7,2052.6-1088.5,2057.3-1088.5z"/>
		<path id="path147-0-8-1-6-13-2-0-1-5" d="M2178.9-1062.1c-7.8,0.2-11.3,9-5.5,15.8c0.8,1,0.9,1.6-0.6,0.6
			c-3.9-2.6-11.4-0.9-11.8,7.1c-0.5,9.8,13.2,12.7,15.8,2.2c0.1-1.1,1-1.1,0.8,0.5c-0.2,4.2-1.6,8.2-3.4,12.1c3.1,0,6.5,0,9.3,0
			c-1.8-3.9-3.1-7.8-3.4-12.1c-0.2-1.6,0.7-1.6,0.8-0.5c2.6,10.4,16.3,7.6,15.8-2.2c-0.4-8-7.9-9.7-11.8-7.1c-1.5,1-1.5,0.4-0.6-0.6
			C2190.2-1053.1,2186.7-1061.9,2178.9-1062.1C2178.9-1062.1,2178.9-1062.1,2178.9-1062.1L2178.9-1062.1z"/>
		<path id="path147-0-8-1-6-75-2-83-2-0-7" d="M2096.4-1062.1c-7.8,0.2-11.3,9-5.5,15.8c0.8,1,0.9,1.6-0.6,0.6
			c-3.9-2.6-11.4-0.9-11.8,7.1c-0.5,9.8,13.2,12.7,15.8,2.2c0.1-1.1,1-1.1,0.8,0.5c-0.2,4.2-1.6,8.2-3.4,12.1c3.1,0,6.5,0,9.3,0
			c-1.8-3.9-3.1-7.8-3.4-12.1c-0.2-1.6,0.7-1.6,0.8-0.5c2.6,10.4,16.3,7.6,15.8-2.2c-0.4-8-7.9-9.7-11.8-7.1c-1.5,1-1.5,0.4-0.6-0.6
			C2107.8-1053.1,2104.3-1061.9,2096.4-1062.1C2096.4-1062.1,2096.4-1062.1,2096.4-1062.1L2096.4-1062.1z"/>
		<path id="path147-0-8-1-6-7-5-5-7-7-7-6" d="M2178.9-865.6c-7.8-0.2-11.3-9-5.5-15.8c0.8-1,0.9-1.6-0.6-0.6
			c-3.9,2.6-11.4,0.9-11.8-7.1c-0.5-9.8,13.2-12.7,15.8-2.2c0.1,1.1,1,1.1,0.8-0.5c-0.2-4.2-1.6-8.2-3.4-12.1c3.1,0,6.5,0,9.3,0
			c-1.8,3.9-3.1,7.8-3.4,12.1c-0.2,1.6,0.7,1.6,0.8,0.5c2.6-10.4,16.3-7.6,15.8,2.2c-0.4,8-7.9,9.7-11.8,7.1c-1.5-1-1.5-0.4-0.6,0.6
			C2190.2-874.5,2186.7-865.7,2178.9-865.6C2178.9-865.6,2178.9-865.6,2178.9-865.6L2178.9-865.6z"/>
		<path id="path147-0-8-1-6-75-6-1-2-9-1-9" d="M2096.4-865.6c-7.8-0.2-11.3-9-5.5-15.8c0.8-1,0.9-1.6-0.6-0.6
			c-3.9,2.6-11.4,0.9-11.8-7.1c-0.5-9.8,13.2-12.7,15.8-2.2c0.1,1.1,1,1.1,0.8-0.5c-0.2-4.2-1.6-8.2-3.4-12.1c3.1,0,6.5,0,9.3,0
			c-1.8,3.9-3.1,7.8-3.4,12.1c-0.2,1.6,0.7,1.6,0.8,0.5c2.6-10.4,16.3-7.6,15.8,2.2c-0.4,8-7.9,9.7-11.8,7.1c-1.5-1-1.5-0.4-0.6,0.6
			C2107.8-874.5,2104.3-865.7,2096.4-865.6C2096.4-865.6,2096.4-865.6,2096.4-865.6L2096.4-865.6z"/>
		<path id="path147-0-8-1-6-2-00-7-2-3-4" d="M2137.7-1022.5c-7.8,0.2-11.3,9-5.5,15.8c0.8,1,0.9,1.6-0.6,0.6
			c-3.9-2.6-11.4-0.9-11.8,7.1c-0.5,9.8,13.3,12.7,15.8,2.2c0.1-1.1,1-1.1,0.8,0.5c-0.2,4.2-1.6,8.2-3.4,12.1c3.1,0,6.5,0,9.3,0
			c-1.8-3.9-3.1-7.8-3.4-12.1c-0.2-1.6,0.7-1.6,0.8-0.5c2.6,10.4,16.3,7.6,15.8-2.2c-0.4-8-7.9-9.7-11.8-7.1c-1.5,1-1.5,0.4-0.6-0.6
			C2149-1013.5,2145.5-1022.3,2137.7-1022.5C2137.7-1022.5,2137.7-1022.5,2137.7-1022.5L2137.7-1022.5z"/>
		<path id="path147-0-8-1-6-7-5-7-3-0-1-7-4" d="M2178.9-983c-7.8,0.2-11.3,9-5.5,15.8c0.8,1,0.9,1.6-0.6,0.6
			c-3.9-2.6-11.4-0.9-11.8,7.1c-0.5,9.8,13.2,12.7,15.8,2.2c0.1-1.1,1-1.1,0.8,0.5c-0.2,4.2-1.6,8.2-3.4,12.1c3.1,0,6.5,0,9.3,0
			c-1.8-3.9-3.1-7.8-3.4-12.1c-0.2-1.6,0.7-1.6,0.8-0.5c2.6,10.4,16.3,7.6,15.8-2.2c-0.4-8-7.9-9.7-11.8-7.1c-1.5,1-1.5,0.4-0.6-0.6
			C2190.2-974,2186.7-982.8,2178.9-983C2178.9-983,2178.9-983,2178.9-983L2178.9-983z"/>
		<path id="path147-0-8-1-6-75-6-6-5-3-9-6-0" d="M2096.4-983c-7.8,0.2-11.3,9-5.5,15.8c0.8,1,0.9,1.6-0.6,0.6
			c-3.9-2.6-11.4-0.9-11.8,7.1c-0.5,9.8,13.2,12.7,15.8,2.2c0.1-1.1,1-1.1,0.8,0.5c-0.2,4.2-1.6,8.2-3.4,12.1c3.1,0,6.5,0,9.3,0
			c-1.8-3.9-3.1-7.8-3.4-12.1c-0.2-1.6,0.7-1.6,0.8-0.5c2.6,10.4,16.3,7.6,15.8-2.2c-0.4-8-7.9-9.7-11.8-7.1c-1.5,1-1.5,0.4-0.6-0.6
			C2107.8-974,2104.3-982.8,2096.4-983C2096.4-983,2096.4-983,2096.4-983L2096.4-983z"/>
		<path id="path147-6-9-8-7-0-5-6-8-4-3" d="M2212.9-879.7c3.1-0.1,4.5-3.7,2.2-6.6c-0.3-0.4-0.4-0.7,0.2-0.3
			c1.6,1.1,4.5,0.4,4.7-2.9c0.2-4.1-5.3-5.3-6.3-0.9c-0.1,0.5-0.4,0.4-0.3-0.2c0.1-1.8,0.6-3.4,1.4-5c-1.2,0-2.5,0-3.7,0
			c0.7,1.6,1.3,3.3,1.4,5c0.1,0.7-0.3,0.7-0.3,0.2c-1-4.4-6.5-3.2-6.3,0.9c0.2,3.3,3.1,4,4.7,2.9c0.6-0.4,0.6-0.2,0.2,0.3
			C2208.3-883.4,2209.7-879.7,2212.9-879.7C2212.9-879.7,2212.9-879.7,2212.9-879.7L2212.9-879.7z"/>
		<path id="path147-6-9-8-7-4-5-62-5-2-9" d="M2062.5-1048.6c-3.1,0.1-4.5,3.7-2.2,6.6c0.3,0.4,0.4,0.7-0.2,0.3
			c-1.6-1.1-4.6-0.4-4.7,2.9c-0.2,4.1,5.3,5.3,6.3,0.9c0.1-0.5,0.4-0.4,0.3,0.2c-0.1,1.8-0.6,3.4-1.4,5c1.2,0,2.5,0,3.7,0
			c-0.7-1.6-1.3-3.3-1.4-5c-0.1-0.7,0.3-0.7,0.3-0.2c1,4.4,6.5,3.2,6.3-0.9c-0.2-3.3-3.1-4-4.7-2.9c-0.6,0.4-0.6,0.2-0.2-0.3
			C2067-1044.9,2065.6-1048.5,2062.5-1048.6L2062.5-1048.6L2062.5-1048.6z"/>
		<path id="path25-6-8-8" d="M2058.5-1051.1c1.7-9.1,3.6-16,8.4-23.5h-9.8v3.2h-2.6v-6h14.4l1.8,2.8c-5.1,5.6-9.8,23.7-9,23.5
			H2058.5L2058.5-1051.1z"/>
		<path id="path25-7-7-3-9" d="M2216.9-877.2c-1.7,9.1-3.6,16-8.4,23.5h9.8v-3.2h2.6v6h-14.4l-1.8-2.8c5.1-5.6,9.8-23.7,9-23.5
			H2216.9L2216.9-877.2z"/>
	</g>
</g>
</svg>
