<?xml version="1.0" encoding="utf-8"?>
<!DOCTYPE svg PUBLIC "-//W3C//DTD SVG 1.1//EN" "http://www.w3.org/Graphics/SVG/1.1/DTD/svg11.dtd">
<svg version="1.1"
	 id="svg7699" xmlns:rdf="http://www.w3.org/1999/02/22-rdf-syntax-ns#" xmlns:dc="http://purl.org/dc/elements/1.1/" xmlns:cc="http://creativecommons.org/ns#" xmlns:svg="http://www.w3.org/2000/svg"
	 xmlns="http://www.w3.org/2000/svg" xmlns:xlink="http://www.w3.org/1999/xlink" x="0px" y="0px" width="178.6px" height="249.4px"
	 viewBox="0 0 178.6 249.4" enable-background="new 0 0 178.6 249.4" xml:space="preserve">
<g id="layer1" transform="translate(3.3996997e-5,-740.55055)">
	<g id="g6771" transform="matrix(0.99553491,0,0,0.99680337,-2038.7415,771.39684)">
		<path id="rect6826-9" fill="#FBFBF6" stroke="#7F7F7F" stroke-width="0.4" d="M2056.8-30.5h161.5c4.7,0,8.5,3.8,8.5,8.5v232.4
			c0,4.7-3.8,8.5-8.5,8.5h-161.5c-4.7,0-8.5-3.8-8.5-8.5V-22C2048.3-26.7,2052.1-30.5,2056.8-30.5z"/>
		<path id="path6858-4" fill="#D40000" d="M2062.1,25.4c-1.7-2.9-3.5-5.6-5.8-8c2.3-2.4,4.1-5.1,5.8-8c1.7,2.9,3.5,5.6,5.8,8
			C2065.6,19.8,2063.8,22.6,2062.1,25.4z"/>
		<path id="path6860-1" fill="#D40000" d="M2179,34c-4.1-6.9-8.5-13.5-14-19.2c5.5-5.7,9.8-12.3,14-19.2c4.1,6.9,8.5,13.5,14,19.2
			C2187.5,20.5,2183.1,27.2,2179,34z"/>
		<path id="path6862-0" fill="#D40000" d="M2213.1,178.9c-1.7-2.9-3.5-5.6-5.8-8c2.3-2.4,4.1-5.1,5.8-8c1.7,2.9,3.5,5.6,5.8,8
			C2216.6,173.3,2214.8,176.1,2213.1,178.9z"/>
		<path id="path6864-5" fill="#D40000" d="M2096.2,34c-4.1-6.9-8.5-13.5-14-19.2c5.5-5.7,9.8-12.3,14-19.2c4.1,6.9,8.5,13.5,14,19.2
			C2104.7,20.5,2100.3,27.2,2096.2,34z"/>
		<path id="path6870-5" fill="#D40000" d="M2137.6,73.7c-4.1-6.9-8.5-13.5-14-19.2c5.5-5.7,9.8-12.3,14-19.2
			c4.1,6.9,8.5,13.5,14,19.2C2146.1,60.2,2141.7,66.8,2137.6,73.7z"/>
		<path id="path6874-1" fill="#D40000" d="M2096.2,113.4c-4.1-6.9-8.5-13.5-14-19.2c5.5-5.7,9.8-12.3,14-19.2
			c4.1,6.9,8.5,13.5,14,19.2C2104.7,99.8,2100.3,106.5,2096.2,113.4z"/>
		<path id="path6876-6" fill="#D40000" d="M2179,113.4c-4.1-6.9-8.5-13.5-14-19.2c5.5-5.7,9.8-12.3,14-19.2
			c4.1,6.9,8.5,13.5,14,19.2C2187.5,99.9,2183.1,106.5,2179,113.4z"/>
		<path id="path6880-5" fill="#D40000" d="M2096.2,192.8c-4.1-6.9-8.5-13.5-14-19.2c5.5-5.7,9.8-12.3,14-19.2
			c4.1,6.9,8.5,13.5,14,19.2C2104.7,179.2,2100.3,185.9,2096.2,192.8z"/>
		<path id="path6882-9" fill="#D40000" d="M2179,192.8c-4.1-6.9-8.5-13.5-14-19.2c5.5-5.7,9.8-12.3,14-19.2
			c4.1,6.9,8.5,13.5,14,19.2C2187.5,179.2,2183.1,185.9,2179,192.8z"/>
		<path id="path25-43-4-8-8" fill="#D40000" d="M2058,6.9c1.7-9.2,3.6-16.1,8.4-23.5h-9.9v3.2h-2.6v-6.1h14.4l1.8,2.8
			c-5.2,5.6-9.9,23.8-9,23.5H2058z"/>
		<path id="path25-7-0-7-6" fill="#D40000" d="M2217.2,181.4c-1.7,9.2-3.6,16.1-8.4,23.5h9.9v-3.2h2.6v6.1h-14.4l-1.8-2.8
			c5.2-5.6,9.9-23.8,9-23.5H2217.2z"/>
	</g>
</g>
</svg>
