<?xml version="1.0" encoding="utf-8"?>
<!DOCTYPE svg PUBLIC "-//W3C//DTD SVG 1.1//EN" "http://www.w3.org/Graphics/SVG/1.1/DTD/svg11.dtd">
<svg version="1.1"
	 id="svg5644" xmlns:rdf="http://www.w3.org/1999/02/22-rdf-syntax-ns#" xmlns:dc="http://purl.org/dc/elements/1.1/" xmlns:cc="http://creativecommons.org/ns#" xmlns:svg="http://www.w3.org/2000/svg"
	 xmlns="http://www.w3.org/2000/svg" xmlns:xlink="http://www.w3.org/1999/xlink" x="0px" y="0px" width="178.6px" height="249.4px"
	 viewBox="0 0 178.6 249.4" enable-background="new 0 0 178.6 249.4" xml:space="preserve">
<g id="layer1" transform="translate(-182.67159,-319.31388)">
	<g id="g11234-8-5" transform="matrix(0.99553774,0,0,0.99680134,-1961.6793,1380.4092)">
		<path id="rect10074-2-8" fill="#FBFBF6" stroke="#7F7F7F" stroke-width="0.4" d="M2162.9-1064.1h161.5c4.7,0,8.5,3.8,8.5,8.5
			v232.4c0,4.7-3.8,8.5-8.5,8.5h-161.5c-4.7,0-8.5-3.8-8.5-8.5v-232.4C2154.4-1060.3,2158.2-1064.1,2162.9-1064.1z"/>
		<g id="g10092-4-5" transform="translate(2154.4627,-1064)">
		</g>
		<g id="g10098-2-4" transform="translate(2181.0543,-1083.9055)">
		</g>
		<path id="path10106-2-3" fill="#D40000" d="M2168.1-1008.1c0,0-1.8-2.6-4.2-5.6c-1.6-2-2.9-4.2-3-6.1c-0.1-2.1,1.2-4.3,3.5-4.4
			c2.3-0.1,3.3,1.6,3.7,3.1c0.4-1.4,1.3-3.2,3.7-3.1c2.3,0.1,3.6,2.3,3.5,4.4c-0.1,1.9-1.4,4-3,6.1
			C2169.9-1010.7,2168.1-1008.1,2168.1-1008.1z"/>
		<path id="path10108-3-1" fill="#D40000" d="M2319.2-870.6c0,0-1.8,2.6-4.2,5.6c-1.6,2-2.9,4.2-3,6.1c-0.1,2.1,1.2,4.3,3.5,4.4
			c2.3,0.1,3.3-1.6,3.7-3.1c0.4,1.4,1.3,3.2,3.7,3.1c2.3-0.1,3.6-2.3,3.5-4.4c-0.1-1.9-1.4-4-3-6.1
			C2321-868.1,2319.2-870.6,2319.2-870.6z"/>
		<path id="path10110-3-5" fill="#D40000" d="M2243.7-959.9c0,0-3.7-6.1-8.8-13.3c-3.4-4.8-6.1-10-6.3-14.5
			c-0.3-5.1,2.4-10.3,7.4-10.5c4.9-0.2,6.9,4,7.7,7.4c0.8-3.5,2.8-7.7,7.7-7.4c4.9,0.2,7.6,5.4,7.4,10.5c-0.3,4.5-2.9,9.7-6.3,14.5
			C2247.4-966,2243.7-959.9,2243.7-959.9z"/>
		<path id="path10114-8-3" fill="#D40000" d="M2202.2-999.5c0,0-3.7-6.1-8.8-13.3c-3.4-4.8-6.1-10-6.3-14.5
			c-0.3-5.1,2.4-10.3,7.4-10.5c4.9-0.2,6.9,4,7.7,7.4c0.8-3.5,2.8-7.7,7.7-7.4c4.9,0.2,7.6,5.4,7.4,10.5c-0.3,4.5-2.9,9.7-6.3,14.5
			C2206-1005.7,2202.2-999.5,2202.2-999.5z"/>
		<path id="path10116-2-5" fill="#D40000" d="M2285.1-920.2c0,0-3.7-6.1-8.8-13.3c-3.4-4.8-6.1-10-6.3-14.5
			c-0.3-5.1,2.4-10.3,7.4-10.5c4.9-0.2,6.9,4,7.7,7.4c0.8-3.5,2.8-7.7,7.7-7.4c4.9,0.2,7.6,5.4,7.4,10.5c-0.3,4.5-2.9,9.7-6.3,14.5
			C2288.8-926.3,2285.1-920.2,2285.1-920.2z"/>
		<path id="path10120-6-5" fill="#D40000" d="M2285.1-999.5c0,0-3.7-6.1-8.8-13.3c-3.4-4.8-6.1-10-6.3-14.5
			c-0.3-5.1,2.4-10.3,7.4-10.5c4.9-0.2,6.9,4,7.7,7.4c0.8-3.5,2.8-7.7,7.7-7.4c4.9,0.2,7.6,5.4,7.4,10.5c-0.3,4.5-2.9,9.7-6.3,14.5
			C2288.8-1005.7,2285.1-999.5,2285.1-999.5z"/>
		<path id="path10124-1-1" fill="#D40000" d="M2202.2-920.2c0,0-3.7-6.1-8.8-13.3c-3.4-4.8-6.1-10-6.3-14.5
			c-0.3-5.1,2.4-10.3,7.4-10.5c4.9-0.2,6.9,4,7.7,7.4c0.8-3.5,2.8-7.7,7.7-7.4c4.9,0.2,7.6,5.4,7.4,10.5c-0.3,4.5-2.9,9.7-6.3,14.5
			C2206-926.3,2202.2-920.2,2202.2-920.2z"/>
		<path id="path10134-7-3" fill="#D40000" d="M2285.1-879.2c0,0-3.7,6.1-8.8,13.3c-3.4,4.8-6.1,10-6.3,14.5
			c-0.3,5.1,2.4,10.3,7.4,10.5c4.9,0.2,6.9-4,7.7-7.4c0.8,3.5,2.8,7.7,7.7,7.4c4.9-0.2,7.6-5.4,7.4-10.5c-0.3-4.5-2.9-9.7-6.3-14.5
			C2288.8-873.1,2285.1-879.2,2285.1-879.2z"/>
		<path id="path10136-5-7" fill="#D40000" d="M2202.2-879.2c0,0-3.7,6.1-8.8,13.3c-3.4,4.8-6.1,10-6.3,14.5
			c-0.3,5.1,2.4,10.3,7.4,10.5c4.9,0.2,6.9-4,7.7-7.4c0.8,3.5,2.8,7.7,7.7,7.4c4.9-0.2,7.6-5.4,7.4-10.5c-0.3-4.5-2.9-9.7-6.3-14.5
			C2206-873.1,2202.2-879.2,2202.2-879.2z"/>
		<path id="path25-43-2-3-9" fill="#D40000" d="M2164.1-1026.6c1.7-9.2,3.6-16.1,8.4-23.5h-9.9v3.2h-2.6v-6.1h14.4l1.8,2.8
			c-5.2,5.6-9.9,23.8-9,23.5H2164.1z"/>
		<path id="path25-7-0-2-8-2" fill="#D40000" d="M2323.2-852.1c-1.7,9.2-3.6,16.1-8.4,23.5h9.9v-3.2h2.6v6.1h-14.4l-1.8-2.8
			c5.2-5.6,9.9-23.8,9-23.5L2323.2-852.1L2323.2-852.1z"/>
	</g>
</g>
</svg>
