<?xml version="1.0" encoding="utf-8"?>
<!DOCTYPE svg PUBLIC "-//W3C//DTD SVG 1.1//EN" "http://www.w3.org/Graphics/SVG/1.1/DTD/svg11.dtd">
<svg version="1.1"
	 id="svg4637" xmlns:rdf="http://www.w3.org/1999/02/22-rdf-syntax-ns#" xmlns:dc="http://purl.org/dc/elements/1.1/" xmlns:cc="http://creativecommons.org/ns#" xmlns:svg="http://www.w3.org/2000/svg"
	 xmlns="http://www.w3.org/2000/svg" xmlns:xlink="http://www.w3.org/1999/xlink" x="0px" y="0px" width="178.6px" height="249.4px"
	 viewBox="0 0 178.6 249.4" enable-background="new 0 0 178.6 249.4" xml:space="preserve">
<g id="layer1" transform="translate(-314.1001,-259.31383)">
	<g id="g5495" transform="matrix(0.99999718,0,0,1.000002,-1998.5039,1348.184)">
		<path id="rect6355-6-85-3-3-4-3" fill="#FBFBF6" stroke="#7F7F7F" stroke-width="0.4" d="M2321.5-1088.5h160.8
			c4.7,0,8.5,3.8,8.5,8.5v231.6c0,4.7-3.8,8.5-8.5,8.5h-160.8c-4.7,0-8.5-3.8-8.5-8.5V-1080
			C2313-1084.7,2316.8-1088.5,2321.5-1088.5z"/>
		<path id="path147-0-8-1-6-13-2-2-3-8" d="M2443.1-1062.1c-7.8,0.2-11.3,9-5.5,15.8c0.8,1,0.9,1.6-0.6,0.6
			c-3.9-2.6-11.4-0.9-11.8,7.1c-0.5,9.8,13.3,12.7,15.8,2.2c0.1-1.1,1-1.1,0.8,0.5c-0.2,4.2-1.6,8.2-3.4,12.1c3.1,0,6.5,0,9.3,0
			c-1.8-3.9-3.1-7.8-3.4-12.1c-0.2-1.6,0.7-1.6,0.8-0.5c2.6,10.4,16.3,7.6,15.8-2.2c-0.4-8-7.9-9.7-11.8-7.1c-1.5,1-1.5,0.4-0.6-0.6
			C2454.5-1053.1,2450.9-1061.9,2443.1-1062.1C2443.1-1062.1,2443.1-1062.1,2443.1-1062.1L2443.1-1062.1z"/>
		<path id="path147-0-8-1-6-75-2-83-9-8-9" d="M2360.7-1062.1c-7.8,0.2-11.3,9-5.5,15.8c0.8,1,0.9,1.6-0.6,0.6
			c-3.9-2.6-11.4-0.9-11.8,7.1c-0.5,9.8,13.2,12.7,15.8,2.2c0.1-1.1,1-1.1,0.8,0.5c-0.2,4.2-1.6,8.2-3.4,12.1c3.1,0,6.5,0,9.3,0
			c-1.8-3.9-3.1-7.8-3.4-12.1c-0.2-1.6,0.7-1.6,0.8-0.5c2.6,10.4,16.3,7.6,15.8-2.2c-0.4-8-7.9-9.7-11.8-7.1c-1.5,1-1.5,0.4-0.6-0.6
			C2372-1053.1,2368.5-1061.9,2360.7-1062.1C2360.7-1062.1,2360.7-1062.1,2360.7-1062.1L2360.7-1062.1z"/>
		<path id="path147-0-8-1-6-7-5-5-7-62-3-0" d="M2443.1-865.6c-7.8-0.2-11.3-9-5.5-15.8c0.8-1,0.9-1.6-0.6-0.6
			c-3.9,2.6-11.4,0.9-11.8-7.1c-0.5-9.8,13.3-12.7,15.8-2.2c0.1,1.1,1,1.1,0.8-0.5c-0.2-4.2-1.6-8.2-3.4-12.1c3.1,0,6.5,0,9.3,0
			c-1.8,3.9-3.1,7.8-3.4,12.1c-0.2,1.6,0.7,1.6,0.8,0.5c2.6-10.4,16.3-7.6,15.8,2.2c-0.4,8-7.9,9.7-11.8,7.1c-1.5-1-1.5-0.4-0.6,0.6
			C2454.5-874.5,2450.9-865.7,2443.1-865.6C2443.1-865.6,2443.1-865.6,2443.1-865.6L2443.1-865.6z"/>
		<path id="path147-0-8-1-6-75-6-1-2-41-4-5" d="M2360.7-865.6c-7.8-0.2-11.3-9-5.5-15.8c0.8-1,0.9-1.6-0.6-0.6
			c-3.9,2.6-11.4,0.9-11.8-7.1c-0.5-9.8,13.2-12.7,15.8-2.2c0.1,1.1,1,1.1,0.8-0.5c-0.2-4.2-1.6-8.2-3.4-12.1c3.1,0,6.5,0,9.3,0
			c-1.8,3.9-3.1,7.8-3.4,12.1c-0.2,1.6,0.7,1.6,0.8,0.5c2.6-10.4,16.3-7.6,15.8,2.2c-0.4,8-7.9,9.7-11.8,7.1c-1.5-1-1.5-0.4-0.6,0.6
			C2372-874.5,2368.5-865.7,2360.7-865.6C2360.7-865.6,2360.7-865.6,2360.7-865.6L2360.7-865.6z"/>
		<path id="path147-0-8-1-6-2-00-7-5-5-3" d="M2401.9-1022.5c-7.8,0.2-11.3,9-5.5,15.8c0.8,1,0.9,1.6-0.6,0.6
			c-3.9-2.6-11.4-0.9-11.8,7.1c-0.5,9.8,13.2,12.7,15.8,2.2c0.1-1.1,1-1.1,0.8,0.5c-0.2,4.2-1.6,8.2-3.4,12.1c3.1,0,6.5,0,9.3,0
			c-1.8-3.9-3.1-7.8-3.4-12.1c-0.2-1.6,0.7-1.6,0.8-0.5c2.6,10.4,16.3,7.6,15.8-2.2c-0.4-8-7.9-9.7-11.8-7.1c-1.5,1-1.5,0.4-0.6-0.6
			C2413.2-1013.5,2409.7-1022.3,2401.9-1022.5C2401.9-1022.5,2401.9-1022.5,2401.9-1022.5L2401.9-1022.5z"/>
		<path id="path147-0-8-1-6-7-5-7-3-0-4-4-6" d="M2443.1-983c-7.8,0.2-11.3,9-5.5,15.8c0.8,1,0.9,1.6-0.6,0.6
			c-3.9-2.6-11.4-0.9-11.8,7.1c-0.5,9.8,13.3,12.7,15.8,2.2c0.1-1.1,1-1.1,0.8,0.5c-0.2,4.2-1.6,8.2-3.4,12.1c3.1,0,6.5,0,9.3,0
			c-1.8-3.9-3.1-7.8-3.4-12.1c-0.2-1.6,0.7-1.6,0.8-0.5c2.6,10.4,16.3,7.6,15.8-2.2c-0.4-8-7.9-9.7-11.8-7.1c-1.5,1-1.5,0.4-0.6-0.6
			C2454.5-974,2450.9-982.8,2443.1-983C2443.1-983,2443.1-983,2443.1-983L2443.1-983z"/>
		<path id="path147-0-8-1-6-75-6-6-5-3-2-4-8" d="M2360.7-983c-7.8,0.2-11.3,9-5.5,15.8c0.8,1,0.9,1.6-0.6,0.6
			c-3.9-2.6-11.4-0.9-11.8,7.1c-0.5,9.8,13.2,12.7,15.8,2.2c0.1-1.1,1-1.1,0.8,0.5c-0.2,4.2-1.6,8.2-3.4,12.1c3.1,0,6.5,0,9.3,0
			c-1.8-3.9-3.1-7.8-3.4-12.1c-0.2-1.6,0.7-1.6,0.8-0.5c2.6,10.4,16.3,7.6,15.8-2.2c-0.4-8-7.9-9.7-11.8-7.1c-1.5,1-1.5,0.4-0.6-0.6
			C2372-974,2368.5-982.8,2360.7-983C2360.7-983,2360.7-983,2360.7-983L2360.7-983z"/>
		<path id="path147-0-8-1-6-2-0-8-6-42-9-6" d="M2401.9-905.1c-7.8-0.2-11.3-9-5.5-15.8c0.8-1,0.9-1.6-0.6-0.6
			c-3.9,2.6-11.4,0.9-11.8-7.1c-0.5-9.8,13.2-12.7,15.8-2.2c0.1,1.1,1,1.1,0.8-0.5c-0.2-4.2-1.6-8.2-3.4-12.1c3.1,0,6.5,0,9.3,0
			c-1.8,3.9-3.1,7.8-3.4,12.1c-0.2,1.6,0.7,1.6,0.8,0.5c2.6-10.4,16.3-7.6,15.8,2.2c-0.4,8-7.9,9.7-11.8,7.1c-1.5-1-1.5-0.4-0.6,0.6
			C2413.2-914.1,2409.7-905.3,2401.9-905.1C2401.9-905.1,2401.9-905.1,2401.9-905.1L2401.9-905.1z"/>
		<path id="path147-6-9-8-7-0-5-6-1-6-9" d="M2477.1-879.7c3.1-0.1,4.5-3.7,2.2-6.6c-0.3-0.4-0.4-0.7,0.2-0.3
			c1.6,1.1,4.6,0.4,4.7-2.9c0.2-4.1-5.3-5.3-6.3-0.9c-0.1,0.5-0.4,0.4-0.3-0.2c0.1-1.8,0.6-3.4,1.4-5c-1.2,0-2.5,0-3.7,0
			c0.7,1.6,1.3,3.3,1.4,5c0.1,0.7-0.3,0.7-0.3,0.2c-1-4.4-6.5-3.2-6.3,0.9c0.2,3.3,3.1,4,4.7,2.9c0.6-0.4,0.6-0.2,0.2,0.3
			C2472.5-883.4,2474-879.7,2477.1-879.7L2477.1-879.7L2477.1-879.7z"/>
		<path id="path147-6-9-8-7-4-5-62-4-0-0" d="M2326.7-1048.6c-3.1,0.1-4.5,3.7-2.2,6.6c0.3,0.4,0.4,0.7-0.2,0.3
			c-1.6-1.1-4.5-0.4-4.7,2.9c-0.2,4.1,5.3,5.3,6.3,0.9c0.1-0.5,0.4-0.4,0.3,0.2c-0.1,1.8-0.6,3.4-1.4,5c1.2,0,2.5,0,3.7,0
			c-0.7-1.6-1.3-3.3-1.4-5c-0.1-0.7,0.3-0.7,0.3-0.2c1,4.4,6.5,3.2,6.3-0.9c-0.2-3.3-3.1-4-4.7-2.9c-0.6,0.4-0.6,0.2-0.2-0.3
			C2331.2-1044.9,2329.8-1048.5,2326.7-1048.6L2326.7-1048.6L2326.7-1048.6z"/>
		<path id="path27-3-3-2" d="M2318.2-1058.8c0.1-3.5,1.4-4.9,3.9-6.7c-2-1.4-2.8-3.6-2.7-5.4c0.4-4.4,3.8-6.6,7.5-6.5
			c3.7,0.1,6.9,3,7.1,6.2c0.2,2.8-0.6,4.1-2.6,5.6c2.3,2,3.8,3.3,3.8,6.8c-0.1,3.5-3,7.6-8.2,7.7
			C2321.9-1051,2318.1-1055.3,2318.2-1058.8L2318.2-1058.8L2318.2-1058.8z M2332.6-1058.8c0.2-3.2-2.6-5.4-5.8-5.4
			c-3.1,0-5.9,2.6-5.9,5.5c0,3.1,3.6,4.8,5.9,4.8C2329.7-1053.9,2332.4-1056.1,2332.6-1058.8L2332.6-1058.8z M2331.5-1070.3
			c0.1-2.7-2.4-4.6-5-4.5c-2.3,0.1-4.7,1.8-4.7,4.1c0,2.8,2.7,4.2,5.1,4.3C2329.1-1066.4,2331.5-1068.2,2331.5-1070.3L2331.5-1070.3
			z"/>
		<path id="path27-0-0-5-0" d="M2468.5-869.5c0.1,3.5,1.4,4.9,3.9,6.7c-2,1.4-2.8,3.6-2.7,5.4c0.4,4.4,3.8,6.6,7.5,6.5
			c3.7-0.1,6.9-3,7.1-6.2c0.2-2.8-0.6-4.1-2.6-5.6c2.3-2,3.8-3.3,3.8-6.8c-0.1-3.5-3-7.6-8.2-7.7
			C2472.3-877.3,2468.4-873,2468.5-869.5L2468.5-869.5z M2482.9-869.5c0.2,3.2-2.6,5.4-5.8,5.4c-3.1,0-5.9-2.6-5.9-5.5
			c0-3.1,3.6-4.8,5.9-4.8C2480-874.4,2482.7-872.2,2482.9-869.5L2482.9-869.5L2482.9-869.5z M2481.9-858c0.1,2.7-2.4,4.6-5,4.5
			c-2.3-0.1-4.7-1.8-4.7-4.1c0-2.8,2.7-4.2,5.1-4.3C2479.4-861.9,2481.9-860.1,2481.9-858L2481.9-858z"/>
	</g>
</g>
</svg>
