<?xml version="1.0" encoding="utf-8"?>
<!DOCTYPE svg PUBLIC "-//W3C//DTD SVG 1.1//EN" "http://www.w3.org/Graphics/SVG/1.1/DTD/svg11.dtd">
<svg version="1.1"
	 id="svg7778" xmlns:rdf="http://www.w3.org/1999/02/22-rdf-syntax-ns#" xmlns:dc="http://purl.org/dc/elements/1.1/" xmlns:cc="http://creativecommons.org/ns#" xmlns:svg="http://www.w3.org/2000/svg"
	 xmlns="http://www.w3.org/2000/svg" xmlns:xlink="http://www.w3.org/1999/xlink" x="0px" y="0px" width="178.6px" height="249.4px"
	 viewBox="0 0 178.6 249.4" enable-background="new 0 0 178.6 249.4" xml:space="preserve">
<g id="layer1" transform="translate(2.518204e-5,-740.55055)">
	<g id="g6785" transform="matrix(0.99553491,0,0,0.99680337,-2301.7868,771.39684)">
		<path id="rect6894-2" fill="#FBFBF6" stroke="#7F7F7F" stroke-width="0.4" d="M2321.1-30.5h161.5c4.7,0,8.5,3.8,8.5,8.5v232.4
			c0,4.7-3.8,8.5-8.5,8.5h-161.5c-4.7,0-8.5-3.8-8.5-8.5V-22C2312.5-26.7,2316.3-30.5,2321.1-30.5z"/>
		<path id="path6926-2" fill="#D40000" d="M2326.3,25.4c-1.7-2.9-3.5-5.6-5.8-8c2.3-2.4,4.1-5.1,5.8-8c1.7,2.9,3.5,5.6,5.8,8
			C2329.8,19.8,2328,22.6,2326.3,25.4z"/>
		<path id="path6928-9" fill="#D40000" d="M2443.2,34c-4.1-6.9-8.5-13.5-14-19.2c5.5-5.7,9.8-12.3,14-19.2c4.1,6.9,8.5,13.5,14,19.2
			C2451.7,20.5,2447.4,27.2,2443.2,34z"/>
		<path id="path6930-6" fill="#D40000" d="M2477.3,178.9c-1.7-2.9-3.5-5.6-5.8-8c2.3-2.4,4.1-5.1,5.8-8c1.7,2.9,3.5,5.6,5.8,8
			C2480.9,173.3,2479,176.1,2477.3,178.9z"/>
		<path id="path6932-2" fill="#D40000" d="M2360.4,34c-4.1-6.9-8.5-13.5-14-19.2c5.5-5.7,9.8-12.3,14-19.2c4.1,6.9,8.5,13.5,14,19.2
			C2368.9,20.5,2364.5,27.2,2360.4,34z"/>
		<path id="path6938-4" fill="#D40000" d="M2401.8,73.7c-4.1-6.9-8.5-13.5-14-19.2c5.5-5.7,9.8-12.3,14-19.2
			c4.1,6.9,8.5,13.5,14,19.2C2410.3,60.2,2406,66.8,2401.8,73.7z"/>
		<path id="path6942-4" fill="#D40000" d="M2360.4,113.4c-4.1-6.9-8.5-13.5-14-19.2c5.5-5.7,9.8-12.3,14-19.2
			c4.1,6.9,8.5,13.5,14,19.2C2368.9,99.8,2364.5,106.5,2360.4,113.4z"/>
		<path id="path6944-9" fill="#D40000" d="M2443.2,113.4c-4.1-6.9-8.5-13.5-14-19.2c5.5-5.7,9.8-12.3,14-19.2
			c4.1,6.9,8.5,13.5,14,19.2C2451.7,99.9,2447.4,106.5,2443.2,113.4z"/>
		<path id="path6948-4" fill="#D40000" d="M2360.4,192.8c-4.1-6.9-8.5-13.5-14-19.2c5.5-5.7,9.8-12.3,14-19.2
			c4.1,6.9,8.5,13.5,14,19.2C2368.9,179.2,2364.5,185.9,2360.4,192.8z"/>
		<path id="path6950-4" fill="#D40000" d="M2443.2,192.8c-4.1-6.9-8.5-13.5-14-19.2c5.5-5.7,9.8-12.3,14-19.2
			c4.1,6.9,8.5,13.5,14,19.2C2451.7,179.2,2447.4,185.9,2443.2,192.8z"/>
		<path id="path6956-4" fill="#D40000" d="M2401.8,153.1c-4.1-6.9-8.5-13.5-14-19.2c5.5-5.7,9.8-12.3,14-19.2
			c4.1,6.9,8.5,13.5,14,19.2C2410.3,139.5,2406,146.2,2401.8,153.1z"/>
		<path id="path27-00-7-8-6" fill="#D40000" d="M2317.7-0.8c0.1-3.5,1.4-4.9,3.9-6.7c-2-1.5-2.9-3.6-2.7-5.4
			c0.4-4.4,3.8-6.6,7.5-6.5c3.7,0.1,6.9,3,7.2,6.3c0.2,2.8-0.6,4.1-2.6,5.6c2.3,2,3.8,3.3,3.8,6.8c-0.1,3.5-3,7.6-8.2,7.8
			C2321.5,7,2317.6,2.7,2317.7-0.8L2317.7-0.8L2317.7-0.8z M2332.2-0.8c0.2-3.2-2.6-5.4-5.8-5.4c-3.1,0-5.9,2.6-5.9,5.5
			c0,3.1,3.6,4.8,6,4.8C2329.3,4.1,2332,2,2332.2-0.8L2332.2-0.8z M2331.1-12.3c0.1-2.7-2.4-4.6-5-4.6c-2.3,0.1-4.7,1.8-4.7,4.1
			c0,2.8,2.8,4.2,5.1,4.3C2328.7-8.4,2331.1-10.2,2331.1-12.3L2331.1-12.3L2331.1-12.3z"/>
		<path id="path27-0-1-9-8" fill="#D40000" d="M2468.7,189.2c0.1,3.5,1.4,4.9,3.9,6.7c-2,1.5-2.9,3.6-2.7,5.4
			c0.4,4.4,3.8,6.6,7.5,6.5c3.7-0.1,6.9-3,7.2-6.3c0.2-2.8-0.6-4.1-2.6-5.6c2.3-2,3.8-3.3,3.8-6.8c-0.1-3.5-3-7.6-8.2-7.8
			C2472.5,181.3,2468.6,185.6,2468.7,189.2L2468.7,189.2L2468.7,189.2z M2483.2,189.2c0.2,3.2-2.6,5.4-5.8,5.4
			c-3.1,0-5.9-2.6-5.9-5.5c0-3.1,3.6-4.8,6-4.8C2480.3,184.3,2483,186.4,2483.2,189.2L2483.2,189.2z M2482.2,200.6
			c0.1,2.7-2.4,4.6-5,4.6c-2.3-0.1-4.7-1.8-4.7-4.1c0-2.8,2.8-4.2,5.1-4.3C2479.7,196.8,2482.1,198.6,2482.2,200.6L2482.2,200.6
			L2482.2,200.6z"/>
	</g>
</g>
</svg>
