<?xml version="1.0" encoding="utf-8"?>
<!DOCTYPE svg PUBLIC "-//W3C//DTD SVG 1.1//EN" "http://www.w3.org/Graphics/SVG/1.1/DTD/svg11.dtd">
<svg version="1.1"
	 id="svg5749" xmlns:rdf="http://www.w3.org/1999/02/22-rdf-syntax-ns#" xmlns:dc="http://purl.org/dc/elements/1.1/" xmlns:cc="http://creativecommons.org/ns#" xmlns:svg="http://www.w3.org/2000/svg"
	 xmlns="http://www.w3.org/2000/svg" xmlns:xlink="http://www.w3.org/1999/xlink" x="0px" y="0px" width="178.6px" height="249.4px"
	 viewBox="0 0 178.6 249.4" enable-background="new 0 0 178.6 249.4" xml:space="preserve">
<g id="layer1" transform="translate(-194.1001,-253.59956)">
	<g id="g11195-3-7" transform="matrix(0.99553774,0,0,0.99680134,-2234.8215,1314.6949)">
		<g id="g10140-6-7" transform="translate(2179.8759,-1434.2756)">
			<path id="rect10142-4-2" fill="#FBFBF6" stroke="#7F7F7F" stroke-width="0.4" d="M268.9,370.2h161.5c4.7,0,8.5,3.8,8.5,8.5
				v232.4c0,4.7-3.8,8.5-8.5,8.5H268.9c-4.7,0-8.5-3.8-8.5-8.5V378.7C260.3,374,264.2,370.2,268.9,370.2z"/>
		</g>
		<g id="g10160-2-4" transform="translate(2440.3089,-1064)">
		</g>
		<g id="g10166-2-7" transform="translate(2466.9005,-1083.9055)">
		</g>
		<path id="path10174-9-0" fill="#D40000" d="M2454-1008.1c0,0-1.8-2.6-4.2-5.6c-1.6-2-2.9-4.2-3-6.1c-0.1-2.1,1.2-4.3,3.5-4.4
			c2.3-0.1,3.3,1.6,3.7,3.1c0.4-1.4,1.3-3.2,3.7-3.1c2.3,0.1,3.6,2.3,3.5,4.4c-0.1,1.9-1.4,4-3,6.1
			C2455.8-1010.7,2454-1008.1,2454-1008.1z"/>
		<path id="path10176-9-9" fill="#D40000" d="M2605-870.6c0,0-1.8,2.6-4.2,5.6c-1.6,2-2.9,4.2-3,6.1c-0.1,2.1,1.2,4.3,3.5,4.4
			c2.3,0.1,3.3-1.6,3.7-3.1c0.4,1.4,1.3,3.2,3.7,3.1c2.3-0.1,3.6-2.3,3.5-4.4c-0.1-1.9-1.4-4-3-6.1
			C2606.8-868.1,2605-870.6,2605-870.6z"/>
		<path id="path10178-8-4" fill="#D40000" d="M2529.5-959.9c0,0-3.7-6.1-8.8-13.3c-3.4-4.8-6.1-10-6.3-14.5
			c-0.3-5.1,2.4-10.3,7.4-10.5c4.9-0.2,6.9,4,7.7,7.4c0.8-3.5,2.8-7.7,7.7-7.4c4.9,0.2,7.6,5.4,7.4,10.5c-0.2,4.5-2.9,9.7-6.3,14.5
			C2533.2-966,2529.5-959.9,2529.5-959.9z"/>
		<path id="path10182-1-9" fill="#D40000" d="M2488.1-999.5c0,0-3.7-6.1-8.8-13.3c-3.4-4.8-6.1-10-6.3-14.5
			c-0.3-5.1,2.4-10.3,7.4-10.5c4.9-0.2,6.9,4,7.7,7.4c0.8-3.5,2.8-7.7,7.7-7.4c4.9,0.2,7.6,5.4,7.4,10.5c-0.3,4.5-2.9,9.7-6.3,14.5
			C2491.8-1005.7,2488.1-999.5,2488.1-999.5z"/>
		<path id="path10184-9-1" fill="#D40000" d="M2570.9-920.2c0,0-3.7-6.1-8.8-13.3c-3.4-4.8-6.1-10-6.3-14.5
			c-0.3-5.1,2.4-10.3,7.4-10.5c4.9-0.2,6.9,4,7.7,7.4c0.8-3.5,2.8-7.7,7.7-7.4c4.9,0.2,7.6,5.4,7.4,10.5c-0.3,4.5-2.9,9.7-6.3,14.5
			C2574.6-926.3,2570.9-920.2,2570.9-920.2z"/>
		<path id="path10188-5-4" fill="#D40000" d="M2570.9-999.5c0,0-3.7-6.1-8.8-13.3c-3.4-4.8-6.1-10-6.3-14.5
			c-0.3-5.1,2.4-10.3,7.4-10.5c4.9-0.2,6.9,4,7.7,7.4c0.8-3.5,2.8-7.7,7.7-7.4c4.9,0.2,7.6,5.4,7.4,10.5c-0.3,4.5-2.9,9.7-6.3,14.5
			C2574.6-1005.7,2570.9-999.5,2570.9-999.5z"/>
		<path id="path10192-3-6" fill="#D40000" d="M2488.1-920.2c0,0-3.7-6.1-8.8-13.3c-3.4-4.8-6.1-10-6.3-14.5
			c-0.3-5.1,2.4-10.3,7.4-10.5c4.9-0.2,6.9,4,7.7,7.4c0.8-3.5,2.8-7.7,7.7-7.4c4.9,0.2,7.6,5.4,7.4,10.5c-0.3,4.5-2.9,9.7-6.3,14.5
			C2491.8-926.3,2488.1-920.2,2488.1-920.2z"/>
		<path id="path10196-7-3" fill="#D40000" d="M2529.5-918.9c0,0-3.7,6.1-8.8,13.3c-3.4,4.8-6.1,10-6.3,14.5
			c-0.3,5.1,2.4,10.3,7.4,10.5c4.9,0.2,6.9-4,7.7-7.4c0.8,3.5,2.8,7.7,7.7,7.4c4.9-0.2,7.6-5.4,7.4-10.5c-0.2-4.5-2.9-9.7-6.3-14.5
			C2533.2-912.8,2529.5-918.9,2529.5-918.9L2529.5-918.9z"/>
		<path id="path10202-2-8" fill="#D40000" d="M2570.9-879.2c0,0-3.7,6.1-8.8,13.3c-3.4,4.8-6.1,10-6.3,14.5
			c-0.3,5.1,2.4,10.3,7.4,10.5c4.9,0.2,6.9-4,7.7-7.4c0.8,3.5,2.8,7.7,7.7,7.4c4.9-0.2,7.6-5.4,7.4-10.5c-0.3-4.5-2.9-9.7-6.3-14.5
			C2574.6-873.1,2570.9-879.2,2570.9-879.2z"/>
		<path id="path10204-9-4" fill="#D40000" d="M2488.1-879.2c0,0-3.7,6.1-8.8,13.3c-3.4,4.8-6.1,10-6.3,14.5
			c-0.3,5.1,2.4,10.3,7.4,10.5c4.9,0.2,6.9-4,7.7-7.4c0.8,3.5,2.8,7.7,7.7,7.4c4.9-0.2,7.6-5.4,7.4-10.5c-0.3-4.5-2.9-9.7-6.3-14.5
			C2491.8-873.1,2488.1-879.2,2488.1-879.2z"/>
		<path id="path27-00-0-7-4" fill="#D40000" d="M2445.4-1034.4c0.1-3.5,1.4-4.9,3.9-6.7c-2-1.5-2.9-3.6-2.7-5.4
			c0.4-4.4,3.8-6.6,7.5-6.5c3.7,0.1,6.9,3,7.2,6.3c0.2,2.8-0.6,4.1-2.6,5.6c2.3,2,3.8,3.3,3.8,6.8c-0.1,3.5-3,7.6-8.2,7.8
			C2449.2-1026.5,2445.3-1030.8,2445.4-1034.4L2445.4-1034.4L2445.4-1034.4z M2459.9-1034.4c0.2-3.2-2.6-5.4-5.8-5.4
			c-3.1,0-5.9,2.6-5.9,5.5c0,3.1,3.6,4.8,6,4.8C2456.9-1029.5,2459.7-1031.6,2459.9-1034.4L2459.9-1034.4L2459.9-1034.4z
			 M2458.8-1045.8c0.1-2.7-2.4-4.6-5-4.6c-2.3,0.1-4.7,1.8-4.7,4.1c0,2.8,2.8,4.2,5.1,4.3C2456.4-1042,2458.8-1043.8,2458.8-1045.8
			L2458.8-1045.8L2458.8-1045.8z"/>
		<path id="path27-0-1-0-8-9" fill="#D40000" d="M2596.4-844.4c0.1,3.5,1.4,4.9,3.9,6.7c-2,1.5-2.9,3.6-2.7,5.4
			c0.4,4.4,3.8,6.6,7.5,6.5c3.7-0.1,6.9-3,7.2-6.3c0.2-2.8-0.6-4.1-2.6-5.6c2.3-2,3.8-3.3,3.8-6.8c-0.1-3.5-3-7.6-8.2-7.8
			C2600.2-852.2,2596.3-847.9,2596.4-844.4L2596.4-844.4L2596.4-844.4z M2610.9-844.4c0.2,3.2-2.6,5.4-5.8,5.4
			c-3.1,0-5.9-2.6-5.9-5.5c0-3.1,3.6-4.8,6-4.8C2608-849.3,2610.7-847.2,2610.9-844.4L2610.9-844.4z M2609.9-832.9
			c0.1,2.7-2.4,4.6-5,4.6c-2.3-0.1-4.7-1.8-4.7-4.1c0-2.8,2.8-4.2,5.1-4.3C2607.4-836.8,2609.8-835,2609.9-832.9L2609.9-832.9
			L2609.9-832.9z"/>
	</g>
</g>
</svg>
