<?xml version="1.0" encoding="utf-8"?>
<!DOCTYPE svg PUBLIC "-//W3C//DTD SVG 1.1//EN" "http://www.w3.org/Graphics/SVG/1.1/DTD/svg11.dtd">
<svg version="1.1"
	 id="svg6800" xmlns:rdf="http://www.w3.org/1999/02/22-rdf-syntax-ns#" xmlns:dc="http://purl.org/dc/elements/1.1/" xmlns:cc="http://creativecommons.org/ns#" xmlns:svg="http://www.w3.org/2000/svg"
	 xmlns="http://www.w3.org/2000/svg" xmlns:xlink="http://www.w3.org/1999/xlink" x="0px" y="0px" width="178.6px" height="249.4px"
	 viewBox="0 0 178.6 249.4" enable-background="new 0 0 178.6 249.4" xml:space="preserve">
<g id="layer1" transform="translate(-199.81442,-376.45669)">
	<g id="g8511-1-4" transform="matrix(0.99553774,0,0,0.99680134,-2396.3963,846.8557)">
		<path id="rect7125-2-7" fill="#FBFBF6" stroke="#7F7F7F" stroke-width="0.4" d="M2616.8-471.5h161.5c4.7,0,8.5,3.8,8.5,8.5
			v232.4c0,4.7-3.8,8.5-8.5,8.5h-161.5c-4.7,0-8.5-3.8-8.5-8.5V-463C2608.2-467.7,2612.1-471.5,2616.8-471.5z"/>
		<path id="path7155-4-0" d="M2656.1-445.4c-7.4,10.5-15.3,16.6-15.4,24.8c0,2.7,1.4,7.2,5.9,8c2.9,0.6,6.9-1.8,7-6.6
			c0-1,1-0.9,1,0.4c-0.1,3.8-1.3,8.2-3.4,11.8c3.2,0,6.4,0,9.7,0c-2-3.6-3.2-8-3.4-11.8c0-1.3,1-1.3,1-0.4c0.1,4.8,4.1,7.2,7,6.6
			c4.5-0.9,5.9-5.4,5.9-8C2671.4-428.8,2663.5-434.8,2656.1-445.4z"/>
		<path id="path7157-2-9" d="M2622-431.5c-3.4,4.4-7.1,6.9-7.2,10.3c0,1.1,0.7,3,2.8,3.4c1.4,0.2,3.2-0.8,3.3-2.8
			c0-0.4,0.5-0.4,0.5,0.2c-0.1,1.6-0.6,3.4-1.6,4.9c1.5,0,3,0,4.5,0c-0.9-1.5-1.5-3.3-1.6-4.9c0-0.5,0.5-0.6,0.5-0.2
			c0,2,1.9,3,3.3,2.8c2.1-0.4,2.8-2.2,2.8-3.4C2629.2-424.6,2625.5-427.1,2622-431.5L2622-431.5z"/>
		<path id="path7162-7-0" d="M2773.1-262c-3.4-4.4-7.1-6.9-7.2-10.3c0-1.1,0.7-3,2.8-3.4c1.4-0.2,3.2,0.8,3.3,2.8
			c0,0.4,0.5,0.4,0.5-0.2c-0.1-1.6-0.6-3.4-1.6-4.9c1.5,0,3,0,4.5,0c-0.9,1.5-1.5,3.3-1.6,4.9c0,0.5,0.5,0.6,0.5,0.2
			c0-2,1.9-3,3.3-2.8c2.1,0.4,2.8,2.2,2.8,3.4C2780.2-268.9,2776.5-266.4,2773.1-262L2773.1-262z"/>
		<path id="path7164-8-3" d="M2739-445.4c-7.4,10.5-15.3,16.6-15.4,24.8c0,2.7,1.4,7.2,5.9,8c2.9,0.6,6.9-1.8,7-6.6c0-1,1-0.9,1,0.4
			c-0.1,3.8-1.3,8.2-3.4,11.8c3.2,0,6.4,0,9.7,0c-2-3.6-3.2-8-3.4-11.8c0-1.3,1-1.3,1-0.4c0.1,4.8,4.1,7.2,7,6.6
			c4.5-0.9,5.9-5.4,5.9-8C2754.2-428.8,2746.3-434.8,2739-445.4z"/>
		<path id="path7168-3-2" d="M2697.5-405.7c-7.4,10.5-15.3,16.6-15.4,24.8c0,2.7,1.4,7.2,5.9,8c2.9,0.6,6.9-1.8,7-6.6
			c0-1,1-0.9,1,0.4c-0.1,3.8-1.3,8.2-3.4,11.8c3.2,0,6.4,0,9.7,0c-2-3.6-3.2-8-3.4-11.8c0-1.3,1-1.3,1-0.4c0.1,4.8,4.1,7.2,7,6.6
			c4.5-0.9,5.9-5.4,5.9-8C2712.8-389.1,2704.9-395.1,2697.5-405.7z"/>
		<path id="path7174-5-0" d="M2656.1-366c-7.4,10.5-15.3,16.6-15.4,24.8c0,2.7,1.4,7.2,5.9,8c2.9,0.6,6.9-1.8,7-6.6c0-1,1-0.9,1,0.4
			c-0.1,3.8-1.3,8.2-3.4,11.8c3.2,0,6.4,0,9.7,0c-2-3.6-3.2-8-3.4-11.8c0-1.3,1-1.3,1-0.4c0.1,4.8,4.1,7.2,7,6.6
			c4.5-0.9,5.9-5.4,5.9-8C2671.4-349.4,2663.5-355.5,2656.1-366z"/>
		<path id="path7176-7-0" d="M2656.1-248.2c-7.4-10.5-15.3-16.6-15.4-24.8c0-2.7,1.4-7.2,5.9-8c2.9-0.6,6.9,1.8,7,6.6
			c0,1,1,0.9,1-0.4c-0.1-3.8-1.3-8.2-3.4-11.8c3.2,0,6.4,0,9.7,0c-2,3.6-3.2,8-3.4,11.8c0,1.3,1,1.3,1,0.4c0.1-4.8,4.1-7.2,7-6.6
			c4.5,0.9,5.9,5.4,5.9,8C2671.4-264.8,2663.5-258.7,2656.1-248.2z"/>
		<path id="path7178-9-4" d="M2739-248.2c-7.4-10.5-15.3-16.6-15.4-24.8c0-2.7,1.4-7.2,5.9-8c2.9-0.6,6.9,1.8,7,6.6c0,1,1,0.9,1-0.4
			c-0.1-3.8-1.3-8.2-3.4-11.8c3.2,0,6.4,0,9.7,0c-2,3.6-3.2,8-3.4,11.8c0,1.3,1,1.3,1,0.4c0.1-4.8,4.1-7.2,7-6.6
			c4.5,0.9,5.9,5.4,5.9,8C2754.2-264.8,2746.3-258.7,2739-248.2z"/>
		<path id="path7180-5-1" d="M2697.5-287.9c-7.4-10.5-15.3-16.6-15.4-24.8c0-2.7,1.4-7.2,5.9-8c2.9-0.6,6.9,1.8,7,6.6
			c0,1,1,0.9,1-0.4c-0.1-3.8-1.3-8.2-3.4-11.8c3.2,0,6.4,0,9.7,0c-2,3.6-3.2,8-3.4,11.8c0,1.3,1,1.3,1,0.4c0.1-4.8,4.1-7.2,7-6.6
			c4.5,0.9,5.9,5.4,5.9,8C2712.8-304.5,2704.9-298.4,2697.5-287.9z"/>
		<path id="path7189-7-7" d="M2739-366c-7.4,10.5-15.3,16.6-15.4,24.8c0,2.7,1.4,7.2,5.9,8c2.9,0.6,6.9-1.8,7-6.6c0-1,1-0.9,1,0.4
			c-0.1,3.8-1.3,8.2-3.4,11.8c3.2,0,6.4,0,9.7,0c-2-3.6-3.2-8-3.4-11.8c0-1.3,1-1.3,1-0.4c0.1,4.8,4.1,7.2,7,6.6
			c4.5-0.9,5.9-5.4,5.9-8C2754.2-349.4,2746.3-355.5,2739-366z"/>
		<path id="path27-43-30-7" d="M2613.4-441.8c0.1-3.5,1.4-4.9,3.9-6.7c-2-1.5-2.9-3.6-2.7-5.4c0.4-4.4,3.8-6.6,7.5-6.5
			c3.7,0.1,6.9,3,7.2,6.3c0.2,2.8-0.6,4.1-2.6,5.6c2.3,2,3.8,3.3,3.8,6.8c-0.1,3.5-3,7.6-8.2,7.8
			C2617.2-433.9,2613.3-438.2,2613.4-441.8L2613.4-441.8L2613.4-441.8z M2627.9-441.8c0.2-3.2-2.6-5.4-5.8-5.4
			c-3.1,0-5.9,2.6-5.9,5.5c0,3.1,3.6,4.8,6,4.8C2625-436.9,2627.7-439,2627.9-441.8L2627.9-441.8z M2626.9-453.2
			c0.1-2.7-2.4-4.6-5-4.6c-2.3,0.1-4.7,1.8-4.7,4.1c0,2.8,2.8,4.2,5.1,4.3C2624.4-449.4,2626.8-451.2,2626.9-453.2L2626.9-453.2
			L2626.9-453.2z"/>
		<path id="path27-43-3-4-8" d="M2764.5-251.8c0.1,3.5,1.4,4.9,3.9,6.7c-2,1.5-2.9,3.6-2.7,5.4c0.4,4.4,3.8,6.6,7.5,6.5
			c3.7-0.1,6.9-3,7.2-6.3c0.2-2.8-0.6-4.1-2.6-5.6c2.3-2,3.8-3.3,3.8-6.8c-0.1-3.5-3-7.6-8.2-7.8
			C2768.3-259.7,2764.4-255.3,2764.5-251.8L2764.5-251.8z M2778.9-251.8c0.2,3.2-2.6,5.4-5.8,5.4c-3.1,0-5.9-2.6-5.9-5.5
			c0-3.1,3.6-4.8,6-4.8C2776-256.7,2778.7-254.6,2778.9-251.8L2778.9-251.8z M2777.9-240.3c0.1,2.7-2.4,4.6-5,4.6
			c-2.3-0.1-4.7-1.8-4.7-4.1c0-2.8,2.8-4.2,5.1-4.3C2775.4-244.2,2777.9-242.4,2777.9-240.3L2777.9-240.3L2777.9-240.3z"/>
	</g>
</g>
</svg>
