<?xml version="1.0" encoding="utf-8"?>
<!DOCTYPE svg PUBLIC "-//W3C//DTD SVG 1.1//EN" "http://www.w3.org/Graphics/SVG/1.1/DTD/svg11.dtd">
<svg version="1.1"
	 id="svg4738" xmlns:rdf="http://www.w3.org/1999/02/22-rdf-syntax-ns#" xmlns:dc="http://purl.org/dc/elements/1.1/" xmlns:cc="http://creativecommons.org/ns#" xmlns:svg="http://www.w3.org/2000/svg"
	 xmlns="http://www.w3.org/2000/svg" xmlns:xlink="http://www.w3.org/1999/xlink" x="0px" y="0px" width="178.6px" height="249.4px"
	 viewBox="0 0 178.6 249.4" enable-background="new 0 0 178.6 249.4" xml:space="preserve">
<g id="layer1" transform="translate(-102.67155,-327.88523)">
	<g id="g5510" transform="matrix(0.99999718,0,0,1.000002,-2474.1568,1416.7554)">
		<path id="rect6355-6-85-3-78-4-6" fill="#FBFBF6" stroke="#7F7F7F" stroke-width="0.4" d="M2585.7-1088.5h160.8
			c4.7,0,8.5,3.8,8.5,8.5v231.6c0,4.7-3.8,8.5-8.5,8.5h-160.8c-4.7,0-8.5-3.8-8.5-8.5V-1080
			C2577.2-1084.7,2581-1088.5,2585.7-1088.5z"/>
		<path id="path147-0-8-1-6-13-2-9-8-8" d="M2707.3-1062.1c-7.8,0.2-11.3,9-5.5,15.8c0.8,1,0.9,1.6-0.6,0.6
			c-3.9-2.6-11.4-0.9-11.8,7.1c-0.5,9.8,13.2,12.7,15.8,2.2c0.1-1.1,1-1.1,0.8,0.5c-0.2,4.2-1.6,8.2-3.4,12.1c3.1,0,6.5,0,9.3,0
			c-1.8-3.9-3.1-7.8-3.4-12.1c-0.2-1.6,0.7-1.6,0.8-0.5c2.6,10.4,16.3,7.6,15.8-2.2c-0.4-8-7.9-9.7-11.8-7.1c-1.5,1-1.5,0.4-0.6-0.6
			C2718.7-1053.1,2715.2-1061.9,2707.3-1062.1C2707.4-1062.1,2707.4-1062.1,2707.3-1062.1L2707.3-1062.1z"/>
		<path id="path147-0-8-1-6-75-2-83-3-5-0" d="M2624.9-1062.1c-7.8,0.2-11.3,9-5.5,15.8c0.8,1,0.9,1.6-0.6,0.6
			c-3.9-2.6-11.4-0.9-11.8,7.1c-0.5,9.8,13.2,12.7,15.8,2.2c0.1-1.1,1-1.1,0.8,0.5c-0.2,4.2-1.6,8.2-3.4,12.1c3.1,0,6.5,0,9.3,0
			c-1.8-3.9-3.1-7.8-3.4-12.1c-0.2-1.6,0.7-1.6,0.8-0.5c2.6,10.4,16.3,7.6,15.8-2.2c-0.4-8-7.9-9.7-11.8-7.1c-1.5,1-1.5,0.4-0.6-0.6
			C2636.2-1053.1,2632.7-1061.9,2624.9-1062.1C2624.9-1062.1,2624.9-1062.1,2624.9-1062.1L2624.9-1062.1z"/>
		<path id="path147-0-8-1-6-7-5-5-7-63-0-4" d="M2707.3-865.6c-7.8-0.2-11.3-9-5.5-15.8c0.8-1,0.9-1.6-0.6-0.6
			c-3.9,2.6-11.4,0.9-11.8-7.1c-0.5-9.8,13.2-12.7,15.8-2.2c0.1,1.1,1,1.1,0.8-0.5c-0.2-4.2-1.6-8.2-3.4-12.1c3.1,0,6.5,0,9.3,0
			c-1.8,3.9-3.1,7.8-3.4,12.1c-0.2,1.6,0.7,1.6,0.8,0.5c2.6-10.4,16.3-7.6,15.8,2.2c-0.4,8-7.9,9.7-11.8,7.1c-1.5-1-1.5-0.4-0.6,0.6
			C2718.7-874.5,2715.2-865.7,2707.3-865.6C2707.4-865.6,2707.4-865.6,2707.3-865.6L2707.3-865.6z"/>
		<path id="path147-0-8-1-6-75-6-1-2-46-5-0" d="M2624.9-865.6c-7.8-0.2-11.3-9-5.5-15.8c0.8-1,0.9-1.6-0.6-0.6
			c-3.9,2.6-11.4,0.9-11.8-7.1c-0.5-9.8,13.2-12.7,15.8-2.2c0.1,1.1,1,1.1,0.8-0.5c-0.2-4.2-1.6-8.2-3.4-12.1c3.1,0,6.5,0,9.3,0
			c-1.8,3.9-3.1,7.8-3.4,12.1c-0.2,1.6,0.7,1.6,0.8,0.5c2.6-10.4,16.3-7.6,15.8,2.2c-0.4,8-7.9,9.7-11.8,7.1c-1.5-1-1.5-0.4-0.6,0.6
			C2636.2-874.5,2632.7-865.7,2624.9-865.6C2624.9-865.6,2624.9-865.6,2624.9-865.6L2624.9-865.6z"/>
		<path id="path147-0-8-1-6-1-1-0-5-61-2-0" d="M2666.1-983c-7.8,0.2-11.3,9-5.5,15.8c0.8,1,0.9,1.6-0.6,0.6
			c-3.9-2.6-11.4-0.9-11.8,7.1c-0.5,9.8,13.3,12.7,15.8,2.2c0.1-1.1,1-1.1,0.8,0.5c-0.2,4.2-1.6,8.2-3.4,12.1c3.1,0,6.5,0,9.3,0
			c-1.8-3.9-3.1-7.8-3.4-12.1c-0.2-1.6,0.7-1.6,0.8-0.5c2.6,10.4,16.3,7.6,15.8-2.2c-0.4-8-7.9-9.7-11.8-7.1c-1.5,1-1.5,0.4-0.6-0.6
			C2677.5-974,2673.9-982.8,2666.1-983C2666.1-983,2666.1-983,2666.1-983L2666.1-983z"/>
		<path id="path147-6-9-8-7-0-5-6-5-2-8" d="M2741.3-879.7c3.1-0.1,4.5-3.7,2.2-6.6c-0.3-0.4-0.4-0.7,0.2-0.3
			c1.6,1.1,4.6,0.4,4.7-2.9c0.2-4.1-5.3-5.3-6.3-0.9c-0.1,0.5-0.4,0.4-0.3-0.2c0.1-1.8,0.6-3.4,1.4-5c-1.2,0-2.5,0-3.7,0
			c0.7,1.6,1.3,3.3,1.4,5c0.1,0.7-0.3,0.7-0.3,0.2c-1-4.4-6.5-3.2-6.3,0.9c0.2,3.3,3.1,4,4.7,2.9c0.6-0.4,0.6-0.2,0.2,0.3
			C2736.8-883.4,2738.2-879.7,2741.3-879.7L2741.3-879.7L2741.3-879.7z"/>
		<path id="path147-0-8-1-6-75-2-9-77-4-4-2" d="M2624.9-1009.3c-7.8,0.2-11.3,9-5.5,15.8c0.8,1,0.9,1.6-0.6,0.6
			c-3.9-2.6-11.4-0.9-11.8,7.1c-0.5,9.8,13.2,12.7,15.8,2.2c0.1-1.1,1-1.1,0.8,0.5c-0.2,4.2-1.6,8.2-3.4,12.1c3.1,0,6.5,0,9.3,0
			c-1.8-3.9-3.1-7.8-3.4-12.1c-0.2-1.6,0.7-1.6,0.8-0.5c2.6,10.4,16.3,7.6,15.8-2.2c-0.4-8-7.9-9.7-11.8-7.1c-1.5,1-1.5,0.4-0.6-0.6
			C2636.2-1000.4,2632.7-1009.2,2624.9-1009.3C2624.9-1009.3,2624.9-1009.3,2624.9-1009.3L2624.9-1009.3z"/>
		<path id="path147-0-8-1-6-75-2-8-0-6-4-4" d="M2624.9-918.3c-7.8-0.2-11.3-9-5.5-15.8c0.8-1,0.9-1.6-0.6-0.6
			c-3.9,2.6-11.4,0.9-11.8-7.1c-0.5-9.8,13.2-12.7,15.8-2.2c0.1,1.1,1,1.1,0.8-0.5c-0.2-4.2-1.6-8.2-3.4-12.1c3.1,0,6.5,0,9.3,0
			c-1.8,3.9-3.1,7.8-3.4,12.1c-0.2,1.6,0.7,1.6,0.8,0.5c2.6-10.4,16.3-7.6,15.8,2.2c-0.4,8-7.9,9.7-11.8,7.1c-1.5-1-1.5-0.4-0.6,0.6
			C2636.2-927.3,2632.7-918.5,2624.9-918.3C2624.9-918.3,2624.9-918.3,2624.9-918.3L2624.9-918.3z"/>
		<path id="path147-0-8-1-6-75-2-9-7-1-36-2-4" d="M2707.3-1009.3c-7.8,0.2-11.3,9-5.5,15.8c0.8,1,0.9,1.6-0.6,0.6
			c-3.9-2.6-11.4-0.9-11.8,7.1c-0.5,9.8,13.2,12.7,15.8,2.2c0.1-1.1,1-1.1,0.8,0.5c-0.2,4.2-1.6,8.2-3.4,12.1c3.1,0,6.5,0,9.3,0
			c-1.8-3.9-3.1-7.8-3.4-12.1c-0.2-1.6,0.7-1.6,0.8-0.5c2.6,10.4,16.3,7.6,15.8-2.2c-0.4-8-7.9-9.7-11.8-7.1c-1.5,1-1.5,0.4-0.6-0.6
			C2718.7-1000.4,2715.2-1009.2,2707.3-1009.3C2707.4-1009.3,2707.4-1009.3,2707.3-1009.3L2707.3-1009.3z"/>
		<path id="path147-0-8-1-6-75-2-8-5-1-55-5-4" d="M2707.3-918.3c-7.8-0.2-11.3-9-5.5-15.8c0.8-1,0.9-1.6-0.6-0.6
			c-3.9,2.6-11.4,0.9-11.8-7.1c-0.5-9.8,13.2-12.7,15.8-2.2c0.1,1.1,1,1.1,0.8-0.5c-0.2-4.2-1.6-8.2-3.4-12.1c3.1,0,6.5,0,9.3,0
			c-1.8,3.9-3.1,7.8-3.4,12.1c-0.2,1.6,0.7,1.6,0.8,0.5c2.6-10.4,16.3-7.6,15.8,2.2c-0.4,8-7.9,9.7-11.8,7.1c-1.5-1-1.5-0.4-0.6,0.6
			C2718.7-927.3,2715.2-918.5,2707.3-918.3C2707.4-918.3,2707.4-918.3,2707.3-918.3L2707.3-918.3z"/>
		<path id="path147-6-9-8-7-4-5-62-7-8-4" d="M2590.9-1048.6c-3.1,0.1-4.5,3.7-2.2,6.6c0.3,0.4,0.4,0.7-0.2,0.3
			c-1.6-1.1-4.6-0.4-4.7,2.9c-0.2,4.1,5.3,5.3,6.3,0.9c0.1-0.5,0.4-0.4,0.3,0.2c-0.1,1.8-0.6,3.4-1.4,5c1.2,0,2.5,0,3.7,0
			c-0.7-1.6-1.3-3.3-1.4-5c-0.1-0.7,0.3-0.7,0.3-0.2c1,4.4,6.5,3.2,6.3-0.9c-0.2-3.3-3.1-4-4.7-2.9c-0.6,0.4-0.6,0.2-0.2-0.3
			C2595.5-1044.9,2594.1-1048.5,2590.9-1048.6L2590.9-1048.6L2590.9-1048.6z"/>
		<path id="path29-2-3-4" d="M2583.6-1056.2l2.4-0.8c0.9,2.4,2.7,3.1,4.7,3c3.5-0.3,4.6-4.2,4.9-7.6c-1.4,1.4-3.4,2.2-5.1,2.1
			c-5.5-0.3-7-4.7-7-9.4c-0.2-3.9,1.5-6.8,4.2-8.1c1.5-0.7,4.8-0.7,6.3,0.1c3.4,1.8,4.7,4.9,4.4,12.3c0,6.1-1.3,13.2-7.8,13.3
			C2586.9-1050.7,2584-1053.6,2583.6-1056.2L2583.6-1056.2L2583.6-1056.2z M2593-1062.9c1.1-0.7,1.8-1.4,2.3-2.4
			c0.4-0.8,0.6-1.3,0.4-3c-0.3-4.4-2.6-6.9-6-6.4c-1.9,0.3-2.9,1.3-3.5,3.3c-1.1,3.6,0.3,7.8,2.9,8.8
			C2590.3-1062.2,2592.1-1062.3,2593-1062.9L2593-1062.9z"/>
		<path id="path29-6-1-3-7" d="M2748.6-872.1l-2.4,0.8c-0.9-2.4-2.7-3.1-4.7-3c-3.5,0.3-4.6,4.2-4.9,7.6c1.4-1.4,3.4-2.2,5.1-2.1
			c5.5,0.3,7,4.7,7,9.4c0.2,3.9-1.5,6.8-4.2,8.1c-1.5,0.7-4.8,0.7-6.3-0.1c-3.4-1.8-4.7-4.9-4.4-12.3c0-6.1,1.3-13.2,7.8-13.3
			C2745.4-877.6,2748.3-874.7,2748.6-872.1L2748.6-872.1L2748.6-872.1z M2739.2-865.4c-1.1,0.7-1.8,1.4-2.3,2.4
			c-0.4,0.8-0.6,1.3-0.4,3c0.3,4.4,2.6,6.9,6,6.4c1.9-0.3,2.9-1.3,3.5-3.3c1.1-3.6-0.3-7.8-2.9-8.8
			C2741.9-866.1,2740.1-866,2739.2-865.4L2739.2-865.4z"/>
	</g>
</g>
</svg>
