<?xml version="1.0" encoding="utf-8"?>
<!DOCTYPE svg PUBLIC "-//W3C//DTD SVG 1.1//EN" "http://www.w3.org/Graphics/SVG/1.1/DTD/svg11.dtd">
<svg version="1.1"
	 id="svg7860" xmlns:rdf="http://www.w3.org/1999/02/22-rdf-syntax-ns#" xmlns:dc="http://purl.org/dc/elements/1.1/" xmlns:cc="http://creativecommons.org/ns#" xmlns:svg="http://www.w3.org/2000/svg"
	 xmlns="http://www.w3.org/2000/svg" xmlns:xlink="http://www.w3.org/1999/xlink" x="0px" y="0px" width="178.6px" height="249.4px"
	 viewBox="0 0 178.6 249.4" enable-background="new 0 0 178.6 249.4" xml:space="preserve">
<g id="layer1" transform="translate(1.6367085e-5,-740.55055)">
	<g id="g6800" transform="matrix(0.99553491,0,0,0.99680337,-2564.8321,771.39684)">
		<path id="rect6962-4" fill="#FBFBF6" stroke="#7F7F7F" stroke-width="0.4" d="M2585.3-30.5h161.5c4.7,0,8.5,3.8,8.5,8.5v232.4
			c0,4.7-3.8,8.5-8.5,8.5h-161.5c-4.7,0-8.5-3.8-8.5-8.5V-22C2576.7-26.7,2580.6-30.5,2585.3-30.5z"/>
		<path id="path6994-9" fill="#D40000" d="M2590.5,25.4c-1.7-2.9-3.5-5.6-5.8-8c2.3-2.4,4.1-5.1,5.8-8c1.7,2.9,3.5,5.6,5.8,8
			C2594.1,19.8,2592.2,22.6,2590.5,25.4z"/>
		<path id="path6996-5" fill="#D40000" d="M2707.4,34c-4.1-6.9-8.5-13.5-14-19.2c5.5-5.7,9.8-12.3,14-19.2c4.1,6.9,8.5,13.5,14,19.2
			C2716,20.5,2711.6,27.2,2707.4,34z"/>
		<path id="path6998-7" fill="#D40000" d="M2741.5,178.9c-1.7-2.9-3.5-5.6-5.8-8c2.3-2.4,4.1-5.1,5.8-8c1.7,2.9,3.5,5.6,5.8,8
			C2745.1,173.3,2743.3,176.1,2741.5,178.9z"/>
		<path id="path7000-7" fill="#D40000" d="M2624.6,34c-4.1-6.9-8.5-13.5-14-19.2c5.5-5.7,9.8-12.3,14-19.2c4.1,6.9,8.5,13.5,14,19.2
			C2633.1,20.5,2628.8,27.2,2624.6,34z"/>
		<path id="path7002-0" fill="#D40000" d="M2707.4,86.9c-4.1-6.9-8.5-13.5-14-19.2c5.5-5.7,9.8-12.3,14-19.2
			c4.1,6.9,8.5,13.5,14,19.2C2716,73.4,2711.6,80.1,2707.4,86.9z"/>
		<path id="path7004-0" fill="#D40000" d="M2624.6,86.9c-4.1-6.9-8.5-13.5-14-19.2c5.5-5.7,9.8-12.3,14-19.2
			c4.1,6.9,8.5,13.5,14,19.2C2633.1,73.4,2628.8,80.1,2624.6,86.9z"/>
		<path id="path7008-2" fill="#D40000" d="M2666,113.4c-4.1-6.9-8.5-13.5-14-19.2c5.5-5.7,9.8-12.3,14-19.2
			c4.1,6.9,8.5,13.5,14,19.2C2674.5,99.9,2670.2,106.5,2666,113.4z"/>
		<path id="path7016-2" fill="#D40000" d="M2624.6,192.8c-4.1-6.9-8.5-13.5-14-19.2c5.5-5.7,9.8-12.3,14-19.2
			c4.1,6.9,8.5,13.5,14,19.2C2633.1,179.2,2628.8,185.9,2624.6,192.8z"/>
		<path id="path7018-0" fill="#D40000" d="M2707.4,192.8c-4.1-6.9-8.5-13.5-14-19.2c5.5-5.7,9.8-12.3,14-19.2
			c4.1,6.9,8.5,13.5,14,19.2C2716,179.2,2711.6,185.9,2707.4,192.8z"/>
		<path id="path7020-7" fill="#D40000" d="M2707.4,139.8c-4.1-6.9-8.5-13.5-14-19.2c5.5-5.7,9.8-12.3,14-19.2
			c4.1,6.9,8.5,13.5,14,19.2C2716,126.3,2711.6,133,2707.4,139.8z"/>
		<path id="path7022-4" fill="#D40000" d="M2624.6,139.8c-4.1-6.9-8.5-13.5-14-19.2c5.5-5.7,9.8-12.3,14-19.2
			c4.1,6.9,8.5,13.5,14,19.2C2633.1,126.3,2628.8,133,2624.6,139.8z"/>
		<path id="path29-5-3-7-8" fill="#D40000" d="M2583.1,1.8l2.4-0.8c0.9,2.4,2.8,3.2,4.7,3c3.5-0.3,4.7-4.2,4.9-7.6
			c-1.4,1.4-3.4,2.2-5.2,2.1c-5.6-0.3-7-4.8-7.1-9.4c-0.2-3.9,1.5-6.8,4.3-8.1c1.5-0.7,4.9-0.7,6.4,0.1c3.4,1.8,4.7,4.9,4.5,12.3
			c0,6.1-1.3,13.2-7.9,13.4C2586.4,7.4,2583.5,4.4,2583.1,1.8L2583.1,1.8z M2592.6-4.9c1.1-0.7,1.8-1.4,2.3-2.4
			c0.4-0.8,0.6-1.3,0.4-3c-0.3-4.4-2.6-6.9-6-6.4c-1.9,0.3-2.9,1.3-3.5,3.3c-1.1,3.6,0.3,7.8,2.9,8.8
			C2589.9-4.1,2591.7-4.3,2592.6-4.9L2592.6-4.9L2592.6-4.9z"/>
		<path id="path29-6-2-9-2" fill="#D40000" d="M2748.9,186.5l-2.4,0.8c-0.9-2.4-2.8-3.2-4.7-3c-3.5,0.3-4.7,4.2-4.9,7.6
			c1.4-1.4,3.4-2.2,5.2-2.1c5.6,0.3,7,4.8,7.1,9.4c0.2,3.9-1.5,6.8-4.3,8.1c-1.5,0.7-4.9,0.7-6.4-0.1c-3.4-1.8-4.7-4.9-4.5-12.3
			c0-6.1,1.3-13.2,7.9-13.4C2745.7,181,2748.5,183.9,2748.9,186.5L2748.9,186.5L2748.9,186.5z M2739.4,193.2
			c-1.1,0.7-1.8,1.4-2.3,2.4c-0.4,0.8-0.6,1.3-0.4,3c0.3,4.4,2.6,6.9,6,6.4c1.9-0.3,2.9-1.3,3.5-3.3c1.1-3.6-0.3-7.8-2.9-8.8
			C2742.2,192.5,2740.4,192.6,2739.4,193.2L2739.4,193.2L2739.4,193.2z"/>
	</g>
</g>
</svg>
