<?xml version="1.0" encoding="utf-8"?>
<!DOCTYPE svg PUBLIC "-//W3C//DTD SVG 1.1//EN" "http://www.w3.org/Graphics/SVG/1.1/DTD/svg11.dtd">
<svg version="1.1"
	 id="svg5840" xmlns:rdf="http://www.w3.org/1999/02/22-rdf-syntax-ns#" xmlns:dc="http://purl.org/dc/elements/1.1/" xmlns:cc="http://creativecommons.org/ns#" xmlns:svg="http://www.w3.org/2000/svg"
	 xmlns="http://www.w3.org/2000/svg" xmlns:xlink="http://www.w3.org/1999/xlink" x="0px" y="0px" width="178.6px" height="249.4px"
	 viewBox="0 0 178.6 249.4" enable-background="new 0 0 178.6 249.4" xml:space="preserve">
<g id="layer1" transform="translate(-205.52868,-325.02816)">
	<g id="g11153-5-1" transform="matrix(0.99553774,0,0,0.99680134,-2507.9636,1386.1235)">
		<g id="g10208-4-1" transform="translate(2465.7221,-1434.2756)">
			<path id="rect10210-5-4" fill="#FBFBF6" stroke="#7F7F7F" stroke-width="0.4" d="M268.9,370.2h161.5c4.7,0,8.5,3.8,8.5,8.5
				v232.4c0,4.7-3.8,8.5-8.5,8.5H268.9c-4.7,0-8.5-3.8-8.5-8.5V378.7C260.3,374,264.2,370.2,268.9,370.2z"/>
		</g>
		<g id="g10228-2-6" transform="translate(2726.1551,-1064)">
		</g>
		<g id="g10234-4-4" transform="translate(2752.7467,-1083.9055)">
		</g>
		<path id="path10240-7-9" fill="#D40000" d="M2773.9-946.6c0,0-3.7-6.1-8.8-13.3c-3.4-4.8-6.1-10-6.3-14.5
			c-0.3-5.1,2.4-10.3,7.4-10.5c4.9-0.2,6.9,4,7.7,7.4c0.8-3.5,2.8-7.7,7.7-7.4c4.9,0.2,7.6,5.4,7.4,10.5c-0.3,4.5-2.9,9.7-6.3,14.5
			C2777.7-952.8,2773.9-946.6,2773.9-946.6z"/>
		<path id="path10242-3-8" fill="#D40000" d="M2739.8-1008.1c0,0-1.8-2.6-4.2-5.6c-1.6-2-2.9-4.2-3-6.1c-0.1-2.1,1.2-4.3,3.5-4.4
			c2.3-0.1,3.3,1.6,3.7,3.1c0.4-1.4,1.3-3.2,3.7-3.1c2.3,0.1,3.6,2.3,3.5,4.4c-0.1,1.9-1.4,4-3,6.1
			C2741.6-1010.7,2739.8-1008.1,2739.8-1008.1z"/>
		<path id="path10244-4-5" fill="#D40000" d="M2890.9-870.6c0,0-1.8,2.6-4.2,5.6c-1.6,2-2.9,4.2-3,6.1c-0.1,2.1,1.2,4.3,3.5,4.4
			c2.3,0.1,3.3-1.6,3.7-3.1c0.4,1.4,1.3,3.2,3.7,3.1c2.3-0.1,3.6-2.3,3.5-4.4c-0.1-1.9-1.4-4-3-6.1
			C2892.6-868.1,2890.9-870.6,2890.9-870.6z"/>
		<path id="path10250-9-0" fill="#D40000" d="M2773.9-999.5c0,0-3.7-6.1-8.8-13.3c-3.4-4.8-6.1-10-6.3-14.5
			c-0.3-5.1,2.4-10.3,7.4-10.5c4.9-0.2,6.9,4,7.7,7.4c0.8-3.5,2.8-7.7,7.7-7.4c4.9,0.2,7.6,5.4,7.4,10.5c-0.3,4.5-2.9,9.7-6.3,14.5
			C2777.7-1005.7,2773.9-999.5,2773.9-999.5z"/>
		<path id="path10254-7-3" fill="#D40000" d="M2856.8-946.6c0,0-3.7-6.1-8.8-13.3c-3.4-4.8-6.1-10-6.3-14.5
			c-0.3-5.1,2.4-10.3,7.4-10.5c4.9-0.2,6.9,4,7.7,7.4c0.8-3.5,2.8-7.7,7.7-7.4c4.9,0.2,7.6,5.4,7.4,10.5c-0.2,4.5-2.9,9.7-6.3,14.5
			C2860.5-952.8,2856.8-946.6,2856.8-946.6z"/>
		<path id="path10256-4-7" fill="#D40000" d="M2856.8-999.5c0,0-3.7-6.1-8.8-13.3c-3.4-4.8-6.1-10-6.3-14.5
			c-0.3-5.1,2.4-10.3,7.4-10.5c4.9-0.2,6.9,4,7.7,7.4c0.8-3.5,2.8-7.7,7.7-7.4c4.9,0.2,7.6,5.4,7.4,10.5c-0.2,4.5-2.9,9.7-6.3,14.5
			C2860.5-1005.7,2856.8-999.5,2856.8-999.5z"/>
		<path id="path10258-5-9" fill="#D40000" d="M2815.3-920.2c0,0-3.7-6.1-8.8-13.3c-3.4-4.8-6.1-10-6.3-14.5
			c-0.3-5.1,2.4-10.3,7.4-10.5c4.9-0.2,6.9,4,7.7,7.4c0.8-3.5,2.8-7.7,7.7-7.4c4.9,0.2,7.6,5.4,7.4,10.5c-0.3,4.5-2.9,9.7-6.3,14.5
			C2819.1-926.3,2815.3-920.2,2815.3-920.2z"/>
		<path id="path10266-8-9" fill="#D40000" d="M2856.8-932.1c0,0-3.7,6.1-8.8,13.3c-3.4,4.8-6.1,10-6.3,14.5
			c-0.3,5.1,2.4,10.3,7.4,10.5c4.9,0.2,6.9-4,7.7-7.4c0.8,3.5,2.8,7.7,7.7,7.4c4.9-0.2,7.6-5.4,7.4-10.5c-0.2-4.5-2.9-9.7-6.3-14.5
			C2860.5-926,2856.8-932.1,2856.8-932.1z"/>
		<path id="path10268-2-7" fill="#D40000" d="M2773.9-932.1c0,0-3.7,6.1-8.8,13.3c-3.4,4.8-6.1,10-6.3,14.5
			c-0.3,5.1,2.4,10.3,7.4,10.5c4.9,0.2,6.9-4,7.7-7.4c0.8,3.5,2.8,7.7,7.7,7.4c4.9-0.2,7.6-5.4,7.4-10.5c-0.3-4.5-2.9-9.7-6.3-14.5
			C2777.7-926,2773.9-932.1,2773.9-932.1z"/>
		<path id="path10270-1-4" fill="#D40000" d="M2856.8-879.2c0,0-3.7,6.1-8.8,13.3c-3.4,4.8-6.1,10-6.3,14.5
			c-0.3,5.1,2.4,10.3,7.4,10.5c4.9,0.2,6.9-4,7.7-7.4c0.8,3.5,2.8,7.7,7.7,7.4c4.9-0.2,7.6-5.4,7.4-10.5c-0.2-4.5-2.9-9.7-6.3-14.5
			C2860.5-873.1,2856.8-879.2,2856.8-879.2z"/>
		<path id="path10272-0-7" fill="#D40000" d="M2773.9-879.2c0,0-3.7,6.1-8.8,13.3c-3.4,4.8-6.1,10-6.3,14.5
			c-0.3,5.1,2.4,10.3,7.4,10.5c4.9,0.2,6.9-4,7.7-7.4c0.8,3.5,2.8,7.7,7.7,7.4c4.9-0.2,7.6-5.4,7.4-10.5c-0.3-4.5-2.9-9.7-6.3-14.5
			C2777.7-873.1,2773.9-879.2,2773.9-879.2z"/>
		<path id="path29-5-8-5-4" fill="#D40000" d="M2732.5-1031.7l2.4-0.8c0.9,2.4,2.8,3.2,4.7,3c3.5-0.3,4.7-4.2,4.9-7.6
			c-1.4,1.4-3.4,2.2-5.2,2.1c-5.6-0.3-7-4.8-7.1-9.4c-0.2-3.9,1.5-6.8,4.3-8.1c1.5-0.7,4.9-0.7,6.4,0.1c3.4,1.8,4.7,4.9,4.5,12.3
			c0,6.1-1.3,13.2-7.9,13.4C2735.7-1026.2,2732.8-1029.1,2732.5-1031.7L2732.5-1031.7z M2741.9-1038.4c1.1-0.7,1.8-1.4,2.3-2.4
			c0.4-0.8,0.6-1.3,0.4-3c-0.3-4.4-2.6-6.9-6-6.4c-1.9,0.3-2.9,1.3-3.5,3.3c-1.1,3.6,0.3,7.8,2.9,8.8
			C2739.2-1037.7,2741-1037.8,2741.9-1038.4L2741.9-1038.4L2741.9-1038.4z"/>
		<path id="path29-6-2-3-6-6" fill="#D40000" d="M2898.2-847l-2.4,0.8c-0.9-2.4-2.8-3.2-4.7-3c-3.5,0.3-4.7,4.2-4.9,7.6
			c1.4-1.4,3.4-2.2,5.2-2.1c5.6,0.3,7,4.8,7.1,9.4c0.2,3.9-1.5,6.8-4.3,8.1c-1.5,0.7-4.9,0.7-6.4-0.1c-3.4-1.8-4.7-4.9-4.5-12.3
			c0-6.1,1.3-13.2,7.9-13.4C2895-852.6,2897.8-849.6,2898.2-847L2898.2-847L2898.2-847z M2888.8-840.3c-1.1,0.7-1.8,1.4-2.3,2.4
			c-0.4,0.8-0.6,1.3-0.4,3c0.3,4.4,2.6,6.9,6,6.4c1.9-0.3,2.9-1.3,3.5-3.3c1.1-3.6-0.3-7.8-2.9-8.8
			C2891.5-841,2889.7-840.9,2888.8-840.3L2888.8-840.3L2888.8-840.3z"/>
	</g>
</g>
</svg>
