<?xml version="1.0" encoding="utf-8"?>
<!DOCTYPE svg PUBLIC "-//W3C//DTD SVG 1.1//EN" "http://www.w3.org/Graphics/SVG/1.1/DTD/svg11.dtd">
<svg version="1.1"
	 id="svg6882" xmlns:rdf="http://www.w3.org/1999/02/22-rdf-syntax-ns#" xmlns:dc="http://purl.org/dc/elements/1.1/" xmlns:cc="http://creativecommons.org/ns#" xmlns:svg="http://www.w3.org/2000/svg"
	 xmlns="http://www.w3.org/2000/svg" xmlns:xlink="http://www.w3.org/1999/xlink" x="0px" y="0px" width="178.6px" height="249.4px"
	 viewBox="0 0 178.6 249.4" enable-background="new 0 0 178.6 249.4" xml:space="preserve">
<g id="layer1" transform="translate(-259.81439,-345.02812)">
	<g id="g8526-6-2" transform="matrix(0.99553774,0,0,0.99680134,-2660.0511,815.42713)">
		<path id="rect7195-8-7" fill="#FBFBF6" stroke="#7F7F7F" stroke-width="0.4" d="M2941.9-471.5h161.5c4.7,0,8.5,3.8,8.5,8.5
			v232.4c0,4.7-3.8,8.5-8.5,8.5h-161.5c-4.7,0-8.5-3.8-8.5-8.5V-463C2933.4-467.7,2937.2-471.5,2941.9-471.5z"/>
		<path id="path7225-5-2" d="M2981.2-445.4c-7.4,10.5-15.3,16.6-15.4,24.8c0,2.7,1.4,7.2,5.9,8c2.9,0.6,6.9-1.8,7-6.6
			c0-1,1-0.9,1,0.4c-0.1,3.8-1.3,8.2-3.4,11.8c3.2,0,6.4,0,9.7,0c-2-3.6-3.2-8-3.4-11.8c0-1.3,1-1.3,1-0.4c0.1,4.8,4.1,7.2,7,6.6
			c4.5-0.9,5.9-5.4,5.9-8C2996.5-428.8,2988.6-434.8,2981.2-445.4z"/>
		<path id="path7227-2-8" d="M2947.1-431.5c-3.4,4.4-7.1,6.9-7.2,10.3c0,1.1,0.7,3,2.8,3.4c1.4,0.2,3.2-0.8,3.3-2.8
			c0-0.4,0.5-0.4,0.5,0.2c-0.1,1.6-0.6,3.4-1.6,4.9c1.5,0,3,0,4.5,0c-0.9-1.5-1.5-3.3-1.6-4.9c0-0.5,0.5-0.6,0.5-0.2
			c0,2,1.9,3,3.3,2.8c2.1-0.4,2.8-2.2,2.8-3.4C2954.3-424.6,2950.6-427.1,2947.1-431.5L2947.1-431.5z"/>
		<path id="path7229-4-8" d="M2981.2-301.1c-7.4-10.5-15.3-16.6-15.4-24.8c0-2.7,1.4-7.2,5.9-8c2.9-0.6,6.9,1.8,7,6.6
			c0,1,1,0.9,1-0.4c-0.1-3.8-1.3-8.2-3.4-11.8c3.2,0,6.4,0,9.7,0c-2,3.6-3.2,8-3.4,11.8c0,1.3,1,1.3,1,0.4c0.1-4.8,4.1-7.2,7-6.6
			c4.5,0.9,5.9,5.4,5.9,8C2996.5-317.7,2988.6-311.7,2981.2-301.1z"/>
		<path id="path7231-7-8" d="M3098.2-262c-3.4-4.4-7.1-6.9-7.2-10.3c0-1.1,0.7-3,2.8-3.4c1.4-0.2,3.2,0.8,3.3,2.8
			c0,0.4,0.5,0.4,0.5-0.2c-0.1-1.6-0.6-3.4-1.6-4.9c1.5,0,3,0,4.5,0c-0.9,1.5-1.5,3.3-1.6,4.9c0,0.5,0.5,0.6,0.5,0.2
			c0-2,1.9-3,3.3-2.8c2.1,0.4,2.8,2.2,2.8,3.4C3105.3-268.9,3101.6-266.4,3098.2-262L3098.2-262z"/>
		<path id="path7233-8-9" d="M3064.1-445.4c-7.4,10.5-15.3,16.6-15.4,24.8c0,2.7,1.4,7.2,5.9,8c2.9,0.6,6.9-1.8,7-6.6
			c0-1,1-0.9,1,0.4c-0.1,3.8-1.3,8.2-3.4,11.8c3.2,0,6.4,0,9.7,0c-2-3.6-3.2-8-3.4-11.8c0-1.3,1-1.3,1-0.4c0.1,4.8,4.1,7.2,7,6.6
			c4.5-0.9,5.9-5.4,5.9-8C3079.3-428.8,3071.4-434.8,3064.1-445.4z"/>
		<path id="path7235-9-4" d="M2981.2-392.4c-7.4,10.5-15.3,16.6-15.4,24.8c0,2.7,1.4,7.2,5.9,8c2.9,0.6,6.9-1.8,7-6.6
			c0-1,1-0.9,1,0.4c-0.1,3.8-1.3,8.2-3.4,11.8c3.2,0,6.4,0,9.7,0c-2-3.6-3.2-8-3.4-11.8c0-1.3,1-1.3,1-0.4c0.1,4.8,4.1,7.2,7,6.6
			c4.5-0.9,5.9-5.4,5.9-8C2996.5-375.9,2988.6-381.9,2981.2-392.4z"/>
		<path id="path7241-7-2" d="M3064.1-392.4c-7.4,10.5-15.3,16.6-15.4,24.8c0,2.7,1.4,7.2,5.9,8c2.9,0.6,6.9-1.8,7-6.6
			c0-1,1-0.9,1,0.4c-0.1,3.8-1.3,8.2-3.4,11.8c3.2,0,6.4,0,9.7,0c-2-3.6-3.2-8-3.4-11.8c0-1.3,1-1.3,1-0.4c0.1,4.8,4.1,7.2,7,6.6
			c4.5-0.9,5.9-5.4,5.9-8C3079.3-375.9,3071.4-381.9,3064.1-392.4z"/>
		<path id="path7245-1-6" d="M2981.2-248.2c-7.4-10.5-15.3-16.6-15.4-24.8c0-2.7,1.4-7.2,5.9-8c2.9-0.6,6.9,1.8,7,6.6
			c0,1,1,0.9,1-0.4c-0.1-3.8-1.3-8.2-3.4-11.8c3.2,0,6.4,0,9.7,0c-2,3.6-3.2,8-3.4,11.8c0,1.3,1,1.3,1,0.4c0.1-4.8,4.1-7.2,7-6.6
			c4.5,0.9,5.9,5.4,5.9,8C2996.5-264.8,2988.6-258.7,2981.2-248.2z"/>
		<path id="path7247-0-6" d="M3064.1-248.2c-7.4-10.5-15.3-16.6-15.4-24.8c0-2.7,1.4-7.2,5.9-8c2.9-0.6,6.9,1.8,7,6.6
			c0,1,1,0.9,1-0.4c-0.1-3.8-1.3-8.2-3.4-11.8c3.2,0,6.4,0,9.7,0c-2,3.6-3.2,8-3.4,11.8c0,1.3,1,1.3,1,0.4c0.1-4.8,4.1-7.2,7-6.6
			c4.5,0.9,5.9,5.4,5.9,8C3079.3-264.8,3071.4-258.7,3064.1-248.2z"/>
		<path id="path7251-3-6" d="M3064.1-301.1c-7.4-10.5-15.3-16.6-15.4-24.8c0-2.7,1.4-7.2,5.9-8c2.9-0.6,6.9,1.8,7,6.6
			c0,1,1,0.9,1-0.4c-0.1-3.8-1.3-8.2-3.4-11.8c3.2,0,6.4,0,9.7,0c-2,3.6-3.2,8-3.4,11.8c0,1.3,1,1.3,1,0.4c0.1-4.8,4.1-7.2,7-6.6
			c4.5,0.9,5.9,5.4,5.9,8C3079.3-317.7,3071.4-311.7,3064.1-301.1z"/>
		<path id="path7255-7-8" d="M3022.6-366c-7.4,10.5-15.3,16.6-15.4,24.8c0,2.7,1.4,7.2,5.9,8c2.9,0.6,6.9-1.8,7-6.6c0-1,1-0.9,1,0.4
			c-0.1,3.8-1.3,8.2-3.4,11.8c3.2,0,6.4,0,9.7,0c-2-3.6-3.2-8-3.4-11.8c0-1.3,1-1.3,1-0.4c0.1,4.8,4.1,7.2,7,6.6
			c4.5-0.9,5.9-5.4,5.9-8C3037.9-349.4,3030-355.5,3022.6-366z"/>
		<path id="path29-33-4-4" d="M2939.8-439.1l2.4-0.8c0.9,2.4,2.8,3.2,4.7,3c3.5-0.3,4.7-4.2,4.9-7.6c-1.4,1.4-3.4,2.2-5.2,2.1
			c-5.6-0.3-7-4.8-7.1-9.4c-0.2-3.9,1.5-6.8,4.3-8.1c1.5-0.7,4.9-0.7,6.4,0.1c3.4,1.8,4.7,4.9,4.5,12.3c0,6.1-1.3,13.2-7.9,13.4
			C2943-433.6,2940.1-436.5,2939.8-439.1L2939.8-439.1z M2949.2-445.8c1.1-0.7,1.8-1.4,2.3-2.4c0.4-0.8,0.6-1.3,0.4-3
			c-0.3-4.4-2.6-6.9-6-6.4c-1.9,0.3-2.9,1.3-3.5,3.3c-1.1,3.6,0.3,7.8,2.9,8.8C2946.5-445.1,2948.3-445.2,2949.2-445.8L2949.2-445.8
			z"/>
		<path id="path29-33-3-8-6" d="M3105.5-254.4l-2.4,0.8c-0.9-2.4-2.8-3.2-4.7-3c-3.5,0.3-4.7,4.2-4.9,7.6c1.4-1.4,3.4-2.2,5.2-2.1
			c5.6,0.3,7,4.8,7,9.4c0.2,3.9-1.5,6.8-4.3,8.1c-1.5,0.7-4.9,0.7-6.4-0.1c-3.4-1.8-4.7-4.9-4.5-12.3c0-6.1,1.3-13.2,7.9-13.4
			C3102.3-260,3105.1-257,3105.5-254.4L3105.5-254.4L3105.5-254.4z M3096-247.7c-1.1,0.7-1.8,1.4-2.3,2.4c-0.4,0.8-0.6,1.3-0.4,3
			c0.3,4.4,2.6,6.9,6,6.4c1.9-0.3,2.9-1.3,3.5-3.3c1.1-3.6-0.3-7.8-2.9-8.8C3098.8-248.5,3097-248.3,3096-247.7L3096-247.7z"/>
	</g>
</g>
</svg>
