<?xml version="1.0" encoding="utf-8"?>
<!DOCTYPE svg PUBLIC "-//W3C//DTD SVG 1.1//EN" "http://www.w3.org/Graphics/SVG/1.1/DTD/svg11.dtd">
<svg version="1.1" id="Layer_1" xmlns="http://www.w3.org/2000/svg" xmlns:xlink="http://www.w3.org/1999/xlink" x="0px" y="0px"
	 width="179px" height="250px" viewBox="0 0 179 250" enable-background="new 0 0 179 250" xml:space="preserve">
<g id="Clubs" transform="translate(0, 0)">
	<path fill="#FFFFFF" fill-opacity="0.151" d="M166.1,0c7.1,0,12.9,5.6,12.9,12.6v224.8c0,7-5.8,12.6-12.9,12.6H12.9
		C5.8,250,0,244.4,0,237.4V12.6C0,5.6,5.8,0,12.9,0H166.1z M166.1,4H12.9C8,4,4,7.9,4,12.6v224.8c0,4.7,4,8.6,8.9,8.6h153.3
		c4.9,0,8.9-3.9,8.9-8.6V12.6C175,7.9,171,4,166.1,4z"/>
	<path fill-opacity="0.331" d="M82.2,157c1.6-2,2.8-4.1,3.5-6.4c0.7-2.3,1.1-4.9,1.1-8c0-1.9-0.2-3.4-0.6-4.5
		c-0.4-1.1-1-1.6-1.8-1.6c-0.8,0-1.9,0.9-3.2,2.6c-0.7,0.9-1.3,1.7-1.7,2.2c-2.1,2.4-4,4.1-5.9,5.1s-3.9,1.4-6.1,1.4
		c-3.7,0-6.8-1.4-9.1-4.2c-2.3-2.8-3.5-6.4-3.5-10.8c0-4.5,1.2-8.1,3.6-10.9c2.4-2.8,5.5-4.2,9.1-4.2c2.7,0,5.6,1,8.7,2.9
		s4.9,2.9,5.5,2.9c0.5,0,1-0.1,1.3-0.4c0.3-0.3,0.5-0.7,0.5-1.2c0-0.7-1.2-2.2-3.8-4.4c-0.8-0.6-1.3-1.1-1.7-1.4
		c-1.3-1.2-2.4-2.6-3.1-4.3c-0.7-1.7-1.1-3.5-1.1-5.5c0-4.1,1.4-7.3,4.2-9.7c2.8-2.4,6.6-3.6,11.4-3.6c4.9,0,8.7,1.2,11.5,3.6
		s4.1,5.7,4.1,10.1c0,1.7-0.4,3.4-1.2,5.1c-0.8,1.7-1.9,3.2-3.3,4.4c-0.4,0.3-0.9,0.7-1.5,1.3c-2.5,2.2-3.8,3.6-3.8,4.4
		c0,0.5,0.2,0.9,0.5,1.2c0.3,0.3,0.8,0.4,1.3,0.4c0.6,0,2.4-1,5.5-2.9s6-2.9,8.7-2.9c3.7,0,6.7,1.4,9.1,4.2
		c2.4,2.8,3.6,6.5,3.6,10.9c0,4.4-1.2,8-3.5,10.8s-5.4,4.2-9.2,4.2c-2.3,0-4.4-0.5-6.2-1.5s-3.8-2.7-5.8-5.1c-0.4-0.5-1-1.2-1.6-2
		c-1.3-1.8-2.4-2.8-3.2-2.8c-0.7,0-1.3,0.5-1.7,1.5s-0.6,2.3-0.6,4c0,3.6,0.4,6.5,1.1,8.8s1.9,4.4,3.5,6.2H82.2z"/>
</g>
</svg>
