<?xml version="1.0" encoding="utf-8"?>
<!DOCTYPE svg PUBLIC "-//W3C//DTD SVG 1.1//EN" "http://www.w3.org/Graphics/SVG/1.1/DTD/svg11.dtd">
<svg version="1.1" id="Layer_1" xmlns="http://www.w3.org/2000/svg" xmlns:xlink="http://www.w3.org/1999/xlink" x="0px" y="0px"
	 width="179px" height="250px" viewBox="0 0 179 250" enable-background="new 0 0 179 250" xml:space="preserve">
<g id="Clubs" display="none">
	<path display="inline" fill="#FFFFFF" fill-opacity="0.151" d="M166.1,0c7.1,0,12.9,5.6,12.9,12.6v224.8c0,7-5.8,12.6-12.9,12.6
		H12.9C5.8,250,0,244.4,0,237.4V12.6C0,5.6,5.8,0,12.9,0H166.1z M166.1,4H12.9C8,4,4,7.9,4,12.6v224.8c0,4.7,4,8.6,8.9,8.6h153.3
		c4.9,0,8.9-3.9,8.9-8.6V12.6C175,7.9,171,4,166.1,4z"/>
	<path display="inline" fill-opacity="0.331" d="M82.2,157c1.6-2,2.8-4.1,3.5-6.4c0.7-2.3,1.1-4.9,1.1-8c0-1.9-0.2-3.4-0.6-4.5
		c-0.4-1.1-1-1.6-1.8-1.6c-0.8,0-1.9,0.9-3.2,2.6c-0.7,0.9-1.3,1.7-1.7,2.2c-2.1,2.4-4,4.1-5.9,5.1s-3.9,1.4-6.1,1.4
		c-3.7,0-6.8-1.4-9.1-4.2c-2.3-2.8-3.5-6.4-3.5-10.8c0-4.5,1.2-8.1,3.6-10.9c2.4-2.8,5.5-4.2,9.1-4.2c2.7,0,5.6,1,8.7,2.9
		s4.9,2.9,5.5,2.9c0.5,0,1-0.1,1.3-0.4c0.3-0.3,0.5-0.7,0.5-1.2c0-0.7-1.2-2.2-3.8-4.4c-0.8-0.6-1.3-1.1-1.7-1.4
		c-1.3-1.2-2.4-2.6-3.1-4.3c-0.7-1.7-1.1-3.5-1.1-5.5c0-4.1,1.4-7.3,4.2-9.7c2.8-2.4,6.6-3.6,11.4-3.6c4.9,0,8.7,1.2,11.5,3.6
		s4.1,5.7,4.1,10.1c0,1.7-0.4,3.4-1.2,5.1c-0.8,1.7-1.9,3.2-3.3,4.4c-0.4,0.3-0.9,0.7-1.5,1.3c-2.5,2.2-3.8,3.6-3.8,4.4
		c0,0.5,0.2,0.9,0.5,1.2c0.3,0.3,0.8,0.4,1.3,0.4c0.6,0,2.4-1,5.5-2.9s6-2.9,8.7-2.9c3.7,0,6.7,1.4,9.1,4.2
		c2.4,2.8,3.6,6.5,3.6,10.9c0,4.4-1.2,8-3.5,10.8s-5.4,4.2-9.2,4.2c-2.3,0-4.4-0.5-6.2-1.5s-3.8-2.7-5.8-5.1c-0.4-0.5-1-1.2-1.6-2
		c-1.3-1.8-2.4-2.8-3.2-2.8c-0.7,0-1.3,0.5-1.7,1.5s-0.6,2.3-0.6,4c0,3.6,0.4,6.5,1.1,8.8s1.9,4.4,3.5,6.2H82.2z"/>
</g>
<g id="Hearts" display="none">
	<path display="inline" fill="#FFFFFF" fill-opacity="0.152" d="M166.1,0c7.1,0,12.9,5.6,12.9,12.6v224.8c0,7-5.8,12.6-12.9,12.6
		H12.9C5.8,250,0,244.4,0,237.4V12.6C0,5.6,5.8,0,12.9,0H166.1z M166.1,4H12.9C8,4,4,7.9,4,12.6v224.8c0,4.7,4,8.6,8.9,8.6h153.3
		c4.9,0,8.9-3.9,8.9-8.6V12.6C175,7.9,171,4,166.1,4z"/>
	<path display="inline" fill="#A60606" fill-opacity="0.331" d="M89.5,157.8c-4.8-7.4-10.5-15.1-17.4-23.2c-1.1-1.4-1.9-2.4-2.4-3
		c-4.2-5.2-7.1-9.5-8.7-12.9c-1.6-3.4-2.3-6.9-2.3-10.4c0-4.7,1.3-8.6,4-11.6c2.7-3,6.1-4.5,10.2-4.5c2.9,0,5.5,0.8,7.8,2.5
		c2.3,1.7,4.1,4.1,5.4,7.2c0.2,0.4,0.4,1,0.7,1.7c0.8,2.4,1.7,3.6,2.7,3.6c0.9,0,1.8-1.1,2.6-3.4c0.2-0.5,0.3-0.9,0.4-1.1
		c1.2-3.4,3-6,5.4-7.8c2.4-1.8,5.1-2.7,8.1-2.7c4.1,0,7.5,1.5,10.2,4.5s4,6.9,4,11.6c0,3.4-0.8,6.9-2.3,10.2
		c-1.5,3.4-4.4,7.7-8.7,13.1c-0.6,0.7-1.6,1.9-3,3.7C99.4,143.5,93.9,151,89.5,157.8z"/>
</g>
<g id="Spades" display="none">
	<path display="inline" fill="#FFFFFF" fill-opacity="0.152" d="M166.1,0c7.1,0,12.9,5.6,12.9,12.6v224.8c0,7-5.8,12.6-12.9,12.6
		H12.9C5.8,250,0,244.4,0,237.4V12.6C0,5.6,5.8,0,12.9,0H166.1z M166.1,4H12.9C8,4,4,7.9,4,12.6v224.8c0,4.7,4,8.6,8.9,8.6h153.3
		c4.9,0,8.9-3.9,8.9-8.6V12.6C175,7.9,171,4,166.1,4z"/>
	<path display="inline" fill-opacity="0.33" d="M95.7,157.5H83.3c1.5-1.7,2.7-3.7,3.4-6c0.7-2.4,1.1-5.1,1.1-8.3
		c0-2-0.2-3.4-0.5-4.2s-0.9-1.2-1.7-1.2c-1.2,0-2.2,1.2-3,3.7c-0.5,1.2-0.9,2.1-1.2,2.8c-1,2.2-2.5,3.8-4.3,5
		c-1.8,1.2-3.9,1.8-6.1,1.8c-3.3,0-6-1.2-8.3-3.5s-3.4-5.3-3.4-8.8c0-2.7,0.6-5.3,1.9-8c1.3-2.7,3.6-6.3,7.1-10.7
		c0.8-1,2.2-2.7,4.1-5c7.4-8.8,13-16.3,17-22.5c3.6,5.7,9,12.9,16.3,21.8c2.1,2.5,3.6,4.4,4.6,5.6c3.5,4.4,5.9,8,7.2,10.8
		s1.9,5.5,1.9,8.2c0,3.5-1.1,6.4-3.4,8.8s-5,3.5-8.3,3.5c-2.2,0-4.2-0.6-6.1-1.8s-3.3-2.9-4.3-5c-0.3-0.6-0.7-1.5-1.1-2.8
		c-0.9-2.4-1.9-3.7-3.1-3.7c-0.8,0-1.3,0.4-1.7,1.2s-0.5,2.2-0.5,4.2c0,3.2,0.4,5.9,1.1,8.3S94.2,155.8,95.7,157.5z"/>
</g>
<g id="Diamonds" display="none">
	<path display="inline" fill="#FFFFFF" fill-opacity="0.151" d="M166.1,0c7.1,0,12.9,5.6,12.9,12.6v224.8c0,7-5.8,12.6-12.9,12.6
		H12.9C5.8,250,0,244.4,0,237.4V12.6C0,5.6,5.8,0,12.9,0H166.1z M166.1,4H12.9C8,4,4,7.9,4,12.6v224.8c0,4.7,4,8.6,8.9,8.6h153.3
		c4.9,0,8.9-3.9,8.9-8.6V12.6C175,7.9,171,4,166.1,4z"/>
	<path display="inline" fill="#A60606" fill-opacity="0.331" d="M89.2,91.7L116,125l-26.9,33.3L63,125L89.2,91.7z"/>
</g>
<g id="Free">
	<path fill="#FFFFFF" fill-opacity="0.152" d="M166.1,0c7.1,0,12.9,5.6,12.9,12.6v224.8c0,7-5.8,12.6-12.9,12.6H12.9
		C5.8,250,0,244.4,0,237.4V12.6C0,5.6,5.8,0,12.9,0H166.1z M166.1,4H12.9C8,4,4,7.9,4,12.6v224.8c0,4.7,4,8.6,8.9,8.6h153.3
		c4.9,0,8.9-3.9,8.9-8.6V12.6C175,7.9,171,4,166.1,4z"/>
	<path fill="#FFFFFF" fill-opacity="0.148" d="M55.6,158.5c-0.4-0.2-0.8-0.2-1.1-0.1c-0.4,0.2-0.8,0.6-1.2,1.4l-9.7,16.8l6.4,3.7
		l5.9-10.2c0.4-0.7,0.6-1.3,0.7-1.7c0.1-0.5-0.1-0.8-0.6-1.1l0.5-0.9l7.5,4.3l-0.5,0.9c-0.8-0.5-1.4-0.6-1.9-0.3
		c-0.4,0.3-0.9,0.7-1.3,1.4l-5.9,10.2l10.1,5.8c0.3,0.2,0.6,0.2,1,0c0.3-0.2,0.6-0.5,0.9-1l0.9,0.5l-5.1,8.8l-0.9-0.5
		c0.5-0.9,0.5-1.5-0.2-1.9l-23.6-13.6c-0.6-0.4-1.2-0.1-1.7,0.8l-0.9-0.5l13.9-24.1c0.4-0.7,0.6-1.3,0.5-1.7s-0.3-0.7-0.7-1l0.5-0.9
		l6.9,4L55.6,158.5z"/>
	<path fill="#FFFFFF" fill-opacity="0.148" d="M75.4,139.5c0.7-1.2,1.2-2.3,1.5-3.3c0.3-0.9,0.4-1.8,0.3-2.4
		c-0.1-0.7-0.3-1.3-0.6-1.7c-0.3-0.5-0.8-0.9-1.4-1.2c-0.6-0.3-1.1-0.5-1.7-0.6c-0.6-0.1-1.2,0-1.8,0.3c-0.6,0.3-1.3,0.8-1.9,1.5
		c-0.7,0.7-1.4,1.7-2.1,3l-5.2,9l7.7,4.4L75.4,139.5z M64,131.1c1-1.7,2-3.1,3.1-4.3c1.1-1.2,2.2-2.1,3.4-2.7s2.5-0.9,3.8-0.8
		s2.7,0.5,4.2,1.4c2.3,1.3,3.6,3,4.1,5.1c0.4,2.1,0.2,4.3-0.7,6.9l13.9-1.2c0.5,0,0.9-0.2,1.1-0.5s0.5-0.6,0.6-0.8l0.9,0.5l-5.6,9.7
		l-0.9-0.5c0.2-0.3,0.3-0.6,0.3-0.9c0-0.3,0-0.5-0.2-0.6c-0.2-0.1-0.4-0.1-0.7-0.1c-0.3,0-0.7,0-1.3,0.1l-11.4,1l-4.3,7.4l9.2,5.3
		c0.3,0.2,0.6,0.2,0.9,0.1c0.3-0.1,0.6-0.5,0.9-1.1l0.9,0.5l-5.2,9l-0.9-0.5c0.6-1,0.6-1.7-0.1-2l-23.6-13.6c-0.6-0.4-1.2,0-1.8,1
		l-0.9-0.5L64,131.1z"/>
	<path fill="#FFFFFF" fill-opacity="0.148" d="M96,88.6c-0.4-0.2-0.8-0.2-1.1-0.1s-0.8,0.6-1.2,1.4L84,106.7l6.4,3.7l5.9-10.2
		c0.4-0.7,0.6-1.3,0.6-1.8c0-0.5-0.4-1-1.2-1.4l0.5-0.9l8.1,4.7l-0.5,0.9c-0.8-0.5-1.4-0.6-1.9-0.3s-0.9,0.7-1.3,1.4L94.9,113
		l7.2,4.1l10-17.4c0.3-0.5,0.4-1,0.4-1.5c-0.1-0.5-0.3-0.8-0.7-1.1l0.5-0.9l7.1,4.1l-0.5,0.9c-0.5-0.3-0.9-0.3-1.2,0
		c-0.3,0.3-0.5,0.7-0.8,1.2l-14,24.2l-0.9-0.5c0.1-0.2,0.2-0.5,0.1-0.8c0-0.3-0.2-0.5-0.5-0.7L78,111.2c-0.3-0.2-0.6-0.2-0.9-0.1
		c-0.3,0.1-0.5,0.3-0.6,0.5l-0.9-0.5l13.7-23.7c0.4-0.7,0.6-1.3,0.5-1.7c-0.1-0.4-0.3-0.7-0.7-1l0.5-0.9l6.9,4L96,88.6z"/>
	<path fill="#FFFFFF" fill-opacity="0.148" d="M116,53.9c-0.4-0.2-0.8-0.2-1.1-0.1s-0.8,0.6-1.2,1.4L104,72.1l6.4,3.7l5.9-10.2
		c0.4-0.7,0.6-1.3,0.6-1.8c0-0.5-0.4-1-1.2-1.4l0.5-0.9l8.1,4.7l-0.5,0.9c-0.8-0.5-1.4-0.6-1.9-0.3c-0.4,0.3-0.9,0.7-1.3,1.4
		l-5.9,10.2l7.2,4.1l10-17.4c0.3-0.5,0.4-1,0.4-1.5c-0.1-0.5-0.3-0.8-0.7-1.1l0.5-0.9l7.1,4.1l-0.5,0.9c-0.5-0.3-0.9-0.3-1.2,0
		c-0.3,0.3-0.5,0.7-0.8,1.2l-14,24.2l-0.9-0.5c0.1-0.2,0.2-0.5,0.1-0.8c0-0.3-0.2-0.5-0.5-0.7L98,76.5c-0.3-0.2-0.6-0.2-0.9-0.1
		c-0.3,0.1-0.5,0.3-0.6,0.5l-0.9-0.5l13.7-23.7c0.4-0.7,0.6-1.3,0.5-1.7c-0.1-0.4-0.3-0.7-0.7-1l0.5-0.9l6.9,4L116,53.9z"/>
</g>
</svg>
