<?xml version="1.0" encoding="utf-8"?>
<!DOCTYPE svg PUBLIC "-//W3C//DTD SVG 1.1//EN" "http://www.w3.org/Graphics/SVG/1.1/DTD/svg11.dtd">
<svg version="1.1" id="Layer_1" xmlns="http://www.w3.org/2000/svg" xmlns:xlink="http://www.w3.org/1999/xlink" x="0px" y="0px"
	 width="179px" height="250px" viewBox="0 0 179 250" enable-background="new 0 0 179 250" xml:space="preserve">
<g id="Hearts" transform="translate(0, 0)">
	<path fill="#FFFFFF" fill-opacity="0.152" d="M166.1,0c7.1,0,12.9,5.6,12.9,12.6v224.8c0,7-5.8,12.6-12.9,12.6H12.9
		C5.8,250,0,244.4,0,237.4V12.6C0,5.6,5.8,0,12.9,0H166.1z M166.1,4H12.9C8,4,4,7.9,4,12.6v224.8c0,4.7,4,8.6,8.9,8.6h153.3
		c4.9,0,8.9-3.9,8.9-8.6V12.6C175,7.9,171,4,166.1,4z"/>
	<path fill="#A60606" fill-opacity="0.331" d="M89.5,157.8c-4.8-7.4-10.5-15.1-17.4-23.2c-1.1-1.4-1.9-2.4-2.4-3
		c-4.2-5.2-7.1-9.5-8.7-12.9c-1.6-3.4-2.3-6.9-2.3-10.4c0-4.7,1.3-8.6,4-11.6c2.7-3,6.1-4.5,10.2-4.5c2.9,0,5.5,0.8,7.8,2.5
		c2.3,1.7,4.1,4.1,5.4,7.2c0.2,0.4,0.4,1,0.7,1.7c0.8,2.4,1.7,3.6,2.7,3.6c0.9,0,1.8-1.1,2.6-3.4c0.2-0.5,0.3-0.9,0.4-1.1
		c1.2-3.4,3-6,5.4-7.8c2.4-1.8,5.1-2.7,8.1-2.7c4.1,0,7.5,1.5,10.2,4.5s4,6.9,4,11.6c0,3.4-0.8,6.9-2.3,10.2
		c-1.5,3.4-4.4,7.7-8.7,13.1c-0.6,0.7-1.6,1.9-3,3.7C99.4,143.5,93.9,151,89.5,157.8z"/>
</g>
</svg>
