<?xml version="1.0" encoding="UTF-8"?>
<!DOCTYPE svg PUBLIC "-//W3C//DTD SVG 1.1//EN" "http://www.w3.org/Graphics/SVG/1.1/DTD/svg11.dtd">
<svg version="1.1" xmlns="http://www.w3.org/2000/svg" xmlns:xlink="http://www.w3.org/1999/xlink" x="0" y="0" width="237.249" height="236.213" viewBox="0, 0, 237.249, 236.213">
  <g id="Layer_1" transform="translate(1, 1)">
    <g>
      <path d="M26.249,72.462 C85.41,72.462 129.818,74.01 165.181,78.24 C211.255,83.752 236.249,93.443 236.249,108.962 C236.249,114.419 232.536,118.599 225.536,122.054 C220.332,124.623 214.78,126.367 203.006,129.492 C202.691,129.575 202.252,129.692 201.498,129.891 C190.173,132.896 185.055,134.483 180.279,136.776 C174.249,139.672 171.249,142.927 171.249,146.962 C171.249,151.07 174.974,152.868 185.898,155.21 C186.184,155.271 187.285,155.506 187.547,155.562 C188.196,155.701 188.714,155.813 189.214,155.923 C195.442,157.294 199.252,158.494 202.403,160.378 C206.538,162.849 208.749,166.28 208.749,170.962 C208.749,174.934 207.858,178.836 206.093,183.339 C205.484,184.893 204.778,186.508 203.871,188.456 C203.054,190.19 202.228,191.921 201.399,193.65 C198.494,200.063 199.869,196.822 197.275,203.374 C195.758,207.341 195.438,211.539 194.941,215.715 C197.524,208.293 201.844,202.811 209.994,201.712 L209.994,203.712 C202.101,203.713 194.749,217.441 194.749,231.713 L194.672,231.712 L194.749,234.212 C194.749,234.765 194.302,235.213 193.749,235.213 C193.197,235.213 192.749,234.765 192.749,234.213 C192.749,215.989 183.706,199.713 173.494,199.712 L173.494,197.712 C184.647,198.669 188.78,207.429 192.392,216.672 C192.518,211.87 193.781,207.204 195.386,202.717 C196.256,199.691 197.411,196.761 198.572,193.838 C198.782,193.319 199.801,190.814 200.078,190.126 C200.642,188.722 201.081,187.594 201.478,186.511 C203.353,181.401 204.249,177.329 204.249,172.962 C204.249,168.955 202.371,166.117 198.646,163.957 C195.641,162.213 192.04,161.097 185.505,159.617 C184.976,159.497 184.441,159.377 183.378,159.139 C177.197,157.753 174.288,156.941 171.516,155.617 C167.764,153.825 165.614,151.419 165.255,148.069 C164.604,141.993 168.107,137.358 175.209,133.64 C180.51,130.864 186.476,128.977 198.474,125.867 C198.999,125.731 200.784,125.269 200.931,125.231 C211.578,122.474 216.614,120.947 221.224,118.806 C227.007,116.12 230,113.103 230.252,109.395 C231.113,96.697 202.443,86.592 154.193,80.956 C111.681,75.99 58.045,75.106 18.579,78.459 L18.231,78.427 C16.797,78.037 15.962,77.226 16.365,76.053 C16.622,75.306 17.389,74.708 18.554,74.152 C20.617,73.167 23.715,72.462 26.249,72.462 z" fill="#000000" fill-opacity="0.505"/>
      <path d="M93.12,50.425 Q94.788,50.425 95.562,51.92 Q96.336,53.415 95.685,55.657 Q94.985,58.072 94.075,59.625 Q93.165,61.177 91.598,62.615 Q90.014,64.11 88.268,65.174 Q86.522,66.237 85.372,66.237 Q84.485,66.122 84.229,65.519 Q83.973,64.915 84.839,64.11 Q86.173,63.477 87.446,62.557 Q88.719,61.637 89.595,60.2 Q90.116,59.395 90.305,58.446 Q90.494,57.497 89.7,56.865 Q88.906,56.232 88.399,55.6 Q87.893,54.967 88.226,53.817 Q88.61,52.495 90.089,51.46 Q91.568,50.425 93.12,50.425 z" fill="#000000" fill-opacity="0.505"/>
      <path d="M193.162,31.22 Q194.657,31.22 196.516,32.542 Q201.839,36.395 199.304,45.135 Q197.804,50.31 194.149,53.99 Q189.942,58.187 184.997,58.187 Q179.937,58.187 178.35,54.737 Q176.876,51.69 178.393,46.457 Q179.894,41.282 183.816,36.682 Q188.39,31.22 193.162,31.22 z M192.574,36.222 Q189.526,36.222 186.89,39.96 Q184.923,42.777 183.889,46.342 Q181.671,53.99 186.214,53.99 Q189.146,53.99 191.501,50.827 Q193.294,48.412 194.278,45.02 Q196.829,36.222 192.574,36.222 L192.574,36.222 z" fill="#000000" fill-opacity="0.505"/>
      <path d="M81.325,31.22 Q82.82,31.22 84.679,32.542 Q90.001,36.395 87.467,45.135 Q85.966,50.31 82.311,53.99 Q78.104,58.187 73.159,58.187 Q68.099,58.187 66.512,54.737 Q65.038,51.69 66.556,46.457 Q68.057,41.282 71.978,36.682 Q76.552,31.22 81.325,31.22 z M80.736,36.222 Q77.689,36.222 75.053,39.96 Q73.086,42.777 72.052,46.342 Q69.834,53.99 74.376,53.99 Q77.309,53.99 79.664,50.827 Q81.456,48.412 82.44,45.02 Q84.991,36.222 80.736,36.222 L80.736,36.222 z" fill="#000000" fill-opacity="0.505"/>
      <path d="M72.933,17.132 Q75.52,17.132 76.854,18.282 Q78.294,19.662 77.594,22.077 Q77.31,23.055 76.178,23.688 Q75.046,24.32 74.068,24.32 Q73.321,24.32 72.658,23.63 Q72.934,22.48 72.624,22.164 Q72.313,21.847 71.048,21.847 Q68.575,21.847 65.682,28.057 Q64.073,31.622 62.665,36.28 Q62.952,36.28 63.355,36.28 Q63.889,36.222 64.119,36.222 Q66.534,36.222 67.019,38.12 L65.867,40.305 Q64.608,40.88 61.906,40.88 Q61.446,40.88 61.142,40.938 Q60.419,42.835 59.769,45.077 L58.251,50.31 Q57.367,53.357 57.354,56.577 Q54.744,57.842 53.709,57.842 Q52.329,57.842 52.141,55.715 Q51.935,54.048 52.418,52.38 Q52.718,51.345 55.85,41.34 Q53.902,41.513 54.017,41.513 Q53.04,41.513 52.476,40.88 Q51.912,40.247 52.212,39.212 Q52.729,37.43 54.374,36.912 Q55.246,36.682 57.431,36.682 Q57.77,36.107 58.62,33.175 Q60.338,27.252 63.503,22.882 Q67.758,17.132 72.933,17.132 L72.933,17.132 z" fill="#000000" fill-opacity="0.505"/>
      <path d="M131.625,16.787 Q135.88,16.787 138.137,19.116 Q140.394,21.445 139.982,25.642 Q139.688,27.252 139.288,30.415 Q139.251,31.335 139.118,31.795 Q138.518,33.865 137.411,35.302 Q135.981,37.257 134.141,37.257 Q133.106,37.257 132.433,36.309 Q131.759,35.36 132.059,34.325 C132.333,33.524 132.142,34.041 132.696,32.799 C133.192,31.856 133.688,30.908 134.033,29.897 Q136.284,22.135 131.109,22.135 Q128.234,22.135 125.571,24.579 Q122.907,27.022 122.057,29.955 Q120.856,34.095 124.667,38.005 Q128.326,41.052 132.042,44.1 Q135.912,47.607 134.979,50.827 Q133.961,54.335 129.329,56.232 Q125.658,57.785 121.691,57.785 Q118.068,57.785 113.648,56.175 Q108.211,54.105 109.011,51.345 Q109.311,50.31 110.275,49.562 Q111.24,48.815 112.275,48.815 Q113.827,48.815 114.783,50.08 Q116.475,51.977 116.597,52.15 Q118.276,53.3 123.509,53.3 Q128.166,53.3 128.783,51.173 Q129.3,49.39 125.848,46.227 Q123.367,44.272 120.886,42.317 Q117.743,39.673 116.645,37.315 Q115.188,34.21 116.355,30.185 Q117.822,25.125 122.078,21.157 Q126.68,16.787 131.625,16.787 z" fill="#000000" fill-opacity="0.505"/>
      <path d="M152.396,30.817 Q154.466,30.817 156.932,32.427 Q159.52,34.21 159.521,35.992 Q159.53,37.545 158.963,39.5 Q158.447,41.282 157.049,43.525 Q155.295,46.4 153.915,46.4 Q152.937,46.4 152.242,45.825 Q151.39,45.192 151.657,44.272 Q151.674,44.215 152.558,42.95 Q153.012,42.375 153.763,39.787 Q154.38,37.66 154.391,37.027 Q154.562,35.245 153.297,35.245 Q150.48,35.245 147.51,40.132 Q145.31,43.755 144.242,47.435 Q142.458,53.587 146.368,53.587 Q147.921,53.587 150.4,51.977 Q152.674,50.482 153.871,48.93 Q155.325,47.09 156.647,47.09 Q157.51,47.09 158.023,48.096 Q158.536,49.102 158.286,49.965 Q157.769,51.747 154.366,54.162 Q151.301,56.405 149.208,56.98 Q147.115,57.555 145.39,57.555 Q140.848,57.555 139.123,54.68 Q137.398,51.805 138.715,47.262 Q139.999,42.835 143.94,37.372 Q148.659,30.817 152.396,30.817 L152.396,30.817 z" fill="#000000" fill-opacity="0.505"/>
      <path d="M224.028,16.787 Q225.293,16.787 226.201,17.621 Q227.109,18.455 226.742,19.72 Q226.559,20.352 226.021,21.215 Q225.218,22.595 225.128,22.71 Q223.346,26.275 221.445,32.83 Q218.427,43.237 218.344,43.525 Q216.415,50.77 216.616,53.645 Q216.671,54.45 216.537,54.91 Q216.237,55.945 215.195,56.664 Q214.153,57.382 213.06,57.382 Q209.438,57.382 212.189,47.895 Q213.44,43.582 216.027,34.957 Q218.615,26.332 219.865,22.02 Q220.065,21.33 220.276,20.007 Q220.487,18.685 220.671,18.052 Q222.935,16.787 224.028,16.787 z" fill="#000000" fill-opacity="0.505"/>
      <path d="M214.31,16.787 Q215.575,16.787 216.483,17.621 Q217.392,18.455 217.025,19.72 Q216.841,20.352 216.304,21.215 Q215.501,22.595 215.41,22.71 Q213.629,26.275 211.728,32.83 Q208.71,43.237 208.626,43.525 Q206.698,50.77 206.899,53.645 Q206.953,54.45 206.82,54.91 Q206.519,55.945 205.477,56.664 Q204.435,57.382 203.343,57.382 Q199.72,57.382 202.471,47.895 Q203.722,43.582 206.31,34.957 Q208.897,26.332 210.148,22.02 Q210.348,21.33 210.559,20.007 Q210.77,18.685 210.953,18.052 Q213.218,16.787 214.31,16.787 z" fill="#000000" fill-opacity="0.505"/>
      <path d="M35.045,31.392 Q36.31,31.392 37.215,32.83 L36.376,35.13 Q39.487,31.737 42.592,31.737 Q44.605,31.737 46.447,33.117 Q48.289,34.497 48.824,36.222 Q49.914,40.592 47.846,47.722 L45.428,56.06 Q44.183,57.382 42.918,57.382 Q41.94,57.382 40.031,56.232 L40.231,55.542 Q40.598,54.277 41.401,51.805 Q42.205,49.332 42.538,48.182 Q46.107,35.877 42.427,35.877 Q41.392,35.877 39.602,37.487 Q34.086,42.432 32.068,49.39 C31.815,50.414 31.962,49.752 31.698,51.39 C31.583,52.669 31.44,53.949 31.131,55.197 Q30.898,56.002 30,56.52 Q29.103,57.037 28.24,57.037 Q24.79,57.037 26.057,52.667 L29.542,40.65 Q29.676,40.19 30.049,39.299 Q30.423,38.407 30.556,37.947 Q30.756,37.257 30.939,35.935 Q31.121,34.612 31.304,33.98 Q31.571,33.06 32.877,32.226 Q34.182,31.392 35.045,31.392 z" fill="#000000" fill-opacity="0.505"/>
      <path d="M175.87,31.565 Q177.25,31.565 178.298,32.312 Q179.027,32.772 179.735,34.296 Q180.443,35.82 180.193,36.682 Q180.076,37.085 179.711,37.947 Q178.003,39.672 176.681,39.672 Q175.588,39.672 175.093,38.407 Q175.728,35.82 174.003,35.82 Q172.968,35.82 169.889,41.282 Q168.499,43.697 167.248,48.01 Q166.064,52.092 166.217,52.955 Q166.36,54.047 166.243,54.45 Q165.96,55.427 164.893,56.031 Q163.827,56.635 162.734,56.635 Q159.629,56.635 160.463,53.76 Q160.546,53.472 160.84,52.955 Q161.134,52.437 161.201,52.207 Q162.051,49.275 163.44,43.496 Q164.828,37.717 165.662,34.842 Q166.412,32.255 169.517,32.255 Q171.357,32.255 171.73,33.347 Q173.857,31.565 175.87,31.565 z" fill="#000000" fill-opacity="0.505"/>
      <path d="M29.114,17.937 Q30.149,17.937 31.107,18.8 Q32.064,19.662 31.78,20.64 Q31.697,20.927 30.896,21.905 Q30.533,22.365 29.686,24.492 Q24.743,37.372 21.925,47.09 Q21.191,49.62 21.201,51.172 Q21.22,52.495 21.818,54.795 Q21.842,54.91 21.775,55.14 Q21.425,56.347 18.608,56.347 L18.09,56.347 Q15.174,56.29 15.893,51.632 Q16.738,45.94 19.64,35.935 Q20.324,33.577 21.785,28.834 Q23.247,24.09 23.948,21.675 Q24.331,20.352 26.061,19.145 Q27.792,17.937 29.114,17.937 z" fill="#000000" fill-opacity="0.505"/>
    </g>
    <path d="M0.5,0.5 L0.5,0.5" fill-opacity="0" stroke="#000000" stroke-width="1" stroke-opacity="0.51"/>
    <path d="M0.5,0.5 L0.5,0.5" fill-opacity="0" stroke="#000000" stroke-width="1" stroke-opacity="0.51"/>
  </g>
</svg>
