<?xml version="1.0" encoding="UTF-8"?>
<!DOCTYPE svg PUBLIC "-//W3C//DTD SVG 1.1//EN" "http://www.w3.org/Graphics/SVG/1.1/DTD/svg11.dtd">
<svg version="1.1" xmlns="http://www.w3.org/2000/svg" xmlns:xlink="http://www.w3.org/1999/xlink" x="0" y="0" width="179" height="250" viewBox="0, 0, 179, 250">
  <g id="King" display="none">
    <path d="M166.138,0 C173.241,0 179,5.643 179,12.605 L179,237.395 C179,244.357 173.241,250 166.138,250 L12.862,250 C5.759,250 0,244.357 0,237.395 L0,12.605 C0,5.643 5.759,0 12.862,0 L166.138,0 z M166.138,6 L12.862,6 C9.046,6 6,8.985 6,12.605 L6,237.395 C6,241.015 9.046,244 12.862,244 L166.138,244 C169.954,244 173,241.015 173,237.395 L173,12.605 C173,8.985 169.954,6 166.138,6 z" fill="#000000" fill-opacity="0.204"/>
    <path d="M93.769,84.582 Q94.434,84.639 95.728,84.752 Q101.753,85.262 104.229,85.262 Q106.151,85.262 111.622,84.752 Q113.063,84.639 113.913,84.582 L113.913,89.68 L113.211,89.68 Q108.85,89.68 103.268,97.838 L103.231,97.894 L88.003,120.27 L104.377,146.498 Q105.153,147.744 106.558,150.066 Q112.878,160.433 116.242,160.433 Q116.685,160.433 116.907,160.405 Q117.129,160.376 117.314,160.32 L117.277,165.418 Q116.538,165.361 115.022,165.191 Q110.18,164.738 108.443,164.738 Q107.408,164.738 103.601,165.078 Q101.272,165.305 99.905,165.418 Q99.942,165.248 99.96,165.106 Q99.979,164.965 99.979,164.625 Q99.979,160.943 87.781,141.456 Q81.72,131.826 78.097,125.878 L91.736,103.842 L92.254,102.936 Q97.761,93.986 97.761,92.456 Q97.761,90.983 97.022,90.332 Q96.283,89.68 94.582,89.68 L93.769,89.68 z M62.056,84.582 Q66.011,84.922 68.857,85.092 Q71.703,85.262 73.403,85.262 Q75.029,85.262 77.561,85.12 Q80.093,84.979 84.455,84.695 L84.455,89.68 L83.715,89.68 Q80.315,89.68 79.206,92.173 Q78.097,94.665 78.097,105.881 L78.097,144.175 Q78.097,155.505 79.206,157.969 Q80.315,160.433 83.531,160.433 Q83.715,160.433 84.177,160.376 Q84.64,160.32 84.898,160.32 L84.898,165.418 Q83.752,165.361 81.609,165.191 Q75.399,164.738 73.181,164.738 Q71.333,164.738 68.45,164.908 Q65.567,165.078 61.686,165.418 L61.686,160.32 Q61.945,160.376 62.241,160.405 Q62.536,160.433 63.091,160.433 Q66.085,160.433 67.138,157.487 Q68.191,154.542 68.191,143.382 L68.191,137.547 Q68.191,134.828 68.173,133.44 Q68.154,132.053 68.118,130.75 L68.118,118.344 Q68.118,115.342 68.154,110.725 Q68.191,106.108 68.191,104.409 Q68.191,94.835 67.138,92.201 Q66.085,89.567 63.091,89.567 Q62.98,89.567 62.61,89.624 Q62.241,89.68 62.056,89.68 z" fill="#000000" fill-opacity="0.203"/>
  </g>
  <g id="Waste" display="none">
    <path d="M166.138,-0 C173.241,0 179,5.643 179,12.605 L179,237.395 C179,244.357 173.241,250 166.138,250 L12.862,250 C5.759,250 0,244.357 0,237.395 L-0,12.605 C0,5.643 5.759,0 12.862,0 L166.138,-0 z M166.138,6 L12.862,6 C9.046,6 6,8.985 6,12.605 L6,153.22 C7.772,150.114 6.728,151.799 9.225,148.222 Q11.444,145.312 13.843,142.628 Q16.243,139.944 18.508,137.644 Q20.773,135.345 22.454,133.504 Q25.595,130.049 27.614,127.778 Q29.634,125.508 30.822,123.724 L31.665,124.553 Q29.681,128.211 28.892,132.429 Q28.103,136.647 27.922,141.29 Q27.74,145.932 27.938,150.973 Q28.136,156.013 28.083,161.299 Q28.03,166.586 27.459,172.075 Q26.887,177.564 25.218,183.155 L25.384,183.22 Q28.816,177.443 31.26,171.998 Q33.703,166.553 35.498,160.668 Q37.294,154.783 38.536,148.182 Q39.779,141.582 40.833,133.565 Q41.399,129.104 42.692,125.332 Q43.986,121.561 45.376,118.795 Q46.766,116.029 48.019,114.333 Q49.271,112.637 49.818,112.289 Q50.485,111.863 50.945,112.167 Q51.405,112.472 51.584,113.041 Q51.896,114.037 51.315,115.433 Q50.733,116.829 49.864,118.238 Q48.994,119.646 48.164,120.945 Q47.333,122.244 47.109,123.155 Q46.645,125.159 46.727,128.438 Q46.809,131.716 47.068,135.906 Q47.327,140.097 47.621,144.863 Q47.915,149.629 47.884,154.517 Q47.852,159.406 47.355,164.206 Q46.859,169.007 45.484,173.215 L45.65,173.279 Q48.12,169.312 50.821,164.686 Q53.521,160.059 56.015,155.009 Q58.51,149.958 60.533,144.568 Q62.557,139.177 63.665,133.773 Q64.774,128.368 64.774,123.031 Q64.774,117.693 63.188,112.641 Q62.341,112.498 61.668,111.86 Q60.994,111.222 60.547,109.799 Q60.033,108.162 60.694,106.204 Q61.354,104.245 62.75,103.355 Q63.842,102.658 64.871,102.685 Q65.899,102.712 66.766,103.269 Q67.633,103.826 68.275,104.826 Q68.917,105.826 69.297,107.035 Q70.525,110.949 70.266,115.811 Q70.008,120.673 68.741,125.922 Q67.475,131.171 65.391,136.601 Q63.307,142.03 60.887,147.203 Q58.468,152.376 55.983,156.994 Q53.498,161.611 51.378,165.184 Q49.257,168.757 47.744,171.132 Q46.231,173.506 45.797,174.211 Q44.272,176.55 43.579,177.59 Q42.886,178.63 42.512,179.296 L40.969,179.255 Q41.823,176.405 41.632,172.085 Q41.442,167.765 40.948,162.828 Q40.455,157.89 40.079,152.749 Q39.704,147.608 40.232,143.257 L40.066,143.192 Q38.527,153.142 36.263,160.436 Q34,167.731 31.751,172.752 Q29.503,177.774 27.723,180.575 Q25.943,183.376 25.454,184.371 Q25.24,184.849 24.787,186.077 Q24.335,187.305 23.723,188.721 Q23.111,190.136 22.371,191.377 Q21.631,192.617 20.842,193.121 Q20.296,193.469 19.941,193.268 Q19.587,193.068 19.431,192.569 Q19.252,192 19.455,191.486 Q19.658,190.973 20.001,190.326 Q20.345,189.68 20.674,188.872 Q21.003,188.064 21.061,187.088 Q21.449,182.058 21.158,177.418 Q20.868,172.778 20.549,168.284 Q20.231,163.789 20.118,159.25 Q20.004,154.711 20.705,149.865 Q21.406,145.019 23.164,139.713 Q24.923,134.406 28.349,128.377 L28.182,128.312 L18.006,139.758 Q12.089,146.437 9.345,152.202 Q6.601,157.967 8.008,162.449 Q8.611,164.371 10.157,165.349 Q11.703,166.327 13.645,165.088 Q14.859,164.313 15.541,163.237 Q16.223,162.162 16.502,160.959 Q16.78,159.757 16.699,158.57 Q16.618,157.384 16.327,156.459 Q16.059,155.605 15.742,154.825 Q15.424,154.046 14.974,153.308 L15.581,152.921 Q16.009,153.587 16.387,154.328 Q16.765,155.069 17.056,155.994 Q18.284,159.907 16.731,163.546 Q15.177,167.185 11.839,169.315 Q10.564,170.128 9.282,170.22 Q7.999,170.312 6.898,169.82 L6,169.273 L6,237.395 C6,241.015 9.046,244 12.862,244 L166.138,244 C169.954,244 173,241.015 173,237.395 L173,82.385 L172.177,84.784 Q169.463,92.152 166.277,97.089 Q163.091,102.025 158.236,105.123 Q154.047,107.795 151.147,106.912 Q148.247,106.029 146.885,101.689 L146.609,100.555 C146.138,102.228 146.597,100.605 144.972,105.343 Q143.228,110 140.747,113.932 Q138.266,117.864 134.624,120.187 Q131.832,121.969 129.919,121.097 Q128.006,120.225 127.134,117.45 Q126.688,116.027 126.586,114.426 L126.557,113.631 C124.63,118.693 125.574,116.513 123.853,120.226 Q121.584,124.834 118.24,128.803 Q114.897,132.773 109.98,135.91 Q108.159,137.072 106.416,137.671 Q104.674,138.27 103.23,138.081 Q101.787,137.892 100.661,136.859 C99.968,136.107 100.26,136.509 99.771,135.663 C98.986,137.999 97.91,140.218 96.75,142.386 Q94.987,145.475 92.62,146.985 Q90.556,148.302 89.218,148.216 Q87.88,148.131 86.995,147.286 Q86.111,146.441 85.618,145.218 Q85.125,143.995 84.812,142.999 L84.585,142.973 Q84.038,144.945 83.34,147.013 Q82.641,149.081 81.652,151.036 Q80.663,152.991 79.418,154.596 Q78.174,156.202 76.535,157.247 Q73.621,159.106 71.498,158.027 Q69.374,156.948 67.967,152.465 Q66.984,149.334 67.281,145.174 Q67.577,141.013 69.176,136.705 Q70.774,132.398 73.615,128.45 Q76.455,124.503 80.522,121.908 Q82.89,120.398 84.569,120.991 Q86.249,121.585 87.261,123.416 L87.383,123.339 L87.799,118.632 L96.329,112.848 Q96.019,114.413 95.515,116.869 Q95.011,119.326 94.445,122.164 Q93.879,125.002 93.369,128.017 Q92.858,131.033 92.527,133.807 Q92.195,136.581 92.139,138.837 Q92.082,141.094 92.484,142.375 Q93.132,144.438 94.528,143.547 Q95.803,142.734 97.086,140.207 C97.955,138.497 98.675,136.716 99.339,134.917 C99.087,134.482 99.273,134.823 98.91,133.834 Q98.084,131.201 99.03,128.761 Q99.976,126.321 101.858,125.121 L102.461,124.797 C103.643,120.239 103.152,122.212 103.963,118.885 C103.558,118.307 103.76,118.656 103.422,117.803 Q102.886,116.095 103.062,114.104 Q103.238,112.113 104.152,110.035 Q105.066,107.957 106.725,106.045 Q108.383,104.133 110.811,102.584 Q114.331,100.338 116.983,100.312 Q119.634,100.286 120.46,102.919 Q121.086,104.911 120.323,106.892 Q119.561,108.873 117.983,109.88 Q116.587,110.77 115.105,110.691 Q115.284,109.637 115.258,108.629 Q115.233,107.62 114.898,106.553 Q114.34,104.774 113.195,103.796 Q112.05,102.818 110.472,103.825 Q109.076,104.716 108.644,106.358 Q108.213,108 108.793,109.85 Q109.352,111.628 110.742,112.577 Q112.133,113.526 113.664,114.343 Q115.196,115.159 116.62,116.215 Q118.044,117.271 118.692,119.334 Q119.451,121.753 119.036,124.026 Q118.62,126.298 117.079,128.818 L117.245,128.883 Q119.587,126.364 121.537,122.942 Q123.486,119.521 125.033,115.63 C126.533,111.51 126.066,113.032 126.635,111.13 L126.697,110.255 Q126.911,107.685 127.391,103.877 Q127.871,100.069 128.671,94.264 L123.755,97.4 L123.822,95.991 L128.86,92.777 L130.781,79.168 L139.106,73.429 L136.994,87.587 L145.31,82.282 L145.181,83.73 L136.805,89.074 Q136.491,91.324 135.875,95.048 Q135.259,98.772 134.741,102.69 Q134.222,106.608 134.001,110.08 Q133.779,113.552 134.338,115.331 Q134.717,116.54 135.473,116.742 Q136.228,116.943 137.26,116.285 Q138.838,115.278 140.275,113.123 Q141.711,110.968 142.988,108.189 Q144.265,105.41 145.297,102.318 C146.318,99.166 145.976,100.287 146.376,98.97 C146.172,94.879 146.076,96.729 146.472,93.412 Q147.243,88.906 149.223,84.653 Q151.203,80.401 153.982,76.835 Q156.76,73.269 159.673,71.41 Q162.587,69.551 164.815,69.453 Q167.043,69.356 167.825,71.846 Q168.606,74.337 167.123,77.503 Q165.64,80.67 163.231,83.787 Q160.822,86.904 158.226,89.543 Q155.63,92.181 154.125,93.654 Q154.227,94.443 154.39,95.193 Q154.552,95.943 154.776,96.655 Q155.178,97.935 155.811,99.026 Q156.445,100.116 157.312,100.673 Q158.179,101.23 159.299,101.199 Q160.418,101.168 161.814,100.278 Q164.667,98.457 167.174,93.911 Q169.681,89.365 171.858,83.536 C172.689,81.172 172.312,82.303 173,80.147 L173,12.605 C173,8.985 169.954,6 166.138,6 z M83.091,121.846 C81.845,122.061 82.354,121.863 81.519,122.297 Q80.244,123.11 79.252,124.939 Q78.259,126.768 77.54,129.234 Q76.821,131.7 76.357,134.515 Q75.893,137.331 75.724,140.043 Q75.556,142.756 75.74,145.2 Q75.925,147.644 76.438,149.281 Q76.818,150.491 77.581,151.413 Q78.344,152.335 79.558,151.561 Q80.833,150.748 82.233,147.548 Q83.633,144.349 84.637,140.122 Q85.641,135.894 85.932,131.481 Q86.222,127.068 85.217,123.866 Q84.703,122.23 83.627,121.934 L83.091,121.846 z M104.297,119.361 C103.56,122.323 104,120.552 102.975,124.675 C103.911,124.469 103.464,124.483 104.311,124.581 Q105.489,124.854 106.025,126.561 Q106.517,128.127 105.973,129.413 Q105.43,130.699 104.459,131.319 Q103.73,131.783 103.178,131.88 Q103.053,132.643 103.299,133.425 Q104.014,135.702 105.436,136.289 Q106.859,136.876 108.862,135.598 Q111.472,133.933 112.188,131.341 Q112.905,128.749 112.123,126.258 Q111.654,124.764 110.418,123.844 Q109.182,122.925 107.783,122.066 Q106.385,121.208 105.138,120.253 C104.447,119.638 104.71,119.951 104.297,119.361 z M159.973,72.58 C159.106,72.771 159.471,72.621 158.849,72.961 Q157.514,73.813 156.468,76.401 Q155.423,78.99 154.822,82.064 Q154.22,85.138 153.986,88.105 Q153.752,91.073 154.001,92.793 Q156.349,90.527 157.969,87.913 Q159.589,85.299 160.502,82.753 Q161.415,80.206 161.562,77.891 Q161.71,75.577 161.174,73.869 C160.916,73.059 160.736,72.878 159.973,72.58 z" fill="#000000" fill-opacity="0.198"/>
  </g>
  <g id="Redeal">
    <path d="M166.138,-0 C173.241,-0 179,5.643 179,12.605 L179,237.395 C179,244.357 173.241,250 166.138,250 L12.862,250 C5.759,250 -0,244.357 -0,237.395 L-0,12.605 C-0,5.643 5.759,-0 12.862,-0 L166.138,-0 z M173,71.731 L172.209,74.961 Q171.252,78.52 169.937,81.485 Q168.622,84.45 166.864,86.115 Q164.692,88.173 163.042,87.672 Q161.393,87.171 160.535,84.839 Q159.946,83.237 159.651,81.109 L159.552,80.278 C158.924,84.186 159.25,82.367 158.6,85.739 Q157.666,90.308 156.343,93.821 Q155.02,97.333 153.003,99.244 Q151.245,100.91 150.019,100.99 Q148.793,101.07 147.911,100.285 Q147.029,99.499 146.469,98.261 Q145.909,97.023 145.534,96.004 L145.325,96.005 Q145.007,98.173 144.56,100.463 Q144.112,102.754 143.39,104.96 Q142.668,107.167 141.681,109.035 Q140.695,110.903 139.298,112.226 Q136.816,114.577 134.785,113.701 Q132.754,112.825 131.065,108.235 L130.712,107.101 L130.689,107.215 Q128.89,115.404 126.44,121.065 Q123.99,126.726 119.852,130.645 Q116.284,134.025 113.564,133.457 Q110.845,132.89 109.209,128.446 L109.02,127.819 C108.313,132.151 108.702,130.009 107.856,134.246 Q106.759,139.412 105.393,142.524 Q104.027,145.635 102.062,147.496 Q100.045,149.407 98.238,148.761 Q96.431,148.114 95.465,145.492 Q95.171,144.69 95.081,143.498 L94.924,143.451 Q94.32,148.444 92.838,153.04 Q91.356,157.637 88.15,160.674 Q85.719,162.976 83.698,161.845 Q81.678,160.713 80.552,157.653 C79.874,155.473 79.994,156.233 79.872,155.448 C78.91,160.151 77.419,164.714 75.653,169.17 Q73.203,174.831 69.066,178.75 Q65.497,182.13 62.778,181.563 Q60.058,180.995 58.423,176.551 L58.096,175.472 C57.726,177.903 58.037,175.933 56.943,181.342 Q55.779,186.424 54.124,190.644 Q52.468,194.864 50.089,197.118 Q47.452,199.616 45.358,198.947 Q43.263,198.279 41.976,194.782 Q41.172,192.596 41.041,189.871 Q40.91,187.146 40.935,184.372 Q40.96,181.597 40.91,179.09 Q40.859,176.584 40.242,174.908 Q39.465,172.796 38.236,172.584 Q37.008,172.373 35.715,173.597 L35.146,174.136 L34.979,173.115 Q37.513,170.715 39.147,168.332 Q40.781,165.949 41.81,161.732 Q42.588,158.539 42.433,154.707 Q42.278,150.875 41.125,147.742 Q40.482,145.994 39.165,144.785 Q37.849,143.576 36.307,143.366 Q35.379,147.29 34.846,151.431 Q34.312,155.572 34.056,160.088 Q33.8,164.604 33.733,169.727 Q33.665,174.851 33.592,180.717 Q33.469,189.479 32.389,196.495 Q31.309,203.51 29.38,209.071 Q27.451,214.631 24.778,218.834 Q22.105,223.036 18.795,226.171 Q14.864,229.894 11.577,230.06 Q8.291,230.226 6.655,225.782 Q5.824,223.524 6.204,220.954 Q6.583,218.384 8.29,216.767 Q9.79,215.347 11.071,215.606 Q12.352,215.866 13.13,217.979 Q13.585,219.218 13.547,220.629 Q13.509,222.041 12.689,223.604 Q12.8,224.285 12.853,224.43 Q13.711,226.761 15.265,226.813 Q16.818,226.864 18.576,225.199 Q20.749,223.141 22.152,219.847 Q23.555,216.553 24.39,212.569 Q25.226,208.585 25.613,204.141 Q26,199.697 26.128,195.401 Q26.255,191.104 26.257,187.222 Q26.258,183.341 26.36,180.395 Q26.431,174.335 26.805,169.854 Q27.179,165.374 27.961,161.341 Q28.744,157.309 30.048,153.176 Q31.351,149.043 33.282,143.677 Q31.172,144.006 28.825,145.59 Q26.479,147.174 24.669,148.888 Q22.29,151.142 19.907,154.332 Q17.524,157.523 15.473,161.332 Q13.423,165.141 11.872,169.36 Q10.321,173.58 9.529,177.966 Q8.737,182.351 8.896,186.67 Q9.056,190.989 10.4,195.021 Q10.963,196.551 11.771,197.799 Q12.579,199.048 13.565,199.736 Q14.55,200.423 15.724,200.392 Q16.898,200.36 18.166,199.258 Q20.519,196.931 21.701,193.699 Q22.883,190.468 23.175,186.998 Q23.467,183.528 23.004,180.184 Q22.541,176.841 21.629,174.364 Q20.986,172.615 20.333,171.22 Q19.68,169.824 19.121,168.684 L19.663,168.072 Q20.275,169.358 20.928,170.656 Q21.58,171.955 22.277,173.849 Q23.885,178.22 24.059,182.672 Q24.233,187.125 23.359,191.195 Q22.486,195.264 20.731,198.646 Q18.976,202.027 16.701,204.183 Q14.839,205.946 13.031,206.529 Q11.223,207.112 9.64,206.695 Q8.057,206.279 6.765,204.948 C6.087,204.16 6.313,204.503 6,203.982 L6,237.395 C6,241.015 9.046,244 12.862,244 L166.138,244 C169.954,244 173,241.015 173,237.395 L173,71.731 z M166.138,6 L12.862,6 C9.046,6 6,8.985 6,12.605 L6,177.741 C7.794,172.865 6.898,175.04 8.601,171.181 Q10.979,166.08 13.741,161.646 Q16.503,157.212 19.365,153.617 Q22.227,150.023 24.606,147.769 Q27.76,144.781 30.43,142.842 Q33.099,140.903 35.123,139.772 Q36.253,137.915 37.205,136.522 Q38.157,135.129 39.164,133.979 Q40.171,132.829 41.178,131.777 Q42.186,130.724 43.375,129.597 L43.8,130.374 Q41.008,133.019 39.747,134.901 Q38.487,136.782 37.851,138.465 Q39.569,138.017 41.147,137.946 Q42.725,137.876 44.075,138.416 Q45.424,138.955 46.533,140.263 Q47.642,141.57 48.473,143.828 Q49.894,147.69 49.371,151.575 Q48.847,155.46 47.186,158.998 Q45.524,162.537 43.14,165.631 Q40.756,168.724 38.456,171.001 L38.509,171.146 Q39.837,170.774 41.167,170.692 Q42.497,170.611 43.689,171.103 Q44.882,171.595 45.923,172.72 Q46.965,173.846 47.716,175.886 Q48.306,177.488 48.587,179.58 Q48.869,181.671 49.006,183.751 Q49.144,185.831 49.332,187.667 Q49.519,189.504 49.948,190.669 Q50.35,191.762 51.004,191.928 Q51.658,192.095 52.279,191.507 Q53.21,190.625 54.102,188.405 Q54.993,186.185 55.762,183.345 Q56.53,180.505 57.163,177.204 L57.749,174.013 C57.153,169.391 57.233,171.467 57.293,167.796 Q57.585,162.903 58.999,158.124 Q60.414,153.345 62.618,149.195 Q64.822,145.044 67.304,142.693 Q69.787,140.341 71.806,139.952 Q73.825,139.562 74.763,142.112 Q75.701,144.662 74.64,148.222 Q73.578,151.781 71.67,155.407 Q69.761,159.033 67.638,162.173 Q65.516,165.313 64.28,167.073 Q64.445,167.899 64.661,168.677 Q64.878,169.454 65.146,170.183 Q65.628,171.494 66.304,172.573 Q66.981,173.652 67.82,174.134 Q68.66,174.615 69.676,174.439 Q70.692,174.262 71.882,173.136 Q74.313,170.833 76.18,165.675 Q78.048,160.516 79.499,154.033 L79.587,153.606 C79.026,149.993 79.173,151.757 79.103,148.316 Q79.21,143.205 80.519,138.232 Q81.827,133.259 84.108,128.938 Q86.388,124.616 89.181,121.971 Q90.836,120.403 92.38,120.808 Q93.923,121.212 95.063,122.982 L95.958,83.72 L103.137,75.938 Q102.546,90.252 102.112,100.537 Q101.677,110.822 101.395,118.015 Q101.113,125.209 101.013,129.675 Q100.913,134.142 100.939,136.77 Q100.965,139.399 101.121,140.675 Q101.277,141.952 101.572,142.754 Q101.893,143.628 102.431,143.856 Q102.968,144.084 103.692,143.398 Q104.571,142.565 105.638,139.589 Q106.705,136.614 107.502,132.715 C108.293,128.629 107.923,130.721 108.604,126.437 C107.939,121.285 108.017,123.539 108.08,119.691 Q108.371,114.797 109.786,110.019 Q111.201,105.24 113.405,101.089 Q115.609,96.939 118.091,94.587 Q120.573,92.236 122.592,91.846 Q124.611,91.457 125.549,94.007 Q126.488,96.557 125.426,100.116 Q124.365,103.676 122.456,107.302 Q120.547,110.927 118.425,114.067 Q116.302,117.208 115.067,118.967 Q115.232,119.794 115.448,120.571 Q115.664,121.349 115.932,122.077 Q116.415,123.389 117.091,124.468 Q117.767,125.546 118.607,126.028 Q119.447,126.51 120.463,126.333 Q121.479,126.157 122.668,125.03 Q125.099,122.728 126.967,117.569 Q128.835,112.41 130.285,105.928 L130.368,105.523 C129.778,102.009 129.951,103.665 129.776,100.564 Q129.667,96.099 130.73,91.311 Q131.792,86.522 134.018,81.957 Q136.244,77.393 139.709,74.111 Q141.726,72.2 143.309,72.616 Q144.892,73.033 145.98,74.851 L146.083,74.754 L146.034,69.691 L153.27,62.444 Q153.13,64.148 152.896,66.827 Q152.661,69.506 152.404,72.598 Q152.147,75.69 151.957,78.965 Q151.767,82.24 151.718,85.233 Q151.669,88.227 151.823,90.636 Q151.977,93.044 152.46,94.355 Q153.237,96.468 154.427,95.341 Q155.513,94.313 156.451,91.46 Q157.388,88.606 158.249,84.5 C158.946,80.994 158.548,83.094 159.384,78.189 C159.283,76.804 159.332,77.606 159.259,75.781 Q159.163,72.582 159.262,68.018 Q159.361,63.454 159.611,57.027 Q159.862,50.601 160.222,42.007 Q160.581,33.414 160.967,22.143 L168.301,14.214 Q167.58,31.206 166.991,43.062 Q166.402,54.917 166.127,62.792 Q165.852,70.667 165.959,75.035 Q166.067,79.403 166.791,81.37 Q167.086,82.171 167.583,82.29 Q168.08,82.409 168.494,82.017 Q169.683,80.89 170.81,77.318 Q171.936,73.746 172.857,69.14 L173,68.356 L173,12.605 C173,8.985 169.954,6 166.138,6 z M67.683,143.9 C66.906,144.216 67.223,144.013 66.695,144.449 Q65.558,145.526 64.842,148.415 Q64.126,151.303 63.859,154.651 Q63.591,157.999 63.649,161.187 Q63.706,164.375 64.089,166.173 Q66.02,163.46 67.256,160.471 Q68.493,157.483 69.092,154.656 Q69.69,151.829 69.614,149.347 Q69.537,146.865 68.894,145.117 C68.602,144.344 68.463,144.137 67.683,143.9 z M91.542,121.688 C90.304,122.011 90.809,121.734 89.968,122.404 Q88.417,123.874 87.488,127.701 Q86.56,131.527 86.239,136.056 Q85.918,140.585 86.235,144.951 Q86.551,149.318 87.49,151.868 Q88.106,153.543 88.909,154.208 Q89.711,154.872 90.694,153.941 Q91.935,152.766 92.748,150.522 Q93.561,148.278 94.042,145.415 Q94.523,142.553 94.649,139.388 Q94.775,136.223 94.681,133.316 Q94.587,130.408 94.25,127.976 Q93.913,125.544 93.404,124.16 Q92.787,122.485 91.973,121.881 L91.542,121.688 z M118.47,95.794 C117.692,96.111 118.01,95.908 117.482,96.343 Q116.344,97.421 115.628,100.309 Q114.913,103.198 114.645,106.546 Q114.378,109.894 114.435,113.081 Q114.492,116.269 114.875,118.068 Q116.806,115.355 118.043,112.366 Q119.279,109.377 119.878,106.55 Q120.477,103.724 120.4,101.242 Q120.324,98.76 119.681,97.011 C119.388,96.239 119.249,96.031 118.47,95.794 z M142.042,73.715 C140.919,74.106 141.36,73.837 140.651,74.397 Q139.565,75.426 138.829,77.499 Q138.092,79.572 137.662,82.288 Q137.232,85.004 137.066,88.06 Q136.9,91.115 136.993,94.023 Q137.087,96.931 137.478,99.508 Q137.868,102.085 138.485,103.761 Q138.941,105 139.719,105.883 Q140.498,106.767 141.532,105.787 Q142.618,104.758 143.601,101.175 Q144.584,97.591 145.113,92.964 Q145.642,88.337 145.504,83.604 Q145.366,78.871 144.16,75.593 Q143.543,73.917 142.537,73.741 L142.042,73.715 z" fill="#000000" fill-opacity="0.204"/>
  </g>
  <g id="Disallow" display="none" opacity="0.334">
    <path d="M55.851,91.352 L124.149,159.649" fill-opacity="0" stroke="#A60707" stroke-width="12"/>
    <path d="M124.149,91.351 L55.851,159.648" fill-opacity="0" stroke="#A60707" stroke-width="12"/>
  </g>
  <g id="Allow" display="none" opacity="0.327">
    <path d="M90,159.648 C71.14,159.648 55.851,144.36 55.851,125.5 C55.851,106.64 71.14,91.351 90,91.351 C108.86,91.351 124.149,106.64 124.149,125.5 C124.149,144.36 108.86,159.648 90,159.648 z" fill-opacity="0" stroke="#1DA607" stroke-width="12"/>
  </g>
</svg>
