<?xml version="1.0" encoding="utf-8"?>
<!DOCTYPE svg PUBLIC "-//W3C//DTD SVG 1.1//EN" "http://www.w3.org/Graphics/SVG/1.1/DTD/svg11.dtd">
<svg version="1.1" id="Layer_1" xmlns="http://www.w3.org/2000/svg" xmlns:xlink="http://www.w3.org/1999/xlink" x="0px" y="0px"
	 width="179px" height="250px" viewBox="0 0 179 250" enable-background="new 0 0 179 250" xml:space="preserve">
<g id="Spades" transform="translate(0, 0)">
	<path fill="#FFFFFF" fill-opacity="0.152" d="M166.1,0c7.1,0,12.9,5.6,12.9,12.6v224.8c0,7-5.8,12.6-12.9,12.6H12.9
		C5.8,250,0,244.4,0,237.4V12.6C0,5.6,5.8,0,12.9,0H166.1z M166.1,4H12.9C8,4,4,7.9,4,12.6v224.8c0,4.7,4,8.6,8.9,8.6h153.3
		c4.9,0,8.9-3.9,8.9-8.6V12.6C175,7.9,171,4,166.1,4z"/>
	<path fill-opacity="0.33" d="M95.7,157.5H83.3c1.5-1.7,2.7-3.7,3.4-6c0.7-2.4,1.1-5.1,1.1-8.3c0-2-0.2-3.4-0.5-4.2
		s-0.9-1.2-1.7-1.2c-1.2,0-2.2,1.2-3,3.7c-0.5,1.2-0.9,2.1-1.2,2.8c-1,2.2-2.5,3.8-4.3,5c-1.8,1.2-3.9,1.8-6.1,1.8
		c-3.3,0-6-1.2-8.3-3.5s-3.4-5.3-3.4-8.8c0-2.7,0.6-5.3,1.9-8c1.3-2.7,3.6-6.3,7.1-10.7c0.8-1,2.2-2.7,4.1-5
		c7.4-8.8,13-16.3,17-22.5c3.6,5.7,9,12.9,16.3,21.8c2.1,2.5,3.6,4.4,4.6,5.6c3.5,4.4,5.9,8,7.2,10.8s1.9,5.5,1.9,8.2
		c0,3.5-1.1,6.4-3.4,8.8s-5,3.5-8.3,3.5c-2.2,0-4.2-0.6-6.1-1.8s-3.3-2.9-4.3-5c-0.3-0.6-0.7-1.5-1.1-2.8c-0.9-2.4-1.9-3.7-3.1-3.7
		c-0.8,0-1.3,0.4-1.7,1.2s-0.5,2.2-0.5,4.2c0,3.2,0.4,5.9,1.1,8.3S94.2,155.8,95.7,157.5z"/>
</g>
</svg>
